<svg id="Layer_3" data-name="Layer 3" xmlns="http://www.w3.org/2000/svg" viewBox="0 0 70 70"><defs><style>.cls-1{fill:#cc4140;}.cls-2{fill:#fff;}.cls-3{fill:#78c144;}.cls-4{fill:#231f20;}</style></defs><path class="cls-1" d="M30.45,56.9c-6.17,0-11.89-6.3-13.31-14.67-1.54-9.13,2.58-17.47,9.19-18.59a8.89,8.89,0,0,1,1.48-.12A10.69,10.69,0,0,1,34.35,26a1.1,1.1,0,0,0,1.35,0,10.72,10.72,0,0,1,6.54-2.44,8.84,8.84,0,0,1,1.52.13c6.6,1.15,10.68,9.51,9.09,18.64C51.41,50.62,45.68,56.9,39.53,56.9h0a8.81,8.81,0,0,1-4-1,1.11,1.11,0,0,0-1,0,8.91,8.91,0,0,1-2.57.86A8.81,8.81,0,0,1,30.45,56.9Z"/><path class="cls-2" d="M27.81,24.63a9.61,9.61,0,0,1,5.86,2.21,2.2,2.2,0,0,0,2.7,0,9.64,9.64,0,0,1,5.87-2.2,7.79,7.79,0,0,1,1.33.12c6,1,9.68,8.84,8.2,17.36-1.36,7.8-6.63,13.68-12.25,13.68A7.72,7.72,0,0,1,36,54.94a2.2,2.2,0,0,0-2,0,7.72,7.72,0,0,1-3.55.86c-5.64,0-10.9-5.91-12.22-13.75-1.44-8.54,2.28-16.31,8.29-17.32a7.79,7.79,0,0,1,1.29-.11m0-2.2a10,10,0,0,0-1.66.14c-7.22,1.22-11.74,10.11-10.09,19.86C17.58,51.42,23.82,58,30.45,58A9.92,9.92,0,0,0,35,56.91,9.92,9.92,0,0,0,39.53,58c6.61,0,12.86-6.54,14.42-15.51,1.7-9.74-2.77-18.65-10-19.91a10,10,0,0,0-1.71-.15A11.81,11.81,0,0,0,35,25.1a11.78,11.78,0,0,0-7.22-2.67h0Z"/><path class="cls-3" d="M36.11,20.05a7.33,7.33,0,0,1,1.33-4.91,6.26,6.26,0,0,1,4.92-2A7.45,7.45,0,0,1,36.11,20.05Z"/><path class="cls-2" d="M41,14.42a7.07,7.07,0,0,1-.36,1,5.93,5.93,0,0,1-3.4,3.16,5.19,5.19,0,0,1,1-2.72A4.4,4.4,0,0,1,41,14.42m1.64-2.33c-9.32,0-7.52,9.25-7.52,9.25,8.94-1.09,8.36-9.22,8.36-9.22l-0.84,0h0Z"/><path class="cls-4" d="M30.45,58.66c-7,0-13.57-6.85-15.14-16.21C13.6,32.32,18.4,23,26,21.74a12,12,0,0,1,9,2.34,12,12,0,0,1,9.06-2.32h0C47.8,22.4,51,25,52.95,28.93a22.09,22.09,0,0,1,1.72,13.6c-1.77,10.13-9.39,17.28-17,16A10.79,10.79,0,0,1,35,57.65a10.76,10.76,0,0,1-2.76.86A10.57,10.57,0,0,1,30.45,58.66ZM27.82,23.09a9.33,9.33,0,0,0-1.55.13c-6.8,1.15-11.05,9.67-9.48,19S25.16,58.17,32,57a9.3,9.3,0,0,0,2.67-.89,0.75,0.75,0,0,1,.68,0,9.28,9.28,0,0,0,2.61.87c6.79,1.19,13.64-5.43,15.26-14.75A20.58,20.58,0,0,0,51.61,29.6c-1.78-3.54-4.54-5.81-7.79-6.37h0a10.5,10.5,0,0,0-8.34,2.37,0.75,0.75,0,0,1-.92,0A11,11,0,0,0,27.82,23.09Z"/><path class="cls-4" d="M35,24.66H34.93a0.75,0.75,0,0,1-.67-0.82c0-.17.34-4.08-3.27-4.77a0.75,0.75,0,0,1,.28-1.47c4,0.76,4.66,4.51,4.47,6.39A0.75,0.75,0,0,1,35,24.66Z"/><path class="cls-4" d="M35.14,22.08a0.75,0.75,0,0,1-.74-0.61c0-.19-0.87-4.66,1.72-7.63,1.59-1.83,4.09-2.66,7.41-2.48a0.75,0.75,0,0,1,.71.7c0,0.09.52,8.85-9,10H35.14Zm7.52-9.25c-2.43,0-4.25.67-5.4,2-1.57,1.79-1.58,4.41-1.47,5.66,6.06-1.09,6.87-5.85,7-7.64H42.66Z"/></svg>