<svg xmlns="http://www.w3.org/2000/svg" viewBox="0 0 70 70"><defs><style>.cls-1{isolation:isolate;}.cls-2{mix-blend-mode:multiply;}.cls-3{fill:#fdb71c;}.cls-4{fill:#fff;}.cls-5{fill:#231f20;}</style></defs><g class="cls-1"><g id="Layer_1" data-name="Layer 1"><g class="cls-2"><path class="cls-3" d="M33.53,50.27a46.27,46.27,0,0,1-12-1.52,22,22,0,0,1-12-8.3,34.7,34.7,0,0,1-3.44-5.82,1,1,0,0,1,.27-1.13l0.29-.24A1,1,0,0,1,7.27,33a1,1,0,0,1,.43.1c4.25,2.08,15,6.91,23.64,6.91a17.53,17.53,0,0,0,4.08-.44c1.38-.33,2.63-0.65,3.75-1a38.51,38.51,0,0,0,13.08-6.46,18.72,18.72,0,0,1,4.46-2.71c2.89-.85,4.83-8.71,5-9.61a0.17,0.17,0,0,1,.15-0.13h0a3.41,3.41,0,0,1,2.05.85c-0.57.87-4,6.31-3.22,11.28a10.18,10.18,0,0,1-2.62,8.35c-0.13.14-8.7,9.37-22.1,10Q34.74,50.28,33.53,50.27Z"/><path class="cls-4" d="M59.73,28.1A12.32,12.32,0,0,0,59.64,32a9.11,9.11,0,0,1-2.3,7.4l0,0,0,0c-0.08.09-8.38,9-21.3,9.61-0.81,0-1.63.06-2.43,0.06a45.21,45.21,0,0,1-11.7-1.49A20.85,20.85,0,0,1,10.42,39.8a33.62,33.62,0,0,1-3.28-5.52l0.15-.13c4.36,2.13,15.28,7,24.05,7a18.61,18.61,0,0,0,4.33-.47c1.33-.32,2.6-0.65,3.78-1A39.63,39.63,0,0,0,52.9,33.06,17.94,17.94,0,0,1,57,30.52a5.39,5.39,0,0,0,2.72-2.42M62,18.63H61.74a1.27,1.27,0,0,0-1.07,1c-0.39,1.66-2.31,8.22-4.29,8.81a19.57,19.57,0,0,0-4.81,2.89,37.58,37.58,0,0,1-12.71,6.28c-1.11.3-2.34,0.62-3.71,1a16.38,16.38,0,0,1-3.82.41c-8.53,0-19.56-5-23.16-6.8a2.07,2.07,0,0,0-2.24.27l-0.29.24a2.06,2.06,0,0,0-.57,2.44,35.8,35.8,0,0,0,3.55,6,23,23,0,0,0,12.62,8.72,47.38,47.38,0,0,0,12.27,1.56q1.23,0,2.53-.06A35.49,35.49,0,0,0,58.89,41a11.38,11.38,0,0,0,2.93-9.3c-0.66-4.38,2.36-9.54,3.11-10.6a0.9,0.9,0,0,0,0-1.06,4.3,4.3,0,0,0-3-1.4h0Z"/><path class="cls-5" d="M33.52,52.13a48,48,0,0,1-12.45-1.59,23.8,23.8,0,0,1-13-9A36.43,36.43,0,0,1,4.4,35.41a2.81,2.81,0,0,1,.77-3.33h0l0.29-.24a2.83,2.83,0,0,1,3-.37c4.08,2,18.05,8.36,26.48,6.33,1.37-.33,2.59-0.64,3.69-0.95A36.7,36.7,0,0,0,51.13,30.7a20.71,20.71,0,0,1,5-3c1.2-.35,3-5,3.77-8.26a2,2,0,0,1,1.7-1.54,5,5,0,0,1,3.88,1.68,1.64,1.64,0,0,1,0,1.94c-1,1.36-3.57,6.14-3,10.06a12.05,12.05,0,0,1-3.15,10A35.88,35.88,0,0,1,36.1,52.06Q34.8,52.13,33.52,52.13ZM6.13,33.23a1.31,1.31,0,0,0-.37,1.55,35.12,35.12,0,0,0,3.48,5.88,22.3,22.3,0,0,0,12.21,8.43A47.49,47.49,0,0,0,36,50.56c13.56-.65,22.22-10,22.3-10.08a10.74,10.74,0,0,0,2.75-8.68c-0.8-5.25,3.2-11.09,3.24-11.14a0.16,0.16,0,0,0,0-.17,3.56,3.56,0,0,0-2.49-1.1,0.52,0.52,0,0,0-.44.4c0,0.08-2.06,8.54-4.8,9.35A18.62,18.62,0,0,0,52,31.9a38.2,38.2,0,0,1-13,6.4c-1.11.3-2.35,0.62-3.74,1C26.43,41.39,12,34.87,7.85,32.82A1.33,1.33,0,0,0,6.42,33Z"/><path class="cls-5" d="M31.73,45a32.94,32.94,0,0,1-8.17-1,28.7,28.7,0,0,1-10.78-5.12,0.75,0.75,0,0,1,1-1.14c0.15,0.13,15.24,12.56,37,.48a0.75,0.75,0,1,1,.73,1.31A40.29,40.29,0,0,1,31.73,45Z"/></g></g></g></svg>