<svg id="Layer_1" data-name="Layer 1" xmlns="http://www.w3.org/2000/svg" viewBox="0 0 70 70"><defs><style>.cls-1{fill:#c49a6c;}.cls-2{fill:#ffefe0;}.cls-3{fill:#231f20;}</style></defs><path class="cls-1" d="M47.41,51.47A26.53,26.53,0,0,1,42,46.63q-0.4-.47-0.75-0.93t-0.75-1c-0.3-.43-0.57-0.86-0.81-1.26a14.72,14.72,0,0,0-.74,2.52,13.72,13.72,0,0,0-.27,3.33,12,12,0,0,0,.81,3.88c0.12,0.31.25,0.61,0.4,0.9s0.27,0.5.42,0.75A9.89,9.89,0,0,0,43,57.67a10.17,10.17,0,0,0,6,1.87,13.27,13.27,0,0,0,8.36-3.13A33.43,33.43,0,0,1,47.41,51.47Z"/><path class="cls-2" d="M26.4,25.58c-6.92,0-12.53.54-12.53,1.2v20c0,5.78,4.26,10.47,9.51,10.47h6a9.18,9.18,0,0,0,7.32-3.79A14.7,14.7,0,0,1,36,50.15a17.18,17.18,0,0,1,2.92-11.1V26.79C38.93,26.12,33.32,25.58,26.4,25.58Z"/><path class="cls-2" d="M60,52.47c-0.36-1.34-2.49-4.67-7.43-8.3-4.32-3.17-8.15-4.59-10-4.59H42.26a2.38,2.38,0,0,0,.06.23,10.26,10.26,0,0,0,1.79,3A29.44,29.44,0,0,0,49.73,48,28.51,28.51,0,0,0,57,52a9,9,0,0,0,2.72.57H60Z"/><path class="cls-3" d="M54.49,41.69C50.2,38.54,45,36.17,42,36.58V27.74a14.28,14.28,0,0,0-1.22-5.8l-0.62-1.4a9.8,9.8,0,0,1-.84-4h0V10.91c0-.51,0-2.05-13-2.05s-13,1.54-13,2.05v6.21a7.52,7.52,0,0,1-.59,2.94l-1,2.29a12.29,12.29,0,0,0-1,4.79V48.68a12,12,0,0,0,12,12H30A12,12,0,0,0,38.56,57a12.59,12.59,0,0,0,2.84,2.82,12.81,12.81,0,0,0,7.52,2.38,14.76,14.76,0,0,0,3.41-.41,17.27,17.27,0,0,0,10-6.86l0.4-.56h0l0,0C64.77,51.57,60,45.74,54.49,41.69ZM16.37,10.91a73.42,73.42,0,0,1,10-.55,73.41,73.41,0,0,1,9.95.55h0a73.39,73.39,0,0,1-10,.55,73.41,73.41,0,0,1-10-.55h0Zm-1.53,1.18c1.58,0.46,4.81.87,11.48,0.87s9.9-.41,11.48-0.87V13.4c-1,.4-5.25.89-11.48,0.89S15.87,13.8,14.84,13.4V12.09Zm0,2.82c1.58,0.46,4.81.87,11.48,0.87s9.9-.41,11.48-0.87v1.31c-1,.4-5.25.88-11.48,0.88s-10.45-.49-11.48-0.88V14.91ZM30,59.19H22.83A10.52,10.52,0,0,1,12.32,48.68V27.13a10.8,10.8,0,0,1,.85-4.21l1-2.29a9,9,0,0,0,.68-2.91c1.57,0.47,4.8.88,11.51,0.88s10-.42,11.54-0.89a11.3,11.3,0,0,0,.91,3.43l0.62,1.4a12.78,12.78,0,0,1,1.1,5.2v9.38a2.44,2.44,0,0,0-.56.54h0a2.44,2.44,0,0,0-.18.32l-0.05,0-0.4.56c-0.13.18-.24,0.37-0.36,0.55A17.18,17.18,0,0,0,36,50.15a14.7,14.7,0,0,0,.73,3.35,13.44,13.44,0,0,0,1,2.24A10.47,10.47,0,0,1,30,59.19ZM52,60.5a11.89,11.89,0,0,1-9.82-1.75A11.21,11.21,0,0,1,39.49,56c-0.15-.22-0.29-0.45-0.42-0.68s-0.27-.48-0.39-0.73a12.44,12.44,0,0,1-1-2.63A13.63,13.63,0,0,1,37.38,50a15.47,15.47,0,0,1,1.55-8.21q0.32-.66.7-1.3a8.79,8.79,0,0,0,.85,1.93c0.22,0.39.47,0.78,0.75,1.17s0.48,0.66.75,1a33.66,33.66,0,0,0,6.15,5.76A30.71,30.71,0,0,0,56.82,55a10.88,10.88,0,0,0,3.12.55h0.18A15.64,15.64,0,0,1,52,60.5Zm9.58-6.93,0,0a2,2,0,0,1-1.6.54,9.45,9.45,0,0,1-2.75-.48,29.29,29.29,0,0,1-8.27-4.42,28.29,28.29,0,0,1-7-7,10.57,10.57,0,0,1-.75-1.36l-0.09-.2a2.94,2.94,0,0,1-.27-1.89A1.08,1.08,0,0,1,41,38.48h0a1.07,1.07,0,0,1,.2-0.2A1.72,1.72,0,0,1,42,38c2.1-.41,6.81,1.25,11.7,4.83C59.57,47.12,62.72,52,61.6,53.57Z"/></svg>