<svg id="Layer_1" data-name="Layer 1" xmlns="http://www.w3.org/2000/svg" viewBox="0 0 70 70"><defs><style>.cls-1{fill:none;}.cls-2{fill:#cc4140;}.cls-3{fill:#78c144;}.cls-4{fill:#231f20;}</style></defs><path class="cls-1" d="M39.6,40.15a10,10,0,0,1-2.4-.3,9.91,9.91,0,0,1,1.7,3,9.92,9.92,0,0,1,1.83-2.76A10,10,0,0,1,39.6,40.15Z"/><path class="cls-1" d="M25.47,37a10.13,10.13,0,0,1,1.67-.57,10,10,0,0,1,4.75,0,10,10,0,0,1-1.69-3A18.15,18.15,0,0,1,25.47,37Z"/><path class="cls-2" d="M31.8,47.64h0a1.89,1.89,0,1,0,1.34.54,1.88,1.88,0,0,0-1.34-.54Z"/><path class="cls-2" d="M33.18,40.16a7.06,7.06,0,1,0-3.7,13.08,7.12,7.12,0,0,0,2.14-.34A3.39,3.39,0,1,1,35,50.56a7.16,7.16,0,0,0,.49-0.69A7.06,7.06,0,0,0,33.18,40.16Z"/><path class="cls-2" d="M33.71,32.56a3.43,3.43,0,1,1,3.5,4.18,6.94,6.94,0,0,0,2.42.44,7.06,7.06,0,0,0,3.32-13.3,7,7,0,0,0-3.31-.83,7.05,7.05,0,0,0-6,10.82A3.42,3.42,0,0,1,33.71,32.56Z"/><path class="cls-2" d="M37.47,31.51a1.9,1.9,0,0,0-.42,0,1.86,1.86,0,0,0-.41,3.67A1.86,1.86,0,1,0,37.47,31.51Z"/><path class="cls-2" d="M45.88,53.59A7.06,7.06,0,0,0,54,43.07c0,0.1,0,.2,0,0.3a3.39,3.39,0,0,1-3.36,3.43h0a3.39,3.39,0,0,1-.71-6.71A7.05,7.05,0,0,0,45.88,53.59Z"/><path class="cls-2" d="M50.66,45.29a1.89,1.89,0,1,0-1.34-.54A1.88,1.88,0,0,0,50.66,45.29Z"/><path class="cls-3" d="M21.5,29.74a10.67,10.67,0,0,0-1.43-.11,12.75,12.75,0,0,0-7,2.27c2.27,2.35,4.62,3.54,7,3.54,3,0,5.64-1.87,7.2-3.29-0.34-.24-0.68-0.45-1-0.66A16.33,16.33,0,0,1,21.5,29.74Z"/><path class="cls-3" d="M22.69,19.23A13.88,13.88,0,0,0,19,17.36c-0.46,3.24.05,5.83,1.52,7.71a8.2,8.2,0,0,0,2.11,1.86,13.46,13.46,0,0,0,4.73,1.75l0.18,0C27.3,24.55,25.69,21.37,22.69,19.23Z"/><path class="cls-4" d="M51.14,37.38a10,10,0,0,0-4.2-.42A10,10,0,1,0,30.78,25.44h0a10,10,0,0,0-.53,1.2C28.56,15.41,17.45,14,17.33,13.94a0.77,0.77,0,0,0-.82.57c-1.27,5.16-.73,9.31,1.62,12.34a17,17,0,0,0-8.71,4.23,0.75,0.75,0,0,0-.06,1c3.29,4.2,6.91,6.33,10.76,6.33h0a11.63,11.63,0,0,0,4.91-1.17A10,10,0,1,0,38,51.44a10.07,10.07,0,0,0,.61-1.19,10.13,10.13,0,0,0,.5,1.19A10,10,0,1,0,51.14,37.38Zm-19-11.23h0a8.53,8.53,0,1,1-.8,5.78l0-.25A8.47,8.47,0,0,1,32.11,26.14ZM30.2,33.47a10,10,0,0,0,1.69,3,10,10,0,0,0-4.75,0,10.13,10.13,0,0,0-1.67.57A18.15,18.15,0,0,0,30.2,33.47ZM17.81,15.54C20.33,16,29,18.58,29,29.69c0,0.22,0,.43,0,0.66l-0.47,0c-0.49,0-1.12-.14-1.82-0.28-0.5-.1-1-0.23-1.59-0.4A15,15,0,0,1,23.43,29a12.61,12.61,0,0,1-1.3-.66,10.73,10.73,0,0,1-1.29-.89A9.56,9.56,0,0,1,20,26.7,8.83,8.83,0,0,1,19.35,26C17.37,23.46,16.85,20,17.81,15.54Zm2.35,21.35h0c-3.2,0-6.27-1.75-9.14-5.21a14.56,14.56,0,0,1,8.4-3.49c0.13,0.12.26,0.25,0.4,0.36a12.24,12.24,0,0,0,1.72,1.19,16.33,16.33,0,0,0,4.8,1.76,19.64,19.64,0,0,0,2.42.35l0.61,0L29.51,32C28.27,33.38,24.67,36.88,20.16,36.89ZM36.73,50.65a8.51,8.51,0,1,1,1-6.43A8.52,8.52,0,0,1,36.73,50.65Zm2.17-7.82a9.91,9.91,0,0,0-1.7-3,9.39,9.39,0,0,0,3.53.22A9.92,9.92,0,0,0,38.9,42.83Zm17.24,6.69A8.51,8.51,0,1,1,55.63,43,8.45,8.45,0,0,1,56.14,49.53Z"/><path class="cls-4" d="M31.77,46.14a3.39,3.39,0,0,0-.15,6.77l0.19,0h0A3.39,3.39,0,1,0,31.77,46.14Zm1.39,4.72a1.89,1.89,0,1,1-1.37-3.22h0A1.89,1.89,0,0,1,33.16,50.85Z"/><path class="cls-4" d="M34.15,35.15a3.43,3.43,0,0,0,2.91,1.61h0.15A3.42,3.42,0,1,0,34.15,35.15Zm1.1-2.24a1.86,1.86,0,0,1,1.8-1.44,1.9,1.9,0,0,1,.42,0A1.86,1.86,0,1,1,35.25,32.91Z"/><path class="cls-4" d="M53,41a3.39,3.39,0,1,0-2.37,5.82h0A3.39,3.39,0,0,0,54,43.36c0-.1,0-0.2,0-0.3A3.35,3.35,0,0,0,53,41Zm-1,3.75a1.89,1.89,0,1,1,.54-1.34A1.88,1.88,0,0,1,52,44.72Z"/></svg>