<?xml version="1.0" encoding="utf-8"?>
<!-- Generator: Adobe Illustrator 19.2.1, SVG Export Plug-In . SVG Version: 6.00 Build 0)  -->
<svg version="1.1" id="ico-recipes" xmlns="http://www.w3.org/2000/svg" xmlns:xlink="http://www.w3.org/1999/xlink" x="0px"
	 y="0px" viewBox="0 0 50 250" style="enable-background:new 0 0 50 250;" xml:space="preserve">
<g id="ico-recipe-immunity">
	<path style="fill:none;stroke:#221F20;stroke-width:1.667;" d="M25,202.9c0,0,6.7,7.6,18.6,9.6c0,0,3.1,23.2-18.6,34.5
		C3.3,235.7,6.4,212.5,6.4,212.5C18.3,210.5,25,202.9,25,202.9L25,202.9z"/>
	<path style="fill:none;stroke:#221F20;stroke-width:1.667;" d="M6.4,221c11.9-2.1,18.6-9.6,18.6-9.6s6.7,7.6,18.6,9.6"/>
	<path style="fill:none;stroke:#77C043;stroke-width:1.667;stroke-linecap:round;stroke-linejoin:round;" d="M15,228.5h2.5
		c0.2,0,0.3-0.1,0.4-0.3l2.1-5.4c0.1-0.4,0.7-0.3,0.8,0l2.6,9.1c0.1,0.4,0.6,0.4,0.8,0l2.9-8.9c0.1-0.4,0.7-0.4,0.8,0l2.1,9.7
		c0.1,0.4,0.6,0.4,0.8,0.1l2-4.8c0.1-0.1,0.2-0.2,0.4-0.2h3.1"/>
</g>
<g id="ico-recipe-adventurous">
	<path style="fill:#77C043;" d="M4.9,175c0-11.1,9-20.1,20.1-20.1s20.1,9,20.1,20.1s-9,20.1-20.1,20.1S4.9,186.1,4.9,175"/>
	<path style="fill:none;stroke:#FEFEFE;stroke-width:8;" d="M4.9,175c0-11.1,9-20.1,20.1-20.1s20.1,9,20.1,20.1s-9,20.1-20.1,20.1
		S4.9,186.1,4.9,175L4.9,175z"/>
	<path style="fill:none;stroke:#221F20;stroke-width:1.667;" d="M4.9,175c0-11.1,9-20.1,20.1-20.1s20.1,9,20.1,20.1
		s-9,20.1-20.1,20.1S4.9,186.1,4.9,175L4.9,175z"/>
	<path style="fill:#FEFEFE;" d="M23.3,173.6l8.2-8.1c0.6-0.5,1.5,0.1,1.1,0.8L27,176.4L23.3,173.6z"/>
	<path style="fill:none;stroke:#221F20;stroke-width:1.667;" d="M23.3,173.6l8.2-8.1c0.6-0.5,1.5,0.1,1.1,0.8L27,176.4L23.3,173.6
		L23.3,173.6z"/>
	<path style="fill:#FEFEFE;" d="M26.9,176.6l-8.2,8.1c-0.6,0.5-1.5-0.1-1.1-0.8l5.6-10.1L26.9,176.6z"/>
	<path style="fill:none;stroke:#221F20;stroke-width:1.667;" d="M26.9,176.6l-8.2,8.1c-0.6,0.5-1.5-0.1-1.1-0.8l5.6-10.1L26.9,176.6
		L26.9,176.6z"/>
	<path style="fill:#FEFEFE;" d="M27.9,177.1c-1.1,1.5-3.3,1.8-4.8,0.6c-1.5-1.1-1.8-3.3-0.6-4.8c1.1-1.5,3.3-1.8,4.8-0.6
		C28.7,173.5,29,175.6,27.9,177.1"/>
	<path style="fill:none;stroke:#221F20;stroke-width:2.014;" d="M27.9,177.1c-1.1,1.5-3.3,1.8-4.8,0.6c-1.5-1.1-1.8-3.3-0.6-4.8
		c1.1-1.5,3.3-1.8,4.8-0.6C28.7,173.5,29,175.6,27.9,177.1L27.9,177.1z"/>
	<path style="fill:#221F20;" d="M25,188.7c-0.3,0-0.7-0.1-0.9-0.4c-0.5-0.5-0.5-1.3,0-1.8c0.2-0.2,0.6-0.4,0.9-0.4s0.7,0.1,0.9,0.4
		c0.5,0.5,0.5,1.3,0,1.8C25.7,188.6,25.3,188.7,25,188.7"/>
	<path style="fill:#221F20;" d="M25,185.8c-0.4,0-0.8,0.2-1.2,0.5c-0.3,0.3-0.5,0.7-0.5,1.2c0,0.4,0.2,0.8,0.5,1.2
		c0.3,0.3,0.7,0.5,1.2,0.5s0.8-0.2,1.2-0.5c0.3-0.3,0.5-0.7,0.5-1.2c0-0.4-0.2-0.8-0.5-1.2C25.8,186,25.4,185.8,25,185.8 M25,186.5
		c0.2,0,0.5,0.1,0.7,0.3c0.4,0.4,0.4,1,0,1.3c-0.2,0.2-0.4,0.3-0.7,0.3s-0.5-0.1-0.7-0.3c-0.4-0.4-0.4-1,0-1.3
		C24.5,186.6,24.8,186.5,25,186.5"/>
	<path style="fill:#221F20;" d="M25,163.9c-0.3,0-0.7-0.1-0.9-0.4c-0.5-0.5-0.5-1.3,0-1.8c0.2-0.2,0.6-0.4,0.9-0.4s0.7,0.1,0.9,0.4
		c0.5,0.5,0.5,1.3,0,1.8C25.7,163.8,25.3,163.9,25,163.9"/>
	<path style="fill:#221F20;" d="M25,161c-0.4,0-0.8,0.2-1.2,0.5c-0.3,0.3-0.5,0.7-0.5,1.2c0,0.4,0.2,0.8,0.5,1.2
		c0.3,0.3,0.7,0.5,1.2,0.5s0.8-0.2,1.2-0.5c0.3-0.3,0.5-0.7,0.5-1.2c0-0.4-0.2-0.8-0.5-1.2C25.8,161.2,25.4,161,25,161 M25,161.7
		c0.2,0,0.5,0.1,0.7,0.3c0.4,0.4,0.4,1,0,1.3c-0.2,0.2-0.4,0.3-0.7,0.3s-0.5-0.1-0.7-0.3c-0.4-0.4-0.4-1,0-1.3
		C24.5,161.8,24.8,161.7,25,161.7"/>
	<path style="fill:#221F20;" d="M12.5,176.3c-0.3,0-0.7-0.1-0.9-0.4c-0.5-0.5-0.5-1.3,0-1.8c0.2-0.2,0.6-0.4,0.9-0.4
		c0.3,0,0.7,0.1,0.9,0.4c0.5,0.5,0.5,1.3,0,1.8C13.2,176.2,12.9,176.3,12.5,176.3"/>
	<path style="fill:#221F20;" d="M12.5,173.4c-0.4,0-0.8,0.2-1.2,0.5c-0.3,0.3-0.5,0.7-0.5,1.2c0,0.4,0.2,0.8,0.5,1.2
		c0.3,0.3,0.7,0.5,1.2,0.5c0.4,0,0.8-0.2,1.2-0.5c0.3-0.3,0.5-0.7,0.5-1.2c0-0.4-0.2-0.8-0.5-1.2C13.4,173.6,13,173.4,12.5,173.4
		 M12.5,174.1c0.2,0,0.5,0.1,0.7,0.3c0.4,0.4,0.4,1,0,1.3c-0.2,0.2-0.4,0.3-0.7,0.3c-0.2,0-0.5-0.1-0.7-0.3c-0.4-0.4-0.4-1,0-1.3
		C12,174.2,12.3,174.1,12.5,174.1"/>
	<path style="fill:#221F20;" d="M37.3,176.3c-0.3,0-0.7-0.1-0.9-0.4c-0.5-0.5-0.5-1.3,0-1.8c0.2-0.2,0.6-0.4,0.9-0.4
		s0.7,0.1,0.9,0.4c0.2,0.2,0.4,0.6,0.4,0.9c0,0.3-0.1,0.7-0.4,0.9C38,176.2,37.6,176.3,37.3,176.3"/>
	<path style="fill:#221F20;" d="M37.3,173.4c-0.4,0-0.8,0.2-1.2,0.5c-0.6,0.6-0.6,1.7,0,2.3c0.3,0.3,0.7,0.5,1.2,0.5
		s0.8-0.2,1.2-0.5c0.6-0.6,0.6-1.7,0-2.3C38.1,173.6,37.7,173.4,37.3,173.4 M37.3,174.1c0.2,0,0.5,0.1,0.7,0.3c0.4,0.4,0.4,1,0,1.3
		c-0.2,0.2-0.4,0.3-0.7,0.3c-0.2,0-0.5-0.1-0.7-0.3c-0.4-0.4-0.4-1,0-1.3C36.8,174.2,37.1,174.1,37.3,174.1"/>
</g>
<g id="ico-recipe-low-calorie">
	<path style="fill:#77C043;" d="M39.7,112.5c3.7,3.7,3.7,9.6,0,13.3L25,140.3l-14.7-14.5c-3.7-3.7-3.7-9.6,0-13.3
		c1.9-1.8,4.3-2.7,6.7-2.7s4.9,0.9,6.7,2.7l0.9,0.9c0.1,0.1,0.2,0.2,0.4,0.2c0.1,0,0.3-0.1,0.4-0.2l0.9-0.9
		C30,108.8,36,108.8,39.7,112.5"/>
	<path style="fill:none;stroke:#FEFEFE;stroke-width:8.446;" d="M17,109.7c-2.4,0-4.9,0.9-6.7,2.7c-3.7,3.7-3.7,9.6,0,13.3L25,140.3
		l14.7-14.5c3.7-3.7,3.7-9.6,0-13.3c-3.7-3.7-9.8-3.7-13.5,0l-0.9,0.9c-0.1,0.1-0.2,0.2-0.4,0.2c-0.1,0-0.3-0.1-0.4-0.2l-0.9-0.9
		C21.9,110.7,19.5,109.7,17,109.7L17,109.7z"/>
	<path style="fill:none;stroke:#221F20;stroke-width:1.76;" d="M17,109.7c-2.4,0-4.9,0.9-6.7,2.7c-3.7,3.7-3.7,9.6,0,13.3L25,140.3
		l14.7-14.5c3.7-3.7,3.7-9.6,0-13.3c-3.7-3.7-9.8-3.7-13.5,0l-0.9,0.9c-0.1,0.1-0.2,0.2-0.4,0.2c-0.1,0-0.3-0.1-0.4-0.2l-0.9-0.9
		C21.9,110.7,19.5,109.7,17,109.7L17,109.7z"/>
</g>
<g id="ico-recipe-detox">
	<path style="fill:#77C043;" d="M22.3,72.2c-5.2,0-9.5,0.4-9.5,0.9v15.3c0,4.4,3.2,8,7.2,8h4.6c4,0,7.2-3.6,7.2-8V73.1
		C31.8,72.6,27.5,72.2,22.3,72.2"/>
	<path style="fill:none;stroke:#FEFEFE;stroke-width:5;" d="M22.3,72.2c-5.2,0-9.5,0.4-9.5,0.9v15.3c0,4.4,3.2,8,7.2,8h4.6
		c4,0,7.2-3.6,7.2-8V73.1C31.8,72.6,27.5,72.2,22.3,72.2L22.3,72.2z"/>
	<path style="fill:none;stroke:#221F20;stroke-width:1.76;" d="M13.9,63.2v4.3c0,0.8-0.2,1.5-0.4,2.2l-0.7,1.6c-0.4,1-0.6,2-0.6,3.1
		v14.8c0,4.3,3.4,7.7,7.7,7.7h4.9c4.2,0,7.7-3.5,7.7-7.7V74.7c0-1.3-0.3-2.6-0.8-3.8l-0.4-1C30.9,69,30.7,68,30.7,67v-3.9"/>
	<path style="fill:none;stroke:#221F20;stroke-width:1.76;" d="M30.6,63.3c0,0.5-3.7,0.9-8.3,0.9S14,63.8,14,63.3s3.7-1.2,8.3-1.2
		C26.8,62.1,30.6,62.8,30.6,63.3L30.6,63.3z"/>
	<path style="fill:none;stroke:#221F20;stroke-width:1.76;" d="M30.6,68.2c0,0.5-3.7,0.9-8.3,0.9S14,68.7,14,68.2"/>
	<path style="fill:none;stroke:#221F20;stroke-width:1.76;" d="M30.6,65.8c0,0.5-3.7,0.9-8.3,0.9S14,66.3,14,65.8"/>
	<path style="fill:none;stroke:#221F20;stroke-width:1.76;" d="M22.6,88.3c0,0,6.4-30.3,7.3-30.8c1.2-0.7,7.9-4.4,7.9-4.4"/>
</g>
<g id="ico-recipe-rejuvenate">
	<polygon style="fill:none;stroke:#221F20;stroke-width:1.667;stroke-linecap:round;stroke-linejoin:round;" points="34.8,3.7 
		18.5,27.9 27.7,27.9 22.7,47.2 40.2,21.5 30.1,21.5 	"/>
	<path style="fill:none;stroke:#77C043;stroke-width:1.7;stroke-linecap:round;stroke-linejoin:round;" d="M25.3,2.8v7.9"/>
	<path style="fill:none;stroke:#77C043;stroke-width:1.7;stroke-linecap:round;stroke-linejoin:round;" d="M15.1,8.1l6.4,6.7"/>
	<path style="fill:none;stroke:#77C043;stroke-width:1.7;stroke-linecap:round;stroke-linejoin:round;" d="M9.8,18.4l7.9,0.4"/>
</g>
</svg>
