<svg xmlns="http://www.w3.org/2000/svg" id="Layer_1" viewBox="0 0 90 359.5">
  <style>
    .st0{fill:#BE6828;} .st1{fill:#ECF8FE;} .st2{fill:#231F20;} .st3{fill:#FFD086;} .st4{fill:#F4F9F1;} .st5{fill:none;stroke:#231F20;stroke-width:0.437;stroke-linecap:round;stroke-linejoin:round;stroke-miterlimit:10;} .st6{fill:#F3757E;} .st7{fill:#F0F5D3;} .st8{fill:none;stroke:#231F20;stroke-width:0.6346;stroke-linecap:round;stroke-linejoin:round;stroke-miterlimit:10;} .st9{fill:#25966C;} .st10{fill:#FFFFFF;} .st11{fill:#FFE373;} .st12{fill:#5EC093;} .st13{fill:#FFF1C6;} .st14{fill:#FDD6C1;} .st15{fill:#93AC8A;} .st16{fill:#C6464F;}
  </style>
  <g id="Autumn">
    <path d="M71.7 320.9c-1 0-1.9-.1-2.7-.4-.4-.1-.8-.2-1.2-.2h-.6c-2 0-6.1-.6-11-4.6-.1-.1-.1-.2-.1-.3 0-.1 0-.2.1-.3 1.1-.8 3.8-2.5 6.5-2.5.7 0 1.4.1 2 .4.2.1.4.1.6.1s.4 0 .5-.1c.4-.2 1.1-.4 2-.4 1.4 0 2.8.5 4.2 1.6.3.2.6.3.9.4.7.1 2.6.7 5.6 3.5.2.2.5.4.7.5l2.9 1.5h-5.2c-.5 0-1.1.1-1.6.2-.7.3-2.1.6-3.6.6z" class="st0"/>
    <path d="M62.6 312.4v.6c.7 0 1.3.1 1.8.4.2.1.4.1.7.1.2 0 .4 0 .6-.1.4-.2 1.1-.4 1.9-.4 1.4 0 2.7.5 4 1.5.3.2.6.4 1 .4.7.1 2.5.7 5.5 3.4.2.2.5.4.8.5l1.9 1h-4c-.6 0-1.1.1-1.7.3-.7.2-2 .6-3.5.6-.9 0-1.8-.1-2.6-.4-.4-.1-.9-.2-1.3-.2h-.6c-2 0-6-.6-10.8-4.6v-.1c1-.7 3.7-2.5 6.3-2.5v-.5m0 0c-2.7 0-5.4 1.7-6.6 2.6-.3.2-.3.7 0 1 5.1 4.1 9.3 4.7 11.2 4.7h.6c.4 0 .8.1 1.1.2.9.3 1.9.4 2.8.4 1.6 0 2.9-.3 3.7-.6.5-.2 1-.2 1.5-.2h5.7c.1 0 .2-.2.1-.3l-3.4-1.8c-.2-.1-.5-.3-.7-.5-3.1-2.8-5-3.4-5.8-3.6-.3-.1-.5-.2-.8-.3-1.7-1.3-3.2-1.6-4.4-1.6-.9 0-1.7.2-2.1.4-.1.1-.3.1-.4.1-.2 0-.3 0-.4-.1-.7-.3-1.4-.4-2.1-.4z" class="st1"/>
    <path d="M64.7 331.6c-1.2 0-2.3-.2-3.3-.6-.4-.2-.9-.3-1.4-.3-1.6 0-6-.6-11.1-5.3-.1-.1-.1-.2-.1-.3 0-.1 0-.2.2-.3 1-.7 3.7-2.2 6.2-2.2.9 0 1.6.2 2.3.5.2.1.4.2.6.2.2 0 .3 0 .5-.1.4-.1 1-.3 1.7-.3 1.5 0 3 .6 4.4 1.8.3.2.5.4.8.4.7.2 2.6.9 5.4 3.8.2.2.4.4.7.5l2.8 1.7-5.1-.3H69c-.4 0-.9.1-1.3.2-.7.4-1.8.6-3 .6z" class="st0"/>
    <path d="M55.2 323c.8 0 1.5.2 2.2.5.2.1.5.2.8.2.2 0 .4 0 .5-.1.3-.1.9-.3 1.6-.3 1.5 0 2.9.6 4.2 1.8.3.2.6.4 1 .5.7.2 2.5.9 5.3 3.7.2.2.5.4.7.6l1.8 1.1-4-.2H69c-.5 0-.9.1-1.4.2-.7.2-1.7.4-2.9.4s-2.2-.2-3.2-.6c-.5-.2-1-.3-1.5-.3-1.6 0-5.9-.6-10.9-5.2v-.1c1-.7 3.6-2.2 6.1-2.2m0-.5c-2.6 0-5.2 1.5-6.4 2.2-.4.2-.4.7-.1 1 5.2 4.8 9.7 5.3 11.3 5.3.4 0 .9.1 1.3.3 1.1.5 2.3.6 3.4.6 1.3 0 2.4-.2 3.1-.4.4-.1.8-.2 1.2-.2h.3l5.7.4c.1 0 .2-.2.1-.3l-3.3-2c-.2-.1-.4-.3-.6-.5-2.9-2.9-4.8-3.7-5.6-3.9-.3-.1-.5-.2-.7-.4-1.7-1.5-3.4-1.9-4.6-1.9-.8 0-1.4.2-1.8.3-.1 0-.2.1-.4.1s-.3 0-.5-.1c-.8-.4-1.6-.5-2.4-.5z" class="st1"/>
    <path d="M58.1 311.9c.9-4.2 3.1-7.2 4-8.3.3-.3.5-.6.6-1 1.6-4 5.6-5.3 7.3-5.7 1.6-.3 3-.9 4.4-1.6 1.1-.6 2.1-1.2 3-1.7-1.1 1.8-2.5 5-3.2 6.7-.3.7-.5 1.4-.7 2.1l-.1.3c-.5 1.6-1.7 3.2-3.5 4.5-1.5 1.1-3.2 1.9-5.2 2.3-3.7.9-5.7 1.8-6.6 2.4z" class="st0"/>
    <path d="M76.5 294.4c-1 1.9-2 4.3-2.7 5.8-.3.7-.5 1.4-.7 2.1l-.1.3c-.5 1.6-1.7 3-3.4 4.3-1.5 1.1-3.2 1.8-5.1 2.3-3 .7-4.9 1.5-6 2.1 1-3.8 2.9-6.5 3.8-7.6.3-.3.5-.7.6-1.1 1.5-3.9 5.5-5.2 7.1-5.5s3.1-.9 4.5-1.6c.7-.3 1.4-.7 2-1.1m1.2-1.4c-.9.5-2.2 1.3-3.5 2-1.4.7-2.8 1.2-4.3 1.6-1.8.4-5.9 1.7-7.5 5.9-.1.3-.3.6-.6.9-.9 1.1-3.4 4.4-4.2 9.1 0 0 1.8-1.5 7-2.7 1.9-.4 3.7-1.2 5.3-2.4 1.5-1.1 3-2.6 3.6-4.6.3-.8.5-1.6.8-2.3.8-2 2.3-5.5 3.5-7.2.1-.2 0-.3-.1-.3z" class="st1"/>
    <path d="M55.2 314.8c-.5-.7-1.7-2.3-2-4.1-.1-.3-.2-.6-.4-1-.7-1-2.2-3.5-1.6-5.4.1-.2.1-.5.1-.8-.1-1.4-.3-6.3 1.5-10.3.3-.6.5-1.2.6-1.9.2-1.1.5-2.5.4-3.7 2 3.5 6.9 13.4 3.1 20.9-.2.4-.3.9-.2 1.3 0 .9-.1 2.5-1.5 5z" class="st0"/>
    <path d="M54.1 288.7c2.2 4 6.1 12.9 2.6 19.8-.2.5-.3 1-.3 1.5.1.7 0 2.1-1.2 4.3-.6-.8-1.4-2.2-1.7-3.6-.1-.4-.2-.7-.4-1.1-.5-.8-2.2-3.4-1.6-5.1.1-.3.1-.6.1-.9-.1-1.4-.3-6.2 1.5-10.2.3-.6.5-1.3.6-1.9.1-.9.3-1.9.4-2.8m-.8-2.5c.5 1.2.2 3.6-.2 5.1-.1.6-.3 1.2-.6 1.8-1.8 4.1-1.6 9-1.5 10.5 0 .2 0 .5-.1.7-.6 1.9 1 4.6 1.7 5.6.2.3.3.5.4.8.4 2.4 2.3 4.6 2.3 4.6 1.7-2.8 1.8-4.5 1.7-5.4 0-.4 0-.8.2-1.2 4.8-9.5-3.9-22.5-3.9-22.5z" class="st1"/>
    <path d="M47.6 324.2c-.7-.5-2.3-1.8-3.1-3.4-.1-.3-.4-.6-.7-.8-.9-.8-3.1-2.8-3.1-4.7 0-.2 0-.5-.1-.8-.5-1.3-2-6-1.5-10.3.1-.6.1-1.3 0-2-.1-1.1-.3-2.5-.6-3.6 2.9 2.8 10.4 10.8 8.9 19.2-.1.4 0 .9.1 1.4.4.7.7 2.2.1 5z" class="st0"/>
    <path d="M39.1 299.5c3.2 3.2 9.5 10.6 8.1 18.2-.1.5 0 1 .2 1.5.3.6.6 2 .1 4.5-.8-.6-2-1.7-2.6-3-.2-.3-.4-.6-.7-.9-.7-.6-3-2.6-3-4.4 0-.3 0-.6-.2-.9-.5-1.3-2-5.9-1.5-10.2.1-.7.1-1.3 0-2-.1-.9-.2-1.9-.4-2.8m-1.5-2.1c.9 1 1.2 3.4 1.3 4.9v1.9c-.6 4.4 1 9.1 1.5 10.5.1.2.1.5.1.7-.1 2 2.2 4.1 3.2 4.9.2.2.4.4.6.7 1.1 2.2 3.5 3.7 3.5 3.7.8-3.1.4-4.9.1-5.6-.2-.4-.2-.8-.1-1.2 1.9-10.6-10.2-20.5-10.2-20.5z" class="st1"/>
    <path d="M71.7 321.4c-.9 0-1.9-.1-2.9-.4-.4-.1-.8-.2-1.2-.2-1.7.1-6.2-.2-11.7-4.7-.2-.2-.3-.4-.3-.7 0-.3.1-.5.3-.6 1.6-1.1 5.6-3.6 8.9-2.2.2.1.5.1.7 0 1-.4 3.6-1.1 6.7 1.2.2.2.4.3.7.3.9.2 2.9.9 5.9 3.6.2.2.4.3.6.4l3.4 1.8c.1.1.2.2.2.4s-.2.3-.3.3H77c-.5 0-1 .1-1.4.2-1 .3-2.4.6-3.9.6zm-4-1c.4 0 .8.1 1.2.2 2.5.8 5.1.3 6.4-.2.5-.2 1-.2 1.6-.2h5.5l-3.3-1.7c-.2-.1-.5-.3-.7-.5-3.1-2.8-5-3.4-5.7-3.5-.3-.1-.6-.2-.8-.4-2.9-2.2-5.4-1.6-6.3-1.2-.3.1-.7.1-1 0-3.1-1.3-7 1.1-8.5 2.2-.1.1-.2.2-.2.3 0 .1.1.3.2.4 5.4 4.4 9.8 4.7 11.5 4.6h.1zM56 315zm8.7 17.1c-1.1 0-2.3-.2-3.5-.6-.4-.2-.8-.2-1.2-.2-1.7 0-6.2-.6-11.4-5.4-.2-.2-.3-.4-.3-.7 0-.3.2-.5.4-.6 1.6-1 5.8-3.3 9-1.7.2.1.5.1.7 0 1-.3 3.7-.9 6.6 1.6.2.2.4.3.7.3.9.2 2.8 1 5.7 3.9.2.2.4.3.6.5l3.3 2c.1.1.2.2.1.4 0 .1-.2.2-.3.2l-5.7-.4c-.5 0-1 0-1.5.1-.8.4-2 .6-3.2.6zm-15.8-7.2c-.1.1-.2.2-.2.3 0 .1 0 .3.1.4 5.1 4.7 9.5 5.3 11.2 5.3.5 0 .9.1 1.3.3 2.4 1 5 .5 6.4.2.5-.1 1.1-.2 1.6-.2l5.5.3-3.2-1.9c-.2-.1-.5-.3-.7-.5-2.9-3-4.8-3.7-5.5-3.8-.3-.1-.6-.2-.8-.4-2.8-2.4-5.3-1.9-6.2-1.6-.3.1-.7.1-1-.1-2.9-1.5-6.9.7-8.5 1.7zm8.8-12.2s-.1 0 0 0c-.2-.1-.2-.1-.2-.2.8-4.7 3.2-8 4.2-9.2.2-.3.4-.6.5-.9 1.7-4.3 5.9-5.6 7.6-6 1.5-.3 3-.9 4.3-1.5 1.3-.7 2.6-1.5 3.4-2 .1-.1.3-.1.4.1.1.1.1.3 0 .4-1.2 1.7-2.7 5.2-3.5 7.2-.3.7-.5 1.4-.7 2.1l-.1.3c-.6 1.7-1.8 3.3-3.7 4.7-1.6 1.1-3.4 1.9-5.3 2.4-5.1 1.2-6.9 2.7-6.9 2.7.1-.1 0-.1 0-.1zm20-19.4c-.8.5-2.1 1.3-3.4 2s-2.8 1.2-4.4 1.6c-1.7.4-5.7 1.7-7.3 5.7-.1.3-.3.6-.6 1-.9 1.1-3.2 4.2-4.1 8.6.8-.5 2.7-1.6 6.7-2.5 1.9-.4 3.7-1.2 5.2-2.3 1.8-1.3 3-2.9 3.6-4.5l.1-.3c.2-.7.4-1.4.7-2.1.8-2 2.3-5.5 3.5-7.2z" class="st2"/>
    <path d="M55.2 315.5c-.1 0-.1 0-.1-.1-.1-.1-1.9-2.2-2.3-4.7 0-.3-.2-.5-.3-.8-.7-1.1-2.4-3.8-1.7-5.8.1-.2.1-.4.1-.6-.1-1.4-.3-6.4 1.5-10.6l.6-1.8c.3-1.3.7-3.7.2-4.9 0-.1 0-.2.1-.2s.2 0 .2.1c.1.1 8.7 13.1 3.9 22.7-.2.3-.2.7-.2 1.1.1.8 0 2.7-1.7 5.5-.1 0-.2.1-.3.1.1 0 .1 0 0 0zm-1.5-28.2c.1 1.2-.1 2.8-.4 4-.1.7-.3 1.3-.6 1.9-1.8 4.1-1.6 9-1.5 10.4 0 .3 0 .5-.1.8-.6 1.9.9 4.4 1.6 5.4.2.3.3.6.4.9.3 1.9 1.6 3.7 2.1 4.3 1.5-2.6 1.6-4.3 1.5-5 0-.5 0-.9.2-1.3 4.1-7.9-1.3-18.3-3.2-21.4zm-5.9 37.6c-.2-.1-2.6-1.6-3.7-3.8-.1-.2-.3-.5-.5-.6-1-.8-3.3-2.9-3.3-5.1 0-.2 0-.4-.1-.6-.5-1.3-2.1-6.1-1.5-10.6.1-.6.1-1.2 0-1.9-.1-1.4-.4-3.8-1.2-4.8-.1-.1-.1-.2 0-.3.1-.1.2-.1.3 0s12.1 10.1 10.2 20.7c-.1.4 0 .7.1 1.1.3.8.7 2.6-.1 5.8-.1 0-.1.1-.2.1zm-9.5-26.6c.5 1.2.7 2.7.8 4 .1.7 0 1.3 0 2-.6 4.4 1 9.1 1.5 10.4.1.3.2.5.1.8-.1 2 2.2 4 3.1 4.8.3.2.5.5.6.8.8 1.7 2.6 3.1 3.2 3.5.7-2.9.3-4.5 0-5.3-.2-.4-.2-.9-.1-1.3 1.7-8.8-6.5-17.2-9.2-19.7z" class="st2"/>
    <path d="M28.3 341h-.1c-.1-.1-.1-.2 0-.3 4.6-5.2 12.1-10.1 12.2-10.1l7.3-5.5 10-12.9c.1-.1.2-.1.3 0s.1.2 0 .3l-10.1 13-7.4 5.5c-.1.1-7.6 4.9-12.1 10.1 0-.1 0-.1-.1-.1z" class="st2"/>
    <path d="M26.4 323.1s-.1 0-.1-.1c-.5-.6-.6-1.6-.3-2.8.3-1.2 1-2.3 1.9-3.2.7-.7 1.6-1.5 2.1-1.9 0 .9 0 2.9-.5 4.7-.6 2-2.3 3-3.1 3.3z" class="st3"/>
    <path d="M29.7 315.8c0 1-.1 2.5-.5 4-.5 1.8-2 2.6-2.8 3-.5-.7-.4-1.7-.1-2.5.3-1.1 1-2.2 1.8-3 .5-.6 1.1-1.1 1.6-1.5m.5-1.1c-.5.3-1.6 1.3-2.5 2.1-.9.9-1.6 2-2 3.3-.3 1.1-.4 2.3.3 3.1.1.1.2.2.4.2h.2c.7-.3 2.6-1.3 3.2-3.4.6-2.2.6-4.5.5-5.2 0-.1 0-.1-.1-.1z" class="st4"/>
    <path d="M32.2 329c-.3-.7 0-1.4.6-2.2.6-.8 1.4-1.3 2.4-1.7.7-.3 1.5-.5 2-.7-.3.7-.9 2.1-1.8 3.2-1 1.3-2.5 1.4-3.2 1.4z" class="st3"/>
    <path d="M36.7 324.9c-.3.7-.8 1.7-1.5 2.5-.8 1-2.1 1.2-2.8 1.3-.1-.6.3-1.2.7-1.7.6-.7 1.3-1.3 2.2-1.6.5-.2 1-.3 1.4-.5m.9-.9c-.4.1-1.5.4-2.5.8s-1.8 1-2.5 1.8c-.6.7-1 1.6-.7 2.4.1.2.2.3.4.3.6 0 2.3-.1 3.4-1.5 1.2-1.4 1.8-3.1 2-3.7l-.1-.1z" class="st4"/>
    <path d="M35.6 331.5c-.5 0-1-.1-1.2-.2 0 0-.1 0-.1-.1 0-.6.4-1.3 1.2-1.9s1.7-.9 2.7-1c.7-.1 1.6-.1 2.1-.1-.5.6-1.4 1.8-2.6 2.6-.5.5-1.2.7-2.1.7z" class="st3"/>
    <path d="M39.7 328.5c-.5.6-1.2 1.4-2.1 2-.6.4-1.2.6-2 .6-.4 0-.7-.1-1-.1.1-.6.6-1.1 1.1-1.4.7-.5 1.6-.9 2.6-1 .5 0 1 0 1.4-.1m.9-.6c-.5 0-1.5 0-2.4.1-1 .1-2 .5-2.9 1.1-.7.5-1.4 1.2-1.3 2.1 0 .2.1.3.3.3.3.1.7.2 1.3.2.7 0 1.6-.2 2.4-.7 1.5-1.1 2.6-2.6 2.9-3 0-.1 0-.1-.1-.1h-.2z" class="st4"/>
    <path d="M32 338.2c0-.7 0-2 .3-3.3.4-1.4 1.6-2.1 2.1-2.4.4.4.5 1.1.3 2s-.7 1.7-1.3 2.3c-.5.6-1 1.1-1.4 1.4z" class="st3"/>
    <path d="M34.3 332.9c.3.4.2 1.1.1 1.6-.2.8-.6 1.6-1.2 2.2-.3.3-.6.6-.9.8 0-.7.1-1.6.3-2.5.3-1.1 1.2-1.8 1.7-2.1m.1-.6c-.6.2-2 1-2.4 2.6-.4 1.6-.3 3.3-.3 3.8 0 0 0 .1.1.1h.1c.3-.2 1.1-.9 1.7-1.6.7-.7 1.1-1.5 1.4-2.5.2-.8.2-1.7-.3-2.3-.1-.1-.2-.1-.3-.1z" class="st4"/>
    <path d="M27.1 336c.2-.8.6-2.4 1.4-3.8.9-1.5 2.5-2 3.2-2.1.1 0 .1 0 .1.1.3.6.2 1.5-.4 2.4-.5.9-1.3 1.7-2.3 2.3-.6.4-1.5.8-2 1.1z" class="st3"/>
    <path d="M31.6 330.4c.2.6-.1 1.4-.4 2-.5.9-1.2 1.6-2.2 2.2-.5.3-1.1.6-1.5.8.2-.9.6-2 1.2-3.1.8-1.4 2.2-1.8 2.9-1.9m.2-.7c-.1 0-.1 0 0 0-.8.1-2.6.6-3.5 2.2-1 1.7-1.4 3.7-1.5 4.3 0 .1 0 .1.1.1.4-.2 1.6-.7 2.5-1.3 1-.6 1.8-1.4 2.4-2.4.5-.8.8-1.9.4-2.7-.1-.1-.3-.2-.4-.2z" class="st4"/>
    <path d="M22.5 334.2c.2-1 .7-3.2 1.8-5.1 1.1-2 3.3-2.5 4.2-2.7.1 0 .2 0 .2.1.4.8.3 1.9-.5 3.2-.7 1.2-1.7 2.2-2.9 2.9-1 .7-2.2 1.3-2.8 1.6z" class="st3"/>
    <path d="M28.4 326.8c.4.9 0 2-.5 2.9-.7 1.1-1.6 2.1-2.8 2.8-.8.4-1.6.9-2.3 1.2.3-1.1.8-2.8 1.7-4.4 1.1-1.9 3.1-2.4 3.9-2.5m.1-.7s-.1 0 0 0c-1 .2-3.2.7-4.5 2.8-1.3 2.2-1.8 4.7-1.9 5.5 0 .1.1.2.1.2h.1c.6-.2 2-.9 3.2-1.7 1.3-.7 2.3-1.8 3-3.1.6-1.1 1-2.4.5-3.5-.1-.1-.3-.2-.5-.2z" class="st4"/>
    <path d="M19.8 328.6c.4-.8 1.2-2.3 2.4-3.5 1.1-1.1 2.5-1.3 3.3-1.3h.4s.1 0 .1.1c.2.7-.2 1.5-1 2.3s-1.7 1.4-2.8 1.7c-.8.4-1.8.6-2.4.7z" class="st3"/>
    <path d="M25.5 324.2h.3c.1.7-.4 1.4-.9 1.9-.7.8-1.7 1.3-2.7 1.6-.6.2-1.2.3-1.8.4.4-.8 1.1-1.9 2-2.8 1-1 2.4-1.1 3.1-1.1m0-.7c-.9 0-2.4.2-3.5 1.4-1.4 1.5-2.3 3.3-2.6 3.9 0 .1 0 .1.1.1.5-.1 1.7-.3 2.8-.7 1.1-.3 2.2-.9 3-1.8.7-.7 1.3-1.7 1.1-2.6 0-.2-.2-.3-.4-.3-.2.1-.3 0-.5 0z" class="st4"/>
    <path d="M17.2 326.3c.2-.8.8-2.4 1.7-3.8 1-1.5 2.8-1.8 3.5-1.9.1 0 .1 0 .1.1.3.7.1 1.5-.5 2.5-.6.9-1.5 1.7-2.5 2.2-.9.3-1.8.7-2.3.9z" class="st3"/>
    <path d="M22.2 320.9c.2.7-.2 1.5-.6 2.1-.6.9-1.4 1.6-2.4 2.1-.5.3-1.1.5-1.6.8.3-.9.8-2.1 1.5-3.2.9-1.4 2.4-1.7 3.1-1.8m.2-.6s-.1 0 0 0c-.7.1-2.6.4-3.7 2-1.1 1.7-1.7 3.7-1.9 4.3 0 .1 0 .1.1.1.5-.2 1.7-.6 2.7-1.2 1.1-.5 2-1.3 2.6-2.3.6-.8 1-1.9.6-2.8-.1 0-.3-.1-.4-.1z" class="st4"/>
    <path d="M12.5 322.3c.6-.7 1.8-2.1 3.3-3.2.7-.5 1.6-.8 2.6-.8.7 0 1.3.1 1.6.2.1 0 .1.1.1.1 0 .8-.5 1.6-1.5 2.3-1 .7-2.1 1.1-3.4 1.2-.7.1-1.7.1-2.4.1 0 .1-.2.1-.3.1z" class="st3"/>
    <path d="M18.3 318.7c.6 0 1.1.1 1.4.2 0 .8-.8 1.5-1.4 1.9-.9.6-2 1-3.2 1.1-.6.1-1.3.1-2 .1.6-.7 1.6-1.8 2.8-2.6.7-.4 1.5-.7 2.4-.7m0-.6c-.8 0-1.8.2-2.7.8-1.8 1.2-3.2 3-3.6 3.5-.1.1 0 .2.1.2h.6c.7 0 1.6 0 2.5-.1 1.3-.1 2.5-.5 3.5-1.2.9-.6 1.7-1.5 1.7-2.5 0-.2-.1-.4-.3-.4-.4-.1-1-.3-1.8-.3z" class="st4"/>
    <path d="M12.9 318.5h-.7c-.7-.1-1.6-.2-2.1-.3.6-.5 1.7-1.4 3.1-2 .4-.2.9-.3 1.4-.3.9 0 1.7.3 2.1.5v.1c-.1.6-.6 1.1-1.6 1.5-.7.3-1.4.5-2.2.5z" class="st3"/>
    <path d="M14.6 316.2c.7 0 1.4.2 1.8.4-.2.5-.8.9-1.3 1.2-.6.3-1.3.4-2.1.4h-.6c-.5-.1-1-.1-1.4-.2.6-.5 1.5-1.1 2.5-1.5.2-.2.6-.3 1.1-.3m0-.6c-.5 0-1 .1-1.5.3-1.7.7-3 1.9-3.5 2.3-.1 0 0 .1 0 .2.4.1 1.5.3 2.5.4h.7c.8 0 1.6-.2 2.3-.5.8-.3 1.6-.9 1.8-1.8 0-.2 0-.3-.2-.4-.3-.2-1.1-.5-2.1-.5z" class="st4"/>
    <path d="M38.4 334.8c-.4 0-.8-.1-1-.2.1-.4.5-.8.9-1 .5-.3 1.1-.4 1.7-.4h.1c.4 0 .8 0 1.1.1-.4.4-1 .9-1.7 1.3-.4.2-.8.2-1.1.2z" class="st3"/>
    <path d="M39.9 333.6h.5c-.3.3-.7.5-1.1.7-.3.1-.6.2-.9.2-.2 0-.5 0-.6-.1.1-.2.4-.4.6-.5.4-.2.9-.3 1.5-.3m0-.7c-.6 0-1.3.2-1.9.5-.5.3-1 .7-1 1.3 0 .1.1.2.1.2.2.1.7.2 1.2.2.4 0 .8-.1 1.2-.3 1-.6 1.9-1.4 2.1-1.7v-.1c-.3 0-1 0-1.7-.1z" class="st4"/>
    <path d="M36.6 339.1c-.2-.5-.5-1.2-.7-2-.2-.9.4-1.7.6-2 .4.2.6.7.6 1.1.1.6 0 1.2-.2 1.8 0 .4-.2.8-.3 1.1z" class="st3"/>
    <path d="M36.6 335.5c.2.2.2.5.3.7.1.5 0 1.1-.2 1.7 0 .1-.1.2-.1.4-.1-.4-.3-.8-.4-1.3-.1-.6.2-1.1.4-1.5m0-.7c-.1 0-.1 0-.2.1-.3.3-.9 1.2-.7 2.3.2 1.2.7 2.2.9 2.5h.2c.1-.2.4-.9.7-1.5.2-.6.3-1.3.2-2-.1-.6-.3-1.2-.8-1.4h-.3z" class="st4"/>
    <path d="M23.5 320.5h-.1c-.7-.5-.9-1.4-.8-2.7.1-1.2.5-2.4 1.2-3.5.6-.8 1.3-1.8 1.7-2.3.2.9.6 2.8.4 4.7-.1 2-1.6 3.3-2.4 3.8.1-.1.1 0 0 0z" class="st3"/>
    <path d="M25.3 312.6c.2 1 .4 2.5.3 4-.1 1.8-1.5 3-2.1 3.5-.6-.6-.7-1.6-.7-2.4.1-1.2.5-2.3 1.2-3.3.5-.6 1-1.3 1.3-1.8m.3-1.2s-.1 0 0 0c-.4.4-1.3 1.6-2 2.6-.7 1.1-1.2 2.3-1.3 3.6-.1 1.1.1 2.3 1 3 .1.1.2.1.3.1.1 0 .2 0 .3-.1.7-.5 2.3-1.8 2.4-4 .2-2.3-.4-4.5-.5-5.2-.1.1-.1 0-.2 0z" class="st4"/>
    <path d="M20 317.8s-.1 0-.1-.1c-.6-.6-.8-1.5-.5-2.8.2-1.2.8-2.4 1.6-3.3.7-.8 1.5-1.6 1.9-2.1.1.9.3 2.9-.1 4.8-.4 2.1-2.1 3.1-2.8 3.5z" class="st3"/>
    <path d="M22.6 310.2c.1 1 .1 2.5-.2 4-.3 1.8-1.8 2.8-2.5 3.2-.6-.6-.5-1.7-.4-2.5.2-1.1.7-2.3 1.5-3.2.6-.4 1.2-1 1.6-1.5m.4-1.1s-.1 0 0 0c-.5.4-1.5 1.4-2.3 2.4s-1.4 2.2-1.7 3.5c-.2 1.1-.2 2.3.6 3.1.1.1.2.1.3.1.1 0 .2 0 .2-.1.7-.4 2.5-1.5 2.9-3.7s.1-4.5 0-5.3c.1 0 0 0 0 0z" class="st4"/>
    <path d="M17.4 315.8s-.1 0 0 0c-.8-.4-1.3-1.2-1.4-2.6-.1-1.2.1-2.5.6-3.6.4-.9.9-2 1.3-2.5.4.8 1.1 2.7 1.3 4.6.2 2-1.1 3.5-1.6 4.1h-.2z" class="st3"/>
    <path d="M17.8 307.8c.4.9.9 2.4 1 3.9.2 1.8-.9 3.2-1.5 3.8-.7-.4-1-1.5-1.1-2.3-.1-1.2.1-2.4.6-3.5.4-.6.7-1.3 1-1.9m.1-1.2s-.1 0 0 0c-.4.5-1.1 1.8-1.6 2.9-.5 1.2-.8 2.5-.6 3.8.1 1.1.5 2.3 1.5 2.8.1 0 .1.1.2.1s.2 0 .3-.1c.6-.6 1.9-2.2 1.7-4.3-.2-2.3-1.2-4.4-1.5-5 .1-.2 0-.2 0-.2z" class="st4"/>
    <path d="M29.3 326.1c-.1 0-.2-.1-.2-.1-.4-.9-.1-1.9.7-3.2.8-1.1 1.8-2.1 3.1-2.7 1-.5 2.3-1.1 3-1.3-.2.9-.9 2.8-1.9 4.5-.2-.1-.3-.1-.5-.1-.4 0-.8.2-1.1.5-.3.4-.4 1-.2 1.4-1.2.8-2.4 1-2.9 1z" class="st3"/>
    <path d="M35.3 319.3c-.3.9-.8 2.3-1.6 3.7h-.4c-.5 0-1 .2-1.3.6s-.4 1-.3 1.5c-1 .6-2 .7-2.4.8-.4-.9.2-2 .7-2.8.7-1.1 1.8-2 3-2.6.8-.6 1.7-.9 2.3-1.2m.8-1c-.1 0-.1 0 0 0-.6.2-2.1.8-3.4 1.5-1.3.7-2.4 1.6-3.2 2.8-.7 1-1.2 2.3-.7 3.4.1.2.3.3.5.3h.1c.6-.1 2-.3 3.2-1.2-.3-.4-.3-.9 0-1.3.2-.3.5-.4.8-.4.2 0 .4.1.6.2 1.3-2.1 2-4.5 2.1-5.3.1.1 0 0 0 0z" class="st4"/>
    <path d="M13 315c-.5 0-.9-.2-1.3-.5-.5-.4-.9-.9-.9-1.6-.1-.6-.4-1.3-.6-1.8.5.1 1 .2 1.5.2h1.1c.5 0 1.1.2 1.4.6 1 1.1.7 2.3.6 2.6-.8.2-1.3.5-1.8.5z" class="st3"/>
    <path d="M12.6 311.5c.5 0 .9.2 1.2.5.8.9.6 1.8.5 2.2-.5.3-.9.5-1.4.5-.4 0-.8-.1-1.2-.4s-.7-.8-.8-1.4c-.1-.5-.2-1-.4-1.4.3 0 .6.1 1 .1.3 0 .6 0 .9-.1h.2m-3.2-.9s.8 1.3 1 2.4c.1.7.5 1.4 1.1 1.8.4.3.9.5 1.5.5s1.2-.2 1.9-.7c0 0 .7-1.6-.6-3-.4-.4-1-.7-1.6-.7h-1.1c-.7 0-1.4 0-2.2-.3z" class="st4"/>
    <path d="M26 323.2c.1.2.4.2.5.1.7-.3 2.6-1.3 3.2-3.4.6-2.2.6-4.5.5-5.2 0-.1-.1-.1-.2-.1-.4.3-1.5 1.2-2.4 2.1s-1.6 2-2 3.3c-.2 1.2-.3 2.4.4 3.2zm5.9 5.9c.1.2.2.3.4.3.6 0 2.3-.1 3.4-1.5 1.2-1.4 1.8-3.1 2-3.7 0-.1 0-.1-.1-.1-.4.1-1.5.4-2.4.8-1 .4-1.8 1-2.5 1.8-.7.6-1.1 1.5-.8 2.4zm2.1 2.2c0 .2.1.3.3.3.6.2 2.3.5 3.7-.6 1.5-1.1 2.6-2.6 2.9-3 0-.1 0-.1-.1-.1-.4 0-1.6 0-2.6.1s-2 .5-2.9 1.1c-.7.6-1.3 1.3-1.3 2.2zm.6 1.1c-.1-.1-.3-.1-.4-.1-.5.2-1.9 1-2.3 2.6-.4 1.6-.3 3.3-.3 3.8 0 .1.1.1.1.1.3-.2 1.1-.9 1.7-1.6.7-.7 1.1-1.5 1.4-2.5.3-.8.4-1.7-.2-2.3zm-2.5-2.4c-.1-.2-.3-.3-.4-.2-.7.1-2.5.6-3.4 2.2-1 1.7-1.4 3.7-1.5 4.3 0 .1.1.1.1.1.4-.2 1.6-.7 2.5-1.3 1-.6 1.8-1.4 2.4-2.4.4-.8.8-1.9.3-2.7zm-3.2-3.6c-.1-.2-.3-.3-.6-.3-.9.1-3.2.7-4.4 2.8-1.3 2.2-1.8 4.7-1.9 5.5 0 .1.1.2.2.1.6-.2 2-.9 3.2-1.7 1.3-.7 2.3-1.8 3-3.1.7-.9 1.1-2.2.5-3.3zm-2.6-2.5c0-.2-.2-.3-.4-.3-.7-.1-2.6-.1-4 1.3-1.4 1.5-2.3 3.3-2.6 3.9 0 .1 0 .2.1.1.5-.1 1.7-.3 2.8-.7 1.1-.3 2.2-.9 3-1.8.8-.6 1.4-1.5 1.1-2.5zm-3.6-3.3c-.1-.2-.2-.3-.4-.3-.7.1-2.6.4-3.7 2-1.1 1.7-1.7 3.7-1.9 4.3 0 .1.1.2.1.1.5-.2 1.7-.6 2.7-1.2 1.1-.5 2-1.3 2.6-2.3.6-.7 1-1.7.6-2.6zm-2.3-1.8c0-.2-.1-.4-.3-.4-.7-.2-2.7-.6-4.5.6s-3.2 3-3.6 3.5c-.1.1 0 .2.1.2.5 0 1.9 0 3.1-.1 1.3-.1 2.5-.5 3.5-1.2.9-.7 1.7-1.5 1.7-2.6zm-3.4-2.3c0-.2 0-.3-.2-.4-.6-.3-2.1-.9-3.7-.3-1.7.7-3 1.9-3.5 2.3-.1 0 0 .1 0 .2.4.1 1.5.3 2.5.4s2.1 0 3-.4c.9-.3 1.7-.9 1.9-1.8zm20 18.2c0 .1.1.2.1.2.4.2 1.4.5 2.4-.1s1.9-1.4 2.1-1.7v-.1c-.3 0-1-.1-1.7-.1s-1.3.1-1.9.5c-.5.3-1 .7-1 1.3zm-.4.1c-.1 0-.2 0-.3.1-.3.3-.9 1.2-.7 2.3.2 1.2.7 2.2.9 2.5h.1c.1-.2.4-.9.7-1.5.2-.6.3-1.3.2-2-.1-.6-.3-1.2-.9-1.4zm-13.4-14.1c.2.1.4.1.6 0 .7-.5 2.3-1.8 2.4-4 .2-2.3-.4-4.5-.5-5.2 0-.1-.1-.1-.2 0-.4.4-1.2 1.5-2 2.6-.7 1.1-1.2 2.3-1.3 3.6 0 1.1.1 2.3 1 3z" class="st5"/>
    <path d="M19.6 318c.2.1.4.2.6.1.7-.4 2.5-1.5 2.9-3.7s.1-4.5 0-5.2c0-.1-.1-.1-.2-.1-.4.4-1.4 1.4-2.2 2.3-.8 1-1.4 2.2-1.7 3.5-.2 1.1-.2 2.3.6 3.1z" class="st5"/>
    <path d="M17.2 316.1c.2.1.4.1.6-.1.6-.6 1.9-2.2 1.7-4.3-.2-2.3-1.2-4.4-1.5-5 0-.1-.2-.1-.2 0-.3.5-1 1.7-1.5 2.9s-.8 2.5-.6 3.8c.1 1 .5 2.2 1.5 2.7zm15.5 3.7c1.3-.6 2.7-1.3 3.3-1.4.1 0 .2.1.2.2-.2.7-.9 3.1-2.2 5.2-.5-.3-1.1-.3-1.4.2-.3.4-.3 1 0 1.3-1.2.9-2.6 1.1-3.2 1.2-.2 0-.4-.1-.5-.3-.5-1.1 0-2.4.7-3.4.7-1.4 1.8-2.3 3.1-3zm-17.8-5.3s.7-1.6-.6-3c-.5-.5-1.2-.7-1.9-.7-.7.1-1.8.1-2.9-.3 0 0 .8 1.3 1 2.4.1.7.5 1.4 1.1 1.8.7.6 1.8.9 3.3-.2zM41 339.6s-13-16.5-26.2-25.1" class="st5"/>
  </g>
  <g id="Spring">
    <path d="M69.9 196.7l5.8.9 2.1 5.5-8.3 1.9z" class="st6"/>
    <path d="M70.3 197.2l5.1.8 1.9 4.9-7.3 1.7.3-7.4m-.8-.9l-.5 9.3 9.3-2.1-2.4-6.2-6.4-1z" class="st7"/>
    <path d="M69 205.8c-.1 0-.1 0-.2-.1s-.1-.2-.1-.3l.5-9.3c0-.1 0-.2.1-.2.1-.1.2-.1.2-.1l6.4 1c.1 0 .2.1.2.2l2.4 6.2v.3l-.2.2-9.3 2.1c.1 0 .1 0 0 0zm.9-9.2l-.5 8.5 8.5-1.9-2.2-5.7-5.8-.9z" class="st2"/>
    <path d="M67 218.3c-2.3 0-4.4-.8-6.2-2.2-2.6-2.1-4-5.4-3.7-8.7 3.5-3.6 7.8-5.4 12.6-5.4 5.3 0 9.7 2.2 10.7 2.8-.1 2-.9 3.9-2.2 5.5l-3.5 4.4c-1.8 2.2-4.7 3.6-7.7 3.6z" class="st6"/>
    <path d="M69.7 202.4c4.9 0 9 1.9 10.3 2.6-.2 1.8-.9 3.6-2.1 5l-3.5 4.4c-1.8 2.3-4.5 3.6-7.4 3.6-2.2 0-4.3-.7-6-2.1-2.5-2-3.8-5.1-3.5-8.2 3.4-3.6 7.5-5.3 12.2-5.3m0-.9c-4.1 0-8.8 1.3-13 5.6-.4 3.4.9 6.9 3.8 9.2 1.9 1.5 4.2 2.3 6.5 2.3 3 0 6-1.3 8.1-3.9l3.5-4.4c1.4-1.8 2.2-3.9 2.3-6 0 .2-5-2.8-11.2-2.8z" class="st7"/>
    <path d="M67 219c-2.4 0-4.8-.8-6.7-2.4-2.9-2.3-4.3-5.9-3.9-9.5 0-.1 0-.1.1-.2C67 196 80.9 204.1 81 204.2c.1.1.2.2.2.3-.1 2.3-.9 4.4-2.3 6.2l-3.5 4.4c-1.8 2.2-4.3 3.6-7.2 3.9H67zm-10-11.7c-.3 3.4 1 6.7 3.7 8.9 2.1 1.7 4.7 2.4 7.4 2.2 2.7-.3 5.1-1.6 6.7-3.7l3.5-4.4c1.3-1.6 2.1-3.6 2.2-5.6-1.5-.9-13.9-7.2-23.5 2.6z" class="st2"/>
    <path d="M67 218.3c-2.3 0-4.4-.8-6.2-2.2-4.3-3.4-5-9.7-1.5-14l3.5-4.4c1.3-1.6 3-2.7 4.9-3.3 1.3 1.5 9.8 12.1 2.4 23.4-1 .3-2 .5-3.1.5z" class="st6"/>
    <path d="M67.5 194.9c.8.9 2.7 3.4 3.9 6.8 2.1 5.6 1.5 10.9-1.6 15.8-.9.3-1.9.4-2.8.4-2.2 0-4.3-.7-6-2.1-2-1.6-3.2-3.9-3.5-6.4s.5-5 2-7L63 198c1.3-1.5 2.8-2.5 4.5-3.1m.3-.9c-2 .6-3.9 1.7-5.4 3.5l-3.5 4.4c-3.6 4.5-2.9 11 1.6 14.6 1.9 1.5 4.2 2.3 6.5 2.3 1.1 0 2.3-.2 3.4-.6 8.3-12.6-2.6-24.2-2.6-24.2z" class="st7"/>
    <path d="M67 219c-2.4 0-4.7-.8-6.7-2.4-4.6-3.7-5.3-10.4-1.6-15l3.5-4.4c1.4-1.8 3.3-3 5.5-3.6.1 0 .2 0 .3.1.1.1 11 12 2.6 24.6 0 .1-.1.1-.2.1-1.1.4-2.2.6-3.4.6zm.7-24.7c-2 .6-3.7 1.7-5 3.4l-3.5 4.4c-3.5 4.3-2.8 10.7 1.5 14.1 2.7 2.1 6.2 2.8 9.5 1.7 7.5-11.5-1.3-22.2-2.5-23.6zm2.7 23.9z" class="st2"/>
    <path d="M59 215.6s-14.5 11.7-29.1 34.8" class="st8"/>
    <path d="M59.4 236.3c-7.1 0-11.7-6.2-12.7-7.6 3.7-2.9 7.3-4.4 10.8-4.4 7.1 0 11.6 6.2 12.5 7.6-3.5 3-7.1 4.4-10.6 4.4z" class="st9"/>
    <path d="M57.6 224.7c6.5 0 10.7 5.3 12 7.1-3.4 2.7-6.8 4-10.1 4-6.4 0-10.8-5.3-12.1-7.1 3.4-2.6 6.9-4 10.2-4m0-.8c-3.3 0-7.1 1.2-11.3 4.7 0 0 4.9 8.1 13.2 8.1 3.2 0 7-1.2 11.2-4.7-.1.1-4.8-8.1-13.1-8.1z" class="st7"/>
    <path d="M59.4 237.1c-.7 0-1.5-.1-2.2-.2-7.1-1.2-11.1-7.8-11.3-8.1-.1-.1-.1-.3.1-.4 4.7-3.8 9.4-5.4 13.9-4.6 7 1.3 10.9 7.8 11 8.1.1.1 0 .3-.1.4-3.8 3.2-7.7 4.8-11.4 4.8zm-12.8-8.4c.8 1.2 4.7 6.5 10.7 7.6 4.1.7 8.5-.7 12.8-4.3-.8-1.2-4.5-6.5-10.5-7.6-4.1-.7-8.5.7-13 4.3z" class="st2"/>
    <path d="M48.6 225.2c-3.4-2.5-5.3-5.4-5.6-8.5-.4-4.5 2.5-8.3 3.3-9.4 3.5 2.6 5.4 5.5 5.7 8.8.4 4.4-2.5 8.1-3.4 9.1z" class="st9"/>
    <path d="M46.4 207.9c3.2 2.5 4.9 5.2 5.2 8.2.3 3.9-2 7.3-3 8.6-3.1-2.4-4.9-5.1-5.2-8-.4-4 1.9-7.5 3-8.8m-.2-1.1s-9.8 10.3 2.4 19c.1 0 10-10.1-2.4-19z" class="st7"/>
    <path d="M48.6 226.1c-.1 0-.1 0-.2-.1-3.8-2.7-5.9-5.8-6.2-9.3-.5-5.6 3.6-10 3.8-10.2.1-.1.3-.1.4 0 3.9 2.8 6 6 6.3 9.5.5 5.5-3.7 9.8-3.8 10-.1 0-.2.1-.3.1zm-2.3-18.9c-.8.9-3.9 4.9-3.4 9.5.3 3.2 2.2 6.1 5.7 8.7.8-.9 3.9-4.7 3.5-9.3-.3-3.3-2.3-6.3-5.8-8.9z" class="st2"/>
    <path d="M23.2 222.3c-.4-1.5.3-3 1.6-3.7.5-.2 1-.4 1.5-.4.7 0 1.4.2 1.9.6 1 .7 1.5 2.1 1.2 3.4l-3 12.8-3.2-12.7z" class="st10"/>
    <path d="M26.2 218.7c.6 0 1.2.2 1.7.5.9.6 1.2 1.8 1 2.9l-2.6 11.1-2.7-11c-.3-1.3.3-2.6 1.3-3.2.4-.2.9-.3 1.3-.3m0-.9c-.6 0-1.2.1-1.7.4-1.5.8-2.2 2.5-1.8 4.2l3.5 14.6 3.5-14.6c.3-1.4-.1-2.9-1.3-3.8-.6-.5-1.3-.8-2.2-.8z" class="st7"/>
    <path d="M26.2 253.9c-.7 0-1.4-.2-1.9-.6-1-.7-1.5-2.1-1.2-3.4l3-12.8 3.1 12.8c.4 1.5-.3 3-1.6 3.7-.3.1-.8.3-1.4.3z" class="st10"/>
    <path d="M26.2 238.9l2.7 11c.3 1.3-.3 2.6-1.3 3.2-.4.2-.8.3-1.3.3-.6 0-1.2-.2-1.7-.5-.9-.6-1.2-1.8-1-2.9l2.6-11.1m0-3.8l-3.5 14.6c-.3 1.4.1 2.9 1.3 3.8.6.5 1.4.7 2.2.7.6 0 1.2-.1 1.7-.4 1.5-.8 2.2-2.5 1.8-4.2l-3.5-14.5z" class="st7"/>
    <path d="M40.8 239.2c-.3 0-.5 0-.8-.1l-12.8-3L40 233c.3-.1.5-.1.8-.1 1.2 0 2.3.6 2.9 1.7.2.5.4 1 .4 1.5 0 .7-.2 1.4-.6 1.9-.7.8-1.6 1.2-2.7 1.2z" class="st10"/>
    <path d="M40.8 233.3c1.1 0 2 .5 2.5 1.4.2.4.3.8.3 1.3 0 .6-.2 1.2-.5 1.7-.5.7-1.3 1.1-2.2 1.1-.2 0-.5 0-.7-.1l-11.1-2.6 11-2.7c.2 0 .5-.1.7-.1m0-.8c-.3 0-.6 0-.9.1l-14.6 3.5 14.6 3.5c.3.1.6.1.9.1 1.1 0 2.2-.5 2.9-1.4.5-.6.7-1.4.7-2.2 0-.6-.1-1.2-.4-1.7-.6-1.3-1.9-1.9-3.2-1.9z" class="st7"/>
    <path d="M11.7 239.2c-1.2 0-2.3-.6-2.9-1.7-.2-.5-.4-1-.4-1.5 0-.7.2-1.4.6-1.9.6-.8 1.5-1.2 2.6-1.2.3 0 .5 0 .8.1l12.8 3-12.8 3.1c-.2.1-.5.1-.7.1z" class="st10"/>
    <path d="M11.6 233.3c.2 0 .5 0 .7.1l11.1 2.6-11 2.7c-.2.1-.5.1-.7.1-1.1 0-2-.5-2.5-1.4-.2-.4-.3-.8-.3-1.3 0-.6.2-1.2.5-1.7.5-.7 1.3-1.1 2.2-1.1m0-.8c-1.1 0-2.2.5-2.9 1.4-.5.6-.7 1.4-.7 2.2 0 .6.1 1.2.4 1.7.6 1.2 1.9 1.9 3.2 1.9.3 0 .6 0 .9-.1l14.6-3.5-14.6-3.5c-.3-.1-.6-.1-.9-.1z" class="st7"/>
    <path d="M36.4 249.6c-1.1 0-2.1-.6-2.7-1.6l-6.9-11.2 11.3 6.9c1.3.8 1.9 2.3 1.5 3.7-.2.5-.4.9-.8 1.3-.5.5-1.1.8-1.8.9-.3-.1-.4 0-.6 0z" class="st10"/>
    <path d="M28.1 238.1l9.7 5.9c1.1.7 1.7 2 1.3 3.2-.1.4-.4.8-.7 1.1-.4.4-1 .7-1.6.8h-.4c-.9 0-1.8-.5-2.4-1.4l-5.9-9.6m-2.7-2.7l7.9 12.8c.7 1.1 1.9 1.8 3.1 1.8h.5c.8-.1 1.5-.5 2.1-1 .4-.4.7-.9.9-1.5.5-1.6-.2-3.3-1.7-4.2l-12.8-7.9z" class="st7"/>
    <path d="M14.2 228.5c-1.3-.8-1.9-2.3-1.5-3.7.2-.5.4-.9.8-1.3.5-.5 1.1-.8 1.8-.9h.4c1.1 0 2.1.6 2.7 1.6l6.9 11.2-11.1-6.9z" class="st10"/>
    <path d="M15.8 222.9c.9 0 1.8.5 2.4 1.4l6 9.7-9.7-5.9c-1.1-.7-1.7-2-1.3-3.2.1-.4.4-.8.7-1.1.4-.4 1-.7 1.6-.8 0-.1.2-.1.3-.1m0-.8h-.5c-.8.1-1.5.5-2.1 1-.4.4-.7.9-.9 1.5-.5 1.6.2 3.3 1.7 4.2l12.8 7.8-7.9-12.8c-.7-1-1.9-1.7-3.1-1.7z" class="st7"/>
    <path d="M15.9 249.5c-.3 0-.6 0-.9-.1-.5-.2-.9-.4-1.3-.8-.5-.5-.8-1.1-.9-1.8-.2-1.2.4-2.5 1.6-3.2l11.2-6.9-6.9 11.3c-.6.9-1.7 1.5-2.8 1.5z" class="st10"/>
    <path d="M24.2 238l-5.9 9.7c-.5.9-1.5 1.4-2.4 1.4-.3 0-.5 0-.8-.1-.4-.1-.8-.4-1.1-.7-.4-.4-.7-1-.8-1.6-.2-1 .4-2.1 1.4-2.7l9.6-6m2.7-2.7l-12.8 7.9c-1.2.8-2 2.2-1.8 3.6.1.8.5 1.5 1 2.1.4.4.9.7 1.5.9.3.1.7.2 1 .2 1.3 0 2.5-.7 3.2-1.8l7.9-12.9z" class="st7"/>
    <path d="M33.8 224.1c.6-1 1.7-1.6 2.8-1.6.3 0 .6 0 .9.1.5.2.9.4 1.3.8.5.5.8 1.1.9 1.8.2 1.2-.4 2.5-1.6 3.2L27 235.3l6.8-11.2z" class="st10"/>
    <path d="M36.6 222.9c.3 0 .5 0 .8.1.4.1.8.4 1.1.7.4.4.7 1 .8 1.6.2 1-.4 2.1-1.4 2.7l-9.7 6 5.9-9.7c.6-.9 1.6-1.4 2.5-1.4m0-.9c-1.3 0-2.5.7-3.2 1.8l-7.8 12.8 12.8-7.9c1.2-.8 2-2.2 1.8-3.6-.1-.8-.5-1.5-1-2.1-.4-.4-.9-.7-1.5-.9-.4 0-.7-.1-1.1-.1z" class="st7"/>
    <path d="M26.3 237.3c-.2 0-.3-.1-.3-.3l-3.5-14.6c-.4-1.8.4-3.7 2-4.5 1.3-.7 3-.6 4.3.3 1.3.9 1.8 2.6 1.4 4.2L26.7 237c-.1.2-.3.3-.4.3zm-.1-19.1c-.5 0-1.1.1-1.5.4-1.3.7-2 2.3-1.6 3.8l3.2 13.2 3.1-13.3c.3-1.3-.2-2.7-1.2-3.5-.6-.4-1.2-.6-2-.6z" class="st2"/>
    <path d="M26.2 254.6c-.9 0-1.7-.3-2.4-.8-1.3-.9-1.8-2.6-1.4-4.2l3.5-14.6c0-.2.2-.3.3-.3.2 0 .3.1.3.3l3.5 14.6c.4 1.8-.4 3.7-2 4.5-.5.4-1.1.5-1.8.5zm0-18l-3.1 13.3c-.3 1.3.2 2.7 1.2 3.5 1 .7 2.4.9 3.5.3 1.3-.7 2-2.3 1.6-3.8l-3.2-13.3z" class="st2"/>
    <path d="M40.9 240c-.3 0-.7 0-1-.1l-14.6-3.5c-.2 0-.3-.2-.3-.3 0-.2.1-.3.3-.3l14.6-3.5c1.8-.4 3.7.4 4.5 2 .3.6.5 1.2.5 1.9 0 .9-.3 1.7-.8 2.4-.8.9-2 1.4-3.2 1.4zm-14.1-3.9l13.3 3.1c1.3.3 2.7-.2 3.5-1.2.4-.6.7-1.3.7-2 0-.5-.1-1.1-.4-1.5-.7-1.3-2.3-2-3.8-1.6l-13.3 3.2z" class="st2"/>
    <path d="M11.6 240c-1.5 0-2.8-.8-3.5-2.1-.3-.6-.5-1.2-.5-1.9 0-.9.3-1.7.8-2.4.9-1.3 2.6-1.8 4.2-1.4l14.6 3.5c.2 0 .3.2.3.3 0 .2-.1.3-.3.3l-14.6 3.5c-.3.2-.6.2-1 .2zm0-7.2c-1 0-2 .5-2.6 1.3-.4.6-.7 1.3-.7 2 0 .5.1 1.1.4 1.5.7 1.3 2.3 2 3.8 1.6l13.2-3.2-13.3-3.1c-.2-.1-.5-.1-.8-.1z" class="st2"/>
    <path d="M36.4 250.3c-1.4 0-2.6-.7-3.4-2l-7.9-12.8c-.1-.1-.1-.3 0-.4.1-.1.3-.1.4-.1l12.8 7.8c1.6 1 2.4 2.9 1.8 4.6-.2.6-.5 1.2-1 1.6-.6.6-1.4 1-2.2 1.1-.1.2-.3.2-.5.2zm-9.9-13.9l7.2 11.6c.7 1.2 2 1.8 3.3 1.6.7-.1 1.4-.4 1.9-.9.4-.4.7-.8.8-1.4.4-1.4-.2-3-1.5-3.8l-11.7-7.1z" class="st2"/>
    <path d="M26.8 237h-.2l-12.8-7.8c-1.6-1-2.4-2.9-1.8-4.6.2-.6.5-1.2 1-1.6.6-.6 1.4-1 2.2-1.1 1.5-.2 3.1.5 4 1.9l7.9 12.8c.1.1.1.3 0 .4h-.3zm-11-14.6h-.5c-.7.1-1.4.4-1.9.9-.4.4-.7.8-.8 1.4-.4 1.4.2 3 1.5 3.8l11.6 7.1-7.1-11.6c-.6-1-1.7-1.6-2.8-1.6z" class="st2"/>
    <path d="M15.9 250.3c-.4 0-.8-.1-1.1-.2-.6-.2-1.2-.5-1.6-1-.6-.6-1-1.4-1.1-2.2-.2-1.5.5-3.1 1.9-4l12.8-7.9c.1-.1.3-.1.4 0s.1.3.1.4l-7.8 12.8c-.9 1.3-2.2 2.1-3.6 2.1zm10-14l-11.6 7.2c-1.2.7-1.8 2-1.6 3.3.1.7.4 1.4.9 1.9.4.4.8.7 1.4.8 1.4.4 3-.2 3.8-1.5l7.1-11.7z" class="st2"/>
    <path d="M25.6 237c-.1 0-.2 0-.2-.1-.1-.1-.1-.3-.1-.4l7.8-12.8c1-1.6 2.9-2.4 4.6-1.8.6.2 1.2.5 1.6 1 .6.6 1 1.4 1.1 2.2.2 1.5-.5 3.1-1.9 4L25.6 237c.1 0 .1 0 0 0zm11-14.7c-1.1 0-2.3.6-2.9 1.7l-7.1 11.6 11.6-7.2c1.2-.7 1.8-2 1.6-3.3-.1-.7-.4-1.4-.9-1.9-.4-.4-.8-.7-1.4-.8-.3 0-.6-.1-.9-.1z" class="st2"/>
    <circle cx="26.3" cy="236.1" r="1.9" class="st11"/>
    <path d="M26.3 234.7c.8 0 1.4.6 1.4 1.4 0 .8-.6 1.4-1.4 1.4s-1.4-.6-1.4-1.4c-.1-.8.6-1.4 1.4-1.4m0-.9c-1.3 0-2.3 1-2.3 2.3s1 2.3 2.3 2.3 2.3-1 2.3-2.3c0-1.3-1.1-2.3-2.3-2.3z" class="st7"/>
    <path d="M26.3 238.7c-1.5 0-2.7-1.2-2.7-2.7s1.2-2.7 2.7-2.7 2.7 1.2 2.7 2.7c-.1 1.5-1.3 2.7-2.7 2.7zm0-4.6c-1.1 0-2 .9-2 2s.9 2 2 2 2-.9 2-2c-.1-1.1-1-2-2-2z" class="st2"/>
  </g>
  <g id="Summer">
    <path d="M70.6 126.6l1.7-2.6c.1-.2.1-.3 0-.5s-.3-.3-.4-.3-.2 0-.2.1l-5.3 2.9c-.2.1-.5.2-.7.2l-3.4-.1 3.4-4.2c.1-.2.1-.4 0-.5-.1-.2-.3-.3-.4-.3s-.2 0-.2.1l-7 4.6c-.2.1-.5.2-.7.2l-3.4-.1 1.7-2.6c.1-.2.1-.3 0-.5s-.3-.3-.4-.3c-.1 0-.2 0-.2.1l-5.3 2.9c-.2.1-.5.2-.7.2l-3.4-.1 3.4-4.2c.1-.2.1-.4 0-.5-.1-.2-.3-.3-.4-.3-.1 0-.2 0-.2.1l-7 4.6c-.2.1-.5.2-.7.2l-3.4-.1 1.7-2.6c.1-.2.1-.3 0-.5s-.3-.3-.4-.3c-.1 0-.2 0-.2.1l-5.2 2.9c-.2.1-.5.2-.7.2l-3.4-.1 3.3-4.2c.1-.2.1-.4 0-.5-.1-.2-.3-.3-.4-.3-.1 0-.2 0-.2.1l-7 4.5c-.2.1-.5.2-.7.2l-3.4-.1 1.6-2.5c.1-.2.1-.3 0-.5s-.3-.3-.4-.3-.2 0-.2.1l-5.2 2.9c-.2.1-.5.2-.7.2l-7.2-.2c5.2-8 19.4-13.3 35.7-13.3h2.3c17.2.5 32.4 6.9 37.2 15.6l-13.3-.4z" class="st12"/>
    <path d="M43.6 111.1v.6h2.3c16.8.5 31.6 6.6 36.7 15l-11.5-.4 1.4-2.1c.2-.2.2-.6 0-.8-.1-.3-.4-.4-.7-.4-.1 0-.3 0-.4.1l-5.3 2.9c-.2.1-.4.2-.6.2l-2.7-.1 3-3.7v-.1c.2-.2.2-.6 0-.8-.1-.3-.4-.4-.7-.4-.1 0-.3 0-.4.1l-7 4.6c-.2.1-.4.1-.6.1l-2.8-.1 1.4-2.1c.2-.2.2-.6 0-.8-.1-.3-.4-.4-.7-.4-.1 0-.3 0-.4.1l-5.3 2.9c-.2.1-.4.2-.6.2l-2.7-.1 3-3.7v-.1c.2-.2.2-.6 0-.8-.1-.3-.4-.4-.7-.4-.1 0-.3 0-.4.1l-7 4.5c-.2.1-.4.1-.6.1l-2.8-.1 1.3-2.1c.2-.2.2-.6 0-.8-.1-.3-.4-.4-.7-.4-.1 0-.3 0-.4.1l-5.2 2.9c-.2.1-.4.2-.6.2L29 125l2.9-3.7v-.1c.2-.2.2-.6 0-.8-.1-.3-.4-.4-.7-.4-.1 0-.3 0-.4.1l-6.9 4.5c-.2.1-.4.1-.6.1l-2.8-.1 1.3-2.1c.2-.2.2-.6 0-.8-.1-.3-.4-.4-.7-.4-.1 0-.3 0-.4.1l-5.2 2.9c-.2.1-.4.2-.6.2l-6.6-.2c5.3-7.6 19.3-12.7 35.2-12.7l.1-.5m0 0c-17.1 0-31.4 5.7-36.3 13.9l7.7.2h.1c.3 0 .6-.1.9-.2l5.2-2.9h.1c.1 0 .3.2.2.3l-1.6 2.6c-.1.2 0 .4.2.4l3.4.1h.1c.3 0 .6-.1.9-.2l6.9-4.5h.1c.1 0 .3.2.2.3l-3.3 4.2c-.1.2 0 .4.2.4l3.4.1h.1c.3 0 .6-.1.9-.2l5.2-2.9h.1c.1 0 .3.2.2.3l-1.6 2.6c-.1.2 0 .4.2.4l3.4.1h.1c.3 0 .6-.1.9-.2l7-4.6h.1c.1 0 .3.2.2.3l-3.4 4.2c-.1.2 0 .4.2.4l3.4.1h.1c.3 0 .6-.1.9-.2l5.3-2.9h.1c.1 0 .3.2.2.3l-1.7 2.6c-.1.2 0 .4.2.4l3.4.1h.1c.3 0 .6-.1.9-.2l7-4.6h.1c.1 0 .3.2.2.3l-3.4 4.2c-.1.2 0 .4.2.4l3.3.1h.1c.3 0 .6-.1.9-.2l5.3-2.9h.1c.1 0 .3.2.2.3l-1.7 2.6c-.1.2 0 .4.2.4l13.1.4c-4.5-8.8-19.6-15.7-37.7-16.2-1.3-.1-2.1-.1-2.8-.1z" class="st13"/>
    <path d="M83.6 127.6l-13.1-.4c-.2 0-.4-.1-.4-.3-.1-.2-.1-.4 0-.5l1.6-2.5-5.2 2.9c-.3.2-.7.3-1.1.3l-3.3-.1c-.2 0-.4-.1-.4-.3-.1-.2-.1-.4 0-.5l3.2-4.1-6.8 4.4c-.3.2-.7.3-1.1.3l-3.4-.1c-.2 0-.4-.1-.4-.3-.1-.2-.1-.4 0-.5l1.6-2.5-5.1 2.9c-.3.2-.7.3-1.1.3l-3.4-.1c-.2 0-.4-.1-.4-.3-.1-.2-.1-.4 0-.5l3.2-4-6.8 4.4c-.3.2-.7.3-1.1.3l-3.4-.1c-.2 0-.4-.1-.4-.3-.1-.2-.1-.4 0-.5l1.6-2.5-5.1 2.8c-.3.2-.7.3-1.1.3l-3.4-.1c-.2 0-.4-.1-.4-.3-.1-.2-.1-.4 0-.5l3.2-4-6.7 4.4c-.3.2-.7.3-1.1.3l-3.4-.1c-.2 0-.4-.1-.4-.3-.1-.2-.1-.4 0-.5l1.6-2.4-5.1 2.8c-.3.2-.7.3-1.1.3l-7.7-.2c-.1 0-.2 0-.2-.1v-.2c5.2-8.7 21.2-14.5 38.8-13.9 17.7.5 33.3 7.2 37.9 16.3v.2c.1-.3 0-.2-.1-.2zm-13.1-.9l12.7.4c-4.8-8.8-20-15.2-37.3-15.7-17.2-.5-32.8 5-38.2 13.4l7.3.2c.3 0 .6-.1.8-.2l5.2-2.9c.2-.1.4-.1.5.1.1.1.2.4 0 .5l-1.6 2.6v.3-.2l3.4.1c.3 0 .6-.1.8-.2l6.9-4.5c.2-.1.4-.1.5.1.1.1.2.4 0 .5l-3.4 4.2.1.3v-.2l3.4.1c.3 0 .6-.1.8-.2l5.2-2.9c.2-.1.4-.1.5.1.1.1.2.4 0 .5l-1.6 2.6v.3-.2l3.4.1c.3 0 .6-.1.8-.2l7-4.5c.2-.1.4-.1.5.1.1.1.2.4 0 .5l-3.4 4.2.1.3v-.2l3.4.1c.3 0 .6-.1.8-.2l5.3-2.9c.2-.1.4-.1.5.1.1.1.2.4 0 .5l-1.7 2.6v.3-.2l3.4.1c.3 0 .6-.1.8-.2l7-4.6c.2-.1.4-.1.5.1.1.1.2.4 0 .5l-3.4 4.3.1.1 3.3.1c.3 0 .6-.1.8-.2l5.3-2.9c.2-.1.4-.1.5.1.1.1.2.4 0 .5l-1 2.4v.2-.2z" class="st2"/>
    <path d="M35.4 160.9c-.4-7.6 6.6-18.1 17.4-25.7 7.9-5.5 16.8-8.8 23.8-8.8 2.5 0 4.6.4 6.4 1.2l-7.8 5.4-.2-2.3c0-.2-.2-.4-.5-.4-.2 0-.3.1-.4.3l-1.9 4.3c-.1.2-.2.3-.4.5l-2 1.4.1-4c0-.3-.2-.4-.5-.4-.2 0-.3.1-.4.3l-2.2 6.1c-.1.2-.2.3-.4.4l-2 1.4-.2-2.2c0-.2-.2-.4-.4-.4s-.3.1-.4.3l-1.9 4.3c-.1.2-.2.3-.4.5l-2 1.4.1-4c0-.3-.2-.4-.5-.4-.2 0-.3.1-.4.3l-2.2 6.1c-.1.2-.2.3-.4.4l-2 1.4-.2-2.2c0-.2-.2-.4-.5-.4-.2 0-.3.1-.4.3l-1.9 4.2c-.1.2-.2.3-.4.5l-2 1.4.1-4c0-.3-.2-.4-.5-.4-.2 0-.3.1-.4.3l-2.2 6.1c-.1.2-.2.3-.4.4l-2 1.4-.2-2.2c0-.2-.2-.4-.5-.4-.2 0-.3.1-.4.3l-1.9 4.2c-.1.2-.2.3-.4.5l-4.1 2.6z" class="st12"/>
    <path d="M76.6 126.6c2.2 0 4.1.3 5.8.9l-6.9 4.8-.1-1.7c0-.4-.4-.7-.7-.7-.3 0-.6.2-.7.4l-1.9 4.3c-.1.1-.2.3-.3.3l-1.5 1.1.1-3.4v-.1c0-.4-.4-.7-.7-.7-.3 0-.6.2-.7.4l-2.2 6.1-.3.3-1.6 1.1-.1-1.7c0-.4-.4-.7-.7-.7-.3 0-.6.2-.7.4l-1.9 4.3c-.1.1-.2.3-.3.3l-1.5 1.1.1-3.4v-.1c0-.4-.4-.7-.7-.7s-.6.2-.7.4l-2.2 6-.3.3-1.6 1.1-.1-1.7c0-.4-.4-.7-.7-.7s-.6.2-.7.4l-1.9 4.2c-.1.1-.2.3-.3.3l-1.5 1.1.1-3.4v-.1c0-.4-.4-.7-.7-.7s-.6.2-.7.4l-2.2 6-.3.3-1.6 1.1-.1-1.7c0-.4-.4-.7-.7-.7s-.6.2-.7.4l-1.9 4.2c-.1.1-.2.3-.3.3l-4 2.8c-.1-7.5 6.9-17.6 17.3-24.9 7.5-4.7 16.4-8 23.3-8m0-.6c-6.9 0-15.7 3.1-24 8.9-11.5 8.1-18.3 18.9-17.5 26.5L40 158c.2-.1.4-.3.5-.6l1.9-4.2c0-.1.1-.1.1-.1.1 0 .1.1.2.1l.2 2.3c0 .1.1.2.2.2h.1l2.2-1.5c.2-.1.4-.3.5-.6l2.2-6c0-.1.1-.1.1-.1.1 0 .1.1.2.1l-.1 4.2c0 .1.1.2.2.2h.1l2.2-1.5c.2-.1.4-.3.5-.6l1.9-4.2c0-.1.1-.1.1-.1.1 0 .1.1.2.1l.2 2.4c0 .1.1.2.2.2h.1l2.1-1.5c.2-.1.4-.3.5-.6l2.2-6.1c0-.1.1-.1.1-.1.1 0 .1.1.2.1l-.1 4.2c0 .1.1.2.2.2h.1l2.1-1.5c.2-.1.4-.3.5-.6l1.9-4.3c0-.1.1-.1.1-.1.1 0 .1.1.2.1l.2 2.4c0 .1.1.2.2.2h.1l2.1-1.5c.2-.1.4-.3.5-.6l2.2-6.1c0-.1.1-.1.1-.1.1 0 .1.1.2.1l-.1 4.2c0 .1.1.2.2.2h.1l2.1-1.5c.2-.1.4-.3.5-.6l1.9-4.3c0-.1.1-.1.1-.1.1 0 .1.1.2.1l.2 2.4c0 .1.1.2.2.2h.1l8.3-5.8c-1.8-.8-4.2-1.3-6.9-1.3z" class="st13"/>
    <path d="M35.2 161.6c-.1 0-.1 0 0 0-.2-.1-.2-.1-.2-.2-.8-7.9 6.4-18.9 17.6-26.7 11.2-7.9 24.1-11 31.2-7.5.1 0 .1.1.1.2s0 .2-.1.2l-8.3 5.8c-.1.1-.3.1-.5 0-.1-.1-.2-.2-.3-.4l-.2-2.1-1.8 4c-.1.3-.3.5-.6.7l-2.1 1.5c-.1.1-.3.1-.5 0-.1-.1-.2-.2-.3-.4l.1-3.7-2 5.6c-.1.3-.3.5-.6.7l-2.1 1.5c-.1.1-.3.1-.5 0-.1-.1-.2-.2-.3-.4l-.2-2.1-1.8 4c-.1.3-.3.5-.6.7l-2.1 1.5c-.1.1-.3.1-.5 0-.1-.1-.2-.2-.3-.4l.1-3.7-2 5.6c-.1.3-.3.5-.6.7l-2.1 1.5c-.1.1-.3.1-.5 0-.1-.1-.2-.2-.3-.4l-.2-2-1.8 4c-.1.3-.3.5-.6.7l-2.2 1.5c-.1.1-.3.1-.5 0-.1-.1-.2-.2-.3-.4l.1-3.7-2 5.6c-.1.3-.3.5-.6.7l-2.2 1.5c-.1.1-.3.1-.5 0-.1-.1-.2-.2-.3-.4l-.2-2-1.8 3.9c-.1.3-.3.5-.6.7l-4.9 3.4.9.3zm41.5-35.4c-6.9 0-15.8 3.2-23.9 8.8-10.9 7.6-18 18.2-17.4 25.9l4.5-3.2c.2-.1.3-.3.4-.5l1.9-4.2c.1-.2.2-.2.4-.2s.3.2.3.3l.2 2.3 2.1-1.5c.2-.1.3-.3.4-.5l2.2-6c.1-.2.2-.3.4-.2.2 0 .3.2.3.3l-.1 4.2 2.1-1.5c.2-.1.3-.3.4-.5l1.9-4.2c.1-.2.2-.3.4-.2.2 0 .3.2.3.3l.2 2.4 2.1-1.5c.2-.1.3-.3.4-.5l2.2-6c.1-.2.2-.3.4-.2.2 0 .3.2.3.3l-.1 4.2 2.1-1.5c.2-.1.3-.3.4-.5l1.9-4.3c.1-.2.2-.3.4-.2.2 0 .3.2.3.3l.2 2.4 2.1-1.5c.2-.1.3-.3.4-.5l2.2-6.1c.1-.2.2-.3.4-.2.2 0 .3.2.3.3l-.1 4.2 2.1-1.5c.2-.1.3-.3.4-.5l1.9-4.3c.1-.2.2-.2.4-.2s.3.2.3.3l.2 2.4 8-5.6c-1.6-.7-3.8-1.1-6.2-1.1z" class="st2"/>
    <path d="M56.6 141c-.6-.5-1-1.3-1-2.1s.2-1.6.8-2.2l5.8-6.4c.6-.6 1.4-1 2.2-1 .7 0 1.5.3 2 .8l1.3 1.1-9.8 10.9-1.3-1.1z" class="st14"/>
    <path d="M64.4 129.6c.7 0 1.3.2 1.8.7l1 .9-9.4 10.4-1-.9c-.5-.5-.9-1.1-.9-1.9 0-.7.2-1.4.7-1.9l5.8-6.4c.5-.6 1.2-.9 2-.9m0-.6c-.9 0-1.8.4-2.5 1.1l-5.8 6.4c-1.2 1.4-1.1 3.5.2 4.7l1.5 1.3L68 131.1l-1.5-1.3c-.5-.5-1.3-.8-2.1-.8z" class="st13"/>
    <path d="M57.8 142.8c-.1 0-.1 0-.2-.1l-1.5-1.3c-.7-.6-1.1-1.5-1.2-2.5-.1-1 .3-1.9.9-2.6l5.8-6.4c1.3-1.5 3.6-1.6 5-.3l1.5 1.3c.1.1.1.2 0 .3L58 142.7s-.1.1-.2.1zm6.6-13.6c-.8 0-1.7.3-2.3 1l-5.8 6.4c-.6.6-.8 1.4-.8 2.2s.4 1.6 1 2.1l1.3 1.2 9.9-11-1.3-1.2c-.6-.4-1.3-.7-2-.7zm-8.3 7.3z" class="st2"/>
    <path d="M65.6 152.2c-2.6 0-5.1-.8-7.2-2.4-.2-.2-.3-.4-.3-.6l-.7-13.4c-.1-2.3 1.6-4.2 3.9-4.3l13.5-.7c.3 0 .5.1.7.3 4.3 4.5 4.2 12-.2 16.9-2.6 2.7-6.1 4.2-9.7 4.2z" class="st14"/>
    <path d="M74.8 131.1c.1 0 .3.1.4.2 4.2 4.4 4.1 11.7-.2 16.5-2.4 2.7-5.8 4.2-9.4 4.2-2.6 0-5-.8-7-2.3-.1-.1-.2-.2-.2-.4l-.7-13.4c-.1-1 .3-2 1-2.7.7-.8 1.6-1.2 2.6-1.3l13.5-.8m0-.7l-13.5.7c-2.4.1-4.3 2.2-4.2 4.7l.7 13.4c0 .3.2.7.5.9 2.2 1.7 4.7 2.5 7.4 2.5 3.6 0 7.2-1.5 9.8-4.4 4.6-5.1 4.6-12.7.2-17.3-.3-.3-.6-.5-.9-.5z" class="st13"/>
    <path d="M65.6 152.9c-2.7 0-5.3-.8-7.5-2.5-.3-.3-.6-.7-.6-1.1l-.7-13.4c-.1-2.6 1.9-4.8 4.5-5l13.5-.7c.4 0 .8.1 1.1.5 4.5 4.8 4.4 12.6-.2 17.7-2.7 2.9-6.4 4.5-10.1 4.5zm9.2-22.2l-13.5.7c-2.3.1-4 2.1-3.9 4.3l.7 13.4c0 .2.1.5.3.6 5 3.8 12.4 3 16.8-1.9s4.5-12.3.2-16.9c-.1-.1-.4-.2-.6-.2zm0-.3z" class="st2"/>
    <path d="M65.6 151.5c-2.4 0-4.7-.8-6.6-2.4-.6-.5-.9-.8-1.5-1.7-.1-.1 0-.3.1-.3.1-.1.3 0 .3.1.6.8.9 1.1 1.4 1.6 4.1 3.7 10.8 2.9 15-1.7 4.2-4.6 4.2-11.4.1-15.1-.5-.5-1.1-.8-1.6-1.2-.1-.1-.2-.2-.1-.3s.2-.2.3-.1c.6.3 1.2.8 1.7 1.2 4.3 3.9 4.2 10.9-.1 15.7-2.5 2.8-5.8 4.2-9 4.2z" class="st2"/>
  </g>
  <g id="Winter">
    <path d="M57.3 76c-1.4-1.7-5.9-6.8-12-6.8-1.8 0-3.6.5-5.4 1.4-.7-2.7-3.8-12.5-14.1-14.5.5-1.1 1.2-3.4-.9-6.2 1.1-1.4 5-7.1 2.8-12.2h.6c5.2 0 9-5.2 10-6.6.8.3 1.6.4 2.3.4 1.9 0 3.2-.9 3.8-1.6 4.4 7.6 12.1 8.8 16.5 8.8.8 0 1.4 0 1.8-.1-1.4 9.5 8 13.7 10.7 14.7-4.8 6.9.5 15.8 2.8 19.1-1.8-.5-4.8-1.3-8.1-1.3-4.8.1-8.5 1.7-10.8 4.9z" class="st15"/>
    <path d="M44.5 30.7c4.5 7.4 12.3 8.5 16.6 8.5h1.2c-.5 4.4 1.3 8.4 5.2 11.4 2 1.5 4 2.5 5.3 3-2.2 3.6-2.3 8.1-.2 13.2.8 1.9 1.7 3.5 2.5 4.8-1.8-.5-4.3-.9-6.9-.9-4.7 0-8.5 1.5-10.9 4.5-1.8-2.1-6.1-6.4-11.9-6.4-1.7 0-3.4.4-5 1.1-.4-1.3-1.1-3.5-2.5-5.8-2.7-4.4-6.5-7.3-11.2-8.4.5-1.4.6-3.5-1-5.8.6-.8 1.5-2.2 2.2-3.9 1.2-2.8 1.4-5.5.7-7.7 5-.1 8.8-4.8 10.1-6.5.7.2 1.4.3 2.1.3 1.7-.1 2.9-.8 3.7-1.4m.2-1.7s-1.2 2-3.9 2c-.7 0-1.6-.1-2.5-.5 0 0-4.2 6.7-9.8 6.7-.5 0-1-.1-1.6-.2 3.4 5.6-2.5 12.8-2.5 12.8 3.1 3.7.7 6.6.7 6.6 12.3 1.9 14.6 14.9 14.6 14.9 2-1.2 3.9-1.6 5.7-1.6 7 0 12 7.1 12 7.1 2.6-4 6.9-5.1 10.9-5.1 5 0 9.5 1.8 9.5 1.8s-10.1-12-3.4-20.4c0 0-13.1-3.8-10.9-15 0 0-.9.1-2.4.1-4.1 0-12.2-1.1-16.4-9.2zm18.7 9.1zm14.3 35.4z" class="st1"/>
    <path d="M57.3 77.2c-.1 0-.2-.1-.3-.1 0 0-2-2.8-5-4.8-4.1-2.7-8.2-2.9-12.2-.6-.1.1-.2.1-.3 0-.1 0-.2-.1-.2-.2S36.9 58.7 25 56.9c-.1 0-.2-.1-.3-.2 0-.1 0-.2.1-.3s2.1-2.7-.7-6.1c-.1-.1-.1-.3 0-.4.1-.1 5.8-7.1 2.5-12.4-.1-.1-.1-.3 0-.4.1-.1.2-.2.4-.1 6.1 1.4 10.9-6.3 11-6.4s.3-.2.4-.1c4.2 1.6 6-1.2 6-1.3.1-.1.2-.2.3-.2s.2.1.3.2c5.6 10.7 18.3 8.9 18.4 8.9.1 0 .2 0 .3.1s.1.2.1.3c-2.1 10.8 10.5 14.6 10.7 14.6.1 0 .2.1.2.2s0 .2-.1.3c-6.5 8.1 3.3 19.9 3.4 20l.1.1v.3c0 .1-.1.1-.1.1h-.3c-.1-.1-14.4-5.5-20 3.2-.2-.2-.3-.1-.4-.1zm-12-7.8c6.2 0 10.8 5.4 12 6.9 5.1-7.2 16-4.5 19.5-3.5-2.1-2.9-8.2-12.4-3-19.6-2.3-.8-12.4-4.9-10.7-14.8-2.4.2-13.2.7-18.4-8.8-.8.8-2.8 2.4-6.3 1.2-.4.6-1.5 2.2-3.2 3.7-2.5 2.2-5.2 3.3-7.7 2.9 1.1 2.3 1 5.1-.3 8.2-.9 2.1-2 3.6-2.4 4.2 2.3 2.9 1.4 5.3.8 6.3C36.3 58 39.3 68.4 39.9 70.7c1.9-.9 3.7-1.3 5.4-1.3z" class="st2"/>
    <path d="M62.1 62.5c-.1 0-.1 0-.2-.1L21.1 33.2c-.2-.1-.2-.3-.1-.5s.3-.2.5-.1l40.8 29.2c.2.1.2.3.1.5s-.2.2-.3.2z" class="st2"/>
    <path d="M42.8 13.4c1.8 2.3 4 3 6.1 3 3.4 0 6.5-2 6.5-2 1.4 7.2 12 7.3 12 7.3s-9.4 5-7.3 12h-1c-2.4 0-8.5.6-9.7 6.7 0 0-3-1.8-6.8-1.8-2.3 0-4.9.6-7.3 2.7 0 0-.4-2.5-3.7-2.5 0 0-1.1-6.3-5.5-7 3.6-2.7 1.6-8.8 1.6-8.8 2.9-1.6 2.1-4 2.1-4 .9.2 1.8.3 2.7.3 6.5.1 10.3-5.9 10.3-5.9m0-.9c-.1 0-.1 0 0 0-.3 0-.6.2-.7.4 0 .1-3.6 5.6-9.6 5.6-.8 0-1.6-.1-2.5-.3h-.2c-.2 0-.5.1-.6.3-.2.2-.3.6-.2.9 0 .2.4 1.8-1.7 2.9-.4.2-.5.6-.4 1 0 .1 1.7 5.5-1.3 7.8-.3.2-.4.6-.3.9.1.3.4.6.7.7 3.7.6 4.8 6.2 4.8 6.3.1.4.4.7.8.7 2.4.1 2.8 1.6 2.9 1.8.1.3.3.6.6.7h.3c.2 0 .4-.1.6-.2 1.9-1.7 4.2-2.5 6.8-2.5 3.5 0 6.3 1.6 6.4 1.7.1.1.3.1.4.1.1 0 .2 0 .4-.1.3-.1.4-.4.5-.6 1-5.4 6.5-6 8.9-6h1c.3 0 .5-.1.7-.3s.2-.5.2-.8c-.8-2.6.1-5.2 2.6-7.8 2-2 4.2-3.2 4.2-3.2.3-.2.5-.6.4-1s-.4-.7-.9-.7c0 0-2.6 0-5.3-.9-3.4-1.1-5.4-3-5.9-5.7-.1-.3-.3-.5-.5-.6-.1 0-.2-.1-.3-.1-.2 0-.3 0-.5.1 0 0-2.9 1.8-6 1.8-2.2 0-4-.9-5.4-2.7-.4-.1-.7-.2-.9-.2z" class="st1"/>
    <path d="M35.5 40.5c-.4-.8-1.4-2-3.5-2.2-.3-1.3-1.5-5.6-4.9-6.8 2.4-2.6 1.5-6.9 1.2-8.3 1.8-1.2 2.1-2.7 2.1-3.6.7.1 1.4.2 2.1.2 5.7 0 9.2-4.1 10.4-5.7 1.6 1.8 3.6 2.7 6 2.7 2.7 0 5.1-1.1 6.1-1.7 1.5 5.3 7.7 6.6 10.7 6.9-2.5 1.7-7.4 5.7-6.3 11.1h-.3c-7.3 0-9.4 4.1-10.1 6.5-1.1-.5-3.5-1.5-6.5-1.5-2.6 0-5 .8-7 2.4z" class="st15"/>
    <path d="M42.8 15c1.6 1.6 3.7 2.4 6 2.4 2.4 0 4.6-.9 5.8-1.5 1 2.7 3.3 4.7 6.9 5.8 1 .3 2 .6 2.9.7-.7.5-1.5 1.2-2.2 2-2.6 2.6-3.7 5.5-3.4 8.3-2.3.1-8.3.7-10.1 6.3-1.3-.6-3.5-1.3-6.1-1.3s-4.9.7-6.9 2.2c-.6-.8-1.6-1.7-3.3-1.9-.4-1.6-1.6-5.1-4.5-6.5 1.9-2.6 1.3-6.3.9-7.9 1.4-1 1.9-2.2 2-3.2.5.1 1.1.1 1.6.1 5.4-.1 9-3.6 10.4-5.5m0-1.6s-3.7 6-10.3 6c-.8 0-1.7-.1-2.7-.3 0 0 .8 2.4-2.1 4 0 0 1.9 6.1-1.6 8.8 4.4.7 5.5 7 5.5 7 3.3.1 3.7 2.5 3.7 2.5 2.4-2.1 5-2.7 7.3-2.7 3.8 0 6.8 1.8 6.8 1.8 1.2-6.1 7.3-6.7 9.7-6.7h1c-2.1-7 7.3-12 7.3-12s-10.6-.1-12-7.3c0 0-3 2-6.5 2-2.1-.1-4.3-.8-6.1-3.1zm24.6 8.3zm0 0z" class="st1"/>
    <path d="M35.2 41.7c-.2 0-.3-.1-.3-.3 0-.1-.4-2.2-3.4-2.3-.2 0-.3-.1-.3-.3 0-.1-1.1-6.1-5.2-6.7-.1 0-.2-.1-.3-.3 0-.1 0-.3.1-.4 3.3-2.5 1.5-8.3 1.5-8.4 0-.2 0-.3.2-.4 2.6-1.4 2-3.5 1.9-3.6 0-.1 0-.2.1-.3.1-.1.2-.1.3-.1 7.9 1.9 12.6-5.5 12.6-5.5.1-.1.2-.2.3-.2s.2 0 .3.1c1.9 2.4 4.5 3.3 7.7 2.7 2.4-.5 4.4-1.7 4.4-1.7.1-.1.2-.1.3 0 .1 0 .2.1.2.2 1.3 6.8 11.6 7 11.7 7h.1c.1 0 .2.1.2.2.1.2 0 .3-.2.4-.1 0-9.1 5-7.1 11.6 0 .1 0 .2-.1.3s-.2.1-.3.1c0 0-2.3-.2-4.7.5-3.2.9-5 2.9-5.6 5.9 0 .1-.1.2-.2.2h-.3s-7.6-4.4-13.8.9c.1.4 0 .4-.1.4zm-3.4-3.2c2.4.2 3.3 1.5 3.6 2.3 5.6-4.4 12.1-1.7 13.8-.9 1.5-6.4 8.6-6.6 10.5-6.6-1.3-5.6 4.3-9.9 6.6-11.4-2.7-.3-9.7-1.5-11.2-7-1.7.9-8 4-12.3-1-1.1 1.5-5.6 6.9-12.6 5.6.1.8-.1 2.5-2.1 3.7.3 1.2 1.4 5.8-1.3 8.4 3.5 1.1 4.7 5.7 5 6.9z" class="st2"/>
    <path d="M21.5 33.2c-.2 0-.3-.1-.3-.3s.1-.4.2-.4l33.2-8.1c.2 0 .4.1.4.2 0 .2-.1.4-.2.4l-33.3 8.2z" class="st2"/>
    <path d="M19.2 35.4c-1.2 0-2.3-.4-3.2-1.2-2-1.8-2.2-4.9-.5-6.9.9-1.1 2.3-1.7 3.7-1.7 1.2 0 2.3.4 3.2 1.2 1 .9 1.6 2 1.7 3.3s-.3 2.6-1.2 3.5c-1 1.2-2.3 1.8-3.7 1.8z" class="st16"/>
    <path d="M19.2 26.1c1.1 0 2.1.4 2.9 1.1 1.8 1.6 2 4.4.4 6.2-.8 1-2 1.5-3.3 1.5-1.1 0-2.1-.4-2.9-1.1-1.8-1.6-2-4.4-.4-6.2.8-.9 2-1.5 3.3-1.5m0-1c-1.5 0-3 .6-4.1 1.8-2 2.2-1.7 5.6.5 7.6 1 .9 2.3 1.3 3.5 1.3 1.5 0 3-.6 4.1-1.8 2-2.2 1.7-5.6-.5-7.6-1-.9-2.3-1.3-3.5-1.3z" class="st1"/>
    <path d="M19.2 36.2c-1.4 0-2.7-.5-3.8-1.4-2.4-2.1-2.6-5.7-.5-8.1 1-1.2 2.4-1.8 3.9-1.9s3 .4 4.2 1.4c1.2 1 1.8 2.4 1.9 3.9s-.4 3-1.4 4.2c-1 1.2-2.4 1.8-3.9 1.9h-.4zm0-10.8h-.3c-1.3.1-2.6.7-3.5 1.7-1.8 2.1-1.6 5.3.5 7.1 1 .9 2.3 1.3 3.7 1.2 1.3-.1 2.6-.7 3.5-1.7.9-1 1.3-2.3 1.2-3.7-.1-1.3-.7-2.6-1.7-3.5-1-.6-2.2-1.1-3.4-1.1z" class="st2"/>
    <path d="M19.6 42.1c-.7 0-1.3-.2-1.8-.7-1.1-1-1.2-2.7-.3-3.9.5-.6 1.3-.9 2.1-.9.7 0 1.3.2 1.8.7 1.1 1 1.2 2.7.3 3.9-.5.6-1.3.9-2.1.9z" class="st16"/>
    <path d="M19.6 37.2c.5 0 1.1.2 1.5.5.9.8 1 2.2.2 3.1-.4.5-1 .8-1.7.8-.5 0-1.1-.2-1.5-.5-.9-.8-1-2.2-.2-3.1.5-.5 1.1-.8 1.7-.8m0-1c-.9 0-1.8.4-2.4 1.1-1.2 1.3-1 3.4.3 4.6.6.5 1.4.8 2.1.8.9 0 1.8-.4 2.4-1.1 1.2-1.3 1-3.4-.3-4.6-.5-.6-1.3-.8-2.1-.8z" class="st1"/>
    <path d="M19.6 43c-.9 0-1.7-.3-2.3-.9-.7-.6-1.2-1.5-1.2-2.5-.1-1 .2-1.9.9-2.6 1.3-1.5 3.6-1.6 5-.3 1.5 1.3 1.6 3.6.3 5-.6.7-1.5 1.2-2.5 1.2 0 .1-.1.1-.2.1zm0-6.5c-.8 0-1.6.3-2.2 1-.5.6-.8 1.3-.7 2.1.1.8.4 1.5 1 2 1.2 1.1 3 .9 4.1-.3 1.1-1.2.9-3-.3-4.1-.5-.4-1.2-.7-1.9-.7zm2.5 5.1z" class="st2"/>
  </g>
</svg>
