<?xml version="1.0" encoding="utf-8"?>
<!-- Generator: Adobe Illustrator 20.0.0, SVG Export Plug-In . SVG Version: 6.00 Build 0)  -->
<svg version="1.2" baseProfile="tiny" id="Layer_1" xmlns="http://www.w3.org/2000/svg" xmlns:xlink="http://www.w3.org/1999/xlink"
	 x="0px" y="0px" viewBox="0 0 70.3 67.3" xml:space="preserve">
<g>
	<path fill="none" stroke="#000000" stroke-width="0.9" stroke-linecap="round" stroke-linejoin="round" stroke-miterlimit="10" d="
		M14.1,21.7c1.9-3,4.5-5.5,7.5-7.4c3.8-2.4,8.3-3.7,13.1-3.7c4.6,0,8.9,1.3,12.5,3.6c3.1,1.9,5.8,4.5,7.8,7.6"/>
	<path fill="none" stroke="#000000" stroke-width="0.9" stroke-linecap="round" stroke-linejoin="round" stroke-miterlimit="10" d="
		M55.6,47.6c-4.3,7.2-12.2,11.9-21.2,11.9c-8.9-0.1-16.6-4.9-20.9-12"/>
	<g>
		<g>
			<path d="M66.8,25c0.7,0,1.1,0.7,0.8,1.3l-4.5,8.1c-0.1,0.2-0.1,0.4,0,0.6l4.5,8.1c0.3,0.6-0.1,1.3-0.8,1.3H3.2
				c-0.7,0-1.1-0.7-0.8-1.3L7,35c0.1-0.2,0.1-0.4,0-0.6l-4.5-8.1C2.1,25.7,2.5,25,3.2,25H66.8 M66.8,24.1H3.2
				c-0.6,0-1.2,0.3-1.6,0.9c-0.3,0.6-0.3,1.2,0,1.8l4.5,8l-4.5,8c-0.3,0.6-0.3,1.2,0,1.8s0.9,0.9,1.6,0.9h63.6
				c0.6,0,1.2-0.3,1.6-0.9c0.3-0.6,0.3-1.2,0-1.8l-4.5-8l4.5-8c0.3-0.6,0.3-1.2,0-1.8C68.1,24.4,67.5,24.1,66.8,24.1L66.8,24.1z"/>
		</g>
	</g>
	<g>
		<path fill="#76C500" d="M6.8,26.8c-0.7,0-1.2,0.8-0.8,1.5l3.2,5.8c0.2,0.3,0.2,0.9,0,1.2L6,41.2c-0.3,0.7,0.1,1.5,0.8,1.5h56.4
			c0.7,0,1.2-0.8,0.8-1.5l-3.2-5.8c-0.2-0.3-0.2-0.9,0-1.2l3.2-5.8c0.3-0.7-0.1-1.5-0.8-1.5H6.8z"/>
	</g>
	<g>
		<path fill="#FFFFFF" d="M14.9,32.1h1.6c1.6,0,2.3,0.5,2.3,1.4c0,0.6-0.3,0.9-0.8,1.1v0c0.7,0.2,1,0.7,1,1.3c0,1-0.8,1.6-2.5,1.6
			h-1.6V32.1z M16.7,34.3c0.5,0,0.8-0.2,0.8-0.6s-0.3-0.6-1.1-0.6h-0.4v1.2H16.7z M16.5,36.5c1,0,1.2-0.2,1.2-0.7
			c0-0.5-0.3-0.7-1-0.7h-0.7v1.3H16.5z"/>
		<path fill="#FFFFFF" d="M20.6,32.1h1.6c1.3,0,2.5,0.4,2.5,1.7c0,1.3-0.9,1.8-2.5,1.8h-0.4v1.9h-1.2V32.1z M22.2,34.6
			c1,0,1.3-0.2,1.3-0.7c0-0.6-0.4-0.8-1.3-0.8h-0.4v1.5H22.2z"/>
		<path fill="#FFFFFF" d="M27.7,32.1h1.2l2.2,5.4h-1.3l-0.4-1.1h-2.2l-0.4,1.1h-1.2L27.7,32.1z M27.6,35.4H29l-0.2-0.6
			c-0.2-0.4-0.4-1-0.5-1.4h0c-0.1,0.4-0.3,1-0.5,1.4L27.6,35.4z"/>
		<path fill="#FFFFFF" d="M35.2,32.1h3.4v1h-2.3v1.2h1.9v1h-1.9v2.2h-1.2V32.1z"/>
		<path fill="#FFFFFF" d="M40.3,32.1h1.7c1.2,0,2.3,0.3,2.3,1.6c0,0.7-0.4,1.3-1.1,1.5l1.5,2.3h-1.4l-1.4-2.1h-0.5v2.1h-1.2V32.1z
			 M42.1,34.5c0.7,0,1.1-0.2,1.1-0.7c0-0.5-0.3-0.7-1.2-0.7h-0.5v1.4H42.1z"/>
		<path fill="#FFFFFF" d="M46.2,32.1h3.4v1h-2.2v1.1h1.9v1h-1.9v1.3h2.2v1h-3.4V32.1z"/>
		<path fill="#FFFFFF" d="M51.3,32.1h3.4v1h-2.2v1.1h1.9v1h-1.9v1.3h2.2v1h-3.4V32.1z"/>
	</g>
</g>
</svg>
