<?xml version="1.0" encoding="utf-8"?>
<!-- Generator: Adobe Illustrator 21.0.2, SVG Export Plug-In . SVG Version: 6.00 Build 0)  -->
<svg version="1.1" id="Layer_1" xmlns="http://www.w3.org/2000/svg" xmlns:xlink="http://www.w3.org/1999/xlink" x="0px" y="0px"
	 viewBox="0 0 44 40" style="enable-background:new 0 0 44 40;" xml:space="preserve">
<style type="text/css">
	.st0{fill:#F3757E;}
</style>
<path id="Fill-1" class="st0" d="M24.6,7.3l-0.3,0.5c-0.5,0.8-1.4,1.3-2.3,1.3c-1,0-1.8-0.5-2.3-1.3l-0.2-0.4
	c-1.3-2.2-4.1-3.6-7.2-3.6c-1.4,0-2.9,0.3-4.1,0.9C6.3,5.5,5,7,4.3,9c-0.9,2.5-0.7,5.3,0.4,7.7C6.7,21.1,15.2,29.6,22,35.6
	c5.6-5,15.2-14.3,17.4-19c1.1-2.3,1.2-5.2,0.4-7.7c-0.7-2-2.1-3.6-3.8-4.4h0c-1.3-0.6-2.7-0.9-4.1-0.9C28.7,3.7,25.9,5.1,24.6,7.3"
	/>
<g id="Stroke-3">
	<path d="M22,40c-0.4,0-0.8-0.1-1.1-0.4C19.2,38.1,4.6,25.2,1.3,18.3c-1.5-3.2-1.7-7.1-0.5-10.5c1.1-2.9,3.1-5.2,5.7-6.5
		C8.2,0.5,10.2,0,12.2,0c4,0,7.7,1.7,9.8,4.5C24.1,1.8,27.8,0,31.8,0c2,0,4,0.4,5.7,1.3c2.6,1.2,4.6,3.5,5.7,6.5
		c1.2,3.4,1,7.3-0.5,10.5c-3.3,6.9-17.9,19.8-19.5,21.3c-0.3,0.2-0.6,0.4-1,0.5C22.1,40,22,40,22,40z M22.2,38.1
		C22.2,38.1,22.2,38.1,22.2,38.1C22.2,38.1,22.2,38.1,22.2,38.1z M21.8,38C21.8,38,21.8,38.1,21.8,38C21.8,38.1,21.8,38,21.8,38z
		 M12.2,2c-1.7,0-3.4,0.4-4.9,1.1C5.2,4.1,3.5,6,2.7,8.5c-1,2.9-0.9,6.2,0.4,9C6.1,23.8,20,36.2,22,37.9
		c1.8-1.6,15.9-14.2,18.9-20.5c1.3-2.7,1.5-6.1,0.4-9l0,0c-0.9-2.4-2.5-4.3-4.7-5.3C35.2,2.4,33.5,2,31.8,2c-3.7,0-7.1,1.8-8.7,4.5
		l-0.3,0.4c-0.4,0.6-1.4,0.6-1.7,0l-0.2-0.4C19.3,3.8,15.9,2,12.2,2z"/>
</g>
</svg>
