<?xml version="1.0" encoding="utf-8"?>
<!-- Generator: Adobe Illustrator 19.2.1, SVG Export Plug-In . SVG Version: 6.00 Build 0)  -->
<svg version="1.1" xmlns="http://www.w3.org/2000/svg" xmlns:xlink="http://www.w3.org/1999/xlink" x="0px" y="0px"
	 viewBox="0 0 42 42" enable-background="new 0 0 42 42" xml:space="preserve">
<path d="M30.8,17.3c-0.2,0-0.3,0.1-0.3,0.3c0,0.1,0.1,0.3,0.2,0.3c1.1,0.3,2,1,2.5,2c1,2.1,1.1,4.6,0.3,6.8
	c-0.7,1.7-1.6,3.3-2.8,4.8c0,0.3,0,0.6,0,0.9c0.1,0,0.2,0,0.2-0.1c1.4-1.6,2.5-3.4,3.2-5.3c0.9-2.4,0.8-5-0.3-7.3
	C33.1,18.5,32,17.6,30.8,17.3z"/>
<path d="M30.8,28.2c1.1-1.3,1.8-3,1.8-4.8c0-1.1-0.4-2.1-1.2-2.9c-0.2-0.1-0.4-0.1-0.5,0.1c-0.1,0.1-0.1,0.3,0,0.4
	c0.6,0.6,1,1.5,1,2.4c0,1.4-0.5,2.8-1.3,4c0,0.3,0,0.6,0,0.9C30.7,28.3,30.8,28.3,30.8,28.2z"/>
<path d="M30.3,31.8c-0.1,0.1-0.1,0.3,0,0.5c0.1,0.1,0.1,0.1,0.2,0.1l0,0c0-0.3,0-0.6,0-0.9L30.3,31.8z"/>
<path d="M30.3,28.2c0.1,0.1,0.1,0.1,0.2,0.1c0,0,0.1,0,0.1,0c0-0.3,0-0.6,0-0.9c-0.2,0.2-0.3,0.4-0.3,0.4
	C30.2,27.9,30.2,28.1,30.3,28.2z"/>
<path d="M26.4,15.7c-0.2,0-0.3,0.1-0.4,0.3c0,0,0,0,0,0c-1.3,16.1-11.6,18.2-11.6,18.2c-0.2,0-0.3,0.2-0.2,0.4
	c0,0.1,0.2,0.2,0.3,0.3h0.1c2.1-0.5,4-1.6,5.6-3.1c2.6-2.4,5.9-7,6.6-15.7C26.7,15.9,26.5,15.7,26.4,15.7z"/>
<path fill="#76C500" d="M32.2,7.8l1.2-1.2c0.2-0.2,0.2-0.5,0-0.7c-0.2-0.2-0.5-0.2-0.7,0l-1.2,1.2l-1.2-1.2
	c-0.2-0.2-0.5-0.2-0.7-0.1s-0.2,0.5-0.1,0.7c0,0,0,0,0.1,0.1l1.2,1.2L29.6,9c-0.2,0.2-0.2,0.5,0,0.7c0.2,0.2,0.5,0.2,0.7,0l1.2-1.2
	l1.2,1.2c0.2,0.2,0.5,0.2,0.7,0c0.2-0.2,0.2-0.5,0-0.7l0,0L32.2,7.8z"/>
<path fill="#76C500" d="M36.8,14.8l0.5-0.5c0.2-0.2,0.2-0.5,0-0.7c-0.2-0.2-0.5-0.2-0.7,0l-0.5,0.5l-0.5-0.5
	c-0.2-0.2-0.5-0.2-0.7-0.1c-0.2,0.2-0.2,0.5-0.1,0.7c0,0,0,0,0.1,0.1l0.5,0.5l-0.5,0.5c-0.2,0.2-0.2,0.5,0,0.7
	c0.2,0.2,0.5,0.2,0.7,0l0.5-0.5l0.5,0.5c0.2,0.2,0.5,0.2,0.7,0.1c0.2-0.2,0.2-0.5,0.1-0.7c0,0,0,0-0.1-0.1L36.8,14.8z"/>
<path fill="#76C500" d="M20.1,19l0.5-0.5c0.2-0.2,0.2-0.5,0-0.7c-0.2-0.2-0.5-0.2-0.7,0l-0.5,0.5l-0.5-0.5c-0.2-0.2-0.5-0.2-0.7-0.1
	c-0.2,0.2-0.2,0.5-0.1,0.7c0,0,0,0,0.1,0.1l0.5,0.5l-0.5,0.5c-0.2,0.2-0.2,0.5,0,0.7c0.2,0.2,0.5,0.2,0.7,0l0,0l0.5-0.5l0.5,0.5
	c0.2,0.2,0.5,0.2,0.7,0.1c0.2-0.2,0.2-0.5,0.1-0.7c0,0,0,0-0.1-0.1L20.1,19z"/>
<path fill="#76C500" d="M26.2,32l1-1c0.2-0.2,0.2-0.5,0-0.7c-0.2-0.2-0.5-0.2-0.7,0l-1,1l-1-1c-0.2-0.2-0.5-0.2-0.7-0.1
	c-0.2,0.2-0.2,0.5-0.1,0.7c0,0,0,0,0.1,0.1l1,1l-1,1c-0.2,0.2-0.2,0.5,0,0.7c0.2,0.2,0.5,0.2,0.7,0l1-1l1,1c0.1,0.2,0.5,0.3,0.7,0.2
	c0.2-0.1,0.3-0.5,0.2-0.7c0-0.1-0.1-0.1-0.2-0.2L26.2,32z"/>
<path d="M30.6,31.4c0-1,0-2.1,0-3.2c0,0-0.1,0-0.1,0c-0.2,0-0.3-0.2-0.3-0.3c0-0.1,0-0.1,0.1-0.2c0,0,0.1-0.2,0.3-0.4
	c-0.1-5.3-0.6-10.6-2-14.2c-0.1-0.3-0.4-1.1-4.6-1.4c-0.2,0-0.4-0.2-0.4-0.5V5.4c0-0.2-0.2-0.3-0.3-0.3l0,0c-0.2,0-0.3,0.2-0.3,0.3
	v5.9c0,0.6,0.4,1,1,1.1c2.9,0.2,3.9,0.7,4,1c2.1,5.5,2.2,15,1.7,22.1c0,0.1-0.1,0.2-0.1,0.3c-0.6,0.5-2.9,2.3-9,2.3
	c-6.3,0-8.4-1.2-8.9-1.5c0.1-2.1,0.3-5.9,0.4-8.6c0-0.2-0.1-0.3-0.3-0.3c0,0,0,0,0,0c-0.2,0-0.3,0.1-0.3,0.3c0,0,0,0,0,0
	c-0.1,2.6-0.4,6.4-0.4,8.6v0.2c0,0.8-0.1,1.3-0.1,1.3c0,0.4,0.1,0.8,0.4,1.1c1.2,1.2,4.5,1.8,9.8,1.8c3.1,0,8.3-0.8,9.1-2.8
	c0-0.2-0.1-0.4-0.3-0.4c-0.1,0-0.3,0-0.4,0.2c-0.6,1.5-4.9,2.4-8.5,2.4c-6.8,0-8.7-1-9.3-1.5c-0.2-0.2-0.3-0.4-0.2-0.7
	c0,0,0-0.3,0-0.8c1,0.6,3.4,1.5,8.9,1.5c6.1,0,8.6-1.7,9.4-2.5c0.2-0.2,0.3-0.5,0.4-0.7c0.1-1,0.1-2.1,0.2-3.3l0,0
	c-0.2,0-0.3-0.2-0.3-0.3c0-0.1,0-0.2,0.1-0.2L30.6,31.4z"/>
<path d="M13.7,25.2c1.5,0.2,3,0.3,4.5,0.3c1.2,0,2.3-0.1,3.5-0.3c1.2-0.3,2.4-4.6,2.8-6c0-0.2-0.1-0.4-0.2-0.4c-0.2,0-0.3,0-0.4,0.2
	c0,0,0,0,0,0c-0.7,2.5-1.7,5.3-2.3,5.5c-2.1,0.6-6,0.2-7.1,0.1l1.3-1.1c0.2-0.2,0.4-0.5,0.4-0.8c0.1-0.9-0.3-1.8-1.1-2.4
	c-0.8-0.7-2-0.7-2.8,0L10,22.5l-1.9-0.2c0.1-0.1,0.1-0.3,0.2-0.5c0.1-0.2,0.3-0.3,0.5-0.3l1.2,0.1c0.6,0,1.2-0.4,1.2-1
	c0,0,0-0.1,0-0.1L11,14.4c1.9,0.9,6.7,1,6.8,1c5.9,0,7.3-0.7,7.4-0.8c0.2-0.1,0.2-0.3,0.1-0.5C25.2,14,25,13.9,24.8,14
	c0,0-1.4,0.7-7.1,0.7c-3.4,0-6.3-0.6-6.7-1c1-0.4,2-0.7,3-0.8h0.3c1.6-0.2,3.2-0.3,4.8-0.4c0.6,0,1.1-0.5,1.1-1.2V5.4
	c0-0.2-0.1-0.4-0.3-0.4c-0.2,0-0.4,0.1-0.4,0.3c0,0,0,0.1,0,0.1v5.8c0,0.2-0.2,0.4-0.4,0.4c-1.6,0-3.3,0.2-4.9,0.4h-0.3
	c-2.5,0.4-3.7,0.8-3.7,1.5c0,0.1,0,0.1,0.1,0.2l0.3,6.8c0,0.1,0,0.3-0.1,0.4C10.3,21,10.1,21,10,21l-1.2-0.1c-0.5,0-0.9,0.2-1.1,0.7
	c-0.1,0.3-0.2,0.5-0.4,0.8l0,0c0,0-0.1,0.1-0.1,0.1C7,22.9,7,23.3,7.1,23.7c0,0.2,0.1,0.4,0.3,0.5c0.4,0.1,0.8,0.2,1.2,0.2
	c0,0.3,0.1,0.5,0.2,0.8c0.2,0.5,0.7,1,1.2,1.2c0.4,0.2,0.8,0.3,1.2,0.3c0.6,0,1.1-0.2,1.5-0.7L13.7,25.2z M12.6,20.9
	c0.2-0.2,0.6-0.4,0.9-0.4c0.4,0,0.7,0.2,1,0.4c0.6,0.4,0.9,1.1,0.9,1.9c0,0.1-0.1,0.2-0.2,0.3L13,25c0-0.2-0.1-0.5-0.2-0.7
	c-0.2-0.5-0.7-1-1.2-1.2c-0.3-0.2-0.7-0.3-1-0.3L12.6,20.9z M9.4,23.9c0.1-0.2,0.3-0.3,0.5-0.4c0.2-0.1,0.3-0.1,0.5-0.1
	c0.3,0,0.6,0.1,0.9,0.2c0.4,0.2,0.7,0.5,0.9,0.9c0.2,0.3,0.2,0.7,0,1l0,0c-0.1,0.2-0.4,0.4-0.6,0.5c-0.5,0.1-1,0.1-1.4-0.1
	c-0.4-0.2-0.7-0.5-0.9-0.9c-0.1-0.1-0.1-0.3-0.1-0.5c0-0.1,0-0.2,0.1-0.3c0-0.1,0-0.1,0-0.2C9.3,24,9.3,24,9.4,23.9L9.4,23.9z
	 M9.3,23.1c-0.2,0.2-0.4,0.4-0.6,0.6c0,0,0,0.1,0,0.1l-1-0.1c0-0.2,0-0.5,0-0.7L9.3,23.1z"/>
<path d="M26.4,1.7c-0.2-0.2-0.5-0.4-0.8-0.4H13.4c-0.3,0-0.7,0.1-0.9,0.4c-0.2,0.3-0.3,0.6-0.2,0.9c0.1,0.5,0.3,0.9,0.6,1.2
	c0.5,0.5,2.5,0.8,6.4,0.8h1.1H22c1.2,0.1,2.4,0,3.6-0.3c0.6-0.4,1-1,1-1.7C26.7,2.3,26.6,2,26.4,1.7z M25.4,3.7
	C24.6,4.1,22,4,20.4,4h-1.2c-4.4,0-5.6-0.3-5.9-0.6c-0.2-0.2-0.4-0.5-0.5-0.9c0-0.1,0-0.3,0.1-0.4C13.1,2.1,13.2,2,13.4,2h12.2
	C25.8,2,26,2.2,26,2.5c0,0,0,0,0,0.1C26,3,25.8,3.5,25.4,3.7L25.4,3.7z"/>
</svg>
