<svg xmlns="http://www.w3.org/2000/svg" viewBox="0 0 140 700.5">
  <style>
    .st0{fill:#F3757E;} .st1{fill:#F0F5D3;} .st2{fill:#231F20;} .st3{fill:none;stroke:#231F20;stroke-width:1.0322;stroke-linecap:round;stroke-linejoin:round;stroke-miterlimit:10;} .st4{fill:#25966C;} .st5{fill:#FFFFFF;} .st6{fill:#FFE373;} .st7{fill:#F89E5C;} .st8{fill:#FFFFFF;stroke:#FFFFFF;stroke-width:3.225;stroke-linecap:round;stroke-linejoin:round;stroke-miterlimit:10;} .st9{fill:none;stroke:#F89E5C;stroke-width:2.1339;stroke-linejoin:round;stroke-miterlimit:10;} .st10{fill:none;stroke:#000000;stroke-width:1.3438;stroke-linecap:round;stroke-linejoin:round;stroke-miterlimit:10;} .st11{fill:#F3757E;stroke:#FFFFFF;stroke-width:3.225;stroke-linejoin:round;stroke-miterlimit:10;} .st12{fill:#C4454D;} .st13{fill:#FFCF64;}
  </style>
  <g id="All_Ingredients">
    <path d="M111.5 586.4l9.3 1.4 3.4 8.9-13.5 3.1z" class="st0"/>
    <path d="M112.1 587.1l8.2 1.2 3 7.9-11.9 2.7.7-11.8m-1.3-1.5l-.8 15.1 15.2-3.4-3.9-10.1-10.5-1.6z" class="st1"/>
    <path d="M110 601.2c-.1 0-.2 0-.3-.1-.1-.1-.2-.3-.2-.4l.8-15.1c0-.1.1-.3.2-.4s.3-.1.4-.1l10.4 1.6c.2 0 .3.2.4.3l3.9 10.1c.1.1 0 .3 0 .4s-.2.2-.3.3l-15.2 3.4h-.1zm1.4-15.1l-.8 13.8 13.9-3.2-3.5-9.2-9.6-1.4z" class="st2"/>
    <path d="M106.7 621.4c-3.7 0-7.2-1.2-10.1-3.6-4.3-3.4-6.5-8.7-6-14.2 5.7-5.8 12.6-8.8 20.5-8.8 8.6 0 15.8 3.6 17.4 4.5-.2 3.3-1.5 6.4-3.5 8.9l-5.7 7.1c-3 3.9-7.6 6.1-12.6 6.1z" class="st0"/>
    <path d="M111.1 595.5c7.9 0 14.6 3.1 16.7 4.2-.3 3-1.4 5.8-3.3 8.1l-5.7 7.1c-3 3.7-7.4 5.8-12.1 5.8-3.6 0-6.9-1.2-9.7-3.4-4.1-3.3-6.2-8.2-5.7-13.4 5.5-5.6 12.2-8.4 19.8-8.4m0-1.3c-6.7 0-14.4 2.1-21.2 9.2-.6 5.5 1.5 11.3 6.2 15 3.1 2.5 6.8 3.7 10.5 3.7 4.9 0 9.8-2.2 13.2-6.3l5.7-7.1c2.3-2.9 3.5-6.3 3.7-9.7.1-.1-7.9-4.8-18.1-4.8z" class="st1"/>
    <path d="M106.7 622.6c-3.9 0-7.7-1.3-10.8-3.8-4.7-3.8-7.1-9.5-6.4-15.5 0-.1.1-.2.1-.3 17.1-17.7 39.7-4.6 39.9-4.5.2.1.3.3.3.5-.2 3.7-1.5 7.2-3.8 10l-5.7 7.1c-2.9 3.6-7 5.9-11.7 6.4-.6.1-1.3.1-1.9.1zm-16.2-19c-.6 5.5 1.7 10.9 6 14.4 3.4 2.7 7.7 4 12 3.5s8.2-2.6 11-6l5.7-7.1c2.1-2.6 3.3-5.8 3.6-9.1-2.6-1.5-22.8-11.7-38.3 4.3z" class="st2"/>
    <path d="M106.7 621.4c-3.7 0-7.2-1.2-10.1-3.6-7-5.6-8.1-15.8-2.5-22.8l5.7-7.1c2.1-2.6 4.8-4.4 8-5.4 2.1 2.5 15.9 19.7 4 38-1.7.7-3.4.9-5.1.9z" class="st0"/>
    <path d="M107.6 583.4c1.2 1.5 4.3 5.5 6.4 11 3.4 9.1 2.5 17.7-2.6 25.6-1.5.5-3 .7-4.6.7-3.6 0-6.9-1.2-9.7-3.4-3.2-2.6-5.3-6.3-5.7-10.4-.4-4.1.7-8.2 3.3-11.4l5.7-7.1c1.8-2.3 4.3-4.1 7.2-5m.4-1.5c-3.3.9-6.4 2.8-8.7 5.7l-5.7 7.1c-5.8 7.3-4.7 17.9 2.6 23.7 3.1 2.5 6.8 3.7 10.5 3.7 1.9 0 3.7-.3 5.5-.9 13.6-20.4-4.2-39.3-4.2-39.3z" class="st1"/>
    <path d="M106.7 622.6c-3.9 0-7.7-1.3-10.9-3.8-7.5-6-8.7-17-2.7-24.4l5.7-7.1c2.3-2.9 5.4-4.9 9-5.9.2 0 .4 0 .5.1.2.2 17.9 19.5 4.2 40-.1.1-.2.2-.3.2-1.7.6-3.6.9-5.5.9zm1.2-40.1c-3.2.9-6 2.8-8.1 5.5l-5.8 7c-5.6 7-4.5 17.3 2.5 23 4.3 3.5 10.1 4.5 15.4 2.8 12.2-18.6-2.1-36.1-4-38.3zm4.3 38.7z" class="st2"/>
    <path d="M93.7 617s-23.6 19.1-47.3 56.6" class="st3"/>
    <path d="M94.4 650.8c-11.5 0-19-10-20.6-12.4 6-4.7 11.9-7.1 17.5-7.1 11.5 0 18.8 10.1 20.4 12.4-5.8 4.7-11.7 7.1-17.3 7.1z" class="st4"/>
    <path d="M91.3 631.9c10.5 0 17.4 8.7 19.5 11.6-5.6 4.4-11.1 6.6-16.4 6.6-10.5 0-17.6-8.6-19.7-11.6 5.7-4.3 11.3-6.6 16.6-6.6m0-1.3c-5.3 0-11.5 2-18.4 7.7 0 0 8 13.2 21.5 13.2 5.3 0 11.4-2 18.2-7.6 0-.1-7.7-13.3-21.3-13.3z" class="st1"/>
    <path d="M94.4 652c-1.2 0-2.4-.1-3.6-.3-11.5-2-18.1-12.7-18.4-13.2-.1-.2-.1-.5.1-.7 7.7-6.3 15.3-8.8 22.5-7.4 11.4 2.1 17.7 12.7 17.9 13.2.1.2.1.5-.1.7-6.2 5.1-12.4 7.7-18.4 7.7zm-20.9-13.6c1.3 1.9 7.6 10.6 17.5 12.3 6.7 1.2 13.8-1.2 20.9-6.9-1.2-1.9-7.3-10.5-17-12.3-6.8-1.3-14 1.1-21.4 6.9z" class="st2"/>
    <path d="M76.8 632.7c-5.6-4.1-8.7-8.7-9.2-13.9-.7-7.3 4-13.5 5.4-15.2 5.7 4.2 8.8 9 9.2 14.2.7 7.3-4 13.3-5.4 14.9z" class="st4"/>
    <path d="M73.2 604.5c5.2 4 8 8.5 8.5 13.3.6 6.4-3.3 11.9-4.9 13.9-5.1-3.9-7.9-8.2-8.4-13-.8-6.4 3.1-12.1 4.8-14.2m-.3-1.8s-16 16.8 3.9 30.9c.1 0 16.2-16.5-3.9-30.9z" class="st1"/>
    <path d="M76.8 634.1c-.1 0-.2 0-.3-.1-6.2-4.4-9.6-9.4-10.1-15.1-.9-9.1 5.8-16.3 6.1-16.6.2-.2.5-.2.7-.1 6.3 4.5 9.7 9.7 10.2 15.5.8 9-5.9 15.9-6.2 16.2-.1.1-.2.2-.4.2zM73 603.4c-1.3 1.5-6.3 7.9-5.6 15.4.5 5.2 3.7 10 9.3 14.1 1.3-1.5 6.3-7.6 5.6-15.1-.4-5.3-3.5-10.2-9.3-14.4z" class="st2"/>
    <path d="M35.4 627.9c-.6-2.4.5-4.9 2.6-5.9.8-.4 1.6-.6 2.4-.6 1.1 0 2.2.4 3.1 1 1.6 1.2 2.4 3.3 1.9 5.5l-5 20.9-5-20.9z" class="st5"/>
    <path d="M40.4 622.1c1 0 1.9.3 2.7.9 1.4 1 2 2.9 1.6 4.7l-4.3 18-4.3-17.9c-.5-2.1.4-4.2 2.2-5.1.6-.4 1.4-.6 2.1-.6m0-1.4c-1 0-1.9.2-2.8.7-2.4 1.3-3.6 4.1-2.9 6.8l5.8 23.8 5.6-23.8c.5-2.3-.2-4.8-2.1-6.2-1-.9-2.3-1.3-3.6-1.3z" class="st1"/>
    <path d="M40.4 679.3c-1.1 0-2.2-.4-3.1-1-1.6-1.2-2.4-3.3-1.9-5.5l5-20.9 5 20.8c.6 2.4-.5 4.9-2.6 5.9-.7.5-1.5.7-2.4.7z" class="st5"/>
    <path d="M40.4 655l4.3 17.9c.5 2.1-.4 4.2-2.2 5.1-.7.3-1.4.5-2.1.5-1 0-1.9-.3-2.7-.9-1.4-1-2-2.9-1.6-4.7l4.3-17.9m0-6.2l-5.6 23.8c-.5 2.3.2 4.8 2.1 6.2 1 .7 2.2 1.2 3.6 1.2 1 0 1.9-.2 2.8-.7 2.4-1.3 3.6-4.1 2.9-6.8l-5.8-23.7z" class="st1"/>
    <path d="M64.2 655.5c-.4 0-.9-.1-1.3-.2l-20.9-5 20.8-5c.4-.1.9-.2 1.3-.2 2 0 3.8 1 4.6 2.7.4.8.6 1.6.6 2.4 0 1.1-.4 2.2-1 3.1-.9 1.4-2.5 2.2-4.1 2.2z" class="st5"/>
    <path d="M64.1 645.9c1.7 0 3.3.9 4 2.3.3.7.5 1.4.5 2.1 0 1-.3 1.9-.9 2.7-.8 1.1-2.1 1.7-3.6 1.7-.4 0-.8 0-1.1-.1l-18-4.3 18-4.3c.3 0 .7-.1 1.1-.1m0-1.4c-.5 0-1 .1-1.5.2l-23.8 5.8 23.8 5.6c.5.1 1 .2 1.5.2 1.8 0 3.6-.8 4.7-2.3.7-1 1.2-2.2 1.2-3.6 0-1-.2-1.9-.7-2.8-.9-2-3-3.1-5.2-3.1z" class="st1"/>
    <path d="M16.7 655.5c-2 0-3.8-1-4.6-2.7-.4-.8-.6-1.6-.6-2.4 0-1.1.4-2.2 1-3.1.9-1.3 2.5-2 4.2-2 .4 0 .9.1 1.3.2l20.9 5-20.8 5c-.5-.1-1 0-1.4 0z" class="st5"/>
    <path d="M16.7 645.9c.4 0 .8 0 1.1.1l18 4.3-17.9 4.3c-.4.1-.8.1-1.1.1-1.7 0-3.3-.9-4-2.3-.3-.7-.5-1.4-.5-2.1 0-1 .3-1.9.9-2.7.7-1 2-1.7 3.5-1.7m0-1.4c-1.8 0-3.6.8-4.7 2.3-.7 1-1.2 2.2-1.2 3.6 0 1 .2 1.9.7 2.8 1 2 3.1 3.1 5.3 3.1.5 0 1-.1 1.5-.2l23.8-5.8-23.8-5.6c-.7-.2-1.2-.2-1.6-.2z" class="st1"/>
    <path d="M57 672.3c-1.8 0-3.5-1-4.5-2.6l-11.3-18.3 18.3 11.2c2.1 1.3 3.1 3.8 2.4 6-.3.8-.7 1.5-1.3 2.1-.8.8-1.8 1.3-2.9 1.5-.2.1-.4.1-.7.1z" class="st5"/>
    <path d="M43.5 653.6l15.8 9.6c1.8 1.1 2.7 3.3 2.1 5.2-.2.7-.6 1.3-1.1 1.9-.7.7-1.6 1.1-2.5 1.3h-.6c-1.5 0-3-.9-3.9-2.2l-9.8-15.8m-4.4-4.4L51.9 670c1.1 1.8 3 2.9 5.1 2.9.3 0 .6 0 .8-.1 1.2-.2 2.4-.8 3.3-1.7.7-.7 1.2-1.5 1.5-2.4.8-2.6-.4-5.4-2.7-6.8l-20.8-12.7z" class="st1"/>
    <path d="M20.8 638c-2.1-1.3-3.1-3.8-2.4-6 .3-.8.7-1.5 1.3-2.1.8-.8 1.8-1.3 2.9-1.5.2 0 .5-.1.7-.1 1.8 0 3.5 1 4.5 2.6l11.3 18.3L20.8 638z" class="st5"/>
    <path d="M23.4 629c1.5 0 3 .9 3.9 2.2L37 647l-15.8-9.6c-1.8-1.1-2.7-3.3-2.1-5.2.2-.7.6-1.3 1.1-1.9.7-.7 1.6-1.1 2.5-1.3h.7m0-1.4c-.3 0-.6 0-.8.1-1.2.2-2.4.8-3.3 1.7-.7.7-1.2 1.5-1.5 2.4-.8 2.6.4 5.4 2.7 6.8l20.9 12.7-12.8-20.8c-1.2-1.8-3.1-2.9-5.2-2.9z" class="st1"/>
    <path d="M23.6 672.2c-.5 0-1-.1-1.5-.2-.8-.3-1.5-.7-2.1-1.3-.8-.8-1.3-1.8-1.5-2.9-.3-2 .7-4 2.5-5.2l18.3-11.3-11.2 18.3c-1 1.6-2.7 2.6-4.5 2.6z" class="st5"/>
    <path d="M37.1 653.4l-9.6 15.8c-.9 1.4-2.4 2.3-3.9 2.3-.4 0-.8-.1-1.2-.2-.7-.2-1.3-.6-1.9-1.1-.7-.7-1.1-1.6-1.3-2.5-.3-1.7.6-3.5 2.2-4.5l15.7-9.8m4.4-4.3l-20.8 12.8c-2 1.2-3.2 3.6-2.9 5.9.2 1.2.8 2.4 1.7 3.3.7.7 1.5 1.2 2.4 1.5.6.2 1.1.3 1.7.3 2.1 0 4-1.1 5.2-3l12.7-20.8z" class="st1"/>
    <path d="M52.7 630.8c1-1.6 2.7-2.6 4.6-2.6.5 0 1 .1 1.5.2.8.3 1.5.7 2.1 1.3.8.8 1.3 1.8 1.5 2.9.3 2-.7 4-2.5 5.2l-18.3 11.3 11.1-18.3z" class="st5"/>
    <path d="M57.3 628.9c.4 0 .8.1 1.2.2.7.2 1.3.6 1.9 1.1.7.7 1.1 1.6 1.3 2.5.3 1.7-.6 3.5-2.2 4.5l-15.7 9.7 9.6-15.8c.8-1.3 2.3-2.2 3.9-2.2m0-1.4c-2.1 0-4 1.1-5.2 3l-12.7 20.9 20.8-12.8c2-1.2 3.2-3.6 2.9-5.9-.2-1.2-.8-2.4-1.7-3.3-.7-.7-1.5-1.2-2.4-1.5-.6-.4-1.1-.4-1.7-.4z" class="st1"/>
    <path d="M40.5 652.4c-.3 0-.5-.2-.5-.4l-5.8-23.8c-.7-3 .6-6 3.2-7.4 2.2-1.1 4.9-.9 6.9.5 2.1 1.5 3 4.2 2.4 6.8L41 652c-.1.2-.3.4-.5.4zm-.1-31.2c-.9 0-1.7.2-2.5.6-2.1 1.1-3.2 3.7-2.6 6.1l5.2 21.5 5.1-21.6c.5-2.2-.2-4.4-1.9-5.6-1-.6-2.1-1-3.3-1z" class="st2"/>
    <path d="M40.4 680.5c-1.4 0-2.8-.4-3.9-1.3-2.1-1.5-3-4.2-2.4-6.8l5.6-23.8c.1-.2.3-.4.5-.4.3 0 .5.2.5.4l5.8 23.8c.7 3-.6 6-3.2 7.4-.8.5-1.8.7-2.9.7zm0-29.3l-5.1 21.6c-.5 2.2.2 4.4 1.9 5.6 1.6 1.2 3.9 1.4 5.8.4 2.1-1.1 3.2-3.7 2.6-6.1l-5.2-21.5z" class="st2"/>
    <path d="M64.2 656.8c-.5 0-1.1-.1-1.6-.2L38.8 651c-.2-.1-.4-.3-.4-.5 0-.3.2-.5.4-.5l23.8-5.8c3-.7 6 .6 7.4 3.2.5.9.7 2 .7 3 0 1.4-.4 2.8-1.3 3.9-1.3 1.6-3.2 2.5-5.2 2.5zm-22.9-6.4l21.6 5.1c2.2.5 4.4-.2 5.6-1.9.7-.9 1.1-2.1 1.1-3.2 0-.9-.2-1.7-.6-2.5-1.1-2.1-3.7-3.2-6.1-2.6l-21.6 5.1z" class="st2"/>
    <path d="M16.7 656.8c-2.4 0-4.6-1.3-5.7-3.4-.5-.9-.7-2-.7-3 0-1.4.4-2.8 1.3-3.9 1.5-2.1 4.2-3 6.8-2.4l23.8 5.6c.2.1.4.3.4.5 0 .3-.2.5-.4.5l-23.8 5.8c-.6.2-1.2.3-1.7.3zm-.1-11.8c-1.7 0-3.3.8-4.3 2.1-.7.9-1.1 2.1-1.1 3.2 0 .9.2 1.7.6 2.5 1.1 2.1 3.7 3.2 6.1 2.6l21.5-5.2-21.4-5c-.5-.1-.9-.2-1.4-.2z" class="st2"/>
    <path d="M57 673.6c-2.2 0-4.3-1.2-5.5-3.2l-12.8-20.8c-.1-.2-.1-.5.1-.7.2-.2.5-.2.7-.1l20.9 12.7c2.6 1.6 3.8 4.7 2.9 7.5-.3 1-.9 1.9-1.6 2.7-1 1-2.3 1.6-3.7 1.9-.4-.1-.7 0-1 0zm-16.2-22.7l11.6 18.9c1.2 1.9 3.3 2.9 5.3 2.6 1.2-.2 2.2-.7 3-1.5.6-.6 1.1-1.4 1.3-2.2.7-2.3-.3-4.9-2.5-6.2l-18.7-11.6z" class="st2"/>
    <path d="M41.3 651.9c-.1 0-.2 0-.3-.1l-20.9-12.7c-2.6-1.6-3.8-4.7-2.9-7.5.3-1 .9-1.9 1.6-2.7 1-1 2.3-1.6 3.7-1.9 2.5-.4 5 .8 6.5 3.1L41.8 651c.1.2.1.5-.1.7-.1.1-.2.2-.4.2zm-17.9-23.8c-.3 0-.5 0-.8.1-1.2.2-2.2.7-3 1.5-.6.6-1.1 1.4-1.3 2.2-.7 2.3.3 4.9 2.5 6.2l18.9 11.5L28 630.8c-1-1.7-2.8-2.7-4.6-2.7z" class="st2"/>
    <path d="M23.6 673.5c-.6 0-1.2-.1-1.9-.3-1-.3-1.9-.9-2.7-1.6-1-1-1.6-2.3-1.9-3.7-.4-2.5.8-5 3.1-6.5L41 648.6c.2-.1.5-.1.7.1.2.2.2.5.1.7l-12.7 20.9c-1.1 2-3.3 3.2-5.5 3.2zm16.2-22.8l-18.9 11.6c-1.9 1.2-2.9 3.3-2.6 5.3.2 1.2.7 2.2 1.5 3 .6.6 1.4 1.1 2.2 1.3 2.3.7 4.9-.3 6.2-2.5l11.6-18.7z" class="st2"/>
    <path d="M39.4 651.9c-.1 0-.3-.1-.4-.2-.2-.2-.2-.5-.1-.7l12.7-20.9c1.6-2.6 4.7-3.8 7.5-2.9 1 .3 1.9.9 2.7 1.6 1 1 1.6 2.3 1.9 3.7.4 2.5-.8 5-3.1 6.5l-20.8 12.8c-.2 0-.3.1-.4.1zM57.3 628c-1.8 0-3.7 1-4.7 2.7l-11.5 18.9L59.9 638c1.9-1.2 2.9-3.3 2.6-5.3-.2-1.2-.7-2.2-1.5-3-.6-.6-1.4-1.1-2.2-1.3-.5-.3-1-.4-1.5-.4z" class="st2"/>
    <circle cx="40.4" cy="650.4" r="3" class="st6"/>
    <path d="M40.4 648.1c1.3 0 2.3 1 2.3 2.3s-1 2.3-2.3 2.3-2.3-1-2.3-2.3 1.1-2.3 2.3-2.3m0-1.5c-2.1 0-3.8 1.7-3.8 3.8s1.7 3.8 3.8 3.8 3.8-1.7 3.8-3.8-1.7-3.8-3.8-3.8z" class="st1"/>
    <path d="M40.4 654.7c-2.4 0-4.3-1.9-4.3-4.3s1.9-4.3 4.3-4.3 4.3 1.9 4.3 4.3-1.9 4.3-4.3 4.3zm0-7.5c-1.8 0-3.2 1.4-3.2 3.2s1.4 3.2 3.2 3.2 3.2-1.4 3.2-3.2-1.4-3.2-3.2-3.2z" class="st2"/>
  </g>
  <g id="Grapefruit">
    <path d="M49.4 529.4c-2.5 0-5.1-.2-7.6-.7-11.5-2-21.5-8.4-28.2-17.9-6.7-9.5-9.3-21.1-7.3-32.6 3.7-20.9 21.7-36.1 42.9-36.1 2.5 0 5.1.2 7.6.7 11.5 2 21.5 8.4 28.2 17.9s9.3 21.1 7.3 32.6c-3.6 20.9-21.7 36.1-42.9 36.1z" class="st7"/>
    <path d="M49.3 443c2.5 0 5 .2 7.4.6 11.3 2 21.1 8.2 27.7 17.6s9.1 20.7 7.1 32c-3.6 20.5-21.3 35.5-42.1 35.5-2.5 0-5-.2-7.4-.6-23.3-4.1-38.9-26.3-34.8-49.5 3.5-20.7 21.3-35.6 42.1-35.6m0-1.6c-21.2 0-39.9 15.2-43.7 36.8-4.2 24.2 12 47.2 36.1 51.4 2.6.5 5.2.7 7.7.7 21.2 0 39.9-15.2 43.7-36.8 4.2-24.2-12-47.2-36.1-51.4-2.6-.5-5.2-.7-7.7-.7z" class="st5"/>
    <path d="M49.4 530.9c-2.6 0-5.2-.2-7.8-.7-11.9-2.1-22.2-8.6-29.1-18.5S2.8 489.9 4.9 478c4.3-24.5 27.7-40.9 52.2-36.7 11.9 2.1 22.2 8.6 29.1 18.5s9.6 21.8 7.5 33.7c-3.8 21.9-22.8 37.4-44.3 37.4zM5.6 478.1l.7.1c-2 11.5.6 23.1 7.3 32.7 6.7 9.6 16.8 15.9 28.3 17.9s23.1-.6 32.7-7.3 15.9-16.8 17.9-28.3-.6-23.1-7.3-32.7-16.8-15.9-28.3-17.9c-23.8-4.1-46.5 11.8-50.6 35.6l-.7-.1z"/>
    <path d="M27.2 465.5c-.1 0-.2 0-.3-.1-.3-.2-.5-.6-.3-.9l4.1-7.7c.2-.3.6-.5.9-.3s.5.6.3.9l-4.1 7.7c-.1.2-.4.4-.6.4z"/>
    <path d="M33.1 463.7c-.1 0-.2 0-.3-.1l-7.7-4.1c-.3-.2-.5-.6-.3-.9s.6-.5.9-.3l7.7 4.1c.3.2.5.6.3.9-.2.2-.4.4-.6.4zM50 521.9c-2.1 0-4.1-.2-6.2-.5-.4-.1-.6-.4-.5-.8.1-.4.4-.6.8-.5 18.9 3.3 36.9-9.4 40.2-28.2.1-.4.4-.6.8-.5s.6.4.5.8c-3.2 17.3-18.5 29.7-35.6 29.7z"/>
    <path d="M46.9 478.5c-7.7 22.1 2.5 46.9 24.2 57 23.1 10.7 50.6.7 61.3-22.4.6-1.4 1.2-2.8 1.7-4.2l-87.2-30.4z" class="st8"/>
    <path d="M130.9 509.7c-8.6 21.6-32.8 32.7-54.9 24.9S42 503.1 48.7 481" class="st9"/>
    <path d="M46.9 478.5c-7.7 22.1 2.5 46.9 24.2 57 23.1 10.7 50.6.7 61.3-22.4.6-1.4 1.2-2.8 1.7-4.2l-87.2-30.4z" class="st10"/>
    <path d="M128.2 508.9c-8.1 20.1-30.6 30.4-51.3 23.2S45 502.7 51.2 481.9" class="st11"/>
    <path d="M128.9 507c-7.4 21.3-30.7 32.5-52 25.1s-32.6-30.6-25.1-51.9m38.6 13.4l-13.5 38.5m30.9-2l-17.5-36.3M54 511.3l36.5-17.6" class="st10"/>
  </g>
  <g id="Swiss_Chard">
    <path d="M63.7 389c-.2 0-.3 0-.5-.1-.5-.2-.9-.7-1-1.3-.2-1.4-.8-2.5-1.9-3.4-.8-.7-1.9-1.1-3.3-1.2-.8-.1-1.5-1-1.8-1.5-.2-.4-.4-.8-.4-1.4-.1-1.3-1-2.1-2.5-2.1-.3 0-.5 0-.7.1-.3 0-.6.1-.9.1h-.6c-.8-.1-1.4-.5-1.7-1-.6-.9-.4-2.4-.3-3 .1-.6-.1-1.3-.5-1.7-3.1-2.8-2.6-5.6-2-7 .3-.7.1-1.6-.6-2.1-2.2-1.7-1.5-3.4-.9-4.2.3-.5.6-.9.8-1.3.6-1.3.6-2.5.2-3.5-.7-1.4-2.3-2.1-3.5-2.4-.8-.2-1.4-.5-1.9-1-.9-.8-1.4-1.7-1.4-2.5 0-1.3.9-2.4 1.4-2.8.3-.3.5-.8.6-1.3.1-.7 1-1.2 1.4-1.4.7-.3 1.1-1.1 1.1-1.9-.1-1.1.8-1.6 1.5-1.9.5-.2.9-.6 1.1-1 1.6-3.4 4.9-3.8 6.2-3.8.7 0 1.2-.4 1.5-1 .8-1.6 2-1.8 2.1-1.8h.1c5.4-1.4 5.4-6.6 5.3-8.1 0-.5-.2-1-.4-1.4-.3-.8.8-1.8 1.3-2.2.8-.6 1-1.6.6-2.5-1.2-2.5 1.8-4.4 1.9-4.5 1.1-.6 1.7-1.4 1.9-2.3.2-1-.2-1.8-.4-2-.2-.4-.2-.7-.1-1 .2-.4.8-.7 1-.8.6-.2 1-.7 1.1-1.3.2-1.2.7-2.6 1.9-2.7.8-.1 1.5-.6 1.7-1.4.9-3 2.4-4.6 4.3-4.6h.7c.8 0 1.5-.4 1.9-1.1 1-1.7 2.2-2.6 3-3.1 1-.6 1.9-1.3 2.6-2.2 1.7-2.1 3.5-3.1 4.7-3.7.9-.4 1.6-.8 2.3-1.2 1.3-.8 2.8-1.2 4.6-1.2 3 0 5.7 1.3 5.7 1.3 5 2 4.8 6.2 4.2 8.5-.3 1.4.4 2.8 1.6 3.4 2.4 1.2 2.5 3.1 2.2 4.5-.2.8-.1 1.6.3 2.3 2 3.6 0 7.5-1 9.1-.2.4-.4.6-.7.9-1.4 1.4-1.9 3.2-1.5 5.1.2.9.7 1.7 1.5 2.3 1.6 1.2 1.2 3.5 1 4.5-.2.6 0 1.3.3 1.8 2.1 3.1.3 5.8-.6 6.8-.4.5-.5 1.2-.2 1.8 1.3 2.3.7 4.2 0 5.4-.4.7-.5 1.6-.2 2.4.6 1.4-.2 3.2-.7 4.2-.2.4-.5.7-.8.9-.8.6-1.3 1.6-1.6 3.2-.1.6-.1 1.2.1 1.8.6 2.3-.1 3.9-2.1 4.8-.8.3-1.4.8-2 1.5-.7.9-1.6 1.3-2.4 1.3-.4 0-.8-.1-1.3-.3-.2-.1-.4-.1-.7-.1-.7 0-1.3.5-1.5 1.2-.8 2.7-2.4 3.4-3.3 3.6s-1.7.4-2.3.9c-2.2 1.5-2.7 4-2.8 5.3v1.1c.4 3.3-3.1 5.9-4.6 6.8-.6.4-1.2 1-1.6 1.8-1.5 3-4 3.6-5.8 3.6-.3 0-.6 0-.9-.1h-.3c-.8 0-1.5.3-2 .8-.3.3-.8.5-1.2.5-.7.1-1.3.3-1.8.7-.4.3-.9.5-1.4.5-.8 0-1.5.3-2.3.8-.3-.3-.6-.2-.8-.2z" class="st4"/>
    <path d="M94.9 285.1c2.8 0 5.3 1.2 5.3 1.2s.1 0 .1.1c4.1 1.6 4.2 5 3.6 7.5-.4 1.8.5 3.6 2.1 4.4.6.3 2.3 1.1 1.8 3.5-.2 1-.1 2.1.4 2.9 1.8 3.2-.1 6.8-1 8.2-.2.3-.4.5-.5.7-1.7 1.6-2.3 3.7-1.7 5.9.3 1.1.9 2.1 1.8 2.8 1.2.9.8 2.8.7 3.5-.2.9 0 1.8.5 2.5 1.7 2.5.4 4.7-.5 5.7-.7.8-.8 1.9-.3 2.8 1.1 1.9.6 3.5 0 4.5s-.7 2.2-.3 3.2c.3.8.1 2-.7 3.5-.1.2-.3.5-.6.7-1 .7-1.6 1.9-2 3.7-.1.7-.1 1.5.1 2.2.3 1.2.5 2.8-1.6 3.8-.9.4-1.6 1-2.3 1.7-.6.7-1.1 1-1.7 1-.4 0-.7-.1-.9-.2-.3-.2-.7-.2-1-.2-1.1 0-2.1.7-2.4 1.8-.6 2.2-1.7 2.8-2.6 2.9-1 .2-1.9.5-2.6 1-2.5 1.8-3 4.5-3.1 5.9v1.3c.3 2.8-2.8 5.1-4.2 6-.8.5-1.4 1.2-1.9 2.1-1 2.1-2.7 3.1-5 3.1h-1.2c-1 0-1.9.4-2.6 1.1-.2.2-.5.2-.7.3-.8.1-1.6.4-2.2.9-.3.2-.6.3-.9.3-.9 0-1.8.3-2.7.9-.1.1-.2.1-.3.1h-.2c-.2-.1-.4-.3-.4-.6-.2-1.6-1-2.9-2.2-4-1-.8-2.3-1.3-3.8-1.4-.2 0-.7-.4-1.1-1.1-.2-.2-.2-.6-.3-1-.1-1.8-1.5-2.9-3.4-2.9-.3 0-.6 0-.8.1-.3 0-.5.1-.8.1h-.5c-.9-.1-1.1-.5-1.2-.6-.4-.5-.3-1.5-.2-2.3.2-.9-.1-1.9-.8-2.5-2.7-2.4-2.3-4.8-1.8-6 .4-1.1.1-2.4-.8-3.1-.8-.6-1.7-1.6-.8-3 .4-.5.6-1 .8-1.4.9-1.9.6-3.3.1-4.2-.7-1.4-2.1-2.4-4.1-2.9-.6-.2-1.2-.4-1.6-.8-.7-.6-1.1-1.3-1.1-1.9 0-1 .8-1.9 1.1-2.2.4-.5.7-1.1.9-1.8 0-.1.3-.4.9-.8 1-.5 1.6-1.6 1.6-2.7 0-.2 0-.7.9-1 .7-.3 1.3-.8 1.6-1.5 1.4-3 4.2-3.3 5.4-3.3 1 0 1.9-.6 2.3-1.5.5-1 1.2-1.3 1.4-1.3h.2c4.1-1 6.3-4.4 6-9 0-.7-.3-1.2-.4-1.7 0-.1.2-.6 1-1.2 1.1-.8 1.4-2.3.9-3.6-.8-1.8 1.3-3.2 1.6-3.4 1.6-.9 2.2-2.1 2.3-2.9.2-1.2-.2-2.2-.5-2.6 0-.1-.1-.2-.1-.2.1-.1.2-.2.5-.3.9-.3 1.5-1.1 1.6-2 .1-.6.4-1.9 1.1-2 1.2-.1 2.2-.9 2.5-2 .5-1.5 1.5-4 3.4-4h.7c1.1 0 2.1-.6 2.7-1.5.9-1.5 2-2.4 2.7-2.8 1.1-.6 2-1.4 2.8-2.4 1.6-1.9 3.3-2.9 4.4-3.4.9-.4 1.7-.8 2.4-1.2 1.3-1.2 2.7-1.5 4.2-1.5m0-1.8c-1.6 0-3.4.3-5 1.4-.7.4-1.4.8-2.1 1.1-1.2.5-3.2 1.7-5.1 3.9-.7.8-1.5 1.5-2.4 2-1 .6-2.2 1.6-3.3 3.4-.2.4-.7.7-1.2.7h-.6c-1.4 0-3.7.8-5.1 5.3-.1.4-.5.8-1 .8-.9.1-2.2.6-2.7 3.4-.1.3-.3.5-.5.6-.8.3-2.3 1.1-1.3 3 0 0 1.4 1.7-1.2 3.1 0 0-3.8 2.3-2.3 5.6.2.5.1 1.1-.3 1.5-.9.7-2.1 1.9-1.6 3.2.1.4.3.8.3 1.2.1 1.8-.1 6.1-4.7 7.2 0 0-1.7.2-2.8 2.3-.1.3-.4.5-.8.5-1.4 0-5.2.4-7 4.3-.1.3-.4.5-.6.6-.7.3-2.1 1.1-2.1 2.8 0 .4-.2.8-.6 1-.7.3-1.7 1-1.9 2.1 0 .3-.2.6-.4.8-.9.9-3.2 3.8.1 6.6.6.6 1.4.9 2.3 1.1 1.5.4 4.2 1.5 2.8 4.7-.2.4-.4.8-.7 1.1-.5.7-1.8 3.1 1.1 5.4.3.3.4.7.3 1.1-.6 1.4-1.4 4.8 2.2 8 .2.2.3.5.3.9-.3 1.3-.6 4.4 2.7 5 .3 0 .5.1.8.1s.7 0 1-.1h.6c.7 0 1.6.2 1.7 1.3 0 .6.2 1.3.5 1.8.5.8 1.4 1.9 2.5 1.9 1 .1 2 .3 2.8 1 .7.6 1.4 1.5 1.6 2.9.1.9.7 1.6 1.5 2 .2.1.5.1.8.1.4 0 .8-.1 1.2-.4.6-.3 1.2-.6 1.9-.6.5 0 1.2-.2 1.9-.7.4-.3.9-.5 1.4-.6s1.2-.3 1.7-.8c.4-.4.9-.5 1.4-.5h.2c.3 0 .6.1 1 .1 2 0 4.9-.7 6.6-4.1.3-.6.7-1.1 1.3-1.4 1.7-1.1 5.4-3.9 5-7.7 0-.3-.1-.6 0-1 .1-1.1.5-3.2 2.4-4.6.6-.4 1.2-.6 1.9-.7 1-.2 3.1-.9 4-4.2.1-.3.4-.5.7-.5.1 0 .2 0 .3.1.4.2 1 .4 1.6.4.9 0 2-.4 3.1-1.6.5-.5 1-1 1.7-1.2 1.4-.6 3.5-2.2 2.6-5.8-.1-.5-.1-1-.1-1.4.2-.8.5-2.1 1.3-2.6.5-.3.8-.7 1.1-1.2.6-1.2 1.5-3.2.8-4.9-.2-.5-.1-1.1.2-1.6.7-1.2 1.6-3.5 0-6.2-.1-.3-.1-.6.1-.8.9-1.1 3.1-4.2.6-7.9-.2-.3-.3-.7-.2-1.1.3-1.2.7-3.8-1.3-5.4-.6-.4-1-1.1-1.1-1.8-.3-1.1-.3-2.8 1.2-4.2.3-.3.6-.6.8-1 1.1-1.7 3.2-5.9 1-9.9-.3-.5-.4-1.1-.2-1.7.3-1.4.4-3.9-2.7-5.4-.9-.4-1.4-1.5-1.1-2.4.6-2.7.7-7.3-4.7-9.5-.1-.5-2.9-1.9-6.2-1.9z" class="st5"/>
    <path d="M63.6 390.5c-.3 0-.7-.1-1-.2-1-.4-1.8-1.4-2-2.5-.1-1-.6-1.8-1.3-2.4-.6-.5-1.4-.8-2.4-.8-1.1-.1-2.2-.9-3.1-2.3-.4-.6-.6-1.3-.6-2.2 0-.3-.1-.4-.2-.4-.2-.2-.7-.2-1.2-.1-.8.1-1.4.1-2 0-1.3-.2-2.2-.8-2.8-1.6-1-1.4-.7-3.3-.5-4.2v-.2c-4-3.6-3-7.4-2.4-8.8 0-.1 0-.1-.1-.2-2.7-2.2-2.4-4.7-1.2-6.4.3-.4.5-.7.6-1 .4-.8.4-1.6.2-2.1-.4-.9-1.7-1.4-2.5-1.6-1-.3-1.9-.7-2.6-1.3-1.3-1.1-1.9-2.3-2-3.7-.1-1.9 1.1-3.3 1.8-4 .1-.1.1-.3.2-.4.2-1.3 1.4-2.1 2.3-2.6.1-.1.2-.2.2-.3-.1-1.6.8-2.8 2.5-3.5.1 0 .2-.1.2-.2 2-4.3 6-4.8 7.6-4.8 0 0 .1 0 .1-.1 1.2-2.4 3.2-2.7 3.3-2.7 3.8-1 4.2-4.5 4-6.4 0-.3-.1-.7-.3-1-.5-1.3.1-2.8 1.8-4.1.2-.1.2-.4.1-.6-1.4-3.1 1.1-5.6 2.5-6.5.7-.4 1.1-.8 1.2-1.2.1-.4-.2-.8-.2-.8l-.1-.1c-.4-.9-.5-1.6-.2-2.3.4-.9 1.3-1.4 1.9-1.7 0 0 .1 0 .1-.1.6-3.3 2.4-3.9 3.4-4 .1 0 .3-.1.3-.3 1.7-5.6 5-5.9 6.3-5.7.2 0 .5-.1.6-.3 1.2-2 2.6-3.1 3.6-3.7.8-.5 1.6-1.1 2.2-1.9 1.9-2.3 3.9-3.5 5.3-4.1.8-.3 1.5-.7 2-1.1 5.1-3.2 11.3-.3 11.8 0 6.2 2.5 5.6 8 5.1 10.3-.2.7.2 1.3.7 1.6 3.7 1.8 3.4 5 3.1 6.3-.1.4 0 .9.2 1.2 2.4 4.4.1 8.9-1.1 10.7-.3.5-.6.8-.9 1.2-1 1-1.4 2.2-1 3.5.1.6.4 1.1.9 1.4 2.3 1.8 1.9 4.9 1.5 6.1 0 .2 0 .3.1.5 2.9 4.1.2 7.8-.7 8.8 1.7 3.1.7 5.7 0 7-.2.3-.2.7-.1 1 .8 1.9 0 4.1-.8 5.6-.3.6-.7 1.1-1.3 1.5-.4.3-.8 1.1-1 2.2-.1.4-.1.7 0 1.1 1.1 4.3-1.7 6.1-3 6.6-.5.2-1 .6-1.4 1.1-2.2 2.6-4.6 1.8-5.6 1.4-1 3.7-3.5 4.5-4.5 4.7-.7.1-1.2.3-1.6.6-1.7 1.2-2 3-2.1 4v.8c.5 4.2-3.6 7.2-5.3 8.3-.4.3-.7.6-1 1.1-2.3 4.6-6.6 4.6-8.3 4.4-.4 0-.8.1-1 .3-.5.5-1.2.9-2.1 1-.4.1-.8.2-1.1.4-.7.5-1.5.8-2.3.8-.5 0-1 .2-1.6.5-.2.4-.7.5-1.2.5zM52.2 378c.6 0 1.2.1 1.7.5.3.2.7.7.7 1.5 0 .6.2 1.1.4 1.5.3.6 1.1 1.5 1.9 1.6 1.3.1 2.4.5 3.2 1.2 1 .9 1.6 2 1.8 3.3.1.6.5 1.2 1 1.4.4.2.9.1 1.4-.2.8-.5 1.5-.7 2.2-.7.6 0 1.1-.2 1.5-.5.5-.4 1.1-.6 1.8-.7.4 0 .9-.2 1.3-.6.6-.6 1.4-.8 2.2-.7 1.8.2 5 0 6.8-3.6.4-.7.9-1.3 1.5-1.7 1.5-1 5-3.5 4.7-7 0-.3-.1-.7 0-1.1.1-1.3.5-3.6 2.7-5.1.6-.4 1.3-.7 2.2-.9.9-.2 2.6-.8 3.4-3.7.1-.4.4-.7.8-.9.4-.2.8-.2 1.2 0 1 .5 2.4.6 3.9-1 .5-.6 1.2-1.1 1.9-1.4 1.4-.6 2.9-2 2.1-4.9-.2-.6-.2-1.2-.1-1.8.2-1 .6-2.4 1.6-3.1.4-.3.7-.6.9-1 .5-1 1.3-2.9.7-4.3-.3-.7-.2-1.6.2-2.3.7-1.2 1.3-3.2 0-5.5-.3-.5-.2-1.2.2-1.7.9-1 2.8-3.8.6-7-.3-.5-.5-1.1-.3-1.7.2-1 .6-3.3-1-4.6-.7-.5-1.2-1.3-1.4-2.2-.3-1.3-.3-3.3 1.4-4.9.2-.2.5-.5.7-.9 1-1.5 3-5.5 1-9.2-.4-.7-.5-1.5-.3-2.2.3-1.4.2-3.4-2.3-4.6-1.2-.6-1.8-1.9-1.5-3.3.6-2.4.7-6.7-4.3-8.7h-.1s-5.9-2.9-10.4-.1c-.7.4-1.4.8-2.2 1.2-1.2.5-3.1 1.6-4.8 3.7-.7.9-1.6 1.6-2.6 2.2-.8.5-2.1 1.4-3.1 3.2-.4.7-1.2 1.1-2 1-1.2-.1-3.4.3-4.8 4.7-.2.7-.9 1.2-1.6 1.3-1.3.1-1.9 1.6-2.1 2.8-.1.5-.5 1-1 1.2-.3.1-.9.4-1.1.9-.1.3-.1.7.1 1.1.2.2.6 1 .4 1.9s-.8 1.6-1.9 2.2c-.1.1-3.2 2-1.9 4.7.4.8.1 1.8-.6 2.3-.7.5-1.7 1.5-1.4 2.4.2.4.3.9.4 1.4.1 1.5.1 6.6-5.2 8-.1 0-1.5.2-2.3 1.9-.3.5-.8.9-1.4.9-1.4 0-4.7.4-6.3 3.9-.2.4-.6.8-1 .9-.8.3-1.7.9-1.6 2 0 .7-.4 1.4-1 1.7-.5.2-1.4.8-1.5 1.5-.1.5-.3.9-.6 1.2-.4.4-1.4 1.6-1.4 2.9 0 .9.5 1.8 1.5 2.6.5.5 1.2.8 2 1 1.2.3 2.8.9 3.4 2.3.5 1 .4 2.1-.2 3.3-.2.4-.4.8-.7 1.3-.6.9-1.3 2.6 1 4.4.6.5.8 1.2.5 1.9-.6 1.5-1.1 4.3 2 7.2.4.4.6 1 .5 1.6s-.4 2.1.3 3.1c.4.5 1 .9 1.8 1 .5.1 1 .1 1.6 0 .5.1.7 0 .9 0z"/>
    <path d="M37.8 410.5c-.4 0-.8-.1-1.2-.3l-5.4-3c-.7-.4-1-.9-1-1.1 0-.1 0-.1.1-.1 26.2-16.1 46.5-62 56.3-88.2.2 0 .4.2.5.3-13.8 53.2-43.1 86.3-48.8 92.4-.1-.1-.3 0-.5 0z" class="st12"/>
    <path d="M82.6 330.2c-14.6 45.3-39.3 73.5-44.8 79.4-.2 0-.5-.1-.7-.2l-5.4-3c-.1-.1-.2-.1-.3-.2 22.4-14.2 40.4-49.7 51.2-76m3.9-13.4c-.3 0-.5.1-.6.4-9.6 25.6-29.8 71.9-56 88-1 .6-.5 2 .9 2.8l5.4 3c.5.3 1.1.4 1.6.4s.9-.1 1.1-.4c5.6-6 35.2-39.4 49-92.9.2-.7-.8-1.3-1.4-1.3z" class="st5"/>
    <path d="M37.7 412.1c-.6 0-1.3-.2-1.9-.5l-5.4-3c-1.1-.6-1.8-1.6-1.8-2.5 0-.6.3-1.2.9-1.5 25.9-15.9 46-61.7 55.7-87.6.3-.7 1.1-1 2-.7s1.8 1.1 1.5 2.1c-13.9 53.6-43.4 87-49.2 93.2-.5.3-1.1.5-1.8.5zm48.8-94.6c-9.8 26.1-30 72.2-56.2 88.2-.1.1-.2.1-.2.3 0 .3.3.9 1.1 1.3l5.4 3c.9.5 1.6.4 1.9.2 5.7-6.1 35.1-39.3 48.9-92.6-.2-.2-.7-.4-.9-.4zm0-.1zm-.7-.3z"/>
  </g>
  <g id="Pineapple">
    <path d="M77.6 211.6c-2.7 0-5.4-.2-7.9-.6-1.3-.2-2.5-.5-3.7-.8-1-.3-2-.6-2.9-.9-.4-.1-.7-.3-1.1-.4-.1 0-.2-.1-.3-.1l.4-.4c.3-.3.6-.6 1-.9.8-.7 1.7-1.4 2.6-2.1 1.1-.8 2.3-1.6 3.5-2.3 2.7-1.7 5.8-3.2 8.8-4.4 1.7-.7 3.4-1.3 5-1.7 1.7-.5 3.5-.9 5.3-1.3 3.7-.7 7.2-1.2 10.5-1.2h1.3c2.8 0 5.4.2 7.9.6 1.3.2 2.5.5 3.7.8.6.1 1.1.3 1.5.5l.3.1c.4.1.7.2 1 .4.4.2.8.3 1.1.4.1 0 .2.1.3.1-.1.1-.2.2-.4.3-.3.3-.6.5-1 .9-.3.3-.6.5-1 .8l-.2.2c-.4.4-.9.7-1.4 1.1-1.1.8-2.3 1.6-3.5 2.3-2.7 1.7-5.8 3.2-8.8 4.4-3.2 1.3-6.6 2.3-10.3 3.1-1.8.4-3.6.7-5.3.9-1.6.2-3.4.3-5.2.4-.3-.2-.7-.2-1.2-.2z" class="st4"/>
    <path d="M100.1 195.3c2.7 0 5.4.2 7.8.6 1.3.2 2.5.5 3.7.8.6.2 1.1.3 1.5.4l.3.1c.4.1.7.2 1 .4-.1.1-.2.1-.3.2-.3.2-.6.5-.9.8l-.2.2c-.4.3-.8.7-1.4 1.1-1.1.8-2.2 1.5-3.4 2.3-2.7 1.6-5.7 3.1-8.7 4.3-3.1 1.2-6.5 2.3-10.2 3-1.8.4-3.5.7-5.2.9-1.6.2-3.3.3-5.1.4h-1.3c-2.7 0-5.3-.2-7.7-.6-1.3-.2-2.5-.5-3.6-.8-1-.3-1.9-.6-2.8-.9.1-.1.2-.1.3-.2.8-.7 1.7-1.4 2.6-2 1.1-.8 2.2-1.6 3.4-2.3 2.7-1.6 5.7-3.1 8.7-4.3 1.7-.7 3.4-1.3 5-1.7 1.7-.5 3.4-.9 5.2-1.3 3.6-.7 7.1-1.1 10.3-1.2.2-.2.6-.2 1-.2m0-1.8h-1.3c-3.4.1-7 .5-10.6 1.2-1.8.4-3.6.8-5.3 1.3-1.8.5-3.5 1.1-5.1 1.8-3.3 1.3-6.4 2.9-9 4.5-1.3.8-2.5 1.6-3.5 2.4-1 .8-2 1.5-2.7 2.1-.4.3-.7.6-1 .9l-.7.7-.6.6s.2.1.7.3c.2.1.5.2.8.4.3.1.7.3 1.1.4.8.3 1.8.6 3 .9 1.1.3 2.4.6 3.8.8 2.4.4 5.1.7 8 .7h1.4c1.7 0 3.5-.2 5.2-.4 1.8-.2 3.6-.5 5.4-.9 3.6-.8 7.2-1.8 10.5-3.1s6.4-2.9 9-4.5c1.3-.8 2.5-1.6 3.5-2.3.5-.4 1-.7 1.5-1.1.4-.4.9-.7 1.2-1 .4-.3.7-.6 1-.9l.7-.7.6-.6s-.2-.1-.7-.3c-.2-.1-.5-.2-.8-.4-.3-.1-.7-.3-1.1-.4-.4-.2-.9-.3-1.4-.5s-1-.3-1.6-.5c-1.1-.3-2.4-.6-3.8-.8-2.5-.4-5.3-.6-8.2-.6z" class="st5"/>
    <path d="M77.6 213.3c-2.8 0-5.6-.2-8.2-.7-1.3-.2-2.6-.5-3.9-.8-1.1-.3-2.1-.6-3-1-.4-.2-.8-.3-1.1-.5-.3-.1-.6-.3-.8-.4-.5-.2-.7-.4-.7-.4-.2-.1-.3-.3-.4-.5s0-.5.2-.6l.6-.6c.2-.2.5-.4.8-.7s.6-.6 1-.9c.9-.7 1.8-1.5 2.7-2.2 1.1-.8 2.3-1.6 3.6-2.4 2.8-1.7 5.9-3.3 9.1-4.5 1.8-.7 3.5-1.3 5.2-1.8s3.5-1 5.4-1.4c3.8-.8 7.4-1.2 10.8-1.3 3.3-.1 6.6.1 9.6.6 1.3.2 2.6.5 3.9.8.6.2 1.1.3 1.6.5l.3.1c.4.1.8.3 1.1.4.4.1.8.3 1.1.4.3.1.6.3.8.4.5.2.7.4.7.4.2.1.3.3.4.5s0 .5-.2.6l-.6.6c-.2.2-.5.4-.8.7s-.6.6-1 .9c-.3.3-.7.5-1 .8l-.2.2c-.5.4-1 .7-1.5 1.1-1.1.8-2.3 1.6-3.6 2.4-2.8 1.7-5.9 3.3-9.1 4.5-3.3 1.3-6.8 2.4-10.6 3.2-1.9.4-3.7.7-5.4.9-1.7.2-3.5.3-5.3.4-.5.3-1 .3-1.5.3zm-16.1-4.6c.2.1.3.1.5.2.3.1.7.3 1.1.4.9.3 1.9.7 2.9.9 1.2.3 2.5.6 3.7.8 2.9.5 6.1.7 9.3.6 1.8 0 3.5-.2 5.2-.4s3.5-.5 5.3-.9c3.7-.8 7.2-1.8 10.3-3.1 3.1-1.2 6.1-2.7 8.9-4.4 1.2-.7 2.4-1.5 3.5-2.3.5-.4 1-.7 1.4-1.1l.2-.2c.4-.3.7-.5 1-.8.4-.3.7-.6 1-.9.2-.2.4-.4.6-.5-.2-.1-.3-.1-.5-.2-.3-.1-.7-.3-1.1-.4-.3-.1-.7-.2-1.1-.4l-.3-.1c-.5-.2-1-.3-1.6-.5-1.2-.3-2.5-.6-3.7-.8-2.9-.5-6.1-.7-9.3-.6-3.3.1-6.8.5-10.5 1.2-1.8.4-3.6.8-5.3 1.3-1.6.5-3.3 1.1-5.1 1.7-3.1 1.2-6.1 2.7-8.9 4.4-1.2.7-2.4 1.5-3.5 2.3-.9.7-1.8 1.4-2.6 2.1-.4.3-.7.6-1 .8-.1.6-.3.8-.4.9z"/>
    <path d="M71.5 218.6c-.2-.3-.4-.6-.7-.9-.6-.8-1.1-1.7-1.6-2.6-.6-1.1-1.2-2.2-1.7-3.4-1.2-2.7-2.2-5.7-2.9-8.8-.4-1.7-.7-3.5-.9-5.1-.2-1.7-.4-3.5-.5-5.4-.2-3.7 0-7.4.4-10.7s1.1-6.6 2-9.6c.4-1.3.9-2.7 1.4-3.9.2-.6.5-1.1.7-1.6l.1-.3c.2-.4.3-.8.5-1.1l.6-1.2c.1-.2.2-.3.3-.5.1.1.1.2.2.3.2.3.4.6.7.9.2.3.4.6.6 1l.1.2c.3.4.6.9.8 1.4.6 1.1 1.2 2.2 1.7 3.4 1.2 2.7 2.2 5.7 2.9 8.8.8 3.2 1.2 6.7 1.4 10.4.1 1.8.1 3.7 0 5.4s-.2 3.5-.4 5.3c-.4 3.3-1.1 6.6-2 9.6-.4 1.3-.9 2.7-1.4 3.9-.4 1.1-.9 2.1-1.4 3.1-.2.4-.4.8-.6 1.1-.1.2-.2.3-.3.5.1 0 0-.1 0-.2z" class="st4"/>
    <path d="M69.3 165.1c0 .1 0 .1 0 0l.6.9.2.2c.2.4.5.8.8 1.3.6 1.1 1.2 2.2 1.7 3.3 1.2 2.6 2.2 5.6 2.9 8.6.7 3.1 1.2 6.6 1.4 10.3.1 1.8.1 3.6 0 5.4-.1 1.6-.2 3.4-.4 5.2-.4 3.2-1.1 6.5-2 9.5-.4 1.3-.9 2.6-1.3 3.9-.4 1-.9 2.1-1.3 3 0 .1-.1.2-.1.3-.5-.8-1.1-1.6-1.6-2.5-.6-1.1-1.2-2.2-1.7-3.3-1.2-2.6-2.2-5.6-2.9-8.6-.4-1.7-.7-3.4-.9-5-.2-1.7-.4-3.5-.5-5.3-.2-3.7 0-7.3.4-10.6.4-3.2 1.1-6.5 2-9.5.4-1.3.9-2.6 1.3-3.9.2-.6.5-1.1.7-1.6l.1-.3c.2-.4.3-.8.5-1.1 0 0 0-.1.1-.2m-.3-3.2s-.2.3-.4.7c-.1.2-.3.5-.5.9-.2.3-.4.7-.6 1.2-.2.4-.4.9-.7 1.4-.2.5-.5 1.1-.7 1.7-.5 1.2-1 2.5-1.4 4-.9 2.9-1.6 6.3-2.1 9.8s-.6 7.2-.4 10.9c.1 1.8.3 3.6.5 5.4.2 1.8.6 3.5.9 5.2.8 3.3 1.8 6.4 3 9 .6 1.3 1.2 2.5 1.8 3.5.6 1 1.2 1.9 1.7 2.6.3.4.5.7.7 1s.4.5.6.7c.3.4.5.6.5.6s.2-.3.4-.7c.1-.2.3-.5.5-.9.2-.3.4-.7.6-1.2.4-.9.9-1.9 1.4-3.1.5-1.2 1-2.6 1.4-4 .9-2.9 1.6-6.3 2.1-9.8.2-1.8.4-3.6.4-5.4.1-1.8 0-3.7 0-5.5-.2-3.7-.7-7.3-1.4-10.6-.8-3.3-1.8-6.4-3-9-.6-1.3-1.2-2.5-1.8-3.5-.3-.5-.6-1-.9-1.4s-.5-.8-.8-1.2c-.2-.4-.5-.7-.7-1s-.4-.5-.6-.7c-.3-.4-.5-.6-.5-.6z" class="st5"/>
    <path d="M71.8 221.2c-.2 0-.4-.1-.5-.2 0 0-.2-.2-.5-.6-.2-.2-.4-.4-.6-.7s-.5-.6-.7-1c-.6-.8-1.2-1.7-1.7-2.7-.6-1.1-1.2-2.3-1.8-3.6-1.2-2.8-2.3-5.9-3-9.1-.4-1.8-.7-3.6-1-5.3-.2-1.8-.4-3.6-.5-5.5-.2-3.8 0-7.6.4-11s1.1-6.8 2.1-9.9c.4-1.4.9-2.8 1.4-4.1.2-.6.5-1.2.7-1.7l.1-.3.6-1.2.6-1.2c.2-.3.3-.6.5-.9.3-.5.5-.8.5-.8.1-.2.3-.3.6-.3.2 0 .5.1.6.2 0 0 .2.2.5.6.2.2.4.4.6.7s.5.6.7 1c.2.3.4.6.7 1l.1.2c.3.4.6.9.9 1.5.6 1.1 1.2 2.3 1.8 3.6 1.2 2.8 2.3 5.9 3 9.1.8 3.3 1.3 6.9 1.5 10.7.1 1.9.1 3.8 0 5.6-.1 1.7-.2 3.6-.4 5.5-.4 3.4-1.1 6.8-2.1 9.9-.4 1.4-.9 2.8-1.4 4.1-.4 1.1-.9 2.2-1.4 3.2-.2.4-.4.9-.6 1.2s-.3.6-.5.9c-.3.5-.5.8-.5.8-.2.1-.4.3-.7.3zm-2.7-58c-.1.2-.2.4-.4.7-.2.3-.4.7-.6 1.2-.2.4-.4.7-.5 1.2l-.1.3c-.2.5-.5 1.1-.7 1.7-.5 1.3-1 2.6-1.4 4-.9 3-1.6 6.4-2 9.7-.4 3.4-.6 7-.4 10.8.1 1.8.3 3.6.5 5.4.2 1.6.5 3.4.9 5.1.7 3.1 1.7 6.1 2.9 8.8.5 1.2 1.1 2.3 1.7 3.4.5.9 1.1 1.8 1.6 2.6.2.4.5.7.7.9.1.2.2.3.4.5.1-.2.2-.4.4-.7.2-.4.4-.7.6-1.2.5-1 .9-2 1.4-3.1.5-1.3 1-2.6 1.4-3.9.9-3 1.6-6.4 2-9.7.2-1.9.4-3.7.4-5.3.1-1.8 0-3.6 0-5.4-.2-3.7-.7-7.3-1.4-10.5-.7-3.1-1.7-6.1-2.9-8.8-.5-1.2-1.1-2.3-1.7-3.4-.3-.5-.6-1-.8-1.4l-.1-.2c-.2-.3-.4-.7-.6-.9-.2-.4-.5-.7-.7-.9-.4-.7-.5-.8-.6-.9z"/>
    <path d="M77 205.9h-.9c.1-.1.1-.2.2-.4.2-.4.4-.7.7-1.1.6-.9 1.2-1.9 1.9-2.8.8-1.1 1.7-2.2 2.6-3.3 2.1-2.4 4.6-4.9 7.2-7.1 1.5-1.2 3-2.4 4.4-3.3 1.5-1 3.1-2.1 4.7-3 3.4-2 6.7-3.6 9.9-4.8 3.1-1.2 6.3-2.1 9.3-2.7 1.3-.3 2.6-.4 3.9-.6.6-.1 1.1-.1 1.7-.1h2.9c-.1.1-.1.2-.2.4-.2.3-.4.7-.7 1.1-.2.4-.4.7-.7 1.1l-.2.2c-.3.5-.7 1-1 1.5-.8 1.1-1.7 2.2-2.6 3.3-2.1 2.4-4.6 4.9-7.2 7.1-2.7 2.3-5.8 4.4-9.1 6.4-1.6 1-3.3 1.9-4.9 2.6-1.5.8-3.2 1.5-4.9 2.1-3.1 1.2-6.3 2.1-9.3 2.7-1.3.3-2.7.4-3.9.6-1.1.1-2.1.2-3.1.2l-.7-.1z" class="st4"/>
    <path d="M123.9 177.6s0 .1-.1.1c-.2.3-.4.7-.7 1l-.2.3c-.3.4-.6.9-1 1.4-.8 1.1-1.7 2.2-2.6 3.2-2.1 2.4-4.5 4.8-7.1 7-2.7 2.2-5.7 4.3-9 6.3-1.6 1-3.3 1.8-4.9 2.6-1.5.7-3.1 1.5-4.9 2.1-3 1.2-6.2 2.1-9.1 2.6-1.3.2-2.6.4-3.8.6-1 .1-2 .2-2.9.2 0 0 0-.1.1-.1.6-.9 1.2-1.8 1.9-2.7.8-1.1 1.7-2.2 2.6-3.3 2.1-2.4 4.5-4.8 7.1-6.9 1.5-1.2 2.9-2.3 4.3-3.3 1.5-1 3-2 4.7-3 3.3-1.9 6.6-3.5 9.7-4.7 3-1.2 6.2-2.1 9.1-2.6l3.9-.6c.6-.1 1.1-.1 1.6-.1h.3c.3-.1.6-.1 1-.1m.7-1.9h-.7c-.4 0-.9 0-1.4.1-.5 0-1.1.1-1.7.1-1.2.1-2.6.3-4 .6-2.9.5-6.1 1.4-9.4 2.7s-6.7 2.9-10 4.8c-1.6 1-3.2 2-4.8 3.1-1.5 1.1-3 2.2-4.4 3.4-2.8 2.3-5.3 4.8-7.3 7.2-1 1.2-1.9 2.3-2.7 3.4-.8 1.1-1.4 2-1.9 2.9-.3.4-.5.8-.7 1.1s-.4.6-.5.9c-.3.5-.4.8-.4.8s.3 0 .8.1h2.1c.9 0 2-.1 3.2-.2 1.2-.1 2.6-.3 4-.6 2.9-.5 6.1-1.4 9.4-2.7 1.7-.6 3.3-1.4 5-2.2s3.3-1.7 5-2.7c3.3-1.9 6.4-4.1 9.2-6.5 2.8-2.3 5.3-4.8 7.3-7.2 1-1.2 1.9-2.3 2.7-3.4.4-.5.7-1 1.1-1.5.3-.5.6-.9.9-1.3.3-.4.5-.8.7-1.1s.4-.6.5-.9c.3-.5.4-.8.4-.8s-.3 0-.8-.1h-1.6z" class="st5"/>
    <path d="M77 207.6h-1.6c-.5 0-.8-.1-.8-.1-.2 0-.4-.2-.6-.4-.1-.2-.1-.5 0-.7 0 0 .1-.3.4-.8.1-.2.3-.6.5-.9.2-.3.4-.7.7-1.2.6-1 1.3-1.9 2-2.9.8-1.1 1.8-2.3 2.7-3.4 2.2-2.5 4.7-5 7.4-7.2 1.5-1.3 3-2.4 4.5-3.4 1.5-1.1 3.1-2.1 4.8-3.1 3.4-2 6.8-3.7 10.1-4.9 3.2-1.2 6.5-2.2 9.6-2.8 1.4-.3 2.7-.5 4.1-.6.6-.1 1.2-.1 1.8-.1h3.8c.5 0 .8.1.8.1.2 0 .4.2.6.4.1.2.1.5 0 .7 0 0-.1.3-.4.8-.1.2-.3.6-.5.9-.2.3-.4.7-.7 1.1-.2.3-.5.7-.7 1.1l-.2.2c-.3.5-.7 1-1.1 1.5-.8 1.1-1.8 2.3-2.7 3.4-2.2 2.5-4.7 5-7.4 7.2-2.8 2.3-5.9 4.5-9.3 6.5-1.7 1-3.4 1.9-5 2.7s-3.3 1.5-5.1 2.2c-3.2 1.2-6.5 2.2-9.6 2.8-1.4.3-2.7.5-4.1.6-1.1.1-2.2.2-3.3.2-.4.1-.5.1-.7.1zm-1.2-1.6h1.7c1 0 2.1-.1 3.2-.2 1.3-.1 2.6-.3 3.9-.6 3-.6 6.2-1.5 9.3-2.7 1.8-.7 3.4-1.4 5-2.2s3.3-1.7 4.9-2.6c3.3-2 6.4-4.1 9.1-6.4 2.6-2.2 5.1-4.6 7.2-7.1.9-1.1 1.8-2.2 2.6-3.3.4-.5.7-1 1-1.5l.2-.3c.3-.4.5-.7.7-1.1.3-.4.5-.8.7-1.1l.3-.6h-3.2c-.5 0-1.1.1-1.7.1-1.3.1-2.6.3-3.9.6-3 .6-6.2 1.5-9.3 2.7-3.2 1.2-6.5 2.8-9.9 4.8-1.6 1-3.2 2-4.7 3-1.4 1-2.9 2.1-4.4 3.4-2.6 2.2-5.1 4.6-7.2 7.1-.9 1.1-1.8 2.2-2.6 3.3-.7.9-1.3 1.9-1.9 2.8-.3.4-.5.8-.7 1.1-.1.4-.2.6-.3.8z"/>
    <path d="M76.9 203.9c.1-.4.3-.8.4-1.2.4-1 .8-2.1 1.2-3.1.6-1.2 1.2-2.5 1.9-3.8 1.5-2.8 3.5-5.7 5.6-8.4 1.2-1.5 2.4-2.9 3.6-4.2 1.3-1.4 2.6-2.7 4-4 2.9-2.7 5.8-5 8.7-6.9 2.8-1.9 5.8-3.5 8.7-4.8 1.3-.6 2.5-1.1 3.8-1.5.6-.2 1.1-.4 1.6-.5l.3-.1 1.2-.3c.5-.1.8-.2 1.2-.3.1 0 .2 0 .3-.1 0 .1-.1.2-.1.3-.1.4-.3.8-.4 1.2s-.3.8-.4 1.2l-.1.3c-.2.5-.4 1.1-.7 1.6-.6 1.3-1.2 2.5-1.9 3.8-1.5 2.8-3.5 5.7-5.6 8.4-2.2 2.8-4.7 5.6-7.6 8.3-1.4 1.3-2.9 2.6-4.3 3.7s-2.9 2.2-4.4 3.2c-2.8 1.9-5.8 3.5-8.7 4.8-1.3.6-2.5 1.1-3.8 1.5-1.1.4-2.1.7-3.1.9l-1.2.3c-.1 0-.2 0-.3.1.1-.1.1-.3.1-.4z" class="st4"/>
    <path d="M118 165.8c-.1.4-.3.7-.4 1.1l-.1.3c-.2.5-.4 1-.7 1.6-.5 1.2-1.2 2.5-1.8 3.7-1.5 2.8-3.4 5.7-5.5 8.3-2.1 2.8-4.7 5.5-7.5 8.2-1.4 1.3-2.8 2.5-4.2 3.7-1.3 1.1-2.8 2.1-4.4 3.2-2.8 1.8-5.7 3.5-8.5 4.7-1.2.6-2.5 1.1-3.7 1.5-1 .3-2 .6-2.9.9l1.2-3c.5-1.2 1.2-2.5 1.8-3.7 1.5-2.8 3.4-5.7 5.5-8.3 1.2-1.5 2.4-2.9 3.5-4.2 1.2-1.3 2.6-2.7 4-4 2.9-2.6 5.8-4.9 8.6-6.9 2.8-1.8 5.7-3.5 8.5-4.7 1.2-.6 2.5-1.1 3.7-1.5.6-.2 1.1-.4 1.6-.5l.3-.1c.3-.1.7-.2 1-.3m2.6-2.4s-.3 0-.8.1c-.3 0-.6.1-.9.2l-1.2.3c-.5.1-.9.3-1.5.4-.5.2-1.1.3-1.7.5-1.2.4-2.5.9-3.9 1.5-2.7 1.2-5.8 2.9-8.8 4.9s-6 4.4-8.9 7c-1.4 1.3-2.8 2.7-4.1 4.1-1.3 1.4-2.5 2.8-3.6 4.3-2.3 2.9-4.2 5.8-5.6 8.6-.7 1.4-1.4 2.6-1.9 3.8s-.9 2.3-1.3 3.2c-.2.5-.3.9-.4 1.2-.1.4-.2.7-.3.9-.1.5-.2.8-.2.8s.3 0 .8-.1c.3 0 .6-.1.9-.2l1.2-.3c.9-.2 2-.6 3.2-1s2.5-.9 3.9-1.5c2.8-1.2 5.8-2.9 8.8-4.9 1.5-1 3-2.1 4.5-3.3s2.9-2.4 4.3-3.8c2.8-2.6 5.4-5.5 7.7-8.4 2.3-2.9 4.2-5.8 5.6-8.6.7-1.4 1.4-2.6 1.9-3.8.3-.6.5-1.2.7-1.7l.6-1.5.4-1.2c.1-.4.2-.7.3-.9.3-.3.3-.6.3-.6z" class="st5"/>
    <path d="M75.6 206.2c-.2 0-.4-.1-.6-.2-.2-.2-.2-.4-.2-.7 0 0 .1-.3.2-.9.1-.3.2-.6.3-1 .1-.4.3-.8.4-1.3.4-1 .8-2.1 1.3-3.2.6-1.3 1.2-2.6 1.9-3.9 1.6-2.9 3.6-5.9 5.7-8.7 1.2-1.6 2.5-3 3.7-4.3 1.3-1.4 2.7-2.8 4.1-4.1 3-2.7 6-5.1 9-7.1 2.9-1.9 6-3.6 8.9-4.9 1.3-.6 2.6-1.1 3.9-1.6.6-.2 1.2-.4 1.7-.6l.3-.1c.4-.1.9-.3 1.3-.4.4-.1.9-.2 1.2-.3.4-.1.7-.1.9-.2.5-.1.9-.1.9-.1.2 0 .5.1.6.2.2.2.2.4.2.7 0 0-.1.3-.2.9-.1.3-.2.6-.3 1-.1.4-.3.8-.4 1.3-.1.4-.3.8-.5 1.2l-.1.3c-.2.5-.5 1.1-.7 1.7-.6 1.3-1.2 2.6-1.9 3.9-1.6 2.9-3.6 5.9-5.7 8.7-2.2 2.9-4.8 5.7-7.8 8.5-1.5 1.3-2.9 2.6-4.4 3.8-1.4 1.1-2.9 2.2-4.5 3.3-2.9 1.9-6 3.6-8.9 5-1.3.6-2.6 1.1-3.9 1.6-1.1.4-2.2.7-3.2 1-.5.1-.9.2-1.3.3s-.7.1-1 .2c-.5-.1-.8 0-.9 0zm44-41.8c-.2 0-.3.1-.5.1l-1.2.3-1.2.3-.3.1c-.5.2-1.1.3-1.7.5-1.3.4-2.5 1-3.8 1.5-2.9 1.3-5.9 2.9-8.7 4.8-2.9 1.9-5.9 4.3-8.8 7-1.4 1.3-2.8 2.7-4 4s-2.4 2.7-3.6 4.2c-2.1 2.7-4 5.6-5.6 8.5-.7 1.3-1.3 2.5-1.9 3.8-.5 1.1-.9 2.1-1.2 3.1-.2.4-.3.8-.4 1.2-.1.2-.1.4-.2.6.2 0 .3-.1.5-.1l1.2-.3c1-.3 2.1-.6 3.1-.9 1.3-.4 2.5-.9 3.8-1.5 2.9-1.3 5.9-2.9 8.7-4.8 1.6-1.1 3.1-2.2 4.4-3.3 1.4-1.1 2.9-2.4 4.3-3.7 2.9-2.7 5.4-5.5 7.6-8.3 2.1-2.7 4-5.6 5.6-8.5.7-1.2 1.3-2.5 1.9-3.8.3-.6.5-1.1.7-1.7l.1-.3c.2-.4.3-.8.4-1.2.2-.5.3-.9.4-1.2.3-.1.3-.3.4-.4z"/>
    <path d="M71.6 202.3c-.1-.4-.2-.7-.3-1.2-.2-1-.4-2-.6-3.1-.2-1.3-.3-2.6-.4-3.9-.2-3-.1-6.4.3-9.7.2-1.9.5-3.6.8-5.3.4-1.8.8-3.6 1.3-5.4 1.1-3.7 2.4-7.2 3.9-10.4 1.5-3.1 3.2-6.1 5-8.7.8-1.2 1.7-2.3 2.5-3.4.4-.5.8-1 1.2-1.4l.2-.2.9-.9c.3-.4.6-.7.9-.9l.3-.3c0 .1 0 .2.1.3.1.4.2.7.3 1.2.1.4.2.7.3 1.1l.1.3c.1.5.2 1.1.3 1.7.2 1.3.3 2.6.4 3.9.2 3 .1 6.4-.3 9.7-.4 3.4-1.1 7-2.2 10.7-.5 1.8-1.1 3.6-1.8 5.3-.6 1.6-1.3 3.3-2.1 5.1-1.4 3.1-3.2 6.1-5 8.7-.8 1.2-1.7 2.3-2.5 3.4-.7.9-1.5 1.8-2.2 2.5-.3.3-.6.7-.9.9l-.3.3c-.1-.1-.1-.2-.2-.3z" class="st4"/>
    <path d="M87.2 149.2c.1.3.1.6.2 1l.1.3c.1.5.2 1 .3 1.6.2 1.2.3 2.5.4 3.9.2 3 .1 6.3-.3 9.5-.4 3.3-1.1 6.9-2.1 10.6-.5 1.8-1.1 3.6-1.7 5.3-.6 1.6-1.3 3.3-2.1 5-1.4 3-3.1 6-5 8.6-.8 1.2-1.6 2.3-2.5 3.3-.7.9-1.5 1.7-2.2 2.5l-.1.1c-.2-.9-.4-1.9-.6-2.9-.2-1.2-.3-2.5-.4-3.9-.2-3-.1-6.3.3-9.5.2-1.8.5-3.6.8-5.2.4-1.7.8-3.5 1.3-5.3 1.1-3.7 2.4-7.1 3.9-10.3 1.4-3 3.1-6 5-8.6.8-1.2 1.6-2.3 2.5-3.3.4-.5.8-1 1.1-1.3l.2-.2c.3-.6.5-.9.9-1.2m.9-3.4l-.6.6-.7.7-.9.9c-.3.4-.7.8-1.1 1.2s-.8.9-1.2 1.4c-.8 1-1.7 2.2-2.6 3.4-1.8 2.5-3.5 5.6-5.1 8.9-1.6 3.3-2.9 6.9-4 10.5-.5 1.8-1 3.7-1.4 5.5s-.7 3.6-.9 5.4c-.4 3.5-.5 6.9-.3 9.8.1 1.5.3 2.8.4 4 .2 1.2.4 2.3.6 3.2l.3 1.2.3.9c.2.5.3.7.3.7l.6-.6c.2-.2.5-.4.7-.7l.9-.9c.7-.7 1.5-1.6 2.3-2.6s1.7-2.2 2.6-3.4c1.8-2.5 3.5-5.6 5.1-8.9.8-1.7 1.5-3.4 2.2-5.1.7-1.8 1.3-3.6 1.8-5.4 1-3.6 1.8-7.4 2.2-10.9.4-3.5.5-6.9.3-9.8-.1-1.5-.2-2.8-.4-4-.1-.6-.2-1.2-.3-1.7l-.3-1.5-.3-1.2-.3-.9c-.1-.4-.2-.7-.2-.7z" class="st5"/>
    <path d="M71.3 204.9h-.2c-.2-.1-.4-.2-.5-.4 0 0-.1-.3-.3-.8-.1-.2-.2-.6-.3-.9-.1-.3-.2-.8-.3-1.2-.2-1-.5-2.1-.6-3.2-.2-1.3-.4-2.7-.4-4.1-.2-3.1-.1-6.6.3-10 .2-1.9.5-3.7.9-5.5s.8-3.7 1.4-5.5c1.1-3.8 2.5-7.4 4-10.7 1.5-3.1 3.3-6.3 5.2-9 .8-1.2 1.7-2.4 2.6-3.5.4-.5.8-1 1.2-1.4l.2-.2c.3-.4.6-.7.9-1 .3-.4.6-.7.9-1l.7-.7c.4-.4.7-.6.7-.6.2-.2.4-.2.7-.1.2.1.4.2.5.4 0 0 .1.3.3.8.1.2.2.6.3.9.1.3.2.8.3 1.2l.3 1.2.1.3c.1.5.2 1.1.3 1.7.2 1.3.4 2.7.4 4.1.2 3.1.1 6.6-.3 10-.4 3.5-1.1 7.2-2.2 11-.5 1.9-1.2 3.7-1.8 5.5-.6 1.7-1.4 3.4-2.2 5.2-1.5 3.2-3.3 6.3-5.2 9-.8 1.2-1.7 2.4-2.6 3.5-.8.9-1.5 1.8-2.3 2.6-.3.4-.7.7-1 1l-.7.7c-.4.4-.7.6-.7.6-.3 0-.4.1-.6.1zm16.5-57.8l-.5.5-.9.9-.9.9-.2.2c-.4.4-.8.9-1.2 1.4-.9 1.1-1.7 2.2-2.5 3.4-1.8 2.7-3.6 5.7-5 8.8-1.5 3.2-2.8 6.7-3.9 10.4-.5 1.8-1 3.7-1.3 5.4s-.6 3.5-.8 5.3c-.4 3.3-.5 6.6-.3 9.7.1 1.4.2 2.7.4 4 .2 1.1.4 2.1.6 3.1.1.4.2.8.3 1.1.1.2.1.4.2.5l.5-.5.9-.9c.8-.8 1.5-1.7 2.2-2.6.9-1.1 1.7-2.2 2.5-3.4 1.8-2.7 3.6-5.7 5-8.8.8-1.7 1.5-3.5 2.1-5.1.6-1.7 1.2-3.5 1.8-5.3 1.1-3.7 1.8-7.4 2.2-10.8.4-3.3.5-6.6.3-9.7-.1-1.4-.2-2.7-.4-4-.1-.6-.2-1.1-.3-1.7l-.1-.3c-.1-.4-.2-.8-.2-1.1l-.3-1.2c-.2.1-.2 0-.2-.2z"/>
    <path d="M73.1 201.1v-1.2c0-1 0-2.1.1-3.2.1-1.3.3-2.7.5-4.1.5-3.1 1.4-6.4 2.5-9.6.6-1.8 1.3-3.5 2-5.1.8-1.7 1.6-3.4 2.5-5.1 1.9-3.5 4-6.6 6.1-9.4 2.1-2.7 4.4-5.3 6.8-7.5 1-1 2.1-1.9 3.2-2.7.5-.4 1-.8 1.4-1.1l.2-.2c.4-.3.7-.5 1-.7.4-.3.8-.5 1.1-.7.1-.1.2-.1.3-.2v3c0 .5-.1 1.1-.1 1.7-.1 1.3-.3 2.7-.5 4.1-.5 3.1-1.4 6.4-2.5 9.6-1.1 3.3-2.7 6.7-4.5 10.2-.9 1.7-1.9 3.3-2.9 4.9-.9 1.5-2 3-3.2 4.5-2.1 2.7-4.4 5.3-6.8 7.5-1 1-2.1 1.9-3.2 2.7-.9.7-1.8 1.4-2.7 2-.4.3-.7.5-1.1.7-.1.1-.2.1-.3.2.1-.1.1-.2.1-.3z" class="st4"/>
    <path d="M100 151.9v1.3c0 .5 0 1-.1 1.7-.1 1.3-.3 2.6-.5 4-.5 3-1.4 6.3-2.5 9.4-1.1 3.2-2.6 6.6-4.5 10.1-.9 1.7-1.9 3.3-2.9 4.8-.9 1.5-2 3-3.2 4.5-2.1 2.7-4.4 5.2-6.7 7.4-1 1-2.1 1.9-3.1 2.7-.9.7-1.8 1.3-2.6 1.9 0-1 0-2 .1-3 .1-1.3.3-2.6.5-4 .5-3 1.4-6.3 2.5-9.4.6-1.8 1.3-3.5 2-5 .7-1.6 1.6-3.3 2.5-5 1.9-3.4 3.9-6.5 6-9.3 2.1-2.7 4.4-5.2 6.7-7.4 1-1 2.1-1.9 3.1-2.7.5-.4 1-.8 1.4-1.1l.2-.2c.5-.2.8-.5 1.1-.7m1.7-3.1s-.3.1-.7.4c-.2.1-.5.3-.8.5s-.7.4-1.1.7-.8.6-1.3.9c-.5.3-1 .7-1.5 1.1-1 .8-2.1 1.7-3.2 2.8-2.3 2.1-4.6 4.7-6.9 7.6-2.3 2.9-4.4 6.2-6.2 9.5-.9 1.7-1.8 3.4-2.5 5.1-.8 1.7-1.5 3.5-2.1 5.2-1.2 3.4-2 6.8-2.5 9.7-.3 1.5-.4 2.9-.5 4.1-.1 1.3-.1 2.4-.1 3.3v1.3c0 .4 0 .7.1 1 0 .5.1.8.1.8s.3-.1.7-.4c.2-.1.5-.3.8-.5s.7-.4 1.1-.7c.8-.5 1.7-1.2 2.8-2 1-.8 2.1-1.7 3.2-2.8 2.3-2.1 4.6-4.7 6.9-7.6 1.1-1.5 2.2-3 3.2-4.6s2-3.3 2.9-5c1.8-3.4 3.4-6.9 4.6-10.3 1.2-3.4 2-6.8 2.5-9.7.3-1.5.4-2.9.5-4.1.1-.6.1-1.2.1-1.8v-3.7c0-.6-.1-.8-.1-.8z" class="st5"/>
    <path d="M72.3 203.6c-.1 0-.2 0-.4-.1s-.4-.3-.4-.6c0 0 0-.3-.1-.9 0-.3 0-.6-.1-1v-1.3c0-1.1 0-2.2.1-3.4.1-1.4.3-2.8.5-4.2.5-3.2 1.4-6.6 2.6-9.9.7-1.9 1.4-3.6 2.1-5.2.8-1.7 1.6-3.5 2.6-5.2 1.9-3.5 4-6.8 6.3-9.6 2.1-2.8 4.5-5.4 7-7.7 1.1-1 2.2-2 3.3-2.8.5-.4 1-.8 1.5-1.1l.2-.2c.4-.3.7-.5 1.1-.8s.8-.5 1.1-.7c.3-.2.6-.4.9-.5.5-.3.8-.4.8-.4.2-.1.5-.1.7 0s.4.3.4.6c0 0 0 .3.1.9 0 .3 0 .6.1 1v2.9c0 .6-.1 1.2-.1 1.8-.1 1.4-.3 2.8-.5 4.2-.5 3.2-1.4 6.6-2.6 9.9-1.2 3.4-2.7 6.9-4.6 10.4-1 1.7-1.9 3.4-3 5-1 1.5-2.1 3.1-3.3 4.6-2.1 2.8-4.5 5.4-7 7.7-1.1 1-2.2 2-3.3 2.8-.9.7-1.9 1.4-2.8 2.1-.4.3-.8.5-1.1.7-.3.2-.6.4-.9.5-.5.3-.8.4-.8.4-.2.1-.3.1-.4.1zm28.8-53.6c-.2.1-.3.2-.5.3-.3.2-.7.4-1.1.7-.3.2-.7.5-1 .7l-.2.2c-.5.3-.9.7-1.4 1.1-1.1.8-2.1 1.8-3.2 2.8-2.4 2.2-4.7 4.8-6.8 7.5-2.2 2.8-4.2 6-6.1 9.4-.9 1.7-1.8 3.4-2.5 5.1-.7 1.6-1.4 3.3-2 5.1-1.1 3.2-2 6.5-2.5 9.6-.2 1.4-.4 2.7-.5 4.1-.1 1.1-.1 2.2-.1 3.3v1.8c.2-.1.3-.2.5-.3.3-.2.7-.4 1.1-.7.9-.6 1.8-1.3 2.7-2 1.1-.8 2.1-1.8 3.2-2.8 2.4-2.2 4.7-4.8 6.8-7.5 1.2-1.5 2.3-3.1 3.2-4.5 1-1.5 2-3.2 2.9-4.9 1.9-3.5 3.4-6.9 4.5-10.2 1.1-3.2 2-6.5 2.5-9.6.2-1.4.4-2.7.5-4.1.1-.6.1-1.2.1-1.7v-2.7c-.1-.4-.1-.5-.1-.7z"/>
    <path d="M75.2 203.2c0-.4.1-.8.2-1.2.2-1 .4-2.1.7-3.2.3-1.3.7-2.6 1.2-4 1-3 2.5-6.2 4.1-9.2.9-1.7 1.9-3.3 2.9-4.7 1-1.5 2.1-3.1 3.3-4.6 2.4-3.1 5-5.9 7.6-8.3 2.5-2.3 5.2-4.5 7.9-6.3 1.2-.8 2.4-1.5 3.5-2.2.5-.3 1.1-.6 1.6-.8l.3-.1c.4-.2.8-.4 1.1-.5.4-.2.8-.4 1.2-.5.1 0 .2-.1.3-.1v.3c0 .4-.1.8-.2 1.2s-.2.8-.2 1.2l-.1.3c-.1.5-.2 1.1-.4 1.7-.3 1.3-.7 2.6-1.2 4-1 3-2.5 6.2-4.1 9.2-1.7 3.1-3.8 6.3-6.2 9.4-1.2 1.5-2.4 3-3.7 4.4-1.2 1.3-2.5 2.6-3.9 4-2.5 2.3-5.2 4.5-7.8 6.3-1.2.8-2.4 1.5-3.6 2.2-1 .5-2 1.1-3 1.5-.4.2-.8.4-1.1.5-.1 0-.2.1-.3.1-.2-.4-.2-.5-.1-.6z" class="st4"/>
    <path d="M109.7 158.9c-.1.3-.1.7-.2 1.1l-.1.3c-.1.5-.2 1-.4 1.7-.3 1.3-.7 2.6-1.2 3.9-1 3-2.4 6.1-4 9-1.7 3.1-3.7 6.2-6.1 9.3-1.2 1.5-2.4 3-3.6 4.3s-2.4 2.6-3.8 3.9c-2.4 2.3-5.1 4.4-7.7 6.2-1.2.8-2.3 1.5-3.5 2.1-.9.5-1.9 1-2.8 1.4.2-1 .4-2 .7-3.1.3-1.3.7-2.6 1.2-3.9 1-3 2.4-6.1 4-9 .9-1.7 1.9-3.2 2.8-4.7 1-1.5 2.1-3.1 3.3-4.6 2.4-3.1 4.9-5.8 7.5-8.2 2.4-2.3 5.1-4.4 7.7-6.2 1.2-.8 2.3-1.5 3.5-2.1.6-.3 1.1-.6 1.5-.8l.3-.1c.3-.2.6-.4.9-.5m2.2-2.9s-.3.1-.8.3c-.2.1-.6.2-.9.4-.4.1-.7.3-1.2.5-.4.2-.9.4-1.4.7-.5.2-1 .5-1.6.8-1.1.6-2.3 1.4-3.6 2.2-2.5 1.7-5.3 3.8-8 6.3s-5.3 5.4-7.7 8.4c-1.2 1.5-2.3 3.1-3.4 4.7s-2 3.2-2.9 4.8c-1.8 3.2-3.2 6.4-4.2 9.3-.5 1.4-.9 2.8-1.2 4-.3 1.2-.6 2.4-.7 3.3-.1.5-.2.9-.2 1.3-.1.4-.1.7-.1 1-.1.5-.1.8-.1.8s.3-.1.8-.3c.3-.1.6-.2.9-.4.4-.1.7-.3 1.2-.5.9-.4 1.9-.9 3-1.5s2.3-1.4 3.6-2.2c2.5-1.7 5.3-3.8 8-6.3 1.3-1.3 2.7-2.6 3.9-4 1.3-1.4 2.5-2.9 3.7-4.4 2.4-3.1 4.5-6.3 6.2-9.5 1.8-3.2 3.2-6.4 4.2-9.3.5-1.4.9-2.8 1.2-4 .2-.6.3-1.2.4-1.8s.2-1.1.3-1.5c.1-.5.2-.9.2-1.3.1-.4.1-.7.1-1 .3-.5.3-.8.3-.8z" class="st5"/>
    <path d="M74.1 205.6c-.2 0-.3-.1-.5-.2s-.3-.4-.3-.6c0 0 0-.3.1-.9 0-.3.1-.6.1-1s.1-.8.2-1.3c.2-1.1.4-2.2.7-3.4.4-1.4.8-2.7 1.2-4.1 1.1-3.1 2.5-6.3 4.2-9.4 1-1.7 1.9-3.4 2.9-4.9 1-1.6 2.2-3.2 3.4-4.7 2.5-3.2 5.1-6.1 7.7-8.5s5.3-4.6 8.1-6.4c1.2-.8 2.4-1.6 3.7-2.2.6-.3 1.1-.6 1.6-.9l.2-.1 1.2-.6c.4-.2.8-.4 1.2-.5.3-.1.7-.3.9-.4.5-.2.8-.3.8-.3.2-.1.5 0 .7.1s.3.4.3.6c0 0 0 .3-.1.9 0 .3-.1.6-.1 1s-.1.8-.2 1.3c-.1.4-.2.8-.3 1.3l-.1.3c-.1.6-.3 1.2-.4 1.8-.3 1.3-.8 2.7-1.3 4.1-1.1 3.1-2.5 6.3-4.2 9.4-1.7 3.2-3.8 6.4-6.3 9.6-1.2 1.6-2.5 3.1-3.7 4.5-1.2 1.3-2.5 2.7-4 4.1-2.5 2.4-5.3 4.6-8.1 6.4-1.2.8-2.5 1.6-3.7 2.2-1 .6-2.1 1.1-3.1 1.5-.4.2-.8.4-1.2.5-.3.1-.7.3-.9.4-.5.2-.8.3-.8.3.2.1.2.1.1.1zm37-48.4c-.2.1-.3.1-.5.2-.4.1-.7.3-1.2.5-.4.2-.7.3-1.1.5l-.3.1c-.5.2-1 .5-1.6.8-1.2.7-2.4 1.4-3.6 2.2-2.7 1.8-5.4 3.9-7.9 6.3-2.6 2.4-5.1 5.2-7.6 8.3-1.2 1.5-2.3 3.1-3.3 4.6s-1.9 3.1-2.9 4.8c-1.6 3-3.1 6.2-4.1 9.2-.5 1.3-.9 2.7-1.2 4-.3 1.1-.5 2.2-.7 3.2-.1.5-.1.9-.2 1.2 0 .2-.1.4-.1.6.2-.1.3-.1.5-.2.4-.1.7-.3 1.2-.5 1-.4 2-.9 3-1.5 1.2-.7 2.4-1.4 3.6-2.2 2.7-1.8 5.4-3.9 7.9-6.3 1.4-1.3 2.7-2.7 3.9-4 1.2-1.4 2.5-2.8 3.7-4.4 2.4-3.1 4.5-6.3 6.2-9.4 1.6-3 3.1-6.2 4.1-9.2.5-1.3.9-2.7 1.2-4 .2-.6.3-1.2.4-1.7l.1-.3c.1-.4.2-.8.2-1.2.1-.5.2-.9.2-1.2 0-.1 0-.3.1-.4z"/>
    <path d="M43.6 273.2c-6.6 0-12.9-2.1-18.1-6.2-6.2-4.8-10.2-11.8-11.2-19.6s1.1-15.6 6-21.8L37 203.8c5.6-7.3 14.2-11.5 23.4-11.5 6.6 0 12.9 2.1 18.1 6.2 12.9 10 15.2 28.6 5.3 41.5L67 261.7c-5.7 7.3-14.2 11.5-23.4 11.5z" class="st13"/>
    <path d="M60.4 191.5v1.8c6.4 0 12.5 2.1 17.5 6C90.4 209 92.7 227 83 239.5l-16.8 21.7c-5.5 7.1-13.7 11.1-22.7 11.1-6.4 0-12.5-2.1-17.5-6-12.5-9.7-14.8-27.7-5.1-40.2l16.8-21.7c5.5-7.1 13.7-11.1 22.7-11.1v-1.8m0 0c-9.1 0-18.1 4.1-24.1 11.8L19.5 225c-10.3 13.3-7.9 32.4 5.4 42.7 5.6 4.3 12.1 6.4 18.6 6.4 9.1 0 18.1-4.1 24.1-11.8l16.8-21.7c10.3-13.3 7.9-32.4-5.4-42.7-5.5-4.3-12.1-6.4-18.6-6.4z" class="st5"/>
    <path d="M43.5 274.8c-6.9 0-13.5-2.3-19.1-6.5-6.6-5.1-10.8-12.5-11.9-20.8-1-8.3 1.2-16.5 6.3-23.1l16.8-21.7c5.1-6.6 12.5-10.8 20.8-11.9 8.3-1.1 16.5 1.2 23.1 6.3 13.6 10.5 16.1 30.2 5.6 43.8l-16.8 21.7c-5.1 6.6-12.5 10.8-20.8 11.9-1.3.3-2.7.3-4 .3zm16.9-82.6c-8.9 0-17.7 4-23.5 11.5l-16.8 21.7c-4.9 6.3-7 14.1-6 21.9 1 7.9 5 14.9 11.3 19.7 6.3 4.9 14.1 7 21.9 6 7.9-1 14.9-5 19.7-11.3L83.8 240c10-12.9 7.7-31.6-5.3-41.7-5.3-4-11.8-6.1-18.1-6.1z"/>
    <path d="M25.5 268.4c-.4 0-.7-.3-.8-.7l-5.5-43.3c-.1-.4.2-.8.7-.8.4 0 .8.2.8.7l5.5 43.3c.1.3-.2.7-.7.8zm14 6c-.4 0-.7-.3-.8-.7l-8-63.3c-.1-.4.2-.8.7-.8.4 0 .8.2.8.7l8 63.3c.1.4-.2.7-.7.8zm12.8-1.6c-.4 0-.7-.3-.8-.7l-9.4-74.5c-.1-.4.2-.8.7-.8.4 0 .8.2.8.7L53 272c.1.4-.2.8-.7.8zm13-7.6c-.4 0-.7-.3-.8-.7l-9.2-72.4c-.1-.4.2-.8.7-.8.4 0 .8.2.8.7l9.2 72.4c.2.4-.1.8-.7.8.1 0 .1 0 0 0zM77.4 250c-.4 0-.7-.3-.8-.7l-7.1-55.9c-.1-.4.2-.8.7-.8.4-.1.8.2.8.7l7.1 55.9c.2.4-.1.8-.7.8.1 0 .1 0 0 0z"/>
    <path d="M24.6 268.1c-.4 0-.7-.3-.8-.7-.1-.4.2-.8.7-.8l43.3-5.5c.4 0 .8.2.8.7.1.4-.2.8-.7.8l-43.3 5.5zM15.7 256c-.4 0-.7-.3-.8-.7s.2-.8.7-.8l63.5-8.1c.4 0 .8.2.8.7.1.4-.2.8-.7.8L15.7 256c.1 0 .1 0 0 0zm-2.1-12.7c-.4 0-.7-.3-.8-.7s.2-.8.7-.8l75-9.5c.4-.1.8.2.8.7.1.4-.2.8-.7.8l-75 9.5zm4.1-14.6c-.4 0-.7-.3-.8-.7-.1-.4.2-.8.7-.8l72.7-9.2c.4 0 .8.2.8.7.1.4-.2.8-.7.8l-72.7 9.2zm11.7-15.5c-.4 0-.7-.3-.8-.7-.1-.4.2-.8.7-.8l55.9-7.1c.4 0 .8.2.8.7.1.4-.2.8-.7.8l-55.9 7.1zm12.3-14.4c-.4 0-.7-.3-.8-.7s.2-.8.7-.8l28.8-3.6c.4 0 .8.2.8.7.1.4-.2.8-.7.8l-28.8 3.6c.1 0 0 0 0 0z"/>
    <path d="M88.1 235.1c-.4 0-.7-.3-.8-.7l-3.6-28.8c-.1-.4.2-.8.7-.8.4 0 .8.2.8.7l3.6 28.8c.1.4-.2.8-.7.8zM65 217.4c-.2 0-.3-.1-.5-.2-.3-.3-.4-.7-.1-1.1l1.8-2.3c.3-.3.7-.4 1.1-.1.3.3.4.7.1 1.1l-1.8 2.3c-.2.2-.4.3-.6.3zm11-14.3c-.2 0-.3-.1-.5-.2-.3-.3-.4-.7-.1-1.1l1.8-2.3c.3-.3.7-.4 1.1-.1.3.3.4.7.1 1.1l-1.8 2.3c-.1.2-.4.3-.6.3zm-9.2 28.1c-.2 0-.3-.1-.5-.2-.3-.3-.4-.7-.1-1.1l1.8-2.3c.3-.3.7-.4 1.1-.1.3.3.4.7.1 1.1l-1.8 2.3c-.1.2-.4.3-.6.3zM51.1 219c-.2 0-.3-.1-.5-.2-.3-.3-.4-.7-.1-1.1l1.8-2.3c.3-.3.7-.4 1.1-.1s.4.7.1 1.1l-1.8 2.3c-.2.2-.4.3-.6.3zm27.6-3.2c-.2 0-.3-.1-.5-.2-.3-.3-.4-.7-.1-1.1l1.4-1.9c.3-.3.7-.4 1.1-.1.3.3.4.7.1 1.1l-1.4 1.9c-.1.2-.3.3-.6.3zM63 203.6c-.2 0-.3-.1-.5-.2-.3-.3-.4-.7-.1-1.1l1.8-2.3c.3-.3.7-.4 1.1-.1s.4.7.1 1.1l-1.8 2.3c-.2.2-.4.3-.6.3zm-8 42.9c-.2 0-.3-.1-.5-.2-.3-.3-.4-.7-.1-1.1l1.8-2.3c.3-.3.7-.4 1.1-.1.3.3.4.7.1 1.1l-1.8 2.3c-.2.2-.4.3-.6.3zm-15.4-12.7c-.2 0-.3-.1-.5-.2-.3-.3-.4-.7-.1-1.1l1.8-2.3c.3-.3.7-.4 1.1-.1.3.3.4.7.1 1.1l-1.8 2.3c-.1.2-.4.3-.6.3zm4.4 26.9c-.2 0-.3-.1-.5-.2-.3-.3-.4-.7-.1-1.1l1.8-2.3c.3-.3.7-.4 1.1-.1.3.3.4.7.1 1.1l-1.8 2.3c-.2.2-.4.3-.6.3zm1.2 11.9c-.2 0-.3-.1-.5-.2-.3-.3-.4-.7-.1-1.1l1.8-2.3c.3-.3.7-.4 1.1-.1.3.3.4.7.1 1.1l-1.8 2.3c-.1.2-.4.3-.6.3zm-28.8-22.4c-.2 0-.3-.1-.5-.2-.3-.3-.4-.7-.1-1.1l1.8-2.3c.3-.3.7-.4 1.1-.1.3.3.4.7.1 1.1l-1.8 2.3c-.2.2-.4.3-.6.3zM27 235.5c-.2 0-.3-.1-.5-.2-.3-.3-.4-.7-.1-1.1l1.8-2.3c.3-.3.7-.4 1.1-.1.3.3.4.7.1 1.1l-1.8 2.3c-.2.2-.4.3-.6.3zm29.9 23.1c-.2 0-.3-.1-.5-.2-.3-.3-.4-.7-.1-1.1l1.8-2.3c.3-.3.7-.4 1.1-.1.3.3.4.7.1 1.1l-1.8 2.3c-.2.2-.4.3-.6.3zm-18.8-37.5c-.2 0-.3-.1-.5-.2-.3-.3-.4-.7-.1-1.1l1.8-2.3c.3-.3.7-.4 1.1-.1.3.3.4.7.1 1.1l-1.8 2.3c-.2.2-.4.3-.6.3zm-1.4-14c-.2 0-.3-.1-.5-.2-.3-.3-.4-.7-.1-1.1l1.8-2.3c.3-.3.7-.4 1.1-.1.3.3.4.7.1 1.1l-1.8 2.3c-.2.2-.4.3-.6.3zm43.6 34.5c-.2 0-.3-.1-.5-.2-.3-.3-.4-.7-.1-1.1l1.8-2.3c.3-.3.7-.4 1.1-.1.3.3.4.7.1 1.1l-1.8 2.3c-.2.2-.4.3-.6.3zm-54.9-20c-.2 0-.3-.1-.5-.2-.3-.3-.4-.7-.1-1.1l1.8-2.3c.3-.3.7-.4 1.1-.1.3.3.4.7.1 1.1l-1.8 2.3c-.1.2-.4.3-.6.3zm44.3 35.1c-.2 0-.3-.1-.5-.2-.3-.3-.4-.7-.1-1.1l1.8-2.3c.3-.3.7-.4 1.1-.1.3.3.4.7.1 1.1l-1.8 2.3c-.1.2-.4.3-.6.3zm-55.2-19.3c-.2 0-.3-.1-.5-.2-.3-.3-.4-.7-.1-1.1l1.8-2.3c.3-.3.7-.4 1.1-.1.3.3.4.7.1 1.1l-1.8 2.3c-.1.2-.4.3-.6.3zm43.2 33.4c-.2 0-.3-.1-.5-.2-.3-.3-.4-.7-.1-1.1l1.8-2.3c.3-.3.7-.4 1.1-.1.3.3.4.7.1 1.1l-1.8 2.3c-.2.2-.4.3-.6.3zM68 244.3c-.2 0-.3-.1-.5-.2-.3-.3-.4-.7-.1-1.1l1.8-2.3c.3-.3.7-.4 1.1-.1.3.3.4.7.1 1.1l-1.8 2.3c-.2.2-.4.3-.6.3zm-17.9-38.7c-.2 0-.3-.1-.5-.2-.3-.3-.4-.7-.1-1.1l1.8-2.3c.3-.3.7-.4 1.1-.1.3.3.4.7.1 1.1l-1.8 2.3c-.1.2-.4.3-.6.3zm29.5 23.6c-.2 0-.3-.1-.5-.2-.3-.3-.4-.7-.1-1.1l1.8-2.3c.3-.3.7-.4 1.1-.1.3.3.4.7.1 1.1l-1.8 2.3c-.1.2-.3.3-.6.3zm-51.4 19.2c-.2 0-.3-.1-.5-.2-.3-.3-.4-.7-.1-1.1l1.8-2.3c.3-.3.7-.4 1.1-.1s.4.7.1 1.1l-1.8 2.3c-.1.2-.3.3-.6.3zm25.3-16.2c-.2 0-.3-.1-.5-.2-.3-.3-.4-.7-.1-1.1l1.8-2.3c.3-.3.7-.4 1.1-.1.3.3.4.7.1 1.1l-1.8 2.3c-.2.2-.4.3-.6.3zm-12.1 15.6c-.2 0-.3-.1-.5-.2-.3-.3-.4-.7-.1-1.1l1.8-2.3c.3-.3.7-.4 1.1-.1.3.3.4.7.1 1.1l-1.8 2.3c-.1.2-.4.3-.6.3zm-10.8 14c-.2 0-.3-.1-.5-.2-.3-.3-.4-.7-.1-1.1l1.8-2.3c.3-.3.7-.4 1.1-.1.3.3.4.7.1 1.1l-1.8 2.3c-.2.2-.4.3-.6.3zm54.5-70.2c-.2 0-.3-.1-.5-.2-.3-.3-.4-.7-.1-1.1l18.3-23.6c.3-.3.7-.4 1.1-.1.3.3.4.7.1 1.1l-18.3 23.6c-.2.2-.4.3-.6.3z"/>
  </g>
  <g id="Spinach">
    <path d="M40.9 119.1c-.2 0-.3 0-.5-.1l-1.6-.5c-.2-.1-.3-.2-.3-.3 0-.1-.1-.3 0-.5l13.8-26c1.6-3.1 2-6.6 1-10-1.2-3.9-2-10.2.6-18.1.8-2.6 1.3-5 1.2-7.3 0-3.8.7-9.2 4.4-13.1 1.5-1.5 2.4-3.7 2.6-6 .5-4.8 2.3-13.2 8.9-16.1 1.9-.8 3.6-1.8 5.1-3 5-4 15-10.8 26.1-10.8 2 0 3.9.2 5.7.6 3.3.8 6.2 2.5 8.4 5 3.5 4.1 7.5 11.1 6.1 20.9-.3 2-.4 3.6-.3 5.1.1 5.2-.5 18.2-9.2 27.2-1.6 1.7-3 3.5-4 5.4-1.6 3.1-4.9 7.3-11.2 9.7-1.7.7-3.3 1.6-4.7 2.8-3 2.5-9.3 6.6-18 6.6h-.7c-13.1 0-20.9 10.4-21.2 10.9l-11 16.7c-.1.6-.6.9-1.2.9z" class="st4"/>
    <path d="M102.3 6.7v1.5c1.9 0 3.8.2 5.6.6 3.2.7 5.9 2.4 8 4.8 3.4 4 7.3 10.7 6 20.3-.3 2.1-.4 3.7-.4 5.3.1 5.1-.5 17.8-9 26.6-1.7 1.8-3.1 3.6-4.1 5.6-1.6 3-4.7 7-10.8 9.3-1.8.7-3.4 1.7-4.9 2.9-2.9 2.4-9 6.5-17.5 6.5h-.8C61 90 53 100.8 52.6 101.2v.1l-11 16.7c-.2.2-.4.4-.7.4h-.2l-1.3-.4L53 92.1c1.7-3.3 2.1-7 1-10.5-1.1-3.8-1.9-9.9.6-17.6.9-2.6 1.3-5.2 1.3-7.6 0-3.7.7-8.9 4.2-12.6 1.6-1.7 2.6-3.9 2.8-6.4.5-4.6 2.2-12.7 8.5-15.4 2-.9 3.8-1.9 5.3-3.1C88.5 9.2 98.5 8.2 102.3 8.2V6.7m0 0c-11.6 0-22 7.2-26.6 10.9-1.5 1.2-3.2 2.1-4.9 2.9-7 3-8.9 11.7-9.4 16.7-.2 2.1-1 4-2.4 5.5-4 4.2-4.7 10-4.6 13.7 0 2.4-.5 4.8-1.2 7.1-2.7 8.1-1.8 14.6-.6 18.6.9 3.1.6 6.5-.9 9.4l-13.8 26c-.4.7 0 1.6.8 1.9l1.6.5c.2.1.5.1.7.1.8 0 1.6-.4 2-1.1l10.9-16.7s7.7-10.6 20.6-10.6h.7c9 0 15.5-4.3 18.5-6.8 1.3-1.1 2.8-2 4.5-2.6 6.6-2.6 10-7.1 11.6-10.1 1-1.9 2.3-3.7 3.9-5.2 8.9-9.2 9.6-22.4 9.4-27.7 0-1.7.1-3.3.3-5 1.4-10.3-2.9-17.6-6.3-21.5-2.3-2.7-5.4-4.5-8.8-5.3-2.1-.5-4.1-.7-6-.7z" class="st5"/>
    <path d="M40.9 120.5c-.3 0-.6 0-.9-.1l-1.6-.5c-.6-.2-1-.6-1.2-1.1s-.2-1.1.1-1.7l13.8-26c1.5-2.7 1.8-5.9.9-8.9-1.2-4.1-2.1-10.7.6-18.9.8-2.4 1.2-4.7 1.2-6.9 0-4.1.8-9.9 4.8-14.1 1.2-1.3 2-3.1 2.2-5.2.5-5.1 2.5-14.1 9.8-17.2 1.8-.8 3.4-1.7 4.8-2.8 5.2-4.2 18.8-13.7 33-10.4 3.6.8 6.8 2.7 9.2 5.5 3.7 4.3 7.9 11.6 6.5 22-.3 2-.4 3.5-.3 4.9.1 5.4-.5 18.8-9.6 28.2-1.6 1.6-2.8 3.3-3.8 5.1-1.8 3.3-5.2 7.8-11.9 10.3-1.6.6-3 1.5-4.3 2.5-3.2 2.7-10 7.1-19.4 7-12.6-.2-20.3 10.2-20.4 10.3l-10.9 16.7c-.6.8-1.6 1.3-2.6 1.3zM102.3 7.3c-11.5 0-21.9 7.3-26.2 10.8-1.4 1.2-3.1 2.2-5.1 3-6.7 2.9-8.5 11.4-9 16.2-.2 2.3-1.2 4.4-2.6 5.9-3.7 3.9-4.5 9.4-4.5 13.2 0 2.3-.4 4.7-1.2 7.3-2.6 8-1.8 14.3-.6 18.2 1 3.3.7 6.8-1 9.9l-13.8 26c-.1.2-.1.4 0 .6s.2.3.4.4l1.6.5c.8.2 1.6-.1 2-.7l10.9-16.7c.3-.5 8.1-10.8 21.1-10.8h.4c9 .1 15.5-4.1 18.5-6.7 1.4-1.2 2.9-2.1 4.6-2.7 6.3-2.4 9.6-6.7 11.2-9.8 1-1.9 2.3-3.7 4-5.4 8.7-9 9.4-22.1 9.2-27.3 0-1.5.1-3.1.3-5.1 1.4-9.9-2.6-16.9-6.2-21-2.2-2.5-5.1-4.3-8.5-5.1-1.7-.5-3.6-.7-5.5-.7z"/>
    <path d="M66 79c-.1 0-.3 0-.4-.1-.3-.2-.3-.6-.1-.9l39.6-52.8c.2-.3.6-.3.9-.1.3.2.3.6.1.9L66.5 78.7c-.1.2-.3.3-.5.3z"/>
    <path d="M76.3 135.3c-1.5 0-2.7-.9-3.2-2.4l-5.8-19.1c0-.1-4.5-12.1-16.4-15.4-9.1-2.6-14.4-8.8-16.7-12.3-.9-1.4-2-2.6-3.3-3.6-5.7-4.4-7.8-9.7-8.6-13.4-.4-1.9-1.1-3.9-2.1-5.9-6.1-11.7-2.9-24.8-1.2-30 .4-1.3.8-2.8 1.1-4.8C21.7 18 27.8 12.1 32.7 8.9c2.8-1.8 6-2.7 9.4-2.7h1.1c14.5 1.1 25 14.1 28.8 19.6 1 1.4 2.2 2.7 3.7 4 6.2 5.2 5.5 14.4 4.6 19.5-.4 1.9-.1 3.9.7 5.4 2.7 5.3 1.8 11.1.6 15.1-.6 2-.9 4.3-.8 6.9.3 8.8-2.5 14.9-4.8 18.5-1.7 2.6-2.3 5.6-1.7 8.6l5.8 28.9c.1.6 0 1.3-.5 1.8-.4.5-1 .8-1.7.8h-1.6z" class="st5"/>
    <path d="M42 7.3h1.1c14.2.9 24.3 13.4 28.2 19.1 1.1 1.6 2.4 3 3.9 4.2 5.8 4.9 5.2 13.7 4.3 18.7-.4 2-.2 4.2.8 6 2.6 5.1 1.6 10.9.6 14.4-.7 2.3-.9 4.7-.9 7.1.3 8.6-2.4 14.5-4.7 18-1.8 2.7-2.4 6.1-1.8 9.3l5.8 28.9c.2.8-.5 1.6-1.3 1.6h-1.6c-1.1 0-2-.7-2.3-1.7l-5.8-19.1s-4.5-12.5-17.1-16c-8.9-2.5-14-8.6-16.2-11.9-1-1.4-2.2-2.7-3.5-3.8-5.6-4.4-7.6-9.7-8.2-12.9-.4-2.1-1.2-4.2-2.2-6.1-5.9-11.4-2.8-24.2-1.2-29.3.5-1.6.8-3.2 1.1-4.9 1.6-10.3 7.8-16 12.2-18.8 2.5-2 5.6-2.8 8.8-2.8m0-1.8c-3.5 0-7 1-9.9 2.9-5 3.2-11.3 9.3-13 20.1-.3 1.9-.6 3.3-1 4.6-1.7 5.2-5 18.7 1.3 30.7 1 1.9 1.7 3.8 2.1 5.6.8 3.8 3 9.4 8.9 14 1.2 1 2.3 2.1 3.1 3.4 2.4 3.6 7.8 10 17.2 12.6 11.2 3.1 15.6 14.2 15.8 14.9l5.7 19c.5 1.8 2.2 3 4 3H78c.9 0 1.8-.4 2.4-1.1.6-.7.8-1.7.6-2.6l-5.8-28.9c-.6-2.7 0-5.6 1.5-7.9 2.4-3.7 5.2-10 5-19-.1-2.4.2-4.6.8-6.6 1.3-4.1 2.2-10.2-.7-15.8-.7-1.4-.9-3.1-.6-4.8 1-5.3 1.7-14.9-4.9-20.4-1.4-1.2-2.6-2.5-3.6-3.8-2.2-3.1-5.7-7.7-10.6-11.7-6.1-5-12.5-7.7-19-8.1-.3-.1-.7-.1-1.1-.1z" class="st5"/>
    <path d="M76.3 135.3c-1.5 0-2.7-.9-3.2-2.4l-5.8-19.1c0-.1-4.5-12.1-16.4-15.4-9.1-2.6-14.4-8.8-16.7-12.3-.9-1.4-2-2.6-3.3-3.6-5.7-4.4-7.8-9.7-8.6-13.4-.4-1.9-1.1-3.9-2.1-5.9-6.1-11.7-2.9-24.8-1.2-30 .4-1.3.8-2.8 1.1-4.8C21.7 18 27.8 12.1 32.7 8.9c2.8-1.8 6-2.7 9.4-2.7h1.1c14.5 1.1 25 14.1 28.8 19.6 1 1.4 2.2 2.7 3.7 4 6.2 5.2 5.5 14.4 4.6 19.5-.4 1.9-.1 3.9.7 5.4 2.7 5.3 1.8 11.1.6 15.1-.6 2-.9 4.3-.8 6.9.3 8.8-2.5 14.9-4.8 18.5-1.7 2.6-2.3 5.6-1.7 8.6l5.8 28.9c.1.6 0 1.3-.5 1.8-.4.5-1 .8-1.7.8h-1.6z" class="st5"/>
    <path d="M42 7.3h1.1c14.2.9 24.3 13.4 28.2 19.1 1.1 1.6 2.4 3 3.9 4.2 5.8 4.9 5.2 13.7 4.3 18.7-.4 2-.2 4.2.8 6 2.6 5.1 1.6 10.9.6 14.4-.7 2.3-.9 4.7-.9 7.1.3 8.6-2.4 14.5-4.7 18-1.8 2.7-2.4 6.1-1.8 9.3l5.8 28.9c.2.8-.5 1.6-1.3 1.6h-1.6c-1.1 0-2-.7-2.3-1.7l-5.8-19.1s-4.5-12.5-17.1-16c-8.9-2.5-14-8.6-16.2-11.9-1-1.4-2.2-2.7-3.5-3.8-5.6-4.4-7.6-9.7-8.2-12.9-.4-2.1-1.2-4.2-2.2-6.1-5.9-11.4-2.8-24.2-1.2-29.3.5-1.6.8-3.2 1.1-4.9 1.6-10.3 7.8-16 12.2-18.8 2.5-2 5.6-2.8 8.8-2.8m0-1.8c-3.5 0-7 1-9.9 2.9-5 3.2-11.3 9.3-13 20.1-.3 1.9-.6 3.3-1 4.6-1.7 5.2-5 18.7 1.3 30.7 1 1.9 1.7 3.8 2.1 5.6.8 3.8 3 9.4 8.9 14 1.2 1 2.3 2.1 3.1 3.4 2.4 3.6 7.8 10 17.2 12.6 11.2 3.1 15.6 14.2 15.8 14.9l5.7 19c.5 1.8 2.2 3 4 3H78c.9 0 1.8-.4 2.4-1.1.6-.7.8-1.7.6-2.6l-5.8-28.9c-.6-2.7 0-5.6 1.5-7.9 2.4-3.7 5.2-10 5-19-.1-2.4.2-4.6.8-6.6 1.3-4.1 2.2-10.2-.7-15.8-.7-1.4-.9-3.1-.6-4.8 1-5.3 1.7-14.9-4.9-20.4-1.4-1.2-2.6-2.5-3.6-3.8-2.2-3.1-5.7-7.7-10.6-11.7-6.1-5-12.5-7.7-19-8.1-.3-.1-.7-.1-1.1-.1z" class="st5"/>
    <path d="M76.3 133.7c-.7 0-1.4-.5-1.6-1.2L69 113.4c-.2-.6-4.8-13-17.6-16.6-8.6-2.4-13.6-8.3-15.8-11.6-1-1.5-2.3-2.8-3.7-4-5.3-4.1-7.2-9-7.9-12.5-.4-2.1-1.2-4.2-2.3-6.3-5.8-11.1-2.7-23.8-1.1-28.7.5-1.4.8-3 1.1-5 1.5-9.8 7.2-15.4 11.8-18.3C36 8.9 38.9 8 42 8h1c13.9.9 24 13.4 27.6 18.7 1 1.5 2.4 3 4 4.3 5.6 4.6 4.9 13.2 4 17.9-.4 2.3-.2 4.6.8 6.5 2.5 4.8 1.6 10.2.5 13.8-.7 2.2-1 4.7-.9 7.4.3 8.3-2.3 14.1-4.5 17.5-1.9 2.9-2.6 6.4-1.9 9.8l5.8 28.9c0 .2-.1.4-.1.4-.1.1-.2.2-.4.2h-1.6v.3z" class="st4"/>
    <path d="M42 8.8h1c13.5.9 23.4 13.2 27 18.4 1.1 1.6 2.5 3.1 4.2 4.5 5.3 4.4 4.6 12.7 3.7 17.2-.5 2.5-.2 4.9.9 7 2.3 4.6 1.5 9.7.5 13.3-.7 2.3-1 4.9-.9 7.6.3 8.1-2.3 13.8-4.4 17.1-2 3.1-2.7 6.8-2 10.4l5.8 28.6h-1.3c-.4 0-.7-.3-.8-.6l-5.8-19.1v-.1c-.2-.5-4.9-13.3-18.1-17-8.4-2.3-13.2-8.1-15.4-11.3-1.1-1.6-2.4-3-3.9-4.1-5.1-4-7-8.7-7.7-12-.4-2.2-1.2-4.4-2.4-6.5-5.7-10.8-2.6-23.3-1.1-28.1.5-1.5.8-3.1 1.1-5.1 1.5-9.5 7-14.9 11.5-17.8 2.4-1.6 5.2-2.4 8.1-2.4m0-1.5c-3.2 0-6.2.9-8.9 2.6-4.4 2.8-10.6 8.5-12.2 18.8-.3 1.7-.6 3.3-1.1 4.9-1.6 5.1-4.8 17.9 1.2 29.3 1 1.9 1.8 4 2.2 6.1.7 3.3 2.6 8.6 8.2 12.9 1.4 1.1 2.6 2.3 3.5 3.8 2.2 3.3 7.3 9.4 16.2 11.9 12.5 3.5 17.1 16 17.1 16l5.8 19.1c.3 1 1.2 1.7 2.3 1.7H78c.8 0 1.4-.8 1.3-1.6L73.4 104c-.6-3.2 0-6.5 1.8-9.3 2.3-3.4 4.9-9.4 4.7-18-.1-2.4.1-4.8.9-7.1 1.1-3.5 2.1-9.3-.6-14.4-.9-1.8-1.1-4-.8-6 .9-4.9 1.6-13.8-4.3-18.7-1.5-1.2-2.8-2.6-3.9-4.2-3.8-5.6-14-18.1-28.2-19h-1z" class="st5"/>
    <path d="M78 135.1h-1.6c-1.4 0-2.5-.9-2.9-2.2l-5.8-19.1c0-.1-4.6-12.2-16.6-15.6C42 95.6 36.8 89.5 34.5 86c-.9-1.4-2.1-2.6-3.4-3.6-5.6-4.4-7.7-9.6-8.5-13.3-.4-2-1.1-4-2.2-5.9-6-11.6-2.9-24.7-1.2-29.8.4-1.4.8-2.8 1.1-4.8 1.6-10.3 7.6-16.2 12.4-19.3 3.1-2 6.6-2.9 10.3-2.6 14.6.9 25 13.8 28.8 19.3 1 1.4 2.2 2.8 3.8 4 6.1 5.1 5.4 14.3 4.5 19.3-.4 2-.1 4 .7 5.6 2.7 5.2 1.8 11 .6 14.9-.6 2.1-.9 4.4-.8 6.9.3 8.7-2.4 14.8-4.8 18.3-1.7 2.6-2.3 5.7-1.7 8.8l5.8 28.9c.1.6 0 1.2-.4 1.6-.4.5-1 .8-1.5.8zM42 7.9c-3.1 0-6 .8-8.5 2.5-4.6 2.9-10.4 8.5-11.9 18.4-.3 2-.7 3.6-1.1 5-1.6 4.9-4.7 17.6 1.1 28.8 1.1 2.1 1.9 4.2 2.3 6.3.7 3.4 2.7 8.4 8 12.5 1.4 1.1 2.7 2.4 3.7 3.9 2.2 3.3 7.2 9.2 15.9 11.6 12.7 3.6 17.3 15.9 17.5 16.4l5.8 19.1c.2.8.9 1.3 1.7 1.3H78c.2 0 .4-.1.5-.2.1-.2.2-.4.1-.6L72.8 104c-.7-3.4 0-6.8 1.9-9.7 2.2-3.4 4.8-9.2 4.6-17.6-.1-2.7.2-5.2.9-7.3 1.1-3.7 2-9.1-.5-13.9-1-1.9-1.2-4.1-.8-6.4.9-4.7 1.6-13.4-4-18.1-1.6-1.3-3-2.8-4-4.3C67.1 21.4 57 8.8 43 7.9h-1zm-8.9 2z"/>
    <path d="M63.4 88c-.3 0-.5-.2-.6-.4L39.7 25.7c-.1-.3 0-.7.4-.8.3-.1.7 0 .8.4L64 87.1c.1.3 0 .7-.4.8-.1.1-.2.1-.2.1z"/>
  </g>
</svg>
