<?xml version="1.0" encoding="utf-8"?>
<!-- Generator: Adobe Illustrator 20.0.0, SVG Export Plug-In . SVG Version: 6.00 Build 0)  -->
<svg version="1.2" baseProfile="tiny" id="Layer_1" xmlns="http://www.w3.org/2000/svg" xmlns:xlink="http://www.w3.org/1999/xlink"
	 x="0px" y="0px" viewBox="0 0 65.6 67.3" xml:space="preserve">
<g>
	<path fill="none" stroke="#000000" stroke-width="0.9" stroke-miterlimit="10" d="M32.2,11.5c-5.4,4.6-11.4,8.2-18.1,9.7
		c-0.4,0.1-0.8,0.5-0.8,1c0.2,16.6,6.6,27.8,19.1,33.8c0.3,0.1,0.6,0.1,0.8,0c12.5-6,18.9-17.2,19.1-33.8c0-0.5-0.3-0.9-0.8-1
		c-6.7-1.5-12.7-5.1-18.1-9.7C33.1,11.2,32.5,11.2,32.2,11.5z"/>
	<path fill="none" stroke="#000000" stroke-width="0.9" stroke-miterlimit="10" d="M51.8,29.7C45,28.4,39,24.8,33.6,20.2
		c-0.4-0.3-0.9-0.3-1.2,0c-5.5,4.6-11.4,8.1-18.2,9.5"/>
	<path fill-rule="evenodd" fill="#76C500" d="M40.5,43.1c0,0,0-0.1,0-0.1c0,0,0-0.1,0-0.1c0-0.1,0-0.2,0-0.3c0,0,0,0,0,0
		c0-1.4,0-2.9,0-4.3c0-1.5,0-3.1,0-4.6c0-0.5-0.4-0.9-0.9-0.9c-0.1,0-0.2,0-0.3,0c0,0,0,0,0,0c-0.2,0-0.4,0-0.6,0
		c-0.8,0-1.2,0.4-1.2,1.2c0,0.7,0,1.3,0,2c0,0,0,0.1,0,0.1c-0.1,0.1-0.2,0.2-0.5,0.2c-1.3-0.2-2.6-0.3-3.9-0.3c0,0-0.1,0-0.1,0
		c0,0-0.1,0-0.1,0c-1.3,0-2.6,0.1-3.9,0.3c-0.3,0-0.4,0-0.5-0.2c0,0,0-0.1,0-0.1c0-0.7,0-1.3,0-2c0-0.8-0.4-1.2-1.2-1.2
		c-0.2,0-0.4,0-0.6,0c0,0,0,0,0,0c-0.1,0-0.2,0-0.3,0c-0.5,0-0.9,0.4-0.9,0.9c0,1.5,0,3.1,0,4.6c0,1.4,0,2.9,0,4.3c0,0,0,0,0,0
		c0,0.1,0,0.2,0,0.3c0,0,0,0.1,0,0.1c0,0,0,0.1,0,0.1c0,0.1,0,0.1,0,0.2c0,0,0,0,0,0c0.1,0.2,0.2,0.4,0.4,0.5
		c0.2,0.1,0.5,0.2,0.8,0.2c0,0,0,0,0.1,0c0,0,0,0,0,0c0.6,0,0.9-0.1,1.2-0.3c0.3-0.2,0.4-0.5,0.4-1.1c0-1,0-2,0-2.9
		c0-0.5,0.2-0.7,0.6-0.7c1.1-0.2,2.3-0.3,3.5-0.3c0.1,0,0.3,0,0.4,0c0.1,0,0.3,0,0.4,0c1.2,0,2.3,0.1,3.5,0.3
		c0.4,0.1,0.7,0.2,0.6,0.7c0,1,0,2,0,2.9c0,0.5,0.1,0.9,0.4,1.1c0.2,0.2,0.6,0.3,1.2,0.3c0,0,0,0,0,0c0,0,0,0,0.1,0
		c0.4,0,0.6-0.1,0.8-0.2c0.2-0.1,0.4-0.3,0.4-0.5c0,0,0,0,0,0C40.4,43.2,40.4,43.1,40.5,43.1z"/>
</g>
</svg>
