<?xml version="1.0" encoding="utf-8"?>
<!-- Generator: Adobe Illustrator 20.0.0, SVG Export Plug-In . SVG Version: 6.00 Build 0)  -->
<svg version="1.2" baseProfile="tiny" id="Layer_1" xmlns="http://www.w3.org/2000/svg" xmlns:xlink="http://www.w3.org/1999/xlink"
	 x="0px" y="0px" viewBox="0 0 71.2 67.3" xml:space="preserve">
<g>
	<g>
		<path fill="none" stroke="#000000" stroke-width="0.9" stroke-linecap="round" stroke-miterlimit="10" d="M29.4,38.3
			c-0.7-0.9-1.6-1.6-2.6-2.2c-1.4-0.8-3.5-1.2-5.3-1.2c-1.6,0-3.1,0.5-4.5,1l0,0l0,0c-1.3-0.5-2.9-1-4.5-1c-1.8,0-3.9,0.5-5.3,1.2
			c-5.7,3.1-5.9,11.7-4.5,16.8C4,57.9,8.6,63.1,14,63.1c0.6,0,1.2-0.1,1.8-0.2c0.3-0.1,0.7-0.2,1-0.3c0.2-0.1,0.4-0.1,0.5,0
			c0.3,0.1,0.7,0.2,1,0.3c0.6,0.1,1.2,0.2,1.8,0.2l0,0c1.2,0,2.5-0.2,3.6-0.8c1.6-0.9,3.8-2.6,5.4-4.9 M30.7,55"/>
		<path fill="#FFFFFF" stroke="#000000" stroke-width="0.9" stroke-miterlimit="10" d="M13.3,37.6c-3.2-1.2-6.8,1.3-7.5,4.7"/>
		<path fill="#FFFFFF" stroke="#000000" stroke-width="0.9" stroke-miterlimit="10" d="M18.3,33.1c1.9,0,3.3-0.6,4.2-1.6
			c1.4-1.8,1-4.2,1-4.3c-0.1-0.4-0.4-0.6-0.7-0.6c-1.9,0-3.3,0.6-4.2,1.7C17,29.9,17.9,33.1,18.3,33.1z"/>
		<path fill="none" stroke="#000000" stroke-width="0.9" stroke-linecap="round" stroke-miterlimit="10" d="M17,34.6
			c0,0,0.2-1.2,1.3-1.5"/>
		<path fill="#76C500" d="M19.3,31.6c1,0,1.8-0.3,2.3-0.9c0.8-1,0.5-2.3,0.5-2.4c0-0.2-0.2-0.3-0.4-0.3c-1,0-1.8,0.3-2.3,0.9
			C18.6,29.9,19.1,31.6,19.3,31.6z"/>
	</g>
	<g>
		<path fill="#76C500" d="M60.3,39.5c-3.4,0-6.2,2.8-6.2,6.2v0.2l0,0c0,0.1,0,0.2,0,0.3l0,0l0,0l0,0.1h0l0,0.1l0,0l0,0
			c0.1,0.8,0.3,1.5,0.7,2.2l0,0.1l0,0.1c0.7,1.4,1.7,2.7,3,4c0.9,0.9,1.6,1.6,2.3,2.4c0.6-0.7,1.2-1.4,2-2.2
			c0.3-0.3,0.6-0.6,0.9-0.9c1.5-1.5,3.4-3.4,3.4-6.4C66.5,42.3,63.7,39.5,60.3,39.5z"/>
		
			<path fill="none" stroke="#000000" stroke-width="0.9" stroke-linecap="round" stroke-linejoin="round" stroke-miterlimit="10" d="
			M58.3,30.8c0,0-0.8-13.2-5.2-15.9s-7.1,0-7.1,0s-5.5-3.6-10.7,0.3s2.3,13.1,7.1,13c0,0,0.5,5.3,7,3.7S58.3,30.8,58.3,30.8z"/>
		
			<path fill="none" stroke="#000000" stroke-width="0.9" stroke-linecap="round" stroke-linejoin="round" stroke-miterlimit="10" d="
			M60.1,26.9c0,0,5.1,0.1,7.6-4.1c2.5-4.3,0-7.2,0-7.2S71.2,5.7,66,4S55.7,15.4,60.1,26.9z"/>
		
			<path fill="none" stroke="#000000" stroke-width="0.9" stroke-linecap="round" stroke-linejoin="round" stroke-miterlimit="10" d="
			M58.3,30.8c0,0-0.8-13.2-5.2-15.9s-7.1,0-7.1,0s-5.5-3.6-10.7,0.3s2.3,13.1,7.1,13c0,0,0.5,5.3,7,3.7S58.3,30.8,58.3,30.8z"/>
		
			<path fill="none" stroke="#000000" stroke-width="0.9" stroke-linecap="round" stroke-linejoin="round" stroke-miterlimit="10" d="
			M60.1,26.9c0,0,5.1,0.1,7.6-4.1c2.5-4.3,0-7.2,0-7.2S71.2,5.7,66,4S55.7,15.4,60.1,26.9z"/>
		
			<path fill="none" stroke="#000000" stroke-width="0.9" stroke-linecap="round" stroke-linejoin="round" stroke-miterlimit="10" d="
			M60.3,36.1c-5.4,0-9.7,4.3-9.7,9.7c0,0,0,0.3,0,0.9c0,0.1,0,0.2,0,0.2c0,0,0,0.1,0,0.1c0.2,1.2,0.5,2.4,1.1,3.4
			c0.7,1.5,1.9,3.2,3.7,5c4.8,4.6,4.6,6,4.6,6s0.7-1.8,4.6-6c1.5-1.7,5.3-4.4,5.3-9.7C70,40.4,65.7,36.1,60.3,36.1z"/>
		
			<path fill="none" stroke="#000000" stroke-width="0.9" stroke-linecap="round" stroke-linejoin="round" stroke-miterlimit="10" d="
			M60.1,36.1c0,0-3-14.4-14.1-15.8"/>
		
			<path fill="none" stroke="#000000" stroke-width="0.9" stroke-linecap="round" stroke-linejoin="round" stroke-miterlimit="10" d="
			M59.7,34.4c0,0-0.5-7.2,2.5-16.3"/>
	</g>
	<g>
		<circle fill="none" stroke="#000000" stroke-width="0.9" stroke-miterlimit="10" cx="37.8" cy="48.7" r="9.4"/>
		<circle fill="#76C500" cx="37.8" cy="48.7" r="7.2"/>
		
			<line fill="none" stroke="#FFFFFF" stroke-width="0.9" stroke-linecap="round" stroke-miterlimit="10" x1="37.8" y1="45" x2="37.8" y2="51.9"/>
		
			<line fill="none" stroke="#FFFFFF" stroke-width="0.9" stroke-linecap="round" stroke-miterlimit="10" x1="41.2" y1="48.4" x2="34.3" y2="48.4"/>
	</g>
</g>
</svg>
