<svg id="Layer_3" data-name="Layer 3" xmlns="http://www.w3.org/2000/svg" viewBox="0 0 70 70"><defs><style>.cls-1,.cls-2{fill:#c5454e;}.cls-1,.cls-5{stroke:#fff;}.cls-1,.cls-6{stroke-linecap:round;stroke-linejoin:round;}.cls-1{stroke-width:2.1px;}.cls-3{fill:#fff;}.cls-4{fill:#231f20;}.cls-5{fill:#fde3b8;stroke-miterlimit:10;stroke-width:2.2px;}.cls-6{fill:none;stroke:#231f20;stroke-width:1.63px;}</style></defs><path class="cls-1" d="M24,16.46a20.84,20.84,0,1,1-8.66,4.82"/><g id="_Group_" data-name="&lt;Group&gt;"><path class="cls-2" d="M22.7,15.76h0a6.62,6.62,0,0,0-.18,4c-1.3-1.68-4.08-1.49-4.08-1.49a11.54,11.54,0,0,0,.48,4.8c-0.1-.15-2.68-4.24-7-3.28h0s2.48-1.3,4.38-.29c0,0-1.94-4.32-1.47-5.78,0,0,2.42.14,5.28,3.31,0,0,.17-4.49,1.13-5.45C21.24,11.62,22.34,12.57,22.7,15.76Z"/><path class="cls-3" d="M18.94,23.84a0.72,0.72,0,0,1-.63-0.37,7.74,7.74,0,0,0-1.68-1.82A0.72,0.72,0,0,1,15.3,22c-0.69-1.1-2.75-1.38-3.48-1.39a0.72,0.72,0,0,1-.13-1.42c4.9-1.09,7.74,3.4,7.86,3.59h0a0.73,0.73,0,0,1,.11.38A0.72,0.72,0,0,1,18.94,23.84Z"/><path class="cls-3" d="M18.93,23.84a0.72,0.72,0,0,1-.69-0.51,12,12,0,0,1-.49-5.17,0.72,0.72,0,0,1,.65-0.56,7.19,7.19,0,0,1,3.17.58,6.22,6.22,0,0,1,.48-2.7,4.45,4.45,0,0,1,1.87-2.09,0.72,0.72,0,0,1,.89,1.12h0a0.69,0.69,0,0,1-.15.11,3,3,0,0,0-1.29,1.43,5.88,5.88,0,0,0-.15,3.54,0.72,0.72,0,0,1-1.26.64A4,4,0,0,0,19.08,19a12,12,0,0,0,.54,3.86,0.72,0.72,0,0,1-.47.9A0.7,0.7,0,0,1,18.93,23.84Z"/><path class="cls-3" d="M23.83,19a0.72,0.72,0,0,1-.68-0.5,5.71,5.71,0,0,1,.58-4.91,0.72,0.72,0,1,1,1.17.84A4.23,4.23,0,0,0,24.52,18a0.72,0.72,0,0,1-.46.91A0.71,0.71,0,0,1,23.83,19Z"/><path class="cls-3" d="M11.92,20.55a0.72,0.72,0,0,1-.33-1.36,7,7,0,0,1,3.48-.73c-0.58-1.51-1.3-3.77-.92-4.92a0.7,0.7,0,0,1,.73-0.5,8.41,8.41,0,0,1,4.63,2.4c0.15-1.55.48-3.58,1.23-4.33a0.72,0.72,0,0,1,1,0c0.13,0.12,1.32,1.23,1.7,4.6a0.72,0.72,0,1,1-1.43.16,9.76,9.76,0,0,0-.64-2.7,21.26,21.26,0,0,0-.5,4,0.72,0.72,0,0,1-1.25.46,9.8,9.8,0,0,0-4.09-2.91A18.42,18.42,0,0,0,17,19.25a0.72,0.72,0,0,1-1,.93c-1.52-.81-3.69.28-3.71,0.29A0.72,0.72,0,0,1,11.92,20.55Z"/></g><path class="cls-4" d="M29.54,59.17A22.58,22.58,0,0,1,14.18,20a0.75,0.75,0,0,1,1,1.1A21,21,0,1,0,24,16.26a0.75,0.75,0,1,1-.39-1.45A22.58,22.58,0,1,1,29.54,59.17Z"/><path class="cls-4" d="M24.42,53.67a0.75,0.75,0,0,1-.34-0.08A22.51,22.51,0,0,1,11.86,33.52a0.75,0.75,0,0,1,1.5,0A21,21,0,0,0,24.76,52.25,0.75,0.75,0,0,1,24.42,53.67Z"/><path class="cls-4" d="M19,23.92a0.75,0.75,0,0,1-.64-0.36,7.7,7.7,0,0,0-1.65-1.8,0.75,0.75,0,0,1-1.37.27c-0.69-1.1-2.73-1.37-3.46-1.38a0.75,0.75,0,0,1-.16-1.48,6.91,6.91,0,0,1,6,1.48,7.73,7.73,0,0,1,.07-2.45,0.75,0.75,0,0,1,.68-0.58,7.2,7.2,0,0,1,3.14.56A5.06,5.06,0,0,1,24,13.4a0.75,0.75,0,0,1,1,1.09,4.2,4.2,0,0,0-.37,3.6,0.75,0.75,0,0,1-1.43.46l-0.06-.2a6.44,6.44,0,0,0,.2,1.29,0.75,0.75,0,0,1-1.31.67,4,4,0,0,0-2.84-1.19,12.15,12.15,0,0,0,.55,3.82,0.75,0.75,0,0,1-.4.91A0.74,0.74,0,0,1,19,23.92Z"/><path class="cls-4" d="M12,20.63a0.75,0.75,0,0,1-.35-1.42,7.2,7.2,0,0,1,3.45-.74c-0.58-1.51-1.28-3.75-.9-4.9a0.72,0.72,0,0,1,.76-0.52,8.41,8.41,0,0,1,4.6,2.37c0.15-1.54.49-3.54,1.23-4.29a0.75,0.75,0,0,1,1,0c0.13,0.12,1.33,1.23,1.71,4.62a0.75,0.75,0,0,1-.66.83A0.76,0.76,0,0,1,22,15.89a9.94,9.94,0,0,0-.61-2.61,21.76,21.76,0,0,0-.48,3.87,0.75,0.75,0,0,1-1.31.47,9.86,9.86,0,0,0-4-2.88A18.66,18.66,0,0,0,17,19.28a0.75,0.75,0,0,1-1,1c-1.51-.8-3.66.28-3.68,0.29A0.75,0.75,0,0,1,12,20.63Z"/><path class="cls-5" d="M31.28,52.3A18.07,18.07,0,0,0,56.73,26.64Z"/><path class="cls-6" d="M29.79,52.64A19.38,19.38,0,1,0,57.08,25.13Z"/><path class="cls-2" d="M39.25,51a0.82,0.82,0,1,1,.53-0.2A0.82,0.82,0,0,1,39.25,51Z"/><path class="cls-3" d="M39.25,49.63a0.56,0.56,0,0,1,.36,1,0.55,0.55,0,0,1-.36.13,0.56,0.56,0,0,1-.36-1,0.55,0.55,0,0,1,.36-0.13m0-.52a1.08,1.08,0,1,0,.82.38,1.07,1.07,0,0,0-.82-0.38h0Z"/><path class="cls-4" d="M39.25,51.54a1.36,1.36,0,0,1-.88-2.39,1.33,1.33,0,0,1,1-.32A1.36,1.36,0,0,1,39.25,51.54Zm0-2.16a0.8,0.8,0,1,0,.61.28A0.8,0.8,0,0,0,39.25,49.39Z"/><path class="cls-2" d="M41.07,52a0.82,0.82,0,0,1-.82-0.89,0.81,0.81,0,0,1,.29-0.56A0.82,0.82,0,1,1,41.07,52Z"/><path class="cls-3" d="M41.07,50.61a0.56,0.56,0,0,1,.36,1,0.55,0.55,0,0,1-.36.13,0.56,0.56,0,0,1-.36-1,0.55,0.55,0,0,1,.36-0.13m0-.52a1.08,1.08,0,1,0,.82.38,1.07,1.07,0,0,0-.82-0.38h0Z"/><path class="cls-4" d="M41.07,52.53H41A1.35,1.35,0,1,1,41.07,52.53Zm0-2.16A0.8,0.8,0,0,0,41,52a0.77,0.77,0,0,0,.58-0.19A0.8,0.8,0,0,0,41.07,50.37Z"/><path class="cls-2" d="M43,52.47a0.82,0.82,0,0,1-.82-0.89A0.81,0.81,0,0,1,42.51,51,0.82,0.82,0,1,1,43,52.47Z"/><path class="cls-3" d="M43,51.09a0.56,0.56,0,0,1,.36,1,0.55,0.55,0,0,1-.36.13,0.56,0.56,0,0,1-.36-1A0.55,0.55,0,0,1,43,51.09m0-.52a1.08,1.08,0,1,0,.82.38A1.07,1.07,0,0,0,43,50.57h0Z"/><path class="cls-4" d="M43,53a1.36,1.36,0,0,1-.88-2.39,1.33,1.33,0,0,1,1-.32A1.36,1.36,0,0,1,43,53Zm0-2.16a0.8,0.8,0,1,0,.61.28A0.8,0.8,0,0,0,43,50.85Z"/><path class="cls-2" d="M44.91,52.45a0.82,0.82,0,1,1,.53-0.2A0.82,0.82,0,0,1,44.91,52.45Z"/><path class="cls-3" d="M44.91,51.07a0.56,0.56,0,0,1,.36,1,0.55,0.55,0,0,1-.36.13,0.56,0.56,0,0,1-.36-1,0.55,0.55,0,0,1,.36-0.13m0-.52a1.08,1.08,0,1,0,.82.38,1.07,1.07,0,0,0-.82-0.38h0Z"/><path class="cls-4" d="M44.92,53H44.8a1.36,1.36,0,1,1,1.15-2.23h0A1.36,1.36,0,0,1,44.92,53Zm0-2.16a0.8,0.8,0,1,0,.61.28A0.8,0.8,0,0,0,44.91,50.83Z"/><path class="cls-2" d="M46.81,52.4a0.82,0.82,0,1,1,.53-0.2A0.82,0.82,0,0,1,46.81,52.4Z"/><path class="cls-3" d="M46.81,51a0.56,0.56,0,0,1,.36,1,0.55,0.55,0,0,1-.36.13,0.56,0.56,0,0,1-.36-1A0.55,0.55,0,0,1,46.81,51m0-.52a1.08,1.08,0,1,0,.82.38,1.07,1.07,0,0,0-.82-0.38h0Z"/><path class="cls-4" d="M46.81,52.94H46.7a1.36,1.36,0,1,1,1.15-2.23h0A1.36,1.36,0,0,1,46.81,52.94Zm0-2.16a0.8,0.8,0,1,0,.61.28A0.8,0.8,0,0,0,46.81,50.78Z"/><path class="cls-2" d="M48.55,51.71a0.82,0.82,0,1,1,.53-0.19A0.82,0.82,0,0,1,48.55,51.71Z"/><path class="cls-3" d="M48.55,50.33a0.56,0.56,0,0,1,.36,1,0.55,0.55,0,0,1-.36.13,0.56,0.56,0,0,1-.36-1,0.55,0.55,0,0,1,.36-0.13m0-.52a1.08,1.08,0,1,0,.82.38,1.07,1.07,0,0,0-.82-0.38h0Z"/><path class="cls-4" d="M48.55,52.25H48.44A1.35,1.35,0,1,1,48.55,52.25Zm0-2.16a0.8,0.8,0,1,0,.61.28A0.8,0.8,0,0,0,48.55,50.09Z"/><path class="cls-2" d="M40.58,49.56a0.82,0.82,0,1,1,.53-0.2A0.82,0.82,0,0,1,40.58,49.56Z"/><path class="cls-3" d="M40.58,48.18a0.56,0.56,0,0,1,.36,1,0.55,0.55,0,0,1-.36.13,0.56,0.56,0,0,1-.36-1,0.55,0.55,0,0,1,.36-0.13m0-.52a1.08,1.08,0,1,0,.82.38,1.07,1.07,0,0,0-.82-0.38h0Z"/><path class="cls-4" d="M40.59,50.1H40.47A1.35,1.35,0,1,1,40.59,50.1Zm0-2.16a0.8,0.8,0,1,0,.61.28A0.8,0.8,0,0,0,40.58,47.94Z"/><path class="cls-2" d="M42.76,50.3a0.82,0.82,0,1,1,.53-0.2A0.82,0.82,0,0,1,42.76,50.3Z"/><path class="cls-3" d="M42.76,48.92a0.56,0.56,0,0,1,.36,1,0.55,0.55,0,0,1-.36.13,0.56,0.56,0,0,1-.36-1,0.55,0.55,0,0,1,.36-0.13m0-.52a1.08,1.08,0,1,0,.82.38,1.07,1.07,0,0,0-.82-0.38h0Z"/><path class="cls-4" d="M42.77,50.84H42.65A1.35,1.35,0,1,1,42.77,50.84Zm0-2.16a0.8,0.8,0,1,0,.61.28A0.8,0.8,0,0,0,42.76,48.68Z"/><path class="cls-2" d="M44.34,50.5a0.82,0.82,0,1,1,.53-0.2A0.82,0.82,0,0,1,44.34,50.5Z"/><path class="cls-3" d="M44.33,49.12a0.56,0.56,0,0,1,.36,1,0.55,0.55,0,0,1-.36.13,0.56,0.56,0,0,1-.36-1,0.55,0.55,0,0,1,.36-0.13m0-.52a1.08,1.08,0,1,0,.82.38,1.07,1.07,0,0,0-.82-0.38h0Z"/><path class="cls-4" d="M44.34,51H44.22A1.35,1.35,0,1,1,44.34,51Zm0-2.16a0.8,0.8,0,1,0,.61.28A0.8,0.8,0,0,0,44.33,48.88Z"/><path class="cls-2" d="M46,50.4a0.82,0.82,0,1,1,.53-0.2A0.82,0.82,0,0,1,46,50.4Z"/><path class="cls-3" d="M46,49a0.56,0.56,0,0,1,.36,1,0.55,0.55,0,0,1-.36.13,0.56,0.56,0,0,1-.36-1A0.55,0.55,0,0,1,46,49m0-.52a1.08,1.08,0,1,0,.82.38A1.07,1.07,0,0,0,46,48.5h0Z"/><path class="cls-4" d="M46,50.94H45.89a1.36,1.36,0,0,1-.77-2.39,1.33,1.33,0,0,1,1-.32A1.36,1.36,0,0,1,46,50.94Zm0-2.16a0.8,0.8,0,0,0-.07,1.6,0.76,0.76,0,0,0,.58-0.19A0.8,0.8,0,0,0,46,48.78Z"/><path class="cls-2" d="M47.63,50a0.82,0.82,0,1,1,.53-0.2A0.82,0.82,0,0,1,47.63,50Z"/><path class="cls-3" d="M47.63,48.65a0.56,0.56,0,0,1,.36,1,0.55,0.55,0,0,1-.36.13,0.56,0.56,0,0,1-.36-1,0.55,0.55,0,0,1,.36-0.13m0-.52a1.08,1.08,0,1,0,.82.38,1.07,1.07,0,0,0-.82-0.38h0Z"/><path class="cls-4" d="M47.63,50.57a1.36,1.36,0,0,1-.88-2.39,1.36,1.36,0,0,1,1.91.16h0A1.36,1.36,0,0,1,47.63,50.57Zm0-2.16a0.8,0.8,0,1,0,.61.28A0.8,0.8,0,0,0,47.63,48.41Z"/><path class="cls-2" d="M48.9,48.85A0.82,0.82,0,0,1,48.08,48a0.81,0.81,0,0,1,.29-0.56A0.82,0.82,0,1,1,48.9,48.85Z"/><path class="cls-3" d="M48.9,47.47a0.56,0.56,0,0,1,.36,1,0.55,0.55,0,0,1-.36.13,0.56,0.56,0,0,1-.36-1,0.55,0.55,0,0,1,.36-0.13m0-.52a1.08,1.08,0,1,0,.82.38,1.07,1.07,0,0,0-.82-0.38h0Z"/><path class="cls-4" d="M48.9,49.38H48.79a1.36,1.36,0,1,1,1.14-2.23h0A1.36,1.36,0,0,1,48.9,49.38Zm0-2.16a0.8,0.8,0,1,0,.61.28h0A0.79,0.79,0,0,0,49,47.23H48.9Z"/><path class="cls-2" d="M41.92,48a0.82,0.82,0,1,1,.53-0.19A0.82,0.82,0,0,1,41.92,48Z"/><path class="cls-3" d="M41.92,46.59a0.56,0.56,0,0,1,.36,1,0.55,0.55,0,0,1-.36.13,0.56,0.56,0,0,1-.36-1,0.55,0.55,0,0,1,.36-0.13m0-.52a1.08,1.08,0,1,0,.82.38,1.07,1.07,0,0,0-.82-0.38h0Z"/><path class="cls-4" d="M41.92,48.51H41.81A1.36,1.36,0,0,1,41,46.12a1.33,1.33,0,0,1,1-.32A1.36,1.36,0,0,1,41.92,48.51Zm0-2.16a0.8,0.8,0,1,0,.61.28A0.8,0.8,0,0,0,41.92,46.35Z"/><path class="cls-2" d="M43.58,48.29a0.82,0.82,0,1,1,.53-0.2A0.82,0.82,0,0,1,43.58,48.29Z"/><path class="cls-3" d="M43.58,46.91a0.56,0.56,0,0,1,.36,1,0.55,0.55,0,0,1-.36.13,0.56,0.56,0,0,1-.36-1,0.55,0.55,0,0,1,.36-0.13m0-.52a1.08,1.08,0,1,0,.82.38,1.07,1.07,0,0,0-.82-0.38h0Z"/><path class="cls-4" d="M43.58,48.83H43.47A1.35,1.35,0,1,1,43.58,48.83Zm0-2.16a0.8,0.8,0,1,0,.61.28A0.8,0.8,0,0,0,43.58,46.67Z"/><path class="cls-2" d="M45.65,48.57a0.82,0.82,0,1,1,.53-0.2A0.82,0.82,0,0,1,45.65,48.57Z"/><path class="cls-3" d="M45.65,47.19a0.56,0.56,0,0,1,.36,1,0.55,0.55,0,0,1-.36.13,0.56,0.56,0,0,1-.36-1,0.55,0.55,0,0,1,.36-0.13m0-.52a1.08,1.08,0,1,0,.82.38,1.07,1.07,0,0,0-.82-0.38h0Z"/><path class="cls-4" d="M45.66,49.1a1.36,1.36,0,1,1,.11-2.71,1.34,1.34,0,0,1,.92.47h0A1.35,1.35,0,0,1,45.66,49.1Zm0-2.16a0.8,0.8,0,1,0,.61.28h0a0.79,0.79,0,0,0-.54-0.28H45.65Z"/><path class="cls-2" d="M44.76,46.84a0.82,0.82,0,1,1,.53-0.2A0.82,0.82,0,0,1,44.76,46.84Z"/><path class="cls-3" d="M44.76,45.46a0.56,0.56,0,0,1,.36,1,0.55,0.55,0,0,1-.36.13,0.56,0.56,0,0,1-.36-1,0.55,0.55,0,0,1,.36-0.13m0-.52a1.08,1.08,0,1,0,.82.38,1.07,1.07,0,0,0-.82-0.38h0Z"/><path class="cls-4" d="M44.76,47.38A1.36,1.36,0,0,1,43.88,45a1.36,1.36,0,0,1,1.91.16h0A1.36,1.36,0,0,1,44.76,47.38Zm0-2.16a0.78,0.78,0,1,0,.07,0H44.76Z"/><path class="cls-2" d="M47.31,47.57a0.82,0.82,0,1,1,.53-0.2A0.82,0.82,0,0,1,47.31,47.57Z"/><path class="cls-3" d="M47.3,46.19a0.56,0.56,0,0,1,.36,1,0.55,0.55,0,0,1-.36.13,0.56,0.56,0,0,1-.36-1,0.55,0.55,0,0,1,.36-0.13m0-.52a1.08,1.08,0,1,0,.82.38,1.07,1.07,0,0,0-.82-0.38h0Z"/><path class="cls-4" d="M47.31,48.11H47.19a1.36,1.36,0,1,1,1.14-2.23h0A1.36,1.36,0,0,1,47.31,48.11Zm0-2.16a0.8,0.8,0,1,0,.61.28h0A0.79,0.79,0,0,0,47.37,46H47.3Z"/><path class="cls-2" d="M43.37,46.41a0.82,0.82,0,1,1,.53-0.2A0.82,0.82,0,0,1,43.37,46.41Z"/><path class="cls-3" d="M43.37,45a0.56,0.56,0,0,1,.36,1,0.55,0.55,0,0,1-.36.13,0.56,0.56,0,0,1-.36-1A0.55,0.55,0,0,1,43.37,45m0-.52a1.08,1.08,0,1,0,.82.38,1.07,1.07,0,0,0-.82-0.38h0Z"/><path class="cls-4" d="M43.37,46.95H43.26A1.35,1.35,0,1,1,43.37,46.95Zm0-2.16a0.8,0.8,0,1,0,.61.28A0.8,0.8,0,0,0,43.37,44.79Z"/><path class="cls-2" d="M46.3,46.08a0.82,0.82,0,1,1,.53-0.2A0.82,0.82,0,0,1,46.3,46.08Z"/><path class="cls-3" d="M46.3,44.7h0a0.56,0.56,0,0,1,.36,1,0.55,0.55,0,0,1-.36.13,0.56,0.56,0,0,1-.36-1,0.55,0.55,0,0,1,.36-0.13m0-.52a1.08,1.08,0,1,0,.82.38,1.07,1.07,0,0,0-.82-0.38h0Z"/><path class="cls-4" d="M46.3,46.62a1.36,1.36,0,0,1-.88-2.39,1.36,1.36,0,0,1,1.91.16h0A1.35,1.35,0,0,1,46.3,46.62Zm0-2.16a0.8,0.8,0,1,0,.61.28A0.8,0.8,0,0,0,46.3,44.46Z"/><path class="cls-2" d="M39.29,53.17a0.82,0.82,0,1,1,.53-0.2A0.82,0.82,0,0,1,39.29,53.17Z"/><path class="cls-3" d="M39.29,51.79a0.56,0.56,0,0,1,.36,1,0.55,0.55,0,0,1-.36.13,0.56,0.56,0,0,1-.36-1,0.55,0.55,0,0,1,.36-0.13m0-.52a1.08,1.08,0,1,0,.82.38,1.07,1.07,0,0,0-.82-0.38h0Z"/><path class="cls-4" d="M39.29,53.7H39.18A1.35,1.35,0,1,1,39.29,53.7Zm0-2.16a0.8,0.8,0,1,0,.61.28A0.8,0.8,0,0,0,39.29,51.55Z"/><path class="cls-2" d="M37.46,52.45A0.82,0.82,0,1,1,38,52.25,0.82,0.82,0,0,1,37.46,52.45Z"/><path class="cls-3" d="M37.46,51.07h0a0.56,0.56,0,0,1,.36,1,0.55,0.55,0,0,1-.36.13,0.56,0.56,0,0,1-.36-1,0.55,0.55,0,0,1,.36-0.13m0-.52a1.08,1.08,0,1,0,.82.38,1.07,1.07,0,0,0-.82-0.38h0Z"/><path class="cls-4" d="M37.46,53H37.35A1.35,1.35,0,1,1,37.46,53Zm0-2.16a0.8,0.8,0,1,0,.61.28A0.8,0.8,0,0,0,37.46,50.83Z"/><path class="cls-2" d="M41.42,54a0.82,0.82,0,0,1-.82-0.89,0.81,0.81,0,0,1,.29-0.56A0.82,0.82,0,1,1,41.42,54Z"/><path class="cls-3" d="M41.42,52.63a0.56,0.56,0,0,1,.36,1,0.55,0.55,0,0,1-.36.13,0.56,0.56,0,0,1-.36-1,0.55,0.55,0,0,1,.36-0.13m0-.52a1.08,1.08,0,1,0,.82.38,1.07,1.07,0,0,0-.82-0.38h0Z"/><path class="cls-4" d="M41.42,54.54H41.31a1.36,1.36,0,0,1-.77-2.39,1.33,1.33,0,0,1,1-.32A1.36,1.36,0,0,1,41.42,54.54Zm0-2.16a0.8,0.8,0,1,0,.61.28A0.8,0.8,0,0,0,41.42,52.39Z"/><path class="cls-2" d="M43.72,54.38a0.82,0.82,0,1,1,.53-0.2A0.82,0.82,0,0,1,43.72,54.38Z"/><path class="cls-3" d="M43.72,53a0.56,0.56,0,0,1,.36,1,0.55,0.55,0,0,1-.36.13,0.56,0.56,0,0,1-.36-1A0.55,0.55,0,0,1,43.72,53m0-.52a1.08,1.08,0,1,0,.82.38,1.07,1.07,0,0,0-.82-0.38h0Z"/><path class="cls-4" d="M43.72,54.92H43.61A1.35,1.35,0,1,1,43.72,54.92Zm0-2.16a0.8,0.8,0,0,0-.06,1.6,0.86,0.86,0,0,0,.58-0.19A0.8,0.8,0,0,0,44.33,53h0a0.79,0.79,0,0,0-.55-0.28H43.72Z"/><path class="cls-2" d="M46,54.3a0.82,0.82,0,1,1,.53-0.2A0.82,0.82,0,0,1,46,54.3Z"/><path class="cls-3" d="M46,52.92a0.56,0.56,0,0,1,.36,1A0.55,0.55,0,0,1,46,54a0.56,0.56,0,0,1-.36-1A0.55,0.55,0,0,1,46,52.92m0-.52a1.08,1.08,0,1,0,.82.38A1.07,1.07,0,0,0,46,52.4h0Z"/><path class="cls-4" d="M46,54.84a1.36,1.36,0,0,1-.88-2.39,1.33,1.33,0,0,1,1-.32A1.36,1.36,0,0,1,46,54.84Zm0-2.16a0.8,0.8,0,1,0,.61.28A0.8,0.8,0,0,0,46,52.68Z"/><path class="cls-2" d="M48.32,53.63a0.82,0.82,0,1,1,.53-0.2A0.82,0.82,0,0,1,48.32,53.63Z"/><path class="cls-3" d="M48.32,52.26h0a0.56,0.56,0,0,1,.36,1,0.55,0.55,0,0,1-.36.13,0.56,0.56,0,0,1-.36-1,0.55,0.55,0,0,1,.36-0.13m0-.52a1.08,1.08,0,1,0,.82.38,1.07,1.07,0,0,0-.82-0.38h0Z"/><path class="cls-4" d="M48.32,54.17H48.21a1.36,1.36,0,1,1,1.14-2.23h0A1.36,1.36,0,0,1,48.32,54.17Zm0-2.16a0.8,0.8,0,1,0,.61.28h0A0.79,0.79,0,0,0,48.39,52H48.32Z"/><path class="cls-2" d="M50.33,52.42a0.82,0.82,0,1,1,.82-0.75,0.81,0.81,0,0,1-.29.56A0.82,0.82,0,0,1,50.33,52.42Z"/><path class="cls-3" d="M50.33,51h0a0.56,0.56,0,0,1,.36,1,0.55,0.55,0,0,1-.36.13,0.56,0.56,0,0,1-.36-1A0.55,0.55,0,0,1,50.33,51m0-.52a1.08,1.08,0,1,0,.82.38,1.07,1.07,0,0,0-.82-0.38h0Z"/><path class="cls-4" d="M50.33,53H50.22A1.35,1.35,0,1,1,50.33,53Zm0-2.16a0.8,0.8,0,0,0-.06,1.6,0.87,0.87,0,0,0,.58-0.19,0.8,0.8,0,0,0,.09-1.13h0a0.79,0.79,0,0,0-.55-0.28H50.33Z"/><path class="cls-2" d="M51.83,51.48a0.82,0.82,0,1,1,.82-0.75,0.81,0.81,0,0,1-.29.56A0.82,0.82,0,0,1,51.83,51.48Z"/><path class="cls-3" d="M51.83,50.1a0.56,0.56,0,0,1,.36,1,0.55,0.55,0,0,1-.36.13,0.56,0.56,0,0,1-.36-1,0.55,0.55,0,0,1,.36-0.13m0-.52a1.08,1.08,0,1,0,.82.38,1.07,1.07,0,0,0-.82-0.38h0Z"/><path class="cls-4" d="M51.84,52H51.72a1.36,1.36,0,1,1,1.15-2.23h0a1.36,1.36,0,0,1-.16,1.91A1.35,1.35,0,0,1,51.84,52Zm0-2.16a0.8,0.8,0,0,0-.06,1.6,0.86,0.86,0,0,0,.58-0.19,0.8,0.8,0,0,0,.09-1.13h0A0.8,0.8,0,0,0,51.83,49.86Z"/><path class="cls-2" d="M50.33,50.12a0.82,0.82,0,1,1,.53-0.2A0.82,0.82,0,0,1,50.33,50.12Z"/><path class="cls-3" d="M50.33,48.74a0.56,0.56,0,0,1,.36,1,0.55,0.55,0,0,1-.36.13,0.56,0.56,0,0,1-.36-1,0.55,0.55,0,0,1,.36-0.13m0-.52a1.08,1.08,0,1,0,.82.38,1.07,1.07,0,0,0-.82-0.38h0Z"/><path class="cls-4" d="M50.33,50.66a1.36,1.36,0,0,1-.88-2.39,1.36,1.36,0,0,1,1.91.16A1.36,1.36,0,0,1,50.33,50.66Zm0-2.16a0.8,0.8,0,1,0,.61.28A0.8,0.8,0,0,0,50.33,48.5Z"/><path class="cls-2" d="M44.72,44.78a0.82,0.82,0,1,1,.53-0.2A0.82,0.82,0,0,1,44.72,44.78Z"/><path class="cls-3" d="M44.72,43.4a0.56,0.56,0,0,1,.36,1,0.55,0.55,0,0,1-.36.13,0.56,0.56,0,0,1-.36-1,0.55,0.55,0,0,1,.36-0.13m0-.52a1.08,1.08,0,1,0,.82.38,1.07,1.07,0,0,0-.82-0.38h0Z"/><path class="cls-4" d="M44.72,45.32a1.36,1.36,0,1,1,.11-2.71,1.34,1.34,0,0,1,.92.47h0A1.35,1.35,0,0,1,44.72,45.32Zm0-2.16a0.8,0.8,0,1,0,.61.28h0a0.79,0.79,0,0,0-.54-0.28H44.72Z"/><path class="cls-2" d="M54.46,35.85a0.82,0.82,0,1,1,.63-0.29,0.82,0.82,0,0,1-.63.29h0Z"/><path class="cls-3" d="M54.46,34.47a0.55,0.55,0,0,1,.36.13,0.56,0.56,0,0,1-.36,1A0.56,0.56,0,0,1,54,34.67a0.56,0.56,0,0,1,.43-0.2m0-.52a1.08,1.08,0,1,0,.69.25A1.08,1.08,0,0,0,54.46,34h0Z"/><path class="cls-4" d="M54.46,36.39a1.36,1.36,0,0,1-.12-2.71,1.33,1.33,0,0,1,1,.31A1.36,1.36,0,0,1,54.46,36.39Zm0-2.16H54.38a0.8,0.8,0,1,0,.58.18A0.79,0.79,0,0,0,54.46,34.23Z"/><path class="cls-2" d="M55.46,37.66a0.83,0.83,0,0,1-.52-0.19,0.82,0.82,0,0,1-.1-1.15,0.82,0.82,0,1,1,.63,1.34h0Z"/><path class="cls-3" d="M55.46,36.28a0.55,0.55,0,0,1,.36.13,0.56,0.56,0,0,1-.36,1,0.55,0.55,0,0,1-.36-0.13,0.56,0.56,0,0,1,.36-1m0-.52a1.08,1.08,0,1,0,.69.25,1.08,1.08,0,0,0-.69-0.25h0Z"/><path class="cls-4" d="M55.46,38.2a1.35,1.35,0,0,1-.87-0.31h0A1.36,1.36,0,1,1,55.46,38.2Zm-0.51-.74A0.8,0.8,0,1,0,55.38,36a0.8,0.8,0,0,0-.44,1.41h0Z"/><path class="cls-2" d="M56,39.63a0.82,0.82,0,1,1,.63-0.29,0.82,0.82,0,0,1-.63.29h0Z"/><path class="cls-3" d="M56,38.25a0.55,0.55,0,0,1,.36.13,0.56,0.56,0,0,1-.36,1,0.56,0.56,0,0,1-.43-0.92,0.56,0.56,0,0,1,.43-0.2m0-.52a1.08,1.08,0,1,0,.69.25A1.08,1.08,0,0,0,56,37.73h0Z"/><path class="cls-4" d="M56,40.16a1.35,1.35,0,0,1-.87-0.32h0a1.36,1.36,0,0,1-.17-1.91,1.36,1.36,0,1,1,1.16,2.22H56Zm-0.51-.74a0.8,0.8,0,1,0-.1-1.13,0.8,0.8,0,0,0,.1,1.13h0Z"/><path class="cls-2" d="M56,41.5a0.82,0.82,0,1,1,.63-0.29,0.82,0.82,0,0,1-.63.29h0Z"/><path class="cls-3" d="M56,40.12a0.55,0.55,0,0,1,.36.13,0.56,0.56,0,0,1-.36,1,0.56,0.56,0,0,1-.43-0.92,0.56,0.56,0,0,1,.43-0.2m0-.52a1.08,1.08,0,1,0,.69.25A1.08,1.08,0,0,0,56,39.6h0Z"/><path class="cls-4" d="M56,42a1.35,1.35,0,0,1-.87-0.32h0a1.36,1.36,0,0,1-.17-1.91,1.34,1.34,0,0,1,.92-0.48,1.33,1.33,0,0,1,1,.31A1.36,1.36,0,0,1,56.08,42H56Zm-0.51-.74a0.79,0.79,0,0,0,.59.18,0.8,0.8,0,1,0-.59-0.18h0Z"/><path class="cls-2" d="M55.92,43.39a0.82,0.82,0,1,1,.53-1.45,0.82,0.82,0,0,1-.53,1.45h0Z"/><path class="cls-3" d="M55.92,42a0.56,0.56,0,0,1,.43.92,0.56,0.56,0,0,1-.43.2,0.56,0.56,0,0,1-.43-0.92,0.56,0.56,0,0,1,.43-0.2m0-.52a1.08,1.08,0,1,0,.69.25,1.08,1.08,0,0,0-.69-0.25h0Z"/><path class="cls-4" d="M55.92,43.93a1.35,1.35,0,0,1-.87-0.31h0a1.36,1.36,0,1,1,1,.31H55.92Zm0-2.16H55.85a0.8,0.8,0,0,0-.44,1.41h0a0.8,0.8,0,0,0,1-1.23A0.8,0.8,0,0,0,55.92,41.77Z"/><path class="cls-2" d="M55.24,45.14a0.82,0.82,0,1,1,.52-1.45,0.82,0.82,0,0,1-.52,1.45h0Z"/><path class="cls-3" d="M55.25,43.76a0.55,0.55,0,0,1,.36.13,0.56,0.56,0,0,1-.36,1,0.55,0.55,0,0,1-.36-0.13,0.56,0.56,0,0,1,.36-1m0-.52a1.08,1.08,0,1,0,.69.25,1.08,1.08,0,0,0-.69-0.25h0Z"/><path class="cls-4" d="M55.24,45.68a1.34,1.34,0,0,1-.87-0.32,1.36,1.36,0,1,1,1,.31H55.24Zm0-2.16a0.8,0.8,0,0,0-.51,1.42h0A0.8,0.8,0,1,0,55.25,43.52Z"/><path class="cls-2" d="M53,37.19a0.82,0.82,0,1,1,.63-0.29,0.82,0.82,0,0,1-.63.29h0Z"/><path class="cls-3" d="M53,35.82a0.56,0.56,0,0,1,.43.92,0.56,0.56,0,0,1-.43.2A0.56,0.56,0,0,1,52.6,36a0.56,0.56,0,0,1,.43-0.2m0-.52a1.08,1.08,0,1,0,.69.25A1.08,1.08,0,0,0,53,35.3h0Z"/><path class="cls-4" d="M53,37.73a1.36,1.36,0,1,1,1-.49A1.35,1.35,0,0,1,53,37.73Zm0-2.16A0.8,0.8,0,0,0,52.51,37h0A0.8,0.8,0,1,0,53,35.57Z"/><path class="cls-2" d="M53.79,39.37a0.82,0.82,0,0,1-.52-0.19,0.82,0.82,0,0,1,.52-1.45,0.82,0.82,0,1,1,0,1.64h0Z"/><path class="cls-3" d="M53.79,38a0.56,0.56,0,0,1,.43.92,0.56,0.56,0,0,1-.43.2A0.55,0.55,0,0,1,53.43,39a0.56,0.56,0,0,1,.36-1m0-.52a1.08,1.08,0,1,0,.69.25,1.08,1.08,0,0,0-.69-0.25h0Z"/><path class="cls-4" d="M53.78,39.9a1.35,1.35,0,0,1-.87-0.31h0A1.36,1.36,0,1,1,53.78,39.9Zm-0.51-.74a0.8,0.8,0,1,0-.1-1.13,0.8,0.8,0,0,0,.1,1.13h0Z"/><path class="cls-2" d="M54,40.94a0.82,0.82,0,1,1,.63-0.29,0.82,0.82,0,0,1-.63.29h0Z"/><path class="cls-3" d="M54,39.56a0.56,0.56,0,0,1,.43.92,0.56,0.56,0,0,1-.43.2,0.55,0.55,0,0,1-.36-0.13,0.56,0.56,0,0,1,.36-1M54,39a1.08,1.08,0,1,0,.69.25A1.08,1.08,0,0,0,54,39h0Z"/><path class="cls-4" d="M54,41.47a1.34,1.34,0,0,1-.87-0.31h0a1.36,1.36,0,1,1,1,.31H54Zm-0.51-.74a0.81,0.81,0,0,0,.58.18,0.8,0.8,0,0,0,.44-1.41,0.8,0.8,0,1,0-1,1.23h0Z"/><path class="cls-2" d="M53.91,42.6a0.82,0.82,0,1,1,.63-0.29A0.82,0.82,0,0,1,53.91,42.6Z"/><path class="cls-3" d="M53.91,41.22a0.56,0.56,0,0,1,.43.92,0.56,0.56,0,0,1-.43.2,0.55,0.55,0,0,1-.36-0.13,0.56,0.56,0,0,1,.36-1m0-.52a1.08,1.08,0,1,0,.69.25,1.08,1.08,0,0,0-.69-0.25h0Z"/><path class="cls-4" d="M53.91,43.14A1.35,1.35,0,0,1,53,42.83h0A1.36,1.36,0,1,1,53.91,43.14Zm0-2.16H53.84a0.8,0.8,0,0,0-.44,1.41h0A0.8,0.8,0,1,0,53.92,41Z"/><path class="cls-2" d="M53.56,44.24a0.82,0.82,0,1,1,.63-0.29,0.82,0.82,0,0,1-.63.29h0Z"/><path class="cls-3" d="M53.56,42.86a0.56,0.56,0,0,1,.43.92,0.56,0.56,0,0,1-.43.2,0.55,0.55,0,0,1-.36-0.13,0.56,0.56,0,0,1,.36-1m0-.52a1.08,1.08,0,1,0,.69.25,1.08,1.08,0,0,0-.69-0.25h0Z"/><path class="cls-4" d="M53.56,44.77a1.35,1.35,0,0,1-.87-0.31h0A1.36,1.36,0,1,1,53.56,44.77ZM53,44a0.8,0.8,0,0,0,1.13-.1,0.8,0.8,0,0,0-.1-1.13,0.82,0.82,0,0,0-.58-0.18,0.79,0.79,0,0,0-.54.29A0.8,0.8,0,0,0,53,44h0Z"/><path class="cls-2" d="M52.38,45.52a0.82,0.82,0,1,1,.53-1.45,0.82,0.82,0,0,1,.1,1.15,0.82,0.82,0,0,1-.63.29h0Z"/><path class="cls-3" d="M52.39,44.14a0.55,0.55,0,0,1,.36.13,0.56,0.56,0,0,1-.36,1A0.56,0.56,0,0,1,52,44.34a0.56,0.56,0,0,1,.43-0.2m0-.52a1.08,1.08,0,1,0,.69.25,1.08,1.08,0,0,0-.69-0.25h0Z"/><path class="cls-4" d="M52.38,46.05a1.36,1.36,0,0,1-1-2.22,1.36,1.36,0,0,1,2.39.75A1.36,1.36,0,0,1,52.51,46H52.38Zm0-2.16a0.8,0.8,0,0,0-.8.87,0.79,0.79,0,0,0,.29.54h0a0.81,0.81,0,0,0,.58.18A0.79,0.79,0,0,0,53,45.21,0.8,0.8,0,0,0,52.39,43.9Z"/><path class="cls-2" d="M51.45,38.55a0.83,0.83,0,0,1-.52-0.19,0.82,0.82,0,0,1-.11-1.15A0.82,0.82,0,0,1,52,37.1a0.82,0.82,0,0,1-.52,1.45h0Z"/><path class="cls-3" d="M51.45,37.17a0.55,0.55,0,0,1,.36.13,0.56,0.56,0,0,1-.36,1A0.56,0.56,0,0,1,51,37.37a0.56,0.56,0,0,1,.43-0.2m0-.52a1.08,1.08,0,1,0,.69.25,1.08,1.08,0,0,0-.69-0.25h0Z"/><path class="cls-4" d="M51.44,39.08a1.35,1.35,0,0,1-.87-0.31h0A1.36,1.36,0,1,1,51.44,39.08Zm-0.51-.74a0.8,0.8,0,1,0-.1-1.13,0.8,0.8,0,0,0,.1,1.13h0Z"/><path class="cls-2" d="M51.78,40.2a0.82,0.82,0,1,1,.63-0.29,0.82,0.82,0,0,1-.63.29h0Z"/><path class="cls-3" d="M51.78,38.82a0.56,0.56,0,0,1,.43.92,0.56,0.56,0,0,1-.43.2,0.55,0.55,0,0,1-.36-0.13,0.56,0.56,0,0,1,.36-1m0-.52a1.08,1.08,0,1,0,.69.25,1.08,1.08,0,0,0-.69-0.25h0Z"/><path class="cls-4" d="M51.78,40.74a1.36,1.36,0,0,1-1-2.22,1.36,1.36,0,1,1,1.16,2.22H51.78Zm0-2.16a0.8,0.8,0,0,0-.8.87,0.79,0.79,0,0,0,.29.54h0A0.8,0.8,0,1,0,51.78,38.58Z"/><path class="cls-2" d="M52.08,42.27a0.82,0.82,0,1,1,.53-1.45A0.82,0.82,0,0,1,52.08,42.27Z"/><path class="cls-3" d="M52.08,40.9a0.56,0.56,0,0,1,.43.92,0.56,0.56,0,0,1-.43.2,0.56,0.56,0,0,1-.43-0.92,0.56,0.56,0,0,1,.43-0.2m0-.52a1.08,1.08,0,1,0,.69.25,1.08,1.08,0,0,0-.69-0.25h0Z"/><path class="cls-4" d="M52.07,42.81a1.36,1.36,0,1,1,.13,0H52.07Zm0-2.16a0.8,0.8,0,0,0-.51,1.42h0a0.79,0.79,0,0,0,.59.18A0.8,0.8,0,0,0,52.08,40.65Z"/><path class="cls-2" d="M50.34,41.39a0.83,0.83,0,0,1-.52-0.19,0.82,0.82,0,0,1-.1-1.15,0.82,0.82,0,1,1,.63,1.34h0Z"/><path class="cls-3" d="M50.34,40a0.55,0.55,0,0,1,.36.13,0.56,0.56,0,0,1-.36,1A0.55,0.55,0,0,1,50,41a0.56,0.56,0,0,1,.36-1m0-.52a1.08,1.08,0,1,0,.69.25,1.08,1.08,0,0,0-.69-0.25h0Z"/><path class="cls-4" d="M50.34,41.93a1.35,1.35,0,0,1-.87-0.31h0a1.36,1.36,0,0,1,1.74-2.08A1.36,1.36,0,0,1,50.34,41.93Zm-0.51-.74a0.8,0.8,0,1,0-.1-1.13,0.8,0.8,0,0,0,.1,1.13h0Z"/><path class="cls-2" d="M51.09,43.94a0.83,0.83,0,0,1-.52-0.19,0.82,0.82,0,0,1-.11-1.15,0.82,0.82,0,0,1,1.15-.1,0.82,0.82,0,0,1-.52,1.45h0Z"/><path class="cls-3" d="M51.09,42.56a0.55,0.55,0,0,1,.36.13,0.56,0.56,0,0,1-.36,1,0.56,0.56,0,0,1-.43-0.92,0.56,0.56,0,0,1,.43-0.2m0-.52a1.08,1.08,0,1,0,.69.25A1.08,1.08,0,0,0,51.09,42h0Z"/><path class="cls-4" d="M51.09,44.47a1.35,1.35,0,0,1-.87-0.31h0A1.36,1.36,0,1,1,51.09,44.47Zm-0.51-.74a0.8,0.8,0,1,0-.1-1.13,0.8,0.8,0,0,0,.1,1.13h0Z"/><path class="cls-2" d="M49.9,40a0.82,0.82,0,1,1,.53-1.45,0.82,0.82,0,0,1,.11,1.15A0.82,0.82,0,0,1,49.9,40Z"/><path class="cls-3" d="M49.9,38.63a0.55,0.55,0,0,1,.36.13,0.56,0.56,0,0,1-.36,1,0.56,0.56,0,0,1-.43-0.92,0.56,0.56,0,0,1,.43-0.2m0-.52a1.08,1.08,0,1,0,.69.25,1.08,1.08,0,0,0-.69-0.25h0Z"/><path class="cls-4" d="M49.9,40.54A1.34,1.34,0,0,1,49,40.23a1.36,1.36,0,1,1,1,.31H49.9Zm0-2.16a0.8,0.8,0,0,0-.51,1.42h0a0.8,0.8,0,1,0,1-1.23A0.8,0.8,0,0,0,49.9,38.39Z"/><path class="cls-2" d="M49.6,42.94a0.82,0.82,0,1,1,.63-0.29,0.82,0.82,0,0,1-.63.29h0Z"/><path class="cls-3" d="M49.6,41.56a0.56,0.56,0,0,1,.43.92,0.56,0.56,0,0,1-.43.2,0.55,0.55,0,0,1-.36-0.13,0.56,0.56,0,0,1,.36-1m0-.52a1.08,1.08,0,1,0,.69.25A1.08,1.08,0,0,0,49.6,41h0Z"/><path class="cls-4" d="M49.6,43.48a1.34,1.34,0,0,1-.87-0.32,1.36,1.36,0,1,1,1,.31H49.6Zm0-2.16a0.8,0.8,0,0,0-.51,1.42h0a0.81,0.81,0,0,0,.58.18A0.8,0.8,0,0,0,49.6,41.32Z"/><path class="cls-2" d="M56.62,35.87a0.82,0.82,0,1,1,.63-0.29,0.82,0.82,0,0,1-.63.29h0Z"/><path class="cls-3" d="M56.62,34.49a0.56,0.56,0,0,1,.43.92,0.56,0.56,0,0,1-.43.2,0.55,0.55,0,0,1-.36-0.13,0.56,0.56,0,0,1,.36-1m0-.52a1.08,1.08,0,1,0,.69.25A1.08,1.08,0,0,0,56.62,34h0Z"/><path class="cls-4" d="M56.61,36.4a1.36,1.36,0,0,1-.12-2.71,1.32,1.32,0,0,1,1,.31A1.36,1.36,0,0,1,56.61,36.4Zm0-2.16H56.54a0.79,0.79,0,0,0-.54.29A0.8,0.8,0,1,0,56.62,34.25Z"/><path class="cls-2" d="M55.88,34a0.83,0.83,0,0,1-.52-0.19,0.82,0.82,0,0,1-.11-1.15A0.82,0.82,0,1,1,55.88,34h0Z"/><path class="cls-3" d="M55.88,32.67a0.55,0.55,0,0,1,.36.13,0.56,0.56,0,0,1-.36,1,0.56,0.56,0,0,1-.43-0.92,0.56,0.56,0,0,1,.43-0.2m0-.52a1.08,1.08,0,1,0,.69.25,1.08,1.08,0,0,0-.69-0.25h0Z"/><path class="cls-4" d="M55.88,34.58A1.35,1.35,0,0,1,55,34.27h0A1.36,1.36,0,1,1,55.88,34.58Zm-0.51-.74a0.8,0.8,0,1,0-.1-1.13,0.8,0.8,0,0,0,.1,1.13h0Z"/><path class="cls-2" d="M57.47,38a0.82,0.82,0,1,1,.63-0.29A0.82,0.82,0,0,1,57.47,38Z"/><path class="cls-3" d="M57.48,36.61a0.55,0.55,0,0,1,.36.13,0.56,0.56,0,0,1-.36,1,0.55,0.55,0,0,1-.36-0.13,0.56,0.56,0,0,1,.36-1m0-.52a1.08,1.08,0,1,0,.69.25,1.08,1.08,0,0,0-.69-0.25h0Z"/><path class="cls-4" d="M57.47,38.53a1.35,1.35,0,0,1-.87-0.31h0a1.36,1.36,0,1,1,1,.31H57.47Zm0-2.16H57.4A0.8,0.8,0,0,0,57,37.79h0A0.8,0.8,0,1,0,57.48,36.37Z"/><path class="cls-2" d="M57.87,40.29a0.82,0.82,0,1,1,.53-1.45,0.82,0.82,0,0,1-.53,1.45h0Z"/><path class="cls-3" d="M57.87,38.91a0.55,0.55,0,0,1,.36.13,0.56,0.56,0,0,1-.36,1,0.56,0.56,0,0,1-.43-0.92,0.56,0.56,0,0,1,.43-0.2m0-.52a1.08,1.08,0,1,0,.69.25,1.08,1.08,0,0,0-.69-0.25h0Z"/><path class="cls-4" d="M57.87,40.82A1.35,1.35,0,0,1,57,40.51h0a1.36,1.36,0,1,1,1,.31H57.87Zm0-2.16H57.8a0.8,0.8,0,0,0-.44,1.41h0A0.8,0.8,0,1,0,57.87,38.67Z"/><path class="cls-2" d="M57.81,42.6a0.82,0.82,0,0,1-.52-0.19,0.82,0.82,0,0,1-.11-1.15,0.82,0.82,0,1,1,.63,1.34h0Z"/><path class="cls-3" d="M57.81,41.22a0.55,0.55,0,0,1,.36.13,0.56,0.56,0,0,1-.36,1,0.56,0.56,0,0,1-.43-0.92,0.56,0.56,0,0,1,.43-0.2m0-.52a1.08,1.08,0,1,0,.69.25,1.08,1.08,0,0,0-.69-0.25h0Z"/><path class="cls-4" d="M57.81,43.13a1.35,1.35,0,0,1-.87-0.31h0A1.36,1.36,0,1,1,57.81,43.13Zm-0.51-.74a0.8,0.8,0,1,0-.1-1.13,0.8,0.8,0,0,0,.1,1.13h0Z"/><path class="cls-2" d="M57.17,44.89a0.82,0.82,0,0,1-.52-0.19,0.82,0.82,0,0,1-.11-1.15,0.82,0.82,0,0,1,1.15-.1,0.82,0.82,0,0,1-.52,1.45h0Z"/><path class="cls-3" d="M57.17,43.52a0.56,0.56,0,0,1,.43.92,0.56,0.56,0,0,1-.43.2,0.55,0.55,0,0,1-.36-0.13,0.56,0.56,0,0,1,.36-1m0-.52a1.08,1.08,0,1,0,.69.25A1.08,1.08,0,0,0,57.17,43h0Z"/><path class="cls-4" d="M57.17,45.43a1.35,1.35,0,0,1-.87-0.31h0A1.36,1.36,0,1,1,57.17,45.43Zm-0.51-.74a0.8,0.8,0,1,0-.1-1.13,0.8,0.8,0,0,0,.1,1.13h0Z"/><path class="cls-2" d="M56,46.92a0.82,0.82,0,0,1-.52-0.19A0.82,0.82,0,0,1,56,45.28a0.82,0.82,0,0,1,.52.19A0.82,0.82,0,0,1,56,46.92h0Z"/><path class="cls-3" d="M56,45.54a0.56,0.56,0,0,1,.43.92,0.56,0.56,0,0,1-.43.2,0.56,0.56,0,0,1-.43-0.92,0.56,0.56,0,0,1,.43-0.2M56,45a1.08,1.08,0,1,0,.69.25A1.08,1.08,0,0,0,56,45h0Z"/><path class="cls-4" d="M56,47.45a1.36,1.36,0,0,1-1-2.22A1.36,1.36,0,1,1,57,47a1.34,1.34,0,0,1-.92.48H56Zm0-2.16a0.8,0.8,0,0,0-.51,1.42h0a0.81,0.81,0,0,0,.59.18,0.79,0.79,0,0,0,.54-0.29A0.8,0.8,0,0,0,56,45.3Z"/><path class="cls-2" d="M55,48.43a0.82,0.82,0,0,1-.82-0.75A0.82,0.82,0,0,1,55,46.79a0.82,0.82,0,0,1,0,1.64h0Z"/><path class="cls-3" d="M55,47a0.56,0.56,0,0,1,.43.92,0.56,0.56,0,0,1-.43.2A0.55,0.55,0,0,1,54.68,48,0.56,0.56,0,0,1,55,47m0-.52a1.08,1.08,0,1,0,.69.25A1.08,1.08,0,0,0,55,46.53h0Z"/><path class="cls-4" d="M55,49a1.34,1.34,0,0,1-.87-0.31h0a1.36,1.36,0,1,1,1.91-.17,1.34,1.34,0,0,1-.92.48H55Zm-0.51-.74a0.8,0.8,0,0,0,1.13-.1,0.8,0.8,0,0,0-.1-1.13,0.8,0.8,0,0,0-1,1.23h0Z"/><path class="cls-2" d="M53.67,46.94a0.82,0.82,0,1,1,.63-0.29,0.82,0.82,0,0,1-.63.29h0Z"/><path class="cls-3" d="M53.67,45.56a0.56,0.56,0,0,1,.43.92,0.56,0.56,0,0,1-.43.2,0.56,0.56,0,0,1-.43-0.92,0.56,0.56,0,0,1,.43-0.2m0-.52a1.08,1.08,0,1,0,.69.25A1.08,1.08,0,0,0,53.67,45h0Z"/><path class="cls-4" d="M53.67,47.47a1.35,1.35,0,0,1-.87-0.31h0A1.36,1.36,0,1,1,53.67,47.47Zm-0.51-.74a0.8,0.8,0,1,0-.1-1.13,0.8,0.8,0,0,0,.1,1.13h0Z"/><path class="cls-2" d="M48.28,41.38a0.83,0.83,0,0,1-.52-0.19A0.82,0.82,0,0,1,47.65,40a0.82,0.82,0,1,1,.63,1.34h0Z"/><path class="cls-3" d="M48.28,40a0.56,0.56,0,0,1,.43.92,0.56,0.56,0,0,1-.43.2A0.55,0.55,0,0,1,47.92,41a0.56,0.56,0,0,1,.36-1m0-.52a1.08,1.08,0,1,0,.69.25,1.08,1.08,0,0,0-.69-0.25h0Z"/><path class="cls-4" d="M48.28,41.91a1.35,1.35,0,0,1-.87-0.31h0A1.36,1.36,0,1,1,48.28,41.91Zm-0.51-.74a0.8,0.8,0,1,0-.1-1.13,0.81,0.81,0,0,0,.1,1.13h0Z"/></svg>