<?xml version="1.0" encoding="utf-8"?>
<!-- Generator: Adobe Illustrator 19.2.1, SVG Export Plug-In . SVG Version: 6.00 Build 0)  -->
<svg version="1.1" xmlns="http://www.w3.org/2000/svg" xmlns:xlink="http://www.w3.org/1999/xlink" x="0px" y="0px" width="70px"
	 height="70px" viewBox="0 0 70 70" style="enable-background:new 0 0 70 70;" xml:space="preserve">
<style type="text/css">
	.st0{fill:#D3E060;}
	.st1{fill:#FFFFFF;}
	.st2{fill:#231F20;}
	.st3{fill:#78C144;}
</style>
<g id="Layer_2">
	<title>fruit</title>
	<path class="st0" d="M25.5,33.4c-1.2,0-2.2-1-2.2-2.2s1-2.2,2.2-2.2c0.2,0,0.4,0,0.6,0.1c1.2,0.3,1.8,1.6,1.5,2.7c0,0,0,0,0,0
		C27.3,32.7,26.4,33.4,25.5,33.4z"/>
	<path class="st1" d="M25.5,30L25.5,30c0.1,0,0.2,0,0.3,0c0.6,0.2,1,0.9,0.8,1.5c0,0,0,0,0,0c-0.2,0.6-0.9,1-1.5,0.8
		c-0.6-0.2-1-0.9-0.8-1.5C24.5,30.3,24.9,30,25.5,30 M25.5,28c-1.8,0-3.2,1.4-3.2,3.2c0,1.8,1.4,3.2,3.2,3.2c1.8,0,3.2-1.4,3.2-3.2
		c0-1.4-0.9-2.7-2.3-3.1C26.1,28,25.8,28,25.5,28L25.5,28z"/>
	<path class="st0" d="M36.2,46.4c-1.9,0-3.4-1.5-3.4-3.4c0-1.9,1.5-3.4,3.4-3.4s3.4,1.5,3.4,3.4c0,1.3-0.8,2.5-2,3.1
		C37.2,46.3,36.7,46.4,36.2,46.4z"/>
	<path class="st1" d="M36.2,40.7L36.2,40.7c1.3,0,2.4,1,2.4,2.3c0,0.9-0.5,1.8-1.4,2.2c-0.3,0.1-0.7,0.2-1,0.2c-1.3,0-2.4-1-2.4-2.3
		c0-0.9,0.5-1.8,1.4-2.2C35.5,40.7,35.9,40.7,36.2,40.7 M36.2,38.7c-2.4,0-4.3,2-4.3,4.4c0,2.4,2,4.3,4.4,4.3c2.4,0,4.3-2,4.3-4.4
		c0-0.6-0.1-1.2-0.4-1.8C39.5,39.6,37.9,38.6,36.2,38.7L36.2,38.7z"/>
	<path class="st0" d="M41.7,53.7c-1.9,0-3.4-1.5-3.4-3.4c0-1.9,1.5-3.4,3.4-3.4c1.9,0,3.4,1.5,3.4,3.4c0,0.4-0.1,0.8-0.2,1.2
		C44.3,52.8,43.1,53.7,41.7,53.7z"/>
	<path class="st1" d="M41.7,47.9L41.7,47.9c1.3,0,2.4,1,2.4,2.3c0,0.9-0.5,1.8-1.4,2.2c-0.3,0.1-0.7,0.2-1,0.2c-1.3,0-2.4-1-2.4-2.3
		c0-0.9,0.5-1.8,1.4-2.2C41,48,41.3,47.9,41.7,47.9 M41.7,45.9c-2.4,0-4.3,2-4.3,4.4c0,2.4,2,4.3,4.4,4.3c2.4,0,4.3-2,4.3-4.4
		c0-0.6-0.1-1.2-0.4-1.8C44.9,46.9,43.4,45.9,41.7,45.9L41.7,45.9z"/>
	<path class="st0" d="M28.1,59.8c-1.9,0-3.4-1.5-3.4-3.4c0-1.9,1.5-3.4,3.4-3.4s3.4,1.5,3.4,3.4c0,1.3-0.8,2.5-2,3.1
		C29,59.7,28.6,59.8,28.1,59.8z"/>
	<path class="st1" d="M28.1,54.1L28.1,54.1c1.3,0,2.4,1,2.4,2.3c0,0.9-0.5,1.8-1.4,2.2c-0.3,0.1-0.7,0.2-1,0.2c-1.3,0-2.4-1-2.4-2.3
		c0-0.9,0.5-1.8,1.4-2.2C27.4,54.2,27.7,54.1,28.1,54.1 M28.1,52.1c-2.4,0-4.3,2-4.3,4.4c0,2.4,2,4.3,4.4,4.3c2.4,0,4.3-2,4.3-4.4
		c0-0.6-0.1-1.2-0.4-1.8C31.4,53.1,29.8,52.1,28.1,52.1C28.1,52.1,28.1,52.1,28.1,52.1z"/>
	<path class="st0" d="M36.9,61c-1.9,0-3.4-1.5-3.4-3.4c0-1.9,1.5-3.4,3.4-3.4c1.9,0,3.4,1.5,3.4,3.4c0,0.4-0.1,0.8-0.2,1.2
		C39.6,60.1,38.3,61,36.9,61z"/>
	<path class="st1" d="M36.9,55.2L36.9,55.2c1.3,0,2.4,1,2.4,2.3c0,0.9-0.5,1.8-1.4,2.2c-0.3,0.1-0.7,0.2-1,0.2c-1.3,0-2.4-1-2.4-2.3
		c0-0.9,0.5-1.8,1.4-2.2C36.2,55.3,36.6,55.2,36.9,55.2 M36.9,53.2c-2.4,0-4.3,2-4.3,4.4c0,2.4,2,4.3,4.4,4.3c2.4,0,4.3-2,4.3-4.4
		c0-0.6-0.1-1.2-0.4-1.8C40.2,54.2,38.6,53.2,36.9,53.2L36.9,53.2z"/>
	<path class="st0" d="M55.1,60.4c-1.9,0-3.4-1.5-3.4-3.4c0-1.9,1.5-3.4,3.4-3.4s3.4,1.5,3.4,3.4c0,1.3-0.8,2.5-2,3.1
		C56.1,60.3,55.6,60.4,55.1,60.4z"/>
	<path class="st1" d="M55.1,54.7L55.1,54.7c1.3,0,2.4,1,2.4,2.3c0,0.9-0.5,1.8-1.4,2.2c-0.3,0.1-0.7,0.2-1,0.2c-1.3,0-2.4-1-2.4-2.3
		c0-0.9,0.5-1.8,1.4-2.2C54.5,54.8,54.8,54.7,55.1,54.7 M55.1,52.7c-2.4,0-4.3,2-4.3,4.4c0,2.4,2,4.3,4.4,4.3c2.4,0,4.3-2,4.3-4.4
		c0-0.6-0.1-1.2-0.4-1.8C58.4,53.7,56.9,52.7,55.1,52.7L55.1,52.7z"/>
	<path class="st0" d="M50.4,53c-1.9,0-3.4-1.5-3.4-3.4c0-1.3,0.8-2.5,2-3.1c0.4-0.2,0.9-0.3,1.4-0.3c1.9,0,3.4,1.5,3.4,3.4
		S52.2,53,50.4,53z"/>
	<path class="st1" d="M50.4,47.3L50.4,47.3c1.3,0,2.4,1,2.4,2.3c0,0.9-0.5,1.8-1.4,2.2c-0.3,0.1-0.7,0.2-1,0.2c-1.3,0-2.4-1-2.4-2.3
		c0-0.9,0.5-1.8,1.4-2.2C49.7,47.3,50,47.3,50.4,47.3 M50.4,45.3c-2.4,0-4.3,2-4.3,4.4c0,2.4,2,4.3,4.4,4.3c2.4,0,4.3-2,4.3-4.4
		c0-0.6-0.1-1.2-0.4-1.8C53.7,46.2,52.1,45.2,50.4,45.3L50.4,45.3z"/>
	<path class="st0" d="M58,52.1c-0.9,0-1.6-0.7-1.6-1.6c0-0.9,0.7-1.6,1.6-1.6c0.9,0,1.6,0.7,1.6,1.6c0,0.2,0,0.4-0.1,0.6
		C59.2,51.7,58.6,52.1,58,52.1z"/>
	<path class="st1" d="M58,49.7L58,49.7c0.3,0,0.6,0.2,0.8,0.5c0.2,0.4,0,0.9-0.4,1.1c-0.1,0-0.2,0.1-0.3,0.1c-0.3,0-0.6-0.2-0.8-0.5
		c-0.2-0.4,0-0.9,0.4-1.1C57.8,49.7,57.9,49.7,58,49.7 M58,48.3c-1.3,0-2.3,0.9-2.4,2.2c0,1.3,0.9,2.3,2.2,2.4
		c1.3,0,2.3-0.9,2.4-2.2c0-0.4-0.1-0.7-0.2-1C59.6,48.8,58.8,48.3,58,48.3L58,48.3L58,48.3z"/>
	<path class="st0" d="M40.2,39c-0.6,0-1.1-0.5-1.2-1.1c0-0.6,0.5-1.1,1.1-1.2c0.6,0,1.1,0.5,1.2,1.1c0,0.1,0,0.3-0.1,0.4
		C41.1,38.7,40.7,39,40.2,39z"/>
	<path class="st1" d="M40.2,37.3c0.3,0,0.6,0.3,0.6,0.6c0,0.1,0,0.1,0,0.2c-0.1,0.2-0.3,0.4-0.6,0.4c-0.3,0-0.6-0.3-0.6-0.6
		c0-0.2,0.1-0.5,0.4-0.6C40.1,37.3,40.2,37.3,40.2,37.3 M40.2,36.3c-0.9,0-1.6,0.7-1.6,1.6c0,0.9,0.7,1.6,1.6,1.6
		c0.9,0,1.6-0.7,1.6-1.6c0-0.2,0-0.5-0.1-0.7C41.4,36.7,40.9,36.3,40.2,36.3L40.2,36.3z"/>
	<path class="st0" d="M19.1,56.5c-1.9,0-3.4-1.5-3.4-3.4c0-1.9,1.5-3.4,3.4-3.4s3.4,1.5,3.4,3.4c0,1.3-0.8,2.5-2,3.1
		C20.1,56.4,19.6,56.5,19.1,56.5z"/>
	<path class="st1" d="M19.1,50.8L19.1,50.8c1.3,0,2.4,1,2.4,2.3c0,0.9-0.5,1.8-1.4,2.2c-0.3,0.1-0.7,0.2-1,0.2c-1.3,0-2.4-1-2.4-2.3
		c0-0.9,0.5-1.8,1.4-2.2C18.5,50.9,18.8,50.8,19.1,50.8 M19.1,48.8c-2.4,0-4.3,2-4.3,4.4c0,2.4,2,4.3,4.4,4.3c2.4,0,4.3-2,4.3-4.4
		c0-0.6-0.1-1.2-0.4-1.8C22.4,49.8,20.9,48.8,19.1,48.8L19.1,48.8z"/>
	<path class="st0" d="M63.8,57.9c-1.9,0-3.4-1.5-3.4-3.4c0-1.9,1.5-3.4,3.4-3.4c1.9,0,3.4,1.5,3.4,3.4c0,1.3-0.8,2.5-2,3.1
		C64.8,57.8,64.3,57.9,63.8,57.9z"/>
	<path class="st1" d="M63.8,52.2L63.8,52.2c1.3,0,2.4,1,2.4,2.3c0,0.9-0.5,1.8-1.4,2.2c-0.3,0.1-0.7,0.2-1,0.2c-1.3,0-2.4-1-2.4-2.3
		c0-0.9,0.5-1.8,1.4-2.2C63.1,52.2,63.5,52.2,63.8,52.2 M63.8,50.2c-2.4,0-4.3,2-4.3,4.4c0,2.4,2,4.3,4.4,4.3c2.4,0,4.3-2,4.3-4.4
		c0-0.6-0.1-1.2-0.4-1.8C67.1,51.1,65.6,50.1,63.8,50.2L63.8,50.2z"/>
	<path class="st0" d="M46.4,61.4c-1.9,0-3.4-1.5-3.4-3.4s1.5-3.4,3.4-3.4c1.9,0,3.4,1.5,3.4,3.4c0,0.3,0,0.6-0.1,0.9
		C49.2,60.4,47.9,61.4,46.4,61.4z"/>
	<path class="st1" d="M46.4,55.7L46.4,55.7c1.3,0,2.4,1.1,2.4,2.4s-1.1,2.4-2.4,2.4c-1.3,0-2.4-1.1-2.4-2.4c0-0.2,0-0.5,0.1-0.7
		C44.5,56.4,45.4,55.7,46.4,55.7 M46.4,53.7c-2.4,0-4.4,2-4.4,4.4c0,2.4,2,4.4,4.4,4.4c2.4,0,4.4-2,4.4-4.4c0-1.9-1.3-3.6-3.1-4.2
		C47.3,53.8,46.8,53.7,46.4,53.7L46.4,53.7z"/>
	<path class="st0" d="M26.3,50c-2.4,0-4.4-1.9-4.4-4.4c0-2.4,1.9-4.4,4.4-4.4c2.4,0,4.4,1.9,4.4,4.4c0,0.4-0.1,0.8-0.2,1.2
		C29.9,48.7,28.2,50,26.3,50z"/>
	<path class="st1" d="M26.3,42.2L26.3,42.2c1.9,0,3.4,1.5,3.4,3.3c0,1.9-1.5,3.4-3.3,3.4c-1.9,0-3.4-1.5-3.4-3.3c0-0.3,0-0.6,0.1-1
		C23.5,43.2,24.8,42.3,26.3,42.2 M26.3,40.2c-3,0-5.4,2.4-5.4,5.4c0,3,2.4,5.4,5.4,5.4c3,0,5.4-2.4,5.4-5.4c0-2.4-1.6-4.5-3.8-5.1
		C27.3,40.3,26.8,40.2,26.3,40.2L26.3,40.2z"/>
	<path class="st0" d="M20.7,40.7c-1.9,0-3.3-1.5-3.3-3.4S19,34,20.8,34c1.9,0,3.3,1.5,3.3,3.4c0,0.3-0.1,0.6-0.1,0.9
		C23.6,39.8,22.2,40.8,20.7,40.7z"/>
	<path class="st1" d="M20.7,35L20.7,35c1.3,0,2.4,1.1,2.4,2.4c0,1.3-1.1,2.4-2.4,2.4c-1.3,0-2.4-1.1-2.4-2.4c0-0.2,0-0.5,0.1-0.7
		C18.8,35.7,19.7,35,20.7,35 M20.7,33c-2.4,0-4.4,1.9-4.4,4.3c0,2.4,1.9,4.4,4.3,4.4c2.4,0,4.4-1.9,4.4-4.3c0-1.9-1.2-3.6-3.1-4.2
		C21.6,33.1,21.2,33,20.7,33L20.7,33z"/>
	<path class="st0" d="M45.4,45.7c-1.9,0-3.4-1.5-3.4-3.4s1.5-3.4,3.4-3.4c1.9,0,3.4,1.5,3.4,3.4c0,0.3,0,0.6-0.1,1
		C48.2,44.7,46.9,45.7,45.4,45.7z"/>
	<path class="st1" d="M45.4,39.9L45.4,39.9c1.3,0,2.4,1.1,2.4,2.4s-1.1,2.4-2.4,2.4c-1.3,0-2.4-1.1-2.4-2.4c0-0.2,0-0.5,0.1-0.7
		C43.5,40.6,44.4,39.9,45.4,39.9 M45.4,37.9c-2.4,0-4.4,2-4.4,4.4c0,2.4,2,4.4,4.4,4.4c2.4,0,4.4-2,4.4-4.4c0-1.9-1.3-3.6-3.1-4.2
		C46.3,38,45.9,37.9,45.4,37.9L45.4,37.9z"/>
	<path class="st0" d="M30,39.8c-1.4,0-2.5-1.1-2.5-2.4s1.1-2.5,2.4-2.5c1.4,0,2.5,1.1,2.5,2.4c0,0.2,0,0.5-0.1,0.7
		C32,39.1,31.1,39.8,30,39.8z"/>
	<path class="st1" d="M30,35.8L30,35.8c0.9,0,1.6,0.7,1.6,1.5s-0.7,1.6-1.5,1.6c-0.9,0-1.6-0.7-1.6-1.5c0-0.2,0-0.3,0.1-0.4
		C28.7,36.3,29.3,35.8,30,35.8 M30,34c-1.8,0-3.3,1.5-3.3,3.3s1.5,3.3,3.3,3.3c1.8,0,3.3-1.5,3.3-3.3c0-1.5-1-2.8-2.4-3.2
		C30.6,34,30.3,34,30,34L30,34z"/>
	<path class="st0" d="M32.3,33.3c-1.1,0-2.1-0.9-2.1-2.1c0-1.1,0.9-2.1,2.1-2.1c1.1,0,2.1,0.9,2.1,2.1c0,0.2,0,0.4-0.1,0.6
		C34.1,32.7,33.3,33.3,32.3,33.3z"/>
	<path class="st1" d="M32.3,30.1L32.3,30.1c0.6,0,1.1,0.4,1.1,1c0,0.6-0.4,1.1-1,1.1s-1.1-0.4-1.1-1c0-0.1,0-0.2,0-0.3
		C31.5,30.4,31.9,30.1,32.3,30.1 M32.3,28.1c-1.7,0-3.1,1.4-3.1,3.1c0,1.7,1.4,3.1,3.1,3.1c1.7,0,3.1-1.4,3.1-3.1
		c0-1.4-0.9-2.6-2.2-3C32.9,28.2,32.6,28.1,32.3,28.1L32.3,28.1z"/>
	<path class="st0" d="M36.1,37.5c-0.9,0-1.6-0.7-1.6-1.6s0.7-1.6,1.6-1.6s1.6,0.7,1.6,1.6c0,0.2,0,0.3-0.1,0.5
		C37.5,37,36.8,37.5,36.1,37.5z"/>
	<path class="st1" d="M36.1,35c0.5,0,0.9,0.4,0.9,0.9c0,0.5-0.4,0.9-0.9,0.9c-0.5,0-0.9-0.4-0.9-0.9c0-0.1,0-0.2,0-0.2
		C35.4,35.3,35.7,35,36.1,35 M36.1,33.6c-1.3,0-2.3,1-2.3,2.3c0,1.3,1,2.3,2.3,2.3c1.3,0,2.3-1,2.3-2.3c0-1-0.7-1.9-1.6-2.2
		C36.6,33.6,36.4,33.6,36.1,33.6L36.1,33.6z"/>
	<path class="st0" d="M17.9,46.4c-1.1,0-2.1-0.9-2.1-2.1c0-1.1,0.9-2.1,2.1-2.1s2.1,0.9,2.1,2.1c0,0.2,0,0.4-0.1,0.6
		C19.6,45.8,18.8,46.4,17.9,46.4z"/>
	<path class="st1" d="M17.9,43.2L17.9,43.2c0.6,0,1.1,0.4,1.1,1c0,0.6-0.4,1.1-1,1.1c-0.6,0-1.1-0.4-1.1-1c0-0.1,0-0.2,0-0.3
		C17,43.5,17.4,43.2,17.9,43.2 M17.9,41.2c-1.7,0-3.1,1.4-3.1,3.1s1.4,3.1,3.1,3.1c1.7,0,3.1-1.4,3.1-3.1c0-1.4-0.9-2.6-2.2-3
		C18.5,41.3,18.2,41.2,17.9,41.2L17.9,41.2z"/>
	<path class="st0" d="M33.8,52.4c-1.1,0-2.1-0.9-2.1-2.1c0-1.1,0.9-2.1,2.1-2.1c1.1,0,2.1,0.9,2.1,2.1c0,0.2,0,0.4-0.1,0.6
		C35.6,51.8,34.7,52.4,33.8,52.4z"/>
	<path class="st1" d="M33.8,49.2L33.8,49.2c0.6,0,1.1,0.4,1.1,1c0,0.6-0.4,1.1-1,1.1c-0.6,0-1.1-0.4-1.1-1c0-0.1,0-0.2,0-0.3
		C32.9,49.5,33.4,49.2,33.8,49.2 M33.8,47.2c-1.7,0-3.1,1.4-3.1,3.1c0,1.7,1.4,3.1,3.1,3.1c1.7,0,3.1-1.4,3.1-3.1
		c0-1.4-0.9-2.6-2.2-3C34.4,47.3,34.1,47.2,33.8,47.2L33.8,47.2z"/>
	<path class="st2" d="M25.5,35.2c-2.2,0-4-1.8-3.9-4.1c0-0.3,0.1-0.7,0.1-1c0.6-2.1,2.8-3.4,4.9-2.8s3.4,2.8,2.8,4.9
		C28.9,34,27.3,35.2,25.5,35.2z M25.5,28.7c-1.4,0-2.4,1.1-2.4,2.5s1.1,2.4,2.5,2.4c1.1,0,2-0.7,2.3-1.7l0,0c0.4-1.3-0.4-2.6-1.7-3
		C26,28.8,25.7,28.8,25.5,28.7L25.5,28.7z"/>
	<path class="st2" d="M36.2,48.1c-2.8,0-5.1-2.3-5.1-5.1c0-2.8,2.3-5.1,5.1-5.1c2,0,3.8,1.2,4.6,3l0,0c1.2,2.6,0,5.6-2.6,6.8
		C37.7,48,36.9,48.1,36.2,48.1z M36.2,39.4c-2,0-3.6,1.6-3.6,3.6c0,2,1.6,3.6,3.6,3.6c2,0,3.6-1.6,3.6-3.6c0-0.5-0.1-1-0.3-1.5l0,0
		C38.9,40.2,37.6,39.4,36.2,39.4L36.2,39.4z"/>
	<path class="st2" d="M41.7,55.4c-2.8-0.1-5.1-2.4-5-5.2c0.1-2.8,2.4-5.1,5.2-5s5.1,2.4,5,5.2c0,2-1.3,3.8-3.1,4.6
		C43.1,55.3,42.4,55.4,41.7,55.4z M41.7,46.7c-2,0-3.6,1.6-3.6,3.6c0,2,1.6,3.6,3.6,3.6c2,0,3.6-1.6,3.6-3.6c0-0.5-0.1-1-0.3-1.5
		l0,0C44.4,47.5,43.1,46.7,41.7,46.7z"/>
	<path class="st2" d="M28.1,61.6c-2.8,0-5.1-2.3-5.1-5.1c0-2.8,2.3-5.1,5.1-5.1c2,0,3.8,1.2,4.6,3l0,0c1.2,2.6,0,5.6-2.6,6.8
		C29.5,61.4,28.8,61.6,28.1,61.6z M28.1,52.9c-2,0-3.6,1.6-3.6,3.6s1.6,3.6,3.6,3.6c2,0,3.6-1.6,3.6-3.6c0-0.5-0.1-1-0.3-1.5l0,0
		C30.8,53.7,29.5,52.9,28.1,52.9L28.1,52.9z"/>
	<path class="st2" d="M36.9,62.7c-2.8,0-5.1-2.3-5.2-5.1c0-2.8,2.3-5.1,5.1-5.2c2.8,0,5.1,2.3,5.2,5.1c0,2-1.2,3.9-3,4.7
		C38.3,62.6,37.6,62.7,36.9,62.7z M36.9,54c-2,0-3.6,1.6-3.6,3.6c0,2,1.6,3.6,3.6,3.6c2,0,3.6-1.6,3.6-3.6c0-0.5-0.1-1-0.3-1.5l0,0
		C39.6,54.8,38.3,54,36.9,54z"/>
	<path class="st2" d="M55.2,62.2c-2.8,0-5.1-2.3-5.1-5.1c0-2.8,2.3-5.1,5.1-5.1s5.1,2.3,5.1,5.1c0,2-1.2,3.8-3,4.7
		C56.6,62,55.9,62.2,55.2,62.2z M55.2,53.5c-2,0-3.6,1.6-3.6,3.6c0,2,1.6,3.6,3.6,3.6c2,0,3.6-1.6,3.6-3.6c0-0.5-0.1-1-0.3-1.5l0,0
		C57.9,54.3,56.6,53.5,55.2,53.5L55.2,53.5z"/>
	<path class="st2" d="M50.4,54.7c-2.8,0-5.1-2.3-5.1-5.1c0-2.8,2.3-5.1,5.1-5.1c2.8,0,5.1,2.3,5.1,5.1c0,2-1.2,3.8-3,4.7
		C51.8,54.6,51.1,54.7,50.4,54.7z M50.4,46c-2,0-3.6,1.6-3.6,3.6c0,2,1.6,3.6,3.6,3.6c2,0,3.6-1.6,3.6-3.6c0-1.5-0.9-2.9-2.4-3.4
		C51.2,46.1,50.8,46,50.4,46L50.4,46z"/>
	<path class="st2" d="M58,53.6c-0.4,0-0.7-0.1-1.1-0.2c-1.5-0.6-2.3-2.3-1.7-3.9c0.6-1.5,2.3-2.3,3.9-1.7c1.5,0.6,2.3,2.3,1.7,3.9
		C60.4,52.8,59.2,53.6,58,53.6z M58,49c-0.9,0-1.6,0.6-1.6,1.5c0,0.7,0.4,1.3,1.1,1.5c0.4,0.2,0.8,0.2,1.2,0c0.8-0.4,1.1-1.2,0.8-2
		l0,0C59.2,49.4,58.6,49,58,49z"/>
	<path class="st2" d="M40.2,40.1c-0.3,0-0.5,0-0.8-0.1c-1.1-0.4-1.7-1.7-1.3-2.8c0.4-1.1,1.7-1.7,2.8-1.3c1.1,0.4,1.7,1.7,1.3,2.8
		C41.9,39.5,41.1,40.1,40.2,40.1z M40.2,36.9c-0.6,0-1,0.5-1,1c0,0.6,0.5,1,1,1s1-0.5,1-1c0-0.1,0-0.3-0.1-0.4l0,0
		C41,37.1,40.6,36.9,40.2,36.9L40.2,36.9z"/>
	<path class="st2" d="M19.1,58.3c-2.8,0-5.1-2.3-5.1-5.1c0-2.8,2.3-5.1,5.1-5.1s5.1,2.3,5.1,5.1c0,2-1.2,3.8-3,4.7
		C20.6,58.1,19.9,58.3,19.1,58.3z M19.1,49.5c-2,0-3.6,1.6-3.6,3.6s1.6,3.6,3.6,3.6c2,0,3.6-1.6,3.6-3.6c0-0.5-0.1-1-0.3-1.5l0,0
		C21.9,50.4,20.6,49.5,19.1,49.5L19.1,49.5z"/>
	<path class="st2" d="M63.8,59.6c-2.8,0-5.1-2.3-5.1-5.1c0-2,1.2-3.8,3-4.7c2.6-1.2,5.6,0,6.8,2.5c0,0,0,0,0,0l0,0
		c1.2,2.6,0,5.6-2.5,6.8C65.3,59.5,64.6,59.6,63.8,59.6z M63.8,50.9c-2,0-3.6,1.6-3.6,3.6c0,2,1.6,3.6,3.6,3.6c2,0,3.6-1.6,3.6-3.6
		c0-0.5-0.1-1-0.3-1.5l0,0C66.5,51.7,65.2,50.9,63.8,50.9L63.8,50.9z"/>
	<path class="st2" d="M46.4,63.2c-2.8,0-5.1-2.3-5.1-5.1s2.3-5.1,5.1-5.1s5.1,2.3,5.1,5.1c0,0.5-0.1,1-0.2,1.4l0,0
		C50.7,61.7,48.7,63.2,46.4,63.2z M46.4,54.5c-2,0-3.6,1.6-3.6,3.6s1.6,3.6,3.6,3.6c1.6,0,3-1,3.5-2.6l0,0c0.6-1.9-0.5-3.9-2.4-4.5
		C47.1,54.5,46.8,54.5,46.4,54.5z"/>
	<path class="st2" d="M26.3,51.7c-3.4,0-6.1-2.7-6.1-6.1c0-3.4,2.7-6.1,6.1-6.1s6.1,2.7,6.1,6.1c0,0.6-0.1,1.2-0.3,1.7l0,0
		C31.4,49.9,29,51.7,26.3,51.7z M26.3,41c-2.5,0-4.6,2.1-4.6,4.6c0,2.5,2.1,4.6,4.6,4.6c2,0,3.8-1.3,4.4-3.3l0,0
		c0.7-2.4-0.7-5-3.1-5.7c0,0,0,0,0,0C27.2,41.1,26.7,41,26.3,41z"/>
	<path class="st2" d="M20.7,42.5c-2.8,0-5.1-2.3-5.1-5.1c0-2.8,2.3-5.1,5.1-5.1c2.8,0,5.1,2.3,5.1,5.1c0,1.9-1,3.6-2.7,4.5
		C22.4,42.3,21.6,42.5,20.7,42.5z M20.7,33.8c-2,0-3.6,1.6-3.6,3.6s1.6,3.6,3.6,3.6c1.6,0,3-1.1,3.5-2.6l0,0
		c0.6-1.9-0.5-3.9-2.4-4.5C21.4,33.8,21.1,33.8,20.7,33.8L20.7,33.8z"/>
	<path class="st2" d="M45.4,47.4c-2.8,0-5.1-2.3-5.1-5.1s2.3-5.1,5.1-5.1s5.1,2.3,5.1,5.1c0,0.5-0.1,1-0.2,1.4l0,0
		C49.7,45.9,47.7,47.4,45.4,47.4z M45.4,38.7c-2,0-3.6,1.6-3.6,3.6s1.6,3.6,3.6,3.6c1.6,0,3-1,3.5-2.6l0,0c0.6-1.9-0.5-3.9-2.4-4.5
		C46.1,38.7,45.8,38.7,45.4,38.7L45.4,38.7z"/>
	<path class="st2" d="M30,41.6c-2.3,0-4.2-1.9-4.2-4.3s1.9-4.2,4.3-4.2c2.3,0,4.2,1.9,4.2,4.3c0,0.4-0.1,0.8-0.2,1.2
		C33.5,40.4,31.9,41.6,30,41.6z M30,34.9c-1.4,0-2.5,1.1-2.5,2.4c0,1.4,1.1,2.5,2.4,2.5c1.1,0,2-0.7,2.4-1.8l0,0
		c0.4-1.3-0.4-2.7-1.7-3C30.5,35,30.2,34.9,30,34.9z"/>
	<path class="st2" d="M32.3,35c-2.1,0-3.8-1.7-3.9-3.8s1.7-3.8,3.8-3.9c2.1,0,3.8,1.7,3.9,3.8c0,1.4-0.8,2.7-2,3.4
		C33.6,34.8,33,35,32.3,35z M32.3,28.8c-1.3-0.1-2.4,0.8-2.6,2.1s0.8,2.4,2.1,2.6c1.3,0.1,2.4-0.8,2.6-2.1c0.1-1-0.5-2-1.4-2.4
		C32.8,28.9,32.6,28.9,32.3,28.8L32.3,28.8z"/>
	<path class="st2" d="M36.1,38.9c-0.3,0-0.6,0-0.9-0.1c-1.6-0.5-2.5-2.2-2.1-3.8c0.5-1.6,2.2-2.5,3.8-2.1s2.5,2.2,2.1,3.8
		c0,0,0,0,0,0l0,0C38.7,38,37.5,38.9,36.1,38.9z M36.1,34.3c-0.9,0-1.6,0.7-1.6,1.6s0.7,1.6,1.6,1.6c0.7,0,1.3-0.5,1.5-1.1l0,0
		c0.2-0.8-0.2-1.7-1-1.9C36.4,34.3,36.3,34.3,36.1,34.3L36.1,34.3z"/>
	<path class="st2" d="M17.9,48.1c-2.1,0-3.8-1.7-3.9-3.8s1.7-3.8,3.8-3.9s3.8,1.7,3.9,3.8c0,1.4-0.8,2.7-2,3.4
		C19.1,48,18.5,48.1,17.9,48.1z M17.9,42c-1.3,0-2.3,1-2.3,2.3c0,1.3,1,2.3,2.3,2.3c1.3,0,2.3-1,2.3-2.3c0-1-0.7-1.9-1.7-2.2
		C18.3,42,18.1,42,17.9,42L17.9,42z"/>
	<path class="st2" d="M33.8,54.1c-2.1,0-3.8-1.7-3.9-3.8s1.7-3.8,3.8-3.9c2.1,0,3.8,1.7,3.9,3.8c0,1.4-0.8,2.7-2,3.4
		C35.1,54,34.5,54.1,33.8,54.1z M33.8,48c-1.3,0-2.3,1-2.3,2.3s1,2.3,2.3,2.3c1.3,0,2.3-1,2.3-2.3c0-1-0.7-1.9-1.7-2.2
		C34.3,48,34,48,33.8,48L33.8,48z"/>
	<path class="st3" d="M14.1,33.3c-7.3,0-10.3-6.6-11.2-9.2c6,0,11.4,3.5,13.9,8.9C16,33.2,15.1,33.3,14.1,33.3L14.1,33.3L14.1,33.3z
		"/>
	<path class="st1" d="M4.2,25c4.8,0.4,9.1,3.2,11.4,7.4c-0.5,0.1-1,0.1-1.5,0.1c-3.4,0-6.6-1.8-8.4-4.6C5.1,27,4.6,26,4.2,25
		 M2.8,23.2H1.8c0,0,2.7,10.9,12.3,10.9c1.3,0,2.6-0.2,3.9-0.5C18,33.6,14.3,23.2,2.8,23.2L2.8,23.2z"/>
	<path class="st3" d="M18.9,32c-0.5-1.1-0.6-2.3-0.3-3.4c0.5-1.4,1.4-2.5,2.6-3.3C21.7,27.8,20.8,30.3,18.9,32z"/>
	<path class="st1" d="M20.8,26.5c0.1,1.6-0.5,3.2-1.6,4.4c-0.2-0.7-0.2-1.4,0-2.1C19.5,27.9,20,27.1,20.8,26.5 M21.6,24.3
		c0,0-5.9,3.1-2.9,8.7C21.5,31,22.6,27.6,21.6,24.3L21.6,24.3L21.6,24.3z"/>
	<path class="st2" d="M14.1,34.8c-2.2,0-4.3-0.5-6.1-1.6c-5.2-3.1-6.9-9.5-7-9.8c-0.1-0.4,0.1-0.8,0.5-0.9c0,0,0.1,0,0.1,0
		c12.8-0.6,16.9,10.7,16.9,10.8c0.2,0.4,0,0.8-0.4,1c0,0-0.1,0-0.1,0C16.8,34.7,15.5,34.8,14.1,34.8z M2.8,24c0.6,1.8,2.4,5.8,6,7.9
		c2.5,1.4,5.4,1.8,8.2,1.1C14.5,27.5,8.9,23.9,2.8,24z"/>
	<path class="st2" d="M18.7,33.8h-0.2c-0.2-0.1-0.4-0.2-0.5-0.4c-0.9-1.5-1.2-3.4-0.7-5.1c0.7-1.9,2.1-3.6,3.9-4.6
		c0.4-0.2,0.8-0.1,1,0.3c0,0,0,0.1,0.1,0.1c1.1,3.5-0.2,7.3-3.2,9.5C19,33.7,18.9,33.8,18.7,33.8z M21.1,25.6
		c-1.1,0.8-1.9,1.9-2.3,3.1c-0.3,1-0.2,2.1,0.2,3.1C20.7,30.2,21.5,27.9,21.1,25.6z"/>
	<path class="st2" d="M18,34.3c-0.3,0-0.6-0.2-0.7-0.4c-0.2-0.4-4.9-10.8-3.8-26.4c0-0.4,0.4-0.7,0.8-0.7c0.4,0,0.7,0.4,0.7,0.8
		c0,0,0,0,0,0c-1.1,15.1,3.6,25.5,3.6,25.6c0.2,0.4,0,0.8-0.4,1c0,0,0,0,0,0C18.2,34.3,18.1,34.3,18,34.3z"/>
</g>
</svg>
