<svg xmlns="http://www.w3.org/2000/svg" viewBox="0 0 70 70"><defs><style>.cls-1{isolation:isolate;}.cls-2{mix-blend-mode:multiply;}.cls-3{fill:#78c144;}.cls-4{fill:#fff;}.cls-5{fill:#231f20;}.cls-6{fill:#ae3a5e;}</style></defs><g class="cls-1"><g id="Layer_3" data-name="Layer 3"><g class="cls-2"><path class="cls-3" d="M35.64,37.13c-4-3.49-12.45-12.05-11.37-21.56C27,17.22,33.68,22.63,35.64,37.13Z"/><path class="cls-4" d="M25.28,17.55C28,19.69,32.11,24.4,34,34.13c-3.75-3.73-8.62-9.85-8.76-16.58m-1.85-3.65C20.46,27.71,37,39.67,37,39.67,35.11,18,23.43,13.91,23.43,13.91h0Z"/><path class="cls-5" d="M37,40.42a0.75,0.75,0,0,1-.44-0.14,45.92,45.92,0,0,1-8.06-7.85c-5.08-6.35-7.1-12.81-5.84-18.69a0.75,0.75,0,0,1,1-.55c0.5,0.17,12.16,4.5,14.1,26.41A0.75,0.75,0,0,1,37,40.42ZM24,15C22.42,25.48,32.37,34.87,36.1,38,34.18,21.73,26.52,16.35,24,15Z"/><path class="cls-3" d="M38.63,37.29C39.34,34.22,41.35,28,46.16,26,46,27.9,45,32.52,38.63,37.29Z"/><path class="cls-4" d="M45.23,27.32C44.8,29.2,43.54,32.1,40,35.25c0.87-2.69,2.47-6.1,5.26-7.93m1.67-2.41C39,27.22,37.54,39,37.54,39,48,32,46.89,24.91,46.89,24.91h0Z"/><path class="cls-5" d="M37.54,39.72a0.75,0.75,0,0,1-.74-0.84c0.06-.5,1.66-12.26,9.89-14.69a0.75,0.75,0,0,1,1,.6C47.68,25.1,48.74,32.43,38,39.6A0.75,0.75,0,0,1,37.54,39.72ZM46.17,26c-4.82,2.07-6.83,8.25-7.54,11.32C45.05,32.49,46.06,27.89,46.17,26Z"/><path class="cls-3" d="M37.16,37.13c-2.34-5.84-7.33-21.21,0-31.49C39.21,8.8,44,19,37.16,37.13Z"/><path class="cls-4" d="M37.14,7.73c2,3.83,4.54,12.31,0,26.18-2.22-6.46-4.85-17.77,0-26.18m0.06-3.92c-11.26,13.44,0,36.17,0,36.17,10.46-24.91,0-36.17,0-36.17h0Z"/><path class="cls-5" d="M37.21,40.74a0.75,0.75,0,0,1-.67-0.42,56.77,56.77,0,0,1-4.29-13.24C30.36,17.22,31.88,9,36.63,3.33a0.75,0.75,0,0,1,1.13,0c0.44,0.47,10.67,11.9.14,37a0.75,0.75,0,0,1-.67.46h0ZM37.2,5c-8.27,10.94-2.22,27.84,0,33,4.62-11.77,4.34-20.18,3.25-25.24A21.52,21.52,0,0,0,37.2,5Z"/><path class="cls-6" d="M37,56.66a1.1,1.1,0,0,0-.91-0.72,8.27,8.27,0,1,1,1.83,0A1.1,1.1,0,0,0,37,56.66Z"/><path class="cls-4" d="M37,40.55a7.17,7.17,0,0,1,.79,14.3,2.2,2.2,0,0,0-.79.24,2.2,2.2,0,0,0-.79-0.24A7.17,7.17,0,0,1,37,40.55m0-2.2A9.37,9.37,0,0,0,36,57l1,9.15,1-9.15a9.37,9.37,0,0,0-1-18.68h0Z"/><path class="cls-5" d="M37,66.93a0.75,0.75,0,0,1-.75-0.67l-1-8.57a10.12,10.12,0,1,1,3.43,0l-1,8.57A0.75,0.75,0,0,1,37,66.93ZM37,39.1a8.62,8.62,0,0,0-1,17.19,0.75,0.75,0,0,1,.66.66L37,59.5,37.32,57A0.75,0.75,0,0,1,38,56.29,8.62,8.62,0,0,0,37,39.1Z"/><path class="cls-5" d="M37,27a0.75,0.75,0,0,1-.75-0.75V14.78a0.75,0.75,0,0,1,1.5,0V26.21A0.75,0.75,0,0,1,37,27Z"/><path class="cls-5" d="M35.59,52.54a1.62,1.62,0,0,1-1.49-1L35.48,51a0.15,0.15,0,0,0,.23,0l1.38,0.58A1.62,1.62,0,0,1,35.59,52.54Z"/><path class="cls-5" d="M29.16,52.55a1.62,1.62,0,0,1-1.49-1L29.05,51a0.15,0.15,0,0,0,.22,0l1.38,0.58A1.62,1.62,0,0,1,29.16,52.55Z"/><path class="cls-5" d="M30.89,51.56a0.15,0.15,0,0,0-.23,0L29.28,51a1.62,1.62,0,0,1,3,0Z"/><path class="cls-5" d="M32.38,52.55a1.62,1.62,0,0,1-1.49-1L32.27,51a0.14,0.14,0,0,0,.22,0l1.38,0.58A1.62,1.62,0,0,1,32.38,52.55Z"/><path class="cls-5" d="M33.87,51.55L32.49,51a1.62,1.62,0,0,1,3,0l-1.38.58A0.15,0.15,0,0,0,33.87,51.55Z"/><path class="cls-5" d="M37.09,51.56L35.71,51a1.62,1.62,0,0,1,3,0l-1.38.58A0.15,0.15,0,0,0,37.09,51.56Z"/><path class="cls-5" d="M43.75,51.55a0.15,0.15,0,0,0-.22,0L42.14,51a1.62,1.62,0,0,1,3,0Z"/><path class="cls-5" d="M42,52.55a1.62,1.62,0,0,1-1.49-1L41.91,51a0.15,0.15,0,0,0,.23,0l1.38,0.58A1.62,1.62,0,0,1,42,52.55Z"/><path class="cls-5" d="M40.3,51.56L38.92,51a1.62,1.62,0,0,1,3,0l-1.38.58A0.15,0.15,0,0,0,40.3,51.56Z"/><path class="cls-5" d="M38.81,52.55a1.62,1.62,0,0,1-1.49-1L38.7,51a0.15,0.15,0,0,0,.22,0l1.38,0.58A1.62,1.62,0,0,1,38.81,52.55Z"/><path class="cls-5" d="M45.24,52.12a1.2,1.2,0,0,1-1.1-.73l0.6-.25a0.56,0.56,0,0,0,.71.29L45.7,52A1.19,1.19,0,0,1,45.24,52.12Z"/></g></g></g></svg>