<svg id="Layer_1" data-name="Layer 1" xmlns="http://www.w3.org/2000/svg" viewBox="0 0 70 70"><defs><style>.cls-1{fill:#cc4140;}.cls-2{fill:#fff;}.cls-3{fill:#78c144;}.cls-4{fill:#231f20;}</style></defs><title>fruit</title><path class="cls-1" d="M43.05,59.15a5.29,5.29,0,0,1-1.86-.34,3.25,3.25,0,0,0-2.29,0,5.3,5.3,0,0,1-1.86.33h-3.4a5.28,5.28,0,0,1-2.11-.43,3.13,3.13,0,0,0-2.48,0,5.28,5.28,0,0,1-2.11.43H26.46a5.33,5.33,0,0,1-5.32-5.32,1.15,1.15,0,0,0,0-.14l-2.9-22.35a5.33,5.33,0,0,1,5.32-5.25h3.4a5.31,5.31,0,0,1,2.77.78,1.1,1.1,0,0,0,1.15,0,5.31,5.31,0,0,1,2.77-.78H37a5.26,5.26,0,0,1,2.49.62,1.1,1.1,0,0,0,1,0,5.26,5.26,0,0,1,2.49-.62h3.4a5.33,5.33,0,0,1,5.32,5.25L48.84,53.58a2.84,2.84,0,0,0,0,.35,5.34,5.34,0,0,1-5.32,5.22H43.05Z"/><path class="cls-2" d="M46.45,27.2a4.22,4.22,0,0,1,4.22,4.09L47.75,53.44a4.16,4.16,0,0,0,0,.47,4.24,4.24,0,0,1-4.22,4.14H43.05a4.19,4.19,0,0,1-1.48-.27,4.36,4.36,0,0,0-3.06,0,4.19,4.19,0,0,1-1.48.27h-3.4A4.19,4.19,0,0,1,32,57.71a4.23,4.23,0,0,0-3.36,0,4.18,4.18,0,0,1-1.67.34H26.46a4.22,4.22,0,0,1-4.22-4.22,2.2,2.2,0,0,0,0-.28L19.33,31.29a4.22,4.22,0,0,1,4.22-4.09h3.4a4.21,4.21,0,0,1,2.2.62,2.2,2.2,0,0,0,2.3,0,4.21,4.21,0,0,1,2.2-.62H37a4.16,4.16,0,0,1,2,.49,2.2,2.2,0,0,0,2.06,0,4.17,4.17,0,0,1,2-.49h3.4m0-2.2h-3.4a6.39,6.39,0,0,0-3,.75A6.39,6.39,0,0,0,37,25h-3.4a6.39,6.39,0,0,0-3.35.94A6.39,6.39,0,0,0,26.95,25h-3.4a6.42,6.42,0,0,0-6.42,6.42L20,53.84a6.42,6.42,0,0,0,6.42,6.42h0.49a6.39,6.39,0,0,0,2.54-.52,2,2,0,0,1,1.61,0,6.39,6.39,0,0,0,2.54.52H37a6.4,6.4,0,0,0,2.25-.41,2.16,2.16,0,0,1,1.52,0,6.39,6.39,0,0,0,2.25.41H43.5a6.42,6.42,0,0,0,6.42-6.31,2,2,0,0,1,0-.22l2.94-22.31A6.42,6.42,0,0,0,46.45,25h0Z"/><path class="cls-3" d="M34.42,24.48c-0.24-2.08-.93-11.09,4.69-14.12a0.85,0.85,0,0,1,.41-0.1,0.88,0.88,0,0,1,.83.59l0.11,0.32a0.88,0.88,0,0,1-.35,1c-1.6,1.06-5.11,4.36-3.92,12.29H34.42Z"/><path class="cls-2" d="M39.52,10.77a0.37,0.37,0,0,1,.35.25L40,11.34a0.37,0.37,0,0,1-.15.43c-1.64,1.09-5.2,4.41-4.22,12.21H34.88c-0.25-2.61-.55-10.45,4.47-13.16a0.35,0.35,0,0,1,.17,0m0-1a1.37,1.37,0,0,0-.65.17C32.13,13.55,34,25,34,25H36.8c-1.4-8,1.9-11.25,3.6-12.38A1.39,1.39,0,0,0,40.95,11l-0.11-.32a1.39,1.39,0,0,0-1.32-.94h0Z"/><path class="cls-4" d="M43.5,61H43.05a7.13,7.13,0,0,1-2.51-.45,1.42,1.42,0,0,0-1,0A7.13,7.13,0,0,1,37,61h-3.4a7.13,7.13,0,0,1-2.84-.58,1.29,1.29,0,0,0-1,0,7.13,7.13,0,0,1-2.84.58H26.46a7.18,7.18,0,0,1-7.17-7.17L16.38,31.51a7.19,7.19,0,0,1,7.16-7.26h3.4a7.16,7.16,0,0,1,3.35.83,7.16,7.16,0,0,1,3.35-.83H37a7.2,7.2,0,0,1,3,.66,7.2,7.2,0,0,1,3-.66h3.4a7.18,7.18,0,0,1,7.17,7.17L50.68,53.82a1.25,1.25,0,0,0,0,.13A7.2,7.2,0,0,1,43.5,61ZM40,59a2.9,2.9,0,0,1,1,.19,5.65,5.65,0,0,0,2,.36H43.5a5.69,5.69,0,0,0,5.67-5.57,2.55,2.55,0,0,1,0-.31l2.94-22.31a5.67,5.67,0,0,0-5.67-5.57h-3.4a5.61,5.61,0,0,0-2.66.66,0.75,0.75,0,0,1-.7,0A5.61,5.61,0,0,0,37,25.75h-3.4a5.66,5.66,0,0,0-3,.83,0.75,0.75,0,0,1-.78,0,5.65,5.65,0,0,0-3-.83h-3.4a5.68,5.68,0,0,0-5.67,5.67l2.91,22.33a5.71,5.71,0,0,0,5.67,5.76h0.49A5.63,5.63,0,0,0,29.19,59a2.79,2.79,0,0,1,2.21,0,5.62,5.62,0,0,0,2.25.46H37a5.65,5.65,0,0,0,2-.36A2.9,2.9,0,0,1,40,59Z"/><path class="cls-4" d="M36.8,25.75H34a0.75,0.75,0,0,1-.74-0.63c-0.08-.49-1.84-12,5.27-15.86a2.14,2.14,0,0,1,3,1.19l0.11,0.32a2.14,2.14,0,0,1-.84,2.48c-1.43,1-4.62,4-3.27,11.63A0.75,0.75,0,0,1,36.8,25.75Zm-2.17-1.5h1.29C34.82,16.38,38.36,13.07,40,12a0.64,0.64,0,0,0,.25-0.74l-0.11-.32a0.63,0.63,0,0,0-.37-0.39,0.61,0.61,0,0,0-.53,0C33.91,13.45,34.39,21.87,34.64,24.25Z"/><path class="cls-4" d="M30.34,56.48a0.75,0.75,0,0,1-.75-0.75V38.2a0.75,0.75,0,0,1,1.5,0V55.73A0.75,0.75,0,0,1,30.34,56.48Z"/><path class="cls-4" d="M30.34,34.29a0.75,0.75,0,0,1-.75-0.75V28.35a0.75,0.75,0,0,1,1.5,0v5.19A0.75,0.75,0,0,1,30.34,34.29Z"/><line class="cls-2" x1="39.82" y1="47.91" x2="39.71" y2="55.73"/><path class="cls-4" d="M39.71,56.48h0A0.75,0.75,0,0,1,39,55.72l0.11-7.82a0.75,0.75,0,0,1,.75-0.74h0a0.75,0.75,0,0,1,.74.76l-0.11,7.82A0.75,0.75,0,0,1,39.71,56.48Z"/><path class="cls-4" d="M39.87,44.74h0A0.75,0.75,0,0,1,39.12,44l0.23-16.28A0.79,0.79,0,0,1,40.12,27a0.75,0.75,0,0,1,.74.76L40.62,44A0.75,0.75,0,0,1,39.87,44.74Z"/></svg>