<svg id="Layer_1" data-name="Layer 1" xmlns="http://www.w3.org/2000/svg" viewBox="0 0 70 70"><defs><style>.cls-1{fill:#cc4140;}.cls-2{fill:#fff;}.cls-3{fill:#78c144;}.cls-4{fill:#231f20;}</style></defs><title>Cherry Tomato</title><path class="cls-1" d="M41.64,54.81a15.9,15.9,0,0,1-6.2-1.24,1.1,1.1,0,0,0-.85,0,16,16,0,1,1,0-29.53,1.1,1.1,0,0,0,.85,0A16,16,0,1,1,41.64,54.81Z"/><path class="cls-2" d="M41.64,23.89a14.91,14.91,0,1,1-5.77,28.66,2.2,2.2,0,0,0-1.7,0,14.91,14.91,0,1,1,0-27.5,2.2,2.2,0,0,0,1.7,0,14.82,14.82,0,0,1,5.77-1.16m0-2.2A17.05,17.05,0,0,0,35,23a17.11,17.11,0,1,0,0,31.56,17.11,17.11,0,1,0,6.62-32.89h0Z"/><path class="cls-3" d="M38.14,21.28A1.61,1.61,0,0,1,39,20.81l0.13,0a1.6,1.6,0,0,1-.58-1.23,3.48,3.48,0,1,0-7,0,1.6,1.6,0,0,1-.52,1.18l0.11,0a1.55,1.55,0,0,1,.88.57,17.72,17.72,0,0,1,3,.88A17.7,17.7,0,0,1,38.14,21.28Z"/><path class="cls-3" d="M28.38,19.56a6.63,6.63,0,0,1,.26-1.85A1.84,1.84,0,0,0,27.55,21c0.28,0,.55,0,0.83,0s0.6,0,.9,0A1.59,1.59,0,0,1,28.38,19.56Z"/><path class="cls-3" d="M42.45,21a1.84,1.84,0,0,0-.95-3.26,6.71,6.71,0,0,1,.26,1.84A1.6,1.6,0,0,1,40.91,21c0.24,0,.47,0,0.72,0S42.17,21,42.45,21Z"/><path class="cls-4" d="M45.48,21.37l-0.54-.11h0a4,4,0,0,0,.39-1.7,4,4,0,0,0-4-4,4,4,0,0,0-1.83.45,5.63,5.63,0,0,0-8.79.05,4,4,0,0,0-1.93-.5,4,4,0,0,0-4,4,4,4,0,0,0,.39,1.69H25.06l-0.54.11A17.86,17.86,0,1,0,35,55.39,17.86,17.86,0,1,0,45.48,21.37ZM35.29,53.88a0.75,0.75,0,0,0-.58,0,16.36,16.36,0,1,1-9.29-31.17l0.68-.1h0.23l0.88-.08,0.77,0h0.41c0.25,0,.5,0,0.75,0h0.28l0.74,0.05c0.37,0,.73.1,1.09,0.16l0.53,0.09,0.09,0h0l0.11,0a16.26,16.26,0,0,1,2.71.85,0.75,0.75,0,0,0,.58,0,16.24,16.24,0,0,1,2.94-.91l0.09,0h0l0.11,0,0.46-.07c0.3-.05.6-0.1,0.91-0.14s0.53,0,.8-0.06h0.24c0.25,0,.5,0,0.76,0h0.44l0.74,0,0.91,0.09H43.9l0.68,0.1A16.35,16.35,0,1,1,35.29,53.88Zm6.33-32.95c-0.24,0-.48,0-0.72,0A17.32,17.32,0,0,0,35,22.21,17.8,17.8,0,0,0,29.28,21c-0.3,0-.6,0-0.9,0s-0.55,0-.83,0-0.84,0-1.26.09a2.86,2.86,0,0,1-.44-1.51,2.89,2.89,0,0,1,2.89-2.89,2.84,2.84,0,0,1,1.32.32,5.57,5.57,0,0,0-.62,2.57,0.56,0.56,0,1,0,1.13,0,4.52,4.52,0,0,1,9,0,0.56,0.56,0,1,0,1.13,0,5.65,5.65,0,0,0-.65-2.62,2.88,2.88,0,0,1,3.65,4.14C43.32,21,42.88,21,42.45,21,42.17,21,41.9,20.94,41.62,20.94Zm-1-1.38A5.56,5.56,0,0,0,40,16.91a2.92,2.92,0,0,1,1.29-.3h0a2.93,2.93,0,0,0-1.29.3,5.55,5.55,0,0,1,.67,2.65,0.5,0.5,0,0,1-.5.5h0A0.5,0.5,0,0,0,40.66,19.56Z"/><path class="cls-4" d="M22.41,26.86a15.32,15.32,0,0,0-3.52,20.83,0.75,0.75,0,1,0,1.25-.84,13.82,13.82,0,0,1,3.17-18.78A0.75,0.75,0,1,0,22.41,26.86Z"/></svg>