<svg id="Layer_1" data-name="Layer 1" xmlns="http://www.w3.org/2000/svg" viewBox="0 0 70 70"><defs><style>.cls-1{fill:#639b42;}.cls-2{fill:#fff;}.cls-3{fill:#231f20;}</style></defs><title>fruit</title><path class="cls-1" d="M9.73,54.55a5.85,5.85,0,0,1-3.89-1.24,1.1,1.1,0,0,0-1.47,0,0.34,0.34,0,0,1-.15.09h0a0.36,0.36,0,0,1-.39-0.25A0.35,0.35,0,0,1,4,52.79a1.1,1.1,0,0,0,.51-1.44c-0.91-2-1.4-5.14,1.44-8.76A14.45,14.45,0,0,1,8.57,40,132.59,132.59,0,0,1,24.7,29.77a1.1,1.1,0,0,0,.4-1.55,0.4,0.4,0,0,1,0-.1,0.35,0.35,0,0,1,.25-0.43h0a0.36,0.36,0,0,1,.37.2,1.1,1.1,0,0,0,1.52.53A154.63,154.63,0,0,1,52.44,17.95a23.07,23.07,0,0,1,4.11-.89,1.1,1.1,0,0,0,1-1.22,0.35,0.35,0,0,1,.25-0.38h0a0.36,0.36,0,0,1,.39.25,1.19,1.19,0,0,0,1.09,1.2H60c4.54,0.2,7.13,1.69,7.71,4.43,1.35,6.38-7.81,10-7.9,10s-1.65.64-4.31,1.72a1.1,1.1,0,0,0-.63,1.36l0,0a0.35,0.35,0,0,1,0,.23,0.36,0.36,0,0,1-.22.17h0a0.36,0.36,0,0,1-.36-0.18,1.1,1.1,0,0,0-1-.61,1.09,1.09,0,0,0-.42.08c-8.38,3.48-23.71,10.19-32.22,16C16.35,53.09,12.7,54.55,9.73,54.55Z"/><path class="cls-2" d="M58,17.55a2.19,2.19,0,0,0,1.33.46h0.64c4,0.17,6.22,1.37,6.68,3.56,1.15,5.43-7.14,8.73-7.22,8.76s-1.69.65-4.33,1.73a2.19,2.19,0,0,0-1.14,1.06,2.19,2.19,0,0,0-1.55.05c-8.42,3.5-23.83,10.24-32.42,16.12-5,3.44-8.32,4.16-10.21,4.16a4.78,4.78,0,0,1-3.18-1A2.19,2.19,0,0,0,5.67,52a2.19,2.19,0,0,0-.19-1.12c-0.78-1.72-1.19-4.44,1.3-7.62a13.32,13.32,0,0,1,2.45-2.36,131.37,131.37,0,0,1,16-10.17,2.2,2.2,0,0,0,1-1.15,2.2,2.2,0,0,0,1.51-.19,153.46,153.46,0,0,1,25-10.4,21.86,21.86,0,0,1,3.91-.84A2.19,2.19,0,0,0,58,17.55m-0.1-3.2A1.45,1.45,0,0,0,56.42,16a24,24,0,0,0-4.3.93A155.83,155.83,0,0,0,26.72,27.45a1.45,1.45,0,0,0-2.73,1,1.44,1.44,0,0,0,.18.4A133,133,0,0,0,7.9,39.16a15.45,15.45,0,0,0-2.85,2.76c-3.28,4.2-2.49,7.87-1.57,9.89a1.45,1.45,0,0,0,1,2.7,1.44,1.44,0,0,0,.62-0.36,7,7,0,0,0,4.6,1.5c2.62,0,6.34-1,11.45-4.54,8.34-5.71,23.25-12.26,32-15.91a1.45,1.45,0,0,0,2.7-1l0-.07c2.65-1.08,4.3-1.71,4.3-1.71s10.14-3.9,8.58-11.27C67.9,17.07,63.66,16,60,15.82H59.31a1.44,1.44,0,0,0,0-.39,1.46,1.46,0,0,0-1.4-1.08h0Z"/><path class="cls-3" d="M9.72,56.39a8,8,0,0,1-4.61-1.31,2.13,2.13,0,0,1-.41.16,2.2,2.2,0,0,1-2.14-3.68c-0.82-2.15-1.38-5.91,1.9-10.11a16.22,16.22,0,0,1,3-2.89,133.42,133.42,0,0,1,15.79-10.1,2.21,2.21,0,0,1,1.59-2.56,2.18,2.18,0,0,1,2.14.58A156.25,156.25,0,0,1,51.89,16.18a24.91,24.91,0,0,1,3.83-.87,2.2,2.2,0,0,1,4.22-.24H60c5.41,0.24,8.68,2.28,9.44,5.89h0c1.67,7.9-8.61,12-9,12.12,0,0-1.42.55-3.74,1.49A2.2,2.2,0,0,1,53,36.12c-8.42,3.51-23.15,10-31.35,15.61C16.37,55.32,12.49,56.39,9.72,56.39Zm-4.59-3a0.75,0.75,0,0,1,.48.18C7,54.79,11.39,56.9,20.76,50.49c8.48-5.81,23.79-12.5,32.16-16a0.75,0.75,0,0,1,1,.36,0.7,0.7,0,0,0,1.31-.5,0.79,0.79,0,0,1,.42-1c2.66-1.08,4.31-1.72,4.31-1.72S69.43,27.93,68,21.28c-0.62-2.92-3.32-4.5-8-4.71H59.38a0.82,0.82,0,0,1-.82-0.75,0.73,0.73,0,0,0,0-.19,0.7,0.7,0,0,0-1.37.26,0.75,0.75,0,0,1-.65.83,23.36,23.36,0,0,0-4.17.9,154.85,154.85,0,0,0-25.27,10.5,0.75,0.75,0,0,1-1-.36,0.7,0.7,0,0,0-.82-0.4,0.69,0.69,0,0,0-.4,1.06,0.75,0.75,0,0,1-.27,1.06A132.57,132.57,0,0,0,8.35,39.76a14.7,14.7,0,0,0-2.71,2.62c-2.94,3.76-2.43,7-1.48,9.12a0.75,0.75,0,0,1-.35,1,0.7,0.7,0,0,0-.36.81,0.69,0.69,0,0,0,1.16.32A0.75,0.75,0,0,1,5.13,53.4Z"/><path class="cls-1" d="M18.11,48.9A169.13,169.13,0,0,1,46.64,34.48"/><path class="cls-3" d="M18.12,49.65a0.75,0.75,0,0,1-.42-1.37A171.67,171.67,0,0,1,46.36,33.79a0.75,0.75,0,1,1,.56,1.39A170.06,170.06,0,0,0,18.53,49.53,0.75,0.75,0,0,1,18.12,49.65Z"/><circle class="cls-1" cx="50.23" cy="22.36" r="1.57"/><path class="cls-3" d="M50.23,24.68a2.32,2.32,0,1,1,2.32-2.32A2.32,2.32,0,0,1,50.23,24.68Zm0-3.13a0.82,0.82,0,1,0,.82.82A0.82,0.82,0,0,0,50.23,21.55Z"/><circle class="cls-1" cx="47.75" cy="26.35" r="1.11"/><path class="cls-3" d="M47.75,28.21a1.86,1.86,0,1,1,1.86-1.86A1.86,1.86,0,0,1,47.75,28.21Zm0-2.21a0.36,0.36,0,1,0,.36.36A0.36,0.36,0,0,0,47.75,26Z"/><circle class="cls-1" cx="9.18" cy="44.19" r="1.11"/><path class="cls-3" d="M9.18,46A1.86,1.86,0,1,1,11,44.19,1.86,1.86,0,0,1,9.18,46Zm0-2.21a0.36,0.36,0,1,0,.36.36A0.36,0.36,0,0,0,9.18,43.83Z"/></svg>