<svg id="Layer_1" data-name="Layer 1" xmlns="http://www.w3.org/2000/svg" viewBox="0 0 70 70"><defs><style>.cls-1{fill:#fdb71c;}.cls-2{fill:#fff;}.cls-3{fill:#231f20;}.cls-4{fill:#ed4c60;}</style></defs><path class="cls-1" d="M23.49,54.91a19.26,19.26,0,0,1-3.3-.29A19,19,0,1,1,23.49,54.91Z"/><path class="cls-2" d="M23.44,18.06h0a18,18,0,0,1,3.08.27,17.8,17.8,0,0,1-3,35.33,18,18,0,0,1-3.08-.27,17.8,17.8,0,0,1,3-35.33m0-2.5a20.31,20.31,0,1,0,3.51.31,20.3,20.3,0,0,0-3.51-.31h0Z"/><path class="cls-3" d="M23.48,56.91A21,21,0,1,1,44.2,39.48,21.09,21.09,0,0,1,23.48,56.91Zm-0.05-40.6A19.56,19.56,0,0,0,4.21,32.5h0A19.55,19.55,0,1,0,26.83,16.6,19.79,19.79,0,0,0,23.42,16.31Z"/><path class="cls-3" d="M13.35,27a0.75,0.75,0,0,1-.66-1.1l1.86-3.51a0.75,0.75,0,0,1,1.32.7L14,26.62A0.75,0.75,0,0,1,13.35,27Z"/><path class="cls-3" d="M16,26.2a0.75,0.75,0,0,1-.35-0.09l-3.51-1.86a0.75,0.75,0,0,1,.7-1.32l3.51,1.86A0.75,0.75,0,0,1,16,26.2Z"/><path class="cls-3" d="M23.25,51.79a17,17,0,0,1-2.92-.25,0.75,0.75,0,1,1,.26-1.48A15.43,15.43,0,0,0,38.43,37.52a0.75,0.75,0,0,1,1.48.26A17,17,0,0,1,23.25,51.79Z"/><path class="cls-2" d="M44.54,57.2q-0.7,0-1.4,0A22.2,22.2,0,0,1,44.5,12.8q0.7,0,1.4,0A22.2,22.2,0,0,1,44.54,57.2Z"/><path class="cls-2" d="M44.5,13.67q0.67,0,1.35,0a21.33,21.33,0,0,1-1.31,42.61q-0.67,0-1.35,0A21.33,21.33,0,0,1,44.5,13.67m0-1.74h0A23.07,23.07,0,0,0,43.08,58c0.48,0,1,0,1.46,0A23.07,23.07,0,0,0,46,12c-0.48,0-1,0-1.46,0h0Z"/><path class="cls-1" d="M44.57,56.44q-1.06,0-2.13-.11a21.24,21.24,0,0,1,4.19-42.28h0A21.25,21.25,0,0,1,44.57,56.44ZM44.52,15.39a19.83,19.83,0,1,0,2,.1C45.83,15.42,45.17,15.39,44.52,15.39Z"/><path class="cls-4" d="M44.54,52.6A17.41,17.41,0,1,1,61.94,35.19,17.43,17.43,0,0,1,44.54,52.6Z"/><path class="cls-2" d="M44.54,19A16.16,16.16,0,1,1,28.38,35.19,16.17,16.17,0,0,1,44.54,19m0-2.5A18.66,18.66,0,1,0,63.19,35.19,18.66,18.66,0,0,0,44.54,16.54h0Z"/><path class="cls-3" d="M44.54,55A19.83,19.83,0,1,1,64.36,35.19,19.85,19.85,0,0,1,44.54,55Zm0-38.12A18.29,18.29,0,1,0,62.83,35.19,18.31,18.31,0,0,0,44.54,16.9Z"/><rect class="cls-3" x="43.79" y="16.54" width="1.5" height="37.31"/><rect class="cls-3" x="25.88" y="34.44" width="37.31" height="1.5"/><line class="cls-2" x1="57.73" y1="48.52" x2="31.35" y2="22.13"/><rect class="cls-3" x="43.79" y="16.67" width="1.5" height="37.31" transform="translate(-11.93 41.84) rotate(-45)"/><line class="cls-2" x1="31.34" y1="48.52" x2="57.73" y2="22.13"/><rect class="cls-3" x="25.88" y="34.58" width="37.31" height="1.5" transform="translate(-11.93 41.84) rotate(-45)"/></svg>