<?xml version="1.0" encoding="UTF-8" standalone="no"?>
<svg width="56px" height="52px" viewBox="0 0 56 52" version="1.1" xmlns="http://www.w3.org/2000/svg" xmlns:xlink="http://www.w3.org/1999/xlink">
    <!-- Generator: Sketch 40.1 (33804) - http://www.bohemiancoding.com/sketch -->
    <title>Page 1</title>
    <desc>Created with Sketch.</desc>
    <defs></defs>
    <g id="Recipes" stroke="none" stroke-width="1" fill="none" fill-rule="evenodd">
        <g id="Recipes-Page-v3.1" transform="translate(-692.000000, -752.000000)">
            <g id="Group-31" transform="translate(-3.000000, 721.000000)">
                <g id="Page-1" transform="translate(700.000000, 36.000000)">
                    <path d="M42.6221426,3.78969074 C47.5163066,8.61250556 47.5163066,16.4640056 42.6221426,21.2868204 L23.2296344,40.3966167 L3.84251967,21.2868204 C-1.05164426,16.4640056 -1.05164426,8.61250556 3.84251967,3.78969074 C6.28960164,1.37372778 9.50640492,0.170301852 12.7224377,0.170301852 C15.939241,0.170301852 19.1560443,1.37372778 21.6031262,3.78513519 L22.7411426,4.91111667 C22.8705852,5.03867222 23.0454869,5.11156111 23.2296344,5.11156111 C23.4145525,5.11156111 23.5894541,5.03867222 23.7181262,4.91111667 L24.8615361,3.78969074 C29.7557,-1.03767963 37.7233557,-1.03767963 42.6221426,3.78969074" id="Fill-1" fill="#77C043"></path>
                    <path d="M12.7227459,0.170377778 C9.50594262,0.170377778 6.28913934,1.3738037 3.84205738,3.78976667 C-1.05210656,8.61258148 -1.05210656,16.4640815 3.84205738,21.2868963 L23.2299426,40.3966926 L42.6224508,21.2868963 C47.5166148,16.4640815 47.5166148,8.61258148 42.6224508,3.78976667 C37.7236639,-1.0376037 29.7552377,-1.0376037 24.8610738,3.78976667 L23.7184344,4.91119259 C23.5897623,5.03874815 23.4140902,5.11087778 23.2299426,5.11087778 C23.0457951,5.11087778 22.870123,5.03874815 22.7414508,4.91119259 L21.6034344,3.78521111 C19.1563525,1.3738037 15.9395492,0.170377778 12.7227459,0.170377778 L12.7227459,0.170377778 Z" id="Stroke-3" stroke="#FEFEFE" stroke-width="8.446"></path>
                    <path d="M12.7227459,0.170377778 C9.50594262,0.170377778 6.28913934,1.3738037 3.84205738,3.78976667 C-1.05210656,8.61258148 -1.05210656,16.4640815 3.84205738,21.2868963 L23.2299426,40.3966926 L42.6224508,21.2868963 C47.5166148,16.4640815 47.5166148,8.61258148 42.6224508,3.78976667 C37.7236639,-1.0376037 29.7552377,-1.0376037 24.8610738,3.78976667 L23.7184344,4.91119259 C23.5897623,5.03874815 23.4140902,5.11087778 23.2299426,5.11087778 C23.0457951,5.11087778 22.870123,5.03874815 22.7414508,4.91119259 L21.6034344,3.78521111 C19.1563525,1.3738037 15.9395492,0.170377778 12.7227459,0.170377778 L12.7227459,0.170377778 Z" id="Stroke-5" stroke="#221F20" stroke-width="1.76"></path>
                </g>
            </g>
        </g>
    </g>
</svg>