<svg xmlns="http://www.w3.org/2000/svg" viewBox="0 0 50 50">
  <path fill="#76C500" d="M36.5 32.6c-.7-.3-1.4-.4-2.1-.5-.1 0-.2 0-.2.1l.4-.6c-.7-.6-1.4-1.1-2.2-1.5-.4-.2-.9-.3-1.3-.2-.2 0-.4-.1-.6-.1-.1 0-.3 0-.4.1h-.6c-1.3.1-.5 1.2-.9 2-.2.4-.6.5-.7.9-.1.4-.1.8 0 1.2.2 1.9 1.5 1 1.8 2.6 0 1.4-.2 2.8-.7 4.1-.2.3-.4.6-.4 1 .1.4.4.7.8.8v-.1c0-.1 0-.3.1-.4.4-.5.9-1 1.4-1.5.1-.2.3-.4.4-.5.3-.2.7.1 1-.1.1-.1.1-.2.1-.3.1-.3.3-.6.6-.7.7-.4 1-1.4 1.6-2 .3-.3.8-.3 1.1-.5.1-.1.1-.3 0-.4.2-.7.6-1.3 1.1-1.8.3-.5.2-1.1-.3-1.4v-.2zm-9.8-17l-1-.7v-.3c.3-.4.6-.7 1-.9 0-.4.1-.8.1-1.2-.4-.1-.8-.2-1.2-.2-.1 0-.2 0-.3.1l-.8.6c-.1 0-.1.1-.2.1-.7 0-1.4-.9-1.7-1.2-.1-.1-.2-.2-.4-.1-.9.1-1.8.1-2.8.1.7.4 1 .1 1.3.9-3 0-5.8.9-8.2 2.7l.1.5c-.6.6-1.1 1.9.3 1.1l.2-.5.1-.2h3c4.1 1.6 0 4.9 3.6 7 .4-.2 2.1 1.8 2.7 2.4.1.1.1.2.1.3 0 1.5 4.4 1.4 5.4 3l.3.3 1.3.2-.7-.6c-.2-.1-.3-.2-.3-.4V28c0-.2-.2-.4-.4-.5l-1.4-.3c-.2 0-.4-.2-.4-.5V26c0-.3-.5 0-.5.1l-.6.4c-.9-1.5-1.1-2.6.7-3.1h.3l1.9.9c.2.1.5 0 .6-.2 0-.1.1-.2 0-.3l-.1-.4c0-.2 0-.4.2-.5.5-.3.9 0 .9-.8 0 0 .1 0 .1-.1-1.7-1.7-2.9-3.9-3.2-6.4z"/>
  <path d="M41.2 24l-.5.2c.1.8.2 1.7.2 2.5-.1 9.8-8 17.7-17.8 17.7H23c-9.8 0-17.8-8-17.7-17.9s8-17.8 17.9-17.7h.2c1.5 0 3.1.2 4.5.6 0-.1.1-.3.2-.4s.2-.3.3-.4c-1.6-.5-3.3-.7-5-.7h-.2c-10.4 0-18.8 8.3-18.8 18.7 0 10.4 8.3 18.8 18.7 18.9h.1c10.3 0 18.7-8.3 18.8-18.6 0-1-.1-2-.2-2.9h-.6z"/>
  <path d="M37.2 5.4c-2.8 0-5.5 1.4-7.2 3.7l-.3.4-.2.4c-2.4 4.3-.9 9.7 3.3 12.1 2.3 1.3 5.2 1.5 7.7.5l.5-.2.5-.2c4.3-2.3 5.9-7.7 3.6-12-1.7-2.9-4.7-4.7-7.9-4.7zm-5 15c-1.7-1.4-2.7-3.4-2.9-5.6v-.5c0-1.4.4-2.8 1.1-4 .1-.1.2-.3.2-.4s.2-.3.3-.4c2.6-3.5 7.6-4.2 11-1.6s4.2 7.6 1.6 11c-.7.9-1.5 1.6-2.4 2.1l-.4.2-.4.2c-2.8 1.3-5.9.9-8.1-1z"/>
  <circle cx="37.1" cy="14.3" r="6.4" fill="#76C500"/>
  <path fill="#FFF" d="M37.1 13.5h.6l-.1.4H37l-.2.8h.6l-.1.4h-.6l-.3 1.1H36l.3-1.1h-.7l-.3 1.1h-.4l.3-1.1h-.6l.1-.4h.6l.2-.8h-.6l.1-.4h.6l.3-1.1h.4l-.3 1.1h.7l.3-1.2h.4l-.3 1.2zm-1.4 1.2h.7l.2-.8h-.7l-.2.8zm3.3-1.5l-.8.3v-.6l1.5-.6v4H39v-3.1z"/>
</svg>
