<?xml version="1.0" encoding="utf-8"?>
<!-- Generator: Adobe Illustrator 20.0.0, SVG Export Plug-In . SVG Version: 6.00 Build 0)  -->
<svg version="1.2" baseProfile="tiny" id="Layer_1" xmlns="http://www.w3.org/2000/svg" xmlns:xlink="http://www.w3.org/1999/xlink"
	 x="0px" y="0px" viewBox="0 0 65.6 67.3" xml:space="preserve">
<g>
	<path fill="#76C500" d="M7.8,28l0,9.7c0,0.8,0.7,1.5,1.5,1.5l11.7,0c0.2,0,0.3,0,0.5,0.1l10.5,6.6c0.4,0.3,0.4-0.2,0.4-0.9l0-24.7
		c0-0.6,0-0.8-0.4-0.5l-9.8,6.2c-0.1,0.1-0.3,0.1-0.4,0.1L9.1,26.7C8.4,26.7,7.8,27.3,7.8,28z"/>
	<path fill="none" stroke="#000000" stroke-width="0.9" stroke-linecap="round" stroke-linejoin="round" stroke-miterlimit="10" d="
		M34.9,29V17.2c0-1.1-1.2-1.7-2.1-1.1L22,23.4c-0.2,0.1-0.5,0.2-0.7,0.2L6.6,24.1c-0.7,0-1.3,0.6-1.3,1.4v15c0,0.7,0.6,1.4,1.4,1.4
		h14.1c0.3,0,0.5,0.1,0.8,0.2l11.3,7.6c0.9,0.6,2.1,0,2.1-1.1V35.2"/>
	<g>
		<path fill="none" stroke="#76C500" stroke-width="0.9" stroke-linecap="round" stroke-miterlimit="10" d="M53.3,50.9
			c4.3-4.6,6.9-10.8,6.9-17.6c0-6.9-2-12.4-6.3-16.9"/>
	</g>
	<g>
		<path fill="none" stroke="#76C500" stroke-width="0.9" stroke-linecap="round" stroke-miterlimit="10" d="M47.5,43
			c2.6-2.8,4.2-6.5,4.2-10.6c0-4-1.5-7.7-4-10.5"/>
	</g>
	<g>
		<path fill="none" stroke="#76C500" stroke-width="0.9" stroke-linecap="round" stroke-miterlimit="10" d="M39.7,39
			c1.5-1.6,2.4-3.8,2.4-6.2c0-1.9-0.2-3.2-1-4.4"/>
	</g>
	
		<line fill="none" stroke="#000000" stroke-width="0.9" stroke-linecap="round" stroke-linejoin="round" stroke-miterlimit="10" x1="8.4" y1="57.6" x2="57.7" y2="9.7"/>
</g>
</svg>
