<?xml version="1.0" encoding="UTF-8" standalone="no"?>
<svg width="36px" height="60px" viewBox="0 0 36 60" version="1.1" xmlns="http://www.w3.org/2000/svg" xmlns:xlink="http://www.w3.org/1999/xlink">
    <!-- Generator: Sketch 40.1 (33804) - http://www.bohemiancoding.com/sketch -->
    <title>Page 1</title>
    <desc>Created with Sketch.</desc>
    <defs></defs>
    <g id="Recipes" stroke="none" stroke-width="1" fill="none" fill-rule="evenodd">
        <g id="Recipes-Page-v3.1" transform="translate(-416.000000, -748.000000)">
            <g id="Group-31" transform="translate(-3.000000, 721.000000)">
                <g id="Page-1" transform="translate(421.000000, 28.000000)">
                    <path d="M13.4309951,25.1454662 C6.70065366,25.1454662 1.24406829,25.6752309 1.24406829,26.3298926 L1.24406829,46.031775 C1.24406829,51.7166868 5.38626341,56.3244662 10.4953854,56.3244662 L16.3666049,56.3244662 C21.4765561,56.3244662 25.617922,51.7166868 25.617922,46.031775 L25.617922,26.3298926 C25.617922,25.6752309 20.1621659,25.1454662 13.4309951,25.1454662" id="Fill-1" fill="#77C043"></path>
                    <path d="M13.4309951,25.1454662 C6.70065366,25.1454662 1.24406829,25.6752309 1.24406829,26.3298926 L1.24406829,46.031775 C1.24406829,51.7166868 5.38626341,56.3244662 10.4953854,56.3244662 L16.3666049,56.3244662 C21.4765561,56.3244662 25.617922,51.7166868 25.617922,46.031775 L25.617922,26.3298926 C25.617922,25.6752309 20.1621659,25.1454662 13.4309951,25.1454662 L13.4309951,25.1454662 Z" id="Stroke-3" stroke="#FEFEFE" stroke-width="5"></path>
                    <path d="M2.67016098,13.5390926 L2.67016098,19.0261809 C2.67016098,20.0069162 2.4761122,20.9767544 2.09962439,21.8803721 L1.2570878,23.9047103 C0.732990244,25.1629015 0.46264878,26.5141368 0.46264878,27.8787838 L0.46264878,46.9276809 C0.46264878,52.4239897 4.87020976,56.8792103 10.307722,56.8792103 L16.5546,56.8792103 C21.9912829,56.8792103 26.3996732,52.4239897 26.3996732,46.9276809 L26.3996732,28.4202838 C26.3996732,26.7454897 26.0538683,25.0891368 25.3846488,23.5576809 L24.8447951,22.3212838 C24.3231854,21.1276368 24.0536732,19.8375926 24.0536732,18.5332985 L24.0536732,13.5390926" id="Stroke-5" stroke="#221F20" stroke-width="1.76"></path>
                    <path d="M24.0540049,13.7486515 C24.0540049,14.3840338 19.2674683,14.8987103 13.3622488,14.8987103 C7.45702927,14.8987103 2.67049268,14.3840338 2.67049268,13.7486515 C2.67049268,13.1132691 7.45702927,12.179475 13.3622488,12.179475 C19.2674683,12.179475 24.0540049,13.1132691 24.0540049,13.7486515 L24.0540049,13.7486515 Z" id="Stroke-7" stroke="#221F20" stroke-width="1.76"></path>
                    <path d="M24.0540049,20.0000426 C24.0540049,20.635425 19.2674683,21.1509397 13.3622488,21.1509397 C7.45702927,21.1509397 2.67049268,20.635425 2.67049268,20.0000426" id="Stroke-9" stroke="#221F20" stroke-width="1.76"></path>
                    <path d="M24.0540049,16.8744309 C24.0540049,17.5098132 19.2674683,18.0244897 13.3622488,18.0244897 C7.45702927,18.0244897 2.67049268,17.5098132 2.67049268,16.8744309" id="Stroke-11" stroke="#221F20" stroke-width="1.76"></path>
                    <path d="M13.8045805,45.9005912 C13.8045805,45.9005912 22.0475073,6.93187059 23.1512634,6.29648824 C24.7094585,5.39873824 33.3603854,0.648458824 33.3603854,0.648458824" id="Stroke-13" stroke="#221F20" stroke-width="1.76"></path>
                </g>
            </g>
        </g>
    </g>
</svg>