<?xml version="1.0" encoding="UTF-8"?>
<svg width="44px" height="48px" viewBox="0 0 44 48" version="1.1" xmlns="http://www.w3.org/2000/svg" xmlns:xlink="http://www.w3.org/1999/xlink">
    <!-- Generator: Sketch 45.1 (43504) - http://www.bohemiancoding.com/sketch -->
    <title>Page 1 Copy</title>
    <desc>Created with Sketch.</desc>
    <defs>
        <polygon id="path-1" points="2.181 0.89309235 2.181 2.39505536 0.679509364 2.39505536 0.679509364 0.89309235 2.181 0.89309235"></polygon>
    </defs>
    <g id="Hurom-About-Page-v2" stroke="none" stroke-width="1" fill="none" fill-rule="evenodd">
        <g id="Mobile---Hurom-About-Page---Annotations" transform="translate(-138.000000, -571.000000)">
            <g id="Page-1-Copy" transform="translate(138.000000, 572.000000)">
                <path d="M39.1965,33.3669 L40.6925,31.9239 C40.9375,31.6859 40.9445,31.2969 40.7075,31.0519 C40.4705,30.8069 40.0835,30.7999 39.8355,31.0359 L38.3405,32.4789 L36.8965,30.9849 C36.6625,30.7399 36.2715,30.7329 36.0245,30.9689 C35.7805,31.2059 35.7735,31.5959 36.0105,31.8409 L37.4535,33.3359 L35.9575,34.7799 C35.7135,35.0159 35.7065,35.4059 35.9425,35.6509 C36.0635,35.7759 36.2245,35.8399 36.3855,35.8399 C36.5405,35.8399 36.6945,35.7829 36.8145,35.6669 L38.3105,34.2229 L39.7545,35.7189 C39.8745,35.8439 40.0355,35.9069 40.1965,35.9069 C40.3505,35.9069 40.5055,35.8489 40.6255,35.7339 C40.8695,35.4969 40.8775,35.1069 40.6395,34.8619 L39.1965,33.3669 Z" id="Fill-1" fill="#78C500"></path>
                <path d="M2.5686,3.7737 L3.2056,3.1587 C3.4496,2.9227 3.4566,2.5327 3.2196,2.2877 C2.9846,2.0437 2.5946,2.0357 2.3476,2.2717 L1.7116,2.8867 L1.0966,2.2507 C0.8626,2.0047 0.4716,1.9997 0.2246,2.2347 C-0.0194,2.4707 -0.0264,2.8617 0.2116,3.1067 L0.8246,3.7417 L0.1876,4.3567 C-0.0564,4.5927 -0.0634,4.9827 0.1726,5.2287 C0.2946,5.3537 0.4556,5.4167 0.6166,5.4167 C0.7706,5.4167 0.9246,5.3597 1.0456,5.2437 L1.6816,4.6287 L2.2966,5.2657 C2.4166,5.3917 2.5776,5.4537 2.7396,5.4537 C2.8926,5.4537 3.0476,5.3967 3.1686,5.2807 C3.4126,5.0447 3.4196,4.6537 3.1816,4.4097 L2.5686,3.7737 Z" id="Fill-3" fill="#78C500"></path>
                <path d="M35.0715,15.4045 C35.0715,7.1735 28.3985,0.4995 20.1675,0.4995 C11.9355,0.4995 5.2625,7.1735 5.2625,15.4045 C5.2625,23.7515 10.9565,27.6205 13.0125,30.6055 C14.1225,32.2145 13.9925,35.3015 13.9925,35.3015 C13.9925,36.1145 14.6575,36.7795 15.4705,36.7795 L24.8635,36.7795 C25.6765,36.7795 26.3425,36.1145 26.3425,35.3015 C26.3425,35.3015 26.0725,32.2145 27.3045,30.6055 C29.8195,27.3215 35.0715,22.7595 35.0715,15.4045 Z" id="Stroke-5" stroke="#000000"></path>
                <path d="M29.012,9.6081 C27.262,7.0971 24.353,5.4541 21.061,5.4541" id="Stroke-7" stroke="#000000" stroke-linecap="round" stroke-linejoin="round"></path>
                <path d="M30.7454,15.1384 C30.7454,14.1804 30.6054,13.2544 30.3474,12.3794" id="Stroke-9" stroke="#000000" stroke-linecap="round" stroke-linejoin="round"></path>
                <path d="M14.9163,39.7771 L14.9163,43.6891 C14.9163,44.8501 15.8663,45.8001 17.0273,45.8001 L23.3923,45.8001 C24.5533,45.8001 25.5033,44.8501 25.5033,43.6891 L25.5033,39.7771 L18.0193,39.7771" id="Stroke-11" stroke="#000000" stroke-linecap="round" stroke-linejoin="round"></path>
                <path d="M14.9163,42.7888 L22.5613,42.7888" id="Stroke-13" stroke="#000000" stroke-linecap="round" stroke-linejoin="round"></path>
                <g id="Group-17" transform="translate(41.000000, 22.300800)">
                    <mask id="mask-2" fill="white">
                        <use xlink:href="#path-1"></use>
                    </mask>
                    <g id="Clip-16"></g>
                    <path d="M2.1184,1.945 C1.9524,2.325 1.5104,2.498 1.1304,2.332 C0.7504,2.166 0.5764,1.723 0.7424,1.343 C0.9084,0.964 1.3504,0.79 1.7304,0.956 C2.1104,1.122 2.2844,1.565 2.1184,1.945" id="Fill-15" fill="#78C500" mask="url(#mask-2)"></path>
                </g>
                <path d="M2.7903,30.7702 C2.5263,31.3742 1.8223,31.6502 1.2183,31.3852 C0.6143,31.1222 0.3383,30.4172 0.6023,29.8132 C0.8663,29.2092 1.5703,28.9332 2.1753,29.1982 C2.7783,29.4612 3.0553,30.1662 2.7903,30.7702" id="Fill-18" fill="#78C500"></path>
            </g>
        </g>
    </g>
</svg>