<?xml version="1.0" encoding="UTF-8"?>
<svg width="133px" height="149px" viewBox="0 0 133 149" version="1.1" xmlns="http://www.w3.org/2000/svg" xmlns:xlink="http://www.w3.org/1999/xlink">
    <!-- Generator: Sketch 46.2 (44496) - http://www.bohemiancoding.com/sketch -->
    <title>Group 2 Copy 4</title>
    <desc>Created with Sketch.</desc>
    <defs></defs>
    <g id="Desktop-+-Mobile" stroke="none" stroke-width="1" fill="none" fill-rule="evenodd">
        <g id="New-Juicer-Page-Final" transform="translate(-530.000000, -2933.000000)">
            <g id="Group-2-Copy-4" transform="translate(531.000000, 2934.000000)">
                <g id="Page-1">
                    <g id="Group-33" transform="translate(0.000000, 18.000000)">
                        <path d="M28.3091165,71.1983761 C27.0008058,71.1983761 25.6947864,70.8483307 24.4271456,70.1586716 C23.4327379,69.6179557 22.5328447,69.1346148 21.5871262,68.690683 C20.7714369,68.308183 20.1860194,67.855558 19.9397087,67.4185807 C19.8681068,67.2922398 19.8497767,67.2423989 19.7409417,67.1705352 C19.6235146,67.0221716 19.0123204,66.1325693 18.7917864,63.463183 C18.6016117,61.161808 17.1896214,59.6625239 14.9184078,59.3507284 C13.9938835,59.2226489 13.1810583,58.962433 12.5039903,58.5758761 C11.1383981,57.796967 9.39761165,56.3011602 8.85630097,53.5987398 C8.74231068,53.0290466 8.70966019,52.4013989 8.75376699,51.6242284 C8.8574466,49.7946034 8.6987767,45.3622398 4.99208738,43.7215466 C3.70382524,43.1506943 2.71228155,41.9811716 2.27178641,40.5126034 C1.7184466,38.6667511 1.43203883,36.2117966 1.42172816,33.2143875 C1.41943689,32.6765693 1.56665049,32.1770011 1.83701942,31.806092 C2.01058252,31.569058 2.16295146,31.4630011 2.23799029,31.4630011 C2.24371845,31.4630011 2.79476699,31.4838648 3.7427767,33.2868307 C3.88884466,33.5638534 4.0601165,33.8095807 4.25143689,34.017058 C4.55674757,34.3468193 5.37873786,35.114717 6.40636893,35.114717 C6.91674757,35.114717 7.86418447,34.9083989 8.46907767,33.5250239 C9.39474757,31.4062057 7.70035922,29.0741148 7.44316505,28.739717 C7.24898058,28.4702284 5.9148932,26.7582511 3.38533981,26.7582511 C2.9757767,26.7582511 2.5518932,26.8046148 2.12571845,26.8956034 C2.03406796,26.915308 1.95100971,26.9245807 1.87940777,26.9245807 C1.71615534,26.9245807 1.66803883,26.8787966 1.62278641,26.819683 C1.17656311,26.2349216 1.37991262,24.2215807 1.69839806,22.9935239 C1.72532039,22.8642852 3.29426214,15.1940011 8.25942718,10.8856602 C8.36081553,10.8282852 8.60884466,10.717592 8.86202913,10.717592 C9.4841068,10.717592 9.86961165,11.5040352 10.0832718,12.1641375 C10.6188544,13.815842 11.4998447,14.1629898 12.1442621,14.1629898 C12.6546408,14.1629898 13.1701748,13.9375466 13.6782621,13.4947739 C14.4372427,12.8306148 14.9103883,11.871467 15.0112039,10.7923534 C15.5462136,5.06180795 18.7390874,4.20581932 20.5944369,4.20581932 C21.1661068,4.20581932 21.7876117,4.27710341 22.4429126,4.41793295 C22.522534,4.43300114 23.7237282,4.64627386 25.3654175,4.64627386 C27.6681359,4.64627386 30.8581456,4.22146705 32.9798544,2.19479659 C32.981,2.19479659 34.3758058,0.9887625 35.8467961,0.9887625 C36.4637184,0.9887625 36.9998738,1.20319432 37.4856214,1.64480795 C38.1586796,2.25796705 38.5447573,3.20784205 38.5436117,4.25044432 C38.542466,5.9102625 38.1506602,9.00561477 35.5391942,11.0902398 C35.4658738,11.1487739 34.7985437,11.7022398 34.7401165,12.6167625 C34.7114757,13.056058 34.8185922,13.7260125 35.4910777,14.4197284 C35.5815825,14.5211489 36.0152039,14.930308 36.8515146,14.930308 C38.1752913,14.930308 39.8043786,13.8708989 41.6946699,11.7816375 C42.4588058,10.9366602 43.511068,10.4521602 44.5805146,10.4521602 C44.7059612,10.4521602 44.8319806,10.4579557 44.9574272,10.4718648 C46.8528738,10.6764443 48.5965243,12.062717 50.1414078,14.5918534 C50.1895243,14.670092 50.2496699,14.7413761 50.317835,14.8016489 C51.240068,15.6153307 53.6516214,18.1375125 53.8721553,20.1241943 C53.8498155,20.5432057 53.9466214,21.5208989 55.1283398,22.4661375 C57.1326214,24.876467 55.4416699,26.9141489 55.2406117,27.1407511 C55.2125437,27.1720466 55.186767,27.2056602 55.1632816,27.240433 C55.0870971,27.355183 54.4272136,28.3885125 54.6872718,29.5707852 C54.795534,30.065717 55.1134466,30.7698648 56.0081845,31.3123193 C56.4366505,31.5713761 56.7442524,31.8165239 56.9745243,32.0825352 C57.3554466,32.5218307 57.9672136,33.3685466 57.7902136,34.1016716 C57.6378447,34.7293193 56.9000583,35.318717 55.6564757,35.8066943 C55.571699,35.8397284 55.4915049,35.886092 55.4199029,35.9440466 C54.2341748,36.8973989 52.230466,38.5438875 51.7378447,39.1703761 C51.286466,39.6873307 50.7153689,40.9049557 51.2320485,42.4297398 C51.277301,42.834842 51.4050388,45.072467 48.941932,46.3567398 C48.8938155,46.3816602 48.8474175,46.4106375 48.8050291,46.4436716 C48.7179612,46.5108989 47.9526796,47.1350693 47.8409806,48.2987966 C47.7430291,49.3228534 48.1737864,50.3926943 49.1223689,51.4787625 C49.4099223,51.7975125 49.7656408,52.4054557 49.6883107,52.7068193 C49.6487864,52.8603989 49.4030485,53.027308 49.0318641,53.1530693 C48.9453689,53.1826261 48.8640291,53.2243534 48.7901359,53.2782511 C48.6927573,53.3489557 47.8358252,54.0113761 47.7201165,55.4845807 C47.6857476,55.9192398 47.575767,56.2692852 47.3913204,56.5248648 C46.9193204,57.1809102 45.9094466,58.038058 43.778,58.395058 C42.7778641,58.5631261 41.9111942,59.1670125 41.4609612,60.0108307 C41.3716019,60.1765807 41.2971359,60.3539216 41.241,60.5335807 C41.1590874,60.7978534 41.0645728,61.0731375 40.9288155,61.2985807 C39.9389903,62.9520239 34.6771068,71.1983761 28.3091165,71.1983761" id="Fill-1" fill="#77C044"></path>
                        <path d="M35.8469107,0.0682125 C33.9927068,0.0682125 32.3556,1.52576932 32.3556,1.52576932 C30.4538524,3.34148523 27.5141631,3.72630341 25.3649592,3.72630341 C23.7845612,3.72630341 22.6320563,3.51824659 22.6320563,3.51824659 C21.8902602,3.35887159 21.2131922,3.28584886 20.5939786,3.28584886 C15.3366777,3.28584886 14.3067553,8.55449659 14.1056971,10.7051898 C14.0306583,11.5067011 13.6858233,12.2717011 13.084367,12.7979284 C12.7945223,13.0500307 12.4685903,13.2424398 12.1443767,13.2424398 C11.7084641,13.2424398 11.277134,12.8947125 10.9471922,11.8770307 C10.4035903,10.1992466 9.55295922,9.79704205 8.86214369,9.79704205 C8.22402718,9.79704205 7.72224078,10.1395534 7.72224078,10.1395534 C2.40422136,14.7081102 0.818667961,22.7603148 0.818667961,22.7603148 C0.818667961,22.7603148 -0.498807767,27.8452466 1.87952233,27.8452466 C2.01298835,27.8452466 2.15676505,27.8290193 2.31314369,27.7959852 C2.69635728,27.7142693 3.05379417,27.678917 3.38602718,27.678917 C5.62401748,27.678917 6.7163767,29.2923716 6.7163767,29.2923716 C6.7163767,29.2923716 8.3867068,31.4384284 7.63746408,33.1527239 C7.29606602,33.9333716 6.84812427,34.1947466 6.4064835,34.1947466 C5.80273592,34.1947466 5.21044466,33.7067693 4.91544466,33.3880193 C4.76823107,33.2292239 4.64679417,33.046667 4.54540583,32.854258 C3.62718252,31.107508 2.85388155,30.5430307 2.23810485,30.5430307 C1.76610485,30.5430307 1.38690097,30.8745307 1.10564854,31.2599284 C0.696085437,31.821508 0.509347573,32.5198602 0.511638835,33.217633 C0.524813592,36.7343148 0.909745631,39.1394284 1.40122136,40.7801216 C1.9007165,42.4439966 3.05264854,43.8667807 4.62731845,44.5639739 C7.82191068,45.9786443 7.93647379,49.971133 7.84596893,51.571258 C7.8041534,52.3113375 7.81961942,53.0560534 7.96511456,53.7816443 C8.57459029,56.8236784 10.5244544,58.5026216 12.0573087,59.3771557 C12.8999204,59.8581784 13.8370466,60.1299852 14.7959398,60.2621216 C15.8464835,60.4064284 17.6772019,61.0219057 17.8857068,63.5400307 C18.1789883,67.0932239 19.1499107,67.8744511 19.1499107,67.8744511 C19.5732214,68.625542 20.4496291,69.1708943 21.2046,69.5255761 C22.1531825,69.970667 23.0748427,70.4684966 23.9959301,70.9692239 C25.4783767,71.7753716 26.9235903,72.1184625 28.3092311,72.1184625 C35.0501243,72.1184625 40.3721534,64.0042466 41.7062408,61.7764739 C41.8872505,61.4751102 42.0041049,61.1459284 42.1089301,60.809792 C42.1484544,60.681133 42.2005806,60.5605875 42.2607262,60.4487352 C42.5952505,59.8222466 43.2327942,59.4194625 43.9264738,59.3029739 C46.3643767,58.8943943 47.5564058,57.8587466 48.1263573,57.066508 C48.4414058,56.6289511 48.5840369,56.0969284 48.6269981,55.5573716 C48.7129204,54.4672466 49.3201049,54.0262125 49.3201049,54.0262125 C51.9006388,53.1528375 49.8035612,50.8694284 49.8035612,50.8694284 C47.6990369,48.4590989 49.3579107,47.1742466 49.3579107,47.1742466 C52.6842505,45.4414057 52.1194544,42.2092807 52.1194544,42.2092807 C51.5666874,40.7024625 52.4362214,39.7607011 52.4362214,39.7607011 C52.7776194,39.2443261 55.9853864,36.6641898 55.9853864,36.6641898 C60.0363379,35.0750761 58.6936583,32.6699625 57.6580078,31.4755193 C57.3229107,31.0889625 56.9116291,30.7870193 56.4757165,30.5227466 C54.7618524,29.4853602 55.9166485,27.755417 55.9166485,27.755417 C58.4582311,24.8976784 55.7591243,21.7965307 55.7591243,21.7965307 C54.6163573,20.9208375 54.7853379,20.118167 54.7853379,20.118167 C54.5476194,17.3038943 50.9153961,14.1082807 50.9153961,14.1082807 C48.8876291,10.7892239 46.7481631,9.73966705 45.0543476,9.55711023 C44.8968233,9.54030341 44.7381534,9.53161023 44.5812019,9.53161023 C43.2362311,9.53161023 41.9428136,10.1447693 41.0240175,11.160133 C38.8845515,13.525258 37.5699398,14.0103375 36.8516291,14.0103375 C36.352134,14.0103375 36.1413379,13.7756216 36.1413379,13.7756216 C35.047833,12.6484057 36.1023864,11.8127011 36.1023864,11.8127011 C38.979066,9.5159625 39.4516388,6.18473523 39.4533573,4.25137159 C39.4545029,3.01172386 39.0042699,1.79004205 38.0934932,0.9607125 C37.3706,0.302928409 36.5915709,0.0682125 35.8469107,0.0682125 M2.64480388,32.2631216 L2.64766796,32.2631216 L2.64480388,32.2631216 M35.8469107,1.90826932 C36.2398621,1.90826932 36.5572019,2.03750795 36.8774058,2.32843977 C37.3597165,2.76715568 37.6352408,3.46782614 37.634668,4.24963295 C37.6329495,6.0734625 37.1706874,8.61534886 34.9802408,10.364417 C34.4675709,10.7706784 33.8970466,11.5600193 33.8323184,12.5568375 C33.7916485,13.1833261 33.9342796,14.1274057 34.8421922,15.0639511 C35.0718913,15.2998261 35.7300563,15.8503943 36.8516291,15.8503943 C38.4629592,15.8503943 40.2667553,14.7220193 42.3655515,12.4020989 C42.9578427,11.7472125 43.7655126,11.371667 44.5812019,11.371667 C44.6745709,11.371667 44.7685126,11.376883 44.8613087,11.3867352 C46.4394155,11.5571216 47.9980466,12.8327011 49.3682214,15.0761216 C49.4633087,15.2320193 49.5836,15.3745875 49.7205029,15.495133 C50.7017359,16.3627125 52.7426777,18.6113489 52.9603476,20.162792 C52.9448816,20.8089852 53.1350563,22.005167 54.4834641,23.1225307 C54.828299,23.5664625 55.8330175,25.0976216 54.5648039,26.5244625 C54.5080951,26.5882125 54.4565417,26.6548602 54.4095709,26.7255648 C54.2486097,26.9660761 53.4644252,28.2439739 53.7989495,29.769917 C53.9467359,30.4416102 54.368901,31.3914852 55.5420272,32.1014284 C55.8862893,32.3106443 56.1245806,32.497258 56.2901243,32.688508 C56.809668,33.287758 56.943134,33.7311102 56.9064738,33.8829511 C56.8646583,34.053917 56.4814447,34.4961102 55.3277942,34.9493148 C55.1570951,35.0159625 54.9972796,35.1086898 54.8540757,35.2240193 C51.9384447,37.5688602 51.2384641,38.3170534 51.0104835,38.6160989 C50.4411049,39.3074966 49.7646097,40.798667 50.3368524,42.6201784 C50.3752311,43.1261216 50.3190951,44.6039625 48.5256097,45.5387693 C48.4293767,45.5886102 48.338299,45.6471443 48.2518039,45.713792 C48.0576194,45.8638943 47.0815417,46.6909057 46.9360466,48.2104739 C46.8123184,49.4982239 47.3186874,50.8022011 48.440833,52.087633 C48.4511437,52.0992239 48.4499981,52.0980648 48.4603087,52.1096557 C48.5141534,52.170508 48.571435,52.248167 48.6229883,52.3264057 C48.4946777,52.3803034 48.372668,52.4486898 48.2598233,52.5304057 C48.0438718,52.6874625 46.9589592,53.5637352 46.8140369,55.4107466 C46.7928427,55.6674852 46.7378524,55.8703261 46.6565126,55.9821784 C46.3517748,56.4064057 45.5526971,57.1656102 43.6297553,57.487258 C42.354668,57.7011102 41.2451243,58.4805989 40.6614252,59.5724625 C40.5428524,59.7938489 40.4460466,60.0239284 40.3738718,60.2563261 C40.3120078,60.4562693 40.2369689,60.6799739 40.1510466,60.8231216 C39.2053282,62.4018034 34.1903282,70.2778261 28.3092311,70.2778261 C27.1366777,70.2778261 26.0070854,69.9741443 24.8568718,69.3482352 C23.8527262,68.8017239 22.9413767,68.312008 21.9693087,67.8559057 C21.2309495,67.5093375 20.8448718,67.1668261 20.7285903,66.9622466 C20.6483961,66.8190989 20.5487262,66.687542 20.4341631,66.571633 C20.3459495,66.4365989 19.8831146,65.6252352 19.6980951,63.3858716 C19.4724058,60.6591102 17.7316194,58.8092011 15.0416777,58.4388716 C14.2317165,58.3270193 13.5277262,58.1038943 12.9503282,57.774133 C11.2043864,56.7784739 10.1274932,55.3116443 9.7477165,53.4159511 C9.64976505,52.9262352 9.6222699,52.3733489 9.66179417,51.6767352 C9.77578447,49.6552807 9.58560971,44.751167 5.35651262,42.8780761 C4.3122699,42.4155989 3.50517282,41.4564511 3.14143495,40.2457807 C2.61387184,38.4851216 2.34121165,36.118258 2.33032816,33.211258 C2.32975534,33.0617352 2.34636699,32.9197466 2.37672621,32.7887693 C2.52909515,32.9985648 2.71869709,33.2976102 2.9403767,33.7189398 C3.12367767,34.0672466 3.34134757,34.3784625 3.58765825,34.6450534 C3.97373592,35.0634852 5.02198835,36.0348034 6.4064835,36.0348034 C6.99591068,36.0348034 8.45716311,35.826167 9.30034757,33.8968602 C10.4213476,31.3323716 8.51730874,28.6444398 8.17361942,28.1918148 C7.86544466,27.7635307 6.31426019,25.8388602 3.38602718,25.8388602 C3.02629903,25.8388602 2.65855146,25.8695761 2.28736699,25.9298489 C2.22550291,25.3022011 2.33834757,24.1645534 2.57778447,23.2274284 C2.58694951,23.1932352 2.59496893,23.1567239 2.60184272,23.1225307 C2.61673592,23.0483489 4.11522136,15.7733148 8.76018252,11.663758 C8.78023107,11.6562239 8.80027961,11.6492693 8.81860971,11.644633 C8.88677476,11.7164966 9.0506,11.9297693 9.21900777,12.4502011 C9.96194951,14.7405648 11.3705029,15.0824966 12.1443767,15.0824966 C12.8787262,15.0824966 13.5947456,14.7828716 14.2729592,14.1899966 C15.2100854,13.3710989 15.7932117,12.1952011 15.916367,10.8784739 C16.1621049,8.25429205 17.1725515,5.12648523 20.5939786,5.12648523 C21.1026388,5.12648523 21.6605612,5.19081477 22.2534252,5.31889432 C22.272901,5.32237159 22.2929495,5.32642841 22.3129981,5.32990568 C22.3662699,5.33975795 23.6436485,5.56636023 25.3649592,5.56636023 C27.8200466,5.56636023 31.2300175,5.10214432 33.5682505,2.89697386 C33.9119398,2.60604205 34.929833,1.90826932 35.8469107,1.90826932" id="Fill-3" fill="#FEFEFE"></path>
                        <path d="M19.1496816,67.8744511 C19.1496816,67.8744511 18.179332,67.0932239 17.8854777,63.5400307 C17.6775456,61.0219057 15.8462544,60.4064284 14.7957107,60.2621216 C13.8373903,60.1299852 12.9002641,59.8581784 12.0570796,59.3771557 C10.5242252,58.5026216 8.57436117,56.8236784 7.96545825,53.7816443 C7.81996311,53.0554739 7.80392427,52.310758 7.84631262,51.571258 C7.93681748,49.971133 7.82225437,45.9786443 4.62708932,44.5639739 C3.05241942,43.8667807 1.90106019,42.4439966 1.40156505,40.779542 C0.909516505,39.1394284 0.524584466,36.7343148 0.511982524,33.217633 C0.509118447,32.5198602 0.695856311,31.821508 1.10541942,31.2599284 C1.7538466,30.3726443 2.92239029,29.7675989 4.54574951,32.854258 C4.64713786,33.046667 4.76857476,33.2292239 4.91521553,33.3880193 C5.42616699,33.9397466 6.82956505,34.9991557 7.63723495,33.1527239 C8.38647767,31.4384284 6.71614757,29.2923716 6.71614757,29.2923716 C6.71614757,29.2923716 5.27608932,27.1642807 2.31291456,27.7959852 C-0.649687379,28.4282693 0.818438835,22.7603148 0.818438835,22.7603148 C0.818438835,22.7603148 2.40456505,14.7081102 7.72258447,10.1395534 C7.72258447,10.1395534 9.90157476,8.65186023 10.9475359,11.8770307 C11.5226427,13.6504398 12.4059243,13.3902239 13.0841379,12.7979284 C13.686167,12.2717011 14.0310019,11.5067011 14.1060408,10.7051898 C14.3305845,8.30065568 15.5902058,2.00273523 22.6318272,3.51824659 C22.6318272,3.51824659 29.0559534,4.67675795 32.3559437,1.52576932 C32.3559437,1.52576932 35.5694388,-1.33602614 38.0932641,0.9607125 C39.0046136,1.79004205 39.4542738,3.01172386 39.4531282,4.25137159 C39.4514097,6.18473523 38.9788369,9.5159625 36.1027301,11.8127011 C36.1027301,11.8127011 35.0481767,12.6484057 36.1405359,13.7756216 C36.1405359,13.7756216 37.3961476,15.1705875 41.0243612,11.160133 C42.0502738,10.0259625 43.5441767,9.39367841 45.0546913,9.55711023 C46.7485068,9.73966705 48.8879728,10.7892239 50.915167,14.1082807 C50.915167,14.1082807 54.5479631,17.3038943 54.7851087,20.118167 C54.7851087,20.118167 54.6161282,20.9208375 55.7588951,21.7965307 C55.7588951,21.7965307 58.4580019,24.8976784 55.9169922,27.755417 C55.9169922,27.755417 54.7621961,29.4853602 56.4754874,30.5227466 C56.9119728,30.7870193 57.3232544,31.0889625 57.6583515,31.4755193 C58.6934291,32.6699625 60.0366816,35.0750761 55.9857301,36.6641898 C55.9857301,36.6641898 52.7773903,39.2443261 52.4359922,39.7607011 C52.4359922,39.7607011 51.5670311,40.7024625 52.1197981,42.2092807 C52.1197981,42.2092807 52.6840214,45.4414057 49.3576816,47.1742466 C49.3576816,47.1742466 47.6993806,48.4590989 49.8039049,50.8694284 C49.8039049,50.8694284 51.9009825,53.1528375 49.3204485,54.025633 C49.3204485,54.025633 48.7121184,54.4672466 48.6267689,55.5573716 C48.5843806,56.0969284 48.4417495,56.6289511 48.126701,57.066508 C47.5567495,57.8587466 46.3641476,58.8943943 43.9268175,59.3029739 C43.232565,59.4194625 42.5955942,59.821667 42.2610699,60.4487352 C42.2003515,60.5605875 42.1482252,60.681133 42.108701,60.8092125 C42.0038757,61.1459284 41.8870214,61.4751102 41.7065845,61.7764739 C40.0975456,64.4620875 32.6944777,75.7012125 23.9962738,70.9692239 C23.0751864,70.4684966 22.1529534,69.970667 21.2043709,69.5255761 C20.4499728,69.1708943 19.5729922,68.625542 19.1496816,67.8744511 Z" id="Stroke-5" stroke="#231F20" stroke-width="1.5" stroke-linecap="round" stroke-linejoin="round"></path>
                        <path d="M29.8507922,100.917061 C23.6506369,100.824914 18.6803165,95.6455159 18.7713942,89.3725159 L19.1689282,62.1414136 C21.8222097,57.6980386 25.3455981,55.4447659 29.643433,55.4447659 C35.0536757,55.4447659 40.101899,58.9968 41.3586563,59.9495727 L40.9256078,89.7028568 C41.0292874,92.663175 39.9816078,95.4287659 37.9761806,97.5313568 C35.9232097,99.6837886 33.0236175,100.91822 30.0209184,100.91822 C30.0203456,100.91822 29.8507922,100.917061 29.8507922,100.917061" id="Fill-7" fill="#EBEBBE"></path>
                        <path d="M29.6432612,54.6400091 C25.7378049,54.6400091 21.6106689,56.3763273 18.3759796,61.9138841 L17.9761544,89.3605773 C17.8782029,96.0885205 23.1893485,101.6226 29.8391641,101.721702 C29.8993097,101.722861 29.960601,101.723441 30.0201738,101.723441 C36.5880767,101.723441 41.9565039,96.3864068 41.7210767,89.7146795 L42.1604262,59.5580318 C42.1604262,59.5580318 36.2157466,54.6400091 29.6432612,54.6400091 M29.6432612,56.2499864 C34.422834,56.2499864 38.9675524,59.2027705 40.5571155,60.3531682 L40.1297951,89.6909182 C40.1297951,89.7175773 40.1297951,89.7448159 40.1309408,89.7720545 C40.2260282,92.4709977 39.2573971,95.0279523 37.403766,96.9717477 C35.5003,98.9682818 32.8086398,100.113464 30.0201738,100.113464 L29.8626495,100.112305 C24.1006981,100.025952 19.4826592,95.2139864 19.5674359,89.3843386 L19.9609602,62.3734636 C22.4469796,58.3096909 25.7028631,56.2499864 29.6432612,56.2499864" id="Fill-9" fill="#FEFEFE"></path>
                        <path d="M18.3760369,61.9137682 L17.9762117,89.3604614 C17.8782602,96.0889841 23.1894058,101.623064 29.8392214,101.721586 C36.4884641,101.820689 41.9588524,96.4477227 41.721134,89.7151432 L42.1599107,59.5584955 C42.1599107,59.5584955 27.0524738,47.0582795 18.3760369,61.9137682 Z" id="Stroke-11" stroke="#231F20" stroke-width="1.25" stroke-linecap="round" stroke-linejoin="round"></path>
                        <path d="M30.8174184,101.077769 C29.8877388,101.077769 29.0909524,100.869133 28.4488262,100.458235 C24.6201272,98.0055989 22.5654379,90.0988602 22.5064379,77.5916898 C22.4634767,68.2975193 23.5575544,59.6182466 23.6303019,59.049133 L24.5622728,55.1343034 L26.5138553,54.5906898 L28.2838553,54.6173489 L29.5343117,83.6925648 C29.545768,83.9707466 29.7542728,84.2008261 30.026933,84.2373375 C30.0521369,84.2408148 30.0773408,84.2425534 30.1025447,84.2425534 C30.3465641,84.2425534 30.5676709,84.0831784 30.6432825,83.8420875 L31.7860495,80.2106557 C32.8469039,76.8411784 33.7164379,73.3702807 34.3694476,69.8970648 L37.6052825,52.6886216 C37.6184573,52.616758 37.6184573,52.5425761 37.6047097,52.4707125 L36.8411466,48.524008 L38.7119621,46.644542 L41.4568942,46.6851102 L41.4208068,49.1939625 C40.9808845,50.9714284 34.9462728,75.8275534 38.3963408,86.1869284 C38.4444573,86.3115307 39.3260204,88.5259739 41.1785058,89.5708943 C41.2180301,91.0116443 40.9906223,96.961258 34.8351466,100.073997 C34.8128068,100.085008 32.8463311,101.077769 30.8174184,101.077769" id="Fill-13" fill="#EAEABE"></path>
                        <path d="M38.4810602,46.0662716 L36.2253126,48.3328739 L37.0461573,52.580942 L33.811468,69.7899648 C33.1596039,73.2544875 32.3026718,76.6755443 31.2452544,80.0363284 L30.1019146,83.6677602 L28.8279728,54.0500898 L26.4410505,54.0147375 L24.0884971,54.6696239 L23.0711767,58.9449307 C23.0711767,58.9449307 18.3591961,94.6773852 28.1451767,100.943431 C28.9637301,101.467919 29.9008563,101.652794 30.8167883,101.652794 C33.0146816,101.652794 35.0888466,100.588169 35.0888466,100.588169 C42.4248951,96.8790784 41.7283515,89.2082148 41.7283515,89.2082148 C39.8466524,88.337158 38.9353029,86.0033284 38.9353029,86.0033284 C35.4451379,75.524567 41.9878369,49.2688398 41.9878369,49.2688398 L42.0336621,46.1190102 L38.4810602,46.0662716 Z M38.9427495,47.2230443 L40.8805845,47.2520216 L40.8536621,49.119317 C40.2986039,51.3772261 34.3934485,75.9679193 37.8578369,86.3707602 C37.8641379,86.3893057 37.8710117,86.4078511 37.8778854,86.4263966 C37.9179825,86.527817 38.7817883,88.6970557 40.6125068,89.8961352 C40.5947495,91.6399875 40.059167,96.7886693 34.5744583,99.5629534 C34.5561282,99.5722261 32.6910408,100.502976 30.8167883,100.502976 C29.9970893,100.502976 29.3034097,100.323897 28.7535068,99.9721125 C21.2479049,95.1665216 22.9079243,68.939192 24.1898854,59.1553057 L25.0365068,55.5986352 L26.5865456,55.1668739 L27.7390505,55.1842602 L28.9665942,83.7176011 C28.9906524,84.2751239 29.4053709,84.7341239 29.9518369,84.8077261 C30.0022447,84.8141011 30.0526524,84.8175784 30.1030602,84.8175784 C30.5916718,84.8175784 31.0333126,84.4982489 31.1851087,84.0166466 L32.3284485,80.3857943 C33.3956039,76.9942943 34.2702932,73.5019534 34.9278854,70.0049761 L38.1631476,52.7953739 C38.1900699,52.6516466 38.1894971,52.5038625 38.1620019,52.3595557 L37.4574388,48.7153739 L38.9427495,47.2230443 L38.9427495,47.2230443 Z" id="Fill-15" fill="#FEFEFE"></path>
                        <path d="M28.145234,100.943662 C18.3592534,94.6770375 23.071234,58.944583 23.071234,58.944583 L24.0885544,54.6692761 L26.4411078,54.0143898 L28.8280301,54.0503216 L30.1019718,83.6674125 L31.2447388,80.0365602 C32.3027291,76.6757761 33.1596612,73.2547193 33.8115252,69.789617 L37.0467874,52.5811739 L36.2247971,48.3331057 L38.4811175,46.0665034 L42.0337194,46.1186625 L41.9878942,49.2690716 C41.9878942,49.2690716 35.4451951,75.5247989 38.9353602,86.0035602 C38.9353602,86.0035602 39.8467097,88.3373898 41.7284087,89.2084466 C41.7284087,89.2084466 42.4249524,96.8787307 35.0889039,100.588401 C35.0889039,100.588401 30.9256806,102.724606 28.145234,100.943662 Z" id="Stroke-17" stroke="#231F20" stroke-width="1.25" stroke-linecap="round" stroke-linejoin="round"></path>
                        <path d="M36.1713534,51.9262295 C36.0625184,51.9262295 35.9416544,51.9030477 35.8099068,51.8572636 L28.111266,33.9099 L31.2313922,22.8939 C32.0631204,22.5508091 34.1544699,21.7776955 36.113499,21.7776955 C38.0639359,21.7776955 39.2582563,22.5311045 39.7651981,24.0808091 C39.8809068,24.4343318 39.8333631,24.8098773 39.6340233,25.1100818 C38.9111301,26.1990477 37.8892272,28.370025 39.1625961,30.6696614 C39.6781301,31.6027295 40.6438971,32.1985023 41.7442757,32.26515 C43.7365282,32.3851159 45.2670913,32.8551273 45.839334,33.5216045 C46.0398194,33.7551614 46.1177223,34.0014682 46.0919456,34.3207977 C46.0701786,34.5850705 45.8800039,34.8163091 45.6176544,34.8933886 C44.594033,35.1982295 43.178033,35.7406841 42.2437709,36.5966727 C41.7139165,37.0811727 41.4418291,37.7789455 41.4985379,38.5109114 C41.5552466,39.2550477 41.939033,39.9139909 42.5519456,40.3196727 C42.9070913,40.5549682 44.6564699,41.7679568 44.2108194,42.5770023 C43.9914311,42.9734114 43.8648388,43.3582295 43.8235961,43.7505818 C43.6231107,45.6984341 43.0766447,47.2852295 42.3629165,47.9969114 C42.224868,48.1342636 42.0255282,48.2096045 41.8009845,48.2096045 C41.7213631,48.2096045 41.6411689,48.1997523 41.5621204,48.1812068 C41.1061592,48.0716727 40.671965,48.0166159 40.2709942,48.0166159 C38.8481204,48.0166159 37.852567,48.7375705 37.5392369,49.9957636 C37.445868,50.4304227 36.9652757,51.9262295 36.1713534,51.9262295" id="Fill-19" fill="#9BCC65"></path>
                        <path d="M36.1132126,20.857725 C33.3665621,20.857725 30.476135,22.2208159 30.476135,22.2208159 L27.1475039,33.9734182 L35.1170864,52.5519068 C35.509465,52.7588045 35.8600282,52.8463159 36.1716398,52.8463159 C37.8780573,52.8463159 38.4205136,50.2203955 38.4205136,50.2203955 C38.6736981,49.2038727 39.4853777,48.9361227 40.2707078,48.9361227 C40.661368,48.9361227 41.0457272,49.0021909 41.3516107,49.0757932 C41.4993971,49.111725 41.6511932,49.1296909 41.8012709,49.1296909 C42.2452029,49.1296909 42.6799699,48.9726341 43.0007466,48.6521455 C44.2368825,47.4211909 44.6195233,44.9024864 44.7283583,43.8465545 C44.7587175,43.5550432 44.8635427,43.2803386 45.0050282,43.0247591 C45.7651544,41.6448614 44.1503874,40.2782932 43.0494359,39.5498045 C42.278999,39.039225 42.1701641,37.9038955 42.8541058,37.2785659 C43.6841155,36.5182023 45.0256495,36.0290659 45.8739893,35.7763841 C46.4909117,35.5932477 46.9457272,35.0444182 46.9984262,34.3953273 C47.1926107,31.9751455 43.6022029,31.4552932 41.7989796,31.3469182 C41.0388534,31.3011341 40.3279893,30.8931341 39.956232,30.2202818 C38.9234456,28.3570432 39.7717854,26.5534977 40.3892806,25.6227477 C40.7467175,25.0831909 40.8297757,24.4080205 40.6287175,23.7913841 C39.8863485,21.5242023 38.0350087,20.857725 36.1132126,20.857725 M36.1132126,22.6977818 L36.1132126,22.6977818 C38.0882806,22.6977818 38.6313097,23.5433386 38.9016786,24.37035 C38.928601,24.4520659 38.9200087,24.5349409 38.878766,24.5975318 C37.4513097,26.7499636 37.2657175,29.1278386 38.3689602,31.1203159 C39.0374359,32.3269295 40.2793,33.0983045 41.6907175,33.1834977 C43.5477854,33.29535 44.7484068,33.7213159 45.1167272,34.08585 C44.0283777,34.4295205 42.6209699,35.0108045 41.6340087,35.9137364 C40.8927854,36.5918045 40.5135816,37.5648614 40.5914845,38.5825432 C40.6711058,39.612975 41.2043971,40.5269182 42.0538825,41.0890773 C42.8707175,41.6297932 43.2293,42.0615545 43.3467272,42.2603386 C43.1113,42.7210773 42.9680961,43.18935 42.9199796,43.6553045 C42.7504262,45.2919409 42.3053485,46.7013955 41.7766398,47.2873159 C41.7749214,47.2867364 41.7732029,47.2867364 41.7720573,47.2861568 C41.2485039,47.1603955 40.7432806,47.0960659 40.2707078,47.0960659 C38.4250961,47.0960659 37.0743971,48.0963614 36.6568146,49.7712477 C36.6505136,49.7955886 36.6453583,49.8199295 36.6402029,49.8442705 C36.5880767,50.0957932 36.4517466,50.4487364 36.3091155,50.7089523 L29.075601,33.8459182 L31.9814942,23.5844864 C32.910601,23.2315432 34.5700476,22.6977818 36.1132126,22.6977818" id="Fill-21" fill="#FEFEFE"></path>
                        <path d="M30.4761922,22.2205841 C30.4761922,22.2205841 38.8255515,18.2837318 40.6287748,23.7917318 C40.829833,24.4077886 40.7467748,25.0829591 40.3893379,25.6225159 C39.7718427,26.5538455 38.9240757,28.3573909 39.9557165,30.2206295 C40.3280466,30.8934818 41.0383379,31.3009023 41.7990369,31.3466864 C43.6022602,31.4556409 47.1932408,31.9749136 46.9984835,34.395675 C46.9457845,35.0441864 46.4909689,35.5930159 45.8740466,35.7767318 C45.025134,36.0288341 43.6841728,36.51855 42.8535903,37.2783341 C42.1702214,37.9042432 42.2784835,39.0395727 43.0494932,39.5495727 C44.1504447,40.2780614 45.7646388,41.6452091 45.0050854,43.0245273 C44.8636,43.2806864 44.7587748,43.5553909 44.7284155,43.8463227 C44.6190078,44.9028341 44.236367,47.4209591 43.0008039,48.6519136 C42.5711922,49.0807773 41.9388039,49.21755 41.3510951,49.0761409 C40.4317262,48.8553341 38.7997748,48.6988568 38.4205709,50.2201636 C38.4205709,50.2201636 37.6621631,53.8915841 35.1171437,52.5522545 L27.1469883,33.9731864 L30.4761922,22.2205841 Z" id="Stroke-23" stroke="#231F20" stroke-width="1.5" stroke-linecap="round" stroke-linejoin="round"></path>
                        <path d="M31.9882534,63.172483 C30.9800981,60.1437784 29.1052728,55.9722102 26.4262146,55.9722102 C25.3756709,55.9722102 24.3766806,56.594642 23.456166,57.8232784 C23.3708165,57.9374489 23.2344864,58.003517 23.0826903,58.003517 C22.9979136,58.003517 22.9131369,57.9820739 22.8380981,57.9415057 C22.1100495,57.5479943 21.1901078,56.8763011 20.9432243,55.906142 C20.7541951,55.1649034 20.978166,54.2903693 21.6094087,53.3068807 C22.6061078,51.7531193 22.8867874,50.3616307 22.4434282,49.1712443 C21.8900883,47.687608 20.4019136,46.986358 19.2505544,46.6594943 C18.1776709,46.3540739 17.2159136,45.9020284 16.391632,45.3155284 C14.016166,43.6249943 11.3583019,40.4635739 12.1923214,35.0071534 C12.2662146,34.5261307 12.2685058,34.014392 12.1991951,33.4887443 C12.0852049,32.6142102 11.944865,30.4907557 13.1111175,29.6608466 C13.9153505,29.0876761 14.3443893,28.1464943 14.2321175,27.204733 C14.0339233,25.5594034 13.5848359,20.1122557 16.1120981,19.084142 C16.8561854,18.7816193 17.4897194,18.2687216 17.9451078,17.598767 C18.5522922,16.7080057 20.1418553,14.634392 21.7806806,14.634392 C22.2045641,14.634392 22.6118359,14.7717443 23.0259816,15.0557216 C23.3943019,15.3084034 23.8210495,15.4422784 24.2586806,15.4422784 C24.7186515,15.4422784 25.1557097,15.2950739 25.5228845,15.015733 C26.4829233,14.2855057 27.362768,13.8664943 27.9390204,13.8664943 C28.1893408,13.8664943 28.3949816,13.9360398 28.5805738,14.2739148 C29.5440495,16.0287784 29.253632,17.9012898 28.6842534,18.5248807 C28.0289524,19.2406193 27.9882825,20.3121989 28.5874476,21.0714034 C29.6024767,22.3562557 31.7820398,25.5623011 30.1059816,27.5698466 C29.7439621,28.0039261 28.641865,29.3241307 29.2095252,30.5614602 C29.6007583,31.4128125 30.6031854,31.8445739 32.1898845,31.8445739 C32.4333311,31.8445739 32.6498553,31.8347216 32.8113893,31.8231307 C32.8784087,31.8184943 32.9465738,31.8161761 33.0147388,31.8161761 C33.2278262,31.8161761 33.4248748,31.8410966 33.6007291,31.890358 C33.8659427,31.9651193 33.9673311,32.0537898 33.9822243,32.0792898 C33.9885252,32.1001534 33.9879524,32.2178011 33.8917194,32.4380284 C33.486166,33.3664602 33.6946709,34.4426761 34.4106903,35.116108 C35.5563214,36.194642 36.7122631,37.9576193 35.7115544,40.2271193 C35.6428165,40.3934489 34.2520204,43.8423239 35.883399,46.093858 C36.1915738,46.5192443 36.3869039,46.9411534 36.4630883,47.3491534 C36.5026126,47.5560511 36.5455738,47.9333352 36.3995058,48.128642 C36.2837971,48.2833807 35.9973893,48.3871193 35.5935544,48.421892 C35.094632,48.465358 34.6495544,48.7325284 34.3717388,49.1555966 C34.0967874,49.575767 34.0269039,50.0898239 34.1798456,50.5667898 C34.392933,51.2315284 34.5275447,52.1460511 33.9558748,52.7209602 C32.967768,53.713142 32.2895544,55.0686989 31.9962728,56.6404261 C31.5964476,58.7754716 31.5660883,60.6827557 31.9040495,62.3089602 C31.9063408,62.3199716 31.9790883,62.6769716 31.9882534,63.172483" id="Fill-25" fill="#9BCC65"></path>
                        <path d="M27.9382757,12.9466977 C26.9192369,12.9466977 25.7260621,13.7099591 24.9768194,14.2802318 C24.7625864,14.4430841 24.5116932,14.5224818 24.2579359,14.5224818 C24.0076155,14.5224818 23.7550039,14.4442432 23.5350427,14.2935614 C22.9381689,13.8844023 22.3487417,13.7140159 21.7805087,13.7140159 C19.7876835,13.7140159 18.0577806,15.81255 17.196266,17.0771182 C16.8439845,17.5952318 16.3502175,17.9962773 15.7733922,18.2304136 C12.7472078,19.4613682 13.0381981,24.8975045 13.3291883,27.3153682 C13.4053728,27.9470727 13.1023534,28.5416864 12.587965,28.9079591 C11.0379262,30.0108341 11.147334,32.4570955 11.2979845,33.6098114 C11.3529748,34.0270841 11.3575573,34.4513114 11.2934019,34.8668455 C10.3631495,40.9561295 13.5187903,44.3963114 15.8690524,46.0683 C16.8193534,46.7446295 17.8865087,47.2268114 19.0046447,47.5449818 C20.4515767,47.9558795 23.1375087,49.2349364 20.8462466,52.8055159 C18.7348485,56.0973341 20.9023825,57.9391295 22.410033,58.7528114 C22.6219748,58.8675614 22.8533922,58.9231977 23.0819456,58.9231977 C23.502965,58.9231977 23.9142466,58.735425 24.1811786,58.3790045 C24.9699456,57.3253909 25.7226252,56.8924705 26.4260427,56.8924705 C29.6859359,56.8924705 31.9055961,66.1808455 31.9055961,66.1808455 C33.3490913,64.6444705 32.794033,62.1193909 32.794033,62.1193909 C32.418266,60.3129477 32.601567,58.352925 32.8896932,56.8113341 C33.1297029,55.5253227 33.6784602,54.2955273 34.5966835,53.3734705 C35.5068874,52.4589477 35.3258777,51.1601864 35.0446252,50.2815955 C34.902567,49.8399818 35.213033,49.3780841 35.6707126,49.338675 C37.3639553,49.1926295 37.529499,48.0961295 37.3565087,47.1763909 C37.2453825,46.5835159 36.9698583,46.0370045 36.6164311,45.5501864 C35.2703146,43.6910045 36.5425379,40.6020273 36.5425379,40.6020273 C37.8239262,37.6956068 36.1564602,35.5026068 35.0303049,34.4420386 C34.5858,34.0241864 34.4781107,33.3716182 34.7232757,32.8100386 C35.2302175,31.6509477 34.5021689,31.18905 33.8451495,31.004175 C33.5747806,30.9282545 33.2952466,30.8963795 33.014567,30.8963795 C32.9263534,30.8963795 32.837567,30.8992773 32.7482078,30.9050727 C32.6038583,30.9155045 32.409101,30.9247773 32.1897126,30.9247773 C30.9043146,30.9247773 28.7671398,30.5996523 30.800635,28.1638227 C32.8793825,25.6729364 30.5795282,22.1197432 29.2981398,20.4970159 C28.9825184,20.0977091 29.008868,19.5245386 29.3525573,19.1489932 C30.2736447,18.1400045 30.4695476,15.8195045 29.3754699,13.8276068 C29.0226155,13.1843114 28.5076544,12.9466977 27.9382757,12.9466977 M27.8277223,14.798925 C28.589567,16.2547432 28.2728,17.6195727 28.0167515,17.9000727 C27.0538485,18.9536864 26.9954214,20.5288909 27.8775573,21.645675 C28.5597806,22.5097773 30.6872175,25.4474932 29.4109845,26.9769136 C28.1908874,28.4379477 27.8460524,29.7749591 28.384499,30.9491182 C28.9378388,32.1545727 30.2175087,32.7648341 32.1897126,32.7648341 C32.4062369,32.7648341 32.6267709,32.7578795 32.8450136,32.7428114 C32.6193243,33.8491636 32.9624408,35.0094136 33.790732,35.7889023 C35.1420039,37.0615841 35.5091786,38.4287318 34.8813728,39.852675 C34.8750718,39.8660045 34.8693437,39.8804932 34.8636155,39.8944023 C34.6929165,40.3087773 33.2511398,44.0172886 35.1500233,46.6379932 C35.3722757,46.9445727 35.5126155,47.234925 35.5658874,47.5003568 C35.5504214,47.5020955 35.5338097,47.5038341 35.5160524,47.5055727 C34.7393146,47.5728 34.0462078,47.9883341 33.6143049,48.6472773 C33.1846932,49.3015841 33.0758583,50.1048341 33.3147223,50.84955 C33.4035087,51.1271523 33.5816544,51.8000045 33.3152951,52.0677545 C32.1960136,53.1920727 31.4313049,54.7139591 31.1025087,56.4688227 C30.9827903,57.1069023 30.8951495,57.7275955 30.8384408,58.3285841 C29.5312757,56.1286295 28.0757515,55.0524136 26.4260427,55.0524136 C25.173868,55.0524136 24.0133437,55.6933909 22.9731107,56.9591182 C22.5200136,56.6763 21.9638097,56.2283114 21.8234699,55.6760045 C21.671101,55.0767545 22.0371301,54.3291409 22.3716544,53.80755 C23.5350427,51.9953114 23.8449359,50.3262205 23.2944602,48.8466409 C22.7508583,47.3885045 21.4373922,46.3256182 19.497266,45.7738909 C18.5229068,45.4962886 17.6545184,45.0894477 16.9150136,44.5632205 C14.7503437,43.0227886 12.3290524,40.1378114 13.0908971,35.1485045 C13.177965,34.5799705 13.1814019,33.9807205 13.1012078,33.3681409 C12.9138971,31.9372432 13.1235476,30.7769932 13.634499,30.4124591 C14.7136835,29.6445614 15.2882175,28.3724591 15.1341301,27.0934023 C14.681033,23.3182432 15.2103146,20.4431182 16.4516058,19.9377545 C17.3612369,19.5680045 18.1368291,18.9397773 18.6936058,18.1214591 C19.7722175,16.5375614 20.9556544,15.5540727 21.7805087,15.5540727 C21.9311592,15.5540727 22.1717417,15.5818909 22.5154311,15.8171864 C23.0355476,16.1736068 23.6381495,16.3625386 24.2579359,16.3625386 C24.9178194,16.3625386 25.5439068,16.150425 26.0697515,15.7505386 C26.9341301,15.0927545 27.543033,14.8528227 27.8277223,14.798925" id="Fill-27" fill="#FEFEFE"></path>
                        <path d="M24.1814078,58.3787727 C23.7684078,58.9293409 23.0122913,59.0782841 22.4096893,58.7531591 C20.9020388,57.9388977 18.7345049,56.0965227 20.8464757,52.8058636 C23.1383107,49.2352841 20.451233,47.9562273 19.0048738,47.5453295 C17.8867379,47.2271591 16.8190097,46.7449773 15.8687087,46.0686477 C13.5190194,44.3960795 10.3633786,40.9564773 11.2936311,34.8671932 C11.3572136,34.4516591 11.3526311,34.0268523 11.2982136,33.6101591 C11.1469903,32.4568636 11.0381553,30.0111818 12.5881942,28.9077273 C13.1020097,28.5420341 13.4050291,27.9468409 13.3294175,27.3151364 C13.0384272,24.8978523 12.7474369,19.4617159 15.7730485,18.2307614 C16.349301,17.9960455 16.8436408,17.595 17.1964951,17.0768864 C18.3031748,15.4524205 20.8441845,12.450375 23.5352718,14.2939091 C23.9774854,14.5964318 24.550301,14.6045455 24.9770485,14.28 C26.1444466,13.3915568 28.3910291,12.0336818 29.3751262,13.827375 C30.4697767,15.8192727 30.2738738,18.1397727 29.3522136,19.1493409 C29.0090971,19.5243068 28.9827476,20.0974773 29.2983689,20.4973636 C30.5797573,22.1200909 32.8796117,25.6727045 30.8008641,28.1635909 C28.4196699,31.0161136 31.757466,30.9743864 32.7484369,30.9054205 C33.1173301,30.8799205 33.4890874,30.9042614 33.8448058,31.0045227 C34.5023981,31.1888182 35.2304466,31.6512955 34.722932,32.8103864 C34.4783398,33.3719659 34.5860291,34.0245341 35.0299612,34.4418068 C36.1561165,35.502375 37.8235825,37.6959545 36.5421942,40.6017955 C36.5421942,40.6017955 35.2699709,43.6907727 36.6166602,45.5499545 C36.9695146,46.0367727 37.2450388,46.5832841 37.3567379,47.1767386 C37.5297282,48.0964773 37.3641845,49.1923977 35.6709417,49.3384432 C35.2132621,49.3784318 34.9027961,49.8403295 35.0448544,50.2819432 C35.3261068,51.1599545 35.5065437,52.4587159 34.5969126,53.3732386 C33.6786893,54.2952955 33.129932,55.5250909 32.8893495,56.8111023 C32.6012233,58.3526932 32.4184951,60.3132955 32.7936893,62.1191591 C32.7936893,62.1191591 33.3493204,64.6448182 31.9052524,66.1811932 C31.9052524,66.1811932 28.624165,52.4482841 24.1814078,58.3787727 Z" id="Stroke-29" stroke="#231F20" stroke-width="1.5" stroke-linecap="round" stroke-linejoin="round"></path>
                        <path d="M14.4524796,35.8308034 C14.4524796,35.8308034 14.355101,42.512383 21.0759456,44.6804625" id="Stroke-31" stroke="#231F20" stroke-width="1.588" stroke-linecap="round" stroke-linejoin="round"></path>
                    </g>
                    <g id="Group-46" transform="translate(59.000000, 0.000000)">
                        <path d="M43.778671,114.732578 C43.0975742,114.732578 42.4356387,114.366519 42.050671,113.777366 C41.3033806,112.632495 40.2460258,111.860601 38.9076387,111.480131 C38.4907355,111.361954 38.0471226,111.302578 37.5889935,111.302578 C36.8974452,111.302578 36.1553806,111.438625 35.3842839,111.707836 C35.1978968,111.772401 34.9940903,111.805836 34.7798323,111.805836 C33.9855097,111.805836 33.1511226,111.363107 32.5919613,110.992436 C32.150671,110.699589 31.7842839,110.277036 31.4718968,109.700566 C31.0927355,109.000154 30.4911871,108.63006 29.7322839,108.63006 C29.0337677,108.63006 28.3445419,108.956342 27.8893161,109.230166 C27.3011226,109.584119 26.7936387,109.807213 26.2925419,109.932307 C25.9255742,110.023389 25.5766065,110.069507 25.2555097,110.069507 C23.1303484,110.069507 22.3818968,108.017272 22.124671,106.793425 C22.0120258,106.253848 21.6154452,105.818036 21.0893806,105.655472 C16.4308645,104.217754 15.8444129,100.909389 15.8078323,99.5535306 C15.7904129,98.8900129 15.302671,98.3077776 14.6204129,98.1388718 C11.3275742,97.3231659 11.4262839,95.1026012 11.6219613,94.1860129 C11.7404129,93.6331776 11.7973161,93.1662365 11.8013806,92.7165894 C11.8118323,91.4817894 11.4744774,90.5121659 10.7980258,89.8353894 C10.0960258,89.1320953 9.06886452,88.7758365 7.74499355,88.7758365 C7.30486452,88.7758365 6.83686452,88.8161894 6.35492903,88.8957424 C5.99957419,88.9539659 5.64828387,88.9839424 5.31092903,88.9839424 C4.80460645,88.9839424 4.32267097,88.9170718 3.87789677,88.78506 C2.49247742,88.3746129 1.56576774,87.7064835 1.12331613,86.7996953 C0.509574194,85.5418365 0.925316129,84.0920129 1.22725161,83.3391424 C1.37938065,82.9580953 1.39215484,82.5309306 1.26499355,82.0691776 C1.03970323,81.24886 1.70512258,80.3334247 2.12202581,79.8607188 C2.58189677,79.3395894 2.67131613,78.6051659 2.3508,77.9912247 C1.74054194,76.8250247 2.40363871,75.8265776 3.06731613,75.1941894 C3.41628387,74.8621424 3.61254194,74.4315188 3.61950968,73.9824482 C3.68221935,69.91026 6.88215484,68.0753541 8.2548,67.4758247 C8.77215484,67.2515776 9.10892903,66.7598482 9.13505806,66.1937541 C9.22796129,64.1899424 10.5193161,63.4088247 10.5738968,63.3765424 C10.5930581,63.3655894 10.6157032,63.3506012 10.6331226,63.3373424 C15.0082839,60.0491541 13.2077032,55.5884247 12.2298968,53.8238482 C11.9744129,53.3620953 11.6237032,53.0006482 11.3142194,52.7083776 C10.5071226,51.9439776 11.1417677,50.4889659 11.5917677,49.6894012 C12.0115742,48.9417188 11.8368,48.0187894 11.1661548,47.4434718 C8.70654194,45.3347424 10.9495742,42.0972835 11.0459613,41.96066 C11.7955742,41.0204365 12.0905419,40.1055776 11.9035742,39.2673894 C11.6957032,38.3392718 10.9536387,37.84466 10.7208,37.7103424 C10.2748645,37.3396718 10.0414452,36.9620835 10.0280903,36.5856482 C10.0071871,36.0086012 10.4902839,35.4678718 10.7800258,35.1969306 C11.1586065,34.8429776 11.3142194,34.3097424 11.1847355,33.8059071 C10.7051226,31.9375659 11.0244774,30.6595306 12.1079613,30.1101541 C12.7489935,29.7861776 13.1206065,29.0898012 13.0317677,28.3772835 C12.4220903,23.5118718 14.5147355,22.1289188 15.8159613,21.7380718 C16.5870581,21.5057541 17.1444774,20.8618365 17.2362194,20.0974365 C17.4853161,18.0244482 18.2848645,16.5953776 18.9113806,15.7606482 C19.6128,14.8273424 20.1336387,13.7873894 20.4605419,12.6678835 C21.2496387,9.95962471 22.6071871,8.14316588 23.6070581,7.09571882 C24.2759613,6.39473059 24.8240903,5.73236588 25.2839613,5.07000118 C28.1012516,1.01164824 33.7155097,0.696318824 35.3691871,0.696318824 C35.604929,0.696318824 35.7402194,0.70266 35.748929,0.70266 C35.9388,0.699201176 36.0735097,0.696895294 36.2076387,0.696895294 C41.8323484,0.696895294 43.4871871,4.80540118 43.9726065,7.25482471 C44.2263484,8.53286 45.3702194,9.49787176 46.6935097,9.54860118 C49.8150581,9.66966 50.8520903,11.5529894 51.1726065,13.1111894 C51.3299613,13.8744365 51.7538323,14.5425659 52.3669935,14.9939424 C56.0517677,17.7010482 55.748671,22.3894835 55.4484774,24.2797306 C55.3758968,24.7351424 55.2713806,25.1156129 55.1302839,25.4418953 C54.1513161,27.6987776 54.9793161,29.4598953 55.8456387,30.5396247 C56.4169935,31.2509894 57.2043484,31.7548247 58.0631226,31.9583188 C60.3531871,32.5013541 61.0337032,34.9876718 61.2200903,36.03166 C61.3176387,36.5758482 61.6584774,37.0543188 62.1543484,37.3442835 C65.8182194,39.4818365 65.1690581,42.9729424 64.7190581,44.3743424 C64.5454452,44.9185306 64.7382194,45.5076835 65.1992516,45.8408835 C67.7221548,47.6671424 67.826671,49.9937776 67.6640903,51.2182012 C67.5589935,52.0148835 67.8342194,52.8006129 68.3997677,53.3211659 C69.6853161,54.5035071 69.7184129,56.6652718 69.6237677,57.8493424 C69.5860258,58.3191659 69.4327355,58.7820718 69.1662194,59.2276835 C68.5774452,60.2099894 68.7475742,61.6407894 68.9937677,62.6692129 C69.1290581,63.2335776 69.4025419,63.7743071 69.7840258,64.2314482 C71.8923484,66.7650365 70.9615742,68.7746129 69.8101548,70.0151776 C69.2446065,70.6233541 68.8323484,71.3278012 68.5844129,72.1094953 C67.8719613,74.3548482 66.3175742,74.8258247 65.1388645,74.8258247 C65.1388645,74.8258247 65.0343484,74.8246718 65.0337677,74.8246718 C64.6139613,74.8246718 64.2464129,74.9924247 63.9932516,75.2846953 C63.7453161,75.5723541 63.6349935,75.9493659 63.6924774,76.3188835 C64.1686065,79.4012718 62.7355742,80.8067071 61.8390581,81.3710718 C61.0499613,81.8674129 60.4728,82.4162129 60.0744774,83.0491776 C58.6478323,85.3141306 59.2075742,87.6891894 59.6680258,88.90266 C59.814929,89.2900482 60.014671,89.6388129 60.1714452,89.8982247 C62.0753806,93.0428718 59.7109935,97.0245541 58.6060258,98.5908247 C58.176929,99.2001541 57.926671,99.9501424 57.8831226,100.761236 C57.6520258,105.030578 54.4602194,106.622789 52.5783484,107.191189 C51.7892516,107.429848 51.1482194,107.994789 50.8654452,108.702119 C50.6430581,109.256684 50.1558968,109.631389 49.7866065,109.847566 C49.214671,110.182495 48.7455097,110.642519 48.4308,111.178636 C48.1253806,111.695731 47.6794452,112.098684 47.1051871,112.374236 C46.4322194,112.698789 45.8422839,113.209542 45.2999613,113.937625 C44.9237032,114.443189 44.4557032,114.702025 43.868671,114.730272 L43.778671,114.732578 Z" id="Fill-34" fill="#24966B"></path>
                        <path d="M35.3689548,0.119675294 C33.7559226,0.119675294 27.8043097,0.422898824 24.8064387,4.74296941 C24.3245032,5.43761647 23.7723097,6.08441647 23.1858581,6.69951059 C22.205729,7.72562824 20.7401806,9.63547529 19.9023097,12.5074518 C19.5986323,13.5497106 19.1056645,14.5383576 18.445471,15.4163224 C17.7510194,16.3409812 16.9206968,17.8576753 16.6594065,20.02924 C16.5943742,20.5728518 16.1919871,21.0224988 15.6473419,21.1862165 C14.2340516,21.6110753 11.7877935,23.1168165 12.4555355,28.4485929 C12.5147613,28.9172635 12.2790194,29.3767106 11.8435355,29.5974988 C11.0178581,30.01544 9.89489032,31.1164988 10.6224387,33.9486988 C10.6985032,34.2444282 10.6096645,34.5643694 10.3820516,34.7770871 C9.73114839,35.38584 8.64708387,36.7780165 10.3913419,38.1874871 C10.3913419,38.1874871 12.4822452,39.2285929 10.5713419,41.62844 C10.5713419,41.62844 7.88818065,45.3950988 10.7861806,47.8802635 C11.2408258,48.2693812 11.3743742,48.8931224 11.0852129,49.4079106 C10.5034065,50.4415224 9.84495484,52.1132871 10.9139226,53.1255694 C11.2251484,53.4201459 11.5160516,53.7308635 11.7210194,54.1015341 C12.6175355,55.7191106 14.3048903,59.8547106 10.2827613,62.8777224 C10.2827613,62.8777224 8.66508387,63.7925812 8.55476129,66.16764 C8.53966452,66.5031459 8.33992258,66.8098282 8.02114839,66.9487576 C6.64850323,67.5482871 3.10714839,69.5238518 3.03863226,73.9736282 C3.0339871,74.2791576 2.89056774,74.5639341 2.66527742,74.7783812 C2.05501935,75.3594635 1.0052129,76.6715106 1.83553548,78.2562282 C2.04514839,78.6580282 1.98708387,79.1382282 1.68456774,79.4812282 C1.12830968,80.1124635 0.41643871,81.1708635 0.705019355,82.2217694 C0.787470968,82.5215341 0.804309677,82.8362871 0.6876,83.1256753 C0.176632258,84.4002518 -0.804658065,87.9997341 3.7116,89.3377224 C4.23127742,89.4910635 4.77011613,89.5596635 5.31069677,89.5596635 C5.6916,89.5596635 6.07308387,89.5262282 6.44992258,89.4639694 C6.82501935,89.4022871 7.27385806,89.3521341 7.74476129,89.3521341 C9.36766452,89.3521341 11.2443097,89.9476282 11.2205032,92.7112282 C11.2164387,93.1677929 11.1490839,93.6191694 11.0538581,94.0670871 C10.8605032,94.9744518 10.6143097,97.7409341 14.4796645,98.6978753 C14.9017935,98.8027929 15.2159226,99.1509812 15.2275355,99.5689224 C15.2681806,101.095416 15.9208258,104.663769 20.9166968,106.205828 C21.2488258,106.30844 21.4880516,106.583416 21.5565677,106.910852 C21.7992774,108.066675 22.6336645,110.645805 25.2546968,110.645805 C25.6129548,110.645805 26.0048903,110.597958 26.4334065,110.491311 C27.0593419,110.335087 27.641729,110.053193 28.1904387,109.723452 C28.577729,109.491134 29.1659226,109.206358 29.7320516,109.206358 C30.1988903,109.206358 30.6500516,109.399475 30.9601161,109.973064 C31.279471,110.562793 31.7004387,111.094299 32.269471,111.471887 C32.9459226,111.920381 33.8650839,112.382134 34.7801806,112.382134 C35.0478581,112.382134 35.3155355,112.342934 35.5762452,112.251852 C36.227729,112.024722 36.9099871,111.878875 37.5887613,111.878875 C37.9783742,111.878875 38.3668258,111.926722 38.7483097,112.035099 C39.7168258,112.309499 40.7811484,112.892887 41.5638581,114.090793 C42.043471,114.825216 42.8813419,115.308875 43.7784387,115.308875 C43.8185032,115.308875 43.8574065,115.307722 43.8968903,115.305993 C44.5315355,115.276016 45.2149548,115.021793 45.7665677,114.280452 C46.1904387,113.712052 46.7066323,113.207064 47.3575355,112.893464 C47.8818581,112.641546 48.4967613,112.206887 48.9316645,111.469005 C49.205729,111.003793 49.6069548,110.622169 50.0819226,110.344311 C50.5621161,110.062993 51.1288258,109.604699 51.4052129,108.91524 C51.6322452,108.347416 52.1432129,107.92544 52.7476645,107.742699 C54.6469548,107.168534 58.2092129,105.473134 58.4629548,100.791616 C58.4989548,100.125216 58.691729,99.4743812 59.0819226,98.9215459 C60.3024387,97.1909812 62.7359226,93.0156047 60.6694065,89.6017459 C60.4940516,89.3117812 60.3308903,89.0148988 60.2112774,88.6995694 C59.8146968,87.6521224 59.2572774,85.43444 60.5672129,83.3545341 C60.9550839,82.7382871 61.5235355,82.2523224 62.1500516,81.8580165 C63.0953419,81.2636753 64.8006968,79.6870282 64.2665032,76.2316635 C64.1991484,75.7993106 64.5504387,75.4015459 65.0027613,75.4015459 L65.0213419,75.4015459 C65.0596645,75.4026988 65.0985677,75.4032753 65.1380516,75.4032753 C66.3562452,75.4032753 68.2921161,74.9495929 69.1375355,72.28284 C69.3587613,71.5876165 69.7332774,70.9483106 70.2378581,70.4058518 C71.3045032,69.2569459 72.7346323,66.8720871 70.2308903,63.86464 C69.9068903,63.4749459 69.6752129,63.0212635 69.5585032,62.5352988 C69.3517935,61.6734753 69.1654065,60.35624 69.6647613,59.5220871 C69.9649548,59.0211341 70.1565677,58.4711812 70.2024387,57.8952871 C70.3145032,56.4990753 70.2337935,54.2220165 68.7943742,52.89844 C68.3478581,52.4874165 68.1620516,51.8826988 68.2392774,51.2935459 C68.4256645,49.8932988 68.285729,47.36144 65.5410194,45.3754988 C65.2774065,45.1846871 65.1763742,44.85264 65.2727613,44.5494165 C65.7210194,43.1503224 66.5211484,39.2234047 62.4496645,36.8477694 C62.1047613,36.6460047 61.8603097,36.3122282 61.7917935,35.9306047 C61.573471,34.7073341 60.8017935,32.0152165 58.1976,31.3978165 C57.4416,31.2179576 56.7756,30.7729224 56.3000516,30.1803106 C55.5260516,29.2164518 54.8008258,27.6599812 55.6636645,25.6694282 C55.8436645,25.2543694 55.9505032,24.8150988 56.0213419,24.3694871 C56.3488258,22.3149459 56.6368258,17.4137929 52.7128258,14.5308635 C52.2024387,14.1555812 51.8662452,13.6015929 51.7414065,12.9957224 C51.4505032,11.58164 50.4128903,9.11549882 46.7153419,8.97253412 C45.6411484,8.93160471 44.743471,8.15625176 44.5425677,7.14339294 C43.9950194,4.38325176 42.1061806,0.120251765 36.2074065,0.120251765 C36.0668903,0.120251765 35.9252129,0.123134118 35.7806323,0.127745882 C35.7806323,0.127745882 35.6325677,0.119675294 35.3689548,0.119675294 M35.3689548,1.27261647 L35.3683742,1.27261647 C35.5785677,1.27261647 35.7028258,1.27838118 35.7167613,1.27895765 C35.7382452,1.28011059 35.7591484,1.28068706 35.7806323,1.28068706 C35.7934065,1.28068706 35.8067613,1.28068706 35.8195355,1.28011059 C35.9513419,1.27549882 36.0802452,1.27319294 36.2068258,1.27319294 C41.1568258,1.27319294 42.8523097,4.58616941 43.4027613,7.36533412 C43.7076,8.90278118 45.0819871,10.0637929 46.6700516,10.1248988 C48.8747613,10.2102165 50.1980516,11.2530518 50.6033419,13.2263106 C50.789729,14.12964 51.2931484,14.9217106 52.0224387,15.4572518 C55.4505677,17.9764282 55.1590839,22.4031459 54.8745677,24.1896282 C54.8095355,24.5977694 54.7183742,24.9326988 54.5964387,25.2140165 C53.7446323,27.1797812 54.0274065,29.1985812 55.3919226,30.8991694 C56.0428258,31.7102635 56.9434065,32.2855812 57.9281806,32.5190518 C59.8135355,32.9663929 60.4417935,34.97424 60.6485032,36.1317929 C60.7756645,36.8431576 61.2175355,37.4663224 61.861471,37.8421812 C65.0434065,39.6984165 64.6717935,42.6222753 64.1660516,44.2006518 C63.9163742,44.9806165 64.1945032,45.8274518 64.8570194,46.3070753 C67.0234065,47.8744988 67.2661161,49.8027929 67.0884387,51.1436635 C66.9583742,52.12424 67.3009548,53.0961694 68.0052774,53.7435459 C69.1108258,54.7610165 69.1311484,56.7238988 69.0446323,57.8036282 C69.0144387,58.1852518 68.8872774,58.5651459 68.6672129,58.9323576 C68.1144387,59.8558635 68.0343097,61.1581106 68.4291484,62.8022047 C68.5847613,63.4518871 68.8983097,64.0727459 69.3361161,64.5990635 C70.8144387,66.3757459 70.8301161,68.0659576 69.383729,69.6241576 C68.7589548,70.2968988 68.303729,71.0751341 68.0302452,71.9363812 C67.5436645,73.4715224 66.5699226,74.2503341 65.1380516,74.2503341 L65.0503742,74.2491812 C65.0410839,74.2486047 65.0132129,74.2486047 65.0027613,74.2486047 C64.4447613,74.2486047 63.9163742,74.4895694 63.5528903,74.9098165 C63.1940516,75.3248753 63.0355355,75.8707929 63.1185677,76.4069106 C63.5441806,79.1641694 62.3056645,80.3955106 61.5287613,80.8843576 C60.6769548,81.4193224 60.0225677,82.0447929 59.5830194,82.7428988 C58.0234065,85.2182635 58.6266968,87.7922047 59.1243097,89.1054047 C59.2886323,89.5377576 59.5040516,89.9153459 59.6736,90.1955106 C61.4021806,93.0496165 59.1701806,96.7862988 58.1302452,98.2597576 C57.6390194,98.9567106 57.3533419,99.8104635 57.3034065,100.729358 C57.0908903,104.649934 54.1458581,106.114746 52.409729,106.639334 C51.4388903,106.932758 50.6794065,107.606652 50.3263742,108.488652 C50.1637935,108.892181 49.7828903,109.180416 49.4919871,109.351052 C48.8341161,109.736134 48.2941161,110.267064 47.929471,110.886769 C47.6832774,111.304134 47.3209548,111.630416 46.8512129,111.855816 C46.0923097,112.221299 45.4321161,112.790275 44.8328903,113.595605 C44.5594065,113.96224 44.2539871,114.134605 43.841729,114.154205 C43.8208258,114.155358 43.7999226,114.155934 43.7784387,114.155934 C43.2924387,114.155934 42.8168903,113.890181 42.5381806,113.463016 C41.7229548,112.216111 40.5227613,111.339299 39.0670839,110.926546 C38.5985032,110.793381 38.1008903,110.725934 37.5887613,110.725934 C36.8321806,110.725934 36.0256645,110.873511 35.1912774,111.164052 C35.0658581,111.207864 34.9311484,111.229193 34.7801806,111.229193 C34.2738581,111.229193 33.6113419,110.974969 32.9139871,110.513216 C32.5534065,110.273981 32.2491484,109.919452 31.9832129,109.427722 C31.5041806,108.541687 30.7046323,108.053416 29.7320516,108.053416 C29.0648903,108.053416 28.3431484,108.284005 27.5888903,108.737687 C27.0587613,109.055899 26.5884387,109.264005 26.1506323,109.372958 C25.8301161,109.452511 25.5287613,109.492864 25.2546968,109.492864 C23.5406323,109.492864 22.9146968,107.728287 22.693471,106.675652 C22.5372774,105.931428 21.9885677,105.329593 21.2616,105.105346 C17.1163742,103.825581 16.429471,101.067746 16.3888258,99.5383694 C16.3638581,98.6160165 15.6943742,97.8106871 14.7612774,97.5789459 C12.1948258,96.9436753 11.9463097,95.4483106 12.1901806,94.3051694 C12.3167613,93.7114047 12.377729,93.2075694 12.3817935,92.7216047 C12.3939871,91.3276988 11.999729,90.2197224 11.2112129,89.4299576 C10.3954065,88.6130988 9.22889032,88.1991929 7.74476129,88.1991929 C7.27269677,88.1991929 6.77334194,88.2418518 6.25947097,88.3265929 C5.93605161,88.3796282 5.61669677,88.4067224 5.31069677,88.4067224 C4.86069677,88.4067224 4.43450323,88.3484988 4.04372903,88.2326282 C2.82089032,87.8706047 2.01437419,87.3039341 1.64566452,86.5487576 C1.11030968,85.4505812 1.55218065,84.0872282 1.76643871,83.5522635 C1.96676129,83.0536165 1.98650323,82.50424 1.82508387,81.9185459 C1.71476129,81.51444 1.98882581,80.8866635 2.55843871,80.24044 C3.1779871,79.5382988 3.29818065,78.5508047 2.8656,77.7247224 C2.50850323,77.0427576 2.71172903,76.3313929 3.46947097,75.6102282 C3.93108387,75.1703812 4.19063226,74.59564 4.19992258,73.9920753 C4.2579871,70.2525106 7.21869677,68.55884 8.48914839,68.0042753 C9.20856774,67.6900988 9.67830968,67.0064047 9.71489032,66.2206753 C9.79211613,64.5529459 10.8303097,63.8969224 10.8576,63.8796282 C10.9011484,63.8554165 10.9441161,63.8277459 10.9836,63.7971929 C14.2700516,61.3270165 14.9261806,57.4940635 12.7383097,53.5458165 C12.4456645,53.01604 12.0572129,52.6148165 11.7157935,52.29084 C11.1572129,51.7622165 11.8673419,50.3809929 12.0990194,49.9705459 C12.6546968,48.9818988 12.4270839,47.76324 11.5456645,47.0074871 C9.55230968,45.2988282 11.3209548,42.5848047 11.5061806,42.3121341 C12.3707613,41.2151106 12.6947613,40.14864 12.469471,39.1421224 C12.2250194,38.0474047 11.4063097,37.4490282 11.0590839,37.2391929 C10.8454065,37.0552988 10.6172129,36.8056871 10.6085032,36.5652988 C10.5992129,36.3128047 10.8123097,35.9582753 11.1775355,35.6170047 C11.7105677,35.1189341 11.9288903,34.3706753 11.7471484,33.6633459 C11.4649548,32.5640165 11.3441806,31.1441694 12.3719226,30.6241929 C13.2301161,30.1889576 13.7271484,29.2573812 13.6075355,28.3062047 C13.1952774,25.0116753 14.0389548,22.8746988 15.9841161,22.2895812 C16.9758581,21.9909694 17.6941161,21.1573929 17.8131484,20.1652871 C18.0465677,18.2191224 18.7921161,16.88344 19.3768258,16.1052047 C20.119471,15.1171341 20.6716645,14.0143459 21.017729,12.8279694 C21.7748903,10.2326988 23.0726323,8.49348706 24.0289548,7.49215765 C24.7181806,6.76926353 25.285471,6.08441647 25.7621806,5.39668706 C28.4186323,1.57007529 33.7866968,1.27261647 35.3689548,1.27261647" id="Fill-36" fill="#FEFEFE"></path>
                        <path d="M35.6802968,0.108376471 C35.6802968,0.108376471 28.1940387,-0.302647059 24.7061032,4.7236 C24.2241677,5.41767059 23.6719742,6.06447059 23.0855226,6.67956471 C22.1053935,7.70625882 20.6398452,9.61552941 19.8019742,12.4880824 C19.4982968,13.5303412 19.005329,14.5184118 18.3457161,15.3969529 C17.6506839,16.3216118 16.8203613,17.8377294 16.559071,20.0092941 C16.4940387,20.5534824 16.0916516,21.0025529 15.5470065,21.1662706 C14.1342968,21.5917059 11.6874581,23.0974471 12.3552,28.4286471 C12.4144258,28.8973176 12.1786839,29.3567647 11.7432,29.5775529 C10.9175226,29.9960706 9.79455484,31.0965529 10.5221032,33.9287529 C10.5981677,34.2256353 10.509329,34.5444235 10.2817161,34.7571412 C9.6308129,35.3658941 8.54674839,36.7586471 10.2910065,38.1675412 C10.2910065,38.1675412 12.3819097,39.2086471 10.4710065,41.6084941 C10.4710065,41.6084941 7.78784516,45.3751529 10.6864258,47.8603176 C11.1404903,48.2505882 11.2740387,48.8737529 10.9848774,49.3885412 C10.403071,50.4215765 9.7452,52.0939176 10.8135871,53.1062 C11.1248129,53.4002 11.4157161,53.7109176 11.6206839,54.0815882 C12.5172,55.6997412 14.2045548,59.8353412 10.1824258,62.8589294 C10.1824258,62.8589294 8.56474839,63.7726353 8.45442581,66.1482706 C8.43932903,66.4837765 8.24016774,66.7898824 7.9208129,66.9288118 C6.54816774,67.5283412 3.0068129,69.5039059 2.93829677,73.9548353 C2.93423226,74.2592118 2.79023226,74.5439882 2.56494194,74.7584353 C1.95526452,75.3395176 0.904877419,76.6515647 1.7352,78.2368588 C1.9448129,78.6386588 1.88674839,79.1188588 1.58423226,79.4612824 C1.02797419,80.0925176 0.316103226,81.1509176 0.605264516,82.2024 C0.687135484,82.5027412 0.703974194,82.8169176 0.587264516,83.1063059 C0.0762967742,84.3808824 -0.904993548,87.9803647 3.61184516,89.3177765 C4.49616774,89.5800706 5.43739355,89.5944824 6.3495871,89.4446 C8.01836129,89.1690471 11.1515226,89.1269647 11.1201677,92.6918588 C11.1161032,93.1484235 11.049329,93.5998 10.9535226,94.0471412 C10.7601677,94.9545059 10.5139742,97.7215647 14.379329,98.6779294 C14.8014581,98.7828471 15.1161677,99.1310353 15.1272,99.5495529 C15.1684258,101.075471 15.8204903,104.6444 20.8163613,106.187035 C21.1484903,106.288494 21.3877161,106.564047 21.4562323,106.891482 C21.7326194,108.205259 22.7731355,111.359129 26.333071,110.471365 C26.9590065,110.315718 27.5413935,110.033824 28.0901032,109.704082 C28.7967484,109.279224 30.1728774,108.683729 30.8597806,109.953694 C31.1791355,110.542847 31.6001032,111.074929 32.1691355,111.451941 C33.0435871,112.031871 34.323329,112.634282 35.4759097,112.232482 C36.501329,111.875071 37.6022323,111.718847 38.6479742,112.015153 C39.6164903,112.290129 40.6808129,112.873518 41.4635226,114.070847 C41.9640387,114.838129 42.8547484,115.331012 43.7971355,115.286624 C44.4312,115.256071 45.1146194,115.003 45.6662323,114.261659 C46.0901032,113.692106 46.6062968,113.187118 47.2572,112.874094 C47.7815226,112.622176 48.3964258,112.188094 48.831329,111.449635 C49.1053935,110.984424 49.5066194,110.603376 49.9815871,110.324365 C50.4617806,110.043624 51.0284903,109.584753 51.3048774,108.895294 C51.5324903,108.328047 52.0434581,107.905494 52.647329,107.723329 C54.5466194,107.149741 58.1088774,105.453188 58.3626194,100.771671 C58.3986194,100.105847 58.5919742,99.4544353 58.9815871,98.9016 C60.2021032,97.1710353 62.6361677,92.9956588 60.569071,89.5823765 C60.3937161,89.2918353 60.2305548,88.9955294 60.1109419,88.6802 C59.7143613,87.6327529 59.1569419,85.4144941 60.4668774,83.3345882 C60.8547484,82.7194941 61.4232,82.2323765 62.0497161,81.8380706 C62.9950065,81.2443059 64.7003613,79.6676588 64.1661677,76.2128706 C64.0982323,75.7741765 64.4588129,75.3712235 64.9210065,75.3816 C66.1287484,75.4104235 68.1644903,75.0166941 69.0377806,72.2634706 C69.2584258,71.5676706 69.6335226,70.9289412 70.1375226,70.3859059 C71.2041677,69.2375765 72.6342968,66.8521412 70.1311355,63.8446941 C69.8065548,63.4555765 69.5748774,63.0018941 69.4587484,62.5159294 C69.2514581,61.6546824 69.065071,60.3374471 69.5644258,59.5021412 C69.8652,59.0011882 70.0562323,58.4512353 70.1021032,57.8753412 C70.2141677,56.4797059 70.1334581,54.2020706 68.6940387,52.8784941 C68.2475226,52.4674706 68.0617161,51.8627529 68.1389419,51.2747529 C68.325329,49.8733529 68.1853935,47.3420706 65.4406839,45.3555529 C65.177071,45.1647412 65.0760387,44.8326941 65.1730065,44.5300471 C65.6206839,43.1303765 66.4208129,39.2034588 62.3499097,36.8278235 C62.0044258,36.6272118 61.7599742,36.2934353 61.6914581,35.9106588 C61.4731355,34.6879647 60.7014581,31.9952706 58.0972645,31.3778706 C57.3412645,31.1985882 56.6752645,30.7529765 56.1997161,30.1609412 C55.4257161,29.1965059 54.7004903,27.6406118 55.563329,25.6506353 C55.7439097,25.2344235 55.8501677,24.7951529 55.9210065,24.3506941 C56.2484903,22.295 56.5364903,17.3938471 52.6124903,14.5109176 C52.1021032,14.1356353 51.7659097,13.5816471 51.641071,12.9763529 C51.3501677,11.5616941 50.3125548,9.09612941 46.6150065,8.95316471 C45.5408129,8.91165882 44.6431355,8.13688235 44.4422323,7.12344706 C43.8819097,4.29816471 41.9152645,-0.102035294 35.6802968,0.108376471 Z" id="Stroke-38" stroke="#231F20" stroke-width="1.5" stroke-linecap="round" stroke-linejoin="round"></path>
                        <path d="M27.1696065,145.815814 C27.0645097,145.815814 26.9582516,145.810626 26.8508323,145.801402 L20.2541226,145.208214 C19.3709613,145.129238 18.7514129,144.744732 18.5946387,144.406344 C18.5481871,144.304885 18.5377355,144.208614 18.6381871,144.069108 C37.4824452,117.916944 37.3883806,65.8933553 35.6464452,37.1390024 C35.7225097,37.1049906 35.8711548,37.0646376 36.0761226,37.0646376 C36.4187032,37.0646376 36.6515419,37.1747435 36.6945097,37.2306612 C46.2774774,93.3143318 31.8240581,136.974485 28.8285097,145.156908 C28.7100581,145.480885 28.0568323,145.815814 27.1696065,145.815814" id="Fill-40" fill="#C4444D"></path>
                        <path d="M36.0760645,36.3539647 C35.4721935,36.3539647 34.8956129,36.5972353 34.9258065,37.0826235 C36.6416129,65.2852941 36.8576129,117.562529 18.0569032,143.655318 C17.3670968,144.611106 18.440129,145.758282 20.1896129,145.916235 L26.7863226,146.508847 C26.9152258,146.520376 27.0423871,146.526141 27.1683871,146.526141 C28.2907742,146.526141 29.2534839,146.076494 29.5014194,145.399718 C32.4330968,137.390812 47.0316774,93.4781647 37.3877419,37.0785882 C37.3052903,36.5955059 36.6770323,36.3539647 36.0760645,36.3539647 M36.5794839,41.0285647 C44.8879355,95.0450118 31.1394194,136.743435 28.1769677,144.856682 C28.070129,144.946035 27.7170968,145.105141 27.1683871,145.105141 C27.0853548,145.105141 27.0005806,145.101682 26.9158065,145.093612 L20.3185161,144.501 C19.8847742,144.461224 19.5770323,144.337859 19.4005161,144.230635 C37.3639355,118.984106 38.0740645,70.3830235 36.5794839,41.0285647" id="Fill-42" fill="#FEFEFE"></path>
                        <path d="M34.9255742,37.0824506 C36.6413806,65.2851212 36.8573806,117.562356 18.0560903,143.655145 C17.3674452,144.610933 18.4398968,145.758686 20.1893806,145.916062 L26.7860903,146.508674 C28.0664129,146.623968 29.2259613,146.152415 29.5011871,145.399545 C32.4328645,137.390639 47.0320258,93.4779918 37.3875097,37.0784153 C37.2220258,36.1099447 34.8663484,36.1134035 34.9255742,37.0824506 Z" id="Stroke-44" stroke="#231F20" stroke-width="1.5" stroke-linecap="round" stroke-linejoin="round"></path>
                    </g>
                </g>
            </g>
        </g>
    </g>
</svg>