<svg xmlns="http://www.w3.org/2000/svg" id="Layer_1" viewBox="0 0 140 700.5">
  <style>
    .st0{fill:#93AC8A;} .st1{fill:#ECF8FE;} .st2{fill:#231F20;} .st3{fill:#C6464F;} .st4{fill:#FBB040;} .st5{fill:#FFFFFF;} .st6{fill:#799765;} .st7{fill:#C4454D;} .st8{fill:#BC7646;} .st9{fill:#F89D5B;} .st10{fill:#FEFCE7;} .st11{fill:none;} .st12{fill:#BFE3DA;} .st13{fill:#D5EBDB;}
  </style>
  <g id="All_Ingredients">
    <path d="M90.8 686.9c-2.5-3.1-10.6-12.2-21.5-12.2-3.3 0-6.5.8-9.7 2.4-1.2-4.8-6.9-22.5-25.5-26.1 1-2 2.2-6.2-1.6-11.2 2-2.6 9.1-12.9 5.1-21.9h1.2c9.3 0 16.3-9.4 18-11.9 1.5.5 2.9.7 4.2.7 3.5 0 5.7-1.6 6.9-2.8 7.9 13.8 21.9 15.9 29.7 15.9 1.4 0 2.5-.1 3.2-.1-2.5 17.2 14.4 24.7 19.2 26.4-8.7 12.4.8 28.5 5 34.5-3.2-1-8.7-2.3-14.7-2.3-8.8 0-15.3 2.9-19.5 8.6z" class="st0"/>
    <path d="M67.7 605.4c8.2 13.3 22.1 15.3 29.9 15.3.8 0 1.6 0 2.2-.1-.8 8 2.4 15 9.4 20.5 3.5 2.7 7.2 4.5 9.5 5.4-4 6.5-4.1 14.7-.3 23.9 1.4 3.4 3.1 6.4 4.6 8.6-3.3-.8-7.7-1.7-12.5-1.7-8.5 0-15.3 2.8-19.6 8-3.2-3.8-11.1-11.6-21.5-11.6-3.1 0-6.1.7-9.1 2-.7-2.4-2-6.3-4.5-10.4-4.8-7.9-11.8-13.1-20.3-15.1.9-2.6 1.1-6.4-1.8-10.5 1-1.4 2.7-3.9 4-7.1 2.2-5.1 2.6-9.9 1.3-13.9 9.1-.1 15.9-8.6 18.2-11.8 1.3.4 2.6.6 3.8.6 3.1.2 5.3-1 6.7-2.1m.3-3s-2.1 3.5-7 3.5c-1.3 0-2.8-.3-4.6-.9 0 0-7.5 12.1-17.6 12.1-.9 0-1.9-.1-2.8-.3 6.2 10.1-4.6 23.1-4.6 23.1 5.5 6.7 1.3 11.8 1.3 11.8 22.2 3.4 26.3 26.8 26.3 26.8 3.6-2.1 7.1-2.9 10.3-2.9 12.7 0 21.6 12.8 21.6 12.8 4.7-7.2 12.4-9.2 19.6-9.2 9 0 17.2 3.2 17.2 3.2s-18.1-21.6-6.1-36.7c0 0-23.6-6.8-19.6-27 0 0-1.7.3-4.3.3-7.4-.1-22.1-2-29.7-16.6zm33.9 16.3zm25.7 63.7z" class="st1"/>
    <path d="M90.8 689.1c-.2 0-.4-.1-.5-.3 0 0-3.5-5-9.1-8.7-7.4-4.8-14.8-5.2-22-1.1-.2.1-.4.1-.6 0-.2-.1-.3-.3-.3-.4 0-.2-4.3-23-25.8-26.3-.2 0-.4-.2-.5-.4-.1-.2 0-.4.1-.6.2-.2 3.8-4.8-1.3-11.1-.2-.2-.2-.6 0-.8.1-.1 10.4-12.8 4.5-22.4-.1-.2-.1-.5 0-.7s.4-.3.6-.2c11 2.5 19.7-11.4 19.8-11.5.2-.2.5-.4.7-.3 7.6 2.8 10.7-2.1 10.9-2.4.1-.2.3-.3.5-.3s.4.1.5.3c10 19.3 33 16 33.2 16s.4 0 .5.2c.1.1.2.3.2.5-3.8 19.4 19 26.2 19.2 26.3s.4.2.4.4c.1.2 0 .4-.1.6-11.6 14.6 5.9 35.8 6 36 .1.1.1.1.1.2.1.2 0 .4-.1.5s-.1.2-.2.2c-.2.1-.3.1-.5 0-.3-.1-25.9-9.9-36 5.8.2.4 0 .5-.2.5zM69.2 675c11.1 0 19.5 9.6 21.6 12.4 9.2-13 28.8-8.2 35.1-6.2-3.8-5.3-14.8-22.3-5.4-35.2-4.2-1.5-22.2-8.9-19.4-26.6-4.3.4-23.7 1.2-33.2-15.9-1.4 1.5-5 4.4-11.3 2.2-.7 1.1-2.7 3.9-5.7 6.6-4.5 4-9.3 5.9-13.8 5.3 2 4.1 1.8 9.2-.6 14.8-1.6 3.7-3.6 6.5-4.4 7.5 4.1 5.3 2.5 9.6 1.5 11.4 19.2 3.5 24.7 22.2 25.7 26.3 3.5-1.8 6.8-2.6 9.9-2.6z" class="st2"/>
    <path d="M99.4 662.7c-.1 0-.2 0-.4-.1L25.6 610c-.3-.2-.3-.6-.1-.9.2-.3.6-.3.9-.1l73.4 52.6c.3.2.3.6.1.9-.1.1-.3.2-.5.2z" class="st2"/>
    <path d="M64.6 574.2c3.3 4.1 7.2 5.4 11 5.4 6.2 0 11.7-3.6 11.7-3.6 2.5 13 21.7 13.1 21.7 13.1s-16.9 9-13.1 21.7c0 0-.7-.1-1.7-.1-4.3 0-15.4 1.1-17.5 12.1 0 0-5.4-3.2-12.3-3.2-4.2 0-8.8 1.2-13.2 4.9 0 0-.8-4.5-6.7-4.6 0 0-2-11.3-9.9-12.6 6.5-4.8 3-15.8 3-15.8 5.2-2.9 3.8-7.2 3.8-7.2 1.7.4 3.3.6 4.8.6 11.7.1 18.4-10.7 18.4-10.7m0-1.6c-.6 0-1.1.3-1.3.8-.1.1-6.4 10.1-17.3 10.1-1.4 0-2.9-.2-4.4-.5h-.4c-.4 0-.9.2-1.2.5-.4.4-.5 1-.3 1.6.1.3.8 3.2-3 5.3-.7.4-1 1.2-.7 1.9 0 .1 3.1 10-2.4 14-.5.4-.7 1-.6 1.7.2.6.7 1.1 1.3 1.2 6.8 1.1 8.6 11.2 8.6 11.3.1.7.8 1.3 1.5 1.3 4.4.1 5.1 3 5.1 3.3.1.6.5 1 1 1.2.2.1.4.1.5.1.4 0 .7-.1 1-.4 3.5-3 7.6-4.5 12.2-4.5 6.3 0 11.4 3 11.5 3 .2.1.5.2.8.2.2 0 .4 0 .7-.1.5-.2.8-.6.9-1.1 1.9-9.8 11.8-10.8 15.9-10.8 1 0 1.6.1 1.6.1h.2c.5 0 .9-.2 1.2-.6.3-.4.5-1 .3-1.5-1.4-4.6.2-9.3 4.7-14 3.5-3.6 7.6-5.8 7.6-5.8.6-.3 1-1.1.8-1.7-.2-.7-.8-1.2-1.5-1.2 0 0-4.7-.1-9.5-1.7-6.1-2-9.7-5.4-10.6-10.2-.1-.5-.5-1-.9-1.2-.2-.1-.4-.1-.6-.1-.3 0-.6.1-.9.3 0 0-5.2 3.3-10.8 3.3-3.9 0-7.2-1.6-9.7-4.8-.3-.8-.8-1-1.3-1z" class="st1"/>
    <path d="M51.5 623.1c-.7-1.5-2.4-3.6-6.3-4-.5-2.4-2.7-10-8.8-12.2 4.4-4.7 2.8-12.5 2.1-14.9 3.3-2.1 3.8-4.8 3.8-6.4 1.2.2 2.5.3 3.7.3 10.2 0 16.6-7.4 18.7-10.2 2.9 3.2 6.6 4.8 10.9 4.8 4.8 0 9.1-2 11.1-3.1 2.7 9.5 13.9 11.8 19.3 12.4-4.5 3-13.4 10.3-11.4 20h-.5c-13.1 0-17 7.4-18.1 11.7-2-1-6.4-2.8-11.7-2.8-4.8.1-9.1 1.5-12.8 4.4z" class="st0"/>
    <path d="M64.8 577.1c3 2.9 6.6 4.3 10.8 4.3 4.3 0 8.2-1.5 10.5-2.7 1.8 4.8 6 8.4 12.3 10.4 1.8.6 3.6 1 5.2 1.3-1.3 1-2.7 2.1-4 3.5-4.7 4.8-6.7 9.9-6.1 15-4.2.1-14.9 1.3-18.2 11.3-2.3-1-6.4-2.4-11.1-2.4-4.6 0-8.8 1.3-12.5 3.9-1-1.5-2.9-3-5.9-3.4-.7-2.8-2.9-9.1-8-11.7 3.4-4.7 2.4-11.3 1.7-14.1 2.5-1.8 3.4-3.9 3.6-5.8.9.1 1.9.2 2.8.2 9.8 0 16.2-6.5 18.9-9.8m-.2-2.9S57.9 585 46 585c-1.5 0-3.1-.2-4.8-.6 0 0 1.4 4.3-3.8 7.2 0 0 3.5 11-3 15.8 8 1.3 9.9 12.6 9.9 12.6 5.9.1 6.7 4.6 6.7 4.6 4.4-3.8 9.1-4.9 13.2-4.9 6.9 0 12.3 3.2 12.3 3.2 2.1-11 13.2-12.1 17.5-12.1 1.1 0 1.7.1 1.7.1-3.8-12.7 13.1-21.7 13.1-21.7s-19.2-.2-21.7-13.1c0 0-5.5 3.6-11.7 3.6-3.5-.1-7.5-1.4-10.8-5.5zm44.3 15zm0 0z" class="st1"/>
    <path d="M51 625.2h-.2c-.2-.1-.4-.3-.4-.5s-.8-4-6.1-4.1c-.3 0-.5-.2-.6-.5 0-.1-2-10.9-9.4-12.1-.2 0-.4-.2-.5-.5s0-.5.2-.6c6-4.5 2.8-15 2.7-15.1-.1-.3 0-.6.3-.7 4.7-2.6 3.5-6.4 3.5-6.4-.1-.2 0-.4.1-.6.1-.2.4-.2.6-.2 14.3 3.4 22.7-9.9 22.7-10 .1-.2.3-.3.5-.3s.4.1.5.2c3.4 4.4 8.1 6 13.9 4.8 4.4-.9 7.8-3.1 7.9-3.1.2-.1.4-.1.6-.1.2.1.3.2.4.4 2.4 12.3 20.9 12.6 21.1 12.6h.2c.2.1.3.2.4.4.1.3 0 .6-.3.7-.2.1-16.4 8.9-12.8 21 .1.2 0 .4-.1.6-.1.2-.3.2-.5.2 0 0-4.1-.4-8.4.9-5.7 1.7-9.1 5.3-10.1 10.7 0 .2-.2.4-.3.4-.2.1-.4.1-.6 0-.1-.1-13.7-7.9-24.8 1.7-.2.2-.3.2-.5.2zm-6.1-5.8c4.2.3 5.9 2.7 6.5 4.1 10.1-8 21.8-3.1 24.8-1.6 2.8-11.5 15.4-11.9 18.9-11.8-2.4-10.1 7.8-17.8 12-20.5-4.9-.5-17.5-2.6-20.1-12.7-3 1.7-14.4 7.2-22.2-1.8-2 2.7-10 12.5-22.7 10 .1 1.5-.2 4.5-3.8 6.7.6 2.1 2.5 10.5-2.4 15.2 6.4 2 8.5 10.3 9 12.4z" class="st2"/>
    <path d="M26.3 609.9c-.3 0-.5-.2-.6-.5s.1-.7.4-.7l59.7-14.6c.3-.1.7.1.7.4s-.1.7-.4.7l-59.8 14.7z" class="st2"/>
    <path d="M22.1 613.8c-2.1 0-4.2-.8-5.8-2.2-3.7-3.2-4-8.8-.8-12.4 1.7-1.9 4.1-3 6.6-3 2.1 0 4.2.8 5.8 2.2 1.8 1.5 2.8 3.7 3 6s-.6 4.6-2.2 6.4c-1.6 1.9-4 3-6.6 3 0 0 .1 0 0 0z" class="st3"/>
    <path d="M22.2 597.1c1.9 0 3.7.7 5.2 1.9 3.3 2.9 3.6 7.8.7 11.1-1.5 1.7-3.7 2.7-5.9 2.7-1.9 0-3.7-.7-5.2-1.9-3.3-2.9-3.6-7.8-.7-11.1 1.4-1.7 3.6-2.7 5.9-2.7m0-1.8c-2.7 0-5.4 1.1-7.3 3.3-3.5 4-3.1 10.2.9 13.7 1.8 1.6 4.1 2.4 6.4 2.4 2.7 0 5.4-1.1 7.3-3.3 3.5-4 3.1-10.2-.9-13.7-1.9-1.6-4.2-2.4-6.4-2.4z" class="st1"/>
    <path d="M22.1 615.3c-2.5 0-4.9-.9-6.8-2.6-4.3-3.7-4.7-10.3-1-14.6 1.8-2.1 4.3-3.3 7.1-3.5 2.7-.2 5.4.7 7.5 2.5s3.3 4.3 3.5 7.1-.7 5.4-2.5 7.5c-1.8 2.1-4.3 3.3-7.1 3.5-.2.1-.4.1-.7.1zm.1-19.4h-.6c-2.4.2-4.6 1.3-6.2 3.1-3.3 3.8-2.9 9.5.9 12.8 1.8 1.6 4.2 2.4 6.6 2.2s4.6-1.3 6.2-3.1c1.6-1.8 2.4-4.2 2.2-6.6s-1.3-4.6-3.1-6.2c-1.7-1.4-3.8-2.2-6-2.2z" class="st2"/>
    <path d="M23 626c-1.2 0-2.3-.4-3.2-1.2-2-1.8-2.2-4.9-.5-6.9.9-1.1 2.3-1.7 3.7-1.7 1.2 0 2.3.4 3.2 1.2 2 1.8 2.2 4.9.5 6.9-.9 1.1-2.3 1.7-3.7 1.7z" class="st3"/>
    <path d="M23 617.1c1 0 1.9.4 2.6 1 1.7 1.5 1.8 4 .4 5.6-.8.9-1.9 1.4-3 1.4-1 0-1.9-.4-2.6-1-1.7-1.5-1.8-4-.4-5.6.7-.9 1.8-1.4 3-1.4m0-1.9c-1.6 0-3.2.7-4.4 2-2.1 2.4-1.9 6.1.6 8.2 1.1 1 2.5 1.4 3.8 1.4 1.6 0 3.2-.7 4.4-2 2.1-2.4 1.9-6.1-.6-8.2-1.1-.9-2.4-1.4-3.8-1.4z" class="st1"/>
    <path d="M23 627.5c-1.6 0-3-.6-4.2-1.6-1.3-1.1-2.1-2.7-2.2-4.4s.4-3.4 1.6-4.7c2.3-2.7 6.4-2.9 9.1-.6 2.7 2.3 2.9 6.4.6 9.1-1.1 1.3-2.7 2.1-4.4 2.2H23zm0-11.6c-1.5 0-2.9.6-3.9 1.8-.9 1-1.4 2.4-1.3 3.8.1 1.4.7 2.7 1.8 3.6 2.2 1.9 5.5 1.7 7.4-.5 1.9-2.2 1.7-5.5-.5-7.4-1.1-.9-2.3-1.3-3.5-1.3zm4.4 9z" class="st2"/>
  </g>
  <g id="Pear">
    <path d="M70 551.7c-.7 0-1.4 0-2.2-.1-19.6-1.2-34.8-18-34.1-37.6.3-7.1 2.6-13.9 6.7-19.6.5-.7 1.1-1.4 1.6-2.1 2-2.4 3.5-4.5 4.6-6.7 2.3-4.4 4.2-9.7 5.8-15.7 3.6-14 11.9-16.4 15.2-16.8 1.2-.1 2.4-.4 3.7-.8 1.3-.4 3.2-.8 5.4-.8 6.9 0 11.6 4.5 13.6 13 4.6 19.8 10.6 32.1 10.6 32.2 3.8 6.3 5.6 13.5 5.2 20.8-1 19.2-16.9 34.2-36.1 34.2z" class="st4"/>
    <path d="M76.8 452.3c6.6 0 10.9 4.2 12.9 12.4 4.5 19.3 10.1 31.2 10.6 32.3 0 .1.1.1.1.2 3.7 6.1 5.4 13.2 5 20.3-1 18.8-16.6 33.5-35.4 33.5-.7 0-1.4 0-2.1-.1-19.2-1.1-34.1-17.6-33.4-36.8.3-7 2.5-13.6 6.6-19.2.5-.7 1-1.4 1.6-2.1 2.1-2.4 3.5-4.6 4.7-6.9 2.3-4.5 4.3-9.8 5.8-15.8 3.5-13.6 11.4-15.9 14.6-16.2 1.2-.1 2.5-.4 3.8-.8 1.2-.3 3.1-.8 5.2-.8m0-1.5c-2.2 0-4.3.4-5.6.9-1.2.4-2.4.6-3.6.7-3.6.4-12.2 2.9-15.9 17.4-1.7 6.8-3.8 11.8-5.7 15.5-1.2 2.4-2.8 4.5-4.5 6.6-.6.7-1.1 1.4-1.7 2.2-4 5.7-6.5 12.5-6.8 20-.8 20 14.8 37.2 34.8 38.4.7 0 1.5.1 2.2.1 19.5 0 35.8-15.2 36.9-34.9.4-7.7-1.5-15-5.2-21.2 0 0-5.9-12.1-10.6-32.1-2.5-11.1-9-13.6-14.3-13.6z" class="st5"/>
    <path d="M70 553.1c-.8 0-1.5 0-2.3-.1-20.3-1.2-36.2-18.7-35.4-39 .3-7.4 2.7-14.4 6.9-20.4.5-.7 1.1-1.5 1.7-2.2 1.9-2.3 3.4-4.4 4.4-6.5 2.2-4.3 4.1-9.5 5.6-15.4 3.8-14.9 12.8-17.4 16.4-17.8 1.1-.1 2.3-.4 3.5-.7 2.8-.8 8.2-1.8 13 .9 3.8 2.2 6.4 6.3 7.8 12.2 4.5 19.4 10.3 31.5 10.5 31.9 3.9 6.5 5.7 13.9 5.3 21.5-.6 10-5 19.3-12.6 26-6.7 6.3-15.5 9.6-24.8 9.6zm6.8-101.7c-2.2 0-4.1.4-5.5.8-1.3.4-2.5.6-3.7.8-3.4.4-11.7 2.8-15.3 16.9-1.5 6-3.5 11.2-5.7 15.6-1.1 2.2-2.6 4.3-4.6 6.7-.6.7-1.1 1.4-1.7 2.1-4.1 5.8-6.4 12.6-6.7 19.7-.8 19.6 14.6 36.6 34.2 37.7 9.7.6 19.1-2.7 26.3-9.1 7.3-6.5 11.6-15.4 12.1-25.1.4-7.3-1.4-14.5-5.1-20.8v-.1c-.6-1.3-6.1-13.1-10.6-32.2-1.3-5.6-3.7-9.4-7.2-11.4-2.1-1.2-4.4-1.6-6.5-1.6z"/>
    <path d="M70 452.6c-.3 0-.5-.2-.6-.5-.1-.5-3-13.5 6-18.2.3-.2.7 0 .8.3.2.3 0 .7-.3.8-8.1 4.3-5.4 16.7-5.4 16.9.1.3-.1.7-.5.7.1 0 0 0 0 0z"/>
    <path d="M68.5 450.4c-2.5 0-9.5-.6-14.4-5.7-3.4-3.5-5.2-8.4-5.2-14.7 2.4.1 9.5.9 14.4 5.9 3.4 3.5 5.1 8.4 5.2 14.5z" class="st6"/>
    <path d="M49.7 430.9c2.8.2 8.8 1.2 13.1 5.6 3.1 3.2 4.8 7.6 5 13.1-2.7-.2-8.8-1-13.1-5.4-3.2-3.2-4.9-7.7-5-13.3m-1.5-1.6c-.1 0-.1 0 0 0-.5 21 17.5 21.9 20.5 21.9h.4c.5-21.5-19.2-21.9-20.9-21.9z" class="st5"/>
    <path d="M68.7 451.8c-2.1 0-9.8-.4-15.3-5.8-4-3.9-6-9.5-5.9-16.7 0-.3.3-.6.6-.6.4 0 9.6-.1 16 6.2 3.9 3.9 5.8 9.4 5.7 16.3 0 .3-.3.6-.6.6h-.5zm-19.9-21.9c0 6.5 1.8 11.6 5.5 15.2 5.1 4.9 12.2 5.4 14.3 5.4 0-6.3-1.8-11.2-5.4-14.8-5-5-12.3-5.7-14.4-5.8zM72 546.1c-.3 0-.5-.2-.6-.5s.1-.7.5-.8c10.1-2.3 17.3-7 21.3-14 6.8-11.8 2.2-26.3 2.2-26.4-.1-.3.1-.7.4-.8.3-.1.7.1.8.4.2.6 4.7 15.1-2.3 27.4-4.2 7.3-11.6 12.3-22.1 14.6-.1.1-.1.1-.2.1z"/>
  </g>
  <g id="Beets">
    <path d="M61.7 363.5c.4-8.7 4-50.3 32-63 .9 5 3.9 31.8-32 63z" class="st6"/>
    <path d="M93.1 301.6c1 6.5 2 31.3-30.6 60.3.3-4.7 1.3-14 4.1-23.9 3.7-12.7 11.2-29 26.5-36.4m1.1-2.1c-32.8 14-33.3 65.6-33.3 65.6 41.9-35.6 33.3-65.6 33.3-65.6z" class="st5"/>
    <path d="M60.9 365.7c-.1 0-.2 0-.3-.1-.2-.1-.3-.3-.3-.5 0-.5.9-52.1 33.6-66.1.2-.1.3-.1.5 0s.3.2.3.4c.1.3 8.2 30.8-33.5 66.2 0 0-.2.1-.3.1zm32.8-65.4c-28.5 12.8-31.8 55.3-32.2 63.4 36.6-31.6 33.2-58.8 32.2-63.4z"/>
    <path d="M86.1 369.2c-6.5 0-13.6-1.4-21.2-4.2 3.7-1.7 13.5-5.8 23.7-5.8 6.3 0 11.7 1.6 16 4.7-1.9 1.5-7.9 5.3-18.5 5.3z" class="st6"/>
    <path d="M88.6 358.5v1.4c5.8 0 10.7 1.3 14.7 4-2.4 1.6-8.1 4.6-17.3 4.6-5.9 0-12.4-1.2-19.2-3.5 4.4-1.9 13-5 21.8-5v-1.5m0 0c-13.1 0-25.5 6.6-25.5 6.6 9.2 3.6 16.9 4.8 23 4.8 13.5 0 19.6-6 19.6-6-5.1-4-11.2-5.4-17.1-5.4z" class="st5"/>
    <path d="M86.2 370.6c-6.2 0-13.9-1.3-23.3-4.9-.2-.1-.4-.3-.4-.5s.1-.5.3-.6c.3-.1 26.9-14.1 43.3-1.2.1.1.2.3.2.4 0 .2-.1.3-.2.5-.3.4-6.5 6.3-19.9 6.3zm-21.6-5.5c14.5 5.3 24.7 4.7 30.7 3.2 5.2-1.3 8.3-3.4 9.5-4.3-13.8-10.3-34.9-1.4-40.2 1.1z"/>
    <path d="M61.9 364.9c4.9-8.4 31.9-51.1 69-51.1 1 0 2.1 0 3.1.1-1.5 5.4-13.5 37.4-72.1 51z" class="st6"/>
    <path d="M131 313v1.4h2.2c-1 3.1-4 10.3-11.5 18.6-15.9 17.4-39.8 26.3-58.3 30.7 2.8-4.6 8.9-14 17.7-23.3 11.1-11.9 28.8-26 49.9-26V313m0 0c-41.9 0-70.5 52.9-70.5 52.9 66.6-14.8 74.5-52.7 74.5-52.7-1.3-.1-2.7-.2-4-.2z" class="st5"/>
    <path d="M60.5 366.5c-.2 0-.4-.1-.5-.2-.1-.2-.2-.4 0-.6.3-.6 31.1-56.7 75.1-53.1.2 0 .3.1.4.2.1.1.1.3.1.5-.1.4-2.1 9.8-12.4 21.1-9.5 10.4-28 24.4-62.6 32.1h-.1zm70.5-52.9c-37.7 0-64.8 43.7-69.3 51.4 59.4-13.6 71.1-46.2 72.6-51.3-1.1 0-2.2-.1-3.3-.1z"/>
    <path d="M24.1 388.8c.3-.2.3-.6.1-.9-5.7-10.2-2.7-23.1 6.8-29.8 3.9-2.8 8.5-4.2 13.2-4.2 7.4 0 14.5 3.6 18.7 9.7 3.5 5 4.9 11.1 3.9 17.1s-4.4 11.3-9.4 14.9c-3.9 2.8-8.5 4.2-13.2 4.2-6.6 0-12.8-2.8-17.2-7.7-.1-.2-.3-.2-.5-.2-.1 0-.2 0-.3.1l-14.8 8.1 12.7-11.3z" class="st7"/>
    <path d="M44.3 354.6c7.2 0 14 3.5 18.2 9.4 3.4 4.8 4.8 10.7 3.8 16.6s-4.2 11-9.1 14.4c-3.8 2.7-8.2 4.1-12.8 4.1-6.4 0-12.4-2.7-16.6-7.5-.3-.3-.7-.5-1.1-.5-.2 0-.5.1-.7.2l-9.2 5.1 7.9-7c.5-.4.6-1.2.3-1.8-5.5-9.9-2.7-22.3 6.6-28.9 3.7-2.7 8.1-4.1 12.7-4.1m0-1.4c-4.7 0-9.5 1.4-13.6 4.3-9.9 7-12.8 20.3-7 30.8L6.3 403.8l20.4-11.2c4.6 5.2 11.1 7.9 17.7 7.9 4.7 0 9.5-1.4 13.6-4.3 10.7-7.5 13.2-22.3 5.6-33-4.6-6.5-11.9-10-19.3-10z" class="st5"/>
    <path d="M6.3 404.4c-.2 0-.4-.1-.5-.3-.2-.2-.1-.6.1-.8l17-15.2c-5.7-10.8-2.5-24.1 7.4-31.1 10.9-7.7 26.1-5.1 33.8 5.8s5.1 26.1-5.8 33.8c-10 7.1-23.6 5.6-31.8-3.3l-19.9 11c-.1 0-.2.1-.3.1zm38-50.6c-4.6 0-9.2 1.4-13.3 4.2-9.6 6.8-12.6 19.7-6.9 30 .1.2.1.6-.1.7l-13.4 11.9 15.7-8.7c.2-.1.5-.1.7.1 7.8 8.8 20.9 10.3 30.6 3.5l.3.5-.3-.5c5-3.6 8.4-8.9 9.4-14.9s-.3-12.2-3.9-17.2c-4.5-6.2-11.6-9.6-18.8-9.6zm34.6-.8c-.2 0-.4-.1-.5-.3-.2-.3-.1-.6.1-.8l39.5-28c.3-.2.6-.1.8.1.2.3.1.6-.1.8l-39.5 28c-.1.2-.2.2-.3.2z"/>
    <path d="M35.6 381.3c-.9 0-1.7-.4-2.3-1.2-.7-.9-.7-2.1-.1-3.1l1 .6c-.3.5-.3 1.2.1 1.8.4.5 1 .8 1.7.6l.3 1.2c-.3.1-.5.1-.7.1zm-9.4-13.2c-.9 0-1.7-.4-2.3-1.2-.7-.9-.7-2.1-.1-3.1l1 .6c-.3.5-.3 1.2.1 1.8.4.5 1 .8 1.7.6l.3 1.2c-.3.1-.5.1-.7.1zm3.4 3l-1-.6c.3-.5.3-1.2-.1-1.8-.4-.5-1-.8-1.7-.6l-.3-1.2c1.1-.2 2.2.2 2.9 1.1.7.9.8 2.1.2 3.1zm1.3 3.6c-.9 0-1.7-.4-2.3-1.2-.7-.9-.7-2.1-.1-3.1l1 .6c-.3.5-.3 1.2.1 1.8.4.5 1 .8 1.7.6l.3 1.2c-.3.1-.5.1-.7.1z"/>
    <path d="M34.3 377.7l-1-.6c.3-.5.3-1.2-.1-1.8-.4-.5-1-.8-1.7-.6l-.3-1.2c1.1-.2 2.2.2 2.9 1.1.7.9.8 2.1.2 3.1zm4.6 6.6l-1-.6c.3-.5.3-1.2-.1-1.8-.4-.5-1-.8-1.7-.6l-.3-1.2c1.1-.2 2.2.2 2.9 1.1.8 1 .8 2.2.2 3.1zm9.4 13.3l-1-.6c.3-.5.3-1.2-.1-1.8-.4-.5-1-.8-1.7-.6l-.3-1.2c1.1-.2 2.2.2 2.9 1.1.8.9.8 2.1.2 3.1z"/>
    <path d="M45 394.6c-.9 0-1.7-.4-2.3-1.2-.7-.9-.7-2.1-.1-3.1l1 .6c-.3.5-.3 1.2.1 1.8.4.5 1 .8 1.7.6l.3 1.2c-.3.1-.5.1-.7.1z"/>
    <path d="M43.6 391l-1-.6c.3-.5.3-1.2-.1-1.8-.4-.5-1-.8-1.7-.6l-.3-1.2c1.1-.2 2.2.2 2.9 1.1.8.9.8 2.1.2 3.1z"/>
    <path d="M40.3 388c-.9 0-1.7-.4-2.3-1.2-.7-.9-.7-2.1-.1-3.1l1 .6c-.3.5-.3 1.2.1 1.8.4.5 1 .8 1.7.6l.3 1.2c-.3.1-.5.1-.7.1zm7.9 12.8c-.3-.2-.6-.4-.8-.8-.7-.9-.7-2.1-.1-3.1l1 .6c-.3.5-.3 1.2.1 1.8.1.2.3.3.5.4l-.7 1.1z"/>
  </g>
  <g id="Sweet_Potato">
    <path d="M98.7 256.3c-.4 0-.9-.1-1.3-.3-.6-.3-1-.9-1.2-1.6-.4-1.4.4-2.8 1.8-3.2 1.4-.4 2.8.4 3.2 1.8.4 1.4-.4 2.8-1.8 3.2-.3.1-.5.1-.7.1zm-.5-4.1c-.8.2-1.3 1.1-1.1 1.9.1.4.4.7.7.9s.8.2 1.2.1c.8-.2 1.3-1.1 1.1-1.9-.2-.7-1-1.2-1.9-1z"/>
    <path d="M59.6 271.1c-.2 0-.8-.6-1.1-2.2-.1-.4-.4-.7-.8-.8-14.1-2.1-25.1-27.5-25.1-57.9s11-55.8 25.1-57.9c.4-.1.7-.4.8-.8.3-1.5.9-2.2 1.1-2.2s.8.6 1.1 2.2c.1.4.4.7.8.8 14.1 2.1 25.1 27.5 25.1 57.9 0 30.3-11 55.8-25.1 57.9-.4.1-.7.4-.8.8-.3 1.6-.9 2.2-1.1 2.2z" class="st8"/>
    <path d="M59.6 151.2c.1.2.1.4.2.6.2.8.8 1.4 1.6 1.5 6.4 1 12.4 7.1 16.9 17.4 4.7 10.7 7.4 24.7 7.4 39.5s-2.6 28.8-7.4 39.5c-4.6 10.3-10.6 16.5-16.9 17.4-.8.1-1.4.7-1.6 1.5 0 .2-.1.5-.2.6-.1-.2-.1-.4-.2-.6-.2-.8-.8-1.4-1.6-1.5-6.4-1-12.4-7.1-16.9-17.4-4.7-10.7-7.4-24.7-7.4-39.5s2.6-28.8 7.4-39.5c4.6-10.3 10.6-16.5 16.9-17.4.8-.1 1.4-.7 1.6-1.5.1-.2.1-.4.2-.6m0-2.6c-.9 0-1.7 1.2-2 2.9-14.5 2.2-25.9 27.7-25.9 58.8s11.4 56.6 25.9 58.8c.3 1.7 1.1 2.9 2 2.9s1.7-1.2 2-2.9c14.5-2.2 25.9-27.7 25.9-58.8s-11.4-56.6-25.9-58.8c-.3-1.7-1.1-2.9-2-2.9z" class="st5"/>
    <path d="M59.6 272.8c-1.2 0-2.2-1.1-2.6-3-14.6-2.8-26-28.7-26-59.5s11.4-56.7 26-59.5c.5-1.9 1.5-3 2.6-3 1.2 0 2.2 1.1 2.6 3 14.6 2.8 26 28.7 26 59.5s-11.4 56.7-26 59.5c-.4 1.9-1.4 3-2.6 3zm0-123.4c-.3 0-.9.8-1.2 2.3-.1.3-.3.6-.7.6-14.2 2.1-25.2 27.6-25.2 58s11.1 55.9 25.2 58c.3 0 .6.3.7.6.3 1.5.9 2.3 1.2 2.3s.9-.8 1.2-2.3c.1-.3.3-.6.7-.6 14.2-2.1 25.2-27.6 25.2-58s-11.1-55.9-25.2-58c-.3 0-.6-.3-.7-.6-.3-1.5-.9-2.3-1.2-2.3z"/>
    <path d="M86.4 192.1c.4 0 .6.1.8.3 18.9 24.7 25.4 51.9 15.2 62.4.8 1.6.9 3 .2 3.6-.2.1-.4.2-.7.2h-.1c-.7 0-1.7-.5-2.6-1.3-2.3 1.3-5 1.9-8 1.9h-.3c-13.5-.2-32.6-12.7-48.1-32.8 0 .1.1.1.2.2 0-.1-.1-.1-.1-.2-1.3-1.7 7.6-10.7 19.8-20.1 10.8-8.4 20.7-14.2 23.7-14.2m0-1.9c-.7 0-2.8 0-9.9 4.2-4.4 2.6-9.7 6.3-15 10.3-6 4.6-11.4 9.2-15.2 13.1-5 5-6.4 7.7-5 9.6 15.5 20.2 34.9 33.4 49.5 33.5h.3c2.9 0 5.5-.5 7.8-1.6.8.5 1.8 1 2.8 1h.2c.7 0 1.3-.2 1.8-.6 1.2-1 1.5-2.7.8-4.7 9.8-11.9 3.2-39-15.9-63.9-.3-.4-1-.9-2.2-.9z" class="st5"/>
    <path d="M43.7 225.6c.5-2 7.3-9.3 19.5-18.7 11.3-8.7 20.6-13.9 23.1-14-.5 2-7.3 9.3-19.5 18.7-11.3 8.8-20.6 14-23.1 14z" class="st9"/>
    <path d="M84.3 194.6c-2.3 3-8.1 8.8-18 16.4-9.6 7.4-16.9 11.6-20.5 13.2 2.3-3 8.1-8.8 18-16.3 9.6-7.5 16.9-11.8 20.5-13.3m2.1-2.5c-3 0-12.9 5.8-23.7 14.2-12.2 9.4-21.1 18.4-19.8 20.1.1.2.4.3.8.3 3 0 12.9-5.8 23.7-14.2 12.2-9.4 21.1-18.4 19.8-20.1-.2-.2-.4-.3-.8-.3z" class="st10"/>
    <path d="M91.1 258.2c-13.2 0-31.6-12.3-46.3-30.8 4.7-1.2 14.9-7.9 23.1-14.2 6-4.6 11.3-9.2 15.1-13 2.5-2.6 3.9-4.4 4.6-5.6 17.5 23.7 23.7 49.6 14 59.6-.3.3-.3.7-.2 1.1.7 1.4.6 2.3.5 2.4h-.2c-.4 0-1.1-.3-2-1.1-.2-.2-.4-.2-.6-.2s-.3 0-.5.1c-2 1.1-4.6 1.7-7.5 1.7z" class="st8"/>
    <path d="M87.7 196.2c7.9 10.9 13.6 22.6 16.2 33.1 2.6 10.9 1.6 19.5-2.8 24.1-.6.6-.7 1.4-.3 2.1l.3.6c-.2-.1-.3-.2-.5-.4-.4-.3-.8-.5-1.2-.5-.3 0-.6.1-.9.2-2 1.1-4.4 1.7-7.1 1.7-12.7 0-30.4-11.7-44.7-29.4 1.5-.6 3.7-1.6 7.1-3.6 4.4-2.6 9.7-6.3 15-10.3 6-4.6 11.4-9.2 15.2-13.1 1.4-1.7 2.8-3.2 3.7-4.5m-.6-3.8c1.3 1.7-7.6 10.7-19.8 20.1-10.9 8.3-20.8 14.2-23.7 14.2-.4 0-.6-.1-.8-.3 15.5 20.2 34.8 32.8 48.3 32.8 3 0 5.7-.6 8-1.9 1 .8 1.9 1.3 2.7 1.3.3 0 .5-.1.7-.2.7-.5.6-2-.2-3.6 10.2-10.6 3.8-37.7-15.2-62.4z" class="st5"/>
    <path d="M91.3 259.9c-13.9 0-33.5-12.8-49.1-33.1-.3-.3-.2-.8.1-1.1s.8-.2 1.1.1C62 250 86.3 263.5 98.8 256.5c.3-.2.7-.1.9.1 1.1 1 2.1 1.3 2.4 1.1.3-.2.3-1.2-.4-2.6-.1-.3-.1-.7.1-.9 9.9-10.3 3.2-37.3-15.3-61.4-.3-.3-.2-.8.1-1.1.3-.3.8-.2 1.1.1 18.7 24.4 25.5 51.9 15.5 63.1.8 1.8.7 3.3-.3 4-.9.7-2.4.4-4-.8-2.1 1.2-4.7 1.8-7.6 1.8z"/>
    <path d="M43.6 227.3c-.6 0-1.1-.2-1.4-.5-.6-.8-.7-2.5 4.9-8.2 3.8-3.8 9.1-8.4 15.1-13 5.9-4.6 11.8-8.5 16.4-11.2 6.9-3.9 8.5-3.4 9.2-2.6s.7 2.5-4.9 8.2c-3.8 3.8-9.1 8.4-15.1 13-.8.7-18.6 14.3-24.2 14.3zm-.1-1.5c1.6.4 10.6-4.2 23.4-14s19.6-17.3 19.6-18.9c-1.6-.4-10.6 4.2-23.4 14-12.7 9.7-19.5 17.3-19.6 18.9zm43-33zM38 213.2c-.4 0-.7-.3-.8-.7-3.6-31.4 13.2-51.2 13.3-51.4.3-.3.8-.4 1.1-.1.3.3.4.8.1 1.1-.2.2-16.5 19.5-13 50.2.2.5-.2.9-.7.9.1 0 .1 0 0 0z"/>
  </g>
  <g id="Cabbage">
    <path d="M24.4 90l-2.7 2.5" class="st11"/>
    <path d="M21.7 93.1c-.2 0-.3-.1-.5-.2-.2-.3-.2-.7 0-.9l2.7-2.5c.3-.2.7-.2.9 0 .2.3.2.7 0 .9L22.1 93c-.1.1-.3.1-.4.1z"/>
    <path d="M37.9 100.6l-1.8 3.2" class="st11"/>
    <path d="M36.1 104.5c-.1 0-.2 0-.3-.1-.3-.2-.4-.6-.3-.9l1.8-3.2c.2-.3.6-.4.9-.3.3.2.4.6.3.9l-1.8 3.2c-.2.3-.4.4-.6.4z"/>
    <path d="M56.2 48C43.2 48 37 34.9 36 32.4l2.7-2.4c.1-.1.1-.2.2-.3.1-.2 1.6-3.7 5-3.7.4 0 .8 0 1.2.1.5.1.9.2 1.4.2 2.8 0 5-1.8 6.3-3.3 1.4-1.6 3.3-2.5 5.2-2.5.7 0 1.3.1 2 .3.4.1.7.3 1.1.5.8.4 1.7.6 2.5.6 1.6 0 3.2-.8 4.6-2.3 1.2-1.3 2.8-2.1 4.5-2.1.3 0 .7 0 1 .1 1.1.2 2.1.7 2.9 1.4 1.1.9 2.4 1.4 3.6 1.4h.6c1.1-.2 2.1-.6 2.9-1.3.2-.2.5-.3.8-.3.8 0 1.9.6 2.9 1.2.4.2.8.5 1.2.7L63.1 46.9c-2.4.7-4.7 1.1-6.9 1.1z" class="st12"/>
    <path d="M72.5 18.3c.3 0 .6 0 .9.1 1 .2 1.9.6 2.6 1.2 1.2 1 2.7 1.6 4.1 1.6.2 0 .5 0 .7-.1 1.2-.2 2.3-.7 3.3-1.5.1-.1.2-.1.3-.1.6 0 1.6.6 2.5 1.1.1.1.3.2.4.2L62.8 46.3c-2.3.7-4.5 1-6.5 1-12 0-18-11.6-19.5-14.7.8-.7 1.5-1.4 2.3-2 .2-.1.3-.3.4-.5 0 0 1.4-3.3 4.4-3.3.3 0 .7 0 1.1.1.5.1 1 .2 1.6.2 3 0 5.4-1.9 6.8-3.5 1.2-1.4 3-2.2 4.7-2.2.6 0 1.2.1 1.8.3.3.1.7.3 1 .4.9.5 1.9.7 2.8.7 1.8 0 3.6-.9 5.1-2.5.8-1.3 2.3-2 3.7-2m0-1.4c-1.9 0-3.7.9-4.9 2.3-.9 1-2.3 2.1-4.1 2.1-.7 0-1.4-.2-2.2-.5-.4-.2-.8-.4-1.2-.5-.7-.2-1.5-.4-2.2-.4-2.2 0-4.3 1-5.7 2.7-1.2 1.3-3.2 3.1-5.8 3.1-.4 0-.8 0-1.3-.1s-.9-.2-1.4-.2c-3.9 0-5.6 4.1-5.6 4.1-1.1.9-2.1 1.8-3 2.7 0 0 6.1 16.4 21 16.4 2.2 0 4.6-.4 7.3-1.2l26.1-27c-1.6-.6-3.6-2.3-5.2-2.3-.4 0-.8.1-1.2.4-.9.7-1.8 1.1-2.6 1.2h-.6c-1.2 0-2.3-.5-3.2-1.3-1-.8-2.1-1.3-3.2-1.5-.2.1-.6 0-1 0z" class="st5"/>
    <path d="M56.3 49.2c-15.2 0-21.5-16.6-21.6-16.7-.1-.2 0-.4.1-.6l3-2.7c.4-.8 2.7-5.2 7.5-4.2 2.8.6 5.1-1.2 6.5-2.8 2.2-2.5 5.5-3.5 8.5-2.5.4.1.8.3 1.2.5 2 1 3.9.5 5.6-1.4 1.8-1.9 4.2-2.8 6.6-2.3 1.3.3 2.5.8 3.5 1.6 1 .9 2.2 1.3 3.3 1.1.9-.1 1.6-.5 2.3-1 1.5-1.3 3.4-.2 5.1.8.7.4 1.3.8 1.9 1 .2.1.3.2.4.4 0 .2 0 .4-.1.5L64 47.9c-.1.1-.1.1-.2.1-2.8.8-5.3 1.2-7.5 1.2zM35.8 32.4c.5 1.2 2.5 5.7 6.3 9.5 5.8 5.9 12.9 7.6 21 5.1l25.5-26.3c-.4-.2-.9-.5-1.3-.7-1.7-1-3-1.6-3.8-.9s-1.8 1.1-2.9 1.3c-1.4.2-2.9-.3-4.2-1.4-.8-.7-1.8-1.2-2.9-1.4-2-.4-4.1.4-5.6 2-2.1 2.2-4.5 2.8-6.9 1.7-.4-.2-.7-.3-1.1-.5-2.5-.9-5.4 0-7.3 2.2-1.3 1.5-4 3.9-7.6 3.1-4.4-1-6.2 3.4-6.3 3.6 0 .1-.1.2-.2.2-.9.8-1.8 1.6-2.7 2.5z"/>
    <path d="M69.9 121.6c-28.6 0-51.8-23.2-51.8-51.8 0-2.2.1-4.4.4-6.6.1-1.1.7-2.3 1.6-3.3 1.2-1.3 2.4-3.9 1.4-8.5-1-4.7 1.9-7 3.6-8 1.9-1 3.5-2.2 4.7-3.5 1.7-1.9 2.8-3.7 3.2-5.6.3-1.4 1.4-2.6 2.8-2.9.3-.1.6-.1.8-.1 1.8 0 3.4 1.4 4.9 4 2.3 4.2 5 5.1 6.9 5.1 1.5 0 2.8-.5 3.5-1 .7-.4 1.4-.6 2.1-.6h.5c1.2.2 2.3.8 3.2 1.8.1.1.3.2.5.2h.1c.2 0 4.5-1 4.9-7.1.3-.6 1.7-3.4 4.3-3.4.3 0 .6 0 .9.1.4.1.8.1 1.1.1 3.8 0 5.6-4.7 5.6-4.9s.9-2.9 3.5-2.9c.3 0 .7 0 1.1.1s.8.1 1.2.1c1.5 0 2.6-.7 3.3-2.2.4-.9 1.3-1.5 2.2-1.5.2 0 .4 0 .6.1 3.9 1 10.7 3.6 13.3 9.2.2.6 1.8 5.4 6.4 6 .6.2 5.9 2.2 5.7 6.5-.1 3.3 1.7 5.4 3.2 6.5 1.2.8 2 1.9 2.5 3.1 2.6 6.6 3.8 13.6 3.5 20.8-.9 26.8-22.6 48.7-49.3 49.9-.8.3-1.6.3-2.4.3z" class="st13"/>
    <path d="M86.4 20.2c.1 0 .3 0 .4.1 3.7 1 10.3 3.5 12.9 8.8.3.9 2 5.7 6.8 6.4.7.3 5.3 2.1 5.2 5.8-.1 2.8 1.1 5.3 3.5 7 1.1.8 1.8 1.7 2.3 2.8 2.6 6.5 3.7 13.4 3.5 20.5-.9 26.4-22.3 48.1-48.7 49.3-.8 0-1.6.1-2.4.1-28.2 0-51.1-22.9-51.1-51.1 0-2.2.1-4.4.4-6.5.1-1 .6-2 1.4-2.9 1.3-1.4 2.6-4.2 1.6-9.1-.9-4.1 1.3-6.2 3.3-7.2 2-1.1 3.6-2.2 4.9-3.6 1.8-1.9 2.9-3.9 3.4-5.9.3-1.2 1.2-2.1 2.3-2.4.2-.1.5-.1.7-.1 1.9 0 3.3 2 4.3 3.7 2.5 4.5 5.4 5.5 7.5 5.5 1.6 0 3-.6 3.9-1.1.6-.3 1.2-.5 1.8-.5h.4c1 .1 2 .7 2.8 1.6.3.3.6.5 1 .5h.3c.2 0 4.9-1.1 5.4-7.6.3-.7 1.6-2.9 3.6-2.9.2 0 .5 0 .8.1.4.1.9.2 1.3.2 4.3 0 6.2-5.1 6.3-5.4v-.1c0-.1.7-2.4 2.8-2.4.3 0 .6 0 .9.1.5.1.9.2 1.3.2 1.7 0 3.1-.9 3.9-2.5 0-.9.6-1.4 1.3-1.4m0-1.3c-1.2 0-2.3.7-2.8 1.8-.4.9-1.2 1.8-2.7 1.8-.3 0-.6 0-1-.1s-.8-.2-1.2-.2c-3.2 0-4.1 3.3-4.1 3.3S73 30 69.6 30c-.3 0-.6 0-1-.1s-.7-.1-1.1-.1c-3.3 0-4.9 3.9-4.9 3.9-.3 5.8-4.4 6.6-4.4 6.6-1.2-1.4-2.5-1.9-3.6-2h-.5c-.9 0-1.7.3-2.5.7-.7.4-1.9.9-3.2.9-1.9 0-4.3-1-6.3-4.8-1.9-3.4-3.8-4.4-5.4-4.4-.3 0-.7 0-1 .1-1.6.4-2.9 1.7-3.3 3.4-.5 2.1-1.8 3.9-3.1 5.3s-2.9 2.5-4.5 3.4c-1.9 1-5.1 3.5-4 8.7.9 4.4-.2 6.7-1.2 7.9-.9 1-1.6 2.3-1.8 3.6-.3 2.2-.4 4.4-.4 6.7 0 29 23.5 52.4 52.4 52.4.8 0 1.7 0 2.5-.1 27.1-1.2 49-23.4 49.9-50.6.3-7.4-1-14.5-3.6-21-.5-1.4-1.5-2.5-2.7-3.4-1.4-1-3.1-2.8-2.9-5.9.2-5.1-6.2-7.2-6.2-7.2-4.5-.5-5.9-5.6-5.9-5.6-2.7-5.8-9.7-8.5-13.8-9.6-.2.1-.4.1-.7.1z" class="st5"/>
    <path d="M69.9 122.8c-13.7 0-26.6-5.2-36.6-14.7-10.6-10-16.4-23.7-16.4-38.3 0-2.3.1-4.5.4-6.8.2-1.4.8-2.7 1.9-3.9 1-1.1 2-3.3 1.1-7.4-1.2-5.5 2.2-8.2 4.3-9.3 1.8-1 3.2-2 4.4-3.3 1.6-1.7 2.5-3.4 2.9-5 .4-1.9 1.9-3.4 3.7-3.8s4.6 0 7 4.5c1.3 2.4 2.8 3.8 4.5 4.3 1.8.5 3.4-.2 4.2-.7 1.1-.6 2.3-.9 3.4-.7 1.4.2 2.7.8 3.7 2 .9-.3 3.4-1.6 3.6-6v-.2c.7-1.8 3.1-5 6.6-4.1 3.5.8 5.3-4 5.3-4 .5-1.6 2.3-4.4 6-3.5 1.5.3 2.4-.1 3-1.3.8-1.6 2.5-2.5 4.2-2 4.1 1.1 11.3 3.8 14.1 9.9 0 .1 1.4 4.7 5.4 5.2h.1c.3.1 6.8 2.3 6.6 7.7-.1 2.8 1.4 4.5 2.7 5.4 1.4 1 2.4 2.2 2.9 3.6 2.7 6.8 3.9 13.9 3.6 21.2-.9 27.4-23.1 49.8-50.5 51.1-.4.1-1.3.1-2.1.1zM36.7 31.3c-.3 0-.6 0-.9.1-1.4.3-2.5 1.5-2.8 3-.4 1.8-1.5 3.7-3.2 5.5-1.2 1.3-2.8 2.5-4.7 3.5-1.8 1-4.7 3.3-3.7 8.1 1 4.6-.2 7.1-1.4 8.4-.9 1-1.5 2.2-1.6 3.3-.3 2.2-.4 4.4-.4 6.6 0 14.3 5.7 27.6 16.1 37.5 10.3 9.9 23.9 15 38.3 14.3 26.8-1.2 48.5-23.2 49.4-50 .2-7.2-1-14.2-3.6-20.8-.5-1.2-1.4-2.3-2.5-3.1-1.5-1.1-3.3-3.1-3.2-6.4.2-4.4-5.2-6.4-5.8-6.6-4.7-.6-6.2-5.7-6.3-6-2.6-5.5-9.5-8.1-13.4-9.2-1.2-.3-2.4.3-2.9 1.4-.8 1.7-2.4 2.4-4.3 1.9-3.6-.8-4.6 2.6-4.7 2.8-.8 2-3.1 5.6-6.7 4.7-3.3-.8-5 2.8-5.3 3.4-.4 6-4.6 7-4.8 7.1-.2 0-.4 0-.5-.2-.9-1.1-2-1.7-3.2-1.8-.9-.1-1.8.1-2.7.6-1 .6-2.9 1.4-5.1.8-2-.6-3.8-2.2-5.2-4.8-1.5-2.7-3.1-4.1-4.9-4.1z"/>
    <path d="M81.7 118.4c-2.8 0-5.5-.4-8.1-1.3-10-3.3-14.1-10.8-12.1-22.4l5-19.9v-.1c0-.1.7-7.5 5-9.7 1.5-.8 3.2-1.2 5.1-1.2 2.4 0 4.2.6 4.2.6.1 0 1.6.4 3.6.4 2.6 0 6.2-.6 8.8-3.7 2.5-2.9 6.4-3.5 9.2-3.5 1.5 0 2.5.2 2.5.2s.7.1 1.8.1c2.6 0 7.4-.6 10.6-4.8 1.3-1.7 3.2-2.6 5.5-2.6h.5c4.3.2 7.7 3.3 8.2 7.2.5 4.1-2.1 8-7.8 11.5-1.3.8-2.1 2.1-2.2 3.6-1 16.9-10.3 32.3-24.8 41.1-4.5 3-9.7 4.5-15 4.5z" class="st12"/>
    <path d="M122.8 51.2h.5c3.9.2 7.1 3 7.6 6.6.5 3.8-2 7.5-7.5 10.8-1.4.9-2.4 2.4-2.5 4.2-1 16.7-10.1 31.9-24.4 40.6-4.6 2.8-9.7 4.3-14.8 4.3-2.7 0-5.4-.4-7.9-1.2-9.6-3.1-13.6-10.4-11.7-21.6l5-19.9v-.2s.7-7.1 4.6-9.2c1.4-.7 3-1.1 4.8-1.1 2.2 0 4 .6 4 .6h.1c.1 0 1.6.4 3.7.4 2.7 0 6.6-.7 9.3-3.9 2.3-2.7 6-3.3 8.7-3.3 1.4 0 2.4.2 2.4.2.1 0 .8.1 1.9.1 2.7 0 7.7-.7 11.1-5.1 1.3-1.5 3-2.3 5.1-2.3m0-1.3c-2.1 0-4.4.7-6.1 2.9-3.1 4-7.6 4.6-10.1 4.6-1 0-1.7-.1-1.7-.1s-1.1-.2-2.6-.2c-2.7 0-7 .6-9.7 3.8-2.4 2.8-5.8 3.4-8.3 3.4-2 0-3.4-.4-3.4-.4s-1.9-.7-4.4-.7c-1.6 0-3.5.3-5.4 1.2-4.7 2.4-5.3 10.2-5.3 10.2l-5 19.9c-2.5 14.6 4.9 20.7 12.5 23.1 2.7.9 5.5 1.3 8.3 1.3 5.4 0 10.8-1.6 15.5-4.5 14.3-8.7 24-24 25.1-41.7.1-1.3.8-2.4 1.8-3.1 7.1-4.4 8.5-8.8 8.1-12.1-.6-4.4-4.4-7.5-8.9-7.8 0 .2-.2.2-.4.2z" class="st5"/>
    <path d="M81.8 119.6c-2.9 0-5.8-.4-8.5-1.3-7.4-2.4-15.6-8.5-12.9-23.8l5-19.9c.1-.7.9-8.2 5.6-10.6 4.8-2.5 10-.7 10.2-.6 0 0 7.1 1.8 11-2.9 4.4-5.2 12.5-3.8 12.8-3.8.1 0 7.1 1.1 11.2-4.3 1.7-2.2 4.1-3.2 7.1-3.1 4.9.3 8.8 3.8 9.4 8.3.4 3.2-.7 8-8.3 12.7-.9.6-1.5 1.6-1.6 2.7-1 17.3-10.5 33-25.3 42.1-4.9 3-10.3 4.5-15.7 4.5zm-5.2-55.8c-1.6 0-3.4.3-5.1 1.2-4.4 2.2-5 9.7-5 9.8v.1l-5 19.9c-2 11.6 2.1 19.2 12.2 22.5 7.6 2.5 16.1 1.3 23.4-3.1 14.5-8.9 23.8-24.3 24.8-41.2.1-1.5.9-2.8 2.1-3.5 5.7-3.5 8.3-7.4 7.8-11.6-.5-4-4-7.1-8.3-7.3-2.6-.1-4.7.7-6.2 2.6-4.5 5.9-12 4.7-12.3 4.7-.1 0-7.8-1.3-11.8 3.4-4.4 5.2-11.9 3.3-12.2 3.2-.2-.1-2-.7-4.4-.7zM65.9 74.7z"/>
    <path d="M55.6 120.2c-2.7 0-5.3-.5-7.9-1.4-23.8-9-28.5-32.4-28.6-32.7s-.3-.5-.7-.5h-.2c-1.6 0-9.7-.5-10-10-.1-4.4 1.4-7.7 4.7-9.9 1.5-1 3.1-1.6 4-1.8-.2 2.5.4 4.8 2.1 6.7 3.2 3.9 9.9 6.1 17.9 6.1 2.6 0 5.2-.2 7.8-.7 1.2-.2 2.8-.7 4.7-1.2 4.8-1.3 11.4-3.1 17.4-3.1 8.9 0 13.5 4 14 12.1.5 7.4-1.1 15.2-4.8 23.2-3.6 8.1-11.7 13.2-20.4 13.2z" class="st13"/>
    <path d="M16.3 64.8c0 2.3.8 4.4 2.3 6.2 3.3 4 10.2 6.4 18.4 6.4 2.7 0 5.3-.3 8-.7 1.2-.2 2.9-.7 4.8-1.2 4.8-1.3 11.3-3.1 17.2-3.1 8.6 0 12.8 3.7 13.4 11.5.5 7.3-1.1 14.9-4.7 22.8-3.6 7.8-11.4 12.8-19.9 12.8-2.6 0-5.2-.5-7.6-1.4-23.7-8.8-28.4-31.9-28.4-32.1-.1-.6-.7-1.1-1.3-1.1h-.1c-1.5 0-9-.5-9.3-9.4-.3-7.2 4.5-9.8 7.2-10.7m1.5-1.8S7.3 64.4 7.7 75.5C8 85.9 17 86.2 18.3 86.2h.2s4.5 23.9 29 33.2c2.7 1 5.4 1.5 8.1 1.5 8.8 0 17.2-5.1 21.1-13.6 3.1-6.6 5.5-14.8 4.9-23.5-.7-10-7.2-12.8-14.7-12.8-8.4 0-18 3.5-22.2 4.3-2.6.5-5.2.7-7.7.7-11.2.1-20.8-4.5-19.2-13z" class="st5"/>
    <path d="M55.5 121.4c-2.7 0-5.5-.5-8.2-1.5-22.6-8.5-28.5-29.7-29.3-33.1-1.3 0-4.8-.4-7.6-2.9-2.1-2-3.2-4.7-3.3-8.3-.3-11.5 10.5-13.1 10.6-13.1.2 0 .4 0 .5.2.1.1.2.3.1.5-.5 2.8.2 5.3 2.3 7.3 4.4 4.4 14.2 6.2 23.9 4.3 1.2-.2 2.8-.6 4.6-1.2 7.7-2.1 20.6-5.6 27.8-.5 3.1 2.2 4.8 5.8 5.2 10.6.5 7.6-1.1 15.6-4.9 23.8-4 8.7-12.7 13.9-21.7 13.9zm-37-35.7c.3 0 .5.2.5.5 0 .2 4.8 23.7 28.6 32.8 11 4.2 23.5-1 28.5-11.8 3.7-8 5.3-15.8 4.8-23.2-.3-4.5-1.9-7.8-4.7-9.8-6.7-4.8-19.3-1.4-26.8.6-1.9.5-3.5.9-4.7 1.2-10.1 1.9-20.3 0-24.9-4.6-2.1-2.1-3-4.7-2.7-7.5-2.3.5-9.2 2.9-8.9 11.8.1 3.2 1.1 5.8 3 7.5 3 2.6 7.2 2.5 7.3 2.5z"/>
    <path d="M55.3 97.7c-3.4 0-5.9-1.7-7.3-2.9-2.7-2.4-6.4-3.3-9.8-2.4-.9.3-1.9.6-2.8 1.1-6.2 3-8.9-2-10.5-5.1-.4-.8-.8-1.5-1.1-1.9-.8-.9-2.3-.7-3.5-.4-2.5.7-5.1.5-7.3-.6-2.6-1.2-5.7-4-5.8-10 0-.3.2-.6.5-.6s.6.2.6.5c.1 4.4 1.9 7.4 5.2 9 2 .9 4.3 1.1 6.6.5 2.1-.6 3.7-.3 4.6.8.4.5.8 1.2 1.3 2.1 1.6 3 3.8 7.1 9 4.6 1-.5 2-.9 3-1.2 3.7-1 7.8 0 10.8 2.6 1.8 1.6 4.9 3.4 9 2.3 1.6-.4 3.1-1.3 4.4-2.6 2.1-2 7.5-6.5 12.1-3.6.3.2.3.5.2.8-.2.3-.5.3-.8.2-3.9-2.4-8.8 1.6-10.7 3.5-1.4 1.4-3.1 2.4-4.9 2.8-1 .4-2 .5-2.8.5zm27.8-44.2c-2.5 0-4.6-1.1-6.6-5.4-1.5-3.2-4.5-3.1-6.7-2.4-1.8.6-3.6.7-5.2.3-3.8-.8-5.6-3.3-6.4-4.7-.4-.7-.8-1.2-1.3-1.6-.7-.5-1.4-.8-2.2-.9-.3 0-.5-.3-.5-.6s.3-.5.6-.5c1 .1 1.9.5 2.7 1.1.6.5 1.2 1.1 1.7 2 .7 1.2 2.3 3.4 5.6 4.1 1.5.3 3 .2 4.7-.3 3.7-1.1 6.7 0 8.1 3 2.4 5.1 4.7 5.1 8.3 4.4.3-.1.6.1.6.4.1.3-.1.6-.4.6-1.1.3-2.1.5-3 .5z"/>
  </g>
</svg>
