<svg xmlns="http://www.w3.org/2000/svg" viewBox="0 0 1073 181.5" enable-background="new 0 0 1073 181.5"><path d="M553 2h-26.7c-85.2.8-81 53-81.1 54.5l-.1 108.4c0 8.9 6.7 16.2 14.9 16.2h12.8c8.2 0 14.9-7.3 14.9-16.2V62c3-17.1 23.2-19.2 23.2-19.2h46.3s11.9-.9 11.9-20C569.2 3.9 553 2 553 2"/><path d="M678.8 0c-53.9 0-97.5 7.3-97.5 61.2v58.6c0 53.9 43.7 61.2 97.5 61.2 53.9 0 97.6-7.3 97.6-61.2V61.1C776.4 7.3 732.7 0 678.8 0m55.1 109.1c0 30-24.6 32.1-55 32.1s-55-2-55-32.1V71.9c0-30 24.6-32.1 55-32.1s55 2.1 55 32.1v37.2zM265.5 18.1c0-8.9-6.6-16.2-14.8-16.2h-12.8c-8.3 0-14.9 7.3-14.9 16.2v108.6l.3-.4c3.4 48 45.6 54.7 97.3 54.7 53.9 0 97.5-7.3 97.5-61.2V18.1c0-8.9-6.6-16.2-14.9-16.2h-12.8c-8.2 0-14.9 7.3-14.9 16.2v90.6c-.8 28.7-25.1 32.5-54.9 32.5-30.4 0-55-3.9-55-33.9V18.1h-.1zM879.7.2c-53.9 0-78.6 14.9-78.6 68.8v95.7c0 8.9 6.6 16.1 14.8 16.1h12.8c8.2 0 15-7.2 15-16.1V78.3c.8-28.6 6.1-38.2 36-38.2s35.2 9.5 36 38.2v86.4c0 8.9 6.7 16.1 14.9 16.1h12.8c8.2 0 14.9-7.2 14.9-16.1V69C958.4 15.1 933.6.2 879.7.2M994.4.2c-53.9 0-78.6 14.9-78.6 68.8v95.7c0 8.9 6.7 16.1 14.9 16.1h12.8c8.2 0 14.9-7.2 14.9-16.1V78.3c.8-28.6 6.1-38.2 36-38.2 29.8 0 35.2 9.5 36 38.2v86.4c0 8.9 6.7 16.1 14.9 16.1h12.8c8.3 0 14.9-7.2 14.9-16.1V69c0-53.9-24.8-68.8-78.6-68.8M180.1 2h-12.8c-7.8 0-14.3 6.6-14.8 14.9 0 .6-.1 1.1-.1 1.7v46.2c-48.6-7.9-83.5-4.1-109.8.4V18.6c0-8.9-6.6-16.2-14.9-16.2H14.9C6.7 2.4 0 9.7 0 18.6v146.8c0 8.9 6.7 16.1 14.9 16.1h12.8c8.3 0 14.9-7.2 14.9-16.1v-57.7.1c26.3-4.5 61.1-8.3 109.8-.4v58c0 8.9 6.7 16.1 14.9 16.1h12.8c8.2 0 14.9-7.2 14.9-16.1V18.1C195 9.2 188.2 2 180.1 2"/></svg>