<svg id="Layer_1" data-name="Layer 1" xmlns="http://www.w3.org/2000/svg" viewBox="0 0 70 70"><defs><style>.cls-1{fill:none;}.cls-2{fill:#fdb71c;}.cls-3{fill:#fff;}.cls-4{fill:#78c144;}.cls-5{fill:#231f20;}</style></defs><path class="cls-1" d="M19.07,21.06a5,5,0,0,0-1,3.11,0.72,0.72,0,0,1,0,.18,7.83,7.83,0,0,1,.69.81,10.31,10.31,0,0,0,1.62-2.5A9.76,9.76,0,0,1,19.07,21.06Z"/><path class="cls-2" d="M31.65,27.22a17.1,17.1,0,0,1-9-2.67,12.34,12.34,0,0,1-2.56,3.39A13.42,13.42,0,0,1,18,29.47c-2.31,1.44-4.48,2.81-4.19,7.39,0.46,7.21,5.56,12.94,13.66,15.34a29.55,29.55,0,0,0,8.47,1.32A31.84,31.84,0,0,0,41,53.06a18,18,0,0,1,2.62-.28H44c0.65,0,1.45.11,2.38,0.2,1.63,0.15,3.47.33,5,.33a6,6,0,0,0,1.94-.18c2.79-1.13,4.56-4.8,4.21-8.72C57,38.53,50.87,28.33,44.09,24.49c-0.41-.23-0.82-0.44-1.22-0.66a41.49,41.49,0,0,1-9.15,3.23A13.24,13.24,0,0,1,31.65,27.22ZM29.38,48H29.29C20.36,47,18.94,38.56,18.93,38.48a0.75,0.75,0,0,1,1.48-.23,10.23,10.23,0,0,0,9.06,8.29A0.75,0.75,0,0,1,29.38,48Z"/><path class="cls-3" d="M44.63,23.54C51.81,27.6,58,38,58.6,44.32c0.39,4.39-1.66,8.52-4.89,9.83a6.84,6.84,0,0,1-2.36.26c-1.58,0-3.45-.18-5.1-0.33-0.9-.08-1.71-0.16-2.33-0.2h-0.3a17.26,17.26,0,0,0-2.45.27,32.76,32.76,0,0,1-5.23.47h0a30.62,30.62,0,0,1-8.78-1.36c-8.42-2.49-14-8.75-14.44-16.32-0.33-5.24,2.34-6.92,4.71-8.39a12.67,12.67,0,0,0,2-1.4,11.26,11.26,0,0,0,2.41-3.23l-0.28-.21a11,11,0,0,1-2.36,3.19,12.41,12.41,0,0,1-1.9,1.35C14.91,29.7,12,31.51,12.36,37c0.49,7.72,6.12,14.1,14.69,16.63a29.41,29.41,0,0,0,14.17.9,14,14,0,0,1,2.68-.26c0.62,0,1.42.11,2.32,0.19,2.5,0.24,6.28.59,7.62,0,3.42-1.39,5.52-5.58,5.11-10.19-0.57-6.36-6.87-16.94-14.14-21.05l-0.29-.16-0.39.19Z"/><path class="cls-3" d="M20.49,19.84c0.31-.9,2.32-3.62,7.06-5.19a15.19,15.19,0,0,1,4.79-.74c6.47,0,13,3.51,15.8,5.28-1,.52-2.4,1.24-4,2l0.38,0.2c1.78-.86,3.32-1.65,4.3-2.17-3.15-2-13.06-7.68-21.4-4.91-5.5,1.83-7.17,5-7.33,5.57A7.76,7.76,0,0,0,21,21.23l0.19-.33A7.33,7.33,0,0,1,20.49,19.84Z"/><path class="cls-3" d="M31.61,25.37a15.09,15.09,0,0,1-8.1-2.47l-0.16.32a15,15,0,0,0,10.13,2.35A35.87,35.87,0,0,0,41.13,23l-0.42-.2a34.46,34.46,0,0,1-7.29,2.47A11.54,11.54,0,0,1,31.61,25.37Z"/><path class="cls-3" d="M22.33,22l-0.17.32,0.27,0.23,0.17-.33Z"/><path class="cls-3" d="M42,22.18l0.41,0.2,0.4-.18L42.46,22Z"/><path class="cls-3" d="M22.61,22.24l-0.17.33c0.29,0.23.59,0.45,0.9,0.66l0.16-.32C23.19,22.69,22.89,22.47,22.61,22.24Z"/><path class="cls-3" d="M40.71,22.76L41.13,23l1.32-.59L42,22.18Z"/><path class="cls-3" d="M43.31,21.59l0.38,0.21,0.85-.41-0.38-.2Z"/><path class="cls-3" d="M21.76,21.49c-0.19-.19-0.36-0.38-0.53-0.58L21,21.23c0.17,0.2.35,0.39,0.54,0.58Z"/><path class="cls-3" d="M22.16,22.34L22.33,22q-0.3-.26-0.56-0.53l-0.18.32C21.77,22,22,22.17,22.16,22.34Z"/><path class="cls-3" d="M42.46,22l0.39,0.21,0.85-.4-0.38-.21Z"/><path class="cls-3" d="M21.76,19.79c0.62-.94,2.41-2.86,6.14-4.1A14.1,14.1,0,0,1,32.34,15c5.14,0,10.33,2.34,13.52,4.12-0.91.45-1.9,0.94-2.93,1.42l1.24,0.63c1.57-.75,3-1.47,4-2-2.85-1.77-9.33-5.28-15.8-5.28a15.19,15.19,0,0,0-4.79.74c-4.74,1.57-6.75,4.3-7.06,5.19a7.33,7.33,0,0,0,.75,1.07,7.9,7.9,0,0,1,.66-1Z"/><path class="cls-3" d="M33.25,24.15a10.55,10.55,0,0,1-1.64.12,14,14,0,0,1-7.53-2.34,6.61,6.61,0,0,0-.57,1,15.09,15.09,0,0,0,8.1,2.47,11.54,11.54,0,0,0,1.81-.14,34.46,34.46,0,0,0,7.29-2.47c-0.46-.22-0.92-0.42-1.37-0.61A30.09,30.09,0,0,1,33.25,24.15Z"/><path class="cls-3" d="M40.73,21.55c0.43,0.2.87,0.41,1.31,0.62L42.46,22c-0.45-.23-0.88-0.41-1.31-0.62Z"/><path class="cls-3" d="M23.19,21.28L22.93,21a7.36,7.36,0,0,0-.6,1l0.28,0.22A7.18,7.18,0,0,1,23.19,21.28Z"/><path class="cls-3" d="M22.61,22.24c0.28,0.23.58,0.45,0.9,0.66a6.61,6.61,0,0,1,.57-1,10.83,10.83,0,0,1-.88-0.66A7.18,7.18,0,0,0,22.61,22.24Z"/><path class="cls-3" d="M39.34,22.15c0.46,0.19.91,0.4,1.37,0.61L42,22.18c-0.44-.22-0.87-0.43-1.31-0.62Z"/><path class="cls-3" d="M21.9,19.95a7.9,7.9,0,0,0-.66,1c0.16,0.2.34,0.39,0.53,0.58a7.59,7.59,0,0,1,.62-1A7.24,7.24,0,0,1,21.9,19.95Z"/><path class="cls-3" d="M42,21l1.27,0.63,0.85-.41-1.24-.63Z"/><path class="cls-3" d="M41.15,21.37c0.43,0.2.86,0.39,1.31,0.62l0.85-.4L42,21Z"/><path class="cls-3" d="M22.33,22a7.36,7.36,0,0,1,.6-1c-0.19-.17-0.37-0.34-0.54-0.52a7.59,7.59,0,0,0-.62,1Q22,21.76,22.33,22Z"/><path class="cls-4" d="M27.9,15.69c-3.73,1.24-5.52,3.16-6.14,4.1l0.14,0.16a7.24,7.24,0,0,0,.49.58c0.17,0.18.35,0.35,0.54,0.52l0.27,0.23a10.83,10.83,0,0,0,.88.66,14,14,0,0,0,7.53,2.34,10.55,10.55,0,0,0,1.64-.12,30.09,30.09,0,0,0,6.09-2l1.39-.6,0.42-.19L42,21l0.89-.41c1-.48,2-1,2.93-1.42C42.67,17.35,37.48,15,32.34,15A14.1,14.1,0,0,0,27.9,15.69Z"/><path class="cls-5" d="M46.13,22.29c2.5-1.23,4.35-2.24,4.53-2.34a0.75,0.75,0,0,0,.08-1.26c-0.53-.38-13-9.37-23.77-5.8-5.14,1.71-7.55,4.7-8.17,6.2a3.1,3.1,0,0,0-.13.38l-0.12.05a5.22,5.22,0,0,0-1.94,3.74,4.24,4.24,0,0,0-2.73-.54,0.75,0.75,0,0,0,.3,1.47c0.08,0,1.81-.29,3.44,2-0.34.25-.74,0.5-1.19,0.78-2.38,1.49-6,3.74-5.57,10.08,0.53,8.37,6.57,15.25,15.76,18a32.34,32.34,0,0,0,9.29,1.44,34.54,34.54,0,0,0,5.53-.5,12.74,12.74,0,0,1,2.37-.24c0.6,0,1.39.11,2.26,0.19,3,0.28,6.64.63,8.33-.06,4-1.64,6.5-6.45,6-11.71C59.85,37.6,53.53,26.85,46.13,22.29Zm0.09,32.14c-0.9-.08-1.7-0.16-2.32-0.19a14,14,0,0,0-2.68.26,29.41,29.41,0,0,1-14.17-.9C18.48,51.05,12.86,44.68,12.36,37c-0.35-5.45,2.54-7.26,4.87-8.71a12.41,12.41,0,0,0,1.9-1.35,11,11,0,0,0,2.36-3.19l0.28,0.21q0.44,0.33.91,0.63a17.1,17.1,0,0,0,9,2.67,13.24,13.24,0,0,0,2.06-.16,41.49,41.49,0,0,0,9.15-3.23l1.25-.58,0.39-.19,0.29,0.16c7.27,4.11,13.58,14.7,14.14,21.05,0.41,4.61-1.69,8.8-5.11,10.19C52.49,55,48.72,54.67,46.22,54.43Zm2.62-35.21c-1,.51-2.52,1.31-4.3,2.17l-0.85.41-0.85.4-0.4.18L41.13,23a35.87,35.87,0,0,1-7.65,2.62,15,15,0,0,1-10.13-2.35C23,23,22.72,22.8,22.44,22.57l-0.27-.23c-0.2-.17-0.39-0.35-0.58-0.53s-0.37-.38-0.54-0.58a7.76,7.76,0,0,1-.93-1.35c0.15-.62,1.83-3.74,7.33-5.57C35.78,11.54,45.69,17.2,48.84,19.22Zm-30.79,5a5,5,0,0,1,1-3.11,9.76,9.76,0,0,0,1.27,1.6,10.31,10.31,0,0,1-1.62,2.5A7.83,7.83,0,0,0,18,24.35,0.72,0.72,0,0,0,18.05,24.17Z"/><path class="cls-5" d="M29.47,46.54a10.23,10.23,0,0,1-9.06-8.29,0.75,0.75,0,0,0-1.48.23c0,0.08,1.43,8.49,10.36,9.55h0.09A0.75,0.75,0,0,0,29.47,46.54Z"/></svg>