<svg id="Layer_1" data-name="Layer 1" xmlns="http://www.w3.org/2000/svg" viewBox="0 0 70 70"><defs><style>.cls-1{fill:#3999e2;}.cls-2{fill:#65c1ef;}.cls-3{fill:#d0f1fc;}.cls-4{fill:#231f20;}</style></defs><polygon class="cls-1" points="21.53 13.59 33.5 11.21 33.5 11.02 21.53 12.88 21.53 13.59"/><polygon class="cls-2" points="19.9 19.14 17.34 22.43 23.6 23.63 19.9 19.14"/><polygon class="cls-1" points="39.51 21.21 34.32 14.99 23.89 17.07 29.92 24.39 39.51 21.21"/><path class="cls-1" d="M39.35,38.55l0.56-1.33a4.18,4.18,0,0,0,.33-1.63V33.3a1.46,1.46,0,0,1-.71-1.18A2,2,0,0,1,41,30.53l0-5.19-9.66,3.2V57.15l7.39-3.29V41.41A7.34,7.34,0,0,1,39.35,38.55Z"/><polygon class="cls-2" points="15.59 54.32 26.98 57.61 26.98 28.77 15.59 26.57 15.59 54.32"/><path class="cls-3" d="M48,44.75a35.83,35.83,0,0,1-4.25-.26l-0.63-.08-0.63-.09L42,44.25l-0.43-.07v9.74c0,0.13,0,.25,0,0.38a4.27,4.27,0,0,0,4.3,4h4.15a4.34,4.34,0,0,0,4.34-4.34v-9.6A51.92,51.92,0,0,1,48,44.75Z"/><path class="cls-4" d="M56.17,37.5a5.51,5.51,0,0,1-.47-2.23v-2a1.46,1.46,0,0,0,.71-1.18c0-2.44-7-2.57-8.44-2.57a32,32,0,0,0-4.12.27l0-7.54a0.65,0.65,0,0,0,0-.07,0.6,0.6,0,0,0,0-.14,0.64,0.64,0,0,0-.07-0.14,0.68,0.68,0,0,0,0-.06L35.8,12.35V9.06a0.63,0.63,0,0,0-.22-0.48,0.61,0.61,0,0,0-.51-0.14L19.76,10.82a0.63,0.63,0,0,0-.53.62v4l-6.34,8.11a0.5,0.5,0,0,0,0,.06,0.62,0.62,0,0,0-.07.16,0.6,0.6,0,0,0,0,.11,0.48,0.48,0,0,0,0,.05V56a0.63,0.63,0,0,0,.45.6L29,61.14l0.17,0a0.62,0.62,0,0,0,.23,0h0l9.9-4.41a7.18,7.18,0,0,0,6.6,4.38h4.15a7.17,7.17,0,0,0,7.17-7.17V41.76a8.48,8.48,0,0,0-.73-3.45Zm-12.33-6,0.8-.11a30.45,30.45,0,0,1,6.66,0,13.09,13.09,0,0,1,3,.63l0.33,0.14a6.83,6.83,0,0,1-1.55.49,24.46,24.46,0,0,1-5.07.46,26.85,26.85,0,0,1-4.14-.29l-0.63-.11-0.3-.06-0.33-.08-0.47-.13a4.7,4.7,0,0,1-.76-0.28L41.67,32l0.43-.14,0.47-.13,0.63-.14Zm10.6,2.43v0.81a8,8,0,0,1-1.68.59,19.27,19.27,0,0,1-4.74.52,20,20,0,0,1-4.2-.45l-0.21,0-0.42-.1-0.63-.17-0.47-.14-0.59-.21V33.9l0.6,0.18,0.47,0.12,0.63,0.12,0.63,0.1a31.92,31.92,0,0,0,4.15.27A24.25,24.25,0,0,0,54.44,33.9ZM20.49,12L34.55,9.8v2.27L20.49,14.86V12Zm-0.62,4.65L27.59,26,14.52,23.48ZM28.55,59.7L14,55.5V24.67l14.54,2.8V59.7Zm0.84-33.48L21,16l13.92-2.77L42.19,22Zm10,12.33a7.34,7.34,0,0,0-.58,2.86V53.92a7.17,7.17,0,0,0,.09,1.1c0,0.16.05,0.32,0.09,0.48l-9.14,4.07V27.4l12.82-4.24,0,6.89-0.47.12a8,8,0,0,0-1.1.36,2,2,0,0,0-1.49,1.59,1.46,1.46,0,0,0,.71,1.18v2.29a4.18,4.18,0,0,1-.33,1.63ZM56,41.87v12a5.92,5.92,0,0,1-5.91,5.91H45.94a5.89,5.89,0,0,1-5.66-4.23A5.86,5.86,0,0,1,40.13,55c0-.16-0.06-0.32-0.07-0.48s0-.38,0-0.57V41.41A6.07,6.07,0,0,1,40.51,39L41,37.94l0.1-.23a5.4,5.4,0,0,0,.36-1.48l0.65,0.21,0.47,0.13,0.63,0.16,0.63,0.14a21.53,21.53,0,0,0,4.21.42,17.68,17.68,0,0,0,6.51-1A6.75,6.75,0,0,0,55,38l0.36,0.81A7.25,7.25,0,0,1,56,41.76v0.11Z"/></svg>