<svg id="Layer_1" data-name="Layer 1" xmlns="http://www.w3.org/2000/svg" viewBox="0 0 70 70"><defs><style>.cls-1{fill:#639b42;}.cls-2{fill:#fff;}.cls-3{fill:#231f20;}.cls-4{fill:#cc4140;}</style></defs><path class="cls-1" d="M36.94,25.12c1.08-2.79,4-8.45,10.3-9.47C46.54,17.9,44.22,22.84,36.94,25.12Z"/><path class="cls-2" d="M45.76,16.94a13.77,13.77,0,0,1-7.08,6.57,17.84,17.84,0,0,1,1.1-1.82,11.85,11.85,0,0,1,6-4.74m2.65-2.32c-10,.61-12.86,11.82-12.86,11.82,11.62-2.74,12.86-11.82,12.86-11.82h0Z"/><path class="cls-1" d="M33.06,25.12c-7.2-2.26-9.57-7.21-10.29-9.47C29,16.68,32,22.33,33.06,25.12Z"/><path class="cls-2" d="M24.24,16.94a11.85,11.85,0,0,1,6,4.74,17.8,17.8,0,0,1,1.1,1.82,13.77,13.77,0,0,1-7.08-6.57m-2.65-2.32s1.23,9.08,12.86,11.82c0,0-2.88-11.21-12.86-11.82h0Z"/><path class="cls-1" d="M35,24.68c-1.34-2.67-3.57-8.65-.11-14C36,12.73,38.14,17.77,35,24.68Z"/><path class="cls-2" d="M34.81,12.65a13.77,13.77,0,0,1,.12,9.65,17.83,17.83,0,0,1-.61-2,11.85,11.85,0,0,1,.49-7.61m0.06-3.53C28.62,16.93,35,26.59,35,26.59c5.77-10.45-.13-17.46-0.13-17.46h0Z"/><path class="cls-3" d="M35.56,27.18a0.75,0.75,0,0,1-.73-0.94c0-.12,3.14-11.75,13.54-12.38a0.75,0.75,0,0,1,.79.85A13.45,13.45,0,0,1,47,19.91c-1.68,2.49-5,5.78-11.24,7.25ZM47.45,15.47c-6.65,1-9.71,7.17-10.74,9.88C44.44,23,46.79,17.66,47.45,15.47Z"/><path class="cls-3" d="M34.44,27.18l-0.17,0C28,25.69,24.71,22.41,23,19.91a13.45,13.45,0,0,1-2.19-5.2,0.75,0.75,0,0,1,.79-0.85C32,14.5,35.14,26.13,35.17,26.24A0.75,0.75,0,0,1,34.44,27.18ZM22.54,15.46c0.63,2.2,2.93,7.55,10.74,9.88C32.25,22.63,29.19,16.43,22.54,15.46Z"/><path class="cls-3" d="M35,27.34A0.75,0.75,0,0,1,34.37,27c-0.07-.1-6.6-10.21-0.09-18.34a0.75,0.75,0,0,1,1.16,0,13.47,13.47,0,0,1,2.38,5.11c0.72,2.92.93,7.58-2.17,13.19a0.75,0.75,0,0,1-.63.39h0ZM34.85,10.41C31.09,16,33.64,22.42,35,25,38.48,17.65,36.06,12.35,34.85,10.41Z"/><path class="cls-4" d="M35,59.77a8.23,8.23,0,0,1-7.68-4.62L19.5,36.6a8.21,8.21,0,0,1,.7-7.7A10.75,10.75,0,0,1,29,24.15H41a10.75,10.75,0,0,1,8.79,4.74,8.21,8.21,0,0,1,.7,7.7L42.68,55.15A8.23,8.23,0,0,1,35,59.77Z"/><path class="cls-2" d="M40.54,25.25H41a9.66,9.66,0,0,1,7.9,4.23,7,7,0,0,1,.61,6.68L41.67,54.72A7.12,7.12,0,0,1,35,58.67a7.12,7.12,0,0,1-6.67-3.95L20.51,36.17a7,7,0,0,1,.61-6.68A9.66,9.66,0,0,1,29,25.25H40.54m0-2.2H28.95c-8,.28-13.22,7.43-10.46,14L26.3,55.58A9.3,9.3,0,0,0,35,60.87a9.3,9.3,0,0,0,8.7-5.29L51.51,37c2.76-6.54-2.48-13.69-10.46-14H40.54Z"/><path class="cls-3" d="M35,61.62a10.09,10.09,0,0,1-9.39-5.75L17.79,37.31a10,10,0,0,1,.85-9.42A12.6,12.6,0,0,1,28.92,22.3H41.08A12.6,12.6,0,0,1,51.36,27.9a10,10,0,0,1,.85,9.42L44.39,55.87A10.09,10.09,0,0,1,35,61.62ZM29.46,23.8H29a11.1,11.1,0,0,0-9.07,4.9,8.56,8.56,0,0,0-.73,8L27,55.29a8.58,8.58,0,0,0,8,4.84,8.58,8.58,0,0,0,8-4.84l7.82-18.55a8.56,8.56,0,0,0-.73-8A11.1,11.1,0,0,0,41,23.8H29.46Z"/><circle class="cls-3" cx="24.55" cy="30.71" r="0.61"/><circle class="cls-3" cx="28.73" cy="30.71" r="0.61"/><circle class="cls-3" cx="32.91" cy="30.71" r="0.61"/><circle class="cls-3" cx="37.09" cy="30.71" r="0.61"/><circle class="cls-3" cx="41.27" cy="30.71" r="0.61"/><circle class="cls-3" cx="24.55" cy="30.71" r="0.61"/><circle class="cls-3" cx="28.73" cy="30.71" r="0.61"/><circle class="cls-3" cx="32.91" cy="30.71" r="0.61"/><circle class="cls-3" cx="37.09" cy="30.71" r="0.61"/><circle class="cls-3" cx="41.27" cy="30.71" r="0.61"/><circle class="cls-3" cx="45.45" cy="30.71" r="0.61"/><circle class="cls-3" cx="24.55" cy="30.71" r="0.61"/><circle class="cls-3" cx="28.73" cy="30.71" r="0.61"/><circle class="cls-3" cx="32.91" cy="30.71" r="0.61"/><circle class="cls-3" cx="37.09" cy="30.71" r="0.61"/><circle class="cls-3" cx="41.27" cy="30.71" r="0.61"/><circle class="cls-3" cx="45.45" cy="30.71" r="0.61"/><circle class="cls-3" cx="24.55" cy="30.71" r="0.61"/><circle class="cls-3" cx="28.73" cy="30.71" r="0.61"/><circle class="cls-3" cx="32.91" cy="30.71" r="0.61"/><circle class="cls-3" cx="37.09" cy="30.71" r="0.61"/><circle class="cls-3" cx="41.27" cy="30.71" r="0.61"/><circle class="cls-3" cx="45.45" cy="30.71" r="0.61"/><circle class="cls-3" cx="28.73" cy="30.71" r="0.61"/><circle class="cls-3" cx="32.91" cy="30.71" r="0.61"/><circle class="cls-3" cx="37.09" cy="30.71" r="0.61"/><circle class="cls-3" cx="41.27" cy="30.71" r="0.61"/><circle class="cls-3" cx="45.45" cy="30.71" r="0.61"/><circle class="cls-3" cx="27.05" cy="36.58" r="0.61"/><circle class="cls-3" cx="31.23" cy="36.58" r="0.61"/><circle class="cls-3" cx="35.41" cy="36.58" r="0.61"/><circle class="cls-3" cx="39.59" cy="36.58" r="0.61"/><circle class="cls-3" cx="43.77" cy="36.58" r="0.61"/><circle class="cls-3" cx="27.05" cy="36.58" r="0.61"/><circle class="cls-3" cx="31.23" cy="36.58" r="0.61"/><circle class="cls-3" cx="35.41" cy="36.58" r="0.61"/><circle class="cls-3" cx="39.59" cy="36.58" r="0.61"/><circle class="cls-3" cx="43.77" cy="36.58" r="0.61"/><circle class="cls-3" cx="27.05" cy="36.58" r="0.61"/><circle class="cls-3" cx="31.23" cy="36.58" r="0.61"/><circle class="cls-3" cx="35.41" cy="36.58" r="0.61"/><circle class="cls-3" cx="39.59" cy="36.58" r="0.61"/><circle class="cls-3" cx="43.77" cy="36.58" r="0.61"/><circle class="cls-3" cx="27.05" cy="36.58" r="0.61"/><circle class="cls-3" cx="31.23" cy="36.58" r="0.61"/><circle class="cls-3" cx="35.41" cy="36.58" r="0.61"/><circle class="cls-3" cx="39.59" cy="36.58" r="0.61"/><circle class="cls-3" cx="43.77" cy="36.58" r="0.61"/><circle class="cls-3" cx="31.23" cy="36.58" r="0.61"/><circle class="cls-3" cx="35.41" cy="36.58" r="0.61"/><circle class="cls-3" cx="39.59" cy="36.58" r="0.61"/><circle class="cls-3" cx="43.77" cy="36.58" r="0.61"/><circle class="cls-3" cx="28.73" cy="42.45" r="0.61"/><circle class="cls-3" cx="32.91" cy="42.45" r="0.61"/><circle class="cls-3" cx="37.09" cy="42.45" r="0.61"/><circle class="cls-3" cx="41.27" cy="42.45" r="0.61"/><circle class="cls-3" cx="28.73" cy="42.45" r="0.61"/><circle class="cls-3" cx="32.91" cy="42.45" r="0.61"/><circle class="cls-3" cx="37.09" cy="42.45" r="0.61"/><circle class="cls-3" cx="41.27" cy="42.45" r="0.61"/><circle class="cls-3" cx="28.73" cy="42.45" r="0.61"/><circle class="cls-3" cx="32.91" cy="42.45" r="0.61"/><circle class="cls-3" cx="37.09" cy="42.45" r="0.61"/><circle class="cls-3" cx="41.27" cy="42.45" r="0.61"/><circle class="cls-3" cx="28.73" cy="42.45" r="0.61"/><circle class="cls-3" cx="32.91" cy="42.45" r="0.61"/><circle class="cls-3" cx="37.09" cy="42.45" r="0.61"/><circle class="cls-3" cx="41.27" cy="42.45" r="0.61"/><circle class="cls-3" cx="28.73" cy="42.45" r="0.61"/><circle class="cls-3" cx="32.91" cy="42.45" r="0.61"/><circle class="cls-3" cx="37.09" cy="42.45" r="0.61"/><circle class="cls-3" cx="41.27" cy="42.45" r="0.61"/><circle class="cls-3" cx="30.73" cy="48.32" r="0.61"/><circle class="cls-3" cx="34.91" cy="48.32" r="0.61"/><circle class="cls-3" cx="39.09" cy="48.32" r="0.61"/><circle class="cls-3" cx="30.73" cy="48.32" r="0.61"/><circle class="cls-3" cx="34.91" cy="48.32" r="0.61"/><circle class="cls-3" cx="39.09" cy="48.32" r="0.61"/><circle class="cls-3" cx="30.73" cy="48.32" r="0.61"/><circle class="cls-3" cx="34.91" cy="48.32" r="0.61"/><circle class="cls-3" cx="39.09" cy="48.32" r="0.61"/><circle class="cls-3" cx="30.73" cy="48.32" r="0.61"/><circle class="cls-3" cx="34.91" cy="48.32" r="0.61"/><circle class="cls-3" cx="39.09" cy="48.32" r="0.61"/><circle class="cls-3" cx="30.73" cy="48.32" r="0.61"/><circle class="cls-3" cx="34.91" cy="48.32" r="0.61"/><circle class="cls-3" cx="39.09" cy="48.32" r="0.61"/><circle class="cls-3" cx="32.91" cy="54.19" r="0.61"/><circle class="cls-3" cx="37.09" cy="54.19" r="0.61"/><circle class="cls-3" cx="32.91" cy="54.19" r="0.61"/><circle class="cls-3" cx="37.09" cy="54.19" r="0.61"/><circle class="cls-3" cx="32.91" cy="54.19" r="0.61"/><circle class="cls-3" cx="37.09" cy="54.19" r="0.61"/><circle class="cls-3" cx="32.91" cy="54.19" r="0.61"/><circle class="cls-3" cx="37.09" cy="54.19" r="0.61"/><circle class="cls-3" cx="32.91" cy="54.19" r="0.61"/><circle class="cls-3" cx="37.09" cy="54.19" r="0.61"/></svg>