<svg xmlns="http://www.w3.org/2000/svg" viewBox="0 0 70 70"><defs><style>.cls-1{isolation:isolate;}.cls-2{mix-blend-mode:multiply;}.cls-3{fill:#78c144;}.cls-4{fill:#fff;}.cls-5{fill:#231f20;}</style></defs><g class="cls-1"><g id="Layer_1" data-name="Layer 1"><g class="cls-2"><path class="cls-3" d="M36.48,55.28c-0.15-1.23-.28-2.71-0.36-4.4a61.49,61.49,0,0,1,.34-9.62c0.09-.82.21-1.69,0.37-2.67s0.32-1.89.51-2.72a51.53,51.53,0,0,1,1.48-5.48A42.1,42.1,0,0,1,41,25.13c0.4-.83.84-1.66,1.32-2.47s1-1.58,1.48-2.31a29.07,29.07,0,0,1,3.34-4,24.9,24.9,0,0,1,3.57-2.92c0.51-.34,1-0.67,1.74-1.07l0.36-.18c0.43-.22.84-0.43,1.25-0.6l0.58-.25-0.5.38a28.53,28.53,0,0,0-2.84,2.48,32.06,32.06,0,0,0-2.9,3.3,37.69,37.69,0,0,0-2.7,4l-0.16.28c-0.36.65-.72,1.3-1.06,2l0,0.09c-0.18.36-.36,0.72-0.52,1.1s-0.36.78-.54,1.19c-0.75,1.73-1.39,3.42-1.92,5s-1,3.18-1.53,5.19c-0.11.44-.22,0.87-0.32,1.3s-0.19.76-.28,1.15l0,0.14c-0.15.66-.29,1.32-0.43,2l-0.12.58c-0.59,2.84-1.1,5.8-1.61,9.32C36.85,52.53,36.65,54,36.48,55.28Z"/><path class="cls-4" d="M48.65,16q-0.45.54-.88,1.1A38.52,38.52,0,0,0,45,21.23l-0.17.31c-0.35.63-.72,1.29-1.06,2l0,0c-0.19.38-.38,0.76-0.55,1.15s-0.38.81-.56,1.22c-0.75,1.74-1.41,3.46-1.94,5.09s-1,3.22-1.55,5.26c-0.11.44-.22,0.88-0.32,1.29s-0.19.76-.28,1.13l0,0.19c-0.15.66-.29,1.32-0.43,2L38,41.46c-0.41,2-.78,4-1.14,6.23a60.63,60.63,0,0,1,.39-6.35c0.09-.8.2-1.66,0.36-2.63s0.32-1.87.5-2.69a50.22,50.22,0,0,1,1.45-5.38,41.58,41.58,0,0,1,2.12-5.2c0.38-.8.81-1.6,1.29-2.41s0.94-1.53,1.44-2.25a28.42,28.42,0,0,1,3.25-3.85q0.5-.49,1-1m10.5-6.63-0.67.11C58,9.53,57.4,9.66,56.59,9.88a21.76,21.76,0,0,0-2.85,1c-0.55.23-1.1,0.53-1.69,0.83s-1.18.69-1.79,1.1a25.78,25.78,0,0,0-3.68,3,30,30,0,0,0-3.43,4.06c-0.53.75-1,1.54-1.51,2.36s-0.94,1.65-1.35,2.52a43.2,43.2,0,0,0-2.19,5.37,51.7,51.7,0,0,0-1.5,5.55c-0.2.92-.37,1.85-0.51,2.76s-0.28,1.81-.37,2.7a62.41,62.41,0,0,0-.34,9.73,54.85,54.85,0,0,0,.71,6.83c0.14,0.82.28,1.45,0.37,1.89s0.16,0.66.16,0.66l0.31-2.57c0.2-1.63.49-3.94,0.89-6.68s0.92-5.92,1.6-9.27c0.18-.84.36-1.68,0.55-2.54,0.1-.43.2-0.86,0.31-1.28s0.21-.86.32-1.29c0.45-1.72.94-3.45,1.52-5.15s1.2-3.37,1.9-5c0.17-.4.35-0.8,0.54-1.19s0.37-.78.56-1.16c0.38-.77.79-1.5,1.19-2.23A37,37,0,0,1,49,18a31.28,31.28,0,0,1,2.84-3.23,27.65,27.65,0,0,1,2.77-2.43c0.87-.69,1.69-1.22,2.37-1.67s1.24-.77,1.63-1l0.59-.34h0Z"/><path class="cls-5" d="M36.62,60.88A0.6,0.6,0,0,1,36,60.45s-0.07-.24-0.17-0.7l-0.06-.26c-0.09-.42-0.21-1-0.33-1.67a55.2,55.2,0,0,1-.71-6.9,62.76,62.76,0,0,1,.35-9.83c0.09-.83.21-1.73,0.38-2.73s0.33-1.94.52-2.79A52.69,52.69,0,0,1,37.53,30a43.49,43.49,0,0,1,2.22-5.45c0.4-.84.87-1.71,1.37-2.56s1-1.63,1.54-2.4a30.42,30.42,0,0,1,3.5-4.14,26.31,26.31,0,0,1,3.76-3.08c0.54-.36,1.13-0.72,1.83-1.12l0.39-.2c0.47-.24.92-0.48,1.37-0.66a22.21,22.21,0,0,1,2.91-1.06c0.92-.25,1.57-0.38,2-0.44l0.67-.11a0.6,0.6,0,0,1,.4,1.11l-0.59.34c-0.28.15-.62,0.35-1,0.6l-0.7.43c-0.66.44-1.41,0.93-2.21,1.56a27.2,27.2,0,0,0-2.72,2.38,30.7,30.7,0,0,0-2.78,3.17,36.51,36.51,0,0,0-2.6,3.91l-0.16.29c-0.34.62-.69,1.25-1,1.9l0,0.09c-0.17.34-.34,0.69-0.5,1s-0.37.79-.54,1.18c-0.73,1.68-1.36,3.34-1.87,4.92s-1,3.13-1.51,5.12c-0.11.43-.21,0.85-0.32,1.28s-0.19.76-.28,1.14l0,0.14c-0.15.66-.29,1.32-0.43,2L40,41.89c-0.58,2.81-1.09,5.74-1.6,9.23-0.39,2.67-.68,5-0.89,6.67l-0.31,2.57a0.6,0.6,0,0,1-.55.53h0Zm19-50.07C55.12,11,54.57,11.2,54,11.47s-0.85.4-1.29,0.62l-0.38.19c-0.66.37-1.21,0.71-1.73,1.06A25.11,25.11,0,0,0,47,16.28a29.25,29.25,0,0,0-3.36,4c-0.52.74-1,1.51-1.48,2.31s-0.93,1.66-1.33,2.48a42.43,42.43,0,0,0-2.16,5.3,51.62,51.62,0,0,0-1.48,5.48c-0.18.83-.35,1.72-0.51,2.73s-0.28,1.86-.37,2.67A61.48,61.48,0,0,0,36,50.88c0.1,2.26.31,4.15,0.51,5.56,0.19-1.53.44-3.4,0.75-5.5,0.51-3.51,1-6.46,1.61-9.3L39,41.09c0.14-.66.28-1.32,0.44-2l0-.14c0.09-.39.18-0.77,0.28-1.16s0.21-.86.32-1.29c0.53-2,1-3.67,1.53-5.19s1.17-3.3,1.91-5c0.18-.41.36-0.82,0.55-1.21s0.33-.71.51-1.08l0-.09c0.33-.67.69-1.31,1-1.95l0.17-.3a37.67,37.67,0,0,1,2.7-4,32,32,0,0,1,2.89-3.29,28.29,28.29,0,0,1,2.83-2.47C54.7,11.47,55.18,11.12,55.63,10.82Z"/><path class="cls-3" d="M31.37,57.2c-0.05-.65-0.13-1.41-0.24-2.24s-0.22-1.58-.4-2.46c-0.05-.29-0.12-0.6-0.19-0.91l-0.08-.38c-0.06-.21-0.1-0.4-0.14-0.58s-0.13-.53-0.21-0.8c-0.24-.91-0.57-1.85-0.88-2.73A29.47,29.47,0,0,0,28,44.34l-0.31-.64L27.36,43c-0.2-.38-0.43-0.75-0.66-1.12l-0.27-.46-0.22-.33-0.39-.58c-0.15-.23-0.31-0.45-0.48-0.67S25.1,39.55,25,39.39c-0.52-.68-1.12-1.44-1.75-2.15l-0.13-.15-0.29-.33L22.1,36c-0.19-.2-0.37-0.4-0.56-0.58L21,34.85c-0.33-.34-0.65-0.66-1-0.93l-0.09-.09,0.14,0.06a17,17,0,0,1,1.63.86L22,34.91c0.22,0.12.43,0.27,0.64,0.41L23.55,36l0.52,0.41a20.71,20.71,0,0,1,2.14,1.94,19.91,19.91,0,0,1,2,2.4L28.4,41A11.18,11.18,0,0,1,29,42l0.43,0.74,0.36,0.72a21.18,21.18,0,0,1,1.19,3l0.07,0.25c0.12,0.42.24,0.83,0.32,1.25l0.17,0.79,0.12,0.74a19.75,19.75,0,0,1,.22,2.87A20.57,20.57,0,0,1,31.78,55,18.85,18.85,0,0,1,31.37,57.2Z"/><path class="cls-4" d="M23.66,36.81l0,0a19.89,19.89,0,0,1,2.07,1.87A19.45,19.45,0,0,1,27.68,41l0.21,0.31a10.92,10.92,0,0,1,.64,1L28.94,43l0.36,0.7a20.46,20.46,0,0,1,1.15,2.89l0.08,0.28c0.12,0.42.23,0.81,0.31,1.21L31,48.74l0,0.13,0.08,0.48,0,0.25a19.24,19.24,0,0,1,.22,2.78c-0.06-.31-0.12-0.62-0.19-0.94l-0.08-.38L31,51c0-.17-0.09-0.35-0.13-0.52s-0.13-.56-0.21-0.79c-0.25-1-.58-1.91-0.91-2.84a29.73,29.73,0,0,0-1.2-2.76l-0.32-.66,0-.06-0.34-.62c-0.21-.4-0.44-0.78-0.66-1.14l-0.1-.17-0.19-.31,0-.06-0.19-.28-0.16-.25-0.22-.34C26.17,40,26,39.74,25.82,39.5s-0.23-.3-0.33-0.45l0-.06c-0.51-.67-1.13-1.45-1.75-2.14l0,0m-6.32-4.58,0.28,0.27c0.19,0.17.45,0.43,0.79,0.73s0.74,0.7,1.21,1.13,1,0.94,1.51,1.47c0.28,0.26.54,0.57,0.82,0.86l0.43,0.45,0.42,0.48c0.58,0.64,1.14,1.35,1.7,2.08,0.26,0.38.57,0.74,0.82,1.14l0.39,0.6,0.2,0.3,0.19,0.31c0.25,0.41.5,0.82,0.73,1.25L27.19,44l0.32,0.66a28.73,28.73,0,0,1,1.16,2.67C29,48.2,29.3,49.1,29.54,50c0.14,0.44.22,0.89,0.34,1.33s0.19,0.87.27,1.29c0.17,0.85.29,1.66,0.39,2.41,0.19,1.51.29,2.81,0.33,3.73,0,0.46,0,.82,0,1.07s0,0.39,0,.39a9.67,9.67,0,0,0,.58-1.36A18.11,18.11,0,0,0,32.38,55a20.77,20.77,0,0,0,.15-2.64,20.32,20.32,0,0,0-.23-3l-0.12-.77L32,47.87c-0.1-.53-0.26-1-0.41-1.57a21.66,21.66,0,0,0-1.22-3.09L30,42.47l-0.42-.72a16.49,16.49,0,0,0-.9-1.39,20.74,20.74,0,0,0-2-2.47,21.12,21.12,0,0,0-2.21-2l-0.55-.43-0.55-.38c-0.37-.24-0.71-0.5-1.07-0.69a20.73,20.73,0,0,0-2-1,16.07,16.07,0,0,0-1.57-.66c-0.44-.16-0.8-0.27-1-0.35l-0.37-.11h0Z"/><path class="cls-5" d="M30.91,60.82l-0.15,0a0.6,0.6,0,0,1-.45-0.57V59.84c0-.21,0-0.5,0-0.85V58.79c0-.81-0.12-2.1-0.32-3.68-0.1-.71-0.21-1.53-0.39-2.37-0.06-.31-0.12-0.6-0.18-0.9l-0.08-.39c0-.16-0.09-0.35-0.14-0.55S29,50.41,29,50.17c-0.24-.91-0.56-1.82-0.86-2.68s-0.69-1.75-1.13-2.6l-0.67-1.28c-0.2-.38-0.42-0.73-0.63-1.09L24.82,41.2c-0.14-.22-0.29-0.42-0.44-0.61s-0.26-.35-0.38-0.52c-0.47-.61-1-1.35-1.65-2l-0.15-.17-0.27-.31-0.72-.76c-0.17-.18-0.33-0.36-0.5-0.52l-0.59-.59c-0.31-.31-0.61-0.61-0.9-0.87l-0.52-.49c-0.25-.24-0.47-0.45-0.68-0.63l-0.6-.55-0.5-.48a0.6,0.6,0,0,1,.59-1l0.61,0.19L19,32.13a13.88,13.88,0,0,1,1.41.58l0.2,0.09a18,18,0,0,1,1.74.92l0.26,0.15a8.61,8.61,0,0,1,.73.46l0.37,0.25L24.23,35l0.37,0.29,0.21,0.16a21.71,21.71,0,0,1,2.27,2A21.19,21.19,0,0,1,29.17,40l0.21,0.31a12.46,12.46,0,0,1,.72,1.14l0.8,1.48a22.24,22.24,0,0,1,1.26,3.18l0.08,0.29c0.13,0.45.26,0.9,0.35,1.35l0.29,1.57a20.79,20.79,0,0,1,.24,3.05A21.69,21.69,0,0,1,33,55.1a18.62,18.62,0,0,1-.91,4,10.24,10.24,0,0,1-.63,1.46A0.6,0.6,0,0,1,30.91,60.82Zm-11-27,0.1,0.1c0.3,0.26.61,0.58,0.94,0.91l0.57,0.57c0.18,0.18.37,0.37,0.55,0.58l0.71,0.75,0.31,0.35,0.13,0.15c0.62,0.69,1.22,1.45,1.72,2.11,0.13,0.19.25,0.35,0.37,0.5s0.33,0.44.48,0.68l0.88,1.36c0.23,0.37.45,0.75,0.66,1.14l0.68,1.32a29.44,29.44,0,0,1,1.18,2.71c0.32,0.9.64,1.84,0.89,2.77,0.08,0.24.14,0.51,0.2,0.78s0.09,0.37.14,0.54l0.09,0.42c0.07,0.31.14,0.62,0.19,0.93,0.18,0.87.29,1.7,0.4,2.44s0.18,1.6.24,2.25A19,19,0,0,0,31.78,55a20.54,20.54,0,0,0,.14-2.56,19.85,19.85,0,0,0-.22-2.88L31.42,48c-0.08-.43-0.2-0.84-0.32-1.26L31,46.47a21.1,21.1,0,0,0-1.18-3L29.06,42a11.38,11.38,0,0,0-.66-1l-0.21-.31a19.84,19.84,0,0,0-2-2.39,20.51,20.51,0,0,0-2.14-1.93l-0.22-.17-0.32-.25L23,35.58l-0.38-.25C22.4,35.18,22.2,35,22,34.91l-0.27-.15a17.32,17.32,0,0,0-1.63-.86Z"/><path class="cls-3" d="M37.92,57.51c0.26-1.15.46-2.27,0.61-3.4a27.61,27.61,0,0,0,.12-6.37A23.46,23.46,0,0,0,38,44.29C38,44,37.88,43.75,37.79,43.47s-0.19-.61-0.29-0.9l-0.14-.41L37,41.36c0-.08-0.08-0.18-0.13-0.29l-0.28-.62L36,38.86c-0.1-.24-0.2-0.47-0.29-0.71l-0.29-1-0.29-1C35,36,35,35.81,35,35.58l-0.25-1.3c0-.18,0-0.38-0.06-0.59l-0.12-1.31c0-.2,0-0.43,0-0.65V30.56c0-.26,0-0.55.08-0.84l0-.31c0-.18,0-0.37.06-0.54l0-.14c0-.23.08-0.45,0.12-0.67a14.16,14.16,0,0,1,.36-1.52A16.71,16.71,0,0,1,36.12,24q0.17-.37.35-0.72c0,0.25-.08.52-0.11,0.8s0,0.31-.05.46-0.07.53-.08,0.81c0,0.13,0,.27,0,0.41,0,0.31-.05.63,0,1,0,0.16,0,.68,0,0.68a5.12,5.12,0,0,0,0,.52l0,1c0,0.19,0,.37,0,0.56l0,0.25c0,0.26,0,.52.06,0.78l0.24,1.66,0.25,1.16c0,0.18.08,0.36,0.12,0.54L37.21,35c0,0.18.1,0.37,0.16,0.55l0.32,0.85L38,37.26c0.08,0.19.15,0.34,0.22,0.5l0.74,1.65L39.21,40c0,0.09.08,0.17,0.12,0.28l0.4,1,0.15,0.47c0.11,0.32.21,0.64,0.28,1l0,0.18c0.07,0.27.14,0.54,0.19,0.81a18.18,18.18,0,0,1,.38,3.93,19,19,0,0,1-.39,3.62,19.71,19.71,0,0,1-.91,3.09A19,19,0,0,1,37.92,57.51Z"/><path class="cls-4" d="M35.52,27.69c0,0.09,0,.18,0,0.27s0,0.15,0,.26,0,0.38,0,.58V29c0,0.18,0,.37,0,0.55l0,0.29c0,0.25,0,.5.06,0.75,0,0,0,.07,0,0.1l0.12,0.8,0.12,0.81v0.08L36,32.73l0.1,0.45,0.06,0.29c0,0.19.08,0.37,0.12,0.56v0.05l0.11,0.37,0.13,0.45,0.08,0.3c0.05,0.19.1,0.37,0.16,0.56l0,0.06L37,36.21l0.16,0.42,0.3,0.83,0,0.07L37.65,38l0.17,0.36,0.36,0.81,0.1,0.23,0.12,0.26,0.2,0.43,0.07,0.15,0.11,0.26L39,41l0.19,0.48L39.31,42c0.1,0.3.2,0.61,0.27,0.93l0,0.18c0.07,0.27.13,0.52,0.18,0.79a17.51,17.51,0,0,1,.36,3.79,18.42,18.42,0,0,1-.38,3.5,19.07,19.07,0,0,1-.56,2.11,27.56,27.56,0,0,0,0-5.59,23.85,23.85,0,0,0-.64-3.51c-0.07-.28-0.15-0.56-0.23-0.84l0-.06c-0.09-.31-0.19-0.61-0.29-0.9L37.92,42l0-.06-0.15-.38-0.15-.37c0-.1-0.09-0.22-0.15-0.35l-0.07-.15-0.19-.43L37,39.82l-0.24-.56-0.17-.4-0.1-.24c-0.09-.22-0.18-0.43-0.26-0.65l-0.1-.32L35.95,37l-0.13-.45-0.15-.5c0-.2-0.09-0.41-0.13-0.61l-0.06-.31-0.18-.94c0-.19,0-0.39-0.06-0.58s0-.24,0-0.34l-0.06-.7,0-.24c0-.22,0-0.44,0-0.66V30.61c0-.28,0-0.56.07-0.83l0-.32c0-.17,0-0.34.05-0.48l0-.14c0-.23.08-0.45,0.13-0.71s0.06-.31.09-0.46m2.18-7.25s-0.12.12-.32,0.36a12,12,0,0,0-.79,1.11,16,16,0,0,0-1,1.87,17.49,17.49,0,0,0-1,2.61,14.83,14.83,0,0,0-.37,1.56c-0.05.27-.1,0.55-0.15,0.84S34,29.36,34,29.66s-0.06.6-.08,0.9v0.93c0,0.31,0,.63,0,1l0.09,1c0,0.33.05,0.66,0.1,1l0.19,1c0.07,0.33.13,0.67,0.2,1l0.29,1,0.31,1c0.12,0.32.26,0.64,0.39,1l0.41,1,0.18,0.42,0.2,0.44c0.06,0.14.14,0.3,0.19,0.43L36.63,42l0.16,0.39,0.14,0.41c0.1,0.28.19,0.55,0.27,0.83s0.17,0.56.24,0.84a22.81,22.81,0,0,1,.61,3.36A27.06,27.06,0,0,1,37.94,54,36.33,36.33,0,0,1,37,58.55c-0.29,1.1-.5,1.73-0.5,1.73a10.51,10.51,0,0,0,1.18-1.41A19,19,0,0,0,40,54.58,20.38,20.38,0,0,0,41,51.4a19.61,19.61,0,0,0,.4-3.73,18.73,18.73,0,0,0-.38-4c-0.06-.34-0.15-0.68-0.24-1s-0.19-.68-0.3-1l-0.16-.5-0.2-.52-0.2-.51c-0.07-.17-0.13-0.3-0.2-0.46l-0.2-.44-0.12-.26-0.09-.21-0.36-.82c-0.12-.27-0.25-0.54-0.37-0.81l-0.3-.83-0.31-.82c-0.09-.28-0.16-0.56-0.24-0.83l-0.24-.83c-0.07-.28-0.12-0.55-0.18-0.83l-0.18-.82L37,31.29l-0.12-.8c0-.27,0-0.53-0.06-0.79s-0.05-.52-0.06-0.77,0-.5,0-0.75,0-.49,0-0.73,0-.48,0-0.71c0-.47.05-0.91,0.08-1.34s0.1-.83.13-1.22c0.1-.77.22-1.44,0.33-2l0.16-.74,0.13-.55,0.09-.34,0-.12h0Z"/><path class="cls-4" d="M37.95,20.44l0,0.12-0.09.34-0.13.55-0.16.74c-0.11.56-.23,1.23-0.33,2,0,0.39-.11.78-0.13,1.22S37,26.26,37,26.73c0,0.23,0,.47,0,0.71s0,0.49,0,.73,0,0.5,0,.75,0,0.51.06,0.77,0,0.52.06,0.79l0.12,0.8,0.12,0.81,0.18,0.82c0.06,0.27.11,0.55,0.18,0.83L38,34.57c0.08,0.28.15,0.56,0.24,0.83l0.31,0.82,0.3,0.83c0.12,0.27.25,0.54,0.37,0.81l0.36,0.82,0.09,0.21,0.12,0.26,0.2,0.44c0.07,0.15.13,0.28,0.2,0.46l0.2,0.51,0.2,0.52,0.16,0.5c0.11,0.33.22,0.67,0.3,1s0.18,0.68.24,1a18.77,18.77,0,0,1,.38,4,19.65,19.65,0,0,1-.4,3.73,20.32,20.32,0,0,1-.94,3.18A19,19,0,0,1,38,58.88a10.51,10.51,0,0,1-1.18,1.41s0.21-.63.5-1.73A36.43,36.43,0,0,0,38.19,54a27.06,27.06,0,0,0,.12-6.23,22.81,22.81,0,0,0-.61-3.36c-0.07-.28-0.15-0.56-0.24-0.84s-0.18-.56-0.27-0.83L37,42.36,36.88,42l-0.15-.39c0-.13-0.13-0.29-0.19-0.43l-0.2-.44-0.18-.42-0.41-1c-0.13-.32-0.27-0.64-0.39-1l-0.31-1-0.29-1c-0.08-.33-0.14-0.67-0.21-1l-0.19-1c0-.33-0.07-0.66-0.1-1l-0.09-1c0-.32,0-0.64,0-1s0-.62,0-0.93,0-.61.08-0.9,0.05-.59.09-0.87,0.1-.56.15-0.84a14.71,14.71,0,0,1,.37-1.56,17.49,17.49,0,0,1,1-2.61,15.94,15.94,0,0,1,1-1.87,12.07,12.07,0,0,1,.79-1.11c0.2-.24.32-0.36,0.32-0.36m0-.69a0.69,0.69,0,0,0-.49.2s-0.13.13-.36,0.4a12.78,12.78,0,0,0-.84,1.18,16.66,16.66,0,0,0-1.06,2,18,18,0,0,0-1,2.72,15.36,15.36,0,0,0-.38,1.63c0,0.22-.08.46-0.12,0.7l0,0.13c0,0.21-.05.41-0.07,0.61l0,0.3c0,0.31-.06.61-0.08,0.93v1.21c0,0.25,0,.51,0,0.76l0,0.48,0,0.52c0,0.12,0,.23,0,0.34s0,0.46.08,0.69l0,0.14,0.17,0.87,0.07,0.34c0,0.23.09,0.46,0.14,0.69l0,0.14,0.27,0.89,0.06,0.21,0.24,0.79c0.11,0.3.22,0.56,0.33,0.81l0.09,0.21,0.22,0.52,0.19,0.45L35.7,41l0.2,0.45L36,41.61c0,0.07.07,0.15,0.09,0.21l0.16,0.4,0.16,0.39L36.53,43c0.09,0.27.19,0.53,0.26,0.79l0,0.08c0.07,0.24.15,0.48,0.21,0.73a22.21,22.21,0,0,1,.6,3.28,26.26,26.26,0,0,1-.12,6.07,35.5,35.5,0,0,1-.87,4.43c-0.28,1.06-.49,1.68-0.49,1.69a0.69,0.69,0,0,0,1.13.72,11.12,11.12,0,0,0,1.27-1.51,19.78,19.78,0,0,0,2.4-4.45,21.09,21.09,0,0,0,1-3.29,20.38,20.38,0,0,0,.42-3.87,19.43,19.43,0,0,0-.4-4.19c-0.05-.29-0.13-0.59-0.2-0.88l0-.17c-0.09-.37-0.21-0.74-0.31-1.06l-0.16-.5L41,40.32l-0.2-.52c-0.05-.13-0.1-0.24-0.15-0.35l-0.06-.14-0.21-.45-0.12-.26-0.08-.19-0.37-.82-0.17-.38-0.19-.43-0.07-.21L39.15,36l0-.11-0.27-.72-0.13-.46-0.09-.32-0.21-.73,0-.1c0-.14-0.07-0.31-0.1-0.47l-0.07-.31-0.08-.38L38,32l-0.11-.77-0.11-.77c0-.26,0-0.52-0.06-0.78,0-.09,0-0.19,0-0.29s0-.3,0-0.45V28.78c0-.21,0-0.42,0-0.63s0-.17,0-0.27a3.74,3.74,0,0,1,0-.4v-0.2c0-.18,0-0.37,0-0.55s0-.56,0-0.85,0-.31,0-0.46,0-.46.07-0.7,0-.33.06-0.5c0.09-.73.21-1.38,0.32-1.92l0.16-.73,0-.08,0.11-.45,0-.12,0.06-.21,0-.1a0.69,0.69,0,0,0-.66-0.88h0Zm0,1.38h0Z"/><path class="cls-5" d="M36.55,60.88A0.6,0.6,0,0,1,36,60.1s0.21-.63.49-1.7A35.54,35.54,0,0,0,37.34,54a26.38,26.38,0,0,0,.12-6.09,22.36,22.36,0,0,0-.6-3.27c-0.06-.27-0.14-0.52-0.22-0.77s-0.19-.59-0.28-0.85L35.92,41.8c0-.07-0.06-0.15-0.1-0.22l-1-2.24c-0.11-.26-0.21-0.51-0.31-0.77l-0.61-2c-0.06-.27-0.11-0.5-0.16-0.74l-0.25-1.31c0-.25-0.06-0.48-0.08-0.7L33.33,32.5c0-.27,0-0.52,0-0.77V30.56c0-.35.05-0.66,0.08-1l0-.29c0-.2,0-0.41.07-0.6l0-.18c0-.23.08-0.46,0.12-0.68A15.4,15.4,0,0,1,34,26.22a18,18,0,0,1,1-2.7,16.62,16.62,0,0,1,1.05-1.94,12.66,12.66,0,0,1,.83-1.16c0.23-.27.35-0.4,0.35-0.4a0.6,0.6,0,0,1,1,.59l-0.41,1.71c-0.1.53-.22,1.19-0.32,1.94,0,0.14,0,.3-0.05.47s-0.06.45-.07,0.69,0,0.31,0,.47,0,0.55,0,.84,0,0.39,0,.58v0.15a4,4,0,0,0,0,.42v0.28c0,0.19,0,.39,0,0.59v0.16c0,0.14,0,.3,0,0.46l0,0.28c0,0.26,0,.53.06,0.8l0.47,2.66c0,0.17.07,0.33,0.11,0.5l0.32,1.11c0,0.17.09,0.34,0.15,0.51l0.59,1.63,0.18,0.4,1,2.24c0,0.11.1,0.22,0.15,0.35L41,41.41c0.11,0.35.22,0.7,0.31,1.06l0,0.15c0.08,0.3.15,0.6,0.21,0.91A19.07,19.07,0,0,1,42,47.68a20.16,20.16,0,0,1-.41,3.84,21,21,0,0,1-1,3.28,19.68,19.68,0,0,1-2.39,4.43A11,11,0,0,1,37,60.72,0.6,0.6,0,0,1,36.55,60.88ZM36.47,23.3q-0.19.35-.36,0.72a16.8,16.8,0,0,0-.92,2.52,14.67,14.67,0,0,0-.35,1.5c0,0.23-.08.45-0.12,0.67l0,0.17c0,0.16,0,.35-0.06.53l0,0.31c0,0.29-.05.58-0.08,0.89v1.13c0,0.22,0,.45,0,0.68l0.12,1.28c0,0.2,0,.41.07,0.61L35,35.59c0,0.22.09,0.44,0.14,0.66l0.59,1.93c0.08,0.21.18,0.46,0.28,0.7l0.95,2.19c0,0.1.1,0.21,0.13,0.3l0.46,1.2c0.1,0.28.2,0.57,0.28,0.87S38,44,38,44.3a23.48,23.48,0,0,1,.63,3.44,27.56,27.56,0,0,1-.12,6.37c-0.15,1.12-.35,2.24-0.61,3.4a19.07,19.07,0,0,0,1.56-3.14,19.73,19.73,0,0,0,.91-3.09,18.94,18.94,0,0,0,.39-3.62,18.08,18.08,0,0,0-.37-3.92c-0.05-.29-0.12-0.56-0.19-0.83l0-.16c-0.08-.34-0.18-0.66-0.29-1l-0.55-1.5L39.21,40l-1-2.23L38,37.3l-0.61-1.68c-0.07-.21-0.12-0.4-0.17-0.58l-0.32-1.12c-0.05-.21-0.09-0.38-0.12-0.56l-0.24-1.13-0.24-1.65c0-.31,0-0.57-0.06-0.82l0-.27c0-.18,0-0.36,0-0.54V28.77c0-.19,0-0.39,0-0.58V27.93a5.08,5.08,0,0,1,0-.53V27.26c0-.18,0-0.36,0-0.54s0-.63,0-0.94c0-.14,0-0.28,0-0.42s0-.54.08-0.79,0-.29.05-0.44S36.43,23.56,36.47,23.3Z"/><path class="cls-3" d="M32.37,57.62a44,44,0,0,0,.93-4.94,33.7,33.7,0,0,0,.15-7.8,28.72,28.72,0,0,0-.77-4.22c-0.07-.31-0.17-0.64-0.27-1s-0.25-.79-0.37-1.14l-0.18-.5-0.39-1c0-.1-0.1-0.23-0.16-0.36L31,36l-0.22-.51L30.14,34c-0.12-.29-0.24-0.58-0.35-0.87L29.43,32l-0.36-1.2c0-.22-0.1-0.48-0.15-0.74L28.6,28.37c0-.23-0.06-0.48-0.08-0.74L28.38,26c0-.25,0-0.54,0-0.82V23.77c0-.33.06-0.69,0.1-1.05l0-.39c0-.22,0-0.44.07-0.66l0-.14c0-.29.1-0.58,0.15-0.86a17.66,17.66,0,0,1,.44-1.87,20.69,20.69,0,0,1,1.14-3.12c0.25-.55.53-1.09,0.83-1.6-0.1.54-.19,1.13-0.28,1.78,0,0.21,0,.39-0.07.58s-0.08.63-.09,1c0,0.16,0,.34,0,0.52,0,0.37-.06.76-0.06,1.15,0,0.2,0,.42,0,0.64v0.2c0,0.2,0,.41,0,0.63v0.3c0,0.26,0,.52,0,0.77v0.15c0,0.23,0,.44,0,0.65l0,0.34c0,0.32.05,0.64,0.07,1l0.29,2,0.31,1.44c0,0.21.09,0.42,0.14,0.64L32,29.23c0.06,0.22.12,0.44,0.19,0.66l0.39,1,0.36,1c0.09,0.22.18,0.4,0.26,0.58L33.81,34l0.11,0.25,0.48,1.05c0.05,0.11.1,0.22,0.15,0.35L35,36.91l0.19,0.59c0.13,0.4.26,0.79,0.35,1.2l0.06,0.25c0.08,0.32.17,0.65,0.22,1a22.44,22.44,0,0,1,.46,4.86,23.56,23.56,0,0,1-.48,4.48,24.5,24.5,0,0,1-1.12,3.82A23.32,23.32,0,0,1,32.37,57.62Z"/><path class="cls-4" d="M30.1,17.91c0,0.35-.06.74-0.06,1.13,0,0.21,0,.43,0,0.65v0.16a6.63,6.63,0,0,0,0,.7c0,0.1,0,.19,0,0.32s0,0.47,0,.71V21.8c0,0.22,0,.45,0,0.67s0,0.22,0,.34c0,0.31.05,0.62,0.07,0.93,0,0,0,.07,0,0.1L30.3,24.4l0.06,0.42,0.07,0.49,0.07,0.51v0.08l0.12,0.56,0.1,0.45,0.08,0.37c0,0.22.09,0.44,0.15,0.67V28l0.29,1,0.11,0.38c0.06,0.22.12,0.44,0.19,0.67l0,0.06,0.16,0.42L32,31.13l0.37,1,0,0.07,0.26,0.57,0.2,0.45,0.44,1,0.12,0.27,0.15,0.33,0.24,0.52,0.09,0.19c0,0.1.09,0.2,0.14,0.32l0.24,0.63,0.23,0.6,0.19,0.59c0.12,0.37.25,0.76,0.34,1.17l0.06,0.22c0.09,0.33.17,0.64,0.23,1a21.74,21.74,0,0,1,.45,4.72,22.82,22.82,0,0,1-.47,4.35,23.79,23.79,0,0,1-1.09,3.72q-0.21.55-.43,1,0.09-.57.16-1.13A34.28,34.28,0,0,0,34,44.82a29.07,29.07,0,0,0-.78-4.28c-0.08-.36-0.19-0.7-0.29-1l0-.05c-0.11-.38-0.23-0.74-0.36-1.09l-0.18-.51,0-.05-0.19-.47L32,36.88c0-.12-0.11-0.27-0.18-0.41l-0.09-.19-0.24-.53-0.22-.5-0.25-.59-0.25-.58-0.12-.28c-0.12-.28-0.23-0.55-0.34-0.83l-0.16-.52L30,31.79l0-.06-0.33-1.11c-0.06-.25-0.11-0.5-0.16-0.76l-0.08-.39L29.2,28.3c0-.24-0.06-0.49-0.08-0.73s0-.29,0-0.41l0-.38L29,26c0-.27,0-0.55,0-0.82V23.81c0-.35.06-0.7,0.09-1,0-.13,0-0.26,0-0.39s0-.43.07-0.61l0-.16c0-.28.1-0.56,0.16-0.87a17.31,17.31,0,0,1,.42-1.8q0.14-.52.32-1m2.31-6.59s-0.14.14-.39,0.44a14.73,14.73,0,0,0-1,1.36,19.63,19.63,0,0,0-1.25,2.3,21.52,21.52,0,0,0-1.18,3.21,18.33,18.33,0,0,0-.45,1.92c-0.07.34-.12,0.68-0.18,1s-0.08.71-.12,1.07-0.07.73-.1,1.11,0,0.76,0,1.14,0,0.78,0,1.17l0.11,1.19c0,0.4.06,0.81,0.12,1.21l0.23,1.21c0.08,0.41.16,0.82,0.25,1.23l0.36,1.21,0.38,1.22c0.15,0.4.32,0.79,0.48,1.18l0.5,1.18,0.22,0.51,0.24,0.54c0.08,0.18.18,0.37,0.24,0.53l0.19,0.48,0.19,0.48,0.18,0.51c0.12,0.34.24,0.68,0.34,1s0.21,0.68.29,1A28,28,0,0,1,32.85,45a33.23,33.23,0,0,1-.15,7.66,44.6,44.6,0,0,1-1.09,5.55C31.26,59.51,31,60.29,31,60.29a12.92,12.92,0,0,0,1.45-1.73,23.36,23.36,0,0,0,2.84-5.28,25,25,0,0,0,1.15-3.91,24,24,0,0,0,.49-4.59,23,23,0,0,0-.47-5c-0.07-.42-0.19-0.84-0.29-1.25s-0.23-.83-0.36-1.24l-0.2-.62-0.24-.63-0.25-.63c-0.08-.21-0.16-0.37-0.25-0.56l-0.25-.54L34.47,34l-0.11-.25-0.45-1c-0.15-.33-0.31-0.66-0.45-1l-0.37-1-0.38-1c-0.11-.34-0.19-0.68-0.29-1l-0.3-1C32,27.34,32,27,31.91,26.66l-0.22-1-0.14-1-0.15-1c0-.33,0-0.65-0.07-1s-0.06-.64-0.08-0.95,0-.62,0-0.93,0-.61,0-0.9,0-.58,0-0.87c0-.58.07-1.12,0.1-1.65s0.12-1,.16-1.49c0.12-.94.27-1.76,0.4-2.45l0.2-.91,0.16-.67,0.11-.42,0-.14h0Z"/><path class="cls-4" d="M32.41,11.32l0,0.14-0.11.42-0.16.67-0.2.91c-0.13.68-.28,1.51-0.4,2.45,0,0.48-.14,1-0.16,1.49s-0.1,1.07-.1,1.65c0,0.29,0,.58,0,0.87s0,0.6,0,.9,0,0.61,0,.93,0.05,0.63.08,0.95,0.05,0.64.07,1l0.15,1,0.14,1,0.22,1c0.07,0.34.14,0.68,0.22,1l0.3,1c0.1,0.34.19,0.68,0.29,1l0.38,1,0.37,1c0.14,0.33.3,0.66,0.45,1l0.45,1L34.47,34l0.15,0.32,0.25,0.54c0.08,0.19.16,0.35,0.25,0.56l0.25,0.63,0.24,0.63,0.2,0.62c0.14,0.41.27,0.82,0.36,1.24s0.22,0.83.29,1.25a23,23,0,0,1,.47,5,24,24,0,0,1-.49,4.59,25,25,0,0,1-1.15,3.91,23.36,23.36,0,0,1-2.84,5.28A12.92,12.92,0,0,1,31,60.29s0.26-.78.62-2.13a44.6,44.6,0,0,0,1.09-5.55A33.23,33.23,0,0,0,32.85,45a28,28,0,0,0-.75-4.13c-0.08-.35-0.19-0.69-0.29-1s-0.22-.68-0.34-1l-0.18-.51-0.19-.48-0.19-.48c-0.06-.16-0.16-0.35-0.24-0.53l-0.24-.54-0.22-.51-0.5-1.18c-0.16-.39-0.33-0.78-0.48-1.18l-0.38-1.22-0.36-1.21c-0.09-.41-0.17-0.82-0.25-1.23L28,28.48c-0.06-.4-0.08-0.81-0.12-1.21l-0.11-1.19c0-.39,0-0.79,0-1.17s0-.77,0-1.14,0.06-.75.1-1.11,0.06-.72.12-1.07,0.12-.69.18-1a18.33,18.33,0,0,1,.45-1.92,21.52,21.52,0,0,1,1.18-3.21,19.63,19.63,0,0,1,1.25-2.3,14.73,14.73,0,0,1,1-1.36c0.25-.3.39-0.44,0.39-0.44m0-1.2a1.2,1.2,0,0,0-.86.36s-0.17.17-.46,0.52A16,16,0,0,0,30,12.48a21,21,0,0,0-1.32,2.44,22.55,22.55,0,0,0-1.24,3.39,19.35,19.35,0,0,0-.48,2c-0.05.26-.1,0.56-0.15,0.86l0,0.16c0,0.28-.07.53-0.09,0.79l0,0.36c0,0.38-.07.76-0.1,1.15,0,0,0,.06,0,0.08v1.41c0,0.32,0,.64,0,1,0,0,0,0,0,.05L26.66,27l0,0.38c0,0.15,0,.28,0,0.41,0,0.29.05,0.58,0.1,0.88l0.24,1.26,0.08,0.41c0.06,0.29.11,0.58,0.18,0.87l0,0.07,0.34,1.15,0,0.06,0.21,0.68,0.17,0.55,0,0.06c0.12,0.32.25,0.64,0.39,1L28.6,35l0.25,0.6,0.25,0.59,0.23,0.53,0.25,0.56,0.1,0.22c0,0.08.08,0.17,0.11,0.24L30,38.22l0.19,0.46,0.17,0.48c0.12,0.33.23,0.65,0.31,1l0,0.11c0.09,0.29.18,0.58,0.25,0.87a27.11,27.11,0,0,1,.73,4,31.91,31.91,0,0,1-.14,7.37,43,43,0,0,1-1.06,5.4c-0.34,1.28-.59,2-0.59,2.05a1.2,1.2,0,0,0,2,1.26,13.84,13.84,0,0,0,1.6-1.9,24.68,24.68,0,0,0,3-5.55,26.29,26.29,0,0,0,1.2-4.1,25.26,25.26,0,0,0,.52-4.82,24.09,24.09,0,0,0-.5-5.22c-0.06-.36-0.16-0.74-0.25-1.1l-0.05-.21c-0.11-.46-0.26-0.92-0.39-1.32l-0.2-.61,0-.06-0.24-.63L36.23,35c-0.07-.17-0.13-0.31-0.19-0.45L36,34.38l-0.26-.56-0.15-.32-0.1-.23-0.45-1-0.21-.47-0.22-.48-0.35-1L34,29.72l-0.14-.39c-0.06-.19-0.11-0.38-0.16-0.56l-0.11-.41-0.29-1c0-.19-0.08-0.38-0.12-0.57l-0.09-.4L33,26l-0.11-.52L32.81,25l-0.07-.49-0.06-.43-0.08-.51c0-.32,0-0.64-0.07-1,0-.1,0-0.22,0-0.34s0-.36,0-0.54V21.56c0-.26,0-0.52,0-0.77,0-.09,0-0.21,0-0.33a4.37,4.37,0,0,1,0-.45V19.78c0-.24,0-0.48,0-0.71s0-.67.05-1,0-.38,0-0.57,0-.56.08-0.84,0.05-.42.07-0.62c0.11-.87.26-1.67,0.38-2.32l0.19-.88,0.09-.36,0.07-.28,0.05-.2,0.05-.2,0-.12a1.2,1.2,0,0,0-1.15-1.53h0Zm0,2.4h0Z"/><path class="cls-5" d="M31,60.88a0.6,0.6,0,0,1-.57-0.79s0.26-.78.6-2.09a43.65,43.65,0,0,0,1.08-5.47A32.49,32.49,0,0,0,32.26,45a27.51,27.51,0,0,0-.74-4c-0.08-.32-0.17-0.63-0.26-0.93S31,39.29,30.91,39l-0.55-1.45c0-.09-0.08-0.19-0.13-0.29L29,34.47c-0.13-.3-0.25-0.61-0.37-0.92l-0.75-2.46c-0.07-.31-0.13-0.58-0.18-0.85l-0.32-1.65c0-.3-0.07-0.58-0.09-0.86l-0.15-1.6c0-.33,0-0.63,0-0.93V23.76c0-.42.06-0.8,0.1-1.17l0-.37c0-.24,0-0.49.08-0.72l0-.17c0.05-.3.1-0.6,0.16-0.89a18.93,18.93,0,0,1,.46-2,21.93,21.93,0,0,1,1.21-3.3,20.5,20.5,0,0,1,1.29-2.37,15.67,15.67,0,0,1,1-1.42c0.27-.33.43-0.49,0.43-0.49a0.6,0.6,0,0,1,1,.59L32.7,12.62l-0.21,1c-0.13.65-.27,1.46-0.39,2.4,0,0.17,0,.38-0.07.58s-0.07.56-.08,0.86,0,0.39,0,.58-0.06.68-.05,1,0,0.47,0,.7v0.2c0,0.18,0,.36,0,0.53s0,0.23,0,.34,0,0.51,0,.77v0.15c0,0.17,0,.36,0,0.55l0,0.36c0,0.32.05,0.64,0.07,1l0.28,1.94,0.29,1.36c0,0.2.08,0.4,0.13,0.6l0.4,1.38c0.06,0.21.12,0.42,0.18,0.63l0.73,2L34.24,32l0.22,0.48,1,2.28c0.06,0.13.12,0.26,0.18,0.42l0.7,1.92c0.14,0.42.27,0.85,0.38,1.29l0.06,0.22c0.09,0.35.18,0.71,0.24,1.06a23.45,23.45,0,0,1,.48,5.08,24.68,24.68,0,0,1-.51,4.7,25.64,25.64,0,0,1-1.18,4,24.07,24.07,0,0,1-2.92,5.42,13.38,13.38,0,0,1-1.53,1.82A0.6,0.6,0,0,1,31,60.88Zm0.18-46.82c-0.3.51-.58,1.05-0.83,1.6a20.7,20.7,0,0,0-1.14,3.12,17.86,17.86,0,0,0-.44,1.86c-0.06.3-.11,0.58-0.16,0.88l0,0.16c0,0.21-.05.43-0.07,0.65l0,0.39c0,0.36-.07.72-0.1,1.09v1.4c0,0.28,0,.56,0,0.85l0.14,1.58c0,0.25,0,.51.08,0.76L28.92,30c0.05,0.26.1,0.52,0.16,0.78l0.72,2.39c0.1,0.26.22,0.55,0.34,0.83l1.17,2.72c0.06,0.13.12,0.25,0.16,0.36L32,38.57c0.12,0.35.25,0.7,0.35,1.06s0.22,0.72.3,1.05a28.69,28.69,0,0,1,.77,4.21,33.72,33.72,0,0,1-.15,7.8,44.06,44.06,0,0,1-.93,4.94,23.23,23.23,0,0,0,2.36-4.56,24.46,24.46,0,0,0,1.12-3.81,23.54,23.54,0,0,0,.48-4.47,22.38,22.38,0,0,0-.46-4.84c-0.06-.34-0.14-0.67-0.23-1l-0.06-.24c-0.1-.41-0.22-0.81-0.35-1.2l-0.68-1.85c-0.05-.14-0.1-0.25-0.16-0.36l-1-2.3-0.21-.46L32.91,32l-0.75-2.06c-0.08-.25-0.14-0.47-0.2-0.7l-0.4-1.39c-0.06-.24-0.1-0.45-0.15-0.66l-0.3-1.4-0.3-2c0-.37,0-0.69-0.08-1l0-.35c0-.21,0-0.42,0-0.63V21.61c0-.26,0-0.51,0-0.76V20.53a6.38,6.38,0,0,1,0-.64V19.7c0-.22,0-0.44,0-0.65,0-.38,0-0.77.06-1.14,0-.18,0-0.36,0-0.53,0-.33.05-0.65,0.09-1s0-.37.06-0.55C31,15.19,31.09,14.59,31.18,14.06Z"/></g></g></g></svg>