<svg xmlns="http://www.w3.org/2000/svg" viewBox="0 0 70 70"><defs><style>.cls-1{isolation:isolate;}.cls-2{mix-blend-mode:multiply;}.cls-3{fill:#c49a6c;}.cls-4{fill:#fff;}.cls-5{fill:none;stroke:#231f20;stroke-linecap:round;stroke-linejoin:round;stroke-width:1.5px;}</style></defs><g class="cls-1"><g id="Layer_1" data-name="Layer 1"><g class="cls-2"><path class="cls-3" d="M47,47.79a5.07,5.07,0,0,1-1.57-.25c-3.68-1.19-5.32-6.37-3.64-11.54,0.12-.36.25-0.7,0.38-1l0-.1a19.64,19.64,0,0,1,10-11.29,1.57,1.57,0,0,1,.66-0.14,1.63,1.63,0,0,1,1.36.74c1.4,2.14,3.42,6.95,1.18,15.06-0.09.39-.19,0.75-0.31,1.11-1.4,4.32-4.83,7.46-8.15,7.46h0Z"/><path class="cls-4" d="M52.89,24.52a0.53,0.53,0,0,1,.44.24c1.3,2,3.16,6.43,1.06,14.08l0,0.17c-0.08.34-.17,0.67-0.27,1-1.26,3.88-4.25,6.7-7.11,6.7a4,4,0,0,1-1.23-.19c-3.05-1-4.4-5.64-2.93-10.16,0.1-.31.22-0.64,0.35-1l0.06-.16a18.53,18.53,0,0,1,9.47-10.66,0.48,0.48,0,0,1,.2,0m0-2.2a2.68,2.68,0,0,0-1.12.25,20.73,20.73,0,0,0-10.64,12h0c-0.15.36-.29,0.74-0.42,1.12-1.87,5.76.08,11.55,4.35,12.93a6.16,6.16,0,0,0,1.9.3c3.75,0,7.61-3.3,9.2-8.22,0.12-.38.23-0.77,0.32-1.15h0c2.33-8.43.27-13.53-1.32-16a2.73,2.73,0,0,0-2.28-1.24h0Z"/><path class="cls-5" d="M56.49,39.52h0c2.33-8.43.27-13.53-1.32-16a2.71,2.71,0,0,0-3.4-1,20.73,20.73,0,0,0-10.64,12h0c-0.15.36-.29,0.74-0.42,1.12-1.87,5.76.08,11.55,4.35,12.93s9.24-2.16,11.1-7.92C56.29,40.29,56.39,39.9,56.49,39.52Z"/><path class="cls-3" d="M29.1,47.8a12,12,0,0,1-6.9-2.4c-0.3-.22-0.59-0.45-0.87-0.69l-0.08-.07a19.63,19.63,0,0,1-7.67-13,1.6,1.6,0,0,1,1.18-1.74,12.5,12.5,0,0,1,3.32-.43c3.57,0,7.38,1.31,11.32,3.89l0.09,0.06Q30,33.69,30.42,34c4.41,3.18,6.15,8.32,3.88,11.46a6.16,6.16,0,0,1-5.2,2.32h0Z"/><path class="cls-4" d="M18.08,30.55c3.35,0,6.94,1.24,10.69,3.69l0.15,0.1c0.3,0.18.58,0.37,0.85,0.56,3.85,2.78,5.52,7.32,3.64,9.93A5.1,5.1,0,0,1,29.1,46.7a10.91,10.91,0,0,1-6.26-2.19c-0.27-.19-0.54-0.41-0.8-0.63l-0.14-.11a18.53,18.53,0,0,1-7.24-12.28,0.51,0.51,0,0,1,.38-0.55,11.41,11.41,0,0,1,3-.39m0-2.2a13.6,13.6,0,0,0-3.61.47,2.71,2.71,0,0,0-2,2.93,20.73,20.73,0,0,0,8.13,13.8h0q0.45,0.38.94,0.74A13.14,13.14,0,0,0,29.1,48.9a7.27,7.27,0,0,0,6.09-2.78c2.62-3.64.77-9.46-4.13-13-0.33-.24-0.66-0.46-1-0.66h0c-4.9-3.22-9-4.11-12-4.11h0Z"/><path class="cls-5" d="M30.06,32.46h0c-7.31-4.81-12.8-4.41-15.6-3.64a2.71,2.71,0,0,0-2,2.93,20.73,20.73,0,0,0,8.13,13.8h0q0.45,0.38.94,0.74c4.91,3.54,11,3.46,13.64-.17s0.77-9.46-4.13-13Q30.57,32.77,30.06,32.46Z"/><path class="cls-3" d="M35.49,47.67c-3.87,0-7-4.42-7-9.86,0-.37,0-0.75,0-1.11a19.67,19.67,0,0,1,6.08-13.95,1.58,1.58,0,0,1,1.08-.42,1.64,1.64,0,0,1,1,.36c2,1.6,5.4,5.55,5.77,14,0,0.4,0,.77,0,1.15C42.51,43.25,39.36,47.67,35.49,47.67Z"/><path class="cls-4" d="M35.67,23.43a0.53,0.53,0,0,1,.34.12c1.84,1.48,5,5.14,5.35,13.06q0,0.09,0,.17c0,0.35,0,.69,0,1,0,4.75-2.71,8.76-5.92,8.76s-5.92-4-5.92-8.76c0-.33,0-0.67,0-1q0-.09,0-0.17a18.53,18.53,0,0,1,5.72-13.05,0.48,0.48,0,0,1,.33-0.13m0-2.2a2.68,2.68,0,0,0-1.82.71,20.73,20.73,0,0,0-6.43,14.67h0c0,0.39,0,.79,0,1.2,0,6.05,3.64,11,8.12,11s8.12-4.91,8.12-11c0-.4,0-0.8,0-1.2h0c-0.38-8.74-3.91-13-6.18-14.78a2.73,2.73,0,0,0-1.71-.6h0Z"/><path class="cls-4" d="M35.67,21.23a2.73,2.73,0,0,1,1.71.6c2.26,1.82,5.8,6,6.18,14.78h0c0,0.39,0,.79,0,1.2,0,6.05-3.64,11-8.12,11s-8.12-4.91-8.12-11c0-.4,0-0.8,0-1.2h0a20.73,20.73,0,0,1,6.43-14.67,2.68,2.68,0,0,1,1.82-.71m0-1.28A4,4,0,0,0,33,21a22,22,0,0,0-6.85,15.56v0c0,0.41,0,.82,0,1.22,0,6.75,4.22,12.24,9.4,12.24s9.4-5.49,9.4-12.24c0-.4,0-0.81,0-1.22v0c-0.41-9.35-4.34-13.86-6.65-15.72A4,4,0,0,0,35.67,20h0Z"/><path class="cls-5" d="M43.56,36.61h0c-0.38-8.74-3.91-13-6.18-14.78a2.71,2.71,0,0,0-3.54.11,20.73,20.73,0,0,0-6.43,14.67h0c0,0.39,0,.79,0,1.2,0,6.05,3.64,11,8.12,11s8.12-4.91,8.12-11C43.61,37.4,43.59,37,43.56,36.61Z"/></g></g></g></svg>