<svg id="Layer_1" data-name="Layer 1" xmlns="http://www.w3.org/2000/svg" viewBox="0 0 70 70"><defs><style>.cls-1{fill:#78c144;}.cls-2{fill:#fff;}.cls-3{fill:#231f20;}</style></defs><path class="cls-1" d="M40.82,34.44a28.25,28.25,0,0,1-4.61-.38c2-15.91,11.88-19.29,19.93-19.29A27.45,27.45,0,0,1,61,15.2C59.16,31.07,49.06,34.44,40.82,34.44h0Z"/><path class="cls-2" d="M56.14,15.87a26.75,26.75,0,0,1,3.64.25c-2.06,14.17-11.35,17.21-19,17.21a27.62,27.62,0,0,1-3.37-.21c1.29-8.3,5.7-17.26,18.69-17.26m0-2.2c-7.44,0-19.29,2.95-21.14,21.27a27,27,0,0,0,5.82.59c7.48,0,19.69-2.87,21.38-21.2a26.42,26.42,0,0,0-6.06-.66h0Z"/><path class="cls-3" d="M40.84,36.35a27.36,27.36,0,0,1-6-.63,0.75,0.75,0,0,1-.57-0.8c0.86-8.52,3.94-14.68,9.15-18.31,8.18-5.69,18.54-3.06,19-2.95a0.75,0.75,0,0,1,.56.79c-0.76,8.33-3.75,14.4-8.86,18A22.75,22.75,0,0,1,40.84,36.35Zm-5-2c2.38,0.43,10.87,1.54,17.4-3.13C57.82,28,60.56,22.5,61.38,15c-2.31-.46-10.62-1.66-17.13,2.87C39.55,21.12,36.71,26.68,35.81,34.39Z"/><path class="cls-3" d="M41.66,30.72a0.75,0.75,0,0,1-.46-1.35L55,18.78A0.75,0.75,0,0,1,55.95,20L42.12,30.56A0.75,0.75,0,0,1,41.66,30.72Z"/><path class="cls-1" d="M33.75,33.36c-3.4-.48-5.88-1.79-7.39-3.9-2-2.76-1.84-6.27-1.63-7.94,3.49,0.53,6,1.88,7.51,4A11.24,11.24,0,0,1,33.75,33.36Z"/><path class="cls-2" d="M25.73,22.83a8.88,8.88,0,0,1,5.6,3.34,9.49,9.49,0,0,1,1.44,5.9,8.75,8.75,0,0,1-5.5-3.24,9.71,9.71,0,0,1-1.54-6m-1.9-2.52s-3.18,13,10.81,14.27c0,0,3.36-12.85-10.81-14.27h0Z"/><path class="cls-3" d="M34.61,35.32H34.55c-4.48-.41-7.75-2-9.72-4.8-3.16-4.43-1.81-10.16-1.75-10.4a0.76,0.76,0,0,1,.8-0.57c4.58,0.46,7.9,2.13,9.86,5,3.08,4.43,1.66,10,1.6,10.25A0.75,0.75,0,0,1,34.61,35.32ZM24.41,21.12c-0.23,1.53-.55,5.47,1.64,8.53,1.62,2.26,4.29,3.63,8,4.09,0.25-1.49.62-5.34-1.51-8.4C30.89,23,28.17,21.62,24.41,21.12Z"/><path class="cls-3" d="M30.53,30.34A0.75,0.75,0,0,1,29.91,30l-2.48-3.68a0.75,0.75,0,0,1,1.24-.84l2.48,3.68A0.75,0.75,0,0,1,30.53,30.34Z"/><path class="cls-1" d="M45.31,48.54c-3.4-.49-5.89-1.8-7.39-3.91-2-2.77-1.83-6.26-1.62-7.92,3.48,0.52,6,1.88,7.51,4C45.72,43.48,45.54,46.92,45.31,48.54Z"/><path class="cls-2" d="M37.29,38a8.88,8.88,0,0,1,5.6,3.34,9.49,9.49,0,0,1,1.44,5.9A8.75,8.75,0,0,1,38.83,44a9.71,9.71,0,0,1-1.54-6m-1.9-2.52s-3.18,13,10.81,14.27c0,0,3.36-12.85-10.81-14.27h0Z"/><path class="cls-3" d="M46.18,50.5H46.11c-4.48-.41-7.75-2-9.72-4.8-3.16-4.43-1.81-10.16-1.75-10.4a0.75,0.75,0,0,1,.8-0.57c4.58,0.46,7.9,2.13,9.86,5,3.08,4.42,1.66,10,1.6,10.25A0.75,0.75,0,0,1,46.18,50.5ZM36,36.31c-0.23,1.53-.55,5.47,1.64,8.53,1.62,2.26,4.29,3.63,8,4.09,0.25-1.49.62-5.34-1.51-8.4C42.46,38.23,39.74,36.81,36,36.31Z"/><path class="cls-3" d="M41.81,45a0.75,0.75,0,0,1-.61-0.32l-2.31-3.26a0.75,0.75,0,0,1,1.22-.87l2.31,3.26A0.75,0.75,0,0,1,41.81,45Z"/><path class="cls-1" d="M13.64,55.13A28.14,28.14,0,0,1,9,54.75C11,38.84,20.91,35.46,29,35.46a27.45,27.45,0,0,1,4.87.43C32,51.76,21.88,55.13,13.64,55.13h0Z"/><path class="cls-2" d="M29,36.56a26.75,26.75,0,0,1,3.64.25C30.53,51,21.25,54,13.64,54a27.62,27.62,0,0,1-3.37-.21C11.56,45.52,16,36.56,29,36.56m0-2.2c-7.44,0-19.29,2.95-21.14,21.27a27,27,0,0,0,5.82.59c7.48,0,19.69-2.87,21.38-21.2A26.42,26.42,0,0,0,29,34.36h0Z"/><path class="cls-3" d="M13.65,57a27.36,27.36,0,0,1-6-.63,0.75,0.75,0,0,1-.57-0.8C7.92,47.09,11,40.93,16.22,37.3c8.18-5.69,18.54-3.06,19-2.95a0.75,0.75,0,0,1,.56.79c-0.76,8.33-3.75,14.4-8.86,18A22.75,22.75,0,0,1,13.65,57Zm-5-2C11,55.52,19.5,56.63,26,52c4.6-3.29,7.35-8.77,8.16-16.29-2.31-.46-10.62-1.66-17.13,2.87C12.36,41.81,9.53,47.38,8.63,55.09Z"/><path class="cls-3" d="M14.48,51.41A0.75,0.75,0,0,1,14,50.07L27.85,39.47a0.75,0.75,0,1,1,.91,1.19L14.94,51.26A0.75,0.75,0,0,1,14.48,51.41Z"/></svg>