<svg id="Layer_1" data-name="Layer 1" xmlns="http://www.w3.org/2000/svg" viewBox="0 0 70 70"><defs><style>.cls-1{fill:#534668;}.cls-2{fill:#fff;}.cls-3{fill:#231f20;}.cls-4{fill:#78c144;}</style></defs><title>fruit</title><path class="cls-1" d="M37.39,57.36a16.4,16.4,0,0,1-2.24-.16h-0.3a16.39,16.39,0,0,1-2.24.16,16.1,16.1,0,1,1,2.24-32h0.3A16.1,16.1,0,1,1,37.39,57.36Z"/><path class="cls-2" d="M37.39,26.26a15,15,0,1,1,0,30,15.21,15.21,0,0,1-2.09-.15l-0.3,0-0.3,0a15.21,15.21,0,0,1-2.09.15,15,15,0,1,1,0-30,15.21,15.21,0,0,1,2.09.15l0.3,0,0.3,0a15.21,15.21,0,0,1,2.09-.15m0-2.2a17.33,17.33,0,0,0-2.39.17,17.2,17.2,0,1,0,0,34.07,17.2,17.2,0,1,0,2.39-34.24h0Z"/><path class="cls-3" d="M37.39,59.22a18.06,18.06,0,0,1-2.4-.16,18,18,0,1,1,0-35.58A18,18,0,1,1,37.39,59.22ZM35,57.55h0.1A16.46,16.46,0,1,0,35.1,25H34.9a16.46,16.46,0,1,0,0,32.58H35Z"/><path class="cls-3" d="M35.12,24.8h0A0.75,0.75,0,0,1,34.37,24a5.46,5.46,0,0,1,4.82-5.29,0.75,0.75,0,1,1,.22,1.48,4,4,0,0,0-3.55,3.83A0.75,0.75,0,0,1,35.12,24.8Z"/><path class="cls-4" d="M34.53,19.51a7.12,7.12,0,0,1-5.25-1.9,7.12,7.12,0,0,1-1.61-5c2.13,0.18,6.34,1.27,7.39,6.92H34.53Z"/><path class="cls-2" d="M28.73,13.74a6.7,6.7,0,0,1,5,4.73A5.62,5.62,0,0,1,30,16.92a5.39,5.39,0,0,1-1.28-3.19m-1.82-2.2H26.69c-0.55,8,5,9,7.83,9a10.37,10.37,0,0,0,1.67-.12c-0.92-8.46-8-8.86-9.29-8.86h0Z"/><path class="cls-3" d="M34.52,21.27a9.15,9.15,0,0,1-6.1-2c-1.88-1.68-2.71-4.29-2.47-7.75a0.75,0.75,0,0,1,.7-0.7c0.09,0,9.22-.42,10.3,9.52a0.75,0.75,0,0,1-.61.82A11,11,0,0,1,34.52,21.27Zm-7.11-9c-0.06,2.61.61,4.57,2,5.82,1.88,1.69,4.65,1.72,5.94,1.62C34.3,13.27,29.26,12.4,27.41,12.3Z"/></svg>