<svg id="Layer_1" data-name="Layer 1" xmlns="http://www.w3.org/2000/svg" viewBox="0 0 70 70"><defs><style>.cls-1{fill:#78c144;}.cls-2{fill:#fff;}.cls-3{fill:#231f20;}.cls-4{fill:#ececbf;}.cls-5{fill:#ebebbf;}.cls-6{fill:#9ccd65;}</style></defs><path class="cls-1" d="M34.54,46.19a4.27,4.27,0,0,1-2-.51c-0.55-.29-1.11-0.57-1.68-0.83a1.74,1.74,0,0,1-.75-0.52L30,44.16,30,44.1a4.32,4.32,0,0,1-.46-1.83,2.91,2.91,0,0,0-2.69-2.75,3.45,3.45,0,0,1-1.24-.37,3.65,3.65,0,0,1-1.92-2.5,4,4,0,0,1-.07-1c0-1.15-.1-3.92-2.53-4.95a2.42,2.42,0,0,1-1.33-1.52,14.63,14.63,0,0,1-.53-4,1,1,0,0,1,.05-0.36,4,4,0,0,1,.4.62,2.41,2.41,0,0,0,.38.51,2.33,2.33,0,0,0,1.58.75,1.76,1.76,0,0,0,1.63-1.22c0.63-1.5-.57-3-0.71-3.22A3.36,3.36,0,0,0,19.85,21a4,4,0,0,0-.74.07,5,5,0,0,1,.14-1.62c0-.1.83-4.31,3.51-6.71l0.08,0a1.2,1.2,0,0,1,.27.5,1.76,1.76,0,0,0,1.64,1.45A1.82,1.82,0,0,0,26,14.11a2.79,2.79,0,0,0,.91-1.87c0.12-1.54.7-3.38,2.77-3.38a4.72,4.72,0,0,1,.92.1,10.75,10.75,0,0,0,1.62.12,7,7,0,0,0,4.88-1.6,2.46,2.46,0,0,1,1.34-.58,0.91,0.91,0,0,1,.62.25,1.52,1.52,0,0,1,.47,1.13A4.38,4.38,0,0,1,38,11.83,1.75,1.75,0,0,0,37.36,13,1.79,1.79,0,0,0,38,14.44a1.53,1.53,0,0,0,1.1.42c0.92,0,2-.66,3.15-2a1.8,1.8,0,0,1,1.33-.63h0.15a3.93,3.93,0,0,1,2.68,2.1l0.08,0.13,0.12,0.1a6,6,0,0,1,1.93,2.68,2.06,2.06,0,0,0,.89,1.64,1.53,1.53,0,0,1,.08,2l0,0.05,0,0.06a2.31,2.31,0,0,0-.32,1.71,2,2,0,0,0,1,1.29,1.88,1.88,0,0,1,.45.34,1.09,1.09,0,0,1,.38.73,1.53,1.53,0,0,1-.94.66l-0.14.06-0.12.1a15.65,15.65,0,0,0-2.19,2,2.4,2.4,0,0,0-.34,2.26,1.79,1.79,0,0,1-1.05,1.74l-0.08,0L46,31.94a2,2,0,0,0-.72,1.4,2.88,2.88,0,0,0,.89,2.17,1.36,1.36,0,0,1,.15.2l-0.13,0L46,35.85a2.18,2.18,0,0,0-.79,1.62,0.73,0.73,0,0,1-.09.36,2.62,2.62,0,0,1-1.77.91,2.34,2.34,0,0,0-1.66,1.19,2.12,2.12,0,0,0-.16.39,1.65,1.65,0,0,1-.13.33C40.88,41.57,38,46.19,34.54,46.19Z"/><path class="cls-2" d="M38.37,7.88a0.57,0.57,0,0,1,.13.39A3.41,3.41,0,0,1,37.36,11a2.75,2.75,0,0,0-1,2,2.81,2.81,0,0,0,.87,2.13,2.55,2.55,0,0,0,1.82.72c1.24,0,2.48-.74,3.9-2.34a0.82,0.82,0,0,1,.59-0.29H43.6a3.09,3.09,0,0,1,1.93,1.64l0.16,0.26,0.23,0.2a5.94,5.94,0,0,1,1.58,2,3.07,3.07,0,0,0,1.18,2.27,0.52,0.52,0,0,1,0,.66l-0.09.1-0.08.12a3.29,3.29,0,0,0-.46,2.48,3,3,0,0,0,1.42,1.89l-0.2.08-0.24.19a15,15,0,0,0-2.36,2.15,3.37,3.37,0,0,0-.53,3,0.84,0.84,0,0,1-.53.7L45.5,31l-0.14.11a3,3,0,0,0-1.1,2.11,3.56,3.56,0,0,0,.66,2.3,3.34,3.34,0,0,0-.67,1.77,2.16,2.16,0,0,1-1.05.42,3.35,3.35,0,0,0-2.37,1.71,3.2,3.2,0,0,0-.23.56l0,0.12c-1.36,2.33-3.76,5-6,5a3.24,3.24,0,0,1-1.51-.4c-0.6-.31-1.15-0.59-1.74-0.85A1.72,1.72,0,0,1,31,43.75l-0.15-.26-0.05,0a5.1,5.1,0,0,1-.25-1.28,3.91,3.91,0,0,0-3.57-3.64,2.46,2.46,0,0,1-.88-0.25,2.69,2.69,0,0,1-1.42-1.84,3,3,0,0,1,0-.75c0.12-2.82-1.06-5-3.15-5.91a1.44,1.44,0,0,1-.77-0.9,9,9,0,0,1-.32-1.5,2.87,2.87,0,0,0,1.25.3,2.78,2.78,0,0,0,2.55-1.83,4.36,4.36,0,0,0-.82-4.2A4.41,4.41,0,0,0,20.16,20c0-.11,0-0.22.06-0.32V19.53a13.7,13.7,0,0,1,2.32-5.17,2.55,2.55,0,0,0,2.18,1.26,2.8,2.8,0,0,0,1.88-.77,3.77,3.77,0,0,0,1.24-2.54c0.2-2.46,1.38-2.46,1.77-2.46a3.79,3.79,0,0,1,.73.08h0.07a11.72,11.72,0,0,0,1.75.12,8,8,0,0,0,5.54-1.85,1.81,1.81,0,0,1,.65-0.33m0-2a3.52,3.52,0,0,0-2,.86,6.11,6.11,0,0,1-4.19,1.32A9.81,9.81,0,0,1,30.75,8a5.75,5.75,0,0,0-1.11-.12c-3.11,0-3.66,3.06-3.76,4.3a1.8,1.8,0,0,1-.57,1.21,0.88,0.88,0,0,1-.55.26,0.88,0.88,0,0,1-.7-0.77,1.36,1.36,0,0,0-1.21-1.17,1.3,1.3,0,0,0-.67.21c-3,2.66-3.89,7.28-3.89,7.28s-0.72,2.9.64,2.9a1.2,1.2,0,0,0,.26,0A3,3,0,0,1,19.85,22a2.41,2.41,0,0,1,1.9.9,2.57,2.57,0,0,1,.57,2.2,0.8,0.8,0,0,1-.71.61,1.36,1.36,0,0,1-.86-0.45,1.43,1.43,0,0,1-.22-0.3c-0.54-1-1-1.3-1.35-1.3a0.85,0.85,0,0,0-.66.42,1.87,1.87,0,0,0-.33,1.13,15.32,15.32,0,0,0,.58,4.32,3.43,3.43,0,0,0,1.9,2.14c1.86,0.78,2,3.07,1.92,4a4.94,4.94,0,0,0,.09,1.26A4.68,4.68,0,0,0,25.1,40a4.43,4.43,0,0,0,1.59.48,1.93,1.93,0,0,1,1.82,1.85c0.2,2,.77,2.47.77,2.47a2.65,2.65,0,0,0,1.2.93c0.55,0.25,1.09.52,1.63,0.8a5.23,5.23,0,0,0,2.44.62c3.94,0,7-4.74,7.74-6a2.49,2.49,0,0,0,.22-0.56,1.19,1.19,0,0,1,.08-0.21,1.33,1.33,0,0,1,1-.67A3.56,3.56,0,0,0,46,38.4a1.68,1.68,0,0,0,.28-0.87,1.2,1.2,0,0,1,.39-0.88c1.49-.52.25-1.81,0.25-1.81-1.24-1.36-.29-2.11-0.29-2.11a2.77,2.77,0,0,0,1.56-2.87,1.38,1.38,0,0,1,.16-1.4,25.65,25.65,0,0,1,2-1.8c2.33-.94,1.53-2.31.93-3a2.81,2.81,0,0,0-.69-0.54,1.09,1.09,0,0,1-.35-1.58,2.6,2.6,0,0,0-.14-3.41,1.06,1.06,0,0,1-.58-1c-0.16-1.61-2.29-3.41-2.29-3.41-1.2-1.88-2.45-2.46-3.43-2.56H43.55a2.81,2.81,0,0,0-2.08,1c-1.23,1.39-2,1.67-2.41,1.67a0.56,0.56,0,0,1-.4-0.13,0.71,0.71,0,0,1,0-1.12A5.41,5.41,0,0,0,40.5,8.25a2.51,2.51,0,0,0-.82-1.87,1.89,1.89,0,0,0-1.28-.49h0Z"/><path class="cls-3" d="M34.52,47.93a5.94,5.94,0,0,1-2.76-.7c-0.52-.27-1-0.54-1.59-0.78a3.37,3.37,0,0,1-1.49-1.14,4.91,4.91,0,0,1-.93-2.87,1.18,1.18,0,0,0-1.16-1.18,5.15,5.15,0,0,1-1.86-.57A5.42,5.42,0,0,1,21.95,37a5.66,5.66,0,0,1-.1-1.46c0-.78,0-2.66-1.46-3.26a4.16,4.16,0,0,1-2.32-2.6,16.31,16.31,0,0,1-.61-4.54,2.59,2.59,0,0,1,.47-1.58,1.5,1.5,0,0,1,1.35-.73,2.77,2.77,0,0,1,1.92,1.69,0.62,0.62,0,0,0,.1.14,1,1,0,0,0,.28.21l0.06-.14a1.84,1.84,0,0,0-.46-1.44,1.72,1.72,0,0,0-1.81-.56,1.49,1.49,0,0,1-1.47-.37C17,21.51,17.41,19.56,17.55,19c0-.16.93-4.87,4.13-7.67a2,2,0,0,1,1.7-.31,2.31,2.31,0,0,1,1.39,1.59l0.07,0.17a1.05,1.05,0,0,0,.3-0.68,5.84,5.84,0,0,1,1.95-4.18,4.6,4.6,0,0,1,3.82-.68s3.36,0.52,4.95-1c0.82-.75,2.76-1.77,4.33-0.4a3.27,3.27,0,0,1,1.07,2.43,6.2,6.2,0,0,1-2,4.83,4.68,4.68,0,0,0,1.67-1.37,3.57,3.57,0,0,1,3-1.2c1,0.09,2.53.66,3.93,2.8,0.47,0.41,2.29,2.12,2.47,3.83a0.75,0.75,0,0,1,0,.12,0.74,0.74,0,0,0,.27.3l0.11,0.1a3.29,3.29,0,0,1,.2,4.35,0.57,0.57,0,0,0-.07.32,0.38,0.38,0,0,0,.18.17,3.48,3.48,0,0,1,.87.68,2.57,2.57,0,0,1,.79,2.29,2.85,2.85,0,0,1-1.88,1.85c-0.77.63-1.66,1.4-1.81,1.58a0.66,0.66,0,0,0-.07.7,0.67,0.67,0,0,1,0,.13A3.52,3.52,0,0,1,47,33.34a1,1,0,0,0,.4,1,2.2,2.2,0,0,1,.64,1.85,1.6,1.6,0,0,1-1,1.1,0.78,0.78,0,0,0-.08.3,2.39,2.39,0,0,1-.41,1.25,4.27,4.27,0,0,1-2.89,1.62,0.58,0.58,0,0,0-.42.28,3.92,3.92,0,0,1-.33.8C41,44.9,37.9,47.93,34.52,47.93ZM19.19,24.38l-0.06.08a1.13,1.13,0,0,0-.19.67,14.8,14.8,0,0,0,.54,4.11A2.66,2.66,0,0,0,21,30.93c2.29,1,2.43,3.61,2.38,4.71a4.19,4.19,0,0,0,.07,1.07,4,4,0,0,0,2,2.67,3.7,3.7,0,0,0,1.33.4,2.67,2.67,0,0,1,2.47,2.52,3.9,3.9,0,0,0,.53,2,0.45,0.45,0,0,1,.14.17,2,2,0,0,0,.86.62c0.57,0.25,1.12.54,1.67,0.82C37,48.25,40.9,42,41.64,40.77a1.84,1.84,0,0,0,.16-0.4A1.86,1.86,0,0,1,41.93,40,2.09,2.09,0,0,1,43.42,39a2.84,2.84,0,0,0,1.93-1,0.94,0.94,0,0,0,.14-0.48A1.93,1.93,0,0,1,46.18,36a0.8,0.8,0,0,1,.2-0.1,0.62,0.62,0,0,0,.25-0.13,1.5,1.5,0,0,0-.29-0.46,2.66,2.66,0,0,1-.84-2,1.77,1.77,0,0,1,.63-1.23l0.11-.07a2,2,0,0,0,1.18-2A2.13,2.13,0,0,1,47.74,28a19.06,19.06,0,0,1,2.13-1.9A0.75,0.75,0,0,1,50.06,26a1.71,1.71,0,0,0,1.09-.84,1.24,1.24,0,0,0-.44-0.95,2.05,2.05,0,0,0-.51-0.39,1.77,1.77,0,0,1-.89-1.13,2.09,2.09,0,0,1,.29-1.51l0.06-.08a1.8,1.8,0,0,0-.09-2.37,1.81,1.81,0,0,1-.81-1.48c-0.15-1.05-1.54-2.44-2-2.85a0.72,0.72,0,0,1-.15-0.17A4.16,4.16,0,0,0,43.72,12a2.05,2.05,0,0,0-1.69.7c-1.14,1.28-2.1,1.91-2.94,1.92h0a1.28,1.28,0,0,1-.95-0.37,1.53,1.53,0,0,1-.5-1.18,1.5,1.5,0,0,1,.54-1,4.7,4.7,0,0,0,1.6-3.76,1.77,1.77,0,0,0-.56-1.32c-1-.84-2.31.35-2.32,0.36-2.11,2.05-6.07,1.44-6.24,1.41a3.22,3.22,0,0,0-2.65.4,4.5,4.5,0,0,0-1.36,3.11,2.54,2.54,0,0,1-.82,1.71,1.44,1.44,0,0,1-1.35.41,1.71,1.71,0,0,1-1.1-1.24,1,1,0,0,0-.43-0.66,0.46,0.46,0,0,0-.33.07C19.86,14.9,19,19.26,19,19.31a4,4,0,0,0-.08,2l0.08,0a3.31,3.31,0,0,1,4,4,1.57,1.57,0,0,1-1.16,1,2,2,0,0,1-1.65-.66,2.13,2.13,0,0,1-.34-0.46A2.52,2.52,0,0,0,19.19,24.38Zm31.06-7h0Zm0,0h0ZM39.17,13.17l0,0Z"/><path class="cls-4" d="M35.75,63.12a6,6,0,0,1-6-6V41.7c1.42-2.38,3.25-3.53,5.58-3.53a11.85,11.85,0,0,1,6.18,2.22V57.14A5.55,5.55,0,0,1,40,61.31,5.89,5.89,0,0,1,35.75,63.12Z"/><path class="cls-2" d="M35.35,39.17a10.43,10.43,0,0,1,5.18,1.76V57.14s0,0.07,0,.1a4.53,4.53,0,0,1-1.25,3.38,4.88,4.88,0,0,1-3.53,1.5,5,5,0,0,1-5-5V42a5.27,5.27,0,0,1,4.58-2.82m0-2c-2.3,0-4.72,1-6.58,4.26V57.14a7,7,0,0,0,7,7,6.69,6.69,0,0,0,6.78-7V39.88s-3.41-2.71-7.18-2.71h0Z"/><path class="cls-3" d="M35.75,64.87A7.73,7.73,0,0,1,28,57.14V41.43a0.75,0.75,0,0,1,.1-0.37,8.44,8.44,0,0,1,5.72-4.5c4.55-.88,9,2.58,9.16,2.73a0.75,0.75,0,0,1,.28.59V57.14a7.23,7.23,0,0,1-2,5.37A7.64,7.64,0,0,1,35.75,64.87ZM29.53,41.63V57.14a6.23,6.23,0,0,0,6.22,6.22,6.14,6.14,0,0,0,4.44-1.88,5.77,5.77,0,0,0,1.59-4.3V40.26c-1-.7-4.38-2.86-7.66-2.22A6.92,6.92,0,0,0,29.53,41.63Z"/><path class="cls-5" d="M36.26,63.07a1.85,1.85,0,0,1-1-.24c-4.23-2.59-3.48-17.41-2.83-23L32.87,38l0.65-.19h0.3l0.93,16a1,1,0,0,0,.88.93h0.12a1,1,0,0,0,1-.71L37.34,52a51.45,51.45,0,0,0,1.43-6L40.5,36.1a1,1,0,0,0,0-.38l-0.4-1.9,0.62-.63h0.64v0.69c-0.35,1.53-3.51,15.54-1.4,21.5a5,5,0,0,0,1.6,2.06,5.82,5.82,0,0,1-3.22,5.1A5.22,5.22,0,0,1,36.26,63.07Z"/><path class="cls-2" d="M33.14,43.37L33.75,53.9a2,2,0,0,0,1.76,1.87h0.24a2,2,0,0,0,1.91-1.42l0.63-2.09,0-.07A14.41,14.41,0,0,0,39,55.71l0,0.1a6.12,6.12,0,0,0,1.48,2.09,4.81,4.81,0,0,1-2.66,3.76,4.22,4.22,0,0,1-1.59.42A0.92,0.92,0,0,1,35.81,62c-2.72-1.66-3.18-11.08-2.67-18.61m9.2-11.19H40.29L39,33.5l0.51,2.42-1.73,9.88a50.34,50.34,0,0,1-1.4,5.89l-0.63,2.09-1-16.94H33.38l-1.36.4-0.55,2.46s-2.43,20.49,3.29,24a2.83,2.83,0,0,0,1.5.38,6.2,6.2,0,0,0,2.52-.65,6.89,6.89,0,0,0,3.75-6.57A3.74,3.74,0,0,1,40.89,55C38.78,49.08,42.34,34,42.34,34v-1.8h0Z"/><path class="cls-3" d="M36.25,64.82a3.56,3.56,0,0,1-1.88-.49h0c-2.6-1.59-4-6.28-4.15-13.94a90,90,0,0,1,.5-10.79l0.57-2.53a0.75,0.75,0,0,1,.52-0.55l1.36-.4a0.73,0.73,0,0,1,.21,0h1.38a0.75,0.75,0,0,1,.75.71l0.73,12.59c0.31-1.22.58-2.47,0.8-3.71l1.71-9.74-0.48-2.28a0.75,0.75,0,0,1,.2-0.68l1.29-1.32a0.75,0.75,0,0,1,.54-0.23h2.06a0.75,0.75,0,0,1,.75.75V34a0.74,0.74,0,0,1,0,.17c0,0.15-3.49,14.94-1.48,20.63a3,3,0,0,0,1.24,1.37,0.75,0.75,0,0,1,.44.61,7.59,7.59,0,0,1-4.15,7.32A6.92,6.92,0,0,1,36.25,64.82Zm-3.6-27-0.46,2c-0.65,5.49-1.4,20.53,3,23.19h0c1.23,0.75,3.26-.28,3.28-0.29a6.07,6.07,0,0,0,3.37-5.45,4.67,4.67,0,0,1-1.61-2c-2.11-6,1.08-20.06,1.4-21.43v-1h-1l-0.79.8,0.43,2a0.73,0.73,0,0,1,0,.28l-1.73,9.88a51,51,0,0,1-1.42,6L36.47,54a0.77,0.77,0,0,1-.81.53,0.75,0.75,0,0,1-.66-0.7L34.06,37.59H33.49Z"/><path class="cls-6" d="M34.68,25.28l1.61-5.94a7.31,7.31,0,0,1,2.48-.56,1.43,1.43,0,0,1,1.63,1,0.21,0.21,0,0,1,0,.18,3.43,3.43,0,0,0-.24,3.68A2.29,2.29,0,0,0,42,24.73a3.46,3.46,0,0,1,2,.53l0,0a5.41,5.41,0,0,0-2.05,1.09,1.8,1.8,0,0,0-.56,1.49,1.83,1.83,0,0,0,.84,1.38,2,2,0,0,1,.81.74,1.59,1.59,0,0,0-.26.77,4,4,0,0,1-.68,2.15,3.27,3.27,0,0,0-.84-0.11,2,2,0,0,0-2.06,1.52,2.11,2.11,0,0,1-.25.64Z"/><path class="cls-2" d="M38.77,19.78h0a1.28,1.28,0,0,1,.5.07,4.31,4.31,0,0,0,0,4.26,3.26,3.26,0,0,0,2.11,1.54h0a2.83,2.83,0,0,0,.43,4.45L42,30.22a3,3,0,0,0-.08.47,5.35,5.35,0,0,1-.22,1.14h-0.3a3.13,3.13,0,0,0-2.26.86l-3.38-7.49,1.38-5.1a5.67,5.67,0,0,1,1.66-.32m0-2a9,9,0,0,0-3.32.83l-1.83,6.76,4.77,10.57a1.34,1.34,0,0,0,.6.16c1,0,1.29-1.52,1.29-1.52a1,1,0,0,1,1.09-.75,2.81,2.81,0,0,1,.6.07l0.24,0a1,1,0,0,0,.71-0.28,5,5,0,0,0,1-2.77A1.23,1.23,0,0,1,44,30.39c0.43-.8-0.52-1.56-1.16-2a0.83,0.83,0,0,1-.13-1.3,4.81,4.81,0,0,1,1.74-.89,0.91,0.91,0,0,0,.64-0.8c0.09-1.39-2-1.65-3-1.7A1.3,1.3,0,0,1,41,23.11a2.48,2.48,0,0,1,.21-2.64,1.2,1.2,0,0,0,.12-1,2.45,2.45,0,0,0-2.57-1.64h0Z"/><path class="cls-3" d="M39,36.84a2.07,2.07,0,0,1-.93-0.24,0.75,0.75,0,0,1-.35-0.36L32.94,25.67a0.75,0.75,0,0,1,0-.5l1.83-6.75a0.75,0.75,0,0,1,.4-0.48c0.32-.15,3.16-1.47,5.22-0.62A3,3,0,0,1,42,19.17a1.94,1.94,0,0,1-.2,1.7,1.74,1.74,0,0,0-.19,1.85,0.56,0.56,0,0,0,.46.26,4.85,4.85,0,0,1,3.28,1.11,1.85,1.85,0,0,1,.48,1.39A1.66,1.66,0,0,1,44.7,27a4,4,0,0,0-1.45.72l-0.38.75,0.4-.63c2,1.28,1.67,2.5,1.42,3a0.49,0.49,0,0,0-.07.18,5.6,5.6,0,0,1-1.17,3.23,1.76,1.76,0,0,1-1.65.46c-0.27-.06-0.74-0.12-0.79.12a2.91,2.91,0,0,1-1.29,1.93A1.67,1.67,0,0,1,39,36.84Zm0-1.5a0.21,0.21,0,0,0,.12,0,1.57,1.57,0,0,0,.48-0.9c0.2-.86,1-1.62,2.59-1.27a0.28,0.28,0,0,0,.26-0.05,4.16,4.16,0,0,0,.75-2.31A2,2,0,0,1,43.38,30a1.44,1.44,0,0,0-.9-1,1.58,1.58,0,0,1-.73-1.2,1.55,1.55,0,0,1,.49-1.29,5.48,5.48,0,0,1,2-1.05,0.16,0.16,0,0,0,.11-0.13,0.36,0.36,0,0,0-.1-0.29A3.64,3.64,0,0,0,42,24.48a2,2,0,0,1-1.69-1,3.19,3.19,0,0,1,.23-3.42,0.45,0.45,0,0,0,0-.39,1.5,1.5,0,0,0-.87-1c-1.08-.45-2.81.08-3.69,0.45L34.41,25.3Z"/><path class="cls-6" d="M36,39.44a3.35,3.35,0,0,0-2.59-2,2.57,2.57,0,0,0-2,1.15,1.63,1.63,0,0,1-.73-0.79A1.48,1.48,0,0,1,31,36.73a3.06,3.06,0,0,0,.49-2.8,3,3,0,0,0-2.19-1.69,4.94,4.94,0,0,1-1.52-.68,5.27,5.27,0,0,1-2.32-5.41,3.52,3.52,0,0,0,0-1,2.07,2.07,0,0,1,.31-1.75,2,2,0,0,0,.82-1.86c-0.3-2.18,0-3.86.73-4.17a2.82,2.82,0,0,0,1.26-1,2.93,2.93,0,0,1,1.82-1.52,0.81,0.81,0,0,1,.45.15,1.75,1.75,0,0,0,1,.29,1.68,1.68,0,0,0,1-.35,2.35,2.35,0,0,1,1.11-.58A2,2,0,0,1,34,16.19a1.58,1.58,0,0,0,0,2.07c0.41,0.5,1.69,2.19.93,3.11a2.06,2.06,0,0,0-.56,2.22,2.09,2.09,0,0,0,2.1,1l0.47,0H37a1.81,1.81,0,0,0,.54,1.75,2,2,0,0,1,.68,2.38c-0.1.26-.9,2.37,0.21,3.83a1.35,1.35,0,0,1,.26.52v0H38.59a1.42,1.42,0,0,0-1.2,1.86,0.87,0.87,0,0,1,0,.75,4.7,4.7,0,0,0-1.23,2.51A11.37,11.37,0,0,0,36,39.44Z"/><path class="cls-2" d="M30.34,15.85a2.74,2.74,0,0,0,1.43.41A2.71,2.71,0,0,0,33,16a2.57,2.57,0,0,0,.26,2.92,3.12,3.12,0,0,1,.93,1.84A3,3,0,0,0,33.45,24,2.82,2.82,0,0,0,36,25.56,2.79,2.79,0,0,0,36.85,27a1,1,0,0,1,.41,1.29,5.48,5.48,0,0,0,0,4.24,2.43,2.43,0,0,0-.57.62,2.4,2.4,0,0,0-.26,2.07,5.57,5.57,0,0,0-1.05,1.92,3.21,3.21,0,0,0-2-.7,3.07,3.07,0,0,0-1.32.3,3.79,3.79,0,0,0,.3-3.23,4,4,0,0,0-2.86-2.29,3.94,3.94,0,0,1-1.22-.54,4.28,4.28,0,0,1-1.89-4.44,4.53,4.53,0,0,0,0-1.29,2.37,2.37,0,0,1,0-.87,3,3,0,0,0,1.12-2.73,5.57,5.57,0,0,1,.18-3.13,3.82,3.82,0,0,0,1.66-1.39,3.54,3.54,0,0,1,1-1m3.58-2.53a3.28,3.28,0,0,0-1.72.79,0.69,0.69,0,0,1-.42.14,0.75,0.75,0,0,1-.41-0.12,1.79,1.79,0,0,0-1-.32c-1.16,0-2.16,1.23-2.65,2a1.83,1.83,0,0,1-.81.67c-1.74.73-1.53,3.84-1.34,5.22a1,1,0,0,1-.42.92c-0.89.64-.8,2-0.71,2.7a2.53,2.53,0,0,1,0,.72,6.26,6.26,0,0,0,2.74,6.37A5.94,5.94,0,0,0,29,33.2c0.84,0.22,2.41.93,1.11,3a2.15,2.15,0,0,0,1,3.39,0.83,0.83,0,0,0,.38.09,0.8,0.8,0,0,0,.64-0.32,1.71,1.71,0,0,1,1.3-.87c1.88,0,3.24,5.27,3.24,5.27a2.84,2.84,0,0,0,.48-2.33,8,8,0,0,1,0-3,3.72,3.72,0,0,1,1-2,1.69,1.69,0,0,0,.23-1.77,0.42,0.42,0,0,1,.35-0.55,0.94,0.94,0,0,0,1-1.25,2.32,2.32,0,0,0-.44-0.92c-0.8-1.05-.08-2.83-0.08-2.83a3,3,0,0,0-.93-3.51A0.82,0.82,0,0,1,38,24.63a0.67,0.67,0,0,0-.52-1A1.78,1.78,0,0,0,37,23.55H36.84l-0.39,0c-0.75,0-1.89-.2-0.76-1.57s-0.18-3.46-.93-4.38a0.59,0.59,0,0,1,0-.77,2.82,2.82,0,0,0,0-3,0.9,0.9,0,0,0-.82-0.49h0Z"/><path class="cls-3" d="M36.65,44.51l-0.18,0a0.75,0.75,0,0,1-.54-0.54c-0.55-2.15-1.67-4.55-2.46-4.7a1.15,1.15,0,0,0-.75.56h0a1.55,1.55,0,0,1-2,.45A3.22,3.22,0,0,1,29,38.31a3.11,3.11,0,0,1,.51-2.51,1.55,1.55,0,0,0,.34-1.23,1.55,1.55,0,0,0-1-.65A6.65,6.65,0,0,1,26.77,33a7,7,0,0,1-3.06-7.1,1.77,1.77,0,0,0,0-.51c-0.13-.91-0.18-2.56,1-3.42a0.25,0.25,0,0,0,.11-0.21c-0.25-1.86-.36-5.11,1.79-6a1.09,1.09,0,0,0,.48-0.4c1.43-2.15,3.18-2.84,4.68-1.86a3.2,3.2,0,0,1,2.49-.9,1.65,1.65,0,0,1,1.13.83,3.59,3.59,0,0,1,0,3.82c1.62,2,1.93,3.91.85,5.22a2.52,2.52,0,0,0-.22.31,3.13,3.13,0,0,0,.73,0,2.61,2.61,0,0,1,.89.07,1.52,1.52,0,0,1,1,.78,1.48,1.48,0,0,1,0,1.27,3.84,3.84,0,0,1,1.12,4.45,2.62,2.62,0,0,0,0,2.08,3.07,3.07,0,0,1,.58,1.22,1.77,1.77,0,0,1-.25,1.46,1.68,1.68,0,0,1-1,.62,2.25,2.25,0,0,1-.51,2.16,3,3,0,0,0-.76,1.59,7.19,7.19,0,0,0,0,2.75,3.59,3.59,0,0,1-.66,3A0.75,0.75,0,0,1,36.65,44.51Zm-3.24-6.77a1.74,1.74,0,0,1,.34,0c1,0.2,1.89,1.39,2.5,2.65a10,10,0,0,1,.16-2.17,4.46,4.46,0,0,1,1.16-2.38,1,1,0,0,0,.06-1,1.17,1.17,0,0,1,1-1.53,0.59,0.59,0,0,0,.31-0.09,0.53,0.53,0,0,0,0-.27,1.6,1.6,0,0,0-.31-0.62c-1-1.35-.27-3.34-0.18-3.56a2.2,2.2,0,0,0-.73-2.68,1.57,1.57,0,0,1-.38-1.78h0a1.21,1.21,0,0,0-.38,0c-0.83.07-1.89,0-2.3-.78a1.8,1.8,0,0,1,.5-2c0.85-1-.37-2.74-0.93-3.42a1.34,1.34,0,0,1,0-1.75,2.15,2.15,0,0,0-.12-2.17A0.17,0.17,0,0,0,34,14.08a2.2,2.2,0,0,0-1.32.63,1.47,1.47,0,0,1-1.71.05c-1-.66-2.06.62-2.61,1.44a2.58,2.58,0,0,1-1.15.95c-1,.44-1.14,2.57-0.89,4.43a1.73,1.73,0,0,1-.72,1.63c-0.59.43-.46,1.63-0.41,2a3.33,3.33,0,0,1,0,.93,5.51,5.51,0,0,0,2.42,5.65,5.14,5.14,0,0,0,1.6.71,2.77,2.77,0,0,1,2,1.55,2.83,2.83,0,0,1-.47,2.57,1.71,1.71,0,0,0-.34,1.32,1.86,1.86,0,0,0,1,1l0.68,0.44-0.6-.44A2.39,2.39,0,0,1,33.41,37.74Zm4-13.36h0Z"/><path class="cls-3" d="M32.19,31.79a0.74,0.74,0,0,1-.22,0A6.15,6.15,0,0,1,27.53,26,0.75,0.75,0,0,1,29,26a4.65,4.65,0,0,0,3.38,4.29A0.75,0.75,0,0,1,32.19,31.79ZM29,26h0Z"/></svg>