<svg xmlns="http://www.w3.org/2000/svg" viewBox="0 0 70 70"><defs><style>.cls-1{isolation:isolate;}.cls-2{mix-blend-mode:multiply;}.cls-3{fill:#78c144;}.cls-4{fill:#fff;}.cls-5{fill:#231f20;}.cls-6{fill:#639b42;}</style></defs><g class="cls-1"><g id="Layer_1" data-name="Layer 1"><g class="cls-2"><path class="cls-3" d="M31,59.07l-4-23,0.26-1.4c0.75,1.63,1.87,4.18,2.88,6.54a1.1,1.1,0,0,0,1,.67h0.15A1.1,1.1,0,0,0,32.29,41l1.45-10.54h4.15l1.17,0.78-3.43,2a1.1,1.1,0,0,0-.48,1.33l2.7,7.38a1.1,1.1,0,0,0,1,.72h0.07a1.1,1.1,0,0,0,1-.85l2-8.63,3.25,2.15L41.1,59.07H31ZM28.12,30.42h0l-0.05,0v0Z"/><path class="cls-4" d="M36.31,31.52l-1.22.71a2.2,2.2,0,0,0-.54.44l0.16-1.15h1.61m6.39,3.4L44,35.8,40.18,58H32L29.1,41.49l0.08,0.19a2.2,2.2,0,0,0,2,1.34l0.29,0a2.2,2.2,0,0,0,1.89-1.88l0.82-6,2.61,7.15a2.2,2.2,0,0,0,2.07,1.44H39A2.2,2.2,0,0,0,41,42l1.67-7.09m-4.48-5.6H32.78L31.2,40.81s-3.51-8.23-3.87-8.47l4.34-3H27.21l-1.28,6.77,4.19,24.08H42l4.42-25.4-5.17-3.42L38.88,41.51l-2.7-7.38,5-2.87-2.93-1.94h0Z"/><polygon class="cls-3" points="41.36 31.13 41.15 31.26 41.28 31.34 41.36 31.13"/><path class="cls-4" d="M41.36,31.13h0Zm0,0-0.22.12,0.13,0.09,0.09-.21h0Z"/><polygon class="cls-3" points="32.9 28.46 31.67 29.32 32.78 29.32 32.9 28.46"/><path class="cls-4" d="M32.9,28.46h0Zm0,0-1.23.86h1.11l0.12-.86h0Z"/><path class="cls-5" d="M42,60.92H30.11a0.75,0.75,0,0,1-.74-0.62L25.19,36.22a0.78,0.78,0,0,1,0-.27l1.28-6.77a0.75,0.75,0,0,1,.74-0.61h4.46a0.75,0.75,0,0,1,.56.25,0.75,0.75,0,0,1,.55-0.25h5.44a0.74,0.74,0,0,1,.41.13l2.93,1.94,0.06,0,0.07,0,5.17,3.42a0.75,0.75,0,0,1,.33.75L42.77,60.3A0.75,0.75,0,0,1,42,60.92Zm-11.28-1.5H41.4l4.23-24.3-3.86-2.55-2.15,9.12a0.75,0.75,0,0,1-.69.58,0.73,0.73,0,0,1-.75-0.49l-2.7-7.38a0.75,0.75,0,0,1,.33-0.91l3.92-2.26L38,30.07H33.43L31.94,40.91a0.75,0.75,0,0,1-1.43.19c-1.07-2.52-2.6-6-3.35-7.53l-0.48,2.52Zm6.36-25,1.62,4.43,1.46-6.22Zm-8.78-1.9c0.41,0.78,1.14,2.33,2.5,5.47l1.09-8Zm-0.49-2.5-0.22,1.17,1.67-1.17H27.83Z"/><path class="cls-5" d="M41.28,32.09A0.75,0.75,0,0,1,40.86,32l-0.13-.08a0.75,0.75,0,0,1,0-1.27L41,30.48a0.75,0.75,0,0,1,1.07.93L42,31.63A0.75,0.75,0,0,1,41.28,32.09Z"/><path class="cls-5" d="M32.78,30.07H31.67a0.75,0.75,0,0,1-.43-1.37l1.23-.86a0.75,0.75,0,0,1,1.17.72l-0.12.86A0.75,0.75,0,0,1,32.78,30.07Z"/><path class="cls-6" d="M48.53,36.8a6.23,6.23,0,0,1-5.66-3.66,1.1,1.1,0,0,0-1.35-.59,11.11,11.11,0,0,1-9.71-1.31,1.1,1.1,0,0,0-.61-0.19l-0.22,0a1.1,1.1,0,0,0-.7.48A8.15,8.15,0,1,1,26,19.41a1.11,1.11,0,0,0,.35.06,1.1,1.1,0,0,0,1-.77A11.12,11.12,0,0,1,49.12,22,11.19,11.19,0,0,1,49,23.32a1.1,1.1,0,0,0,.85,1.2A6.21,6.21,0,0,1,48.53,36.8Z"/><path class="cls-4" d="M38,12a10,10,0,0,1,9.94,11.2,2.2,2.2,0,0,0,1.7,2.4,5.11,5.11,0,1,1-5.78,7.09,2.2,2.2,0,0,0-2.7-1.18,10,10,0,0,1-8.75-1.18,2.2,2.2,0,0,0-3.08.63,7.05,7.05,0,1,1-3.7-10.51A2.2,2.2,0,0,0,28.44,19,10,10,0,0,1,38,12m0-2.2a12.22,12.22,0,0,0-11.66,8.57,9.25,9.25,0,1,0,4.85,13.79A12.22,12.22,0,0,0,41.86,33.6a7.31,7.31,0,1,0,8.26-10.14A12.34,12.34,0,0,0,50.22,22,12.22,12.22,0,0,0,38,9.79h0Z"/><path class="cls-5" d="M48.53,38.69a8.08,8.08,0,0,1-7-4.15A13.06,13.06,0,0,1,31.4,33.21a10,10,0,1,1-5.54-15.73A13,13,0,0,1,51,22c0,0.29,0,.59,0,0.89A8.06,8.06,0,0,1,48.53,38.69Zm-6.66-5.8a0.75,0.75,0,0,1,.68.44A6.56,6.56,0,1,0,50,24.23a0.75,0.75,0,0,1-.58-0.82A11.27,11.27,0,0,0,49.47,22a11.47,11.47,0,0,0-22.41-3.42,0.75,0.75,0,0,1-1,.49,8.5,8.5,0,1,0,4.46,12.67,0.75,0.75,0,0,1,1-.22,11.55,11.55,0,0,0,10,1.35A0.77,0.77,0,0,1,41.86,32.89Z"/></g></g></g></svg>