<svg id="Layer_3" data-name="Layer 3" xmlns="http://www.w3.org/2000/svg" viewBox="0 0 70 70"><defs><style>.cls-1{fill:#78a333;}.cls-2{fill:#fff;}.cls-3{fill:#231f20;}.cls-4{fill:#78c144;}</style></defs><path class="cls-1" d="M17.84,36.21a7.6,7.6,0,0,1-6.58-3.83,3,3,0,0,1-.24-3,4.33,4.33,0,0,1,3.17-2,2.33,2.33,0,0,0,2-2.4c0-.06,0-0.21.4-0.4a1.45,1.45,0,0,1,.64-0.13,4.87,4.87,0,0,1,2.47,1c0.9,2,2.64,6.93,1.41,9.33a2.46,2.46,0,0,1-1.92,1.3,7.69,7.69,0,0,1-1.39.13h0Z"/><path class="cls-2" d="M17.3,25.56a3.65,3.65,0,0,1,1.55.62c1.11,2.55,2.16,6.45,1.31,8.1A1.36,1.36,0,0,1,19,35a6.64,6.64,0,0,1-1.19.11,6.57,6.57,0,0,1-5.6-3.25A2.09,2.09,0,0,1,12,30a3.23,3.23,0,0,1,2.39-1.51,3.45,3.45,0,0,0,3-2.93m0-2.2a2.55,2.55,0,0,0-1.11.24,1.49,1.49,0,0,0-1,1.45,1.23,1.23,0,0,1-1.07,1.26,5.45,5.45,0,0,0-3.94,2.48c-1.91,2.89,2,8.52,7.73,8.52a8.8,8.8,0,0,0,1.59-.15c6.51-1.19,1.19-12.42,1.19-12.42a6.27,6.27,0,0,0-3.35-1.39h0Z"/><path class="cls-3" d="M17.85,38.06A9.57,9.57,0,0,1,10,33.88c-1.3-2-1.49-4-.52-5.5A6.19,6.19,0,0,1,14,25.57a0.48,0.48,0,0,0,.42-0.48,2.22,2.22,0,0,1,1.45-2.16C18.2,21.8,21,24.08,21.1,24.17a0.76,0.76,0,0,1,.2.26c0.14,0.3,3.45,7.38,1.49,11.2a4.28,4.28,0,0,1-3.23,2.28A9.43,9.43,0,0,1,17.85,38.06Zm-0.59-14a1.81,1.81,0,0,0-.79.17,0.75,0.75,0,0,0-.6.73,2,2,0,0,1-1.72,2,4.72,4.72,0,0,0-3.42,2.15c-0.62.94-.42,2.42,0.52,3.85a8,8,0,0,0,8,3.38,2.82,2.82,0,0,0,2.16-1.49c1.31-2.55-.53-7.73-1.44-9.71A5.22,5.22,0,0,0,17.27,24.11Z"/><path class="cls-4" d="M35.65,53.68A19.7,19.7,0,0,1,22.87,19.14a7.62,7.62,0,0,0,1.25-1.37A4.1,4.1,0,0,1,27.54,16h0.21c2.54,0,3.86-.72,4.52-1.32A3.67,3.67,0,0,1,33.21,14a4.15,4.15,0,0,1,1.67-.39,3,3,0,0,1,1.7.53,7.37,7.37,0,0,0,4.11,1.31,6,6,0,0,0,1.37-.15A4.07,4.07,0,0,1,43,15.18l0.31,0a2.33,2.33,0,0,1,2,1.29,7.66,7.66,0,0,0,3.57,3.3,7,7,0,0,1,2.39,1.93,19.7,19.7,0,0,1-15.42,32H35.65Z"/><path class="cls-2" d="M34.88,14.7A1.88,1.88,0,0,1,36,15a8.52,8.52,0,0,0,4.72,1.5,7.15,7.15,0,0,0,1.62-.18A2.94,2.94,0,0,1,43,16.28h0.2a1.22,1.22,0,0,1,1.15.68,8.75,8.75,0,0,0,4.07,3.8,5.88,5.88,0,0,1,2,1.63,18.4,18.4,0,0,1,4,11.74,18.66,18.66,0,0,1-18.6,18.44H35.66A18.6,18.6,0,0,1,23.6,20,8.7,8.7,0,0,0,25,18.4a3,3,0,0,1,2.55-1.34h0.16c2.9,0,4.46-.87,5.26-1.6A2.65,2.65,0,0,1,33.67,15a3.05,3.05,0,0,1,1.22-.29m0-2.2a5.2,5.2,0,0,0-2.12.49,4.79,4.79,0,0,0-1.23.84c-0.42.38-1.47,1-3.78,1h-0.2a5.19,5.19,0,0,0-4.32,2.27,6.58,6.58,0,0,1-1.07,1.17A20.8,20.8,0,0,0,35.64,54.77h0.2A20.8,20.8,0,0,0,52.12,21a8,8,0,0,0-2.76-2.23A6.59,6.59,0,0,1,46.29,16,3.46,3.46,0,0,0,43.4,14.1l-0.42,0a5.12,5.12,0,0,0-1.18.15,4.88,4.88,0,0,1-1.11.12,6.25,6.25,0,0,1-3.5-1.13,4.09,4.09,0,0,0-2.31-.71h0Z"/><path class="cls-1" d="M54.57,56.39A4.24,4.24,0,0,1,52.79,56a3.08,3.08,0,0,1-1.46-1.59,3.3,3.3,0,0,0-2.47-1.78,4.12,4.12,0,0,1-.74-0.24A3,3,0,0,0,47,52.1a2,2,0,0,0-1.5.64,1.94,1.94,0,0,0-.47,1,1.06,1.06,0,0,1-.75.21h0a0.58,0.58,0,0,1-.36-0.06,0.75,0.75,0,0,1-.09-0.4,1.07,1.07,0,0,0,0-.12c0-4,4.42-11.65,8.26-15.51,1.6-1.61,2.73-2.18,3.25-2.18l0.12,0c1.17,0.38,2.33,1.91,3.12,4.1s0.83,4.24.59,4.62a2.54,2.54,0,0,0-.39,2.68,4.68,4.68,0,0,1,.53,2.58c-0.19,1.68-.77,4.69-2.6,6a3.44,3.44,0,0,1-2.08.72h0Z"/><path class="cls-2" d="M55.31,36.75h0m-0.11,0a5.91,5.91,0,0,1,2.21,3.18,9,9,0,0,1,.7,3.93,3.55,3.55,0,0,0-.39,3.66,3.61,3.61,0,0,1,.43,2C57.87,52.07,57.09,54,56,54.79a2.38,2.38,0,0,1-1.43.51A3.16,3.16,0,0,1,53.25,55a2,2,0,0,1-.92-1,4.36,4.36,0,0,0-3.24-2.41,3,3,0,0,1-.54-0.17A4,4,0,0,0,47,51a3.14,3.14,0,0,0-1.87.6c1.3-5.46,7.78-14.26,10.11-14.83m0.07-2.22c-3.86,0-12.65,12.77-12.62,18.8A1.46,1.46,0,0,0,44.15,55h0.14c1.44-.08,1.72-0.81,1.77-1.11a0.84,0.84,0,0,1,.2-0.43A0.91,0.91,0,0,1,47,53.2a1.86,1.86,0,0,1,.72.17,5.17,5.17,0,0,0,.95.3,2.3,2.3,0,0,1,1.69,1.14,4.15,4.15,0,0,0,2,2.15,5.36,5.36,0,0,0,2.24.53,4.54,4.54,0,0,0,2.73-.93c2.08-1.52,2.8-4.6,3-6.8a5.8,5.8,0,0,0-.64-3.19A1.49,1.49,0,0,1,60,45c1.15-1.63-.7-9.25-4.27-10.4a1.49,1.49,0,0,0-.46-0.07h0Z"/><path class="cls-3" d="M54.57,58.25a6.07,6.07,0,0,1-2.56-.6,4.92,4.92,0,0,1-2.38-2.53,1.64,1.64,0,0,0-1.16-.71,6,6,0,0,1-1.08-.34A0.68,0.68,0,0,0,46.81,54c-0.08.43-.46,1.67-2.48,1.78a2.14,2.14,0,0,1-1.88-.66A2.06,2.06,0,0,1,42,53.54c0-5.27,6.22-15.42,10.62-18.64,1.3-1,2.42-1.29,3.34-1,2.58,0.83,3.95,4.17,4.41,5.57,0.71,2.14,1.07,4.81.24,6a1,1,0,0,0-.25.8,6.49,6.49,0,0,1,.71,3.6c-0.27,2.42-1.07,5.65-3.34,7.32A5.3,5.3,0,0,1,54.57,58.25ZM47,52.45a2.58,2.58,0,0,1,1,.23,4.41,4.41,0,0,0,.81.25A3,3,0,0,1,51,54.51a3.43,3.43,0,0,0,1.64,1.77A3.92,3.92,0,0,0,56.86,56c1.84-1.34,2.5-4.15,2.74-6.27A5,5,0,0,0,59,46.91a2.19,2.19,0,0,1,.37-2.32c0.31-.45.34-2.31-0.44-4.64s-2.11-4.18-3.45-4.61a2.74,2.74,0,0,0-2,.78c-4.06,3-10,12.7-10,17.48a0.77,0.77,0,0,1,0,.13,0.59,0.59,0,0,0,.08.42,0.91,0.91,0,0,0,.67.14,1,1,0,0,0,1.07-.5,1.6,1.6,0,0,1,.39-0.8A1.69,1.69,0,0,1,47,52.45Z"/><path class="cls-3" d="M44.1,40.85l-0.17,0c-0.16,0-4-1-5.13-3.92-0.77-2.11-3.43-2.19-3.46-2.19a5,5,0,0,1-4.74-3.93c-0.46-2.49-3.46-2.58-3.49-2.58H27c-1.4-.23-4.08-1.45-4.26-4.39a3.16,3.16,0,0,0-2.59-2.92,0.75,0.75,0,0,1,.24-1.48,4.62,4.62,0,0,1,3.84,4.31c0.14,2.33,2.58,2.92,3,3,1.49,0,4.33.9,4.87,3.8,0.46,2.52,3.29,2.7,3.32,2.7s3.69,0.12,4.81,3.18c0.8,2.19,4,3,4.06,3A0.75,0.75,0,0,1,44.1,40.85Z"/><path class="cls-3" d="M35.84,55.53H35.63a21.55,21.55,0,0,1-14-37.78,5.79,5.79,0,0,0,1-1,5.84,5.84,0,0,1,5-2.59c2.25,0,3.12-.57,3.41-0.83a5.5,5.5,0,0,1,1.43-1,5.16,5.16,0,0,1,5.16.28,5.15,5.15,0,0,0,4,.9,5.57,5.57,0,0,1,1.85-.14A4.19,4.19,0,0,1,47,15.65a5.84,5.84,0,0,0,2.72,2.46,8.89,8.89,0,0,1,3,2.44h0a21.61,21.61,0,0,1,4.68,13.6A21.62,21.62,0,0,1,35.84,55.53Zm-8.3-39.91a4.43,4.43,0,0,0-3.7,2,7.27,7.27,0,0,1-1.2,1.3A20.05,20.05,0,0,0,35.65,54,20.12,20.12,0,0,0,55.89,34.15a20.09,20.09,0,0,0-4.36-12.66h0a7.36,7.36,0,0,0-2.51-2,7.31,7.31,0,0,1-3.41-3.14,2.69,2.69,0,0,0-2.29-1.48A4,4,0,0,0,42,15a6.63,6.63,0,0,1-5.2-1.11,3.71,3.71,0,0,0-3.71-.16,4,4,0,0,0-1,.71c-0.51.46-1.73,1.23-4.29,1.23h-0.2Z"/><path class="cls-1" d="M35.84,53.68A19.83,19.83,0,0,1,32,53.3a0.27,0.27,0,0,1-.23-0.11,3.35,3.35,0,0,1,.44-2.09,3.07,3.07,0,0,0,.33-1.35c0-5.07,3.06-6.57,4.88-7a2.52,2.52,0,0,0,1.83-1.81c0.64-2.41,3.81-3.49,5.14-3.85a2.78,2.78,0,0,0,2-2.27c0.71-4.56,5-6.47,6.36-6.95a2.57,2.57,0,0,0,1.57-1.55A2.49,2.49,0,0,0,54,24.05a0.74,0.74,0,0,1-.08-0.65,0.78,0.78,0,0,1,.47-0.47,3.18,3.18,0,0,1,.83-0.19h0a0.77,0.77,0,0,1,.69.36,0.7,0.7,0,0,1,0,.69,3,3,0,0,0,1,4,1.46,1.46,0,0,1,.58,1.7c-0.33,1.22-.55,2.46.08,3.27a0.79,0.79,0,0,1,.23.62,1.3,1.3,0,0,1-.73.7,2.81,2.81,0,0,0-1.6,2.39C54.92,46.44,46.64,53.68,35.84,53.68Z"/><path class="cls-2" d="M55.29,23.84h0M55,27.35a4.72,4.72,0,0,0,1.25,1.33l0.15,0.1a0.47,0.47,0,0,1,0,.42,5.07,5.07,0,0,0,.07,3.94,3.9,3.9,0,0,0-2.12,3.27C53.85,45.78,46,52.58,35.84,52.58a18.79,18.79,0,0,1-3-.23,4.62,4.62,0,0,1,.29-0.76,4.16,4.16,0,0,0,.44-1.84c0-4.1,2.2-5.5,4-5.95a3.61,3.61,0,0,0,2.63-2.6c0.5-1.9,3.47-2.83,4.36-3.06A3.88,3.88,0,0,0,47.48,35c0.62-4,4.48-5.66,5.65-6.09A3.71,3.71,0,0,0,55,27.35m0.23-5.7H55.12A4.3,4.3,0,0,0,54,21.9a1.85,1.85,0,0,0-1,2.64l0.08,0.13a1.38,1.38,0,0,1,.21,1.27,1.48,1.48,0,0,1-.91.88c-1.36.49-6.26,2.62-7.07,7.81A1.68,1.68,0,0,1,44.08,36c-1.79.47-5.16,1.74-5.93,4.63a1.41,1.41,0,0,1-1,1c-1.79.44-5.7,2.08-5.72,8.08a2,2,0,0,1-.21.87c-0.36.74-1.41,3.37,0.56,3.76a20.86,20.86,0,0,0,4.07.4c11.07,0,20.13-7.41,20.77-18.24a1.71,1.71,0,0,1,1-1.46c1-.46,2-1.6.9-3-0.3-.38-0.18-1.23.11-2.31a2.55,2.55,0,0,0-1-2.88,1.9,1.9,0,0,1-.66-2.61,1.85,1.85,0,0,0-1.66-2.65h0Z"/><path class="cls-3" d="M35.84,55.53a21.65,21.65,0,0,1-4.22-.41A2.06,2.06,0,0,1,30.09,54c-0.65-1.31.17-3.18,0.43-3.72a1.24,1.24,0,0,0,.14-0.54c0-6.57,4.41-8.35,6.29-8.81a0.66,0.66,0,0,0,.47-0.48c0.85-3.23,4.42-4.62,6.46-5.16a0.93,0.93,0,0,0,.67-0.76c0.87-5.58,6-7.85,7.57-8.41a0.73,0.73,0,0,0,.4-0.33,0.62,0.62,0,0,0-.08-0.7l-0.1-.17a2.54,2.54,0,0,1-.18-2.15,2.63,2.63,0,0,1,1.58-1.57,4.91,4.91,0,0,1,1.43-.3,2.59,2.59,0,0,1,2.42,3.73A1.17,1.17,0,0,0,58,26.29,3.29,3.29,0,0,1,59.31,30a3.24,3.24,0,0,0-.23,1.67,2.49,2.49,0,0,1,.56,2.18,3.05,3.05,0,0,1-1.75,1.94h0a1,1,0,0,0-.53.82C56.7,47.56,47.65,55.53,35.84,55.53ZM55.3,22.39h0a3.46,3.46,0,0,0-1,.21,1.13,1.13,0,0,0-.68.68,1,1,0,0,0,.07.88l0.06,0.09a2.11,2.11,0,0,1,.16,2.23,2.22,2.22,0,0,1-1.22,1C51.29,28,46.79,30,46,34.76a2.43,2.43,0,0,1-1.77,2c-1.73.46-4.74,1.6-5.4,4.1a2.16,2.16,0,0,1-1.57,1.56c-1.92.47-5.13,2-5.15,7.35a2.73,2.73,0,0,1-.29,1.2,3.49,3.49,0,0,0-.44,2.4,0.58,0.58,0,0,0,.47.3,20.17,20.17,0,0,0,3.93.38c11,0,19.42-7.37,20-17.53a2.45,2.45,0,0,1,1.4-2.09,1.61,1.61,0,0,0,.92-0.93,1.09,1.09,0,0,0-.3-0.92c-0.54-.69-0.33-1.83,0-3a1.8,1.8,0,0,0-.66-2,2.66,2.66,0,0,1-.94-3.59A1.09,1.09,0,0,0,55.3,22.39Zm2.27,12.69h0Z"/><path class="cls-1" d="M35.84,53.68a19.72,19.72,0,0,1-13.65-5.49A1.58,1.58,0,0,0,22.83,48,0.38,0.38,0,0,1,23,48a1.07,1.07,0,0,1,.62.33,4.15,4.15,0,0,0,2.75,1.24,2.24,2.24,0,0,0,1-.22l0.11-.07A2.25,2.25,0,0,1,28.56,49a1.43,1.43,0,0,1,.93.34,3.49,3.49,0,0,0,2.23.87,3,3,0,0,0,1.56-.45,0.74,0.74,0,0,1,.36-0.13c0.1,0,.26,0,0.4.5a3.34,3.34,0,0,0,3,2.34,3.38,3.38,0,0,0,1.13-.2,4.53,4.53,0,0,1,.76-0.06,2.91,2.91,0,0,1,2.18.79A19.69,19.69,0,0,1,35.84,53.68Z"/><path class="cls-2" d="M28.56,50.06a0.33,0.33,0,0,1,.24.1,4.58,4.58,0,0,0,2.92,1.12,4,4,0,0,0,1.5-.29,5.05,5.05,0,0,0,1.16,1.53,18.58,18.58,0,0,1-7-2,2.86,2.86,0,0,0,.53-0.21,1.11,1.11,0,0,0,.2-0.12,1.15,1.15,0,0,1,.48-0.14m-0.46.12h0m5.77,0.47h0M16.79,42.35h0a20.83,20.83,0,0,0,26,11.24h0a3.78,3.78,0,0,0-3.82-2.53,5.17,5.17,0,0,0-1.06.1A2,2,0,0,1,35.1,49.8a1.49,1.49,0,0,0-1.45-1.3h0a1.8,1.8,0,0,0-.94.3,1.87,1.87,0,0,1-1,.28,2.41,2.41,0,0,1-1.53-.62,2.52,2.52,0,0,0-1.63-.59,3.33,3.33,0,0,0-1.69.5,1.19,1.19,0,0,1-.51.09,3.09,3.09,0,0,1-2-1A2,2,0,0,0,23,46.89a1.48,1.48,0,0,0-.63.14,0.48,0.48,0,0,1-.63-0.23,1.1,1.1,0,0,0-.36-0.42,1.59,1.59,0,0,0-.93-0.28,1.37,1.37,0,0,1-1.58-1.45c0.1-1.69-2.07-2.31-2.07-2.31h0Zm26,11.24h0Z"/><path class="cls-3" d="M35.84,55.53A21.57,21.57,0,0,1,16.11,42.66a0.75,0.75,0,0,1,.89-1c1,0.29,2.72,1.27,2.61,3.07a0.6,0.6,0,0,0,.1.44,1.08,1.08,0,0,0,.74.21,2.34,2.34,0,0,1,1.36.42,2,2,0,0,1,.47.48,2.49,2.49,0,0,1,2.57.68,2,2,0,0,0,1.68.75,3.58,3.58,0,0,1,4.13.19,1.33,1.33,0,0,0,1.64.29,2.46,2.46,0,0,1,1.36-.41,2.23,2.23,0,0,1,2.16,1.84,1.87,1.87,0,0,0,.8.9,1.24,1.24,0,0,0,1,0l0.1,0c1.5-.35,4.65-0.19,5.76,2.9a0.75,0.75,0,0,1-.46,1A21.49,21.49,0,0,1,35.84,55.53ZM20.48,46.86a20.09,20.09,0,0,0,21.24,6.29c-1.09-1.68-3.28-1.33-3.63-1.26a2.72,2.72,0,0,1-2.09,0,3.36,3.36,0,0,1-1.6-1.81c-0.23-.81-0.61-0.84-0.75-0.8a1.09,1.09,0,0,0-.54.18,2.79,2.79,0,0,1-3.38-.4,2.13,2.13,0,0,0-2.43,0c-0.22.12-1.58,0.74-3.44-.93a1,1,0,0,0-1.16-.34,1.24,1.24,0,0,1-.94,0,1.21,1.21,0,0,1-.69-0.63A0.4,0.4,0,0,0,20.93,47,0.85,0.85,0,0,0,20.48,46.86Z"/></svg>