<svg id="Layer_1" data-name="Layer 1" xmlns="http://www.w3.org/2000/svg" viewBox="0 0 70 70"><defs><style>.cls-1{fill:#78c144;}.cls-2{fill:#fff;}.cls-3{fill:#231f20;}.cls-4{fill:#f36f3b;}</style></defs><path class="cls-1" d="M26.41,30.3c-3-3.61-9.74-13.44-5.34-24.07C23.64,8.85,29.76,16.74,26.41,30.3Z"/><path class="cls-2" d="M21.47,8.38c2.49,3.13,6.06,9.55,4.35,19.37-2.88-4-6.76-11.37-4.35-19.37m-0.78-4c-7.39,14.75,6.24,28.14,6.24,28.14,5.7-18.86-6.24-28.14-6.24-28.14h0Z"/><path class="cls-3" d="M26.93,33.29a0.75,0.75,0,0,1-.53-0.21c-0.14-.14-13.93-13.94-6.38-29a0.75,0.75,0,0,1,1.13-.26c0.12,0.1,12.28,9.81,6.5,28.95a0.75,0.75,0,0,1-.53.51Zm-6-27.65C15.82,17.2,23.82,27.86,26.58,31,30.47,16.38,23.29,7.93,20.94,5.64Z"/><path class="cls-1" d="M17.84,36.35a8.76,8.76,0,0,1-1.74-.17,8.88,8.88,0,0,1,7.15-3.05,13.79,13.79,0,0,1,1.83.12,10.45,10.45,0,0,1-7.24,3.1h0Z"/><path class="cls-2" d="M23.25,33.74h0.28a9.45,9.45,0,0,1-5.69,2H17.38a8.71,8.71,0,0,1,5.87-2m0-1.23a9.27,9.27,0,0,0-8.17,4,8.19,8.19,0,0,0,2.76.43c2.19,0,5.39-.73,8.49-4.11a13.26,13.26,0,0,0-3.08-.35h0Z"/><path class="cls-1" d="M25.34,31.2C20.82,30,9.63,25.83,7.1,14.61,10.7,15.26,20.26,18.18,25.34,31.2Z"/><path class="cls-2" d="M8.66,16.13c3.83,1.12,10.46,4.31,14.72,13.32-4.67-1.63-12.08-5.39-14.72-13.32m-2.92-2.8C8.21,29.64,27.06,32.73,27.06,32.73,20.84,14,5.74,13.33,5.74,13.33h0Z"/><path class="cls-3" d="M17.87,37.73a8.9,8.9,0,0,1-3.06-.49,0.75,0.75,0,0,1-.36-1.1c3.92-6.09,12-4,12.07-4a0.75,0.75,0,0,1,.36,1.23C23.61,36.94,20.22,37.73,17.87,37.73Zm-2.79-1.19h0Zm1.26-.44a9.83,9.83,0,0,0,8.44-2.76C22.75,33.09,18.87,33.11,16.34,36.1Z"/><path class="cls-4" d="M29.21,40.29a5.15,5.15,0,0,1-.78-0.57l0,0a4.37,4.37,0,0,1,5.89-6.47l0,0a4.31,4.31,0,0,1,.58.64L35,34l27.29,30.6Z"/><path class="cls-2" d="M31.35,33.09a3.37,3.37,0,0,1,2.26.87h0l0,0a3.4,3.4,0,0,1,.45.5l0.13,0.16L55.15,58.11,29.8,39.49l-0.17-.11A3.4,3.4,0,0,1,29.1,39l0,0h0a3.38,3.38,0,0,1-.21-4.76,3.34,3.34,0,0,1,2.5-1.1h0m0-2a5.37,5.37,0,0,0-3.64,9.33h0l0.05,0a5.39,5.39,0,0,0,.86.63l34.3,25.21a0.83,0.83,0,0,0,.5.17,0.84,0.84,0,0,0,.62-1.4L35.7,33.31A5.4,5.4,0,0,0,35,32.52l0-.05h0a5.36,5.36,0,0,0-3.6-1.38h0Z"/><path class="cls-3" d="M63.42,67.23a1.59,1.59,0,0,1-.95-0.32L28.18,41.7A5.74,5.74,0,0,1,27.26,41L27.21,41h0a6.13,6.13,0,0,1,8.17-9.13,0.77,0.77,0,0,1,.14.12h0a6.15,6.15,0,0,1,.8.9L64.6,64.58A1.59,1.59,0,0,1,63.42,67.23ZM28.24,39.89l0,0a4.66,4.66,0,0,0,.74.54L63.37,65.7a0.07,0.07,0,0,0,.11,0c0.05-.06,0-0.08,0-0.12L35.14,33.81a5.13,5.13,0,0,0-.66-0.74l0,0,0,0a4.62,4.62,0,0,0-6.22,6.84Z"/><path class="cls-3" d="M27.06,33.48H26.93c-0.19,0-19.42-3.36-21.94-20a0.75,0.75,0,0,1,.78-0.86c0.16,0,15.69.93,22,19.9A0.75,0.75,0,0,1,27.06,33.48ZM6.65,14.2C9.13,26.59,21.81,30.7,25.9,31.71,20.63,17.48,9.89,14.72,6.65,14.2Z"/><line class="cls-2" x1="32.14" y1="39.04" x2="34.02" y2="36.82"/><path class="cls-3" d="M32.14,39.73a0.69,0.69,0,0,1-.52-1.13l1.89-2.22a0.69,0.69,0,0,1,1,.89l-1.89,2.22A0.68,0.68,0,0,1,32.14,39.73Z"/><line class="cls-2" x1="29.68" y1="36.84" x2="31.57" y2="34.62"/><path class="cls-3" d="M29.68,37.53a0.69,0.69,0,0,1-.52-1.13L31,34.17a0.69,0.69,0,1,1,1,.89l-1.89,2.22A0.68,0.68,0,0,1,29.68,37.53Z"/><line class="cls-2" x1="34.63" y1="41.29" x2="36.52" y2="39.06"/><path class="cls-3" d="M34.63,42a0.69,0.69,0,0,1-.52-1.13L36,38.62a0.69,0.69,0,0,1,1,.89l-1.89,2.22A0.68,0.68,0,0,1,34.63,42Z"/><line class="cls-2" x1="37.13" y1="43.54" x2="39.02" y2="41.32"/><path class="cls-3" d="M37.13,44.23a0.69,0.69,0,0,1-.52-1.13l1.89-2.22a0.69,0.69,0,0,1,1,.89L37.66,44A0.68,0.68,0,0,1,37.13,44.23Z"/><line class="cls-2" x1="39.85" y1="45.59" x2="41.13" y2="44.04"/><path class="cls-3" d="M39.85,46.28a0.68,0.68,0,0,1-.53-1.12l1.28-1.55a0.69,0.69,0,1,1,1.06.87L40.38,46A0.68,0.68,0,0,1,39.85,46.28Z"/><line class="cls-2" x1="42.77" y1="47.38" x2="43.41" y2="46.6"/><path class="cls-3" d="M42.77,48.07a0.69,0.69,0,0,1-.53-1.12l0.64-.78a0.69,0.69,0,0,1,1.06.87l-0.64.78A0.69,0.69,0,0,1,42.77,48.07Z"/><line class="cls-2" x1="12.13" y1="19.37" x2="19.02" y2="25.64"/><path class="cls-3" d="M19,26.39a0.75,0.75,0,0,1-.5-0.2l-6.89-6.27a0.75,0.75,0,1,1,1-1.11l6.89,6.27A0.75,0.75,0,0,1,19,26.39Z"/></svg>