<svg id="Layer_1" data-name="Layer 1" xmlns="http://www.w3.org/2000/svg" viewBox="0 0 70 70"><defs><style>.cls-1{fill:#78c144;}.cls-2{fill:#fff;}.cls-3{fill:#231f20;}</style></defs><path class="cls-1" d="M46.25,59.29l-0.57,0L18.77,13.91A9.52,9.52,0,0,0,25,10.21L51.9,55.61a5.63,5.63,0,0,1-5.64,3.68h0Z"/><path class="cls-2" d="M24.78,12.06L50.66,55.69a4.5,4.5,0,0,1-4.34,2.51L20.49,14.66a10.47,10.47,0,0,0,4.29-2.59m0.21-4a8.7,8.7,0,0,1-7.71,4.81H16.89L45,60.3a7.3,7.3,0,0,0,1.24.09,6.78,6.78,0,0,0,6.85-4.9L25,8.11h0Z"/><path class="cls-3" d="M46.2,61.13a8,8,0,0,1-1.33-.1,0.75,0.75,0,0,1-.5-0.35L16.25,13.3a0.75,0.75,0,0,1,0-.77,0.7,0.7,0,0,1,.67-0.37A7.88,7.88,0,0,0,24.31,7.8,0.75,0.75,0,0,1,25,7.36a0.76,0.76,0,0,1,.68.37L53.75,55.11a0.75,0.75,0,0,1,.07.61A7.54,7.54,0,0,1,46.2,61.13Zm-0.73-1.53a6.22,6.22,0,0,0,6.81-4L25,9.58a9.22,9.22,0,0,1-6.8,4Z"/><path class="cls-3" d="M48,56.7a0.75,0.75,0,0,1-.65-0.37L22.81,15a0.75,0.75,0,1,1,1.29-.77L48.62,55.57A0.75,0.75,0,0,1,48,56.7Z"/><path class="cls-1" d="M37.35,8.89a5.53,5.53,0,0,1,3.44-1.26,6.91,6.91,0,0,1,3.78,1.29V61.66A9.22,9.22,0,0,0,41,61a10.14,10.14,0,0,0-3.7.72V8.89Z"/><path class="cls-2" d="M40.79,8.73a5.48,5.48,0,0,1,2.68.79V60.15A10.31,10.31,0,0,0,41,59.86a11,11,0,0,0-2.6.32V9.45a4.21,4.21,0,0,1,2.34-.73m0-2.2a6.73,6.73,0,0,0-4.54,1.85v55.1A9.09,9.09,0,0,1,41,62.06a8.37,8.37,0,0,1,4.62,1.41V8.37a8.13,8.13,0,0,0-4.88-1.85h0Z"/><path class="cls-2" d="M40.79,6.53a8.13,8.13,0,0,1,4.88,1.85v55.1A8.37,8.37,0,0,0,41,62.06a9.09,9.09,0,0,0-4.8,1.41V8.37a6.73,6.73,0,0,1,4.54-1.85m0-1.06a7.79,7.79,0,0,0-5.24,2.11,1.06,1.06,0,0,0-.36.8v55.1a1.06,1.06,0,0,0,1.67.87A8.12,8.12,0,0,1,41,63.13a7.34,7.34,0,0,1,4,1.24,1.06,1.06,0,0,0,1.64-.89V8.37a1.06,1.06,0,0,0-.36-0.8,9.19,9.19,0,0,0-5.58-2.12h0Z"/><path class="cls-3" d="M36.25,64.22a0.75,0.75,0,0,1-.75-0.75V8.37a0.75,0.75,0,0,1,.25-0.56c5.15-4.55,10.36,0,10.41,0a0.75,0.75,0,0,1,.25.56v55.1a0.75,0.75,0,0,1-1.16.63,8,8,0,0,0-8.58,0A0.75,0.75,0,0,1,36.25,64.22ZM37,8.72V62.21a9.2,9.2,0,0,1,7.92,0V8.73A6.22,6.22,0,0,0,37,8.72Z"/><path class="cls-3" d="M41,58.68a0.75,0.75,0,0,1-.75-0.75V9.88a0.75,0.75,0,0,1,1.5,0V57.93A0.75,0.75,0,0,1,41,58.68Z"/></svg>