<svg id="Layer_1" data-name="Layer 1" xmlns="http://www.w3.org/2000/svg" viewBox="0 0 70 70"><defs><style>.cls-1{fill:#4f3c29;}.cls-2{fill:#211e1c;}.cls-3{fill:#7f5d3d;}.cls-4{fill:#231f20;}</style></defs><path class="cls-1" d="M18.53,41.93c-0.06.14-.09,0.24-0.13,0.34C18,43.59,18.36,44.8,19,45a0.69,0.69,0,0,0,.22,0,2.48,2.48,0,0,0,1.86-1.9c0-.1.06-0.19,0.08-0.29l0-.11a5.84,5.84,0,0,0-.07-4A6,6,0,0,0,18.53,41.93Z"/><path class="cls-2" d="M29.26,44.65l-0.05-.09A5.84,5.84,0,0,0,26.3,41.8a6,6,0,0,0,.49,4.09c0.06,0.14.11,0.24,0.16,0.33a2.66,2.66,0,0,0,2,1.57,0.75,0.75,0,0,0,.36-0.08,1.17,1.17,0,0,0,.5-0.87,3.2,3.2,0,0,0-.38-1.92Z"/><path class="cls-2" d="M27,23.63c0-.14.07-0.24,0.09-0.35a3.21,3.21,0,0,0-.14-2,1.18,1.18,0,0,0-.71-0.71l-0.15,0a2.38,2.38,0,0,0-1.74,2.07c0,0.1,0,.2-0.05.3V23a5.87,5.87,0,0,0,.44,4A6,6,0,0,0,27,23.63Z"/><path class="cls-3" d="M19.51,33.82c0.69,0,1.38-1.09,1.32-2.47,0-.1,0-0.21,0-0.31V31a5.87,5.87,0,0,0-1.47-3.78A6,6,0,0,0,18,31.11c0,0.15,0,.25,0,0.36C18.09,32.81,18.86,33.82,19.51,33.82Z"/><path class="cls-1" d="M25.43,34a3.2,3.2,0,0,0-.31,1.93,1.17,1.17,0,0,0,.53.85,0.73,0.73,0,0,0,.32.07,2.6,2.6,0,0,0,2-1.64Q28,35,28.07,34.9l0-.1a5.84,5.84,0,0,0,.47-4,6,6,0,0,0-3,2.83Z"/><path class="cls-2" d="M35.11,38.05V38a5.87,5.87,0,0,0-.24-4.05,6,6,0,0,0-2.43,3.32c0,0.14-.08.24-0.11,0.35a3.2,3.2,0,0,0,0,2,1.17,1.17,0,0,0,.67.74l0.18,0a2.45,2.45,0,0,0,1.8-2C35.07,38.25,35.09,38.15,35.11,38.05Z"/><path class="cls-3" d="M35.69,45.06c-1,1-1.14,2.25-.66,2.71a0.94,0.94,0,0,0,.67.22,3,3,0,0,0,2-1l0.2-.23L38,46.69a5.85,5.85,0,0,0,1.69-3.63,6.07,6.07,0,0,0-3.72,1.76Z"/><path class="cls-1" d="M47.78,42.54a2.88,2.88,0,0,0-2,1.09l-0.19.24L45.49,44A5.84,5.84,0,0,0,44,47.66a6,6,0,0,0,3.64-1.93l0.25-.26a3.21,3.21,0,0,0,.82-1.77,1.18,1.18,0,0,0-.28-1A0.9,0.9,0,0,0,47.78,42.54Z"/><path class="cls-3" d="M32.11,26.36c0,0.1,0,.2,0,0.31,0.24,1.27,1.07,2.13,1.69,2.13H34a1.17,1.17,0,0,0,.73-0.69,3.2,3.2,0,0,0,.2-1.94c0-.1,0-0.2-0.07-0.3V25.8a5.87,5.87,0,0,0-2-3.54,6,6,0,0,0-.74,4v0.05Z"/><path class="cls-1" d="M42.5,23.65c0-.14.07-0.25,0.1-0.35,0.32-1.34-.17-2.52-0.81-2.67l-0.16,0a2.4,2.4,0,0,0-1.76,2c0,0.1,0,.2-0.06.3V23a5.87,5.87,0,0,0,.38,4A6,6,0,0,0,42.5,23.65Z"/><path class="cls-1" d="M43.11,35.8V35.74a5.88,5.88,0,0,0-2-3.54,6,6,0,0,0-.74,4c0,0.15,0,.26.05,0.36,0.24,1.27,1.07,2.12,1.69,2.12h0.13c0.65-.12,1.19-1.27.93-2.63C43.16,36,43.14,35.9,43.11,35.8Z"/><path class="cls-3" d="M49.93,34.5l-0.3.2c-1.13.8-1.54,2-1.16,2.54a1.23,1.23,0,0,0,1,.38,3.24,3.24,0,0,0,1.8-.63l0.24-.19,0,0a5.87,5.87,0,0,0,2.38-3.29,5.46,5.46,0,0,0-.59,0A6.2,6.2,0,0,0,49.93,34.5Z"/><path class="cls-2" d="M49.26,27.5l0,0c0-.09.08-0.19,0.12-0.29,0.48-1.29.15-2.52-.47-2.75a0.71,0.71,0,0,0-.25,0,2.5,2.5,0,0,0-1.9,1.82c0,0.1-.07.19-0.09,0.29l0,0.11a5.84,5.84,0,0,0-.11,4A6,6,0,0,0,49.26,27.5Z"/><path class="cls-4" d="M20.72,36.68a7.88,7.88,0,0,0-4.05,4.54c-0.06.14-.11,0.29-0.16,0.44-0.75,2.31.09,4.67,1.87,5.25a2.71,2.71,0,0,0,.84.13,3.3,3.3,0,0,0,1.91-.66A5.16,5.16,0,0,0,23,43.75c0-.14.09-0.29,0.12-0.43,0.9-3.24,0-5.21-.54-6.11A1.46,1.46,0,0,0,20.72,36.68Zm1.41,6.37v0c0,0.13-.06.25-0.1,0.38a4.15,4.15,0,0,1-1.48,2.12,2.09,2.09,0,0,1-1.86.39c-1.26-.41-1.81-2.2-1.23-4,0-.13.09-0.25,0.14-0.38a6.91,6.91,0,0,1,3.54-4,0.47,0.47,0,0,1,.19,0,0.47,0.47,0,0,1,.39.22C22.21,38.51,22.92,40.2,22.13,43.05Z"/><path class="cls-4" d="M31,43.6h0c-1.69-2.91-3.69-3.68-4.74-3.89a1.46,1.46,0,0,0-1.67.94A7.88,7.88,0,0,0,25,46.73c0.06,0.14.13,0.28,0.2,0.42A4.56,4.56,0,0,0,29,49.78a2.72,2.72,0,0,0,1.27-.31c1.66-.87,2.09-3.33,1-5.48C31.12,43.86,31,43.73,31,43.6Zm-1.2,5c-1.17.62-2.84-.24-3.71-1.91-0.06-.12-0.12-0.23-0.17-0.37A6.9,6.9,0,0,1,25.5,41a0.47,0.47,0,0,1,.44-0.31H26c0.88,0.17,2.58.84,4.07,3.41v0c0.07,0.11.13,0.22,0.19,0.34C31.18,46.12,30.93,48,29.76,48.59Z"/><path class="cls-4" d="M22.43,22.25c0,0.15-.06.3-0.08,0.44h0c-0.58,3.31.45,5.2,1.12,6a1.48,1.48,0,0,0,1.15.55,1.45,1.45,0,0,0,.73-0.2,7.88,7.88,0,0,0,3.6-4.9q0.07-.22.12-0.45a5.16,5.16,0,0,0-.26-3.2A2.9,2.9,0,0,0,24,19.46,5.16,5.16,0,0,0,22.43,22.25Zm3.69-2.64a1.7,1.7,0,0,1,.37,0,2.08,2.08,0,0,1,1.41,1.28,4.16,4.16,0,0,1,.2,2.57c0,0.13-.06.25-0.1,0.39a6.91,6.91,0,0,1-3.14,4.32,0.47,0.47,0,0,1-.6-0.12c-0.56-.7-1.43-2.31-0.91-5.23v0c0-.13,0-0.25.07-0.38a4.16,4.16,0,0,1,1.27-2.25A2.23,2.23,0,0,1,26.13,19.61Z"/><path class="cls-4" d="M19.5,35.82h0.12A3.05,3.05,0,0,0,22,34.36a5.16,5.16,0,0,0,.81-3.1c0-.15,0-0.3,0-0.45h0c-0.29-3.35-1.78-4.9-2.64-5.53a1.46,1.46,0,0,0-1.91.14A7.89,7.89,0,0,0,16,31.09c0,0.15,0,.31,0,0.47a5.17,5.17,0,0,0,1.08,3A3.08,3.08,0,0,0,19.5,35.82ZM17,31.11a6.91,6.91,0,0,1,1.92-5A0.46,0.46,0,0,1,19.28,26a0.48,0.48,0,0,1,.28.09c0.72,0.53,2,1.86,2.23,4.81v0c0,0.13,0,.26,0,0.39a4.15,4.15,0,0,1-.64,2.5,2.08,2.08,0,0,1-1.61,1,2.06,2.06,0,0,1-1.69-.87A4.16,4.16,0,0,1,17,31.51C17,31.38,17,31.25,17,31.11Z"/><path class="cls-4" d="M28.46,28.74a7.89,7.89,0,0,0-4.62,4c-0.08.13-.15,0.27-0.22,0.41a5.16,5.16,0,0,0-.47,3.17,3.06,3.06,0,0,0,1.63,2.28,2.74,2.74,0,0,0,1.19.27,3.43,3.43,0,0,0,1.6-.42A5.16,5.16,0,0,0,29.75,36c0.07-.14.13-0.28,0.18-0.41h0c1.32-3.09.74-5.16,0.28-6.12A1.46,1.46,0,0,0,28.46,28.74Zm0.85,1.21c0.39,0.81.86,2.57-.3,5.3v0c0,0.12-.1.24-0.15,0.36a4.16,4.16,0,0,1-1.74,1.9,1.91,1.91,0,0,1-3-1.43,4.16,4.16,0,0,1,.39-2.55c0.06-.12.12-0.24,0.19-0.36a6.9,6.9,0,0,1,4-3.49l0.14,0A0.47,0.47,0,0,1,29.31,29.94Z"/><path class="cls-4" d="M37,38.88c0-.15.07-0.29,0.1-0.43,0.74-3.28-.2-5.21-0.82-6.07a1.48,1.48,0,0,0-1.86-.45,7.89,7.89,0,0,0-3.83,4.72q-0.08.22-.14,0.45a5.16,5.16,0,0,0,.11,3.21,3.06,3.06,0,0,0,2,1.95,2.64,2.64,0,0,0,.7.09C34.82,42.34,36.41,40.93,37,38.88Zm-5.52,1.06a4.16,4.16,0,0,1-.07-2.58c0-.13.07-0.25,0.12-0.39a6.91,6.91,0,0,1,3.35-4.16,0.45,0.45,0,0,1,.21,0,0.48,0.48,0,0,1,.38.2c0.53,0.73,1.31,2.37.66,5.27v0c0,0.13-.05.25-0.08,0.38-0.5,1.82-1.94,3-3.21,2.66A2.08,2.08,0,0,1,31.45,39.93Z"/><path class="cls-4" d="M40.21,41a7.9,7.9,0,0,0-5.63,2.31c-0.12.1-.23,0.21-0.34,0.32a5.16,5.16,0,0,0-1.44,2.87,3.06,3.06,0,0,0,.83,2.67,2.9,2.9,0,0,0,2.05.78,4,4,0,0,0,.65-0.06,5.16,5.16,0,0,0,2.8-1.55l0.3-.34c2.22-2.52,2.32-4.67,2.18-5.73A1.46,1.46,0,0,0,40.21,41ZM38.7,47.39h0l-0.26.29A4.15,4.15,0,0,1,36.18,49a1.91,1.91,0,0,1-2.38-2.28A4.16,4.16,0,0,1,35,44.37l0.29-.28a6.94,6.94,0,0,1,4.81-2h0.12a0.46,0.46,0,0,1,.45.41C40.75,43.34,40.66,45.16,38.7,47.39Z"/><path class="cls-4" d="M47,40.63a5.16,5.16,0,0,0-2.73,1.68c-0.1.11-.2,0.23-0.28,0.35-2.1,2.62-2.1,4.77-1.92,5.82a1.48,1.48,0,0,0,1.44,1.22h0A7.88,7.88,0,0,0,49,47.13l0.32-.34c1.6-1.83,1.76-4.32.35-5.56A3.06,3.06,0,0,0,47,40.63Zm1.63,5.5-0.28.29a6.91,6.91,0,0,1-4.83,2.27h0A0.47,0.47,0,0,1,43,48.31c-0.16-.88-0.14-2.71,1.71-5h0L45,43a4.16,4.16,0,0,1,2.19-1.36,2.82,2.82,0,0,1,.59-0.07A1.88,1.88,0,0,1,49,42C50,42.86,49.84,44.72,48.6,46.13Z"/><path class="cls-4" d="M30.19,27c0.41,2.18,2,3.76,3.67,3.76a2.64,2.64,0,0,0,.49,0c1.84-.34,3-2.57,2.53-5,0-.15-0.06-0.29-0.1-0.44h0c-0.76-3.27-2.45-4.6-3.39-5.11a1.46,1.46,0,0,0-1.87.41,7.88,7.88,0,0,0-1.39,5.92C30.14,26.72,30.16,26.88,30.19,27Zm2.13-5.79a0.46,0.46,0,0,1,.37-0.19,0.49,0.49,0,0,1,.23.06c0.79,0.42,2.22,1.57,2.89,4.45v0c0,0.12.06,0.25,0.09,0.38,0.35,1.85-.43,3.55-1.73,3.8s-2.64-1.06-3-2.91c0-.13,0-0.26-0.06-0.4A6.91,6.91,0,0,1,32.31,21.25Z"/><path class="cls-4" d="M40,29.26a1.46,1.46,0,0,0,.72-0.19,7.87,7.87,0,0,0,3.67-4.85c0-.15.09-0.3,0.13-0.45a5.16,5.16,0,0,0-.22-3.2,3.05,3.05,0,0,0-2.08-1.87c-1.82-.43-3.76,1.15-4.32,3.51,0,0.15-.06.29-0.09,0.44h0c-0.63,3.3.38,5.2,1,6A1.47,1.47,0,0,0,40,29.26Zm-1.21-6.43v0c0-.13,0-0.25.07-0.38,0.39-1.65,1.56-2.82,2.73-2.82a1.73,1.73,0,0,1,.39,0A2.08,2.08,0,0,1,43.41,21a4.15,4.15,0,0,1,.16,2.57c0,0.13-.07.25-0.11,0.39a6.91,6.91,0,0,1-3.2,4.27,0.46,0.46,0,0,1-.6-0.13C39.11,27.36,38.27,25.74,38.83,22.83Z"/><path class="cls-4" d="M41.66,30.18a1.46,1.46,0,0,0-1.87.41,7.88,7.88,0,0,0-1.39,5.92q0,0.23.07,0.46c0.41,2.18,2,3.76,3.67,3.76a2.64,2.64,0,0,0,.49,0c1.84-.34,3-2.57,2.53-5,0-.15-0.06-0.3-0.1-0.44h0C44.29,32,42.6,30.69,41.66,30.18Zm0.77,9.53c-1.29.24-2.64-1.06-3-2.91,0-.13,0-0.26-0.06-0.4a6.9,6.9,0,0,1,1.2-5.2A0.46,0.46,0,0,1,41,31a0.48,0.48,0,0,1,.23.06c0.79,0.42,2.22,1.57,2.89,4.45v0c0,0.12.06,0.25,0.09,0.38C44.51,37.76,43.74,39.47,42.43,39.71Z"/><path class="cls-4" d="M54.82,31.59a7.89,7.89,0,0,0-6,1.22l-0.39.25a5.16,5.16,0,0,0-2,2.55,3.06,3.06,0,0,0,.32,2.78,3.1,3.1,0,0,0,2.61,1.21,5.19,5.19,0,0,0,3-1l0.35-.27c2.65-2.06,3.15-4.15,3.22-5.22A1.46,1.46,0,0,0,54.82,31.59Zm-2.67,6h0l-0.3.24c-1.54,1.09-3.41,1.1-4.17,0a2.09,2.09,0,0,1-.19-1.89,4.16,4.16,0,0,1,1.58-2l0.34-.22a7.19,7.19,0,0,1,3.94-1.22,6.25,6.25,0,0,1,1.29.13,0.47,0.47,0,0,1,.37.49C54.93,34,54.49,35.73,52.15,37.55Z"/><path class="cls-4" d="M45,32a1.46,1.46,0,0,0,1.82.61,7.88,7.88,0,0,0,4.24-4.36c0.07-.14.13-0.28,0.18-0.43a5.16,5.16,0,0,0,.18-3.2,2.9,2.9,0,0,0-4.59-1.71,5.16,5.16,0,0,0-2,2.54c-0.05.14-.1,0.29-0.14,0.43C43.73,29.11,44.49,31.12,45,32Zm0.68-5.82v0c0-.12.08-0.25,0.12-0.37a4.15,4.15,0,0,1,1.57-2.05,2.35,2.35,0,0,1,1.27-.42,1.72,1.72,0,0,1,.6.11,2.08,2.08,0,0,1,1.22,1.46,4.16,4.16,0,0,1-.16,2.58c0,0.12-.1.24-0.16,0.38a6.91,6.91,0,0,1-3.71,3.84,0.47,0.47,0,0,1-.58-0.2C45.43,30.76,44.8,29,45.71,26.22Z"/></svg>