<?xml version="1.0" encoding="utf-8"?>
<!-- Generator: Adobe Illustrator 21.0.2, SVG Export Plug-In . SVG Version: 6.00 Build 0)  -->
<svg version="1.1" id="Layer_1" xmlns="http://www.w3.org/2000/svg" xmlns:xlink="http://www.w3.org/1999/xlink" x="0px" y="0px"
	 viewBox="0 0 68 68" style="enable-background:new 0 0 68 68;" xml:space="preserve">
<style type="text/css">
	.st0{fill:#78C500;}
</style>
<g>
	<path class="st0" d="M49.3,28c-0.2,0-0.5-0.1-0.6-0.3C47.5,26,45.5,25,43.4,25c-0.4,0-0.7-0.3-0.7-0.7s0.3-0.7,0.7-0.7
		c2.6,0,5,1.3,6.5,3.4c0.2,0.3,0.2,0.8-0.2,1C49.6,28,49.4,28,49.3,28z"/>
</g>
<path d="M66.8,51.9l-9.1-9.1c-0.6-0.6-1.6-0.8-2.5-0.4L51.9,39c3.9-4.4,3.7-11.2-0.5-15.5c-4.4-4.4-11.6-4.4-16,0
	c-4.4,4.4-4.4,11.6,0,16c2.2,2.2,5.1,3.3,8,3.3c2.7,0,5.3-0.9,7.5-2.8l3.3,3.3C54,43.6,54,44,54,44.3c0,0.6,0.2,1.1,0.6,1.5l9.1,9.1
	c0.4,0.4,1,0.6,1.5,0.6s1.1-0.2,1.5-0.6C67.7,54.1,67.7,52.7,66.8,51.9z M36.4,38.5c-3.8-3.8-3.8-10.1,0-13.9c1.9-1.9,4.4-2.9,7-2.9
	c2.5,0,5,1,7,2.9c3.8,3.8,3.8,10.1,0,13.9C46.5,42.3,40.3,42.3,36.4,38.5z M65.8,53.9L65.8,53.9c-0.3,0.3-0.7,0.3-1,0l-9.1-9.1
	c-0.1-0.1-0.2-0.3-0.2-0.5c0-0.2,0.1-0.4,0.2-0.5c0.1-0.1,0.3-0.2,0.5-0.2c0.2,0,0.4,0.1,0.5,0.2l9.1,9.1C66,53.2,66,53.6,65.8,53.9
	z"/>
<g>
	<path d="M51.8,67.2H1.4c-0.4,0-0.7-0.3-0.7-0.7V2.2c0-0.4,0.3-0.7,0.7-0.7h50.3c0.4,0,0.7,0.3,0.7,0.7v13.8c0,0.4-0.3,0.7-0.7,0.7
		S51,16.4,51,15.9v-13H2.2v62.8H51V50.1c0-0.4,0.3-0.7,0.7-0.7s0.7,0.3,0.7,0.7v16.4C52.5,66.9,52.2,67.2,51.8,67.2z"/>
</g>
<g>
	<path class="st0" d="M43.4,12.5H9.9c-0.4,0-0.7-0.3-0.7-0.7c0-0.4,0.3-0.7,0.7-0.7h33.5c0.4,0,0.7,0.3,0.7,0.7
		C44.1,12.1,43.8,12.5,43.4,12.5z"/>
</g>
<g>
	<path class="st0" d="M36.3,49.6H9.9c-0.4,0-0.7-0.3-0.7-0.7s0.3-0.7,0.7-0.7h26.4c0.4,0,0.7,0.3,0.7,0.7S36.7,49.6,36.3,49.6z"/>
</g>
<g>
	<path class="st0" d="M44.2,56.7H9.9c-0.4,0-0.7-0.3-0.7-0.7s0.3-0.7,0.7-0.7h34.3c0.4,0,0.7,0.3,0.7,0.7S44.6,56.7,44.2,56.7z"/>
</g>
<g>
	<path class="st0" d="M30.9,19.6h-21c-0.4,0-0.7-0.3-0.7-0.7c0-0.4,0.3-0.7,0.7-0.7h21c0.4,0,0.7,0.3,0.7,0.7
		C31.7,19.3,31.3,19.6,30.9,19.6z"/>
</g>
<g>
	<path class="st0" d="M30.9,41.9h-21c-0.4,0-0.7-0.3-0.7-0.7s0.3-0.7,0.7-0.7h21c0.4,0,0.7,0.3,0.7,0.7S31.3,41.9,30.9,41.9z"/>
</g>
<g>
	<path class="st0" d="M26.5,26.5H9.9c-0.4,0-0.7-0.3-0.7-0.7S9.5,25,9.9,25h16.6c0.4,0,0.7,0.3,0.7,0.7S26.9,26.5,26.5,26.5z"/>
</g>
<g>
	<path class="st0" d="M26.5,33.4H9.9c-0.4,0-0.7-0.3-0.7-0.7s0.3-0.7,0.7-0.7h16.6c0.4,0,0.7,0.3,0.7,0.7S26.9,33.4,26.5,33.4z"/>
</g>
</svg>
