<?xml version="1.0" encoding="utf-8"?>
<!-- Generator: Adobe Illustrator 21.0.2, SVG Export Plug-In . SVG Version: 6.00 Build 0)  -->
<svg version="1.1" id="Layer_1" xmlns="http://www.w3.org/2000/svg" xmlns:xlink="http://www.w3.org/1999/xlink" x="0px" y="0px"
	 viewBox="0 0 68 68" style="enable-background:new 0 0 68 68;" xml:space="preserve">
<style type="text/css">
	.st0{fill:#78C500;}
</style>
<g>
	<path class="st0" d="M60.7,10.1l1.7-1.6c0.3-0.3,0.3-0.7,0-1c-0.3-0.3-0.7-0.3-1,0l-1.7,1.6l-1.6-1.7c-0.3-0.3-0.7-0.3-1,0
		c-0.3,0.3-0.3,0.7,0,1l1.6,1.7l-1.7,1.6c-0.3,0.3-0.3,0.7,0,1c0.1,0.1,0.3,0.2,0.5,0.2c0.2,0,0.3-0.1,0.5-0.2l1.7-1.6l1.6,1.7
		c0.1,0.1,0.3,0.2,0.5,0.2c0.2,0,0.3-0.1,0.5-0.2c0.3-0.3,0.3-0.7,0-1L60.7,10.1z"/>
</g>
<g>
	<path class="st0" d="M6.9,52.8l0.6-0.6c0.2-0.2,0.2-0.6,0-0.8c-0.2-0.2-0.6-0.2-0.8,0l-0.6,0.6l-0.6-0.6c-0.2-0.2-0.6-0.2-0.8,0
		c-0.2,0.2-0.2,0.6,0,0.8l0.6,0.6l-0.6,0.6c-0.2,0.2-0.2,0.6,0,0.8c0.1,0.1,0.3,0.2,0.4,0.2c0.1,0,0.3-0.1,0.4-0.2L6,53.6l0.6,0.6
		c0.1,0.1,0.3,0.2,0.4,0.2c0.1,0,0.3-0.1,0.4-0.2c0.2-0.2,0.2-0.6,0-0.8L6.9,52.8z"/>
</g>
<g>
	<path d="M54.1,65.6c-0.1,0-0.2,0-0.3-0.1L34,55.1L14.3,65.5c-0.2,0.1-0.5,0.1-0.7-0.1c-0.2-0.2-0.3-0.4-0.3-0.7l3.8-22L1,27.1
		c-0.2-0.2-0.3-0.5-0.2-0.7c0.1-0.3,0.3-0.4,0.6-0.5l22.1-3.2l9.9-20c0.2-0.5,1-0.5,1.3,0l9.9,20l22.1,3.2c0.3,0,0.5,0.2,0.6,0.5
		c0.1,0.3,0,0.5-0.2,0.7l-16,15.6l3.8,22c0,0.3-0.1,0.5-0.3,0.7C54.4,65.5,54.3,65.6,54.1,65.6z M34,53.6c0.1,0,0.2,0,0.3,0.1
		l18.8,9.9l-3.6-21c0-0.2,0-0.5,0.2-0.6l15.2-14.9L44,24c-0.2,0-0.4-0.2-0.5-0.4L34,4.6l-9.4,19.1c-0.1,0.2-0.3,0.4-0.5,0.4L3,27.1
		L18.3,42c0.2,0.2,0.2,0.4,0.2,0.6l-3.6,21l18.8-9.9C33.8,53.6,33.9,53.6,34,53.6z"/>
</g>
<g>
	<polygon class="st0" points="34,10.8 41.8,26.5 59.1,29 46.6,41.2 49.5,58.5 34,50.3 18.6,58.5 21.5,41.2 9,29 26.3,26.5 	"/>
</g>
<g>
	<ellipse transform="matrix(0.4004 -0.9163 0.9163 0.4004 -5.2664 15.2115)" class="st0" cx="9" cy="11.6" rx="1.1" ry="1.1"/>
</g>
</svg>
