<svg id="Layer_1" data-name="Layer 1" xmlns="http://www.w3.org/2000/svg" viewBox="0 0 70 70"><defs><style>.cls-1{fill:#78c144;}.cls-2{fill:#da2048;}.cls-3{fill:#f2f4ef;}.cls-4{fill:#231f20;}</style></defs><path class="cls-1" d="M42,9.16C42,9,42.11,8.8,42.18,8.6A44.06,44.06,0,0,0,39.67,13v4.29l1.42-1.42A19.1,19.1,0,0,1,42,9.16Z"/><path class="cls-1" d="M30.85,10.95a53,53,0,0,1,0,7.34,0.59,0.59,0,0,0,.38-0.18c0.15-.16.65-0.86,0.54-3.09A13,13,0,0,0,30.85,10.95Z"/><path class="cls-1" d="M33.49,22.72l0.48,1,1.93-3.15c0-1.93,0-4-.09-5.82C34.83,18,33.84,21.41,33.49,22.72Z"/><path class="cls-1" d="M36,28.65c0-.13,0-0.29.06-0.44L36,28.41Z"/><path class="cls-1" d="M43.13,18a53.25,53.25,0,0,0-3.78,5.08,2.44,2.44,0,0,1,1.35.66c0.18-.44.38-0.89,0.59-1.34a50.9,50.9,0,0,1,3.24-5.78A12.7,12.7,0,0,0,43.13,18Z"/><path class="cls-1" d="M28.28,19.93l-0.35-.53c0.21,2,.33,4.09.4,5.86a5.32,5.32,0,0,1,1.57-1.17L30,24h0.15a2,2,0,0,1,.71.15c-0.77-1.32-1.64-2.72-2.53-4.11Z"/><path class="cls-1" d="M33,28.2L32.9,28c0,0.09,0,.18,0,0.26a3.26,3.26,0,0,0,.3,1,2.94,2.94,0,0,0,.21.35,4.84,4.84,0,0,0-.12-0.49C33.23,28.84,33.12,28.53,33,28.2Z"/><path class="cls-1" d="M19.7,40.57a5.45,5.45,0,0,1,1-2.31l0.37-.44a16,16,0,0,1-.29-2.22L20.39,36a4.81,4.81,0,0,0-1.69,2.78A2,2,0,0,0,19.7,40.57Z"/><path class="cls-1" d="M48.86,39.06A21.72,21.72,0,0,0,48,34a10.2,10.2,0,0,0-1.06-2.45,24.29,24.29,0,0,1,.46,4.28A20.51,20.51,0,0,1,48.86,39.06Z"/><path class="cls-1" d="M47.79,54.71c-0.22.32-.44,0.66-0.66,1a15.86,15.86,0,0,0,4.1-2.66,5.69,5.69,0,0,0,1.33-2.19A25,25,0,0,1,47.79,54.71Z"/><path class="cls-1" d="M21.4,53.22l-0.22-.61a35.31,35.31,0,0,1-4.28-1.56,4.11,4.11,0,0,0,.69,2.65A5.71,5.71,0,0,0,21,55.5l-1.08-.91L18,53l2.52,0.31A2.67,2.67,0,0,0,21.4,53.22Z"/><path class="cls-2" d="M47.18,50.82c-0.58-.93-0.49-1.93-0.36-3.32a25.22,25.22,0,0,0,.06-4.92c-0.3-3.35-3-7.69-5.42-10.07l-0.1-.11c-0.25-.26-0.48-0.51-0.69-0.74A9,9,0,0,1,40,30.79l-0.18-.28a5.76,5.76,0,0,1-.68-1.67,9.5,9.5,0,0,1-.21-1.67c0-.11,0-0.22,0-0.32,0,0.41,0,.84-0.06,1.17a5.69,5.69,0,0,1-1.21,3.56,4,4,0,0,1-.73.66l-0.18.13a4.39,4.39,0,0,1-.76.38,5,5,0,0,1-.92.27L35,33l-0.24,0-0.28,0a3.41,3.41,0,0,1-1-.14,3.79,3.79,0,0,1-1-.43l-0.27-.18a4.73,4.73,0,0,1-.86-0.81,6,6,0,0,1-1.29-3.74,2.88,2.88,0,0,0,0-.39,4.58,4.58,0,0,0-.35.48,5.57,5.57,0,0,0-.56,2,16.41,16.41,0,0,1-.39,1.89,8.67,8.67,0,0,1-.34,1v0l-0.12.25a7.81,7.81,0,0,1-.4.74q-0.22.36-.49,0.73a35.15,35.15,0,0,1-2.32,2.76c-0.4.44-.8,0.89-1.2,1.35s-0.64.76-.95,1.15l-0.13.16a2.41,2.41,0,0,0-.36.73A5,5,0,0,0,22.28,42a19.15,19.15,0,0,0,.37,3.78,12.89,12.89,0,0,1,.25,2,13,13,0,0,0,.67,2.41,7.53,7.53,0,0,1,.68,3.46,2.47,2.47,0,0,1-.12.45,2.56,2.56,0,0,1-.13.29l0.73,0.63,0.2,0.17,0.34,0.29c2.76,2.33,4.38,4,4.5,5.72a3,3,0,0,1-.21,1.38L30,62.69h0a4.12,4.12,0,0,0,1.69-1.06,2.55,2.55,0,0,1,1.77-.84,2.06,2.06,0,0,1,1.94,1.45,2.8,2.8,0,0,0,.91.8,11.31,11.31,0,0,0,1.64-.91,18,18,0,0,1,3.39-1.77l1-.34a4.59,4.59,0,0,1,.16-1.54,13.22,13.22,0,0,1,.86-1.79L43.74,56c0.2-.35.41-0.72,0.64-1.09s0.51-.82.78-1.23a21.06,21.06,0,0,1,2.1-2.78Zm-5.4,4.33-0.35.38a9.39,9.39,0,0,1-6.65,2.88c-5.69,0-10.32-5.47-10.32-12.19S29.09,34,34.78,34a8.8,8.8,0,0,1,2.06.24A9.76,9.76,0,0,1,41.49,37,13.65,13.65,0,0,1,41.78,55.15Z"/><path class="cls-3" d="M34.78,37c-4.06,0-7.37,4.14-7.37,9.24s3.31,9.24,7.37,9.24,7.37-4.14,7.37-9.24S38.84,37,34.78,37ZM29.86,47.21a1,1,0,1,1,1-1A1,1,0,0,1,29.86,47.21Zm2.36,5a1,1,0,1,1,1-1A1,1,0,0,1,32.21,52.25Zm0-10.08a1,1,0,1,1,1-1A1,1,0,0,1,32.21,42.17Zm2.7,5a1,1,0,1,1,1-1A1,1,0,0,1,34.91,47.21Zm2.55,5a1,1,0,1,1,1-1A1,1,0,0,1,37.47,52.25Zm0-10.08a1,1,0,1,1,1-1A1,1,0,0,1,37.47,42.17Zm3.26,4.08a1,1,0,1,1-1-1A1,1,0,0,1,40.73,46.25Z"/><path class="cls-4" d="M55.47,46a1,1,0,0,0-.82-0.69,1,1,0,0,0-1,.59A18.83,18.83,0,0,1,51.29,49l-0.06,0a4.53,4.53,0,0,1-1.72.31,6.08,6.08,0,0,1,0-1.61,30.78,30.78,0,0,0,.16-3.52A11.34,11.34,0,0,0,51,39.36a23.14,23.14,0,0,0-1-5.83c-0.73-2.93-4-7.17-4.87-7.4l-0.9-.22,0,0.92a19.63,19.63,0,0,0,.45,4.91c0,0.13.07,0.27,0.1,0.41a21.2,21.2,0,0,0-1.42-1.59,5.82,5.82,0,0,1-1.45-2,24.55,24.55,0,0,1,1.75-5,48.3,48.3,0,0,1,6.49-10.1,1.11,1.11,0,0,0,.13-1.26,1.12,1.12,0,0,0-1.14-.56A12.75,12.75,0,0,0,43.5,14a12.84,12.84,0,0,1,.68-4,32.54,32.54,0,0,0,1.59-5.86l0.16-1-1,.09c-0.19,0-1.24.19-3.13,1.9a25.18,25.18,0,0,0-3.78,5.69c-0.27-4.05-.74-4.18-1.14-4.28a0.88,0.88,0,0,0-1,.48,49.19,49.19,0,0,0-2,5.74,21.48,21.48,0,0,0-5.09-9.66A1,1,0,0,0,27.54,3L27.46,3a1,1,0,0,0-.11.09A1,1,0,0,0,27,4.29a28.1,28.1,0,0,1,1.33,5.53,36.78,36.78,0,0,1,.23,5.43c-2.32-3.44-4.4-6.13-5-6.28l-0.5-.12-0.3.4c-0.34.46-.08,0.91,0.33,1.59,2.68,4.48,2.52,19.54,2.52,19.69v0.08l0.24,1.2a17.34,17.34,0,0,1-2.8,3.65l-0.09.1c0-.19,0-0.37,0-0.57a14.05,14.05,0,0,1,.81-4,0.75,0.75,0,0,0-.93-1c-0.17.05-1.7,0.6-2.94,3.15a5.46,5.46,0,0,1-1.09,1.32,6.75,6.75,0,0,0-2.26,3.88c-0.4,2.49,1.84,4,3,4.7a27.4,27.4,0,0,0,.4,3.16,12.07,12.07,0,0,1,.21,1.55,7.22,7.22,0,0,0,.37,1.91,15.9,15.9,0,0,1-3.66-1.58,0.84,0.84,0,0,0-.62-0.61,1,1,0,0,0-1,.53,6.91,6.91,0,0,0,.34,7.1c2.1,3,7.24,3.22,8.85,3.22,2.1,1.86,2.61,2.68,2.64,3s-1,1-1.78,1.26l-2.07.59,2,0.83a22.4,22.4,0,0,0,4.44,1.31,4.84,4.84,0,0,0,3.63-1.47,4.46,4.46,0,0,0,2.91,1.87h0.15a6.66,6.66,0,0,0,3.1-1.34A15.72,15.72,0,0,1,42.26,63a9.16,9.16,0,0,1,2.1-.58l2.16,2.15-1.1-3.11a4.7,4.7,0,0,1-.28-2.15,8.17,8.17,0,0,1,.57-1.19l0.5,0.3,0.3-.07a13.92,13.92,0,0,0,6.23-3.68C55.53,51.66,55.92,47.15,55.47,46ZM48.62,33.88a21.8,21.8,0,0,1,.93,5.55,5.29,5.29,0,0,1-.16,1.44,14.82,14.82,0,0,0-.52-1.81,20.51,20.51,0,0,0-1.48-3.19c-0.23-.41-0.48-0.82-0.72-1.2a18.21,18.21,0,0,0-.48-3.32,13.3,13.3,0,0,1-.37-2.58A15.93,15.93,0,0,1,48.62,33.88ZM38.78,12.82c0.75-1.53,2.74-5.25,4.07-6.46A11.53,11.53,0,0,1,44,5.42,26.29,26.29,0,0,1,42.79,9.5,17.17,17.17,0,0,0,42,15.34l-0.07.07c-0.27.26-.53,0.54-0.79,0.84-0.73.84-1.5,1.83-2.27,2.88l-0.07.1V12.82ZM39.34,21a46.64,46.64,0,0,1,2.9-3.79A13.81,13.81,0,0,1,43.48,16a11.85,11.85,0,0,1,4.87-2.67,50.5,50.5,0,0,0-6,9.59c-0.35.74-.64,1.46-0.91,2.18,0-.12-0.07-0.23-0.1-0.33a2.74,2.74,0,0,0-.64-1,2.44,2.44,0,0,0-1.35-.66,4.67,4.67,0,0,0-1.14,0h0a1.74,1.74,0,0,0-.25.06C38.38,22.42,38.86,21.71,39.34,21ZM36.46,9.77c0.21,2.5.32,6.92,0.33,11l-2.44,4,0-.07C33.86,23.87,33.36,23,32.83,22L32.77,22C33.48,19.41,35.32,13.07,36.46,9.77ZM36.29,25.65c0,0.17,0,.33-0.06.5-0.05.55-.08,1.15-0.11,1.75,0,0.11,0,.2,0,0.31s0,0.31-.06.44L36,28.41c-0.11-.35-0.26-0.73-0.43-1.14L35.43,27ZM32.64,15c0.1,2.08-.26,3.45-1,4a1.47,1.47,0,0,1-.52.2l0-.06-1-1.57L30,17.41a44.51,44.51,0,0,0-.17-7.79A29.69,29.69,0,0,0,29.08,6,17.1,17.1,0,0,1,32.64,15ZM25.82,14c0.8,1.13,1.71,2.45,2.63,3.83l0.68,1,0.59,0.92,0.54,0.86,0.91,1.48c0.42,0.69.81,1.36,1.18,2,0.55,1,1,1.89,1.41,2.72L33.85,27c0.11,0.23.21,0.46,0.29,0.67l0.07,0.17q0.16,0.39.27,0.73l0.09,0.27a5.15,5.15,0,0,1,.17.73,3,3,0,0,1,0,.67l-0.22,0h0a0.71,0.71,0,0,1-.41-0.11,1.56,1.56,0,0,1-.24-0.17l-0.11-.12a2.34,2.34,0,0,1-.27-0.32,2.94,2.94,0,0,1-.21-0.35,3.26,3.26,0,0,1-.3-1c0-.08,0-0.17,0-0.26s0-.15,0-0.24a5.34,5.34,0,0,0-.1-1,3.85,3.85,0,0,0-.92-1.92,2.55,2.55,0,0,0-.94-0.65A2,2,0,0,0,30.19,24H30l-0.14.06a5.32,5.32,0,0,0-1.57,1.17,7,7,0,0,0-.91,1.16l-0.07.13a5.08,5.08,0,0,0-.25.48A73.41,73.41,0,0,0,25.82,14ZM19.7,40.57c-0.05.25-.1,0.5-0.13,0.76-1-.73-1.73-1.57-1.55-2.68a5.27,5.27,0,0,1,1.84-3.06,6.72,6.72,0,0,0,1.38-1.72c0.07-.15.15-0.27,0.22-0.4s0.12-.23.18-0.33v0.06A9,9,0,0,0,21.45,35c0,0.17,0,.33,0,0.49A9.64,9.64,0,0,0,21.73,37l-0.07.08-0.6.73-0.37.44A5.45,5.45,0,0,0,19.7,40.57ZM16.76,54.3a5.43,5.43,0,0,1-.58-4.81,20.38,20.38,0,0,0,4.91,2l0.05,0.16a9.46,9.46,0,0,1,.42,1.48,0.4,0.4,0,0,1-.16.07,2.67,2.67,0,0,1-.9.05L18,53l1.94,1.63L21,55.5l1.31,1.11,0.19,0.16C20.46,56.54,17.88,55.89,16.76,54.3Zm29,0.74,0,0.06L45.19,56l0,0-0.36.62-0.37.65a11.05,11.05,0,0,0-.74,1.51,4.56,4.56,0,0,0,0,2.12,13.86,13.86,0,0,0-2,.59A17,17,0,0,0,38.6,63.2a5.68,5.68,0,0,1-2.35,1.11,3.42,3.42,0,0,1-2-1.58V62.3l-0.44-.2a1.13,1.13,0,0,0-1.25.46c-0.55.49-1.68,1.51-2.7,1.37a16,16,0,0,1-2.43-.61,2.27,2.27,0,0,0,1.13-2c-0.08-1-1.21-2.33-3-3.9l-1.1-1,0,0-0.32-.27-0.82-.71-0.2-.17-0.89-.75A1.15,1.15,0,0,0,22.76,54,1.35,1.35,0,0,0,23,53.7a4,4,0,0,0-.36-2.41l-0.22-.65-0.11-.33a10,10,0,0,1-.62-2.48,12.33,12.33,0,0,0-.23-1.8c-0.13-.75-0.28-1.63-0.35-2.54,0-.35,0-0.71,0-1.06a8.44,8.44,0,0,1,.09-1.21l0-.14a4.15,4.15,0,0,1,.74-1.89L22,39l0.25-.3,0.33-.4,0.78-.91,0.81-.91c0.8-.9,1.54-1.72,2.12-2.5a10.33,10.33,0,0,0,.59-0.87,6.19,6.19,0,0,0,.39-0.74c0.06-.13.1-0.27,0.15-0.4s0.11-.34.16-0.51A15.46,15.46,0,0,0,28,29.71a9.08,9.08,0,0,1,.44-1.91,3.66,3.66,0,0,1,.29-0.59,4.93,4.93,0,0,1,1.63-1.66,2.25,2.25,0,0,1,1,2.23A4.82,4.82,0,0,0,31.94,30a4,4,0,0,0,.8,1.08s0.07,0.09.11,0.12a2.83,2.83,0,0,0,.81.48l0.28,0.09a2,2,0,0,0,.71.05h0.11L35,31.76a3.47,3.47,0,0,0,.61-0.2l0.22-.1L36,31.33a2.87,2.87,0,0,0,.58-0.47,4.39,4.39,0,0,0,1-2.88,18.77,18.77,0,0,1,.24-2.6,0.92,0.92,0,0,1,.43-0.81h0.09c0.91-.06,1.42,0,1.65,1,0,0.11.05,0.23,0.07,0.37,0.06,0.43.08,0.8,0.1,1.15a10.42,10.42,0,0,0,.1,1.07,4.9,4.9,0,0,0,.11.5,4.72,4.72,0,0,0,.53,1.21,7.19,7.19,0,0,0,.62.87,11.38,11.38,0,0,0,.79.87,23.16,23.16,0,0,1,2.84,3.54q0.41,0.62.79,1.28h0a15.53,15.53,0,0,1,2.14,5.94v0.08a23.42,23.42,0,0,1,.09,2.39c0,1.09-.08,2-0.15,2.75a4.16,4.16,0,0,0,.17,2.54,1.52,1.52,0,0,0,1.14.67,4.92,4.92,0,0,1-.59.42,3.47,3.47,0,0,0-.71.62,17.4,17.4,0,0,0-1.44,1.86C46.36,54.15,46.07,54.6,45.79,55ZM53,51.59a8.51,8.51,0,0,1-1.38,2c-0.12.13-.24,0.23-0.36,0.35a12.76,12.76,0,0,1-4.61,2.74l-0.19.06,0.64-1c0.22-.34.44-0.68,0.66-1,0.44-.64.85-1.21,1.19-1.62a22.67,22.67,0,0,0,5-5L54.1,48A10.81,10.81,0,0,1,53,51.59Z"/><path class="cls-4" d="M36.84,34.28A8.8,8.8,0,0,0,34.78,34c-5.69,0-10.32,5.47-10.32,12.19s4.63,12.19,10.32,12.19a9.39,9.39,0,0,0,6.65-2.88l0.35-.38A13.65,13.65,0,0,0,41.49,37,9.76,9.76,0,0,0,36.84,34.28ZM34.78,56.91c-4.86,0-8.82-4.79-8.82-10.69s4-10.69,8.82-10.69,8.82,4.79,8.82,10.69S39.64,56.91,34.78,56.91Z"/><circle class="cls-4" cx="32.21" cy="41.21" r="0.96"/><circle class="cls-4" cx="37.47" cy="41.21" r="0.96"/><circle class="cls-4" cx="32.21" cy="51.29" r="0.96"/><circle class="cls-4" cx="37.47" cy="51.29" r="0.96"/><circle class="cls-4" cx="39.77" cy="46.25" r="0.96"/><circle class="cls-4" cx="34.92" cy="46.25" r="0.96"/><circle class="cls-4" cx="29.86" cy="46.25" r="0.96"/></svg>