<svg xmlns="http://www.w3.org/2000/svg" viewBox="0 0 523 293.8" enable-background="new 0 0 523 293.8"><path fill="#F9F9F9" d="M0 0h523v293.8H0z"/><path d="M308.1 96.8h-7.2c-4.5 0-8 3.7-8.4 8.3 0 .3-.1.6-.1 1v26.1c-27.4-4.5-47.1-2.3-61.9.2v-26.3c0-5-3.7-9.1-8.4-9.1h-7.2c-4.6 0-8.4 4.1-8.4 9.1V189c0 5 3.8 9.1 8.4 9.1h7.2c4.7 0 8.4-4.1 8.4-9.1v-32.5.1c14.8-2.5 34.5-4.7 61.9-.2V189c0 5 3.8 9.1 8.4 9.1h7.2c4.6 0 8.4-4.1 8.4-9.1v-83.1c.1-5.1-3.7-9.1-8.3-9.1" opacity=".03" enable-background="new"/></svg>