<?xml version="1.0" encoding="utf-8"?>
<!-- Generator: Adobe Illustrator 21.0.2, SVG Export Plug-In . SVG Version: 6.00 Build 0)  -->
<svg version="1.1" id="Layer_1" xmlns="http://www.w3.org/2000/svg" xmlns:xlink="http://www.w3.org/1999/xlink" x="0px" y="0px"
	 viewBox="0 0 68 68" style="enable-background:new 0 0 68 68;" xml:space="preserve">
<style type="text/css">
	.st0{fill:#78C500;}
</style>
<g>
	<path d="M59.4,67h-52c-0.4,0-0.7-0.3-0.7-0.7V28.7H4.4c-0.3,0-0.6-0.2-0.7-0.5c-0.1-0.3,0-0.6,0.2-0.8L9,22.8V8.1
		c0-0.4,0.3-0.7,0.7-0.7H15c0.4,0,0.7,0.3,0.7,0.7v8.6L32.9,1.1c0.3-0.3,0.7-0.3,1,0l29,26.3c0.2,0.2,0.3,0.5,0.2,0.8
		c-0.1,0.3-0.4,0.5-0.7,0.5h-2.3v3.8c0,0.4-0.3,0.7-0.7,0.7c-0.4,0-0.7-0.3-0.7-0.7v-4.5c0-0.4,0.3-0.7,0.7-0.7h1.1L33.4,2.6
		L15.5,18.8C15.3,19,15,19.1,14.7,19c-0.3-0.1-0.4-0.4-0.4-0.7V8.8h-3.8v14.3c0,0.2-0.1,0.4-0.2,0.5l-3.9,3.5h1.1
		c0.4,0,0.7,0.3,0.7,0.7v37.6h50.5v-9.3c0-0.4,0.3-0.7,0.7-0.7c0.4,0,0.7,0.3,0.7,0.7v10.1C60.1,66.7,59.8,67,59.4,67z"/>
</g>
<g>
	<path d="M49.2,62c-0.4,0-0.9-0.2-1.2-0.5L36,50.2c-3.8-3.8-3.8-10,0-13.7c1.8-1.8,4.3-2.8,6.8-2.8c2,0,4,1,6.4,3.1
		c2-1.8,4.5-2.7,7.1-2.7c2.4,0,4.5,0.9,6.1,2.5l0,0c1.8,1.8,2.8,4.2,2.8,6.8c0,2.6-1,5.1-2.8,6.9l-12,11.3
		C50.1,61.8,49.6,62,49.2,62z M42.8,35.1c-2.2,0-4.3,0.9-5.8,2.4c-3.2,3.2-3.2,8.4,0,11.7l11.9,11.2c0.2,0.2,0.4,0.1,0.6,0
		l11.9-11.2c1.5-1.5,2.4-3.6,2.4-5.9c0-2.2-0.8-4.3-2.4-5.8c-1.3-1.3-3.1-2-5.1-2c-2.4,0-4.7,1-6.5,2.7c-0.3,0.3-0.9,0.3-1.2,0
		C46.4,36.2,44.5,35.1,42.8,35.1z"/>
</g>
<g>
	<path class="st0" d="M60.6,48.4L49.2,59.1L37.8,48.4c-1.3-1.3-2-3.1-2-5.1c0-1.9,0.7-3.7,2.1-5.1s3.1-2.1,5.1-2.1
		c1.4,0,3.1,0.9,5,2.8c0.4,0.3,0.8,0.5,1.3,0.5c0.5,0,1-0.2,1.3-0.5c1.6-1.5,3.7-2.4,5.7-2.4c1.2,0,2.9,0.3,4.3,1.7
		c1.3,1.3,2,3.2,2,5.1C62.7,45.2,61.9,47,60.6,48.4z"/>
</g>
</svg>
