<svg id="Layer_1" data-name="Layer 1" xmlns="http://www.w3.org/2000/svg" viewBox="0 0 70 70"><defs><style>.cls-1{fill:none;}.cls-2{fill:#f7a90b;}.cls-3{fill:#be6728;}.cls-4{fill:#e59e6e;}.cls-5{fill:#231f20;}</style></defs><path class="cls-1" d="M37.08,18.81a8.42,8.42,0,0,0,1.67-.65h0c0-.34,0-0.65-0.05-0.95-3,1.13-8.48,1.17-9.31,1.17s-6.16,0-9.22-1.14c0,0.3,0,.63,0,1a21.06,21.06,0,0,0,2.08.63Z"/><path class="cls-1" d="M38,21.5a12,12,0,0,0,1.2-.44,12.37,12.37,0,0,1-.3-1.32c-1.16.51-4.15,1.51-9.48,1.51A29.83,29.83,0,0,1,20,19.77a10.56,10.56,0,0,1-.28,1.33c0.35,0.12.86,0.28,1.5,0.45Z"/><path class="cls-2" d="M43.75,40.9l-0.25-.66a1.54,1.54,0,0,1,.89-2l0.08,0a16.85,16.85,0,0,0,.14-7.39c-2.52.92-7,1.78-15.13,1.78s-12.71-1-15.2-1.89c-1.49,6.37,3.55,17.6,5.49,18.89a11.63,11.63,0,0,0,3.28,1.1L43,43.14C43.24,42.42,43.51,41.68,43.75,40.9Z"/><path class="cls-2" d="M39.16,49.61l0.09-.08-2.66,1A10.45,10.45,0,0,0,39.16,49.61Z"/><path class="cls-3" d="M16.67,55.24a0.06,0.06,0,0,0,0,.08l0.22,0.59a0.07,0.07,0,0,0,.06,0l5.94-2.26c-0.45-.09-0.9-0.19-1.34-0.3Z"/><path class="cls-3" d="M27.17,51.24c0.67,0,1.32.06,1.95,0.07l12.17-4.64q0.26-.48.53-1Z"/><path class="cls-3" d="M24.16,52.39c0.55,0.08,1.09.15,1.61,0.2l0.75-.28c-0.53,0-1.1-.09-1.69-0.17Z"/><path class="cls-3" d="M43.37,45.88c0.1-.23.21-0.45,0.31-0.68L43.6,45l-0.28.11c-0.15.34-.31,0.67-0.47,1Z"/><path class="cls-3" d="M24.83,52.13c0.59,0.07,1.15.13,1.69,0.17l2.6-1c-0.62,0-1.28,0-1.95-.07Z"/><path class="cls-3" d="M41.29,46.67l1.56-.6c0.16-.32.31-0.65,0.47-1l-1.5.57Q41.55,46.19,41.29,46.67Z"/><path class="cls-3" d="M21.51,53.4c0.44,0.11.89,0.21,1.34,0.3l1.4-.53c-0.49-.07-1-0.15-1.47-0.25Z"/><path class="cls-3" d="M22.78,52.91c0.49,0.1,1,.18,1.47.25l1.52-.58c-0.52-.05-1.06-0.11-1.61-0.2Z"/><path class="cls-3" d="M43.87,45.69l-0.19-.49c-0.1.23-.21,0.46-0.31,0.68Z"/><path class="cls-3" d="M47.26,41.45l1.69,4.44a2,2,0,0,0,.59.09l0.28,0-2-5.13A1.93,1.93,0,0,0,47.26,41.45Z"/><path class="cls-3" d="M59.94,40.07l-0.61-1.6a2,2,0,0,0-1.26-1.16l1.7,4.46A1.93,1.93,0,0,0,59.94,40.07Z"/><rect class="cls-3" x="55.26" y="37.99" width="0.82" height="5.59" transform="translate(-10.88 22.5) rotate(-20.87)"/><rect class="cls-3" x="51.68" y="39.36" width="0.75" height="5.59" transform="translate(-11.6 21.3) rotate(-20.86)"/><path class="cls-4" d="M48,48.66a0.33,0.33,0,0,0,.18.19,0.34,0.34,0,0,0,.26,0h0a0.32,0.32,0,0,0,0,0A5,5,0,0,1,48,48.66h0Z"/><path class="cls-4" d="M45.08,39.39a0.35,0.35,0,0,0-.14,0l-0.12,0a0.34,0.34,0,0,0-.2.44L44.7,40a4.86,4.86,0,0,1,.4-0.6Z"/><path class="cls-4" d="M46.68,45.12l-0.61-1.6c0-.08,0-0.17-0.07-0.25l0,0.08,1.17,3.07a3.39,3.39,0,0,0,1,.68l-0.19-.49A3,3,0,0,1,46.68,45.12Z"/><path class="cls-4" d="M46,41.58l-0.09-.23q-0.16.52-.33,1l0.37,1,0-.08A3,3,0,0,1,46,41.58Z"/><path class="cls-4" d="M45.83,41.08a3.39,3.39,0,0,0-.28,1.16l0.05,0.14q0.17-.51.33-1Z"/><path class="cls-4" d="M46,43.28c0,0.08,0,.17.07,0.25l0.61,1.6a3,3,0,0,0,1.26,1.5l-1.63-4.27C46.21,42.66,46.11,43,46,43.28Z"/><path class="cls-4" d="M46,41.58a3,3,0,0,0,0,1.7c0.11-.31.21-0.62,0.31-0.93Z"/><path class="cls-4" d="M48,48.66a5,5,0,0,0,.48.16,0.33,0.33,0,0,0,.15-0.14,0.33,0.33,0,0,0,0-.26L48.48,48a4.17,4.17,0,0,1-.85-0.32Z"/><path class="cls-4" d="M45.07,41a4.17,4.17,0,0,1,.32-0.65l0.07-.23-0.19-.5q-0.14.56-.3,1.11Z"/><path class="cls-4" d="M45.26,39.58h0a0.33,0.33,0,0,0-.16-0.17,4.86,4.86,0,0,0-.4.6L45,40.69Q45.12,40.14,45.26,39.58Z"/><path class="cls-4" d="M45.48,40.16l0-.07-0.07.23Z"/><path class="cls-4" d="M47.63,47.71a4.17,4.17,0,0,0,.85.32l-0.35-.92a3.39,3.39,0,0,1-1-.68Z"/><path class="cls-4" d="M45.07,41l0.08,0.21c0.08-.28.16-0.57,0.24-0.86A4.17,4.17,0,0,0,45.07,41Z"/><path class="cls-4" d="M45.39,40.32c-0.08.29-.16,0.58-0.24,0.86l0.4,1.06a3.39,3.39,0,0,1,.28-1.16l-0.35-.92Z"/><path class="cls-4" d="M48.32,36.78a0.34,0.34,0,0,0-.18-0.19,0.33,0.33,0,0,0-.14,0l-0.12,0a0.34,0.34,0,0,0-.2.44l0.22,0.57,0.63-.24Z"/><path class="cls-4" d="M52.08,48.54a0.34,0.34,0,0,0,.18.19,0.33,0.33,0,0,0,.26,0h0a0.34,0.34,0,0,0,.2-0.44l-0.08-.2L52,48.34Z"/><rect class="cls-4" x="49.93" y="40.05" width="0.68" height="5.59" transform="translate(-11.96 20.72) rotate(-20.87)"/><rect class="cls-4" x="51.38" y="46.47" width="0.68" height="0.34" transform="translate(-13.24 21.54) rotate(-20.92)"/><rect class="cls-4" x="48.48" y="38.87" width="0.68" height="0.34" transform="translate(-10.7 19.95) rotate(-20.87)"/><rect class="cls-4" x="48.74" y="39.17" width="0.68" height="1.1" transform="translate(-10.93 20.08) rotate(-20.86)"/><rect class="cls-4" x="51.12" y="45.42" width="0.68" height="1.1" transform="translate(-13 21.35) rotate(-20.87)"/><rect class="cls-4" x="51.85" y="47.48" width="0.68" height="0.76" transform="translate(-13.63 21.73) rotate(-20.87)"/><rect class="cls-4" x="48.02" y="37.44" width="0.68" height="0.76" transform="translate(-10.29 19.69) rotate(-20.85)"/><rect class="cls-4" x="48.29" y="38.15" width="0.68" height="0.76" transform="translate(-10.53 19.85) rotate(-20.87)"/><rect class="cls-4" x="51.58" y="46.78" width="0.68" height="0.76" transform="translate(-13.39 21.58) rotate(-20.87)"/><path class="cls-4" d="M60,35l-0.48-1.25a0.34,0.34,0,0,0-.18-0.19,0.33,0.33,0,0,0-.14,0l-0.12,0a0.33,0.33,0,0,0-.19.18,0.34,0.34,0,0,0,0,.26l0.23,0.59c0.12,0,.25.07,0.37,0.12A5,5,0,0,1,60,35Z"/><path class="cls-4" d="M62.46,43a0.33,0.33,0,0,0,.47-0.16,0.33,0.33,0,0,0,0-.26l-0.15-.39a4.9,4.9,0,0,1-.19.56C62.56,42.85,62.5,42.92,62.46,43Z"/><path class="cls-4" d="M60.68,38a3.35,3.35,0,0,0-.63-1l1.45,3.79a3.34,3.34,0,0,0-.21-1.18Z"/><path class="cls-4" d="M60.57,36.38L60,35a5,5,0,0,0-.51-0.29c-0.12-.05-0.25-0.08-0.37-0.12l0.38,1A4.14,4.14,0,0,1,60.57,36.38Z"/><path class="cls-4" d="M62,42.1l0.28,0.73a0.33,0.33,0,0,0,.16.17c0-.08.1-0.16,0.14-0.24a4.9,4.9,0,0,0,.19-0.56l-0.52-1.37A4.14,4.14,0,0,1,62,42.1Z"/><path class="cls-4" d="M60.68,38l0.61,1.6a3.34,3.34,0,0,1,.21,1.18L62,42.1a4.14,4.14,0,0,0,.24-1.27l-1.7-4.45a4.14,4.14,0,0,0-1-.82l0.53,1.38A3.35,3.35,0,0,1,60.68,38Z"/><path class="cls-4" d="M59.24,45.62a0.34,0.34,0,0,0,.18.19,0.33,0.33,0,0,0,.45-0.17,0.34,0.34,0,0,0,0-.26v0l-0.63.24v0Z"/><path class="cls-4" d="M55.48,33.86a0.34,0.34,0,0,0-.32-0.22l-0.12,0a0.34,0.34,0,0,0-.2.44l0.28,0.73,0.63-.24Z"/><rect class="cls-4" x="57.15" y="37.29" width="0.68" height="5.59" transform="translate(-10.51 23.1) rotate(-20.86)"/><rect class="cls-4" x="58.6" y="43.72" width="0.68" height="0.34" transform="translate(-11.75 23.82) rotate(-20.83)"/><rect class="cls-4" x="55.7" y="36.12" width="0.68" height="0.34" transform="translate(-9.25 22.36) rotate(-20.88)"/><rect class="cls-4" x="55.96" y="36.41" width="0.68" height="1.1" transform="translate(-9.47 22.47) rotate(-20.86)"/><rect class="cls-4" x="58.34" y="42.67" width="0.68" height="1.1" transform="translate(-11.55 23.76) rotate(-20.89)"/><rect class="cls-4" x="55.24" y="34.69" width="0.68" height="0.76" transform="translate(-8.84 22.08) rotate(-20.86)"/><rect class="cls-4" x="59.06" y="44.73" width="0.68" height="0.76" transform="translate(-12.18 24.13) rotate(-20.88)"/><rect class="cls-4" x="58.79" y="44.02" width="0.68" height="0.76" transform="translate(-11.93 23.96) rotate(-20.86)"/><rect class="cls-4" x="55.51" y="35.4" width="0.68" height="0.76" transform="translate(-9.08 22.24) rotate(-20.87)"/><path class="cls-4" d="M56,48.12a0.31,0.31,0,0,0,.4.18l0,0a0.31,0.31,0,0,0,.17-0.16,0.32,0.32,0,0,0,0-.24l-0.44-1.15L55.58,47Z"/><path class="cls-4" d="M51.54,34.47a0.32,0.32,0,0,0-.17-0.17,0.31,0.31,0,0,0-.13,0l-0.11,0a0.36,0.36,0,0,0-.22.18,0.32,0.32,0,0,0,0,.24l0.58,1.51L52.11,36Z"/><rect class="cls-4" x="53.51" y="38.68" width="0.68" height="5.59" transform="translate(-11.24 21.9) rotate(-20.86)"/><rect class="cls-4" x="52.06" y="37.51" width="0.68" height="0.34" transform="translate(-9.99 21.14) rotate(-20.87)"/><rect class="cls-4" x="54.96" y="45.11" width="0.68" height="0.34" transform="translate(-12.5 22.67) rotate(-20.87)"/><rect class="cls-4" x="52.32" y="37.8" width="0.68" height="1.1" transform="translate(-10.21 21.27) rotate(-20.86)"/><rect class="cls-4" x="54.7" y="44.05" width="0.68" height="1.1" transform="matrix(0.93, -0.36, 0.36, 0.93, -12.28, 22.54)"/><rect class="cls-4" x="51.6" y="36.08" width="0.68" height="0.76" transform="translate(-9.58 20.89) rotate(-20.87)"/><rect class="cls-4" x="55.42" y="46.12" width="0.68" height="0.76" transform="translate(-12.91 22.91) rotate(-20.87)"/><rect class="cls-4" x="51.87" y="36.78" width="0.68" height="0.76" transform="translate(-9.81 21.04) rotate(-20.87)"/><rect class="cls-4" x="55.15" y="45.41" width="0.68" height="0.76" transform="translate(-12.67 22.77) rotate(-20.87)"/><path class="cls-5" d="M60.68,33.31a1.53,1.53,0,0,0-2.91,1,4.84,4.84,0,0,0-.84,0l-0.34-.88a1.54,1.54,0,1,0-2.87,1.1L54,35.26l-0.77.29L52.66,34a1.5,1.5,0,0,0-.79-0.84,1.53,1.53,0,0,0-1.21,0,1.51,1.51,0,0,0-.87,2l0.58,1.51-0.7.27-0.22-.57a1.53,1.53,0,0,0-1.64-1,20.67,20.67,0,0,0,.09-2.52A11.81,11.81,0,0,0,41.73,22.6c-1.18-.91-1.56-4-1.54-6.21a1.49,1.49,0,0,0,.57-1.12c0-3-10.2-3.12-11.36-3.12S18,12.24,18,15.27a1.52,1.52,0,0,0,.61,1.16c0.1,1.82,0,5.18-1.44,6.16A11.8,11.8,0,0,0,11,32.86C10.8,40.06,15.1,50.36,18.3,52.18l0.4,0.2-2.73,1A2,2,0,0,0,14.81,56L15,56.61a2,2,0,0,0,1.88,1.3,2,2,0,0,0,.72-0.13L27,54.19c1,0.06,1.82.07,2.42,0.07,2.25,0,7.83-.2,11.16-2.09,1.11-.63,2.36-2.3,3.5-4.5l1.59-.61a4.8,4.8,0,0,0,.66.68l0.51,1.34a1.54,1.54,0,0,0,2.84.08,1.57,1.57,0,0,0,.09-0.26,4.84,4.84,0,0,0,1.07-.18L51,49a1.54,1.54,0,0,0,2.88-1.1l-0.08-.2,0.7-.27,0.44,1.15a1.52,1.52,0,0,0,1.41,1,1.52,1.52,0,0,0,.54-0.1l0,0a1.51,1.51,0,0,0,.87-2l-0.44-1.15L58.1,46v0a1.55,1.55,0,0,0,1.44,1,1.54,1.54,0,0,0,.55-0.1A1.54,1.54,0,0,0,61,45l-0.07-.19A4.83,4.83,0,0,0,61.78,44a1.53,1.53,0,0,0,1.39.15,1.54,1.54,0,0,0,.89-2ZM29.46,21.25c5.33,0,8.32-1,9.48-1.51a12.37,12.37,0,0,0,.3,1.32,12,12,0,0,1-1.2.44,28.51,28.51,0,0,1-8.57,1.11,32.22,32.22,0,0,1-8.21-1.06c-0.64-.17-1.14-0.33-1.5-0.45A10.56,10.56,0,0,0,20,19.77,29.83,29.83,0,0,0,29.46,21.25Zm-9.29-3c0-.34,0-0.67,0-1,3.06,1.1,8.4,1.14,9.22,1.14s6.26,0,9.31-1.17c0,0.29,0,.61.05,0.95h0a8.42,8.42,0,0,1-1.67.65,26.81,26.81,0,0,1-7.62.93,29.65,29.65,0,0,1-7.21-.89A21.06,21.06,0,0,1,20.17,18.22Zm0.29-3.36a28.19,28.19,0,0,1,8.94-1.13,28.2,28.2,0,0,1,8.94,1.13,2.64,2.64,0,0,1,.79.41,8.81,8.81,0,0,1-3.54,1.09,38.41,38.41,0,0,1-6.19.46,38.4,38.4,0,0,1-6.19-.46,8.8,8.8,0,0,1-3.54-1.09A2.64,2.64,0,0,1,20.46,14.86Zm19.42,36c-2.49,1.41-6.63,1.78-9,1.86l1.06-.4,4.69-1.79,2.66-1,2.08-.79L42,48.5A7.19,7.19,0,0,1,39.88,50.87Zm4.23-4.79-1,.38-0.55.21-1.6.61-10.53,4-2.81,1.07-0.79.3-1.59.61-1.49.57L17.1,56.37a0.51,0.51,0,0,1-.66-0.3l-0.23-.59a0.51,0.51,0,0,1,.3-0.66l4.27-1.63L22,52.73l1.27-.49L23.91,52l2.21-.84,16-6.1,1.46-.56,0.29-.11,0.07,0.19,0.39,1,0.13,0.34Zm0.29-7.82a1.54,1.54,0,0,0-.89,2l0.25,0.66,0.33,0.87a4.79,4.79,0,0,0,0,.95L43,43.14l-19.9,7.58-1.8.68-0.52.2A9.82,9.82,0,0,1,19,50.87c-2.56-1.45-6.74-10.87-6.52-18a10.81,10.81,0,0,1,1.23-4.79,10.09,10.09,0,0,1,4.14-4.19l0.09,0a3.76,3.76,0,0,0,1.24-1.43A32.29,32.29,0,0,0,29.46,24c5.82,0,9-1.1,10.28-1.64a3.88,3.88,0,0,0,1.16,1.45L41,23.92a10.11,10.11,0,0,1,4.17,4.25,10.81,10.81,0,0,1,1.2,4.74,24,24,0,0,1-.56,5.58,1.51,1.51,0,0,0-.27-0.19h0a1.52,1.52,0,0,0-1.08-.05Zm4.23,10.42a0.33,0.33,0,0,1-.15.14,0.32,0.32,0,0,1,0,0h0a0.34,0.34,0,0,1-.26,0A0.33,0.33,0,0,1,48,48.66l-0.36-1-0.49-1.28L46,43.36l-0.37-1-0.05-.14-0.4-1.06L45.07,41,45,40.69,44.7,40l-0.07-.19a0.34,0.34,0,0,1,.2-0.44l0.12,0a0.35,0.35,0,0,1,.14,0l0,0a0.33,0.33,0,0,1,.16.17h0l0.19,0.5,0,0.07,0.35,0.92,0.1,0.27L46,41.58l0.29,0.77,1.63,4.27,0.19,0.49L48.48,48l0.15,0.39A0.33,0.33,0,0,1,48.62,48.68Zm0.91-1.27-0.13-.35-0.45-1.18-1.69-4.44-0.38-1-0.07-.19-0.13-.34a3.31,3.31,0,0,1,.41-0.32l0.26-.14,0.12,0.32,0.39,1,2,5.13,0.4,1,0.12,0.32A3.31,3.31,0,0,1,49.53,47.41Zm3.18,1.14a0.34,0.34,0,0,1-.19.18h0a0.33,0.33,0,0,1-.26,0,0.34,0.34,0,0,1-.18-0.19L52,48.34l-0.27-.71-0.27-.71-0.12-.32-0.39-1-2-5.22-0.39-1L48.45,39l-0.27-.71-0.27-.71L47.69,37a0.34,0.34,0,0,1,.2-0.44l0.12,0a0.33,0.33,0,0,1,.14,0,0.34,0.34,0,0,1,.18.19l0.22,0.57,0.27,0.71,0.27,0.71,0.12,0.32,0.39,1,2,5.22,0.39,1,0.12,0.32,0.27,0.71,0.27,0.71,0.08,0.2A0.34,0.34,0,0,1,52.71,48.56Zm0.51-2.31-0.12-.32-0.39-1-2-5.22-0.39-1-0.12-.32,0.7-.27L51,38.39l0.39,1,2,5.22,0.39,1L53.92,46Zm3.43,1.87a0.31,0.31,0,0,1-.17.16l0,0a0.31,0.31,0,0,1-.4-0.18L55.58,47l-0.27-.71L55,45.56l-0.12-.32-0.39-1-2-5.22-0.39-1L52,37.64l-0.27-.71-0.27-.71-0.58-1.51a0.32,0.32,0,0,1,0-.24,0.36,0.36,0,0,1,.22-0.18l0.11,0a0.31,0.31,0,0,1,.13,0,0.32,0.32,0,0,1,.17.17L52.11,36l0.27,0.71,0.27,0.71,0.12,0.32,0.39,1,2,5.22,0.39,1,0.12,0.32L55.94,46l0.27,0.71,0.44,1.15A0.32,0.32,0,0,1,56.64,48.12Zm0.15-3.23-0.12-.32-0.39-1-2-5.22-0.39-1L53.78,37l0.76-.29L54.66,37l0.39,1,2,5.22,0.39,1,0.12,0.32Zm3.06,0.75a0.34,0.34,0,0,1-.62,0v0L59,44.88l-0.27-.71-0.12-.32-0.39-1-2-5.22-0.39-1-0.12-.32-0.27-.71-0.27-.71-0.28-.73a0.34,0.34,0,0,1,.2-0.44l0.12,0a0.34,0.34,0,0,1,.32.22l0.28,0.73L56,35.3,56.3,36l0.12,0.32,0.39,1,2,5.22,0.39,1,0.12,0.32,0.27,0.71,0.27,0.71v0A0.34,0.34,0,0,1,59.86,45.64Zm0.5-2.35L60.23,43l-0.45-1.19-1.7-4.46-0.45-1.18-0.13-.35h0a3.36,3.36,0,0,1,.87.13l0.15,0.4,2.25,5.9,0.16,0.41A3.35,3.35,0,0,1,60.36,43.29Zm2.57-.45a0.33,0.33,0,0,1-.47.16,0.33,0.33,0,0,1-.16-0.17L62,42.1,61.5,40.73l-1.45-3.79-0.53-1.38-0.38-1L58.93,34a0.34,0.34,0,0,1,0-.26,0.33,0.33,0,0,1,.19-0.18l0.12,0a0.33,0.33,0,0,1,.14,0,0.34,0.34,0,0,1,.18.19L60,35l0.53,1.39,1.7,4.45,0.52,1.37,0.15,0.39A0.33,0.33,0,0,1,62.93,42.85Z"/></svg>