<?xml version="1.0" encoding="UTF-8"?>
<svg width="82px" height="54px" viewBox="0 0 82 54" version="1.1" xmlns="http://www.w3.org/2000/svg" xmlns:xlink="http://www.w3.org/1999/xlink">
    <!-- Generator: Sketch 46.2 (44496) - http://www.bohemiancoding.com/sketch -->
    <title>Group 47</title>
    <desc>Created with Sketch.</desc>
    <defs></defs>
    <g id="Desktop-+-Mobile" stroke="none" stroke-width="1" fill="none" fill-rule="evenodd">
        <g id="New-Juicer-Page-Final" transform="translate(-914.000000, -3345.000000)">
            <g id="Group-11" transform="translate(285.000000, 3335.000000)">
                <g id="Group-48" transform="translate(470.000000, 10.000000)">
                    <g id="Group-47" transform="translate(160.000000, 0.000000)">
                        <text id="BPA-FREE" transform="translate(38.404970, 26.678996) rotate(-5.000000) translate(-38.404970, -26.678996) " font-family=".AppleSystemUIFont" font-size="8" font-weight="normal" fill="#76C500">
                            <tspan x="18.9303607" y="28.6789962">BPA FREE</tspan>
                        </text>
                        <g id="Page-1">
                            <path d="M60.6613551,14.8090224 C61.2319955,14.8090224 79.7509618,12.8489362 79.7509618,12.8489362 L77.6294899,18.2896603 L80.6938382,23.6079362 L62.2640629,25.5789879 L60.6613551,14.8090224 Z" id="Fill-1" fill="#F8F8F8"></path>
                            <path d="M59.6613551,15.8090224 C60.2319955,15.8090224 78.7509618,13.8489362 78.7509618,13.8489362 L76.6294899,19.2896603 L79.6938382,24.6079362 L61.2640629,26.5789879 L59.6613551,15.8090224 L59.6613551,15.8090224 Z" id="Stroke-3" stroke="#000000" stroke-width="1.17"></path>
                            <path d="M40.3562022,52.7989655 C26.0228427,52.6975345 14.4871685,40.9488966 14.588191,26.557569 C14.6901236,12.1671552 26.3914382,0.583913793 40.7247978,0.686258621 C55.0572472,0.788603448 66.5938315,12.5372414 66.4918989,26.9276552 C66.3899663,41.318069 54.6886517,52.9013103 40.3562022,52.7989655 Z" id="Fill-5" fill="#F8F8F8"></path>
                            <path d="M66.4918989,26.9276552 C66.3899663,41.318069 54.6886517,52.9013103 40.3562022,52.7989655 C26.0228427,52.6975345 14.4871685,40.9488966 14.588191,26.557569 C14.6901236,12.1671552 26.3914382,0.583913793 40.7247978,0.686258621 C55.0572472,0.788603448 66.5938315,12.5372414 66.4918989,26.9276552 L66.4918989,26.9276552 Z" id="Stroke-7" stroke="#000000" stroke-width="1.17"></path>
                            <path d="M34.2997685,42.5822655 C34.8713191,42.8783345 35.5220494,42.9715414 35.9161281,42.9340759 C36.3174876,42.8956966 36.5996225,42.708369 36.5650382,42.3337138 C36.5213528,41.8676793 36.0471843,41.8713345 35.3846225,41.7233 C34.6710944,41.559731 34.0167236,41.2782828 33.9348135,40.402869 C33.8474427,39.4653172 34.498173,38.8156103 35.5493528,38.7160069 C36.0399034,38.6703172 36.6533191,38.7379379 37.1111056,38.9325759 L37.2130382,40.0236448 C36.6496787,39.7394552 36.0198809,39.6453345 35.632173,39.6818862 C35.259027,39.7175241 35.0023753,39.8820069 35.0333191,40.2146276 C35.0751843,40.6596448 35.5420719,40.6505069 36.1627685,40.7948862 C36.9400045,40.9739897 37.5816337,41.2709724 37.6644539,42.1591793 C37.7563753,43.1387655 37.0719708,43.7985241 35.9934876,43.900869 C35.4947461,43.9474724 34.8822404,43.8789379 34.4035213,43.6934379 L34.2997685,42.5822655 Z" id="Fill-11" fill="#000000"></path>
                            <path d="M39.7014674,41.5323172 L41.0502539,41.4043862 L40.7899618,40.8615931 C40.6079393,40.4805414 40.3813213,39.9971448 40.2138607,39.6270586 L40.200209,39.6288862 C40.1046472,40.0236448 39.9717708,40.5399379 39.851636,40.9785586 L39.7014674,41.5323172 Z M39.5695011,38.4135414 L40.6343326,38.3121103 L43.1389618,43.1479034 L41.9640067,43.2593862 L41.4634449,42.2414207 L39.4439056,42.4324034 L39.1353775,43.5262138 L38.0077483,43.6331276 L39.5695011,38.4135414 Z" id="Fill-13" fill="#000000"></path>
                            <polygon id="Fill-15" fill="#000000" points="43.1481539 38.0748897 46.3226258 37.7751655 46.412727 38.740131 44.3385809 38.9365966 44.4396034 40.0194414 46.2243337 39.8503897 46.3098843 40.7678379 44.526064 40.9359759 44.7190079 42.9984069 43.6195921 43.1025793"></polygon>
                            <polygon id="Fill-17" fill="#000000" points="47.0650045 37.7047121 50.1566562 37.4122983 50.2467573 38.3781776 48.2554315 38.566419 48.3473528 39.5524017 50.0629146 39.3897466 50.1484652 40.306281 48.4338135 40.4689362 48.5457573 41.6632638 50.6135326 41.4677121 50.7036337 42.4326776 47.5364427 42.7324017"></polygon>
                            <polygon id="Fill-19" fill="#000000" points="32.5635472 13.9006569 31.6070191 14.3392776 31.5269292 13.3706569 33.5173449 12.451381 33.9278056 17.4004845 32.8611539 17.4900362"></polygon>
                            <path d="M37.4091674,15.9566 C37.5511449,15.7144448 37.5866393,15.325169 37.5293022,14.6379966 C37.478336,14.0257552 37.3900551,13.6054103 37.1943809,13.3705655 C37.0742461,13.2252724 36.9049652,13.1311517 36.6828978,13.1494276 C36.4690213,13.1667897 36.3097517,13.2892379 36.2160101,13.4528069 C36.0676618,13.7095828 36.0430888,14.1454621 36.0949652,14.7714103 C36.150482,15.4384793 36.2505944,15.8231862 36.4298865,16.0388414 C36.5491112,16.1777379 36.7265831,16.2782552 36.9413697,16.2599793 C37.162527,16.2417034 37.3145157,16.1137724 37.4091674,15.9566 M35.6244371,16.6693586 C35.2886056,16.2764276 35.0993022,15.7089621 35.0283135,14.8536517 C34.9573247,13.9983414 35.0501562,13.408031 35.3177292,12.9657552 C35.5971337,12.5079448 36.0676618,12.2383759 36.603718,12.1936 C37.1470551,12.1479103 37.6494371,12.3361517 37.9998303,12.7409621 C38.3365719,13.1329793 38.5258753,13.7004448 38.596864,14.5557552 C38.6678528,15.4110655 38.5750213,16.0013759 38.3074483,16.4445655 C38.0280438,16.9023759 37.5638865,17.171031 37.0205494,17.2167207 C36.4844933,17.2614966 35.9757404,17.0732552 35.6244371,16.6693586" id="Fill-21" fill="#000000"></path>
                            <path d="M41.6231697,15.60415 C41.7651472,15.3619948 41.8006416,14.972719 41.7433045,14.2855466 C41.6923382,13.6733052 41.6040573,13.2529603 41.4083831,13.0181155 C41.2882483,12.8728224 41.1189674,12.7787017 40.8969,12.7969776 C40.6830236,12.8143397 40.5237539,12.9367879 40.4300124,13.1003569 C40.281664,13.3571328 40.257091,13.7930121 40.3089674,14.4189603 C40.3644843,15.0860293 40.4645966,15.4707362 40.6438888,15.6863914 C40.7631135,15.8252879 40.9405854,15.9258052 41.1553719,15.9075293 C41.3765292,15.8892534 41.528518,15.7613224 41.6231697,15.60415 M39.8384393,16.3169086 C39.5026079,15.9239776 39.3133045,15.3565121 39.2423157,14.5012017 C39.171327,13.6458914 39.2641584,13.055581 39.5317315,12.6133052 C39.811136,12.1554948 40.281664,11.8859259 40.8177202,11.84115 C41.3610573,11.7954603 41.8634393,11.9837017 42.2138326,12.3885121 C42.5505742,12.7805293 42.7398775,13.3479948 42.8108663,14.2033052 C42.8818551,15.0586155 42.7890236,15.6489259 42.5214506,16.0921155 C42.2420461,16.5499259 41.7778888,16.818581 41.2345517,16.8642707 C40.6984955,16.9090466 40.1897427,16.7208052 39.8384393,16.3169086" id="Fill-23" fill="#000000"></path>
                            <path d="M48.0393708,15.6644603 C48.3542697,15.6379603 48.5326517,15.3382362 48.5035281,14.9882534 C48.4744045,14.6382707 48.2496067,14.3723569 47.9347079,14.3988569 C47.6188989,14.4253569 47.441427,14.725081 47.4705506,15.0750638 C47.4996742,15.4250466 47.7244719,15.6909603 48.0393708,15.6644603 L48.0393708,15.6644603 Z M47.8819213,13.7719948 C48.6263933,13.7098569 49.134236,14.2097017 49.1943034,14.9306845 C49.2534607,15.6507534 48.8357191,16.2282707 48.0912472,16.2904086 C47.3467753,16.3534603 46.8398427,15.8527017 46.7797753,15.1326328 C46.7197079,14.41165 47.1383596,13.8341328 47.8819213,13.7719948 L47.8819213,13.7719948 Z M47.2985393,11.3732879 L47.9820337,11.315719 L45.214382,16.456719 L44.5308876,16.5133741 L47.2985393,11.3732879 Z M45.0423708,12.7558569 C45.0132472,12.4049603 44.7893596,12.1390466 44.4735506,12.1655466 C44.1586517,12.1920466 43.9802697,12.4908569 44.0093933,12.8417534 C44.0385169,13.1917362 44.2633146,13.45765 44.5791236,13.4320638 C44.8940225,13.4055638 45.0714944,13.1058397 45.0423708,12.7558569 L45.0423708,12.7558569 Z M43.318618,12.8993224 C43.2594607,12.1783397 43.6772022,11.6017362 44.4216742,11.5395983 C45.1661461,11.4774603 45.6739888,11.9763914 45.7331461,12.6973741 C45.7932135,13.4183569 45.3754719,13.9949603 44.631,14.0570983 C43.8865281,14.1192362 43.3786854,13.6203052 43.318618,12.8993224 L43.318618,12.8993224 Z" id="Fill-25" fill="#000000"></path>
                            <path d="M17.2835798,39.4487224 C16.7129393,39.4487224 1.15365843,40.98755 1.15365843,40.98755 L3.27513034,35.5468259 L0.210782022,30.22855 L15.6808719,28.6787569 L17.2835798,39.4487224 Z" id="Fill-27" fill="#F8F8F8"></path>
                            <path d="M17.2835798,39.4487224 C16.7129393,39.4487224 1.15365843,40.98755 1.15365843,40.98755 L3.27513034,35.5468259 L0.210782022,30.22855 L15.6808719,28.6787569 L17.2835798,39.4487224 L17.2835798,39.4487224 Z" id="Stroke-29" stroke="#000000" stroke-width="1.17"></path>
                            <g id="Group-34" transform="translate(62.797753, 14.192303)" fill="#F8F8F8">
                                <path d="M0.758669663,0.722536207 L10.5214449,4.18032931" id="Fill-31"></path>
                            </g>
                            <polygon id="Fill-35" fill="#F8F8F8" points="9.24837978 37.4635983 18.5024022 40.7495983 16.6930989 36.4054259"></polygon>
                            <polygon id="Stroke-37" stroke="#000000" stroke-width="1.17" stroke-linejoin="round" points="9.24837978 37.4635983 18.5024022 40.7495983 16.6930989 36.4054259"></polygon>
                            <polygon id="Fill-45" fill="#F8F8F8" points="8.24953146 24.4080534 9.14508202 37.1572948 74.8715764 30.6044845 73.3189247 18.37245"></polygon>
                            <polygon id="Stroke-47" stroke="#000000" stroke-width="1.17" points="8.24953146 24.4080534 9.14508202 37.1572948 74.8715764 30.6044845 73.3189247 18.37245"></polygon>
                        </g>
                        <text id="BPA-FREE" transform="translate(41.343024, 27.147835) rotate(-4.000000) translate(-41.343024, -27.147835) " font-family="Montserrat-Regular, Montserrat" font-size="8" font-weight="normal" fill="#76C500">
                            <tspan x="21.1590244" y="30.147835">BPA FREE</tspan>
                        </text>
                        <path d="M64,15 L73.9550781,18.2685547" id="Path-207" stroke="#000000" stroke-width="1.17"></path>
                    </g>
                </g>
            </g>
        </g>
    </g>
</svg>