<?xml version="1.0" encoding="UTF-8"?>
<svg width="43px" height="47px" viewBox="0 0 43 47" version="1.1" xmlns="http://www.w3.org/2000/svg" xmlns:xlink="http://www.w3.org/1999/xlink">
    <!-- Generator: Sketch 45.1 (43504) - http://www.bohemiancoding.com/sketch -->
    <title>Page 1</title>
    <desc>Created with Sketch.</desc>
    <defs></defs>
    <g id="Hurom-About-Page-v2" stroke="none" stroke-width="1" fill="none" fill-rule="evenodd">
        <g id="Desktop---Hurom-About-Page---Annotations" transform="translate(-216.000000, -4799.000000)">
            <g id="Page-1" transform="translate(216.000000, 4800.000000)">
                <polyline id="Stroke-1" stroke="#000000" stroke-linecap="round" stroke-linejoin="round" points="38.0721 21.4995 38.0721 18.4365 40.1451 18.4365 20.3221 0.4995 7.7631 11.8645 7.7631 4.8835 4.1381 4.8835 4.1381 15.1445 0.5001 18.4365 2.5721 18.4365 2.5721 44.6245 38.0721 44.6245 38.0721 37.7495"></polyline>
                <path d="M39.7684,24.6162 C38.7004,23.5492 37.3334,23.0762 35.9424,23.0762 C34.2284,23.0762 32.4644,23.7972 31.1484,25.0892 C31.1484,25.0892 31.1224,25.1132 31.0984,25.1132 C31.0734,25.1132 31.0734,25.1132 31.0484,25.0892 C29.8564,23.9702 28.3164,22.8522 26.7504,22.8522 C25.1864,22.8522 23.6214,23.4492 22.4284,24.6412 C20.0434,27.0262 20.0434,30.9272 22.4284,33.3112 L30.5774,40.9872 C30.7254,41.1112 30.8994,41.1862 31.0984,41.1862 C31.2724,41.1862 31.4704,41.1112 31.6204,40.9872 L39.7684,33.3112 C40.9604,32.0942 41.5324,30.5042 41.5324,28.9392 C41.5324,27.3742 40.9604,25.8082 39.7684,24.6162 Z" id="Stroke-3" stroke="#000000" stroke-linecap="round" stroke-linejoin="round"></path>
                <path d="M38.8983,32.3916 L31.0983,39.7206 L23.2973,32.3916 C22.4043,31.4726 21.9073,30.2556 21.9073,28.9396 C21.9073,27.6216 22.4043,26.4056 23.3233,25.4866 C24.2423,24.5666 25.4593,24.0706 26.7763,24.0706 C27.7193,24.0706 28.9123,24.7156 30.2043,25.9576 C30.4533,26.1816 30.7753,26.3056 31.0983,26.3056 C31.4463,26.3056 31.7693,26.1816 32.0173,25.9336 C33.0863,24.8896 34.5513,24.2936 35.9423,24.2936 C36.7373,24.2936 37.9053,24.4926 38.8983,25.4866 C39.7933,26.4056 40.2903,27.6476 40.2903,28.9396 C40.2903,30.2556 39.7933,31.4726 38.8983,32.3916" id="Fill-5" fill="#78C500"></path>
            </g>
        </g>
    </g>
</svg>