<?xml version="1.0" encoding="utf-8"?>
<!-- Generator: Adobe Illustrator 20.0.0, SVG Export Plug-In . SVG Version: 6.00 Build 0)  -->
<svg version="1.2" baseProfile="tiny" id="Layer_1" xmlns="http://www.w3.org/2000/svg" xmlns:xlink="http://www.w3.org/1999/xlink"
	 x="0px" y="0px" viewBox="0 0 65.6 67.3" xml:space="preserve">
<g>
	<g>
		
			<path fill="none" stroke="#000000" stroke-width="0.9" stroke-linecap="round" stroke-linejoin="round" stroke-miterlimit="10" d="
			M41.8,26.9c7.4,0,13.5,6,13.5,13.5s-6,13.5-13.5,13.5c-6.1,0-11.3-4.1-12.9-9.6"/>
		<path fill="#76C500" d="M41.8,30.1c-0.8,0-1.6,0.1-2.4,0.3c-0.9,4.6-3.5,8.8-7.8,11.1c0.6,5.1,4.9,9.2,10.2,9.2
			c5.7,0,10.3-4.6,10.3-10.3C52.1,34.7,47.5,30.1,41.8,30.1z"/>
	</g>
	<g>
		<circle fill="none" stroke="#000000" stroke-width="0.9" stroke-miterlimit="10" cx="23.8" cy="26.9" r="13.5"/>
		<path fill="#76C500" d="M23.8,16.6c5.7,0,10.3,4.6,10.3,10.3s-4.6,10.3-10.3,10.3V16.6z"/>
	</g>
</g>
</svg>
