<?xml version="1.0" encoding="UTF-8"?>
<svg width="62px" height="59px" viewBox="0 0 62 59" version="1.1" xmlns="http://www.w3.org/2000/svg" xmlns:xlink="http://www.w3.org/1999/xlink">
    <!-- Generator: Sketch 46.2 (44496) - http://www.bohemiancoding.com/sketch -->
    <title>Quality</title>
    <desc>Created with Sketch.</desc>
    <defs>
        <polygon id="path-1" points="26.1838636 0.42392381 26.1838636 25.894019 0.938004545 25.894019 0.938004545 0.42392381 26.1838636 0.42392381"></polygon>
    </defs>
    <g id="Hurom-Our-Approach-Wireframes" stroke="none" stroke-width="1" fill="none" fill-rule="evenodd">
        <g id="Our-Approach---Final" transform="translate(-1030.000000, -4191.000000)">
            <g id="Quality" transform="translate(1031.000000, 4192.000000)">
                <path d="M47.2722607,40.8344017 C46.4196463,40.3971382 45.2872117,40.3039713 44.5266748,40.2132888 C44.4058977,40.1996243 44.2899039,40.2244688 44.2169593,40.3313003 L44.7144174,39.4977667 C43.8785443,38.6803821 42.8549287,38.0667225 41.8827329,37.4456096 C41.3673377,37.1164197 40.7945434,37.1971644 40.2169659,37.1201464 C39.9682368,37.0866063 39.7207036,36.9897127 39.4671913,37.0008927 C39.2471618,37.0108305 39.1275805,37.0394017 38.9183133,37.1002708 L38.6946963,37.1735621 L38.569136,37.178531 L38.4842333,37.1822577 L38.3622604,37.1847422 L38.1996298,37.1859844 C36.5075549,37.3810138 37.5239957,38.8219958 37.0779575,39.87913 C36.8734736,40.3623559 36.3461202,40.5822299 36.1356571,41.0604868 C35.9251941,41.5350171 36.0065094,42.1387389 36.0698874,42.6356292 C36.3879736,45.1846767 38.0106914,43.9884132 38.3491064,46.0989549 C38.5834857,47.5585703 37.9377469,50.1759402 37.4570302,51.5746865 C37.2943996,52.0454901 36.8232494,52.4069778 36.9093479,52.9535572 C36.9751176,53.3659762 37.540737,54.1013739 37.9903626,53.9883313 C38.0417826,53.9759091 37.9748171,53.8429909 37.9736212,53.8330531 C37.9520966,53.6690793 38.0094956,53.4752921 38.1123355,53.3510695 C38.6863256,52.666603 39.322498,52.0417634 39.8976839,51.3597814 C40.0926013,51.1274852 40.2121826,50.8368043 40.471674,50.6703461 C40.8890126,50.405752 41.403212,50.7672397 41.8277256,50.5461235 C41.9174115,50.4989189 41.9748105,50.3647585 42.0118807,50.2032691 C42.1063499,49.7821546 42.399324,49.4393002 42.7604595,49.2243952 C43.701564,48.6653935 44.001713,47.315094 44.8591107,46.5908764 C45.2860159,46.2306309 45.8887055,46.2467798 46.3120232,45.8840498 C46.4794369,45.7411939 46.2845195,45.4952331 46.2893027,45.323806 C46.3215897,44.4542479 47.1981204,43.6331366 47.7469984,42.8567454 C48.2277151,42.1809746 47.9981191,41.2058273 47.2722607,40.8344017" id="Fill-1" fill="#78C500"></path>
                <path d="M34.5434482,18.3781458 C33.8556644,18.469626 33.1362304,17.3894081 33.1678807,17.4119648 L33.1678807,17.0711072 C33.5196851,16.5084415 34.0175675,16.1788622 34.4631053,15.849283 C34.4923209,15.2753389 34.5519694,14.7101669 34.6444854,14.1550201 C34.1137355,14.0284516 33.5890721,13.9119084 33.0437144,13.8880985 C32.9098096,13.8830859 32.7771221,13.9256931 32.6663463,14.0033886 L31.5817175,14.7615461 C31.4977226,14.8204443 31.4015546,14.866811 31.2993001,14.8730768 C30.3960513,14.924456 29.4952372,13.7051381 29.0217011,13.1925985 C28.8890137,13.0497391 28.7015469,12.9808157 28.509211,13.0046256 C27.3138063,13.1587634 26.069709,13.1211688 24.873087,13.0860805 C25.7483374,13.5735571 26.2364813,13.1675355 26.5310719,14.3392336 C23.5961221,14.0409831 18.0488114,15.8066758 15.692087,17.9257576 L15.8016454,18.5523341 C15.018911,19.3205169 14.3055636,21.1513735 16.2447486,20.0886997 L16.577076,19.4057313 L16.6878517,19.0648737 L20.325193,19.0648737 C20.4067532,19.0648737 20.4919654,19.0811647 20.5662217,19.1112403 C25.9796275,21.3117771 20.5503966,25.8193686 25.3709694,28.5725458 C25.8591132,28.3219152 28.193926,30.9886249 28.9218812,31.8144527 C29.0229185,31.9297428 29.052134,32.0776149 29.0570033,32.2330058 C29.1069133,34.2518354 34.8818621,34.0663687 36.1856079,36.3633983 C36.2854279,36.5400928 36.4388097,36.6766865 36.6347977,36.7092685 L38.3682562,37 L37.2921485,36.6303199 C37.0425987,36.5451054 36.874609,36.3032469 36.874609,36.0325659 L36.874609,35.2405731 C36.874609,34.9385632 36.6676652,34.6804137 36.3803786,34.6215155 L34.5471001,34.2518354 C34.2610308,34.1954435 34.054087,33.9360408 34.054087,33.6340309 L34.054087,32.5011806 C33.9956558,32.0425266 33.3638686,32.5312563 33.4454288,32.6152175 L32.615219,33.1277571 C31.4332049,31.1640663 31.1824377,29.6515106 33.4929041,28.9246818 C33.6365475,28.8795683 33.7972332,28.893353 33.9323553,28.9585169 L36.4582868,30.1640502 C36.9099112,30.3795925 37.4090109,29.9798367 37.3164948,29.4760691 L37.2203268,28.9522512 C37.1740688,28.7016206 37.2714541,28.4321927 37.4869191,28.3056242 C38.1698336,27.9058684 38.7042355,28.3595098 38.6993662,27.206609 C38.7127567,27.1239009 38.7541455,27.0562306 38.790665,26.9848009 C38.3207808,26.5286532 39.7766912,23.8293615 39.3725422,23.3105562 C39.1035153,22.9659391 41.8400424,21.8005068 41.9946416,20.5912141 C42.0530728,20.1313069 41.6245774,19.4245286 41.1510414,19.3117448 C37.5088308,18.4433098 41.1084353,15.6888794 41.1510414,15.3693254 C41.2922501,14.3091579 39.0122165,13.032195 37.2568463,13.2966102 C35.174018,13.6098985 36.0188356,18.1814008 34.5434482,18.3781458" id="Fill-3" fill="#78C500"></path>
                <path d="M50.6868346,22.0182953 C56.3568308,34.2455359 51.2450332,48.8493041 39.2672718,54.6386286 C27.2907159,60.4267225 12.9849165,55.2084537 7.31371465,42.9824439 C1.64251284,30.756434 6.755516,16.1502044 18.7320719,10.3621106 C30.7098333,4.57278602 45.0156328,9.79105477 50.6868346,22.0182953 Z" id="Stroke-5" stroke="#000000" stroke-width="1.10000002"></path>
                <path d="M50.7872972,36 C50.7872972,36 47.6983224,34.072976 48.3931417,32.3089083 C49.0891039,30.5435474 47.3394847,28.1173077 48.2902902,27.6258519 C49.2422384,27.1343961 49.7427826,25.5604442 49.9382005,26.1178586 C51.6375367,30.9586982 50.7872972,36 50.7872972,36" id="Fill-7" fill="#78C500"></path>
                <path d="M24.10632,51.9847429 C23.70803,51.72808 24.5369767,49.134715 24.8156897,49.0106612 C25.0935037,48.8876769 24.8138916,49.8672737 25,49.9667306 C25,49.9667306 24.4488674,52.2050453 24.10632,51.9847429" id="Fill-9" fill="#78C500"></path>
                <path d="M25.5148135,49.9999495 C25.3608661,50.0076745 25.3625039,49.1257356 25.1356771,49.2338858 C24.9088504,49.3407485 25.0349563,48.1819966 25.0349563,48.1819966 C25.0349563,48.1819966 25.4607681,48.1201965 25.7457346,48.0171964 C26.0315199,47.9154837 26.0765577,48.2888593 25.8800291,48.5103096 C25.6835005,48.73176 25.7686629,49.988362 25.5148135,49.9999495" id="Fill-11" fill="#78C500"></path>
                <path d="M21.051263,50.6707867 C21.4309018,50.2803419 21.369631,49.0824135 21.8778184,48.6629573 C22.3860059,48.2447099 21.2158532,45.1767562 20.0829436,44.5215825 C18.9512354,43.8664088 19.447409,42.9174948 19.058159,43.0057378 C18.6677077,43.0939807 18.8611312,45.1815915 18.4598674,45.0389522 C18.0574022,44.8951041 16.8415967,44.2121278 17.3882286,43.3164013 C17.9348605,42.4206749 15.3542774,43.8917938 15.3542774,43.8917938 C15.3542774,43.8917938 12.9683193,44.9664237 12,45.5224752 C12,45.5224752 13.900597,47.8385505 14.9830483,48.6013081 C15.6317982,49.0594462 16.0799163,48.1854783 16.5484579,48.9373566 C17.0182009,49.689235 17.3569925,50.4012226 18.3949924,50.7288095 C19.4317909,51.0551875 20.5911311,51.1446393 21.051263,50.6707867" id="Fill-13" fill="#78C500"></path>
                <path d="M21.2998142,51.9932296 C21.5558142,52.0652296 22.1028142,51.4392296 21.9598142,51.1562296 C21.8168142,50.8732296 21.5518142,51.0802296 21.1878142,51.0042296 C20.8238142,50.9272296 21.0598142,51.9262296 21.2998142,51.9932296" id="Fill-15" fill="#78C500"></path>
                <path d="M13.0224072,33.669938 C12.6894265,33.6549284 11.8924366,30.2715133 12.8673368,29.4747534 C13.8410349,28.6779935 12.3852961,28.9168964 12.0150504,29.6736307 C11.6448048,30.4291141 11.0714048,30.1889604 10.7348178,30.7280554 C10.3982308,31.2684012 9.56998638,32.6517864 10.1926723,32.9682389 C10.8153582,33.2846915 11.5943167,34.5179807 11.0858299,35.9251311 C10.5773432,37.3322816 10.1301633,36.6731098 10.0965046,37.7838205 C10.064048,38.8945313 7.13333699,35.6424502 8.25609502,29.9312955 C9.01461785,26.0725763 10.3032652,24 10.3032652,24 C10.3032652,24 12.7351062,25.6673169 14.104294,24.5228346 C15.4734818,23.3783522 16,26.4615752 16,26.4615752 C16,26.4615752 15.2751359,27.2520811 14.7882868,28.1876798 C14.3206713,29.0857545 13.405876,30.1139124 13.0969372,30.6817758 C12.7867963,31.2496392 13.3794299,31.1108003 13.4719913,31.2558932 C13.8013657,31.7812294 13.4479494,33.6887 13.0224072,33.669938" id="Fill-17" fill="#78C500"></path>
                <path d="M11.0120862,37.9311129 C11.1217019,37.4955638 11.6963537,37.4149872 11.6158028,36.4262909 C11.5352519,35.4365056 12.0492829,36.4480683 11.9961359,36.6876203 C11.9429889,36.9271723 12.0683826,37.7209605 11.937176,37.8919135 C11.8067998,38.0628665 11.5435561,37.9822899 11.4580227,38.3274625 C11.3716588,38.6726351 11.173188,39.195294 11.1300061,38.9252536 C11.0876546,38.6563021 10.9606001,38.1347321 11.0120862,37.9311129" id="Fill-19" fill="#78C500"></path>
                <path d="M12.2771339,35.9563894 C12.3871339,36.0273894 12.5901339,35.7433894 12.6181339,35.6153894 C12.6471339,35.4863894 12.1831339,35.3933894 12.1761339,35.1733894 C12.1691339,34.9533894 11.9441339,34.9333894 12.0131339,35.1673894 C12.0831339,35.4003894 12.1431339,35.8703894 12.2771339,35.9563894" id="Fill-21" fill="#78C500"></path>
                <path d="M18,8 L16,3" id="Stroke-23" stroke="#78C500" stroke-width="1.10000002" stroke-linecap="round" stroke-linejoin="round"></path>
                <path d="M36,5 L38,0" id="Stroke-25" stroke="#78C500" stroke-width="1.10000002" stroke-linecap="round" stroke-linejoin="round"></path>
                <path d="M5,21 L0,19" id="Stroke-27" stroke="#78C500" stroke-width="1.10000002" stroke-linecap="round" stroke-linejoin="round"></path>
                <path d="M10,13 L6,10" id="Stroke-29" stroke="#78C500" stroke-width="1.10000002" stroke-linecap="round" stroke-linejoin="round"></path>
                <path d="M27.27,5 L27,0" id="Stroke-31" stroke="#78C500" stroke-width="1.10000002" stroke-linecap="round" stroke-linejoin="round"></path>
                <g id="Group-35" transform="translate(34.000000, 4.000000)">
                    <mask id="mask-2" fill="white">
                        <use xlink:href="#path-1"></use>
                    </mask>
                    <g id="Clip-34"></g>
                    <path d="M26.1842318,13.1589714 C26.1842318,20.1925905 20.5326409,25.894019 13.5605045,25.894019 C6.58959545,25.894019 0.938004545,20.1925905 0.938004545,13.1589714 C0.938004545,6.12535238 6.58959545,0.42392381 13.5605045,0.42392381 C20.5326409,0.42392381 26.1842318,6.12535238 26.1842318,13.1589714" id="Fill-33" fill="#FFFFFF" mask="url(#mask-2)"></path>
                </g>
                <path d="M41.7826087,25.5649036 C40.2578808,24.3094621 39.1251903,22.5987369 38.5755935,20.6473441 C38.3919811,19.9910906 38.2766029,19.3075448 38.2331811,18.6029097 C38.2257373,18.4763731 38.217053,18.3498365 38.2133311,18.2220593 C38.2120905,18.147626 38.2021655,18.0744333 38.2021655,18 C38.2021655,16.1949927 38.7021373,14.5078381 39.5569278,13.0551483 C39.658659,12.8802301 39.757909,12.7053118 39.8695652,12.5390775 C39.9849433,12.3691215 40.1114871,12.2090899 40.2367902,12.0478178 C42.0282524,9.7155746 44.8382676,8.20333822 47.9993797,8.20333822 C53.4010602,8.20333822 57.7965939,12.5973836 57.7965939,18 C57.7965939,21.6124958 55.8252411,24.7659862 52.9072915,26.4655464 C52.7286415,26.5685125 52.5487509,26.6652757 52.3638978,26.7570768 C52.1852478,26.8463968 52.0065979,26.9394384 51.8217448,27.0188339 C50.6468731,27.5187775 49.3553826,27.7954212 47.9993797,27.7954212 C45.6409519,27.7954212 43.474821,26.9580467 41.7826087,25.5649036 M47.9993797,7 C44.3370552,7 41.0953025,8.80500733 39.0954153,11.5664825 C38.9713528,11.7364385 38.8534935,11.9088756 38.739356,12.0850344 C38.630181,12.2549904 38.5247279,12.426187 38.4254779,12.6023458 C37.5210624,14.1989399 37,16.0374422 37,18 C37,19.3732942 37.2630125,20.6833202 37.7245249,21.8965828 C38.3832967,23.6234352 39.4564372,25.1406338 40.8310495,26.3266043 C42.7589804,27.9877072 45.2613207,29 47.9993797,29 C49.4521514,29 50.8366887,28.7109507 52.1070885,28.197361 C52.2956635,28.1204466 52.4780353,28.0348483 52.6616478,27.9480095 C52.8489821,27.8611706 53.0375571,27.7780535 53.2186883,27.6800496 C56.6577003,25.8192173 59,22.1781888 59,18 C59,11.9336867 54.0647945,7 47.9993797,7" id="Fill-36" fill="#000000"></path>
                <path d="M40,18 C40,13.5814536 43.5808927,10 48,10 C52.4178543,10 56,13.5814536 56,18 C56,22.4185464 52.4178543,26 48,26 C43.5808927,26 40,22.4185464 40,18" id="Fill-38" fill="#78C500"></path>
                <path d="M45.4570025,17.9900077 L46.2714988,17.9900077 L46.544226,17.0087112 L45.7297297,17.0087112 L45.4570025,17.9900077 Z M47.2321867,16.47835 L48,16.47835 L47.8550369,17.0087112 L47.0859951,17.0087112 L46.8144963,17.9900077 L47.5835381,17.9900077 L47.4373464,18.5229311 L46.6695332,18.5229311 L46.2653563,20 L45.7223587,20 L46.1265356,18.5229311 L45.3120393,18.5229311 L44.9078624,20 L44.3636364,20 L44.7678133,18.5229311 L44,18.5229311 L44.1461916,17.9900077 L44.9152334,17.9900077 L45.1855037,17.0087112 L44.4176904,17.0087112 L44.5626536,16.47835 L45.3304668,16.47835 L45.7358722,15 L46.2788698,15 L45.8746929,16.47835 L46.6891892,16.47835 L47.0933661,15 L47.6363636,15 L47.2321867,16.47835 Z" id="Fill-40" fill="#FFFFFF"></path>
                <polygon id="Fill-42" fill="#FFFFFF" points="50.1057441 16.1355034 49 16.5304063 49 15.7204138 51 15 51 20 50.1057441 20"></polygon>
            </g>
        </g>
    </g>
</svg>