<?xml version="1.0" encoding="UTF-8" standalone="no"?>
<svg width="43px" height="50px" viewBox="0 0 43 50" version="1.1" xmlns="http://www.w3.org/2000/svg" xmlns:xlink="http://www.w3.org/1999/xlink">
    <!-- Generator: Sketch 40.1 (33804) - http://www.bohemiancoding.com/sketch -->
    <title>Page 1</title>
    <desc>Created with Sketch.</desc>
    <defs></defs>
    <g id="Recipes" stroke="none" stroke-width="1" fill="none" fill-rule="evenodd">
        <g id="Recipes-Page-v3.1" transform="translate(-1274.000000, -752.000000)" stroke-width="1.667">
            <g id="Group-31" transform="translate(-3.000000, 721.000000)">
                <g id="Page-1" transform="translate(1278.000000, 32.000000)">
                    <path d="M20.7661583,0.214028571 C20.7661583,0.214028571 27.9830125,8.30117143 40.6614083,10.5168857 C40.6614083,10.5168857 43.9337208,35.3157429 20.7661583,47.4263143 C-2.40140417,35.3157429 0.870908333,10.5168857 0.870908333,10.5168857 C13.5493042,8.30117143 20.7661583,0.214028571 20.7661583,0.214028571 L20.7661583,0.214028571 Z" id="Stroke-1" stroke="#221F20"></path>
                    <path d="M0.870908333,19.5364286 C13.5493042,17.3207143 20.7661583,9.23357143 20.7661583,9.23357143 C20.7661583,9.23357143 27.9830125,17.3207143 40.6614083,19.5364286" id="Stroke-3" stroke="#221F20"></path>
                    <path d="M10.0258667,27.5720571 L12.7216167,27.5720571 C12.8984292,27.5720571 13.0573042,27.4623429 13.1205125,27.2969143 L15.3345125,21.4846286 C15.4814292,21.1006286 16.0315125,21.1237714 16.1442625,21.5197714 L18.9331167,31.2723429 C19.0492833,31.6777714 19.6173042,31.6897714 19.7488458,31.2886286 L22.8836375,21.7700571 C23.01945,21.3569143 23.6130958,21.3869143 23.7062,21.8129143 L25.9671792,32.1492 C26.0568667,32.5572 26.6154917,32.6086286 26.7777833,32.2237714 L28.9208875,27.1374857 C28.9875125,26.9789143 29.1429708,26.8760571 29.3138042,26.8760571 L32.6612833,26.8760571" id="Stroke-5" stroke="#77C043" stroke-linecap="round" stroke-linejoin="round"></path>
                </g>
            </g>
        </g>
    </g>
</svg>