<?xml version="1.0" encoding="utf-8"?>
<!-- Generator: Adobe Illustrator 19.2.1, SVG Export Plug-In . SVG Version: 6.00 Build 0)  -->
<svg version="1.1" xmlns="http://www.w3.org/2000/svg" xmlns:xlink="http://www.w3.org/1999/xlink" x="0px" y="0px"
	 viewBox="0 0 21.4 21.4" enable-background="new 0 0 21.4 21.4" xml:space="preserve">
<path fill="#030303" d="M5.3,1.4C7,0.5,8.8,0,10.7,0s3.7,0.5,5.4,1.4c1.6,0.9,3,2.3,3.9,3.9c1,1.6,1.5,3.5,1.4,5.4
	c0,1.9-0.5,3.7-1.4,5.4c-0.9,1.6-2.3,3-3.9,3.9c-1.6,1-3.5,1.5-5.4,1.4C8.8,21.5,7,21,5.3,20c-1.6-0.9-3-2.3-3.9-3.9
	c-1-1.6-1.5-3.5-1.4-5.4C0,8.8,0.5,7,1.4,5.3C2.4,3.7,3.7,2.4,5.3,1.4z M12.5,12.6l0.2-8.7c0-0.1,0-0.2-0.1-0.2
	c-0.1-0.1-0.2-0.1-0.3-0.1H9.2c-0.1,0-0.2,0-0.3,0.1c-0.1,0-0.1,0.1-0.1,0.2L9,12.6c0,0.1,0.1,0.2,0.1,0.2c0.1,0.1,0.2,0.1,0.3,0.1
	H12c0.1,0,0.2,0,0.3-0.1C12.4,12.8,12.5,12.7,12.5,12.6L12.5,12.6z M12.5,17.4v-2.6c0-0.1,0-0.2-0.1-0.3s-0.2-0.1-0.3-0.1H9.4
	c-0.2,0-0.4,0.2-0.5,0.5v2.6c0,0.2,0.2,0.4,0.5,0.5h2.7c0.1,0,0.2,0,0.3-0.1C12.5,17.6,12.5,17.5,12.5,17.4L12.5,17.4z"/>
</svg>
