<?xml version="1.0" encoding="utf-8"?>
<!-- Generator: Adobe Illustrator 19.2.1, SVG Export Plug-In . SVG Version: 6.00 Build 0)  -->
<svg version="1.1" xmlns="http://www.w3.org/2000/svg" xmlns:xlink="http://www.w3.org/1999/xlink" x="0px" y="0px"
	 viewBox="0 0 28 28" enable-background="new 0 0 28 28" xml:space="preserve">
<path fill="#FFFFFF" d="M2.1,11.6l0.4,9.9c0,0,0,0.1,0.1,0.1l11.7,3.8c0.1,0,0.1,0,0.1-0.1c0,0,0,0,0,0v-10c0-0.1,0-0.1-0.1-0.1
	L2.3,11.5C2.2,11.5,2.1,11.5,2.1,11.6C2.1,11.6,2.1,11.6,2.1,11.6z"/>
<path d="M14.4,25.8h-0.1L2.5,22c-0.2-0.1-0.3-0.2-0.3-0.4l-0.4-9.9c0-0.2,0.1-0.3,0.2-0.4c0.1-0.1,0.3-0.1,0.5-0.1l12.1,3.7
	c0.2,0.1,0.3,0.2,0.3,0.5v10C14.8,25.5,14.6,25.7,14.4,25.8C14.4,25.7,14.4,25.7,14.4,25.8z M2.9,21.3l11.2,3.6v-9.5L2.5,11.9
	L2.9,21.3z"/>
<path fill="#FFFFFF" d="M21.6,9l-0.3,9.2c0,0,0,0.1,0,0.1l-6.6,7c-0.1,0.1-0.2,0.1-0.3,0c0,0,0-0.1,0-0.1l0.2-10c0,0,0-0.1,0.1-0.1
	l6.8-6.3c0.1-0.1,0.2-0.1,0.3,0C21.6,8.8,21.6,8.9,21.6,9z"/>
<path d="M14.5,25.8c-0.3,0-0.5-0.2-0.5-0.5l0,0l0.2-10c0-0.2,0.1-0.3,0.2-0.4L21,8.6c0.1-0.3,0.4-0.4,0.7-0.3C22,8.4,22.1,8.7,22,9
	l0,0l-0.3,9.2c0,0.1-0.1,0.3-0.2,0.4l-6.6,7C14.8,25.7,14.6,25.8,14.5,25.8z M14.8,15.3l-0.1,9.4l6.3-6.6l0.3-8.7L14.8,15.3z
	 M20.9,18.2L20.9,18.2z M20.9,18.1L20.9,18.1z M14.7,15.4L14.7,15.4z M14.7,15.2L14.7,15.2z"/>
<path fill="#FFFFFF" d="M2.2,11.4L10.4,6c0,0,0.1,0,0.1,0l11,2.7c0,0,0.1,0.1,0,0.1c0,0,0,0,0,0l-7,6.2c0,0-0.1,0-0.1,0L2.2,11.6
	C2.1,11.6,2.1,11.5,2.2,11.4C2.1,11.4,2.1,11.4,2.2,11.4z"/>
<path d="M14.4,15.5h-0.1L2.1,11.9c-0.2-0.1-0.4-0.4-0.3-0.6c0-0.1,0.1-0.2,0.2-0.2l0,0l8.4-5.4h0.2l11,2.8C21.9,8.5,22.1,8.7,22,9
	c0,0.1-0.1,0.2-0.1,0.2l-7.1,6.2C14.7,15.5,14.6,15.5,14.4,15.5z M14.5,14.8L14.5,14.8z M2.8,11.4l11.5,3.4L20.9,9L10.5,6.4
	L2.8,11.4z"/>
<line fill="none" x1="7.9" y1="13.3" x2="15.7" y2="7.3"/>
<rect x="6.9" y="9.9" transform="matrix(0.7923 -0.6101 0.6101 0.7923 -3.8305 9.3533)" width="9.8" height="0.7"/>
<g>
	<g>
		<defs>
			<polygon id="SVGID_1_" points="5.7,20.1 5.8,15.1 10,16.3 9.9,21.4 			"/>
		</defs>
		<clipPath id="SVGID_2_">
			<use xlink:href="#SVGID_1_"  overflow="visible"/>
		</clipPath>
		<path clip-path="url(#SVGID_2_)" d="M9.6,16.2L9.6,16.2l-0.3-0.1c-0.2,0-0.3,0.1-0.3,0.2c0,0,0,0.1,0,0.1v1.3
			c-0.3-0.2-0.7-0.3-1-0.4c-0.4-0.1-0.9-0.2-1.3-0.2v-1.3c0-0.2-0.1-0.4-0.3-0.5l0,0l-0.2-0.1c-0.2,0-0.3,0.1-0.3,0.4v4
			c0,0.2,0.1,0.4,0.3,0.5l0,0l0.3,0.1c0.2,0,0.3-0.1,0.3-0.4v-1.6c0.4,0,0.9,0.1,1.3,0.2c0.3,0.1,0.7,0.3,1,0.4v1.6
			c0,0.2,0.1,0.4,0.3,0.5l0,0l0.3,0.1c0.2,0,0.3-0.1,0.3-0.4v-4.1C9.9,16.5,9.8,16.3,9.6,16.2"/>
	</g>
</g>
<circle fill="#FFFFFF" cx="21.4" cy="10.6" r="4.8"/>
<path fill="#76C500" d="M21.4,15.8c-2.9,0-5.2-2.3-5.2-5.2s2.3-5.2,5.2-5.2s5.2,2.3,5.2,5.2l0,0C26.6,13.5,24.3,15.8,21.4,15.8z
	 M21.4,6.2c-2.4,0-4.4,2-4.4,4.4s2,4.4,4.4,4.4s4.4-2,4.4-4.4l0,0C25.8,8.2,23.8,6.2,21.4,6.2z"/>
<polyline fill="#FFFFFF" points="19.8,10.6 20.9,11.7 23,9.6 "/>
<path fill="#76C500" d="M20.9,12.1c-0.1,0-0.2,0-0.3-0.1l-1.1-1.1c-0.2-0.2-0.2-0.4,0-0.6c0.2-0.2,0.4-0.2,0.6,0l0.8,0.8l1.8-1.8
	c0.2-0.2,0.4-0.2,0.6,0c0.2,0.2,0.2,0.4,0,0.6l0,0L21.2,12C21.1,12.1,21,12.1,20.9,12.1z"/>
</svg>
