<?xml version="1.0" encoding="utf-8"?>
<!-- Generator: Adobe Illustrator 19.2.1, SVG Export Plug-In . SVG Version: 6.00 Build 0)  -->
<svg version="1.1" xmlns="http://www.w3.org/2000/svg" xmlns:xlink="http://www.w3.org/1999/xlink" x="0px" y="0px"
	 viewBox="0 0 42 42" enable-background="new 0 0 42 42" xml:space="preserve">
<path d="M21.9,4.7c-0.1-0.5-0.5-0.9-1.1-0.9c-1.5-0.1-3,0.5-4.1,1.6c-0.9,1.4-1,3.1-0.4,4.5c-0.4,0.3-0.8,0.8-0.9,1.4
	c0,0.2,0.1,0.4,0.3,0.4c0,0,0,0,0,0h0.1c0.2,0,0.3-0.1,0.3-0.3c0.1-0.4,0.4-0.8,0.8-1h0.1c1.5,0.1,3-0.5,4-1.6
	C21.8,7.7,22.1,6.2,21.9,4.7z M20.3,8.3c-0.8,0.9-2,1.4-3.2,1.3c-0.5-1.2-0.4-2.6,0.3-3.7c0.9-1,2.1-1.5,3.4-1.4
	c0.1,0,0.2,0.1,0.3,0.2C21.3,6.1,21,7.3,20.3,8.3z"/>
<path fill="#76C500" d="M40,31.7c-0.2-0.1-0.4-0.1-0.6,0.1c0,0,0,0,0,0c-3.2,4.7-9.7,5.9-14.4,2.7c0,0,0,0,0,0l-0.3-0.2L24.4,34
	l-0.3-0.3c-4-3.4-4.8-9.3-1.8-13.7l0,0c0.2-0.2,0.1-0.4,0-0.6c-0.2-0.2-0.4-0.1-0.6,0c0,0,0,0.1-0.1,0.1c-3.2,4.7-2.4,11,1.8,14.7
	l0.3,0.3l0.3,0.2c0.1,0.1,0.3,0.2,0.4,0.3c1.8,1.3,4,2,6.3,2c0.7,0,1.4-0.1,2.1-0.2c2.9-0.5,5.5-2.2,7.2-4.7
	C40.3,32.1,40.2,31.8,40,31.7C40,31.7,40,31.7,40,31.7z"/>
<path d="M15.8,12.2c-1.3-0.5-2.6-0.8-4-0.9c-1.7,0-3.4,0.4-4.9,1.2c-5.3,2.8-5.4,10.8-4.2,15.4s5.4,9.3,10.4,9.3
	c0.6,0,1.1-0.1,1.6-0.2c0.3-0.1,0.6-0.1,0.9-0.2c0.1,0,0.2,0,0.2,0c0.3,0.1,0.6,0.2,0.9,0.2c0.5,0.1,1.1,0.2,1.6,0.2
	c1.2,0,2.3-0.2,3.4-0.7c0.5-0.3,1.1-0.6,1.6-1l-0.3-0.3l-0.3-0.3c-0.4,0.3-0.9,0.6-1.3,0.8c-0.9,0.5-2,0.7-3,0.6
	c-0.5,0-1-0.1-1.5-0.2c-0.3-0.1-0.6-0.1-0.9-0.2c-0.2-0.1-0.5-0.1-0.7,0c-0.3,0.1-0.6,0.2-0.9,0.2c-0.5,0.1-1,0.2-1.5,0.2
	c-4.6,0-8.5-4.4-9.6-8.7S2.4,15.8,7.3,13.2c1.4-0.7,2.9-1.1,4.5-1.1c1.3,0.1,2.6,0.4,3.8,0.9h0.2l0.1,0c1.2-0.5,2.5-0.8,3.8-0.9
	c1.5,0,3,0.4,4.4,1c0-0.1,0.1-0.3,0.1-0.4s0.1-0.3,0.1-0.4c-1.5-0.7-3-1-4.6-1C18.4,11.4,17,11.7,15.8,12.2z"/>
<path d="M8.3,14.1c-1.5,0.9-2.6,2.4-3,4.1c0,0.2,0.1,0.4,0.3,0.5h0.1c0.2,0,0.4-0.1,0.4-0.3c0-0.1,0.1-0.3,0.1-0.4
	c0.4-1.3,1.3-2.5,2.5-3.1c1-0.6,2.2-0.7,3.3-0.4c0.1,0,0.2,0,0.3,0.1c0.2,0.1,0.4,0,0.5-0.2c0.1-0.2,0-0.4-0.2-0.5c0,0,0,0,0,0
	C11.2,13.2,9.6,13.3,8.3,14.1z"/>
<path d="M29.1,21.4l-0.4-0.1c0,0.5,0.1,1.1,0.1,1.6l0.4,0.3l0.4,0.3c0-0.6,0-1.3,0-1.9L29.1,21.4z"/>
<path d="M30.9,8.8c-2.6,0-4.8,1.6-5.6,4.1c0,0.1-0.1,0.3-0.1,0.4s-0.1,0.3-0.1,0.4c-0.5,2.7,0.9,5.4,3.5,6.5l0.4,0.2l0.4,0.1
	c3.2,0.9,6.4-1,7.3-4.2s-1-6.4-4.2-7.3C32,8.8,31.4,8.8,30.9,8.8z M30.9,19.8c-0.6,0-1.1-0.1-1.7-0.3c-0.1,0-0.3-0.1-0.5-0.2
	c-1.8-0.9-2.9-2.7-3-4.6c0-0.1,0-0.3,0-0.4s0-0.3,0-0.5s0.1-0.3,0.1-0.4c0.8-2.7,3.6-4.3,6.3-3.5c2.7,0.8,4.3,3.6,3.5,6.3
	C35.2,18.3,33.2,19.8,30.9,19.8L30.9,19.8z"/>
<path fill="#76C500" d="M30.9,10.8c-2.1,0.1-3.8,1.7-3.9,3.8l0,0c0,2.2,1.7,3.9,3.8,3.9c2.2,0,3.9-1.7,3.9-3.8S33.1,10.8,30.9,10.8
	C30.9,10.8,30.9,10.8,30.9,10.8z M32.8,14.9h-1.6v1.6c0,0.2-0.1,0.3-0.3,0.3c-0.2,0-0.3-0.1-0.3-0.3v-1.6H29c-0.2,0-0.3-0.1-0.3-0.3
	c0-0.2,0.1-0.3,0.3-0.3h1.6v-1.6c0-0.2,0.1-0.3,0.3-0.3c0.2,0,0.3,0.1,0.3,0.3v1.6h1.6c0.2,0,0.3,0.1,0.3,0.3
	C33.1,14.7,32.9,14.9,32.8,14.9L32.8,14.9z"/>
<path fill="#76C500" d="M20,5.5c-0.8-0.1-1.5,0.2-2.1,0.8c-0.5,0.7-0.5,1.7-0.1,2.4c0.8,0,1.5-0.3,2-0.8c0.4-0.6,0.6-1.4,0.5-2.1
	C20.3,5.7,20.2,5.5,20,5.5z"/>
<path d="M37.8,30.2l-5.4-3.7c-0.3-0.2-0.7-0.3-1-0.2c-0.1,0-0.2,0.1-0.3,0.1c-0.3,0.2-0.7,0-0.8-0.2c-0.1-0.1-0.1-0.2-0.1-0.4
	c0-0.1,0-0.2,0-0.3c0-0.3-0.2-0.7-0.5-0.9l-0.3-0.2l-0.4-0.3l-0.4-0.3L24.4,21c-0.3-0.2-0.7-0.3-1-0.2l0,0c-0.3,0.1-0.6,0.3-0.8,0.6
	c-2.2,3.9-1.2,8.8,2.2,11.7l0.3,0.2l0.3,0.2l0.1,0.1c4,2.8,9.4,2,12.5-1.7c0.2-0.3,0.3-0.6,0.3-1l0,0C38.3,30.7,38.1,30.4,37.8,30.2
	z M31,27.3h0.2l3.1,6.5c-1.6,0.7-3.4,0.9-5.1,0.5L31,27.3z M23.4,21.8c0.1-0.1,0.2-0.2,0.3-0.2h0.1c0.1,0,0.2,0,0.2,0.1l4.6,3.2
	l0.4,0.3l0.3,0.2H29h-0.4l-6.2-0.5C22.5,23.8,22.9,22.8,23.4,21.8L23.4,21.8z M22.3,25.6l6.1,0.5h0.4h0.4h0.2c0,0,0,0.1,0,0.1
	l-0.4,0.3l-0.5,0.3l-0.5,0.4l-4.5,3.3C22.7,29,22.3,27.3,22.3,25.6L22.3,25.6z M24.1,31.2l3.6-2.6l0.6-0.4l0.5-0.4L30,27l0.1,0.1
	h0.1l-1.8,7c-0.8-0.2-1.6-0.6-2.4-1.1l0,0l-0.3-0.2l-0.3-0.2C24.9,32.1,24.5,31.7,24.1,31.2L24.1,31.2z M37.5,31.4
	c-0.7,0.8-1.5,1.5-2.5,2l-3-6.3l0,0l5.4,3.7c0.1,0.1,0.2,0.2,0.2,0.3C37.6,31.2,37.6,31.3,37.5,31.4L37.5,31.4z"/>
</svg>
