<svg xmlns="http://www.w3.org/2000/svg" viewBox="0 0 140 700.5">
  <style>
    .st0{fill:#5EC093;} .st1{fill:#FFF1C6;} .st2{fill:#231F20;} .st3{fill:#FDD6C1;} .st4{fill:#90C963;} .st5{fill:#FFFFFF;} .st6{fill:#D33D3C;} .st7{fill:#F19477;} .st8{fill:#F3757C;} .st9{fill:none;}
  </style>
  <g id="All_Ingredients">
    <path d="M112.4 614.6l2.8-4.4c.2-.3.2-.6 0-.8-.1-.3-.4-.4-.7-.4-.1 0-.3 0-.4.1l-9 5c-.4.2-.8.3-1.3.3l-5.7-.2 5.7-7.1c.2-.3.2-.6.1-.9-.1-.3-.4-.4-.7-.4-.1 0-.3 0-.4.1l-11.9 7.7c-.4.2-.8.3-1.2.3l-5.8-.2 2.8-4.4c.2-.3.2-.6 0-.8-.1-.3-.4-.4-.7-.4-.1 0-.3 0-.4.1l-8.9 4.9c-.4.2-.8.3-1.3.3l-5.8-.2 5.7-7.1c.2-.3.2-.6.1-.9-.1-.3-.4-.4-.7-.4-.1 0-.3 0-.4.1l-11.8 7.7c-.4.2-.8.3-1.2.3l-5.8-.2 2.8-4.3c.2-.3.2-.6 0-.8-.1-.3-.4-.4-.7-.4-.1 0-.3 0-.4.1l-8.9 4.9c-.4.2-.8.3-1.3.3l-5.8-.2 5.6-7c.2-.3.2-.6.1-.9-.1-.3-.4-.4-.7-.4-.1 0-.3 0-.4.1L34 611.8c-.4.2-.8.3-1.2.3l-5.8-.2 2.8-4.3c.2-.3.2-.6 0-.8-.1-.3-.4-.4-.7-.4-.1 0-.3 0-.4.1l-8.8 4.9c-.4.2-.8.3-1.3.3l-12.1-.4c8.7-13.5 32.8-22.5 60.5-22.5 1.3 0 2.6 0 3.9.1 29.1.9 54.8 11.7 62.9 26.4l-21.4-.7z" class="st0"/>
    <path d="M66.8 588.3v1c1.3 0 2.6 0 3.9.1 28.4.9 53.5 11.2 62.1 25.3l-19.4-.6 2.3-3.6c.3-.4.3-.9 0-1.4-.2-.4-.7-.7-1.2-.7-.2 0-.5.1-.7.2l-9 5c-.3.2-.7.3-1 .3h-.1l-4.6-.1 5-6.3s0-.1.1-.1c.3-.4.3-.9 0-1.4-.2-.4-.7-.7-1.2-.7-.2 0-.5.1-.7.2h-.1l-11.8 7.7c-.3.2-.6.2-1 .2h-.1l-4.7-.1 2.3-3.6c.3-.4.3-.9 0-1.4-.2-.4-.7-.7-1.2-.7-.2 0-.5.1-.7.2l-8.9 4.9c-.3.2-.7.3-1 .3H75l-4.6-.1 5-6.3s0-.1.1-.1c.3-.4.3-.9 0-1.4-.2-.4-.7-.7-1.2-.7-.2 0-.5.1-.7.2h-.1l-11.8 7.7c-.3.2-.6.2-1 .2h-.1l-4.8-.1 2.3-3.6c.3-.4.3-.9 0-1.4-.2-.4-.7-.7-1.2-.7-.2 0-.5.1-.7.2l-8.9 4.9c-.3.2-.7.3-1 .3h-.1l-4.7-.1 5-6.2s0-.1.1-.1c.3-.4.3-.9 0-1.4-.2-.4-.7-.7-1.2-.7-.2 0-.5.1-.7.2h-.1l-11.7 7.6c-.3.2-.6.2-1 .2h-.1l-4.8-.1 2.3-3.5c.3-.4.3-.9 0-1.4-.2-.4-.7-.7-1.2-.7-.2 0-.5.1-.7.2l-8.8 4.9c-.3.2-.7.3-1 .3h-.1L6.4 611c9-12.9 32.6-21.5 59.5-21.5l.9-1.2m0 0c-28.8 0-53.1 9.7-61.3 23.5l12.9.4h.1c.5 0 1-.1 1.5-.4l8.8-4.9h.2c.2 0 .4.3.3.5l-2.8 4.3c-.2.3 0 .7.4.7l5.7.2h.1c.5 0 1-.1 1.5-.4l11.7-7.7h.2c.2 0 .4.3.3.5l-5.7 7.1c-.2.3 0 .7.4.7l5.7.2h.1c.5 0 1-.1 1.5-.4l8.9-4.9h.2c.2 0 .4.3.3.5l-2.8 4.4c-.2.3 0 .7.4.7l5.7.2h.1c.5 0 1-.1 1.5-.4l11.8-7.7h.2c.2 0 .4.3.3.5l-5.7 7.1c-.2.3 0 .7.4.7l5.7.2h.1c.5 0 1-.1 1.5-.4l8.9-4.9h.2c.2 0 .4.3.3.5l-2.8 4.4c-.2.3 0 .7.4.7l5.7.2h.1c.5 0 1-.1 1.5-.4l11.8-7.7h.2c.2 0 .4.3.3.5l-5.7 7.2c-.2.3 0 .7.4.7l5.7.2h.1c.5 0 1-.1 1.5-.4l9-5h.2c.2 0 .4.3.3.5l-2.8 4.4c-.2.3 0 .7.4.7l22.1.7c-7.6-14.9-33.2-26.5-63.8-27.4-1.6-.1-2.9-.1-4.2-.1z" class="st1"/>
    <path d="M134.5 616.1l-22.1-.7c-.3 0-.6-.2-.7-.5s-.1-.6 0-.9l2.7-4.2-8.8 4.9c-.6.3-1.2.5-1.8.4l-5.7-.2c-.3 0-.6-.2-.7-.5s-.1-.6 0-.9l5.5-6.9-11.5 7.5c-.6.3-1.2.5-1.8.5l-5.7-.2c-.3 0-.6-.2-.7-.5s-.1-.6 0-.9l2.7-4.2-8.7 4.8c-.6.3-1.2.5-1.8.4l-5.7-.2c-.3 0-.6-.2-.7-.5s-.1-.6 0-.9l5.4-6.8-11.4 7.8c-.6.3-1.2.5-1.8.5l-5.7-.2c-.3 0-.6-.2-.7-.5s-.1-.6 0-.9l2.6-4.2-8.7 4.8c-.6.3-1.2.5-1.8.4l-5.7-.2c-.3 0-.6-.2-.7-.5s-.1-.6 0-.9l5.4-6.8-11.4 7.4c-.6.3-1.2.5-1.8.5l-5.7-.2c-.3 0-.6-.2-.7-.5s-.1-.6 0-.9l2.6-4.1-8.6 4.8c-.6.3-1.2.5-1.8.4l-12.9-.4c-.1 0-.3-.1-.3-.2-.1-.1-.1-.3 0-.4C14 596.8 41 587.1 70.7 588c29.9.9 56.3 12.3 64.1 27.6.1.1.1.3 0 .4 0 .1-.1.1-.3.1zm-22.1-1.4l21.4.7c-8.1-14.8-33.9-25.7-63.1-26.6-29.1-.9-55.5 8.4-64.5 22.6l12.3.4c.5 0 1-.1 1.4-.3l8.8-4.9c.3-.2.6-.1.9.1.2.2.3.6.1.9l-2.8 4.3.1.5v-.4l5.7.2c.5 0 1-.1 1.4-.3l11.7-7.7c.3-.2.7-.1.9.1.2.2.3.6.1.9l-5.7 7.2.1.5v-.4l5.7.2c.5 0 1-.1 1.4-.3l8.9-4.9c.3-.2.6-.1.9.1.2.2.3.6.1.9l-2.8 4.4.1.5v-.4l5.7.2c.5 0 1-.1 1.4-.3l11.8-7.7c.3-.2.7-.1.9.1.2.2.3.6.1.9l-5.7 7.2.1.5v-.4l5.7.2c.5 0 1-.1 1.4-.3l8.9-4.9c.3-.2.6-.1.9.1.2.2.3.6.1.9l-2.8 4.4.1.5v-.4l5.7.2c.5 0 1-.1 1.4-.3l11.8-7.7c.3-.2.7-.1.9.1.2.2.3.6.1.9l-5.7 7.2.1.1 5.7.2c.5 0 1-.1 1.4-.3l9-5c.3-.2.6-.1.9.1.2.2.3.6.1.9l-2.8 4.4.1.5-.4-.6z" class="st2"/>
    <path d="M53 672.4c-.7-12.9 11.2-30.7 29.5-43.5 13.3-9.4 28.3-14.9 40.2-14.9 4.2 0 7.8.7 10.8 2l-13.1 9.2-.3-3.8c0-.4-.4-.7-.8-.7-.3 0-.6.2-.7.5l-3.3 7.3c-.1.3-.4.6-.6.8l-3.4 2.4.2-6.8c0-.5-.4-.8-.8-.8-.3 0-.6.2-.7.5l-3.8 10.3c-.1.3-.3.5-.6.7l-3.4 2.4-.3-3.8c0-.4-.4-.7-.8-.7-.3 0-.6.2-.7.5l-3.2 7.2c-.1.3-.4.6-.6.8l-3.4 2.4.2-6.8c0-.5-.4-.8-.8-.8-.3 0-.6.2-.7.5l-3.8 10.3c-.1.3-.3.5-.6.7l-3.4 2.4-.3-3.8c0-.4-.4-.7-.8-.7-.3 0-.6.2-.7.4l-3.2 7.2c-.1.3-.4.6-.6.8l-3.4 2.4.2-6.7c0-.5-.4-.8-.8-.8-.3 0-.6.2-.7.4l-3.7 10.2c-.1.3-.3.5-.6.7l-3.5 2.4-.3-3.7c0-.4-.4-.7-.8-.7-.3 0-.6.2-.7.4l-3.2 7.1c-.1.3-.4.6-.6.8l-7.4 5.3z" class="st0"/>
    <path d="M122.7 614.5c3.7 0 7 .5 9.7 1.6l-11.6 8.2-.2-2.9c-.1-.7-.6-1.2-1.3-1.2-.5 0-1 .3-1.2.7l-3.3 7.3c-.1.2-.3.4-.5.6l-2.6 1.8.2-5.8v-.1c-.1-.7-.6-1.2-1.3-1.2-.5 0-1 .3-1.2.7v.1l-3.7 10.3c-.1.2-.3.4-.5.5l-2.7 1.9-.2-2.9c-.1-.7-.6-1.2-1.3-1.2-.5 0-1 .3-1.2.7l-3.2 7.2c-.1.2-.3.4-.5.6l-2.6 1.8.2-5.8v-.1c-.1-.7-.6-1.2-1.3-1.2-.5 0-1 .3-1.2.7v.1l-3.7 10.2c-.1.2-.3.4-.5.5l-2.7 1.9-.2-2.9c-.1-.7-.6-1.2-1.3-1.2-.5 0-1 .3-1.2.7l-3.2 7.2c-.1.2-.3.4-.5.6l-2.6 1.8.2-5.7v-.1c-.1-.7-.6-1.2-1.3-1.2-.5 0-1 .3-1.2.7v.1l-3.7 10.2c-.1.2-.3.4-.5.5l-2.7 1.9-.2-2.8c-.1-.7-.6-1.2-1.3-1.2-.5 0-1 .3-1.2.7l-3.2 7.1c-.1.2-.3.4-.5.6l-6.7 4.7c-.1-12.7 11.6-29.7 29.3-42.1 13.7-9 28.6-14.6 40.4-14.6m0-1c-11.6 0-26.5 5.2-40.5 15-19.4 13.6-31 31.9-29.6 44.8l8.2-5.8c.4-.2.6-.6.8-1l3.2-7.1c0-.1.1-.2.2-.2s.2.1.3.2l.3 4c0 .2.2.3.4.3.1 0 .1 0 .2-.1l3.6-2.6c.4-.2.6-.6.8-1l3.7-10.2c0-.1.1-.2.2-.2s.2.1.3.2l-.2 7c0 .2.2.3.4.3.1 0 .1 0 .2-.1l3.6-2.6c.4-.2.6-.6.8-1l3.2-7.2c0-.1.1-.2.2-.2s.2.1.3.2l.3 4c0 .2.2.3.4.3.1 0 .1 0 .2-.1l3.6-2.5c.4-.2.6-.6.8-1l3.7-10.3c0-.1.1-.2.2-.2s.2.1.3.2l-.2 7.1c0 .2.2.3.4.3.1 0 .1 0 .2-.1l3.6-2.5c.4-.2.6-.6.8-1l3.2-7.2c0-.1.1-.2.2-.2s.2.1.3.2l.3 4c0 .2.2.3.4.3.1 0 .1 0 .2-.1l3.6-2.5c.4-.2.6-.6.8-1l3.8-10.3c0-.1.1-.2.2-.2s.2.1.3.2l-.2 7.1c0 .2.2.3.4.3.1 0 .1 0 .2-.1l3.6-2.5c.4-.2.6-.6.8-1l3.3-7.3c0-.1.1-.2.2-.2s.2.1.3.2l.3 4c0 .2.2.3.4.3.1 0 .1 0 .2-.1l14-9.8c-3.2-.2-7.2-1-11.7-1z" class="st1"/>
    <path d="M52.6 673.7h-.2c-.1-.1-.2-.2-.2-.3-1.4-13.3 10.9-31.9 29.8-45.2 19-13.4 40.7-18.6 52.7-12.7.1.1.2.2.2.3s-.1.3-.2.3l-14 9.8c-.2.2-.5.2-.8.1-.3-.1-.4-.4-.4-.6l-.3-3.5-3 6.8c-.2.5-.5.9-.9 1.1l-3.6 2.5c-.2.2-.5.2-.8.1-.3-.1-.4-.4-.4-.6l.2-6.3-3.5 9.5c-.2.5-.5.9-1 1.2l-3.6 2.5c-.2.2-.5.2-.8.1-.3-.1-.4-.4-.4-.6l-.3-3.5-3 6.7c-.2.5-.5.9-.9 1.1l-3.6 2.5c-.2.2-.5.2-.8.1s-.4-.4-.4-.6l.2-6.2-3.4 9.4c-.2.5-.5.9-1 1.2l-3.6 2.5c-.2.2-.5.2-.8.1-.3-.1-.4-.4-.4-.6l-.3-3.5-3 6.7c-.2.5-.5.9-.9 1.1l-3.6 2.6c-.2.2-.5.2-.8.1-.3-.1-.4-.4-.4-.6l.2-6.2-3.4 9.4c-.2.5-.5.9-1 1.2l-3.6 2.6c-.2.2-.5.2-.8.1-.3-.1-.4-.4-.4-.6l-.3-3.4-3 6.6c-.2.5-.5.9-.9 1.1l-8.2 5.8c-.2-.2-.3-.2-.4-.2zm70.2-59.8c-11.7 0-26.7 5.4-40.3 15C64 641.8 52 659.7 52.9 672.6l7.7-5.4c.3-.2.5-.5.7-.8l3.2-7.1c.1-.3.4-.4.7-.4.3.1.5.3.5.6l.3 4 3.6-2.6c.3-.2.5-.5.7-.8l3.7-10.2c.1-.3.4-.4.7-.4.3.1.5.3.5.6l-.2 7.1 3.6-2.6c.3-.2.5-.5.7-.8l3.2-7.2c.1-.3.4-.4.7-.4.3.1.5.3.5.6l.3 4 3.6-2.6c.3-.2.5-.5.7-.8l3.7-10.2c.1-.3.4-.4.7-.4.3.1.5.3.5.6l-.2 7.1 3.6-2.6c.3-.2.5-.5.7-.8l3.2-7.2c.1-.3.4-.4.7-.4.3.1.5.3.5.6l.3 4 3.6-2.5c.3-.2.5-.5.7-.8l3.7-10.3c.1-.3.4-.5.7-.4.3.1.5.3.5.6l-.2 7.1 3.6-2.6c.3-.2.5-.5.7-.8l3.3-7.3c.1-.3.4-.4.7-.4.3.1.5.3.5.6l.3 4 13.5-9.5c-3-1.2-6.7-1.9-10.8-1.9z" class="st2"/>
    <path d="M88.8 638.8c-1-.9-1.6-2.2-1.7-3.5-.1-1.4.4-2.7 1.3-3.7l9.8-10.9c1-1.1 2.3-1.7 3.8-1.7 1.3 0 2.5.5 3.4 1.3l2.1 1.9-16.6 18.4-2.1-1.8z" class="st3"/>
    <path d="M102 619.6c1.1 0 2.2.4 3.1 1.2l1.7 1.6L90.9 640l-1.7-1.6c-.9-.8-1.4-1.9-1.5-3.2-.1-1.2.4-2.4 1.2-3.3l9.8-10.9c.8-.9 2-1.4 3.3-1.4m0-1.1c-1.5 0-3.1.6-4.2 1.9L88 631.3c-2.1 2.3-1.9 5.9.4 7.9l2.5 2.3 17.3-19.2-2.5-2.3c-1-1-2.4-1.5-3.7-1.5z" class="st1"/>
    <path d="M90.9 641.9c-.1 0-.2 0-.3-.1l-2.5-2.3c-1.2-1.1-1.9-2.6-2-4.2-.1-1.6.5-3.2 1.5-4.3l9.8-10.9c2.2-2.5 6-2.7 8.5-.4l2.5 2.3c.2.1.2.4 0 .6l-17.3 19.2c.1 0 0 .1-.2.1zm11.1-23c-1.4 0-2.9.6-3.9 1.7l-9.8 10.9c-.9 1-1.4 2.4-1.3 3.8.1 1.4.7 2.7 1.7 3.6l2.2 2 16.8-18.6-2.2-2c-1-.9-2.3-1.4-3.5-1.4zm-14 12.4z" class="st2"/>
    <path d="M104.1 657.9c-4.5 0-8.7-1.4-12.1-4.1-.3-.3-.5-.6-.6-1.1L90.2 630c-.2-3.8 2.8-7.1 6.6-7.3l22.8-1.2c.5 0 .8.2 1.1.5 7.3 7.7 7.1 20.2-.4 28.5-4.2 4.7-10.1 7.4-16.2 7.4z" class="st3"/>
    <path d="M119.7 622.1c.2 0 .5.1.7.3 7.1 7.5 6.9 19.7-.4 27.8-4.1 4.6-9.9 7.2-15.8 7.2-4.4 0-8.4-1.4-11.8-3.9-.2-.2-.4-.4-.4-.7L90.7 630c-.1-1.7.5-3.4 1.6-4.6 1.2-1.3 2.7-2 4.4-2.1l23-1.2m0-1.1c-.1 0-.1 0 0 0l-22.9 1.2c-4.1.2-7.3 3.7-7.1 7.9l1.2 22.7c0 .6.3 1.1.8 1.4 3.6 2.8 8 4.2 12.4 4.2 6 0 12.1-2.5 16.6-7.5 7.8-8.6 7.8-21.4.4-29.3-.4-.4-.9-.6-1.4-.6z" class="st1"/>
    <path d="M104.1 658.9c-4.5 0-9-1.4-12.7-4.2-.6-.4-.9-1.1-1-1.8l-1.2-22.7c-.2-4.4 3.2-8.2 7.6-8.4l22.8-1.2c.7 0 1.4.2 1.9.8 7.7 8.1 7.5 21.2-.4 30-4.5 4.9-10.8 7.5-17 7.5zm15.5-37.4l-22.8 1.2c-3.8.2-6.8 3.5-6.6 7.3l1.2 22.7c0 .4.2.8.6 1.1 8.4 6.5 20.9 5 28.4-3.3s7.7-20.9.4-28.6c-.4-.2-.8-.4-1.2-.4zm0-.5z" class="st2"/>
    <path d="M104 656.7c-4.1 0-8-1.3-11.1-4.1-1-.9-1.5-1.4-2.5-2.8-.1-.2-.1-.4.1-.6.2-.1.4-.1.6.1.9 1.4 1.4 1.9 2.3 2.7 6.9 6.2 18.3 4.9 25.3-2.9 7-7.8 7.1-19.2.2-25.5-.8-.8-1.8-1.4-2.8-2-.2-.1-.3-.4-.2-.6.1-.2.4-.3.6-.2 1 .6 2 1.3 2.9 2.1 7.2 6.5 7.2 18.5-.1 26.6-4.2 4.7-9.8 7.2-15.3 7.2z" class="st2"/>
  </g>
  <g id="Strawberries">
    <path d="M43.8 468.7c-.6-5.8-1.4-24.1 13.4-33.2.9 4.4 2.6 19.4-13.4 33.2z" class="st4"/>
    <path d="M56.4 437.2c.8 5.3.7 17.6-11.8 29.3-.4-6.8.2-21.2 11.8-29.3m1.4-3.3C38 444.9 43 470.6 43 470.6c21.1-16.9 14.8-36.7 14.8-36.7z" class="st5"/>
    <path d="M30.4 471.8c-15.2 0-23.4-8.3-25.9-11.3 2.9-1 5.9-1.5 8.8-1.5 12.3 0 22 8.7 25.3 12.1-2.8.5-5.5.7-8.2.7z" class="st4"/>
    <path d="M13.3 460c10.4 0 19 6.5 23.1 10.3-2.1.3-4.1.4-6.1.4-13.2 0-20.9-6.3-24.1-9.8 2.4-.5 4.8-.9 7.1-.9m0-2c-3.3 0-6.9.6-10.5 2.1 0 0 8.4 12.8 27.6 12.8 3.1 0 6.6-.3 10.3-1.2 0 0-11.5-13.7-27.4-13.7z" class="st5"/>
    <path d="M41 469.6c-4.7-3.4-18.8-15.1-15.6-32.2 4 2.3 16.2 11.1 15.6 32.2z" class="st4"/>
    <path d="M26.2 439.2c4.4 3.1 13.5 11.4 13.8 28.4-5.3-4.3-15.5-14.4-13.8-28.4m-1.5-3.3c-5.2 22 17.3 35.6 17.3 35.6 1.6-27-17.3-35.6-17.3-35.6z" class="st5"/>
    <path d="M43 471.4h-.2c-.2-.1-.4-.3-.5-.5-.1-.3-4.9-26.4 15.2-37.5.2-.1.4-.1.6 0 .2.1.4.2.4.5.1.2 6.2 20.5-15.1 37.5-.1-.1-.2 0-.4 0zM57.4 435c-15.9 9.4-14.5 29.1-13.8 34.3 9.9-8.4 13.2-17.3 14.1-23.4.7-5.2 0-9.2-.3-10.9zm-26.9 38.6c-8.5 0-14.8-2.5-19-4.9-6.2-3.7-9.1-8-9.2-8.2-.1-.2-.1-.4-.1-.6.1-.2.2-.4.4-.5 21.3-8.6 38.5 11.7 38.7 11.9.2.2.2.5.1.7-.1.2-.3.4-.5.5-3.8.8-7.3 1.1-10.4 1.1zM4 460.4c2.5 3.1 13.6 15.1 35.3 10.9-3.6-3.8-18-17.3-35.3-10.9z"/>
    <path d="M42 472.2c-.1 0-.3 0-.4-.1-.2-.1-22.9-14.1-17.6-36.4 0-.2.2-.4.4-.5.2-.1.4-.1.6 0s19.4 9.1 17.7 36.4c0 .3-.2.5-.4.6H42zm-16.8-35.3c-3.7 18.1 11.9 30.3 16.1 33.3.5-13-4-21.4-7.9-26.1-3.2-4.1-6.7-6.3-8.2-7.2z"/>
    <path d="M65.4 543c-4.7 0-9.1-1.6-12.3-4.4L19 508.2c-5-4.5-7.4-10.9-6.5-17.7 1-8.1 6.3-15.3 14.2-19.4.3-.2.7-.3 1-.5l22.7-10.8c.3-.2.7-.3 1-.5 3.6-1.6 7.3-2.3 11.1-2.3 12.3 0 22 8.5 22.5 19.9l2 45.6c.3 7.4-4.5 14.7-12.1 18.3-3 1.5-6.3 2.2-9.5 2.2z" class="st6"/>
    <path d="M62.4 455.9v2.1c11.8 0 21 8.1 21.5 18.9l2 45.6c.3 7-4.3 13.9-11.5 17.4-2.9 1.4-6.1 2.1-9.1 2.1-4.5 0-8.6-1.5-11.6-4.2l-34.1-30.4c-4.8-4.2-7-10.4-6.2-16.8 1-7.7 6.1-14.7 13.6-18.6.3-.2.6-.3 1-.5l22.7-10.8c.3-.2.7-.3 1-.4 3.5-1.5 7-2.3 10.7-2.3v-2.1m0 0c-3.7 0-7.6.8-11.5 2.4-.4.2-.7.3-1.1.5l-22.7 10.8c-.3.2-.7.3-1 .5-16.1 8.3-19.9 28.1-7.8 38.8l34.1 30.4c3.5 3.1 8.1 4.7 12.9 4.7 3.3 0 6.8-.8 10-2.3 8-3.8 13-11.5 12.7-19.3l-2-45.6c-.5-12.4-11.1-20.9-23.6-20.9z" class="st5"/>
    <path d="M65.4 544.8c-5 0-9.9-1.7-13.5-4.8l-34.1-30.4c-5.5-4.9-8-11.9-7.1-19.3 1.1-8.6 6.7-16.4 15.1-20.7.3-.2.7-.4 1.1-.5l22.7-10.8c.4-.2.7-.3 1.1-.5 8.7-3.7 18.2-3.2 25.6 1.4 6.3 3.9 10.1 10.4 10.4 17.7l2 45.6c.4 8.1-4.9 16.1-13.1 20-3.2 1.5-6.8 2.3-10.2 2.3zm-2.9-88.1c-3.7 0-7.6.8-11.2 2.4-.3.1-.7.3-1 .5l-22.7 10.8c-.3.2-.7.3-1 .5-8 4.1-13.3 11.5-14.3 19.6-.9 6.9 1.6 13.5 6.6 18L53 538.9c5.6 5 14.5 5.9 22.2 2.3 7.7-3.6 12.6-11.1 12.3-18.6l-2-45.6c-.3-6.8-3.9-12.8-9.8-16.5-4.1-2.6-8.6-3.8-13.2-3.8z"/>
    <ellipse cx="25.5" cy="476" transform="rotate(-25.422 25.507 476.004)" rx="1" ry="1"/>
    <ellipse cx="31.6" cy="473.1" transform="rotate(-25.422 31.61 473.1)" rx="1" ry="1"/>
    <ellipse cx="37.7" cy="470.2" transform="rotate(-25.422 37.71 470.2)" rx="1" ry="1"/>
    <ellipse cx="43.7" cy="467.3" transform="rotate(-25.422 43.695 467.305)" rx="1" ry="1"/>
    <ellipse cx="49.8" cy="464.5" transform="rotate(-25.422 49.805 464.52)" rx="1" ry="1"/>
    <ellipse cx="25.5" cy="476" transform="rotate(-25.422 25.507 476.004)" rx="1" ry="1"/>
    <ellipse cx="31.6" cy="473.1" transform="rotate(-25.422 31.61 473.1)" rx="1" ry="1"/>
    <ellipse cx="37.7" cy="470.2" transform="rotate(-25.422 37.71 470.2)" rx="1" ry="1"/>
    <ellipse cx="43.7" cy="467.3" transform="rotate(-25.422 43.695 467.305)" rx="1" ry="1"/>
    <ellipse cx="49.8" cy="464.5" transform="rotate(-25.422 49.805 464.52)" rx="1" ry="1"/>
    <ellipse cx="55.9" cy="461.6" transform="rotate(-25.422 55.907 461.617)" rx="1" ry="1"/>
    <ellipse cx="25.5" cy="476" transform="rotate(-25.422 25.507 476.004)" rx="1" ry="1"/>
    <ellipse cx="31.6" cy="473.1" transform="rotate(-25.422 31.61 473.1)" rx="1" ry="1"/>
    <ellipse cx="37.7" cy="470.2" transform="rotate(-25.422 37.71 470.2)" rx="1" ry="1"/>
    <ellipse cx="43.7" cy="467.3" transform="rotate(-25.422 43.695 467.305)" rx="1" ry="1"/>
    <ellipse cx="49.8" cy="464.5" transform="rotate(-25.422 49.805 464.52)" rx="1" ry="1"/>
    <ellipse cx="55.9" cy="461.6" transform="rotate(-25.422 55.907 461.617)" rx="1" ry="1"/>
    <ellipse cx="25.5" cy="476" transform="rotate(-25.422 25.507 476.004)" rx="1" ry="1"/>
    <ellipse cx="31.6" cy="473.1" transform="rotate(-25.422 31.61 473.1)" rx="1" ry="1"/>
    <ellipse cx="37.7" cy="470.2" transform="rotate(-25.422 37.71 470.2)" rx="1" ry="1"/>
    <ellipse cx="43.7" cy="467.3" transform="rotate(-25.422 43.695 467.305)" rx="1" ry="1"/>
    <ellipse cx="49.8" cy="464.5" transform="rotate(-25.422 49.805 464.52)" rx="1" ry="1"/>
    <ellipse cx="55.9" cy="461.6" transform="rotate(-25.422 55.907 461.617)" rx="1" ry="1"/>
    <ellipse cx="31.6" cy="473.1" transform="rotate(-25.422 31.61 473.1)" rx="1" ry="1"/>
    <ellipse cx="37.7" cy="470.2" transform="rotate(-25.422 37.71 470.2)" rx="1" ry="1"/>
    <ellipse cx="43.7" cy="467.3" transform="rotate(-25.422 43.695 467.305)" rx="1" ry="1"/>
    <ellipse cx="49.8" cy="464.5" transform="rotate(-25.422 49.805 464.52)" rx="1" ry="1"/>
    <ellipse cx="55.9" cy="461.6" transform="rotate(-25.422 55.907 461.617)" rx="1" ry="1"/>
    <ellipse cx="17.4" cy="490.4" transform="rotate(-25.422 17.414 490.414)" rx="1" ry="1"/>
    <ellipse cx="23.5" cy="487.5" transform="rotate(-25.422 23.516 487.512)" rx="1" ry="1"/>
    <ellipse cx="29.6" cy="484.6" transform="rotate(-25.422 29.618 484.61)" rx="1" ry="1"/>
    <ellipse cx="35.6" cy="481.7" transform="rotate(-25.422 35.602 481.715)" rx="1" ry="1"/>
    <ellipse cx="41.7" cy="478.8" transform="rotate(-25.422 41.704 478.813)" rx="1" ry="1"/>
    <ellipse cx="47.8" cy="475.9" transform="rotate(-25.422 47.805 475.91)" rx="1" ry="1"/>
    <ellipse cx="53.9" cy="473" transform="rotate(-25.422 53.907 473.008)" rx="1" ry="1"/>
    <ellipse cx="17.4" cy="490.4" transform="rotate(-25.422 17.414 490.414)" rx="1" ry="1"/>
    <ellipse cx="23.5" cy="487.5" transform="rotate(-25.422 23.516 487.512)" rx="1" ry="1"/>
    <ellipse cx="29.6" cy="484.6" transform="rotate(-25.422 29.618 484.61)" rx="1" ry="1"/>
    <ellipse cx="35.6" cy="481.7" transform="rotate(-25.422 35.602 481.715)" rx="1" ry="1"/>
    <ellipse cx="41.7" cy="478.8" transform="rotate(-25.422 41.704 478.813)" rx="1" ry="1"/>
    <ellipse cx="47.8" cy="475.9" transform="rotate(-25.422 47.805 475.91)" rx="1" ry="1"/>
    <ellipse cx="53.9" cy="473" transform="rotate(-25.422 53.907 473.008)" rx="1" ry="1"/>
    <ellipse cx="60" cy="470.1" transform="rotate(-25.422 60.01 470.105)" rx="1" ry="1"/>
    <ellipse cx="23.5" cy="487.5" transform="rotate(-25.422 23.516 487.512)" rx="1" ry="1"/>
    <ellipse cx="29.6" cy="484.6" transform="rotate(-25.422 29.618 484.61)" rx="1" ry="1"/>
    <ellipse cx="35.6" cy="481.7" transform="rotate(-25.422 35.602 481.715)" rx="1" ry="1"/>
    <ellipse cx="41.7" cy="478.8" transform="rotate(-25.422 41.704 478.813)" rx="1" ry="1"/>
    <ellipse cx="47.8" cy="475.9" transform="rotate(-25.422 47.805 475.91)" rx="1" ry="1"/>
    <ellipse cx="53.9" cy="473" transform="rotate(-25.422 53.907 473.008)" rx="1" ry="1"/>
    <ellipse cx="60" cy="470.1" transform="rotate(-25.422 60.01 470.105)" rx="1" ry="1"/>
    <ellipse cx="66.1" cy="467.2" transform="rotate(-25.422 66.11 467.203)" rx="1" ry="1"/>
    <ellipse cx="29.6" cy="484.6" transform="rotate(-25.422 29.618 484.61)" rx="1" ry="1"/>
    <ellipse cx="35.6" cy="481.7" transform="rotate(-25.422 35.602 481.715)" rx="1" ry="1"/>
    <ellipse cx="41.7" cy="478.8" transform="rotate(-25.422 41.704 478.813)" rx="1" ry="1"/>
    <ellipse cx="47.8" cy="475.9" transform="rotate(-25.422 47.805 475.91)" rx="1" ry="1"/>
    <ellipse cx="53.9" cy="473" transform="rotate(-25.422 53.907 473.008)" rx="1" ry="1"/>
    <ellipse cx="60" cy="470.1" transform="rotate(-25.422 60.01 470.105)" rx="1" ry="1"/>
    <ellipse cx="66.1" cy="467.2" transform="rotate(-25.422 66.11 467.203)" rx="1" ry="1"/>
    <ellipse cx="72.2" cy="464.3" transform="rotate(-25.422 72.213 464.3)" rx="1" ry="1"/>
    <ellipse cx="35.6" cy="481.7" transform="rotate(-25.422 35.602 481.715)" rx="1" ry="1"/>
    <ellipse cx="41.7" cy="478.8" transform="rotate(-25.422 41.704 478.813)" rx="1" ry="1"/>
    <ellipse cx="47.8" cy="475.9" transform="rotate(-25.422 47.805 475.91)" rx="1" ry="1"/>
    <ellipse cx="53.9" cy="473" transform="rotate(-25.422 53.907 473.008)" rx="1" ry="1"/>
    <ellipse cx="60" cy="470.1" transform="rotate(-25.422 60.01 470.105)" rx="1" ry="1"/>
    <ellipse cx="66.1" cy="467.2" transform="rotate(-25.422 66.11 467.203)" rx="1" ry="1"/>
    <ellipse cx="72.2" cy="464.3" transform="rotate(-25.422 72.213 464.3)" rx="1" ry="1"/>
    <ellipse cx="21.4" cy="498.9" transform="rotate(-25.422 21.4 498.91)" rx="1" ry="1"/>
    <ellipse cx="27.5" cy="496" transform="rotate(-25.422 27.5 496.008)" rx="1" ry="1"/>
    <ellipse cx="33.6" cy="493.1" transform="rotate(-25.422 33.602 493.106)" rx="1" ry="1"/>
    <ellipse cx="39.7" cy="490.2" transform="rotate(-25.422 39.704 490.203)" rx="1" ry="1"/>
    <ellipse cx="45.8" cy="487.3" transform="rotate(-25.422 45.806 487.3)" rx="1" ry="1"/>
    <ellipse cx="51.9" cy="484.4" transform="rotate(-25.422 51.907 484.398)" rx="1" ry="1"/>
    <ellipse cx="58" cy="481.6" transform="rotate(-25.422 58.018 481.613)" rx="1" ry="1"/>
    <ellipse cx="21.4" cy="498.9" transform="rotate(-25.422 21.4 498.91)" rx="1" ry="1"/>
    <ellipse cx="27.5" cy="496" transform="rotate(-25.422 27.5 496.008)" rx="1" ry="1"/>
    <ellipse cx="33.6" cy="493.1" transform="rotate(-25.422 33.602 493.106)" rx="1" ry="1"/>
    <ellipse cx="39.7" cy="490.2" transform="rotate(-25.422 39.704 490.203)" rx="1" ry="1"/>
    <ellipse cx="45.8" cy="487.3" transform="rotate(-25.422 45.806 487.3)" rx="1" ry="1"/>
    <ellipse cx="51.9" cy="484.4" transform="rotate(-25.422 51.907 484.398)" rx="1" ry="1"/>
    <ellipse cx="58" cy="481.6" transform="rotate(-25.422 58.018 481.613)" rx="1" ry="1"/>
    <ellipse cx="64.1" cy="478.7" transform="rotate(-25.422 64.12 478.71)" rx="1" ry="1"/>
    <ellipse cx="27.5" cy="496" transform="rotate(-25.422 27.5 496.008)" rx="1" ry="1"/>
    <ellipse cx="33.6" cy="493.1" transform="rotate(-25.422 33.602 493.106)" rx="1" ry="1"/>
    <ellipse cx="39.7" cy="490.2" transform="rotate(-25.422 39.704 490.203)" rx="1" ry="1"/>
    <ellipse cx="45.8" cy="487.3" transform="rotate(-25.422 45.806 487.3)" rx="1" ry="1"/>
    <ellipse cx="51.9" cy="484.4" transform="rotate(-25.422 51.907 484.398)" rx="1" ry="1"/>
    <ellipse cx="58" cy="481.6" transform="rotate(-25.422 58.018 481.613)" rx="1" ry="1"/>
    <ellipse cx="64.1" cy="478.7" transform="rotate(-25.422 64.12 478.71)" rx="1" ry="1"/>
    <ellipse cx="70.1" cy="475.8" transform="rotate(-25.422 70.104 475.817)" rx="1" ry="1"/>
    <ellipse cx="33.6" cy="493.1" transform="rotate(-25.422 33.602 493.106)" rx="1" ry="1"/>
    <ellipse cx="39.7" cy="490.2" transform="rotate(-25.422 39.704 490.203)" rx="1" ry="1"/>
    <ellipse cx="45.8" cy="487.3" transform="rotate(-25.422 45.806 487.3)" rx="1" ry="1"/>
    <ellipse cx="51.9" cy="484.4" transform="rotate(-25.422 51.907 484.398)" rx="1" ry="1"/>
    <ellipse cx="58" cy="481.6" transform="rotate(-25.422 58.018 481.613)" rx="1" ry="1"/>
    <ellipse cx="64.1" cy="478.7" transform="rotate(-25.422 64.12 478.71)" rx="1" ry="1"/>
    <ellipse cx="70.1" cy="475.8" transform="rotate(-25.422 70.104 475.817)" rx="1" ry="1"/>
    <ellipse cx="76.2" cy="472.9" transform="rotate(-25.422 76.205 472.914)" rx="1" ry="1"/>
    <ellipse cx="39.7" cy="490.2" transform="rotate(-25.422 39.704 490.203)" rx="1" ry="1"/>
    <ellipse cx="45.8" cy="487.3" transform="rotate(-25.422 45.806 487.3)" rx="1" ry="1"/>
    <ellipse cx="51.9" cy="484.4" transform="rotate(-25.422 51.907 484.398)" rx="1" ry="1"/>
    <ellipse cx="58" cy="481.6" transform="rotate(-25.422 58.018 481.613)" rx="1" ry="1"/>
    <ellipse cx="64.1" cy="478.7" transform="rotate(-25.422 64.12 478.71)" rx="1" ry="1"/>
    <ellipse cx="70.1" cy="475.8" transform="rotate(-25.422 70.104 475.817)" rx="1" ry="1"/>
    <ellipse cx="76.2" cy="472.9" transform="rotate(-25.422 76.205 472.914)" rx="1" ry="1"/>
    <ellipse cx="25.5" cy="507.5" transform="rotate(-25.422 25.51 507.516)" rx="1" ry="1"/>
    <ellipse cx="31.6" cy="504.6" transform="rotate(-25.422 31.61 504.614)" rx="1" ry="1"/>
    <ellipse cx="37.7" cy="501.7" transform="rotate(-25.422 37.713 501.71)" rx="1" ry="1"/>
    <ellipse cx="43.8" cy="498.8" transform="rotate(-25.422 43.814 498.81)" rx="1" ry="1"/>
    <ellipse cx="49.9" cy="495.9" transform="rotate(-25.422 49.916 495.906)" rx="1" ry="1"/>
    <ellipse cx="55.9" cy="493" transform="rotate(-25.422 55.9 493.012)" rx="1" ry="1"/>
    <ellipse cx="62" cy="490.1" transform="rotate(-25.422 62.002 490.11)" rx="1" ry="1"/>
    <ellipse cx="25.5" cy="507.5" transform="rotate(-25.422 25.51 507.516)" rx="1" ry="1"/>
    <ellipse cx="31.6" cy="504.6" transform="rotate(-25.422 31.61 504.614)" rx="1" ry="1"/>
    <ellipse cx="37.7" cy="501.7" transform="rotate(-25.422 37.713 501.71)" rx="1" ry="1"/>
    <ellipse cx="43.8" cy="498.8" transform="rotate(-25.422 43.814 498.81)" rx="1" ry="1"/>
    <ellipse cx="49.9" cy="495.9" transform="rotate(-25.422 49.916 495.906)" rx="1" ry="1"/>
    <ellipse cx="55.9" cy="493" transform="rotate(-25.422 55.9 493.012)" rx="1" ry="1"/>
    <ellipse cx="62" cy="490.1" transform="rotate(-25.422 62.002 490.11)" rx="1" ry="1"/>
    <ellipse cx="68.1" cy="487.2" transform="rotate(-25.422 68.104 487.207)" rx="1" ry="1"/>
    <ellipse cx="31.6" cy="504.6" transform="rotate(-25.422 31.61 504.614)" rx="1" ry="1"/>
    <ellipse cx="37.7" cy="501.7" transform="rotate(-25.422 37.713 501.71)" rx="1" ry="1"/>
    <ellipse cx="43.8" cy="498.8" transform="rotate(-25.422 43.814 498.81)" rx="1" ry="1"/>
    <ellipse cx="49.9" cy="495.9" transform="rotate(-25.422 49.916 495.906)" rx="1" ry="1"/>
    <ellipse cx="55.9" cy="493" transform="rotate(-25.422 55.9 493.012)" rx="1" ry="1"/>
    <ellipse cx="62" cy="490.1" transform="rotate(-25.422 62.002 490.11)" rx="1" ry="1"/>
    <ellipse cx="68.1" cy="487.2" transform="rotate(-25.422 68.104 487.207)" rx="1" ry="1"/>
    <ellipse cx="74.2" cy="484.3" transform="rotate(-25.422 74.206 484.305)" rx="1" ry="1"/>
    <ellipse cx="37.7" cy="501.7" transform="rotate(-25.422 37.713 501.71)" rx="1" ry="1"/>
    <ellipse cx="43.8" cy="498.8" transform="rotate(-25.422 43.814 498.81)" rx="1" ry="1"/>
    <ellipse cx="49.9" cy="495.9" transform="rotate(-25.422 49.916 495.906)" rx="1" ry="1"/>
    <ellipse cx="55.9" cy="493" transform="rotate(-25.422 55.9 493.012)" rx="1" ry="1"/>
    <ellipse cx="62" cy="490.1" transform="rotate(-25.422 62.002 490.11)" rx="1" ry="1"/>
    <ellipse cx="68.1" cy="487.2" transform="rotate(-25.422 68.104 487.207)" rx="1" ry="1"/>
    <ellipse cx="74.2" cy="484.3" transform="rotate(-25.422 74.206 484.305)" rx="1" ry="1"/>
    <ellipse cx="80.3" cy="481.4" transform="rotate(-25.422 80.307 481.402)" rx="1" ry="1"/>
    <ellipse cx="43.8" cy="498.8" transform="rotate(-25.422 43.814 498.81)" rx="1" ry="1"/>
    <ellipse cx="49.9" cy="495.9" transform="rotate(-25.422 49.916 495.906)" rx="1" ry="1"/>
    <ellipse cx="55.9" cy="493" transform="rotate(-25.422 55.9 493.012)" rx="1" ry="1"/>
    <ellipse cx="62" cy="490.1" transform="rotate(-25.422 62.002 490.11)" rx="1" ry="1"/>
    <ellipse cx="68.1" cy="487.2" transform="rotate(-25.422 68.104 487.207)" rx="1" ry="1"/>
    <ellipse cx="74.2" cy="484.3" transform="rotate(-25.422 74.206 484.305)" rx="1" ry="1"/>
    <ellipse cx="80.3" cy="481.4" transform="rotate(-25.422 80.307 481.402)" rx="1" ry="1"/>
    <ellipse cx="35.7" cy="513.1" transform="rotate(-25.422 35.713 513.102)" rx="1" ry="1"/>
    <ellipse cx="41.7" cy="510.2" transform="rotate(-25.422 41.697 510.208)" rx="1" ry="1"/>
    <ellipse cx="47.8" cy="507.3" transform="rotate(-25.422 47.8 507.305)" rx="1" ry="1"/>
    <ellipse cx="53.9" cy="504.4" transform="rotate(-25.422 53.9 504.403)" rx="1" ry="1"/>
    <ellipse cx="60" cy="501.6" transform="rotate(-25.422 60.01 501.618)" rx="1" ry="1"/>
    <ellipse cx="66.1" cy="498.7" transform="rotate(-25.422 66.112 498.715)" rx="1" ry="1"/>
    <ellipse cx="35.7" cy="513.1" transform="rotate(-25.422 35.713 513.102)" rx="1" ry="1"/>
    <ellipse cx="41.7" cy="510.2" transform="rotate(-25.422 41.697 510.208)" rx="1" ry="1"/>
    <ellipse cx="47.8" cy="507.3" transform="rotate(-25.422 47.8 507.305)" rx="1" ry="1"/>
    <ellipse cx="53.9" cy="504.4" transform="rotate(-25.422 53.9 504.403)" rx="1" ry="1"/>
    <ellipse cx="60" cy="501.6" transform="rotate(-25.422 60.01 501.618)" rx="1" ry="1"/>
    <ellipse cx="66.1" cy="498.7" transform="rotate(-25.422 66.112 498.715)" rx="1" ry="1"/>
    <ellipse cx="72.2" cy="495.8" transform="rotate(-25.422 72.214 495.813)" rx="1" ry="1"/>
    <ellipse cx="35.7" cy="513.1" transform="rotate(-25.422 35.713 513.102)" rx="1" ry="1"/>
    <ellipse cx="41.7" cy="510.2" transform="rotate(-25.422 41.697 510.208)" rx="1" ry="1"/>
    <ellipse cx="47.8" cy="507.3" transform="rotate(-25.422 47.8 507.305)" rx="1" ry="1"/>
    <ellipse cx="53.9" cy="504.4" transform="rotate(-25.422 53.9 504.403)" rx="1" ry="1"/>
    <ellipse cx="60" cy="501.6" transform="rotate(-25.422 60.01 501.618)" rx="1" ry="1"/>
    <ellipse cx="66.1" cy="498.7" transform="rotate(-25.422 66.112 498.715)" rx="1" ry="1"/>
    <ellipse cx="72.2" cy="495.8" transform="rotate(-25.422 72.214 495.813)" rx="1" ry="1"/>
    <ellipse cx="78.3" cy="492.9" transform="rotate(-25.422 78.316 492.91)" rx="1" ry="1"/>
    <ellipse cx="41.7" cy="510.2" transform="rotate(-25.422 41.697 510.208)" rx="1" ry="1"/>
    <ellipse cx="47.8" cy="507.3" transform="rotate(-25.422 47.8 507.305)" rx="1" ry="1"/>
    <ellipse cx="53.9" cy="504.4" transform="rotate(-25.422 53.9 504.403)" rx="1" ry="1"/>
    <ellipse cx="60" cy="501.6" transform="rotate(-25.422 60.01 501.618)" rx="1" ry="1"/>
    <ellipse cx="66.1" cy="498.7" transform="rotate(-25.422 66.112 498.715)" rx="1" ry="1"/>
    <ellipse cx="72.2" cy="495.8" transform="rotate(-25.422 72.214 495.813)" rx="1" ry="1"/>
    <ellipse cx="78.3" cy="492.9" transform="rotate(-25.422 78.316 492.91)" rx="1" ry="1"/>
    <ellipse cx="47.8" cy="507.3" transform="rotate(-25.422 47.8 507.305)" rx="1" ry="1"/>
    <ellipse cx="53.9" cy="504.4" transform="rotate(-25.422 53.9 504.403)" rx="1" ry="1"/>
    <ellipse cx="60" cy="501.6" transform="rotate(-25.422 60.01 501.618)" rx="1" ry="1"/>
    <ellipse cx="66.1" cy="498.7" transform="rotate(-25.422 66.112 498.715)" rx="1" ry="1"/>
    <ellipse cx="72.2" cy="495.8" transform="rotate(-25.422 72.214 495.813)" rx="1" ry="1"/>
    <ellipse cx="78.3" cy="492.9" transform="rotate(-25.422 78.316 492.91)" rx="1" ry="1"/>
    <ellipse cx="39.7" cy="521.7" transform="rotate(-25.422 39.706 521.716)" rx="1" ry="1"/>
    <ellipse cx="45.8" cy="518.8" transform="rotate(-25.422 45.808 518.813)" rx="1" ry="1"/>
    <ellipse cx="51.9" cy="515.9" transform="rotate(-25.422 51.91 515.91)" rx="1" ry="1"/>
    <ellipse cx="58" cy="513" transform="rotate(-25.422 58.01 513.008)" rx="1" ry="1"/>
    <ellipse cx="64.1" cy="510.1" transform="rotate(-25.422 64.113 510.106)" rx="1" ry="1"/>
    <ellipse cx="70.2" cy="507.2" transform="rotate(-25.422 70.215 507.203)" rx="1" ry="1"/>
    <ellipse cx="39.7" cy="521.7" transform="rotate(-25.422 39.706 521.716)" rx="1" ry="1"/>
    <ellipse cx="45.8" cy="518.8" transform="rotate(-25.422 45.808 518.813)" rx="1" ry="1"/>
    <ellipse cx="51.9" cy="515.9" transform="rotate(-25.422 51.91 515.91)" rx="1" ry="1"/>
    <ellipse cx="58" cy="513" transform="rotate(-25.422 58.01 513.008)" rx="1" ry="1"/>
    <ellipse cx="64.1" cy="510.1" transform="rotate(-25.422 64.113 510.106)" rx="1" ry="1"/>
    <ellipse cx="70.2" cy="507.2" transform="rotate(-25.422 70.215 507.203)" rx="1" ry="1"/>
    <ellipse cx="76.2" cy="504.3" transform="rotate(-25.422 76.2 504.31)" rx="1" ry="1"/>
    <ellipse cx="39.7" cy="521.7" transform="rotate(-25.422 39.706 521.716)" rx="1" ry="1"/>
    <ellipse cx="45.8" cy="518.8" transform="rotate(-25.422 45.808 518.813)" rx="1" ry="1"/>
    <ellipse cx="51.9" cy="515.9" transform="rotate(-25.422 51.91 515.91)" rx="1" ry="1"/>
    <ellipse cx="58" cy="513" transform="rotate(-25.422 58.01 513.008)" rx="1" ry="1"/>
    <ellipse cx="64.1" cy="510.1" transform="rotate(-25.422 64.113 510.106)" rx="1" ry="1"/>
    <ellipse cx="70.2" cy="507.2" transform="rotate(-25.422 70.215 507.203)" rx="1" ry="1"/>
    <ellipse cx="76.2" cy="504.3" transform="rotate(-25.422 76.2 504.31)" rx="1" ry="1"/>
    <ellipse cx="82.3" cy="501.4" transform="rotate(-25.422 82.3 501.407)" rx="1" ry="1"/>
    <ellipse cx="45.8" cy="518.8" transform="rotate(-25.422 45.808 518.813)" rx="1" ry="1"/>
    <ellipse cx="51.9" cy="515.9" transform="rotate(-25.422 51.91 515.91)" rx="1" ry="1"/>
    <ellipse cx="58" cy="513" transform="rotate(-25.422 58.01 513.008)" rx="1" ry="1"/>
    <ellipse cx="64.1" cy="510.1" transform="rotate(-25.422 64.113 510.106)" rx="1" ry="1"/>
    <ellipse cx="70.2" cy="507.2" transform="rotate(-25.422 70.215 507.203)" rx="1" ry="1"/>
    <ellipse cx="76.2" cy="504.3" transform="rotate(-25.422 76.2 504.31)" rx="1" ry="1"/>
    <ellipse cx="82.3" cy="501.4" transform="rotate(-25.422 82.3 501.407)" rx="1" ry="1"/>
    <ellipse cx="51.9" cy="515.9" transform="rotate(-25.422 51.91 515.91)" rx="1" ry="1"/>
    <ellipse cx="58" cy="513" transform="rotate(-25.422 58.01 513.008)" rx="1" ry="1"/>
    <ellipse cx="64.1" cy="510.1" transform="rotate(-25.422 64.113 510.106)" rx="1" ry="1"/>
    <ellipse cx="70.2" cy="507.2" transform="rotate(-25.422 70.215 507.203)" rx="1" ry="1"/>
    <ellipse cx="76.2" cy="504.3" transform="rotate(-25.422 76.2 504.31)" rx="1" ry="1"/>
    <ellipse cx="82.3" cy="501.4" transform="rotate(-25.422 82.3 501.407)" rx="1" ry="1"/>
    <ellipse cx="49.9" cy="527.3" transform="rotate(-25.422 49.91 527.3)" rx="1" ry="1"/>
    <ellipse cx="56" cy="524.4" transform="rotate(-25.422 56.01 524.4)" rx="1" ry="1"/>
    <ellipse cx="62.1" cy="521.6" transform="rotate(-25.422 62.094 521.58)" rx="1" ry="1"/>
    <ellipse cx="68.1" cy="518.7" transform="rotate(-25.422 68.106 518.72)" rx="1" ry="1"/>
    <ellipse cx="74.2" cy="515.8" transform="rotate(-25.422 74.207 515.817)" rx="1" ry="1"/>
    <ellipse cx="49.9" cy="527.3" transform="rotate(-25.422 49.91 527.3)" rx="1" ry="1"/>
    <ellipse cx="56" cy="524.4" transform="rotate(-25.422 56.01 524.4)" rx="1" ry="1"/>
    <ellipse cx="62.1" cy="521.6" transform="rotate(-25.422 62.094 521.58)" rx="1" ry="1"/>
    <ellipse cx="68.1" cy="518.7" transform="rotate(-25.422 68.106 518.72)" rx="1" ry="1"/>
    <ellipse cx="74.2" cy="515.8" transform="rotate(-25.422 74.207 515.817)" rx="1" ry="1"/>
    <ellipse cx="80.3" cy="512.9" transform="rotate(-25.422 80.31 512.914)" rx="1" ry="1"/>
    <ellipse cx="49.9" cy="527.3" transform="rotate(-25.422 49.91 527.3)" rx="1" ry="1"/>
    <ellipse cx="56" cy="524.4" transform="rotate(-25.422 56.01 524.4)" rx="1" ry="1"/>
    <ellipse cx="62.1" cy="521.6" transform="rotate(-25.422 62.094 521.58)" rx="1" ry="1"/>
    <ellipse cx="68.1" cy="518.7" transform="rotate(-25.422 68.106 518.72)" rx="1" ry="1"/>
    <ellipse cx="74.2" cy="515.8" transform="rotate(-25.422 74.207 515.817)" rx="1" ry="1"/>
    <ellipse cx="80.3" cy="512.9" transform="rotate(-25.422 80.31 512.914)" rx="1" ry="1"/>
    <ellipse cx="49.9" cy="527.3" transform="rotate(-25.422 49.91 527.3)" rx="1" ry="1"/>
    <ellipse cx="56" cy="524.4" transform="rotate(-25.422 56.01 524.4)" rx="1" ry="1"/>
    <ellipse cx="62.1" cy="521.6" transform="rotate(-25.422 62.094 521.58)" rx="1" ry="1"/>
    <ellipse cx="68.1" cy="518.7" transform="rotate(-25.422 68.106 518.72)" rx="1" ry="1"/>
    <ellipse cx="74.2" cy="515.8" transform="rotate(-25.422 74.207 515.817)" rx="1" ry="1"/>
    <ellipse cx="80.3" cy="512.9" transform="rotate(-25.422 80.31 512.914)" rx="1" ry="1"/>
    <ellipse cx="56" cy="524.4" transform="rotate(-25.422 56.01 524.4)" rx="1" ry="1"/>
    <ellipse cx="62.1" cy="521.6" transform="rotate(-25.422 62.094 521.58)" rx="1" ry="1"/>
    <ellipse cx="68.1" cy="518.7" transform="rotate(-25.422 68.106 518.72)" rx="1" ry="1"/>
    <ellipse cx="74.2" cy="515.8" transform="rotate(-25.422 74.207 515.817)" rx="1" ry="1"/>
    <ellipse cx="80.3" cy="512.9" transform="rotate(-25.422 80.31 512.914)" rx="1" ry="1"/>
    <ellipse cx="60" cy="533" transform="rotate(-25.422 60.004 533.012)" rx="1" ry="1"/>
    <ellipse cx="66.1" cy="530.1" transform="rotate(-25.422 66.106 530.11)" rx="1" ry="1"/>
    <ellipse cx="72.2" cy="527.2" transform="rotate(-25.422 72.208 527.207)" rx="1" ry="1"/>
    <ellipse cx="78.3" cy="524.3" transform="rotate(-25.422 78.31 524.305)" rx="1" ry="1"/>
    <ellipse cx="60" cy="533" transform="rotate(-25.422 60.004 533.012)" rx="1" ry="1"/>
    <ellipse cx="66.1" cy="530.1" transform="rotate(-25.422 66.106 530.11)" rx="1" ry="1"/>
    <ellipse cx="72.2" cy="527.2" transform="rotate(-25.422 72.208 527.207)" rx="1" ry="1"/>
    <ellipse cx="78.3" cy="524.3" transform="rotate(-25.422 78.31 524.305)" rx="1" ry="1"/>
    <ellipse cx="60" cy="533" transform="rotate(-25.422 60.004 533.012)" rx="1" ry="1"/>
    <ellipse cx="66.1" cy="530.1" transform="rotate(-25.422 66.106 530.11)" rx="1" ry="1"/>
    <ellipse cx="72.2" cy="527.2" transform="rotate(-25.422 72.208 527.207)" rx="1" ry="1"/>
    <ellipse cx="78.3" cy="524.3" transform="rotate(-25.422 78.31 524.305)" rx="1" ry="1"/>
    <ellipse cx="60" cy="533" transform="rotate(-25.422 60.004 533.012)" rx="1" ry="1"/>
    <ellipse cx="66.1" cy="530.1" transform="rotate(-25.422 66.106 530.11)" rx="1" ry="1"/>
    <ellipse cx="72.2" cy="527.2" transform="rotate(-25.422 72.208 527.207)" rx="1" ry="1"/>
    <ellipse cx="78.3" cy="524.3" transform="rotate(-25.422 78.31 524.305)" rx="1" ry="1"/>
    <ellipse cx="60" cy="533" transform="rotate(-25.422 60.004 533.012)" rx="1" ry="1"/>
    <ellipse cx="66.1" cy="530.1" transform="rotate(-25.422 66.106 530.11)" rx="1" ry="1"/>
    <ellipse cx="72.2" cy="527.2" transform="rotate(-25.422 72.208 527.207)" rx="1" ry="1"/>
    <ellipse cx="78.3" cy="524.3" transform="rotate(-25.422 78.31 524.305)" rx="1" ry="1"/>
    <ellipse cx="70.2" cy="538.7" transform="rotate(-25.422 70.216 538.715)" rx="1" ry="1"/>
    <ellipse cx="76.3" cy="535.8" transform="rotate(-25.422 76.318 535.813)" rx="1" ry="1"/>
    <ellipse cx="70.2" cy="538.7" transform="rotate(-25.422 70.216 538.715)" rx="1" ry="1"/>
    <ellipse cx="76.3" cy="535.8" transform="rotate(-25.422 76.318 535.813)" rx="1" ry="1"/>
    <ellipse cx="70.2" cy="538.7" transform="rotate(-25.422 70.216 538.715)" rx="1" ry="1"/>
    <ellipse cx="76.3" cy="535.8" transform="rotate(-25.422 76.318 535.813)" rx="1" ry="1"/>
    <ellipse cx="70.2" cy="538.7" transform="rotate(-25.422 70.216 538.715)" rx="1" ry="1"/>
    <ellipse cx="76.3" cy="535.8" transform="rotate(-25.422 76.318 535.813)" rx="1" ry="1"/>
    <ellipse cx="70.2" cy="538.7" transform="rotate(-25.422 70.216 538.715)" rx="1" ry="1"/>
    <ellipse cx="76.3" cy="535.8" transform="rotate(-25.422 76.318 535.813)" rx="1" ry="1"/>
    <path d="M86.8 550.9c-1.9 0-3.9-.2-5.8-.7-8.9-2.1-15.8-9-17.1-17.1L56.4 488c-1.1-6.5.7-12.9 5-17.9 4.9-5.8 12.4-9.1 20.5-9.1-7.8-10.4-6.9-20.6-6.9-21l.1-1.2 1.1.3c11 3.4 16.8 11.5 19.8 19.3.2-8.1 2.7-17.4 11.5-24.3l.9-.7.5 1.1c.3.6 6.2 12.7-1.1 28 5.2-5 12.7-9.7 22.2-9.7 1.7 0 3.5.2 5.2.5l1.2.2-.4 1.1c-.2.4-4 9.9-15.6 15.7 6.9 3.5 12.1 9.6 14 16.6 1.9 6.7.6 13.5-3.5 19.1l-27 36.8c-3.6 5-10.1 8.1-17.1 8.1z" class="st5"/>
    <path d="M108.2 434.9s7.3 14.5-3.6 31.6l.7.2c4.8-5.7 13.2-13 24.8-13 1.6 0 3.3.1 5 .4 0 0-4.1 10.5-17.1 16 14.8 6.2 20.9 23 12.1 35.1l-27 36.8c-3.6 4.9-9.8 7.8-16.4 7.8-1.8 0-3.7-.2-5.5-.7-8.6-2-15.1-8.5-16.4-16.3l-7.5-45.1C55 473.8 66.8 462 81.9 462c.7 0 1.4 0 2.1.1-9.1-10.8-8-22-8-22 13.8 4.2 19 16.4 21 24.7l.4.1c-1.1-8.5-.3-21.3 10.8-30m.7-2.9l-1.9 1.4c-7.7 6-10.8 13.8-11.7 21.1-3.3-6.5-9-13.4-18.8-16.4l-2.3-.7-.2 2.3c0 .4-.9 10.1 6 20.2-7.7.5-14.7 3.8-19.4 9.4-4.5 5.3-6.3 11.9-5.2 18.7l7.5 45.1c1.4 8.5 8.6 15.6 17.9 17.8 2 .5 4 .7 6 .7 7.3 0 14.1-3.2 18-8.6l27-36.8c4.3-5.8 5.5-12.9 3.6-19.9-1.9-6.7-6.5-12.6-12.9-16.3 10.8-6 14.3-14.9 14.5-15.3l.9-2.2-2.3-.4c-1.8-.3-3.6-.5-5.4-.5-8.1 0-14.7 3.3-19.8 7.3 4.9-13.9-.2-24.5-.5-25l-1-1.9z" class="st5"/>
    <path d="M102.5 472.4c2.9-4.6 12.6-17.6 27.7-17.6 1.2 0 2.3.1 3.5.2-2 4.1-10.2 16.8-31.2 17.4z" class="st4"/>
    <path d="M130.2 453.7v2.1c.6 0 1.2 0 1.8.1-2.8 4.6-10.6 14.2-27.5 15.4 3.8-5.3 12.6-15.5 25.7-15.5v-2.1m0 0c-19.1 0-29.6 19.8-29.6 19.8h.2c27 0 34.4-19.3 34.4-19.3-1.7-.3-3.4-.5-5-.5z" class="st5"/>
    <path d="M97 471.1c-18.3-10-19.9-25.1-20-29.7 16.4 5.9 19.4 23.9 20 29.7z" class="st4"/>
    <path d="M78.1 443c6.9 2.9 12 8.5 15.2 16.6 1.4 3.7 2.1 7.1 2.5 9.6-14.8-8.8-17.3-20.8-17.7-26.2m-2.1-2.9s-2.1 20.7 22.2 32.9c0-.1-.5-26.4-22.2-32.9z" class="st5"/>
    <path d="M99.7 471.5c-1.5-5.6-5.1-23.6 8.1-34.9 1.6 4.3 5.6 18.8-8.1 34.9z" class="st4"/>
    <path d="M107.3 438.5c1.5 5.2 3.4 17.4-7.1 30.7-1.4-6.6-3.1-20.9 7.1-30.7m.9-3.6c-17.9 13.9-8.9 38.6-8.9 38.6 18.2-20 8.9-38.6 8.9-38.6z" class="st5"/>
    <path d="M100.8 474.2c-.3 0-.6-.1-.8-.4-.1-.2-.1-.5 0-.7s12.8-23.6 35.4-19.7c.2 0 .4.2.5.4.1.2.1.4 0 .6-.1.3-8 19.8-35.1 19.8zm29.5-19.7c-16 0-25.9 14.2-28.4 18.3 13-.3 21.1-5.2 25.6-9.4 3.8-3.5 5.9-7.1 6.6-8.6-1.3-.2-2.6-.3-3.8-.3zm-32.1 19.1c-.1 0-.2 0-.3-.1-12.7-6.4-18.2-15.2-20.5-21.4-2.5-6.8-2.1-12-2-12.2 0-.2.1-.4.3-.5.2-.1.4-.2.6-.1 22 6.7 22.7 33.3 22.7 33.5 0 .3-.1.5-.3.6-.3.2-.4.2-.5.2zM76.7 441c0 4 1.1 20.3 20.7 30.6-.5-5.1-3.3-24.6-20.7-30.6z"/>
    <path d="M99.3 474.3c-.3 0-.6-.2-.6-.5-.1-.3-9-25.3 9.2-39.4.2-.1.4-.2.6-.1.2 0 .4.2.5.4.1.2 9.3 19.3-9 39.4-.3.1-.5.2-.7.2zm8.6-38.2c-14.2 11.8-9.8 31.1-8.3 36 14.5-16.7 9.8-32.3 8.3-36z"/>
    <path d="M86.8 548.9c-1.8 0-3.6-.2-5.3-.6-8.1-1.9-14.4-8.1-15.6-15.4l-7.5-45.1c-1-5.9.6-11.7 4.5-16.3 4.5-5.3 11.4-8.4 19-8.4 1.9 0 3.8.2 5.7.6.4.1.7.2 1.1.2l24.5 5.8c.4.1.7.2 1.1.3 8.5 2.4 15.2 8.3 17.9 16 2.2 6.5 1.3 13.3-2.7 18.7l-27 36.8c-3.5 4.6-9.3 7.4-15.7 7.4z" class="st6"/>
    <path d="M81.9 462v2.1c1.8 0 3.7.2 5.5.6.4.1.7.1 1.1.2l24.5 5.8c.4.1.7.2 1 .3 8.2 2.3 14.6 8 17.2 15.4 2.1 6.2 1.2 12.6-2.6 17.8l-27 36.8c-3.2 4.3-8.7 6.9-14.8 6.9-1.7 0-3.4-.2-5.1-.6-7.7-1.8-13.7-7.7-14.8-14.6l-7.5-45.1c-.9-5.6.6-11.1 4.3-15.5 4.3-5.1 10.9-8 18.2-8V462m0 0c-15.1 0-26.9 11.8-24.5 25.9l7.5 45.1c1.3 7.7 7.8 14.2 16.4 16.3 1.9.4 3.7.7 5.5.7 6.6 0 12.8-2.8 16.4-7.8l27-36.8c9.5-13 1.7-31.5-15.7-36.3-.4-.1-.7-.2-1.1-.3L88.9 463c-.4-.1-.8-.2-1.1-.2-2-.6-4-.8-5.9-.8z" class="st5"/>
    <path d="M86.7 550.6c-1.9 0-3.8-.2-5.7-.7-8.8-2.1-15.6-8.9-17-16.9l-7.4-45c-1.2-7.2 1.2-14.3 6.5-19.5 6.3-6 15.5-8.5 24.8-6.7l1.2.3 24.5 5.8c.4.1.8.2 1.1.3 9.1 2.5 16.2 8.9 19.1 17.1 2.4 7 1.4 14.4-3 20.3l-27 36.8c-3.8 5.3-10.2 8.2-17.1 8.2zm-4.8-87.9c-6.7 0-13.1 2.4-17.7 6.9-5 4.8-7.2 11.5-6.1 18.2l7.5 45.1c1.2 7.4 7.6 13.7 15.9 15.7s16.8-.8 21.2-6.8l27-36.8c4-5.5 5-12.4 2.8-19-2.7-7.8-9.5-13.8-18.1-16.2-.4-.1-.7-.2-1.1-.3l-24.5-5.8c-.4-.1-.7-.2-1.1-.2-2-.6-3.9-.8-5.8-.8z"/>
    <ellipse cx="83.6" cy="466.8" transform="rotate(-76.567 83.563 466.793)" rx="1" ry="1"/>
    <ellipse cx="90.2" cy="468.3" transform="rotate(-76.567 90.232 468.34)" rx="1" ry="1"/>
    <ellipse cx="96.7" cy="469.9" transform="rotate(-76.567 96.713 469.92)" rx="1" ry="1"/>
    <ellipse cx="103.3" cy="471.4" transform="rotate(-76.567 103.284 471.444)" rx="1" ry="1"/>
    <ellipse cx="109.8" cy="473" transform="rotate(-76.567 109.84 473.042)" rx="1" ry="1"/>
    <ellipse cx="83.6" cy="466.8" transform="rotate(-76.567 83.563 466.793)" rx="1" ry="1"/>
    <ellipse cx="90.2" cy="468.3" transform="rotate(-76.567 90.232 468.34)" rx="1" ry="1"/>
    <ellipse cx="96.7" cy="469.9" transform="rotate(-76.567 96.713 469.92)" rx="1" ry="1"/>
    <ellipse cx="103.3" cy="471.4" transform="rotate(-76.567 103.284 471.444)" rx="1" ry="1"/>
    <ellipse cx="109.8" cy="473" transform="rotate(-76.567 109.84 473.042)" rx="1" ry="1"/>
    <ellipse cx="116.3" cy="474.5" transform="rotate(-76.567 116.336 474.55)" rx="1" ry="1"/>
    <ellipse cx="83.6" cy="466.8" transform="rotate(-76.567 83.563 466.793)" rx="1" ry="1"/>
    <ellipse cx="90.2" cy="468.3" transform="rotate(-76.567 90.232 468.34)" rx="1" ry="1"/>
    <ellipse cx="96.7" cy="469.9" transform="rotate(-76.567 96.713 469.92)" rx="1" ry="1"/>
    <ellipse cx="103.3" cy="471.4" transform="rotate(-76.567 103.284 471.444)" rx="1" ry="1"/>
    <ellipse cx="109.8" cy="473" transform="rotate(-76.567 109.84 473.042)" rx="1" ry="1"/>
    <ellipse cx="116.3" cy="474.5" transform="rotate(-76.567 116.336 474.55)" rx="1" ry="1"/>
    <ellipse cx="83.6" cy="466.8" transform="rotate(-76.567 83.563 466.793)" rx="1" ry="1"/>
    <ellipse cx="90.2" cy="468.3" transform="rotate(-76.567 90.232 468.34)" rx="1" ry="1"/>
    <ellipse cx="96.7" cy="469.9" transform="rotate(-76.567 96.713 469.92)" rx="1" ry="1"/>
    <ellipse cx="103.3" cy="471.4" transform="rotate(-76.567 103.284 471.444)" rx="1" ry="1"/>
    <ellipse cx="109.8" cy="473" transform="rotate(-76.567 109.84 473.042)" rx="1" ry="1"/>
    <ellipse cx="116.3" cy="474.5" transform="rotate(-76.567 116.336 474.55)" rx="1" ry="1"/>
    <ellipse cx="90.2" cy="468.3" transform="rotate(-76.567 90.232 468.34)" rx="1" ry="1"/>
    <ellipse cx="96.7" cy="469.9" transform="rotate(-76.567 96.713 469.92)" rx="1" ry="1"/>
    <ellipse cx="103.3" cy="471.4" transform="rotate(-76.567 103.284 471.444)" rx="1" ry="1"/>
    <ellipse cx="109.8" cy="473" transform="rotate(-76.567 109.84 473.042)" rx="1" ry="1"/>
    <ellipse cx="116.3" cy="474.5" transform="rotate(-76.567 116.336 474.55)" rx="1" ry="1"/>
    <ellipse cx="68.3" cy="472.9" transform="rotate(-76.567 68.295 472.886)" rx="1" ry="1"/>
    <ellipse cx="74.9" cy="474.4" transform="rotate(-76.567 74.866 474.408)" rx="1" ry="1"/>
    <ellipse cx="81.4" cy="476" transform="rotate(-76.567 81.444 476.014)" rx="1" ry="1"/>
    <ellipse cx="88" cy="477.5" transform="rotate(-76.567 88.016 477.537)" rx="1" ry="1"/>
    <ellipse cx="94.6" cy="479.1" transform="rotate(-76.567 94.572 479.135)" rx="1" ry="1"/>
    <ellipse cx="101.1" cy="480.6" transform="rotate(-76.567 101.068 480.642)" rx="1" ry="1"/>
    <ellipse cx="107.6" cy="482.2" transform="rotate(-76.567 107.624 482.24)" rx="1" ry="1"/>
    <ellipse cx="68.3" cy="472.9" transform="rotate(-76.567 68.295 472.886)" rx="1" ry="1"/>
    <ellipse cx="74.9" cy="474.4" transform="rotate(-76.567 74.866 474.408)" rx="1" ry="1"/>
    <ellipse cx="81.4" cy="476" transform="rotate(-76.567 81.444 476.014)" rx="1" ry="1"/>
    <ellipse cx="88" cy="477.5" transform="rotate(-76.567 88.016 477.537)" rx="1" ry="1"/>
    <ellipse cx="94.6" cy="479.1" transform="rotate(-76.567 94.572 479.135)" rx="1" ry="1"/>
    <ellipse cx="101.1" cy="480.6" transform="rotate(-76.567 101.068 480.642)" rx="1" ry="1"/>
    <ellipse cx="107.6" cy="482.2" transform="rotate(-76.567 107.624 482.24)" rx="1" ry="1"/>
    <ellipse cx="114.1" cy="483.7" transform="rotate(-76.567 114.12 483.748)" rx="1" ry="1"/>
    <ellipse cx="74.9" cy="474.4" transform="rotate(-76.567 74.866 474.408)" rx="1" ry="1"/>
    <ellipse cx="81.4" cy="476" transform="rotate(-76.567 81.444 476.014)" rx="1" ry="1"/>
    <ellipse cx="88" cy="477.5" transform="rotate(-76.567 88.016 477.537)" rx="1" ry="1"/>
    <ellipse cx="94.6" cy="479.1" transform="rotate(-76.567 94.572 479.135)" rx="1" ry="1"/>
    <ellipse cx="101.1" cy="480.6" transform="rotate(-76.567 101.068 480.642)" rx="1" ry="1"/>
    <ellipse cx="107.6" cy="482.2" transform="rotate(-76.567 107.624 482.24)" rx="1" ry="1"/>
    <ellipse cx="114.1" cy="483.7" transform="rotate(-76.567 114.12 483.748)" rx="1" ry="1"/>
    <ellipse cx="120.8" cy="485.3" transform="rotate(-76.567 120.79 485.294)" rx="1" ry="1"/>
    <ellipse cx="81.4" cy="476" transform="rotate(-76.567 81.444 476.014)" rx="1" ry="1"/>
    <ellipse cx="88" cy="477.5" transform="rotate(-76.567 88.016 477.537)" rx="1" ry="1"/>
    <ellipse cx="94.6" cy="479.1" transform="rotate(-76.567 94.572 479.135)" rx="1" ry="1"/>
    <ellipse cx="101.1" cy="480.6" transform="rotate(-76.567 101.068 480.642)" rx="1" ry="1"/>
    <ellipse cx="107.6" cy="482.2" transform="rotate(-76.567 107.624 482.24)" rx="1" ry="1"/>
    <ellipse cx="114.1" cy="483.7" transform="rotate(-76.567 114.12 483.748)" rx="1" ry="1"/>
    <ellipse cx="120.8" cy="485.3" transform="rotate(-76.567 120.79 485.294)" rx="1" ry="1"/>
    <ellipse cx="127.3" cy="486.9" transform="rotate(-76.567 127.345 486.892)" rx="1" ry="1"/>
    <ellipse cx="88" cy="477.5" transform="rotate(-76.567 88.016 477.537)" rx="1" ry="1"/>
    <ellipse cx="94.6" cy="479.1" transform="rotate(-76.567 94.572 479.135)" rx="1" ry="1"/>
    <ellipse cx="101.1" cy="480.6" transform="rotate(-76.567 101.068 480.642)" rx="1" ry="1"/>
    <ellipse cx="107.6" cy="482.2" transform="rotate(-76.567 107.624 482.24)" rx="1" ry="1"/>
    <ellipse cx="114.1" cy="483.7" transform="rotate(-76.567 114.12 483.748)" rx="1" ry="1"/>
    <ellipse cx="120.8" cy="485.3" transform="rotate(-76.567 120.79 485.294)" rx="1" ry="1"/>
    <ellipse cx="127.3" cy="486.9" transform="rotate(-76.567 127.345 486.892)" rx="1" ry="1"/>
    <ellipse cx="66.1" cy="482.1" transform="rotate(-76.567 66.08 482.084)" rx="1" ry="1"/>
    <ellipse cx="72.7" cy="483.6" transform="rotate(-76.567 72.747 483.63)" rx="1" ry="1"/>
    <ellipse cx="79.2" cy="485.2" transform="rotate(-76.567 79.228 485.213)" rx="1" ry="1"/>
    <ellipse cx="85.8" cy="486.7" transform="rotate(-76.567 85.8 486.736)" rx="1" ry="1"/>
    <ellipse cx="92.4" cy="488.3" transform="rotate(-76.567 92.356 488.334)" rx="1" ry="1"/>
    <ellipse cx="98.8" cy="489.8" transform="rotate(-76.567 98.852 489.84)" rx="1" ry="1"/>
    <ellipse cx="105.5" cy="491.4" transform="rotate(-76.567 105.505 491.462)" rx="1" ry="1"/>
    <ellipse cx="66.1" cy="482.1" transform="rotate(-76.567 66.08 482.084)" rx="1" ry="1"/>
    <ellipse cx="72.7" cy="483.6" transform="rotate(-76.567 72.747 483.63)" rx="1" ry="1"/>
    <ellipse cx="79.2" cy="485.2" transform="rotate(-76.567 79.228 485.213)" rx="1" ry="1"/>
    <ellipse cx="85.8" cy="486.7" transform="rotate(-76.567 85.8 486.736)" rx="1" ry="1"/>
    <ellipse cx="92.4" cy="488.3" transform="rotate(-76.567 92.356 488.334)" rx="1" ry="1"/>
    <ellipse cx="98.8" cy="489.8" transform="rotate(-76.567 98.852 489.84)" rx="1" ry="1"/>
    <ellipse cx="105.5" cy="491.4" transform="rotate(-76.567 105.505 491.462)" rx="1" ry="1"/>
    <ellipse cx="112.1" cy="493" transform="rotate(-76.567 112.077 492.985)" rx="1" ry="1"/>
    <ellipse cx="72.7" cy="483.6" transform="rotate(-76.567 72.747 483.63)" rx="1" ry="1"/>
    <ellipse cx="79.2" cy="485.2" transform="rotate(-76.567 79.228 485.213)" rx="1" ry="1"/>
    <ellipse cx="85.8" cy="486.7" transform="rotate(-76.567 85.8 486.736)" rx="1" ry="1"/>
    <ellipse cx="92.4" cy="488.3" transform="rotate(-76.567 92.356 488.334)" rx="1" ry="1"/>
    <ellipse cx="98.8" cy="489.8" transform="rotate(-76.567 98.852 489.84)" rx="1" ry="1"/>
    <ellipse cx="105.5" cy="491.4" transform="rotate(-76.567 105.505 491.462)" rx="1" ry="1"/>
    <ellipse cx="112.1" cy="493" transform="rotate(-76.567 112.077 492.985)" rx="1" ry="1"/>
    <ellipse cx="118.6" cy="494.5" transform="rotate(-76.567 118.573 494.492)" rx="1" ry="1"/>
    <ellipse cx="79.2" cy="485.2" transform="rotate(-76.567 79.228 485.213)" rx="1" ry="1"/>
    <ellipse cx="85.8" cy="486.7" transform="rotate(-76.567 85.8 486.736)" rx="1" ry="1"/>
    <ellipse cx="92.4" cy="488.3" transform="rotate(-76.567 92.356 488.334)" rx="1" ry="1"/>
    <ellipse cx="98.8" cy="489.8" transform="rotate(-76.567 98.852 489.84)" rx="1" ry="1"/>
    <ellipse cx="105.5" cy="491.4" transform="rotate(-76.567 105.505 491.462)" rx="1" ry="1"/>
    <ellipse cx="112.1" cy="493" transform="rotate(-76.567 112.077 492.985)" rx="1" ry="1"/>
    <ellipse cx="118.6" cy="494.5" transform="rotate(-76.567 118.573 494.492)" rx="1" ry="1"/>
    <ellipse cx="125.1" cy="496.2" transform="rotate(-76.567 125.106 496.188)" rx="1" ry="1"/>
    <ellipse cx="85.8" cy="486.7" transform="rotate(-76.567 85.8 486.736)" rx="1" ry="1"/>
    <ellipse cx="92.4" cy="488.3" transform="rotate(-76.567 92.356 488.334)" rx="1" ry="1"/>
    <ellipse cx="98.8" cy="489.8" transform="rotate(-76.567 98.852 489.84)" rx="1" ry="1"/>
    <ellipse cx="105.5" cy="491.4" transform="rotate(-76.567 105.505 491.462)" rx="1" ry="1"/>
    <ellipse cx="112.1" cy="493" transform="rotate(-76.567 112.077 492.985)" rx="1" ry="1"/>
    <ellipse cx="118.6" cy="494.5" transform="rotate(-76.567 118.573 494.492)" rx="1" ry="1"/>
    <ellipse cx="125.1" cy="496.2" transform="rotate(-76.567 125.106 496.188)" rx="1" ry="1"/>
    <ellipse cx="63.9" cy="491.3" transform="rotate(-76.567 63.863 491.283)" rx="1" ry="1"/>
    <ellipse cx="70.5" cy="492.8" transform="rotate(-76.567 70.53 492.83)" rx="1" ry="1"/>
    <ellipse cx="77" cy="494.4" transform="rotate(-76.567 77.012 494.412)" rx="1" ry="1"/>
    <ellipse cx="83.6" cy="495.9" transform="rotate(-76.567 83.583 495.934)" rx="1" ry="1"/>
    <ellipse cx="90.1" cy="497.5" transform="rotate(-76.567 90.14 497.532)" rx="1" ry="1"/>
    <ellipse cx="96.6" cy="499" transform="rotate(-76.567 96.636 499.04)" rx="1" ry="1"/>
    <ellipse cx="103.3" cy="500.6" transform="rotate(-76.567 103.29 500.66)" rx="1" ry="1"/>
    <ellipse cx="63.9" cy="491.3" transform="rotate(-76.567 63.863 491.283)" rx="1" ry="1"/>
    <ellipse cx="70.5" cy="492.8" transform="rotate(-76.567 70.53 492.83)" rx="1" ry="1"/>
    <ellipse cx="77" cy="494.4" transform="rotate(-76.567 77.012 494.412)" rx="1" ry="1"/>
    <ellipse cx="83.6" cy="495.9" transform="rotate(-76.567 83.583 495.934)" rx="1" ry="1"/>
    <ellipse cx="90.1" cy="497.5" transform="rotate(-76.567 90.14 497.532)" rx="1" ry="1"/>
    <ellipse cx="96.6" cy="499" transform="rotate(-76.567 96.636 499.04)" rx="1" ry="1"/>
    <ellipse cx="103.3" cy="500.6" transform="rotate(-76.567 103.29 500.66)" rx="1" ry="1"/>
    <ellipse cx="109.9" cy="502.2" transform="rotate(-76.567 109.86 502.183)" rx="1" ry="1"/>
    <ellipse cx="70.5" cy="492.8" transform="rotate(-76.567 70.53 492.83)" rx="1" ry="1"/>
    <ellipse cx="77" cy="494.4" transform="rotate(-76.567 77.012 494.412)" rx="1" ry="1"/>
    <ellipse cx="83.6" cy="495.9" transform="rotate(-76.567 83.583 495.934)" rx="1" ry="1"/>
    <ellipse cx="90.1" cy="497.5" transform="rotate(-76.567 90.14 497.532)" rx="1" ry="1"/>
    <ellipse cx="96.6" cy="499" transform="rotate(-76.567 96.636 499.04)" rx="1" ry="1"/>
    <ellipse cx="103.3" cy="500.6" transform="rotate(-76.567 103.29 500.66)" rx="1" ry="1"/>
    <ellipse cx="109.9" cy="502.2" transform="rotate(-76.567 109.86 502.183)" rx="1" ry="1"/>
    <ellipse cx="116.4" cy="503.7" transform="rotate(-76.567 116.356 503.69)" rx="1" ry="1"/>
    <ellipse cx="77" cy="494.4" transform="rotate(-76.567 77.012 494.412)" rx="1" ry="1"/>
    <ellipse cx="83.6" cy="495.9" transform="rotate(-76.567 83.583 495.934)" rx="1" ry="1"/>
    <ellipse cx="90.1" cy="497.5" transform="rotate(-76.567 90.14 497.532)" rx="1" ry="1"/>
    <ellipse cx="96.6" cy="499" transform="rotate(-76.567 96.636 499.04)" rx="1" ry="1"/>
    <ellipse cx="103.3" cy="500.6" transform="rotate(-76.567 103.29 500.66)" rx="1" ry="1"/>
    <ellipse cx="109.9" cy="502.2" transform="rotate(-76.567 109.86 502.183)" rx="1" ry="1"/>
    <ellipse cx="116.4" cy="503.7" transform="rotate(-76.567 116.356 503.69)" rx="1" ry="1"/>
    <ellipse cx="122.9" cy="505.4" transform="rotate(-76.567 122.89 505.386)" rx="1" ry="1"/>
    <ellipse cx="83.6" cy="495.9" transform="rotate(-76.567 83.583 495.934)" rx="1" ry="1"/>
    <ellipse cx="90.1" cy="497.5" transform="rotate(-76.567 90.14 497.532)" rx="1" ry="1"/>
    <ellipse cx="96.6" cy="499" transform="rotate(-76.567 96.636 499.04)" rx="1" ry="1"/>
    <ellipse cx="103.3" cy="500.6" transform="rotate(-76.567 103.29 500.66)" rx="1" ry="1"/>
    <ellipse cx="109.9" cy="502.2" transform="rotate(-76.567 109.86 502.183)" rx="1" ry="1"/>
    <ellipse cx="116.4" cy="503.7" transform="rotate(-76.567 116.356 503.69)" rx="1" ry="1"/>
    <ellipse cx="122.9" cy="505.4" transform="rotate(-76.567 122.89 505.386)" rx="1" ry="1"/>
    <ellipse cx="68.3" cy="502" transform="rotate(-76.567 68.315 502.027)" rx="1" ry="1"/>
    <ellipse cx="74.9" cy="503.6" transform="rotate(-76.567 74.87 503.625)" rx="1" ry="1"/>
    <ellipse cx="81.4" cy="505.1" transform="rotate(-76.567 81.367 505.133)" rx="1" ry="1"/>
    <ellipse cx="87.9" cy="506.7" transform="rotate(-76.567 87.923 506.73)" rx="1" ry="1"/>
    <ellipse cx="94.4" cy="508.2" transform="rotate(-76.567 94.42 508.238)" rx="1" ry="1"/>
    <ellipse cx="101" cy="509.9" transform="rotate(-76.567 101.05 509.957)" rx="1" ry="1"/>
    <ellipse cx="68.3" cy="502" transform="rotate(-76.567 68.315 502.027)" rx="1" ry="1"/>
    <ellipse cx="74.9" cy="503.6" transform="rotate(-76.567 74.87 503.625)" rx="1" ry="1"/>
    <ellipse cx="81.4" cy="505.1" transform="rotate(-76.567 81.367 505.133)" rx="1" ry="1"/>
    <ellipse cx="87.9" cy="506.7" transform="rotate(-76.567 87.923 506.73)" rx="1" ry="1"/>
    <ellipse cx="94.4" cy="508.2" transform="rotate(-76.567 94.42 508.238)" rx="1" ry="1"/>
    <ellipse cx="101" cy="509.9" transform="rotate(-76.567 101.05 509.957)" rx="1" ry="1"/>
    <ellipse cx="107.6" cy="511.5" transform="rotate(-76.567 107.62 511.48)" rx="1" ry="1"/>
    <ellipse cx="68.3" cy="502" transform="rotate(-76.567 68.315 502.027)" rx="1" ry="1"/>
    <ellipse cx="74.9" cy="503.6" transform="rotate(-76.567 74.87 503.625)" rx="1" ry="1"/>
    <ellipse cx="81.4" cy="505.1" transform="rotate(-76.567 81.367 505.133)" rx="1" ry="1"/>
    <ellipse cx="87.9" cy="506.7" transform="rotate(-76.567 87.923 506.73)" rx="1" ry="1"/>
    <ellipse cx="94.4" cy="508.2" transform="rotate(-76.567 94.42 508.238)" rx="1" ry="1"/>
    <ellipse cx="101" cy="509.9" transform="rotate(-76.567 101.05 509.957)" rx="1" ry="1"/>
    <ellipse cx="107.6" cy="511.5" transform="rotate(-76.567 107.62 511.48)" rx="1" ry="1"/>
    <ellipse cx="114.1" cy="512.9" transform="rotate(-76.567 114.14 512.89)" rx="1" ry="1"/>
    <ellipse cx="74.9" cy="503.6" transform="rotate(-76.567 74.87 503.625)" rx="1" ry="1"/>
    <ellipse cx="81.4" cy="505.1" transform="rotate(-76.567 81.367 505.133)" rx="1" ry="1"/>
    <ellipse cx="87.9" cy="506.7" transform="rotate(-76.567 87.923 506.73)" rx="1" ry="1"/>
    <ellipse cx="94.4" cy="508.2" transform="rotate(-76.567 94.42 508.238)" rx="1" ry="1"/>
    <ellipse cx="101" cy="509.9" transform="rotate(-76.567 101.05 509.957)" rx="1" ry="1"/>
    <ellipse cx="107.6" cy="511.5" transform="rotate(-76.567 107.62 511.48)" rx="1" ry="1"/>
    <ellipse cx="114.1" cy="512.9" transform="rotate(-76.567 114.14 512.89)" rx="1" ry="1"/>
    <ellipse cx="81.4" cy="505.1" transform="rotate(-76.567 81.367 505.133)" rx="1" ry="1"/>
    <ellipse cx="87.9" cy="506.7" transform="rotate(-76.567 87.923 506.73)" rx="1" ry="1"/>
    <ellipse cx="94.4" cy="508.2" transform="rotate(-76.567 94.42 508.238)" rx="1" ry="1"/>
    <ellipse cx="101" cy="509.9" transform="rotate(-76.567 101.05 509.957)" rx="1" ry="1"/>
    <ellipse cx="107.6" cy="511.5" transform="rotate(-76.567 107.62 511.48)" rx="1" ry="1"/>
    <ellipse cx="114.1" cy="512.9" transform="rotate(-76.567 114.14 512.89)" rx="1" ry="1"/>
    <ellipse cx="66.1" cy="511.2" transform="rotate(-76.567 66.1 511.226)" rx="1" ry="1"/>
    <ellipse cx="72.7" cy="512.8" transform="rotate(-76.567 72.655 512.824)" rx="1" ry="1"/>
    <ellipse cx="79.1" cy="514.3" transform="rotate(-76.567 79.15 514.33)" rx="1" ry="1"/>
    <ellipse cx="85.7" cy="515.9" transform="rotate(-76.567 85.707 515.93)" rx="1" ry="1"/>
    <ellipse cx="92.4" cy="517.5" transform="rotate(-76.567 92.376 517.475)" rx="1" ry="1"/>
    <ellipse cx="98.8" cy="519.1" transform="rotate(-76.567 98.834 519.155)" rx="1" ry="1"/>
    <ellipse cx="66.1" cy="511.2" transform="rotate(-76.567 66.1 511.226)" rx="1" ry="1"/>
    <ellipse cx="72.7" cy="512.8" transform="rotate(-76.567 72.655 512.824)" rx="1" ry="1"/>
    <ellipse cx="79.1" cy="514.3" transform="rotate(-76.567 79.15 514.33)" rx="1" ry="1"/>
    <ellipse cx="85.7" cy="515.9" transform="rotate(-76.567 85.707 515.93)" rx="1" ry="1"/>
    <ellipse cx="92.4" cy="517.5" transform="rotate(-76.567 92.376 517.475)" rx="1" ry="1"/>
    <ellipse cx="98.8" cy="519.1" transform="rotate(-76.567 98.834 519.155)" rx="1" ry="1"/>
    <ellipse cx="105.4" cy="520.7" transform="rotate(-76.567 105.405 520.678)" rx="1" ry="1"/>
    <ellipse cx="66.1" cy="511.2" transform="rotate(-76.567 66.1 511.226)" rx="1" ry="1"/>
    <ellipse cx="72.7" cy="512.8" transform="rotate(-76.567 72.655 512.824)" rx="1" ry="1"/>
    <ellipse cx="79.1" cy="514.3" transform="rotate(-76.567 79.15 514.33)" rx="1" ry="1"/>
    <ellipse cx="85.7" cy="515.9" transform="rotate(-76.567 85.707 515.93)" rx="1" ry="1"/>
    <ellipse cx="92.4" cy="517.5" transform="rotate(-76.567 92.376 517.475)" rx="1" ry="1"/>
    <ellipse cx="98.8" cy="519.1" transform="rotate(-76.567 98.834 519.155)" rx="1" ry="1"/>
    <ellipse cx="105.4" cy="520.7" transform="rotate(-76.567 105.405 520.678)" rx="1" ry="1"/>
    <ellipse cx="112" cy="522.2" transform="rotate(-76.567 111.976 522.2)" rx="1" ry="1"/>
    <ellipse cx="72.7" cy="512.8" transform="rotate(-76.567 72.655 512.824)" rx="1" ry="1"/>
    <ellipse cx="79.1" cy="514.3" transform="rotate(-76.567 79.15 514.33)" rx="1" ry="1"/>
    <ellipse cx="85.7" cy="515.9" transform="rotate(-76.567 85.707 515.93)" rx="1" ry="1"/>
    <ellipse cx="92.4" cy="517.5" transform="rotate(-76.567 92.376 517.475)" rx="1" ry="1"/>
    <ellipse cx="98.8" cy="519.1" transform="rotate(-76.567 98.834 519.155)" rx="1" ry="1"/>
    <ellipse cx="105.4" cy="520.7" transform="rotate(-76.567 105.405 520.678)" rx="1" ry="1"/>
    <ellipse cx="112" cy="522.2" transform="rotate(-76.567 111.976 522.2)" rx="1" ry="1"/>
    <ellipse cx="79.1" cy="514.3" transform="rotate(-76.567 79.15 514.33)" rx="1" ry="1"/>
    <ellipse cx="85.7" cy="515.9" transform="rotate(-76.567 85.707 515.93)" rx="1" ry="1"/>
    <ellipse cx="92.4" cy="517.5" transform="rotate(-76.567 92.376 517.475)" rx="1" ry="1"/>
    <ellipse cx="98.8" cy="519.1" transform="rotate(-76.567 98.834 519.155)" rx="1" ry="1"/>
    <ellipse cx="105.4" cy="520.7" transform="rotate(-76.567 105.405 520.678)" rx="1" ry="1"/>
    <ellipse cx="112" cy="522.2" transform="rotate(-76.567 111.976 522.2)" rx="1" ry="1"/>
    <ellipse cx="70.4" cy="522" transform="rotate(-76.567 70.44 522.022)" rx="1" ry="1"/>
    <ellipse cx="76.9" cy="523.5" transform="rotate(-76.567 76.935 523.53)" rx="1" ry="1"/>
    <ellipse cx="83.6" cy="525.1" transform="rotate(-76.567 83.588 525.15)" rx="1" ry="1"/>
    <ellipse cx="90.2" cy="526.7" transform="rotate(-76.567 90.16 526.674)" rx="1" ry="1"/>
    <ellipse cx="96.6" cy="528.3" transform="rotate(-76.567 96.617 528.354)" rx="1" ry="1"/>
    <ellipse cx="70.4" cy="522" transform="rotate(-76.567 70.44 522.022)" rx="1" ry="1"/>
    <ellipse cx="76.9" cy="523.5" transform="rotate(-76.567 76.935 523.53)" rx="1" ry="1"/>
    <ellipse cx="83.6" cy="525.1" transform="rotate(-76.567 83.588 525.15)" rx="1" ry="1"/>
    <ellipse cx="90.2" cy="526.7" transform="rotate(-76.567 90.16 526.674)" rx="1" ry="1"/>
    <ellipse cx="96.6" cy="528.3" transform="rotate(-76.567 96.617 528.354)" rx="1" ry="1"/>
    <ellipse cx="103.2" cy="529.9" transform="rotate(-76.567 103.19 529.876)" rx="1" ry="1"/>
    <ellipse cx="70.4" cy="522" transform="rotate(-76.567 70.44 522.022)" rx="1" ry="1"/>
    <ellipse cx="76.9" cy="523.5" transform="rotate(-76.567 76.935 523.53)" rx="1" ry="1"/>
    <ellipse cx="83.6" cy="525.1" transform="rotate(-76.567 83.588 525.15)" rx="1" ry="1"/>
    <ellipse cx="90.2" cy="526.7" transform="rotate(-76.567 90.16 526.674)" rx="1" ry="1"/>
    <ellipse cx="96.6" cy="528.3" transform="rotate(-76.567 96.617 528.354)" rx="1" ry="1"/>
    <ellipse cx="103.2" cy="529.9" transform="rotate(-76.567 103.19 529.876)" rx="1" ry="1"/>
    <ellipse cx="70.4" cy="522" transform="rotate(-76.567 70.44 522.022)" rx="1" ry="1"/>
    <ellipse cx="76.9" cy="523.5" transform="rotate(-76.567 76.935 523.53)" rx="1" ry="1"/>
    <ellipse cx="83.6" cy="525.1" transform="rotate(-76.567 83.588 525.15)" rx="1" ry="1"/>
    <ellipse cx="90.2" cy="526.7" transform="rotate(-76.567 90.16 526.674)" rx="1" ry="1"/>
    <ellipse cx="96.6" cy="528.3" transform="rotate(-76.567 96.617 528.354)" rx="1" ry="1"/>
    <ellipse cx="103.2" cy="529.9" transform="rotate(-76.567 103.19 529.876)" rx="1" ry="1"/>
    <ellipse cx="76.9" cy="523.5" transform="rotate(-76.567 76.935 523.53)" rx="1" ry="1"/>
    <ellipse cx="83.6" cy="525.1" transform="rotate(-76.567 83.588 525.15)" rx="1" ry="1"/>
    <ellipse cx="90.2" cy="526.7" transform="rotate(-76.567 90.16 526.674)" rx="1" ry="1"/>
    <ellipse cx="96.6" cy="528.3" transform="rotate(-76.567 96.617 528.354)" rx="1" ry="1"/>
    <ellipse cx="103.2" cy="529.9" transform="rotate(-76.567 103.19 529.876)" rx="1" ry="1"/>
    <ellipse cx="74.7" cy="532.7" transform="rotate(-76.567 74.72 532.728)" rx="1" ry="1"/>
    <ellipse cx="81.3" cy="534.4" transform="rotate(-76.567 81.35 534.447)" rx="1" ry="1"/>
    <ellipse cx="87.9" cy="535.9" transform="rotate(-76.567 87.92 535.97)" rx="1" ry="1"/>
    <ellipse cx="94.4" cy="537.5" transform="rotate(-76.567 94.4 537.552)" rx="1" ry="1"/>
    <ellipse cx="74.7" cy="532.7" transform="rotate(-76.567 74.72 532.728)" rx="1" ry="1"/>
    <ellipse cx="81.3" cy="534.4" transform="rotate(-76.567 81.35 534.447)" rx="1" ry="1"/>
    <ellipse cx="87.9" cy="535.9" transform="rotate(-76.567 87.92 535.97)" rx="1" ry="1"/>
    <ellipse cx="94.4" cy="537.5" transform="rotate(-76.567 94.4 537.552)" rx="1" ry="1"/>
    <ellipse cx="74.7" cy="532.7" transform="rotate(-76.567 74.72 532.728)" rx="1" ry="1"/>
    <ellipse cx="81.3" cy="534.4" transform="rotate(-76.567 81.35 534.447)" rx="1" ry="1"/>
    <ellipse cx="87.9" cy="535.9" transform="rotate(-76.567 87.92 535.97)" rx="1" ry="1"/>
    <ellipse cx="94.4" cy="537.5" transform="rotate(-76.567 94.4 537.552)" rx="1" ry="1"/>
    <ellipse cx="74.7" cy="532.7" transform="rotate(-76.567 74.72 532.728)" rx="1" ry="1"/>
    <ellipse cx="81.3" cy="534.4" transform="rotate(-76.567 81.35 534.447)" rx="1" ry="1"/>
    <ellipse cx="87.9" cy="535.9" transform="rotate(-76.567 87.92 535.97)" rx="1" ry="1"/>
    <ellipse cx="94.4" cy="537.5" transform="rotate(-76.567 94.4 537.552)" rx="1" ry="1"/>
    <ellipse cx="74.7" cy="532.7" transform="rotate(-76.567 74.72 532.728)" rx="1" ry="1"/>
    <ellipse cx="81.3" cy="534.4" transform="rotate(-76.567 81.35 534.447)" rx="1" ry="1"/>
    <ellipse cx="87.9" cy="535.9" transform="rotate(-76.567 87.92 535.97)" rx="1" ry="1"/>
    <ellipse cx="94.4" cy="537.5" transform="rotate(-76.567 94.4 537.552)" rx="1" ry="1"/>
    <ellipse cx="79.1" cy="543.6" transform="rotate(-76.567 79.133 543.645)" rx="1" ry="1"/>
    <ellipse cx="85.7" cy="545.1" transform="rotate(-76.567 85.704 545.168)" rx="1" ry="1"/>
    <ellipse cx="79.1" cy="543.6" transform="rotate(-76.567 79.133 543.645)" rx="1" ry="1"/>
    <ellipse cx="85.7" cy="545.1" transform="rotate(-76.567 85.704 545.168)" rx="1" ry="1"/>
    <ellipse cx="79.1" cy="543.6" transform="rotate(-76.567 79.133 543.645)" rx="1" ry="1"/>
    <ellipse cx="85.7" cy="545.1" transform="rotate(-76.567 85.704 545.168)" rx="1" ry="1"/>
    <ellipse cx="79.1" cy="543.6" transform="rotate(-76.567 79.133 543.645)" rx="1" ry="1"/>
    <ellipse cx="85.7" cy="545.1" transform="rotate(-76.567 85.704 545.168)" rx="1" ry="1"/>
    <ellipse cx="79.1" cy="543.6" transform="rotate(-76.567 79.133 543.645)" rx="1" ry="1"/>
    <ellipse cx="85.7" cy="545.1" transform="rotate(-76.567 85.704 545.168)" rx="1" ry="1"/>
  </g>
  <g id="Peach">
    <path d="M74.3 405c-1.4 0-2.8-.1-4.2-.2h-.2c-1.4.1-2.9.2-4.2.2-23.6 0-42.7-19.1-42.7-42.7s19.2-42.7 42.7-42.7c1.4 0 2.8.1 4.2.2h.2c1.4-.1 2.9-.2 4.2-.2 23.6 0 42.7 19.2 42.7 42.7S97.9 405 74.3 405z" class="st7"/>
    <path d="M74.3 320.4c23.1 0 41.9 18.8 41.9 41.9s-18.8 41.9-41.9 41.9c-1.4 0-2.8-.1-4.2-.2h-.4c-1.4.1-2.8.2-4.2.2-23.1 0-41.9-18.8-41.9-41.9s18.8-41.9 41.9-41.9c1.4 0 2.8.1 4.2.2h.4c1.5-.1 2.9-.2 4.2-.2m0-1.6c-1.5 0-2.9.1-4.3.2-1.4-.1-2.9-.2-4.3-.2-24 0-43.5 19.5-43.5 43.5s19.5 43.5 43.5 43.5c1.5 0 2.9-.1 4.3-.2 1.4.1 2.9.2 4.3.2 24 0 43.5-19.5 43.5-43.5.1-24-19.4-43.5-43.5-43.5z" class="st5"/>
    <path d="M65.7 406.5c-24.4 0-44.2-19.8-44.2-44.2 0-24.4 19.8-44.2 44.2-44.2 1.2 0 2.4 0 3.6.1.4 0 .7.4.6.8 0 .4-.4.7-.8.6-1.2-.1-2.3-.1-3.5-.1-23.6 0-42.8 19.2-42.8 42.8 0 23.6 19.2 42.8 42.8 42.8 1.4 0 2.8-.1 4.1-.2.4 0 .7.2.8.6 0 .4-.2.7-.6.8-1.4.2-2.8.2-4.2.2z"/>
    <path d="M74.3 406.5c-24.4 0-44.2-19.8-44.2-44.2 0-.4.3-.7.7-.7s.7.3.7.7c0 23.6 19.2 42.9 42.9 42.9s42.9-19.2 42.9-42.9c0-23.6-19.2-42.8-42.9-42.8-1.5 0-3 .1-4.4.2-.4 0-.7-.2-.7-.6s.2-.7.6-.7c1.5-.2 3-.2 4.5-.2 24.4 0 44.2 19.8 44.2 44.2s-19.9 44.1-44.3 44.1z"/>
    <path d="M69.6 319.2c-.3 0-.6-.2-.6-.5l-2.2-8.4c-.1-.4.1-.7.5-.8.4-.1.7.1.8.5l2.2 8.4c.1.4-.1.7-.5.8h-.2z"/>
    <path d="M60.8 315c-17.6 0-25.5-14.2-27.3-17.9 2.3-.4 4.5-.6 6.7-.6 17.9 0 25.6 14.2 27.3 17.9-2.3.4-4.6.6-6.7.6z" class="st4"/>
    <path d="M40.2 297.4c16.4 0 23.9 11.8 26.1 16.4-1.9.3-3.7.4-5.5.4-16.1 0-23.7-11.8-26.1-16.5 1.9-.2 3.7-.3 5.5-.3m0-1.7c-2.4 0-5 .2-7.8.8 0 0 7.4 19.3 28.4 19.3 2.4 0 5-.3 7.8-.8 0 0-7.1-19.3-28.4-19.3z" class="st5"/>
    <path d="M60.8 316.5c-9.9 0-16.7-4.2-21-8.2-5.7-5.4-8.1-11.3-8.2-11.6-.1-.2-.1-.4 0-.6s.3-.3.5-.3c14.5-2.8 23.8 2.4 29 7.4 5.7 5.3 7.9 11.3 8 11.5s.1.4 0 .6-.3.3-.5.3c-2.7.7-5.4.9-7.8.9zM33.2 297c1.8 4 11.2 21.8 34.4 17.5-1.7-3.9-10.8-21.6-34.4-17.5z"/>
  </g>
  <g id="Cucumber">
    <path d="M104.6 263.2c-2.4 0-5-.5-7.6-1.6-2.1-.8-4.2-2-6.2-3.6-3.9-2.9-14.3-11-26.8-23.8-.1-.1-.3-.2-.5-.2s-.4.1-.5.3l-.4.4c-.3.2-.7.3-1 .3-.7 0-1.3-.4-1.7-.9-.5-.8-.3-1.9.4-2.5.2-.1.3-.3.3-.5s-.1-.4-.2-.6c-11.9-12.5-22.6-25.9-31.9-40-1.5-2.2-2.8-4.6-3.8-7.1-.1-.3-.4-.5-.7-.5-.1 0-.2 0-.3.1-.2.1-.5.2-.8.2-.7 0-1.3-.4-1.7-.9-.6-.9-.3-2.1.7-2.7.1-.1.3-.1.5-.2.4-.1.6-.5.5-.9v-.1c-.1-.4-.2-.7-.3-1.1-1.5-6.1-1.9-14.1 4.6-17.5 1.9-1 3.8-1.5 5.9-1.5 9.5 0 17.7 10.7 17.8 10.9 0 0 2 2.7 5.3 6.8.1.2.4.3.6.3.1 0 .3 0 .4-.1l.1-.1c.3-.2.6-.3 1-.3.7 0 1.3.4 1.7.9.5.8.3 1.8-.3 2.4-.3.3-.3.7-.1 1 10.5 13.2 30.4 37.1 45.1 49.3 16.6 13.8 15 23 13.5 26.3-.2.4 0 .8.3 1s.5.4.7.7c.6.9.3 2.1-.7 2.7-.3.2-.7.3-1 .3-.5 0-1.1-.2-1.4-.6-.1-.2-.4-.2-.6-.2s-.3.1-.5.2c-2.2 1.3-5.6 3.4-10.4 3.4z" class="st4"/>
    <path d="M32.9 158.8c9.1 0 17.1 10.4 17.2 10.6 0 0 2 2.7 5.3 6.8.3.4.7.6 1.2.6.3 0 .6-.1.8-.3 0 0 .1 0 .1-.1.2-.1.4-.1.6-.1.4 0 .8.2 1 .6.3.5.2 1.1-.2 1.5-.6.5-.7 1.4-.2 2.1 10.5 13.2 30.4 37.2 45.2 49.4 16.3 13.4 14.7 22.2 13.3 25.4-.3.7 0 1.5.6 1.9.2.1.3.2.4.4.2.3.2.6.1.9s-.3.6-.5.7-.4.2-.6.2c-.3 0-.7-.1-.9-.4-.3-.3-.7-.5-1.1-.5-.3 0-.7.1-1 .4-1.9 1.6-5.1 3.6-9.6 3.6-2.3 0-4.8-.5-7.4-1.6-2-.8-4.1-2-6.1-3.5-3.9-2.9-14.2-11-26.8-23.7-.3-.3-.7-.4-1.1-.4-.4 0-.8.2-1.1.5-.1.1-.2.2-.3.2-.2.1-.4.2-.6.2-.4 0-.8-.2-1-.6-.3-.5-.2-1.2.3-1.5.3-.3.5-.7.5-1.1 0-.4-.1-.8-.4-1.1C48.9 217.4 38.2 204 28.9 190c-1.5-2.2-2.7-4.6-3.7-7-.2-.6-.8-.9-1.4-.9-.2 0-.4 0-.6.1-.1.1-.3.1-.5.1-.4 0-.8-.2-1-.6-.2-.3-.2-.6-.1-.9.1-.3.3-.6.5-.7.1 0 .2-.1.3-.1.8-.2 1.3-1.1 1-1.9v-.1c-.1-.4-.2-.7-.3-1.1-2-8.5-.6-14.1 4.2-16.7 1.8-1 3.7-1.4 5.6-1.4m0-1.5c-2 0-4.1.5-6.2 1.6-6.8 3.6-6.6 11.8-5 18.4.1.4.2.9.3 1.3-.2.1-.5.1-.7.3-1.3.8-1.7 2.4-.9 3.7.5.8 1.4 1.3 2.3 1.3.4 0 .7-.1 1-.2 1.1 2.5 2.4 4.9 3.9 7.2 10.6 16.1 21.9 29.5 32 40.1-1 .8-1.3 2.3-.6 3.5.5.8 1.4 1.3 2.3 1.3.5 0 1-.1 1.4-.4.2-.1.4-.3.6-.5 12.5 12.6 22.7 20.7 26.9 23.8 2 1.5 4.1 2.8 6.4 3.7 3 1.2 5.6 1.7 7.9 1.7 4.9 0 8.5-2.1 10.6-3.9.5.6 1.3.9 2 .9.5 0 1-.1 1.4-.4 1.3-.8 1.7-2.4.9-3.7-.2-.4-.6-.7-1-.9 1.6-3.6 3.3-13.2-13.7-27.2-14.5-12-33.9-35.3-45-49.2.9-.9 1.2-2.3.5-3.4-.5-.8-1.4-1.3-2.3-1.3-.5 0-1 .1-1.4.4l-.1.1c-3.3-4.2-5.3-6.8-5.3-6.8s-8.2-11.4-18.2-11.4z" class="st5"/>
    <path d="M104.6 264.5c-2.4 0-5.1-.5-8.1-1.7-2.2-.9-4.4-2.1-6.5-3.8-3.9-2.9-14.1-10.9-26.6-23.5-.1.1-.2.2-.3.2-.7.4-1.6.6-2.5.4-.8-.2-1.5-.7-2-1.5-.7-1.2-.6-2.7.3-3.8C47.1 218.4 36.5 205 27.2 191c-1.4-2.2-2.7-4.5-3.7-6.9-1.4.3-2.8-.2-3.5-1.5-.4-.7-.6-1.6-.4-2.5s.7-1.5 1.5-2c.1-.1.2-.1.3-.2-.1-.3-.1-.6-.2-.8-2.3-9.4-.4-15.9 5.3-19 12.6-6.7 25.1 9.6 25.3 9.7 0 0 1.9 2.5 5 6.4 1.5-.7 3.3-.2 4.2 1.3.7 1.2.6 2.6-.2 3.7 10.6 13.2 30.1 36.8 44.6 48.8 16.7 13.8 15.6 23.5 14 27.4.3.2.6.5.8.9.9 1.5.4 3.5-1.1 4.4-1.2.7-2.6.6-3.7-.2-2.3 1.9-5.9 4-10.8 4zm-41.2-30.3c.1 0 .3.1.4.2 12.6 12.7 23 20.9 26.9 23.8 2.1 1.6 4.2 2.8 6.3 3.6 8.7 3.5 14.6.7 18-2.2.2-.2.5-.2.7 0 .7.8 1.8.9 2.7.4 1-.6 1.4-2 .7-3-.2-.3-.4-.6-.8-.7-.2-.1-.3-.4-.2-.7 1.5-3.4 3.2-12.7-13.6-26.6-14.7-12.1-34.5-36-45-49.2-.2-.2-.1-.5.1-.7.8-.7.9-1.8.4-2.7-.6-1-2-1.4-3-.7 0 0-.1 0-.1.1-.2.2-.5.1-.7-.1-3.3-4.2-5.3-6.8-5.3-6.8s-3.1-4-7.6-7.2c-5.9-4.1-11.4-4.9-16.4-2.3-6.6 3.5-6.2 11.6-4.7 17.8.1.4.2.8.3 1.1v.1c.1.3-.1.6-.4.6-.2.1-.4.1-.5.2-.5.3-.9.8-1 1.3-.1.6-.1 1.2.3 1.7.6.9 1.7 1.3 2.7.9.3-.1.6 0 .7.3 1 2.5 2.3 4.9 3.8 7.1 9.3 14.1 20 27.5 31.9 40 .1.1.2.2.1.4 0 .1-.1.3-.2.4-.8.7-1 1.9-.5 2.8.3.5.8.9 1.3 1 .6.1 1.2.1 1.7-.3.2-.1.3-.2.5-.4.2-.1.3-.2.5-.2z"/>
    <path d="M102.5 235.8c-.1 0-.2 0-.3-.1-.2-.2-19.6-16.6-40.6-43.8-.2-.2-.1-.6.1-.7.2-.2.6-.1.7.1 21 27 40.2 43.4 40.4 43.6.2.2.3.5.1.7-.1.1-.2.2-.4.2zm-64.1-41c-1.5 0-2.9-1-3.3-2.5-.3-.9-.1-1.8.3-2.6s1.2-1.4 2.1-1.6c.9-.3 1.8-.1 2.6.3s1.4 1.2 1.6 2.1c.3.9.1 1.8-.3 2.6s-1.2 1.4-2.1 1.6c-.2.1-.6.1-.9.1zm0-5.8c-.2 0-.4 0-.7.1-.6.2-1.1.6-1.4 1.1-.3.6-.4 1.2-.2 1.8.4 1.3 1.7 2 3 1.6s2-1.7 1.6-3c-.2-.6-.6-1.1-1.1-1.4-.4-.1-.8-.2-1.2-.2zm-.8-.4zm9.3 7.8c-.4 0-.9-.1-1.3-.3-.6-.3-1-.9-1.2-1.6-.4-1.4.4-2.8 1.8-3.2 1.4-.4 2.8.4 3.2 1.8.4 1.4-.4 2.8-1.8 3.2-.3.1-.5.1-.7.1zm-.5-4.1c-.8.2-1.3 1.1-1.1 1.9.1.4.4.7.7.9.4.2.8.2 1.2.1.4-.1.7-.4.9-.7s.2-.8.1-1.2c-.1-.4-.4-.7-.7-.9-.3-.1-.7-.2-1.1-.1zm52.3 64c-.4 0-.9-.1-1.3-.3-.6-.3-1-.9-1.2-1.6-.4-1.4.4-2.8 1.8-3.2 1.4-.4 2.8.4 3.2 1.8.4 1.4-.4 2.8-1.8 3.2-.3.1-.5.1-.7.1zm-.5-4.1c-.8.2-1.3 1.1-1.1 1.9.1.4.4.7.7.9s.8.2 1.2.1c.8-.2 1.3-1.1 1.1-1.9-.2-.7-1-1.2-1.9-1z"/>
  </g>
  <g id="Watermelon">
    <path d="M64.3 124c-23.1 0-44.7-11.2-58-30.1l4-2.6c12.4 17.6 32.5 28.1 54.1 28.1 13.3 0 26.1-4 37.1-11.5 14.6-9.9 24.4-24.9 27.7-42.3 3.2-17-.2-34.2-9.7-48.7l3.9-2.7c10.2 15.5 13.9 34 10.4 52.2-3.5 18.6-14.1 34.7-29.7 45.3-11.8 8-25.6 12.3-39.8 12.3z" class="st4"/>
    <path d="M123 15.6c20.2 31.6 11.7 73.9-19.6 95.2-11.6 7.9-25.2 12.1-39.2 12.1-22.4 0-43.4-10.7-56.5-28.8l2.2-1.5c12.6 17.4 32.8 27.7 54.4 27.7 13.5 0 26.5-4 37.7-11.6 30-20.4 38.2-61.1 18.8-91.5l2.2-1.6m.6-2.9l-5.6 3.9c20.2 29.7 12.5 70.2-17.2 90.4-11.2 7.6-23.9 11.3-36.5 11.3-20.8 0-41.2-10-53.8-28.4l-5.7 3.7C18.7 114 41.3 125 64.3 125c13.9 0 28-4 40.4-12.5 32.7-22.3 41.2-67 18.9-99.8z" class="st5"/>
    <path d="M64.2 125.8C41 125.8 18.1 114.7 4 94.1c-.1-.2-.2-.4-.1-.7 0-.2.2-.4.4-.6l5.7-3.7c.4-.3.9-.2 1.2.2 19.9 29.3 59.9 36.9 89.2 16.9 29.3-19.9 36.9-59.9 16.9-89.2-.3-.4-.2-.9.2-1.2L123 12c.2-.1.4-.2.6-.1.2 0 .4.2.6.4 22.6 33.1 13.9 78.5-19.2 101-12.4 8.5-26.7 12.5-40.8 12.5zM6 93.8c22.2 31.8 66 39.9 98.1 18C136.2 90 144.7 46.2 123.3 14l-4.2 2.9c19.9 30 11.9 70.6-17.9 90.9-29.7 20.2-70.4 12.7-91-16.8L6 93.8z"/>
    <path d="M64.3 117.3c-20.9 0-40.4-10.1-52.4-27.1l105.8-72c9.2 14 12.5 30.6 9.4 47.1-3.2 16.8-12.7 31.3-26.9 41-10.7 7.1-23.1 11-35.9 11z" class="st8"/>
    <path d="M117.4 19.5c8.6 13.6 11.7 29.6 8.7 45.5-3.1 16.5-12.5 30.8-26.4 40.3-10.5 7.1-22.7 10.9-35.4 10.9-20.2 0-39.1-9.6-50.9-25.9l104-70.8m.6-2.8L10.4 89.9c12.6 18.5 33 28.4 53.8 28.4 12.6 0 25.3-3.7 36.5-11.3 29.8-20.2 37.5-60.6 17.3-90.3z" class="st5"/>
    <path d="M64.3 119.1c-21.1 0-41.8-10.1-54.6-28.8-.3-.4-.2-.9.2-1.2.4-.3.9-.2 1.2.2 12.4 18.2 32.6 28 53.2 28 12.4 0 25-3.6 36-11.1 29.3-19.9 36.9-59.9 16.9-89.2-.3-.4-.2-.9.2-1.2.4-.3.9-.2 1.2.2 20.4 30 12.6 71.1-17.4 91.6-11.2 7.8-24.1 11.5-36.9 11.5z"/>
    <path d="M24.4 90l-2.7 2.5" class="st9"/>
    <path d="M21.7 93.1c-.2 0-.3-.1-.5-.2-.2-.3-.2-.7 0-.9l2.7-2.5c.3-.2.7-.2.9 0 .2.3.2.7 0 .9L22.1 93c-.1.1-.3.1-.4.1z"/>
    <path d="M37.9 100.6l-1.8 3.2" class="st9"/>
    <path d="M36.1 104.5c-.1 0-.2 0-.3-.1-.3-.2-.4-.6-.3-.9l1.8-3.2c.2-.3.6-.4.9-.3.3.2.4.6.3.9l-1.8 3.2c-.2.3-.4.4-.6.4z"/>
    <path d="M53.6 106.4l-.7 3.6" class="st9"/>
    <path d="M52.9 110.7c-.5-.1-.7-.4-.6-.8l.7-3.6c.1-.4.4-.6.8-.5.4.1.6.4.5.8l-.7 3.6c-.1.3-.3.5-.7.5z"/>
    <path d="M70.4 107.1l.5 3.6" class="st9"/>
    <path d="M70.9 111.5c-.4 0-.7-.3-.7-.6l-.4-3.7c0-.4.2-.8.6-.8s.8.2.8.6l.4 3.7c0 .4-.3.7-.7.8z"/>
    <path d="M86.9 102.4l1.6 3.4" class="st9"/>
    <path d="M88.5 106.5c-.3 0-.5-.2-.7-.4l-1.5-3.3c-.2-.4 0-.8.4-1s.8 0 1 .4l1.5 3.3c.2.4 0 .8-.4 1h-.3z"/>
    <path d="M101.6 92.4l2.6 2.7" class="st9"/>
    <path d="M104.2 95.9c-.2 0-.4-.1-.6-.2l-2.5-2.7c-.3-.3-.3-.8 0-1.1s.8-.3 1.1 0l2.5 2.7c.3.3.3.8 0 1.1-.2.1-.4.2-.5.2z"/>
    <path d="M112 78.8l3.2 1.7" class="st9"/>
    <path d="M115.2 81.3c-.1 0-.3 0-.4-.1l-3.3-1.7c-.4-.2-.5-.7-.3-1.1s.7-.5 1.1-.3l3.3 1.7c.4.2.5.7.3 1.1-.1.3-.4.4-.7.4z"/>
    <path d="M117.5 62.9l3.6.7" class="st9"/>
    <path d="M121.1 64.4l-3.7-.7c-.4-.1-.7-.5-.7-.9.1-.4.5-.7.9-.7l3.6.7c.4.1.7.5.7.9s-.4.7-.8.7z"/>
    <path d="M117.9 46.1l3.7-.5" class="st9"/>
    <path d="M117.9 47c-.4 0-.8-.3-.8-.7-.1-.5.3-.9.7-.9l3.7-.5c.5-.1.9.3.9.7.1.5-.3.9-.7.9l-3.8.5c.1 0 .1 0 0 0zM113 30.5c-.3 0-.6-.2-.8-.5-.2-.4 0-.9.4-1.1l3.3-1.6c.4-.2.9 0 1.2.4s0 .9-.4 1.1l-3.3 1.6c-.2.1-.3.1-.4.1zM4.8 94.4c-.3 0-.5-.1-.7-.4-.3-.4-.2-.9.2-1.2l68.4-46.5c1.6-1.1 2.5-1.7 3.1-2v-.1l25.7-17.5v.1c.8-.6 3.2-2.3 10.8-7.4l10.8-7.4c.4-.3.9-.2 1.2.2.3.4.2.9-.2 1.2-7.3 5-21.1 14.4-21.6 14.7L76.8 45.7c-1 .6-70.8 48.1-71.5 48.6-.1.1-.3.1-.5.1z"/>
  </g>
</svg>
