<?xml version="1.0" encoding="UTF-8"?>
<svg width="60px" height="69px" viewBox="0 0 60 69" version="1.1" xmlns="http://www.w3.org/2000/svg" xmlns:xlink="http://www.w3.org/1999/xlink">
    <!-- Generator: Sketch 45.1 (43504) - http://www.bohemiancoding.com/sketch -->
    <title>Page 1</title>
    <desc>Created with Sketch.</desc>
    <defs></defs>
    <g id="Hurom-About-Page-v2" stroke="none" stroke-width="1" fill="none" fill-rule="evenodd">
        <g id="Desktop---Hurom-About-Page---Annotations" transform="translate(-690.000000, -5125.000000)">
            <g id="Page-1" transform="translate(690.000000, 5125.000000)">
                <path d="M50.5554146,48.6114146 C49.512,48.0962927 48.1261463,47.9865366 47.1954146,47.8797073 C47.0476098,47.8636098 46.9056585,47.892878 46.8163902,48.0187317 L47.4251707,47.0367805 C46.4022439,46.0738537 45.149561,45.3509268 43.9598049,44.6192195 C43.3290732,44.2314146 42.6280976,44.3265366 41.9212683,44.2358049 C41.616878,44.1962927 41.3139512,44.0821463 41.0037073,44.0953171 C40.734439,44.1070244 40.5880976,44.1406829 40.332,44.2123902 L40.0583415,44.2987317 L39.9046829,44.3045854 L39.8007805,44.3089756 L39.6515122,44.3119024 L39.4524878,44.3133659 C37.3817561,44.543122 38.6256585,46.2406829 38.0798049,47.4860488 C37.829561,48.0553171 37.1841951,48.3143415 36.9266341,48.8777561 C36.6690732,49.4367805 36.7685854,50.148 36.8461463,50.7333659 C37.2354146,53.7362927 39.2212683,52.3270244 39.6354146,54.8133659 C39.9222439,56.532878 39.132,59.6162927 38.5437073,61.2640976 C38.3446829,61.8187317 37.7680976,62.2445854 37.8734634,62.8884878 C37.9539512,63.3743415 38.6461463,64.2406829 39.1963902,64.1075122 C39.2593171,64.092878 39.1773659,63.9362927 39.1759024,63.9245854 C39.149561,63.7314146 39.2198049,63.503122 39.3456585,63.3567805 C40.0480976,62.550439 40.8266341,61.8143415 41.5305366,61.0109268 C41.7690732,60.7372683 41.9154146,60.3948293 42.2329756,60.1987317 C42.7437073,59.8870244 43.3729756,60.312878 43.8924878,60.0523902 C44.0022439,59.9967805 44.0724878,59.8387317 44.1178537,59.6484878 C44.2334634,59.1523902 44.592,58.7484878 45.0339512,58.4953171 C46.1856585,57.8367805 46.5529756,56.2460488 47.6022439,55.392878 C48.1246829,54.9684878 48.8622439,54.9875122 49.3802927,54.5601951 C49.5851707,54.3919024 49.3466341,54.1021463 49.3524878,53.9001951 C49.392,52.8758049 50.4646829,51.9084878 51.1363902,50.9938537 C51.7246829,50.1977561 51.4437073,49.0489756 50.5554146,48.6114146" id="Fill-1" fill="#78C500"></path>
                <path d="M35.1452195,21.7246829 C34.3183902,21.8315122 33.4535122,20.5700488 33.491561,20.5963902 L33.491561,20.1983415 C33.9144878,19.5412683 34.5130244,19.1563902 35.0486341,18.7715122 C35.0837561,18.1012683 35.1554634,17.4412683 35.2666829,16.7929756 C34.6286341,16.6451707 33.9979024,16.5090732 33.3422927,16.4812683 C33.1813171,16.4754146 33.0218049,16.5251707 32.8886341,16.6159024 L31.5847317,17.5012683 C31.4837561,17.5700488 31.3666829,17.6241951 31.2452195,17.6315122 C30.1579024,17.6915122 29.076439,16.2676098 28.5071707,15.6690732 C28.3476585,15.5022439 28.1222927,15.4217561 27.8910732,15.449561 C26.454,15.629561 24.9583902,15.5856585 23.5198537,15.5446829 C24.5720488,16.1139512 25.158878,15.6398049 25.5130244,17.0080976 C21.9847317,16.6598049 15.3159512,18.7217561 12.4827805,21.1963902 L12.6144878,21.9280976 C11.6735122,22.8251707 10.8159512,24.9632195 13.1471707,23.7222439 L13.5466829,22.9246829 L13.6798537,22.5266341 L18.0525366,22.5266341 C18.1505854,22.5266341 18.2530244,22.5456585 18.3422927,22.5807805 C24.8500976,25.1505366 18.3232683,30.414439 24.1183902,33.629561 C24.7052195,33.336878 27.5120488,36.4510244 28.3871707,37.4154146 C28.5086341,37.5500488 28.5437561,37.7227317 28.5496098,37.9041951 C28.6096098,40.2617561 35.5520488,40.0451707 37.1193659,42.7276098 C37.2393659,42.9339512 37.4237561,43.0934634 37.6593659,43.1315122 L39.7432683,43.4710244 L38.4496098,43.0393171 C38.1496098,42.9398049 37.9476585,42.6573659 37.9476585,42.3412683 L37.9476585,41.4163902 C37.9476585,41.0637073 37.698878,40.7622439 37.3535122,40.6934634 L35.1496098,40.2617561 C34.8057073,40.1959024 34.5569268,39.8929756 34.5569268,39.5402927 L34.5569268,38.2173659 C34.4866829,37.6817561 33.7271707,38.2524878 33.8252195,38.3505366 L32.8271707,38.9490732 C31.4061951,36.6559024 31.1061951,34.889561 33.8822927,34.0407805 C34.0549756,33.9880976 34.2481463,34.0041951 34.4105854,34.0802927 L37.4471707,35.4880976 C37.9900976,35.7398049 38.5900976,35.2729756 38.478878,34.6846829 L38.3632683,34.0729756 C38.3076585,33.7802927 38.4247317,33.4656585 38.6837561,33.3178537 C39.5047317,32.8510244 40.1471707,33.3807805 40.1413171,32.034439 C40.1574146,31.9378537 40.2071707,31.8588293 40.2510732,31.7754146 C39.6861951,31.2427317 41.436439,28.0905366 40.9505854,27.4846829 C40.6271707,27.0822439 43.9169268,25.7212683 44.1027805,24.3090732 C44.1730244,23.772 43.6579024,22.9466341 43.0886341,22.8149268 C38.7100976,21.8007805 43.0374146,18.5841951 43.0886341,18.2110244 C43.2583902,16.9729756 40.5174146,15.4817561 38.4071707,15.7905366 C35.9032683,16.1563902 36.918878,21.4949268 35.1452195,21.7246829" id="Fill-3" fill="#78C500"></path>
                <path d="M58.9829268,39.3507805 C58.9829268,55.4351707 45.942439,68.4756585 29.8565854,68.4756585 C13.7707317,68.4756585 0.731707317,55.4351707 0.731707317,39.3507805 C0.731707317,23.2649268 13.7707317,10.224439 29.8565854,10.224439 C45.942439,10.224439 58.9829268,23.2649268 58.9829268,39.3507805 Z" id="Stroke-5" stroke="#000000"></path>
                <path d="M55.0557073,42.6777073 C55.0557073,42.6777073 51.1000976,40.4972195 51.9898537,38.501122 C52.8810732,36.503561 50.6405854,33.7581951 51.8581463,33.2020976 C53.0771707,32.646 53.7181463,30.8650244 53.9683902,31.4957561 C56.1444878,36.9733171 55.0557073,42.6777073 55.0557073,42.6777073" id="Fill-7" fill="#78C500"></path>
                <path d="M21.8752683,63.2312195 C21.2269756,62.88 22.5762439,59.3312195 23.0299024,59.1614634 C23.4820976,58.9931707 23.0269756,60.3336585 23.3299024,60.4697561 C23.3299024,60.4697561 22.4328293,63.5326829 21.8752683,63.2312195" id="Fill-9" fill="#78C500"></path>
                <path d="M23.7873659,59.5312683 C23.5122439,59.5400488 23.5151707,58.5376098 23.1098049,58.6605366 C22.704439,58.782 22.9298049,57.4649268 22.9298049,57.4649268 C22.9298049,57.4649268 23.6907805,57.3946829 24.2000488,57.2776098 C24.7107805,57.162 24.7912683,57.5863902 24.4400488,57.8380976 C24.0888293,58.0898049 24.2410244,59.5180976 23.7873659,59.5312683" id="Fill-11" fill="#78C500"></path>
                <path d="M19.3549756,60.3402439 C19.8174146,59.867561 19.7427805,58.4173171 20.3618049,57.9095122 C20.9808293,57.4031707 19.5554634,53.6890244 18.1754634,52.8958537 C16.7969268,52.1026829 17.4013171,50.9539024 16.9271707,51.0607317 C16.451561,51.167561 16.6871707,53.694878 16.1983902,53.5221951 C15.7081463,53.3480488 14.2271707,52.5212195 14.8930244,51.4368293 C15.558878,50.352439 12.4154634,52.1334146 12.4154634,52.1334146 C12.4154634,52.1334146 9.50912195,53.4343902 8.32960976,54.107561 C8.32960976,54.107561 10.6447317,56.9114634 11.9632683,57.834878 C12.7535122,58.3895122 13.2993659,57.3314634 13.8700976,58.2417073 C14.4422927,59.1519512 14.8549756,60.0139024 16.1193659,60.4104878 C17.3822927,60.8056098 18.7944878,60.9139024 19.3549756,60.3402439" id="Fill-13" fill="#78C500"></path>
                <path d="M18.534,62.946878 C18.9086341,63.0522439 19.709122,62.1361463 19.4998537,61.722 C19.2905854,61.3078537 18.9027805,61.6107805 18.3700976,61.499561 C17.8374146,61.386878 18.1827805,62.8488293 18.534,62.946878" id="Fill-15" fill="#78C500"></path>
                <path d="M9.45834146,39.8552195 C9.05297561,39.8376585 8.08273171,35.879122 9.26956098,34.9469268 C10.4549268,34.0147317 8.68273171,34.2942439 8.232,35.1796098 C7.78126829,36.0635122 7.08321951,35.7810732 6.67346341,36.4132683 C6.26370732,37.0454634 5.25541463,38.664 6.01346341,39.0342439 C6.7715122,39.4044878 7.71980488,40.8474146 7.10078049,42.4937561 C6.4817561,44.1400976 5.93736585,43.368878 5.89639024,44.6683902 C5.85687805,45.9679024 2.28907317,42.1630244 3.65590244,35.4810732 C4.57931707,30.966439 6.14809756,28.541561 6.14809756,28.541561 C6.14809756,28.541561 9.10858537,30.4922927 10.7754146,29.1532683 C12.4422439,27.8142439 13.0832195,31.421561 13.0832195,31.421561 C13.0832195,31.421561 12.2007805,32.346439 11.6080976,33.4410732 C11.0388293,34.4918049 9.92517073,35.6947317 9.54907317,36.359122 C9.1715122,37.0235122 9.89297561,36.8610732 10.0056585,37.0308293 C10.4066341,37.6454634 9.97639024,39.8771707 9.45834146,39.8552195" id="Fill-17" fill="#78C500"></path>
                <path d="M6.36790244,45.9946829 C6.56107317,45.4093171 7.5737561,45.3010244 7.43180488,43.9722439 C7.28985366,42.642 8.19570732,44.0015122 8.10204878,44.3234634 C8.00839024,44.6454146 8.22936585,45.7122439 7.99814634,45.942 C7.76839024,46.1717561 7.3044878,46.0634634 7.1537561,46.5273659 C7.00156098,46.9912683 6.65180488,47.6937073 6.57570732,47.3307805 C6.50107317,46.9693171 6.27717073,46.2683415 6.36790244,45.9946829" id="Fill-19" fill="#78C500"></path>
                <path d="M7.82839024,43.3337561 C7.98936585,43.4376585 8.28643902,43.0220488 8.32741463,42.8347317 C8.36985366,42.6459512 7.69082927,42.5098537 7.68058537,42.1879024 C7.67034146,41.8659512 7.34107317,41.8366829 7.44204878,42.179122 C7.5444878,42.5200976 7.63229268,43.2079024 7.82839024,43.3337561" id="Fill-21" fill="#78C500"></path>
                <path d="M30.1219024,6.80341463 L30.1219024,0.731707317" id="Stroke-23" stroke="#78C500" stroke-linecap="round" stroke-linejoin="round"></path>
                <path d="M50.4324878,13.578 L54.7261463,9.28434146" id="Stroke-25" stroke="#78C500" stroke-linecap="round" stroke-linejoin="round"></path>
                <path d="M8.43087805,13.578 L4.13721951,9.28434146" id="Stroke-27" stroke="#78C500" stroke-linecap="round" stroke-linejoin="round"></path>
                <path d="M18.1852683,8.48326829 L15.9491707,2.83887805" id="Stroke-29" stroke="#78C500" stroke-linecap="round" stroke-linejoin="round"></path>
                <path d="M41.1504878,8.48326829 L43.3865854,2.83887805" id="Stroke-31" stroke="#78C500" stroke-linecap="round" stroke-linejoin="round"></path>
            </g>
        </g>
    </g>
</svg>