<?xml version="1.0" encoding="UTF-8"?>
<svg width="46px" height="45px" viewBox="0 0 46 45" version="1.1" xmlns="http://www.w3.org/2000/svg" xmlns:xlink="http://www.w3.org/1999/xlink">
    <!-- Generator: Sketch 45.1 (43504) - http://www.bohemiancoding.com/sketch -->
    <title>Page 1</title>
    <desc>Created with Sketch.</desc>
    <defs></defs>
    <g id="Hurom-About-Page-v2" stroke="none" stroke-width="1" fill="none" fill-rule="evenodd">
        <g id="Desktop---Hurom-About-Page---Annotations" transform="translate(-215.000000, -4454.000000)">
            <g id="Page-1" transform="translate(215.000000, 4454.000000)">
                <path d="M32.874,17.4986 C31.999,16.2426 30.544,15.4216 28.897,15.4216" id="Stroke-1" stroke="#78C500" stroke-linecap="round" stroke-linejoin="round"></path>
                <path d="M33.9668,15.293 C36.7668,18.093 36.7668,22.631 33.9668,25.431 C31.1668,28.23 26.6288,28.23 23.8288,25.431 C21.0288,22.631 21.0288,18.093 23.8288,15.293 C26.6288,12.494 31.1668,12.494 33.9668,15.293 Z" id="Stroke-3" stroke="#000000"></path>
                <path d="M44.3965,35.8609 L44.3965,35.8609 C44.0165,36.2419 43.3935,36.2419 43.0135,35.8609 L36.8395,29.6869 C36.4595,29.3069 36.4595,28.6839 36.8395,28.3039 C37.2195,27.9239 37.8425,27.9239 38.2235,28.3039 L44.3965,34.4769 C44.7775,34.8579 44.7775,35.4799 44.3965,35.8609 Z" id="Stroke-5" stroke="#000000"></path>
                <path d="M33.9668,25.4312 L36.8398,28.3042" id="Stroke-7" stroke="#000000"></path>
                <polyline id="Stroke-9" stroke="#000000" stroke-linecap="round" stroke-linejoin="round" points="34.5771 32.9185 34.5771 44.0435 0.5001 44.0435 0.5001 0.5005 34.5771 0.5005 34.5771 9.8145"></polyline>
                <path d="M6.2021,6.9654 L28.8971,6.9654" id="Stroke-11" stroke="#78C500" stroke-linecap="round" stroke-linejoin="round"></path>
                <path d="M6.2021,32.0826 L24.0771,32.0826" id="Stroke-13" stroke="#78C500" stroke-linecap="round" stroke-linejoin="round"></path>
                <path d="M6.2021,36.9185 L29.4521,36.9185" id="Stroke-15" stroke="#78C500" stroke-linecap="round" stroke-linejoin="round"></path>
                <path d="M6.2021,11.814 L20.4521,11.814" id="Stroke-17" stroke="#78C500" stroke-linecap="round" stroke-linejoin="round"></path>
                <path d="M6.2021,26.8677 L20.4521,26.8677" id="Stroke-19" stroke="#78C500" stroke-linecap="round" stroke-linejoin="round"></path>
                <path d="M6.2021,16.46 L17.4521,16.46" id="Stroke-21" stroke="#78C500" stroke-linecap="round" stroke-linejoin="round"></path>
                <path d="M6.2021,21.1055 L17.4521,21.1055" id="Stroke-23" stroke="#78C500" stroke-linecap="round" stroke-linejoin="round"></path>
            </g>
        </g>
    </g>
</svg>