<svg xmlns="http://www.w3.org/2000/svg" viewBox="0 0 15.1 20.2" width="15px" height="20px">
  <path fill="#FFF" stroke="#000" stroke-width="1.2" d="M14.5 7.4c0 .9-.2 1.8-.5 2.6-1.1 2.5-6.4 9.2-6.4 9.2S2.2 12.5 1.2 10C.8 9.3.6 8.4.6 7.4.6 3.7 3.7.6 7.6.6c3.8 0 6.9 3.1 6.9 6.8z"/>
  <path fill="#76C500" d="M12.4 7.7c0 .6-.1 1.3-.4 1.8-.7 1.7-4.4 6.3-4.4 6.3s-3.7-4.6-4.4-6.3c-.3-.6-.4-1.2-.4-1.8C2.8 5.1 4.9 3 7.6 3s4.8 2.1 4.8 4.7"/>
  <path fill="#FFF" d="M7.6 5.7c-1 0-1.8.7-1.8 1.7s.8 1.7 1.8 1.7 1.7-.8 1.7-1.7-.8-1.7-1.7-1.7"/>
</svg>
