<?xml version="1.0" encoding="UTF-8"?>
<svg width="130px" height="49px" viewBox="0 0 130 49" version="1.1" xmlns="http://www.w3.org/2000/svg" xmlns:xlink="http://www.w3.org/1999/xlink">
    <!-- Generator: Sketch 46.2 (44496) - http://www.bohemiancoding.com/sketch -->
    <title>Group 2 Copy 7</title>
    <desc>Created with Sketch.</desc>
    <defs>
        <path d="M36.0269988,47 C31.6291352,47 28.1042197,44.2491321 28.0021798,40.7374773 C27.8990715,37.1559762 31.4667262,34.1353943 35.9548764,34.0042982 C36.0489027,34.0016118 36.1434632,34 36.2374894,34 C36.4447745,34 36.6509912,34.0064473 36.8550708,34.0182675 C36.8630844,34.0188048 36.8994128,34.0188048 36.9090291,34.0182675 C38.9295248,34.0574888 40.8490491,34.4357332 42.616315,35.1433295 C45.1422017,36.1534138 46.019958,38.5899735 45.9996569,40.5333113 C45.9793558,42.4659035 45.058326,44.8680774 42.5345763,45.8163746 C40.973527,46.4025459 39.2057268,46.7759547 37.2808601,46.9263928 C37.2797916,46.9263928 37.2434633,46.9274673 37.2269019,46.9290792 C36.9282617,46.9650769 36.6264161,46.9871053 36.3293787,46.9957018 C36.2284073,46.9989254 36.1279702,47 36.0275331,47 L36.0269988,47 Z" id="path-1"></path>
    </defs>
    <g id="Desktop-+-Mobile" stroke="none" stroke-width="1" fill="none" fill-rule="evenodd">
        <g id="New-Juicer-Page-Final" transform="translate(-768.000000, -2984.000000)">
            <g id="Group-2-Copy-7" transform="translate(769.000000, 2984.000000)">
                <g id="Page-1">
                    <path d="M81.9873196,30 C81.3422066,30 80.7080898,29.9008184 80.1032964,29.7055874 C78.042286,29.0395048 76.4478306,27.3095695 75.612116,24.8331624 C74.7491726,22.273234 74.7999648,19.2445422 75.7561144,16.3051138 C75.882833,15.9146517 76.0315442,15.5137493 76.1980587,15.112325 C76.209055,15.0867466 76.2184803,15.0596022 76.2263348,15.0324577 C79.2209787,7.06400194 84.6850649,3.57437685 87.6797088,2.20201719 C87.9724184,2.06786107 88.2824078,2 88.6023461,2 C89.3621342,2 90.0674648,2.38211003 90.4879402,3.02157013 C92.0944392,5.46195865 94.4073159,10.9216428 91.8766088,20.0896736 C91.8666598,20.115774 91.8588054,20.1434404 91.8525218,20.1711068 C91.7514611,20.5928895 91.6367859,21.004232 91.5095437,21.3936501 C89.8883831,26.3803949 85.8836556,30 81.9878432,30 L81.9873196,30 Z" id="Fill-1" fill="#C3996B"></path>
                    <path d="M89.6978878,1 C89.2682359,1 88.8332334,1.08951429 88.4201683,1.2770176 C85.2355006,2.7267254 79.4360025,6.40475644 76.2802281,14.7947351 L76.2823683,14.7952647 C76.1095444,15.2068186 75.9506321,15.6294956 75.8083065,16.0638253 C73.6798442,22.5649994 75.8998015,29.1011317 80.7666928,30.6620703 C81.4777854,30.8903582 82.206535,31 82.9384949,31 C87.2152167,31 91.615002,27.2695316 93.4320604,21.7180565 C93.574921,21.2837268 93.6963792,20.8493971 93.8001806,20.415597 L93.8023208,20.4161267 C96.4647714,10.8931831 94.1137248,5.13725525 92.2961314,2.39515175 C91.7054269,1.50318685 90.716639,1 89.6978878,1 M89.6978878,2.58901111 L89.6978878,2.58901111 C90.2029829,2.58901111 90.6727642,2.84272321 90.95474,3.26698918 C92.5192507,5.62825968 94.7681012,10.9260227 92.2774043,19.9113508 C92.2629578,19.9563728 92.2495813,20.0019245 92.2383451,20.0485355 C92.1404294,20.454263 92.0286022,20.8515157 91.9055387,21.2281114 C90.3538694,25.9697205 86.5822426,29.4109889 82.9384949,29.4109889 C82.3638422,29.4109889 81.7993555,29.3235933 81.2610868,29.1503911 C77.2449384,27.8617031 75.482991,22.2111796 77.3353632,16.5543 C77.4589617,16.1755857 77.6034275,15.7889264 77.7644801,15.4049153 C77.7832071,15.360423 77.800329,15.315401 77.8142405,15.2693197 C80.7757888,7.46992355 86.14617,4.06043539 89.0911315,2.72089903 C89.2837525,2.63350342 89.4881449,2.58901111 89.6978878,2.58901111" id="Fill-3" fill="#FEFEFE"></path>
                    <path d="M93.8001806,20.415943 L93.8023208,20.4164726 C96.4647714,10.8929728 94.1137248,5.13702875 92.2961314,2.39544724 C91.4560897,1.12741283 89.8123903,0.644352101 88.4207033,1.27730996 C85.2355006,2.72702182 79.4354675,6.40506316 76.2802281,14.7950653 L76.2823683,14.795595 C76.1095444,15.20715 75.9506321,15.6298281 75.8083065,16.064159 C73.6798442,22.5653513 75.8998015,29.1009723 80.7666928,30.6624449 C85.6335841,32.2239176 91.3041331,28.2195984 93.4325954,21.7184061 C93.574921,21.2840751 93.6963792,20.8492145 93.8001806,20.415943 Z" id="Stroke-5" stroke="#231F20" stroke-width="1.25" stroke-linecap="round" stroke-linejoin="round"></path>
                    <path d="M113.34499,35 C113.051576,35 112.751973,34.9959021 112.447214,34.987194 C112.418337,34.9846328 112.356457,34.9830961 112.354394,34.9830961 L112.25848,34.9836084 C111.91814,34.9836084 111.581925,34.9713146 111.259117,34.9472394 C108.602401,34.7525886 106.171031,33.8157038 104.413122,32.3102338 C102.731532,30.8698182 101.87965,29.0815923 102.013723,27.2754381 C102.275682,23.7563573 106.34842,21 111.285932,21 C111.619053,21 111.958877,21.0122937 112.294061,21.0368812 C112.646261,21.0624931 113.011869,21.1044967 113.38315,21.1613552 C113.414605,21.1659654 113.44503,21.1695511 113.476485,21.1710878 C120.800504,22.0429183 124.85674,25.8826607 126.625478,28.0975815 C127.161772,28.7701511 127.11794,29.7198419 126.520798,30.3565548 C124.892837,32.0904833 121.015537,35 113.34499,35" id="Fill-7" stroke="#FFFFFF" fill="#8E572B"></path>
                    <path d="M112.34617,35.9826983 L112.345651,35.9847741 C120.942966,36.2458058 125.328895,33.0921485 127.275888,31.0064897 C128.176139,30.0422811 128.248346,28.5679451 127.428614,27.5347162 C125.55175,25.1703814 121.25517,21.0800199 113.516029,20.1723769 L113.515509,20.1744527 C113.132656,20.1152925 112.743049,20.0691059 112.34617,20.0400448 C106.413763,19.6020512 101.341088,22.8070845 101.016416,27.1989558 C100.691224,31.590827 105.236633,35.5063025 111.16904,35.944296 C111.565919,35.9733572 111.958122,35.985293 112.34617,35.9826983 Z" id="Stroke-11" stroke="#231F20" stroke-width="1.25" stroke-linecap="round" stroke-linejoin="round"></path>
                    <path d="M54.7435278,31 C52.0889242,31 49.2738343,30.0333987 46.8176025,28.2768418 C46.4808441,28.0366244 46.1446118,27.7750428 45.8189033,27.4999132 C45.7925941,27.4780278 45.7657586,27.4577058 45.7378708,27.4384258 C39.0590041,22.1932458 37.4062569,15.9908439 37.0153014,12.7554651 C36.8900694,11.7221657 37.5446435,10.7685914 38.5717567,10.4882509 C39.7572516,10.1646609 41.0385122,10 42.3818626,10 C46.4519039,10 50.7850377,11.4725689 55.2607677,14.3775837 C55.2865507,14.3968636 55.3139124,14.4151014 55.3423264,14.432297 C55.7111821,14.6537555 56.0679355,14.8866777 56.4010107,15.1253319 C61.4855367,18.7588149 63.4729376,24.665244 60.8304363,28.291432 C59.5575947,30.0380884 57.3955004,31 54.744054,31 L54.7435278,31 Z" id="Fill-13" fill="#8E572B"></path>
                    <path d="M42.3411663,9 C40.67513,9 39.3039721,9.23944659 38.2615745,9.52457706 C36.8004178,9.92417981 35.8416661,11.3125499 36.0216636,12.8048903 C36.4340698,16.221205 38.1731639,22.7566266 45.1973041,28.2554964 L45.1983629,28.253396 C45.5377112,28.5401018 45.8913535,28.8168307 46.2614073,29.0820073 C48.9825469,31.0296112 52.0308586,32 54.777939,32 C57.6234887,32 60.1471604,30.9602977 61.6533165,28.8892948 C64.6158646,24.8176526 62.5273634,18.3032351 56.9887326,14.3387137 C56.6186788,14.0735371 56.2417427,13.8277893 55.8611008,13.5993699 L55.8621596,13.5972695 C50.3319992,9.98981758 45.7272381,9 42.3411663,9 M42.3411663,10.8378576 C46.2460546,10.8378576 50.4262332,12.2666606 54.7684097,15.0833086 C54.8112915,15.1142896 54.8552321,15.1431702 54.9007609,15.1710007 C55.2512267,15.3815666 55.5889868,15.6026346 55.904512,15.8289537 C58.2635388,17.5176822 59.9814567,19.7551426 60.7437994,22.1307048 C61.442084,24.3098788 61.2319104,26.3283715 60.1513956,27.8133604 C59.0497047,29.3282802 57.1412011,30.1621424 54.777939,30.1621424 C52.3008549,30.1621424 49.6612436,29.2495149 47.3461573,27.5917673 C47.029044,27.3654483 46.7114012,27.117075 46.4001113,26.8545239 C46.3598766,26.8203922 46.3175242,26.7878359 46.2746424,26.7568549 C39.8317885,21.6791169 38.2377513,15.7034543 37.8613446,12.5864478 C37.7904044,11.9999087 38.1657523,11.4574781 38.7539208,11.2962718 C39.8661998,10.9922376 41.0727129,10.8378576 42.3411663,10.8378576" id="Fill-15" fill="#FEFEFE"></path>
                    <path d="M55.8608951,13.5991174 L55.8619539,13.597017 C47.61021,8.21415676 41.4215344,8.66049674 38.2615511,9.5242959 C36.8004095,9.92390146 35.8416677,11.3128065 36.0216634,12.8046323 C36.4340653,16.220971 38.1731414,22.7564387 45.1966794,28.2553473 L45.1982676,28.2532469 C45.5376124,28.5399547 45.8912511,28.8166855 46.261301,29.081864 C51.7998745,33.0469384 58.6915922,32.9602959 61.6535802,28.8891501 C64.6155682,24.8174792 62.5276181,18.3030158 56.9885152,14.3384665 C56.6184652,14.073288 56.2415331,13.8280636 55.8608951,13.5991174 Z" id="Stroke-17" stroke="#231F20" stroke-width="1.5" stroke-linecap="round" stroke-linejoin="round"></path>
                    <path d="M68.999743,31 C64.5886265,31 61,25.9071377 61,19.6463949 C61,19.2345109 61.0169639,18.808442 61.0503775,18.379221 C61.0529478,18.3476993 61.0539759,18.3156522 61.0534618,18.2846558 C61.4292369,9.77851449 65.4471004,4.7786413 67.8122731,2.55268116 C68.1911325,2.19596014 68.6846265,2 69.2017671,2 C69.676241,2 70.1435181,2.16811594 70.5162088,2.47440217 C72.739502,4.29951087 76.5260402,8.77612319 76.9465382,18.2783514 C76.94551,18.3125 76.9465382,18.3461232 76.9491084,18.3802717 C76.9830361,18.8068659 77,19.2329348 77,19.6463949 C77,25.9071377 73.4113735,31 68.999743,31" id="Fill-19" fill="#C3996B"></path>
                    <path d="M69.2037775,2 C68.4765205,2 67.7523826,2.26669506 67.1821175,2.80008518 C64.6775256,5.14383305 60.4299082,10.3969336 60.0525039,19.3151107 L60.0540634,19.3151107 C60.0192341,19.7581942 60,20.207615 60,20.662845 C60,27.4765077 64.0292844,33 68.9994802,33 C73.9707156,33 78,27.4765077 78,20.662845 C78,20.207615 77.9802461,19.7581942 77.9454167,19.3151107 L77.9474961,19.3151107 C77.5269451,9.47221465 73.6120256,4.72821124 71.1027552,2.68073254 C70.5465257,2.22708688 69.873852,2 69.2037775,2 M69.2037775,3.8483816 C69.397678,3.8483816 69.6867094,3.89591141 69.9637844,4.12194208 C72.0904523,5.85730835 75.7111419,10.1339353 76.1259747,19.3050767 C76.1254549,19.3573595 76.1275342,19.4106985 76.1316929,19.4629813 C76.1639231,19.8712095 76.180558,20.2746848 76.180558,20.662845 C76.180558,26.446167 72.9596257,31.1516184 68.9994802,31.1516184 C65.0403743,31.1516184 61.819442,26.446167 61.819442,20.662845 C61.819442,20.2746848 61.8355571,19.8712095 61.8683071,19.4629813 C61.8719459,19.4106985 61.8740253,19.3578876 61.8735055,19.3061329 C62.2477907,11.1045997 66.1294403,6.29827939 68.4146595,4.15943782 C68.6298735,3.95875639 68.9095477,3.8483816 69.2037775,3.8483816" id="Fill-21" fill="#FEFEFE"></path>
                    <path d="M69.7056358,0 C68.5876057,0 67.5203952,0.420780273 66.7004715,1.18443818 C64.0175137,3.68368222 59.456852,9.29002291 59.053963,18.7591689 C59.0534391,18.7697679 59.0534391,18.7803669 59.0529152,18.7909659 C59.017813,19.2589117 59,19.7236779 59,20.1736054 C59,27.7974656 63.7105007,34 69.499738,34 C75.2894993,34 80,27.7974656 80,20.1736054 C80,19.7236779 79.982187,19.2589117 79.9476087,18.790436 C79.9470848,18.7803669 79.9465609,18.769238 79.9465609,18.758639 C79.7516653,14.2238571 78.5272809,5.88615428 72.5148567,1.00213539 C71.7200808,0.355596428 70.7220268,0 69.7056358,0 M69.7056358,1.44623346 C70.3809595,1.44623346 71.0589028,1.67358199 71.6194896,2.12933897 C74.148417,4.18395499 78.0940049,8.94449553 78.5178505,18.821703 L78.5157548,18.821703 C78.550857,19.2658011 78.5707657,19.7167885 78.5707657,20.1736054 C78.5707657,27.0115498 74.5099169,32.5542965 69.499738,32.5542965 C64.490607,32.5542965 60.4297583,27.0115498 60.4297583,20.1736054 C60.4297583,19.7167885 60.449143,19.2658011 60.4842452,18.821703 L60.4826735,18.821703 C60.8630342,9.87243793 65.1439264,4.60102561 67.6681386,2.24857771 C68.242871,1.71332824 68.9726817,1.44623346 69.7056358,1.44623346" id="Fill-23" fill="#FEFEFE"></path>
                    <path d="M77.9454152,19.31516 L77.9480144,19.31516 C77.5269314,9.47229927 73.6124188,4.72831293 71.1030758,2.68084159 C69.9427581,1.7339455 68.2771408,1.77566597 67.1828448,2.8001938 C64.6771408,5.14393324 60.4299206,10.3970149 60.0519856,19.31516 L60.054065,19.31516 C60.0192347,19.7582418 60,20.2071329 60,20.6628893 C60,27.4765275 64.0288809,33 68.9997401,33 C73.9705993,33 78,27.4765275 78,20.6628893 C78,20.2071329 77.9807653,19.7582418 77.9454152,19.31516 Z" id="Stroke-25" stroke="#231F20" stroke-width="1.25" stroke-linecap="round" stroke-linejoin="round"></path>
                    <path d="M8.86606309,35 C5.04364422,35 1.95876832,33.1304181 1.18998222,30.347979 C0.152300236,26.5894927 3.47021922,22.3369773 8.58538701,20.8674233 C8.92547627,20.7702886 9.27785791,20.6851652 9.6317761,20.614142 C9.65994614,20.6083975 9.687604,20.6021307 9.71372532,20.5932528 C11.3701239,20.1994917 13.0208885,20 14.6224835,20 C18.9975474,20 22.2171273,21.4450092 24.1480558,22.6571041 C24.9101835,23.1359886 25.2057129,24.1021133 24.8507704,24.9538697 C23.882233,27.2746579 21.1123494,31.5506737 13.4465122,34.1357101 C13.4219275,34.1419768 13.3978549,34.1498103 13.3737823,34.1592104 C13.0326687,34.2876789 12.688482,34.4020471 12.3499292,34.4997041 C11.1934209,34.8318421 10.0210349,35 8.86657527,35 L8.86606309,35 Z" id="Fill-27" fill="#C3996B"></path>
                    <path d="M14.6525822,20 C13.0504385,20 11.3027876,20.188091 9.42006016,20.6435821 L9.42058169,20.6457256 C9.04612232,20.7212836 8.67009837,20.8123818 8.29407441,20.9211638 C2.65997342,22.5512861 -0.953715901,27.3500189 0.221815305,31.6402093 C1.13136563,34.9583281 4.64074872,37 8.79057206,37 C10.0057396,37 11.2751464,36.8247699 12.5513332,36.45609 C12.9278787,36.3467722 13.2945151,36.2224499 13.6522854,36.0868743 L13.652807,36.087946 C21.6916881,33.3705397 24.6878845,28.8568907 25.7877937,26.2016454 C26.295765,24.9734271 25.867588,23.5464002 24.7619419,22.8465515 C22.8693054,21.6488778 19.4011233,20.0005359 14.6525822,20 M14.6525822,21.6076157 C18.9239223,21.6081516 22.0614536,23.0255327 23.9415734,24.2151683 C24.385918,24.4970369 24.5564587,25.0672046 24.3478462,25.571996 C23.4143054,27.826409 20.7310277,31.9815597 13.2371466,34.5365969 C13.1938595,34.5483861 13.151094,34.5628546 13.10885,34.5789308 C12.7787207,34.7043248 12.4485915,34.8152503 12.1268068,34.908492 C11.0175101,35.2294793 9.8946535,35.3923843 8.79057206,35.3923843 C5.25302629,35.3923843 2.41433225,33.7092107 1.72799726,31.2040096 C0.788198132,27.7744295 3.92364339,23.8555983 8.7175577,22.4682259 C9.03986395,22.3755201 9.37833766,22.29246 9.72254822,22.2227966 C9.76687837,22.2142227 9.81068699,22.2029694 9.85397407,22.1906443 C11.4743713,21.8037448 13.0885102,21.6076157 14.6525822,21.6076157" id="Fill-29" fill="#FEFEFE"></path>
                    <path d="M13.4918316,36.1749027 L13.4923514,36.1770605 C21.5538474,33.6011752 24.6232351,29.1177861 25.767823,26.4663774 C26.2974938,25.2407415 25.8972519,23.7955485 24.808282,23.0694455 C22.316906,21.4073926 17.0321533,18.8773608 9.56166391,20.5475055 L9.5621837,20.5496633 C9.18793152,20.6187132 8.81160016,20.7023283 8.43422921,20.8048243 C2.78977859,22.3336324 -0.900243968,27.0921423 0.191324897,31.4331159 C1.28341356,35.7740895 6.74385685,38.053276 12.3877877,36.5244678 C12.7651586,36.4225113 13.1331733,36.3049107 13.4918316,36.1749027 Z" id="Stroke-31" stroke="#231F20" stroke-width="1.25" stroke-linecap="round" stroke-linejoin="round"></path>
                    <g id="Fill-33">
                        <use fill="#C3996B" fill-rule="evenodd" xlink:href="#path-1"></use>
                        <path stroke="#FFFFFF" stroke-width="0.5" d="M36.0269988,46.75 L36.0275331,46.75 C36.1354755,46.75 36.2305201,46.7487306 36.3221465,46.7458064 C36.6147945,46.737337 36.9089604,46.7155938 37.2026851,46.6802549 C37.2517904,46.677023 37.2517904,46.677023 37.2613808,46.6771528 C39.1639198,46.5284598 40.9087133,46.1598394 42.4466417,45.58235 C44.5777497,44.7815876 45.7261541,42.7693811 45.7496705,40.5306998 C45.7731984,38.2784773 44.6572265,36.2287239 42.5233892,35.3754174 C40.7848767,34.6793337 38.8952372,34.3068704 36.9229752,34.2678782 C36.8817116,34.268963 36.8817116,34.268963 36.8406153,34.2678492 C36.6365962,34.2560326 36.4355175,34.25 36.2374894,34.25 C36.1501217,34.25 36.0588097,34.2514308 35.9621757,34.2541917 C31.6011873,34.3815734 28.1533418,37.3007084 28.2520744,40.730216 C28.3497986,44.0933525 31.7540196,46.75 36.0269988,46.75 Z"></path>
                    </g>
                    <path d="M36.1967892,33.75 C36.0909584,33.75 35.9851276,33.7516251 35.8787308,33.7543337 C30.8594073,33.8940953 26.8853753,37.1389491 27.0025249,41.0024377 C27.1174108,44.7797941 31.1004978,47.75 35.9692812,47.75 C36.0802055,47.75 36.1911298,47.7483749 36.3031859,47.7451246 C36.6387885,47.7353738 36.9692975,47.7115385 37.2941472,47.6752438 L37.2941472,47.6768689 C39.5618695,47.5111051 41.4532416,47.0896533 43.0254235,46.5278982 C48.2711231,44.6524919 48.3458272,36.9222644 43.1216333,34.934182 C41.3808013,34.2711268 39.3049327,33.8079632 36.8725218,33.7673348 L36.8725218,33.7689599 C36.6495413,33.7565005 36.4242971,33.75 36.1967892,33.75 M36.2029698,34.75 C36.4046215,34.75 36.6124519,34.7558539 36.8202824,34.7675618 C36.8376952,34.7686261 36.8556697,34.7691583 36.8730825,34.7691583 C36.8871251,34.7691583 36.900606,34.7686261 36.9146486,34.7680939 C38.9766637,34.8085392 40.9347635,35.1725465 42.7339012,35.8510688 C45.1722579,36.7696018 46.0198691,38.9988802 45.9996478,40.7784713 C45.9799881,42.5468868 45.0913725,44.7437026 42.6569478,45.6052929 C41.0617086,46.1693978 39.2535837,46.5296798 37.2803179,46.6770921 C37.2483007,46.6776243 37.2168453,46.6792208 37.1853899,46.6824139 C36.8792613,46.7170052 36.5748178,46.7382922 36.28217,46.7457426 C36.1799399,46.7484035 36.0782715,46.75 35.9771648,46.75 C31.6042998,46.75 28.1020759,44.2125926 28.0020926,40.972715 C27.9543478,39.4075901 28.7250055,37.9020688 30.1713931,36.7328817 C31.6750745,35.5173954 33.7146214,34.8149253 35.9142539,34.7537252 C36.010867,34.7510643 36.1074801,34.75 36.2029698,34.75" id="Fill-35" fill="#FEFEFE"></path>
                    <path d="M37.2082048,47.9445451 L37.2082048,47.9466363 C39.4178676,47.81803 41.2774022,47.4259379 42.8378691,46.8822368 C48.2117106,45.011173 48.4456504,36.5472102 43.1676773,34.3441751 C41.4628868,33.6326585 39.4350614,33.1234615 37.0623181,33.0340645 L37.0623181,33.0356329 C36.734073,33.0100162 36.4006176,32.9969465 36.0635151,33.000606 C31.0173977,33.050271 26.9596627,36.448403 27.0003026,40.5904646 C27.0409425,44.7320034 31.1643264,48.0496258 36.2109649,47.999438 C36.5480674,47.9968241 36.8804807,47.9769581 37.2082048,47.9445451 Z" id="Stroke-37" stroke="#231F20" stroke-width="1.25" stroke-linecap="round" stroke-linejoin="round"></path>
                </g>
            </g>
        </g>
    </g>
</svg>