<?xml version="1.0" encoding="UTF-8"?>
<svg width="52px" height="59px" viewBox="0 0 52 59" version="1.1" xmlns="http://www.w3.org/2000/svg" xmlns:xlink="http://www.w3.org/1999/xlink">
    <!-- Generator: Sketch 46.2 (44496) - http://www.bohemiancoding.com/sketch -->
    <title>10 year</title>
    <desc>Created with Sketch.</desc>
    <defs>
        <path d="M1.7584,0.719452303 C0.5288,0.735305921 0.008,1.22752303 0.0064,2.41729934 C-0.000799999998,6.14893914 -0.0016,9.87982401 0.0032,13.6107089 C0.0056,14.8427615 0.5728,15.3379984 1.9464,15.3463026 C3.6752,15.3568717 4.2392,14.940148 4.256,13.5986299 C4.272,12.3159967 4.3064,11.0295888 4.24,9.74922039 C4.2056,9.07657401 4.5056,8.87953618 5.112,8.77762007 C7.3032,8.40845724 9.5128,8.33447368 11.7296,8.3790148 C13.1616,8.40845724 14.5896,8.44922368 16.0056,8.73609868 C16.6416,8.86519243 16.8,9.14829276 16.7864,9.71373849 C16.7552,11.0258141 16.7608,12.3393997 16.7768,13.6529852 C16.7936,14.9439227 17.3312,15.353097 18.9368,15.3463026 C20.432,15.3395082 20.976,14.8910773 20.9816,13.6303372 C20.9896,11.7497961 20.984,9.86925493 20.984,7.98871382 C20.984,6.1081727 20.992,4.22763158 20.9816,2.34784539 C20.9744,1.21242434 20.4576,0.736815789 19.2624,0.720207237 C18.9808,0.7171875 18.7,0.715677632 18.4192,0.720962171 C17.3384,0.740590461 16.8176,1.21242434 16.7832,2.24668421 C16.7568,3.02200164 16.7568,3.79807401 16.7776,4.57414638 C16.792,5.06409868 16.6432,5.27699013 16.0792,5.1947023 C12.3176,4.64586513 8.5544,4.74778125 4.8008,5.27019572 C4.3368,5.3336102 4.2688,5.21055592 4.2728,4.83988322 C4.2848,3.97472862 4.3056,3.10806414 4.268,2.24366447 C4.2248,1.22978783 3.6584,0.737570724 2.6008,0.720207237 C2.4608,0.718697368 2.32,0.7171875 2.18,0.7171875 C2.0392,0.7171875 1.8992,0.718697368 1.7584,0.719452303 L1.7584,0.719452303 Z" id="path-1"></path>
    </defs>
    <g id="Hurom-Our-Approach-Wireframes" stroke="none" stroke-width="1" fill="none" fill-rule="evenodd">
        <g id="Our-Approach---Final" transform="translate(-357.000000, -4190.000000)">
            <g id="10-year" transform="translate(357.000000, 4191.000000)">
                <g id="Group-9">
                    <path d="M25.9007273,0.463694737 C18.3394545,6.7773 10.0612121,11.7019579 0.545212121,13.5327737 C0.545212121,35.1889053 9.01884848,49.7102737 25.9007273,57.2869053 C42.7826061,49.7102737 51.2562424,35.1889053 51.2562424,13.5327737 C41.7402424,11.7019579 33.462,6.7773 25.9007273,0.463694737" id="Fill-1" fill="#FFFFFF"></path>
                    <path d="M25.9007273,0.463694737 C18.3394545,6.7773 10.0612121,11.7019579 0.545212121,13.5327737 C0.545212121,35.1889053 9.01884848,49.7102737 25.9007273,57.2869053 C42.7826061,49.7102737 51.2562424,35.1889053 51.2562424,13.5327737 C41.7402424,11.7019579 33.462,6.7773 25.9007273,0.463694737 L25.9007273,0.463694737 Z" id="Stroke-3" stroke="#000000"></path>
                    <g id="Group-8" transform="translate(1.575758, 8.536062)">
                        <path d="M49.0241818,15.5263824 C39.825697,13.7566192 31.8247879,8.99680341 24.5164242,2.89382973 C17.2080606,8.99680341 9.20715152,13.7566192 0.00866666667,15.5263824" id="Fill-5" fill="#FFFFFF"></path>
                        <path d="M49.0241818,13.3782342 C39.825697,11.6084711 31.8247879,6.84865526 24.5164242,0.745681579 C17.2080606,6.84865526 9.20715152,11.6084711 0.00866666667,13.3782342" id="Stroke-7" stroke="#000000"></path>
                    </g>
                </g>
                <g id="Group-12" transform="translate(16.000000, 25.000000)">
                    <mask id="mask-2" fill="white">
                        <use xlink:href="#path-1"></use>
                    </mask>
                    <g id="Clip-11"></g>
                    <polygon id="Fill-10" fill="#76C500" mask="url(#mask-2)" points="-4 19.1217286 24.9872 19.1217286 24.9872 -3.05748355 -4 -3.05748355"></polygon>
                </g>
            </g>
        </g>
    </g>
</svg>