<?xml version="1.0" encoding="utf-8"?>
<!-- Generator: Adobe Illustrator 19.2.1, SVG Export Plug-In . SVG Version: 6.00 Build 0)  -->
<svg version="1.1" xmlns="http://www.w3.org/2000/svg" xmlns:xlink="http://www.w3.org/1999/xlink" x="0px" y="0px"
	 viewBox="0 0 42 42" enable-background="new 0 0 42 42" xml:space="preserve">
<path d="M25.3,23.3c0,0.4-0.1,0.8-0.2,1.2C25.2,24.1,25.3,23.7,25.3,23.3z"/>
<path fill="#76C500" d="M13.6,19.7v6.6c0.2,0.3,0.5,0.6,0.7,0.9c2.7,2.2,6.6,1.9,8.9-0.6c2.8-3.1,0.4-9.4-0.1-10.6
	c-0.1-0.2-0.2-0.3-0.4-0.4c-0.4-0.2-0.8-0.3-1.3-0.3c-0.2,0-0.3,0-0.5,0l-2.3,11.2c0,0.2-0.2,0.3-0.4,0.3h-0.1
	c-0.2,0-0.4-0.2-0.3-0.5c0,0,0,0,0,0l2.2-10.8c-0.5,0.4-1,0.6-1.6,0.7c-1.1,0-1.2-1.1-2.3-1c-0.9,0.1-0.9,0.7-1.7,0.6
	c-0.4,0-0.7,0.2-0.9,0.5c-0.3,0.7-0.5,1.4-0.7,2.2C13.3,18.7,13.6,19.2,13.6,19.7z"/>
<path d="M28,1.9c-0.1-0.2-0.3-0.3-0.5-0.1c0,0,0,0,0,0c-0.1,0.1-3.7,2.2-4.8,3c-0.3,0.2-0.4,0.4-0.5,0.8l-0.9,4.2h-7.5
	c-0.7,0-1.2,0.5-1.2,1.2c0,0.1,0,0.2,0,0.3c0.1,0.4,0.1,0.8,0.1,1.2c-0.1,0.6-0.3,1.6-0.6,2.7c-0.2,1-0.5,2.1-0.7,3.2h0.8
	c0.2-1,0.4-2.1,0.6-3c0.3-1.1,0.5-2.1,0.6-2.8c0-0.3,0-0.5,0-0.8c0-0.3,0-0.5-0.1-0.8c-0.1-0.2,0.1-0.5,0.3-0.5c0,0,0.1,0,0.1,0h7.4
	l-1,5.1l-2.2,10.8c0,0.2,0.1,0.4,0.3,0.5c0,0,0,0,0,0h0.1c0.2,0,0.3-0.1,0.4-0.3L21,15.3l1-4.8h1.2c0.2,0,0.4,0.2,0.4,0.4
	c0,0,0,0.1,0,0.1c-0.1,0.5-0.2,1.1-0.1,1.6c0.1,0.6,0.3,1.6,0.6,2.8c0.6,2.7,1.4,6.3,1.3,8c0,0.4-0.1,0.8-0.2,1.2v0.1
	c-0.1,0.3-0.2,0.7-0.4,1v0.1c-0.2,0.3-0.3,0.6-0.5,0.9l0,0c-0.2,0.3-0.4,0.5-0.6,0.8l-0.1,0.1c-0.2,0.2-0.4,0.4-0.7,0.6l-0.2,0.1
	c-0.2,0.1-0.4,0.3-0.6,0.4l-0.2,0.1c-0.2,0.1-0.5,0.2-0.7,0.3H21c-0.3,0.1-0.6,0.2-0.9,0.3l0,0c-1,0.2-2,0.2-3,0
	c-0.3-0.1-0.6-0.2-0.9-0.3h-0.1c-0.2-0.1-0.5-0.2-0.7-0.3l-0.4,0c-0.2-0.1-0.4-0.2-0.6-0.4l-0.2-0.1c-0.2-0.2-0.4-0.3-0.6-0.5l0,0v1
	l0,0l0.1,0.1c0.3,0.2,0.5,0.4,0.8,0.5l0.3,0.2c0.4,0.2,0.7,0.4,1.1,0.5l0.3,0.1h0.1l0,0c0.1,0,0.3,0.2,0.3,0.3l0.1,0.6
	c0,0.1,0,0.2-0.1,0.3c-0.2,0.3-0.3,0.6-0.2,0.9c0,0.5,0.2,1,0.6,1.3v0.1c0,0.2-0.1,0.4-0.4,0.4c-1.1,0.2-2.1,0.4-3.1,0.8v0.8
	c1.1-0.4,2.2-0.7,3.3-0.9c0.6-0.1,1-0.6,1-1.2v0c0-0.3-0.1-0.5-0.3-0.6c-0.2-0.1-0.3-0.4-0.3-0.6c0-0.2,0-0.3,0.1-0.5
	c0.2-0.3,0.2-0.6,0.2-0.9l-0.1-0.5c0.4,0.1,0.7,0.1,1.1,0.1c0.3,0,0.7,0,1-0.1l-0.1,0.6c-0.1,0.3,0,0.6,0.2,0.9
	c0.1,0.1,0.1,0.3,0.1,0.5c0,0.2-0.1,0.5-0.3,0.6c-0.2,0.1-0.3,0.4-0.3,0.6v0.2c0,0.6,0.4,1.1,1,1.2c1.4,0.3,2.8,0.7,4.1,1.3
	c-0.2,0.1-0.4,0.1-0.6,0.1c-0.2,0-4.4,0-7.2,0h-2.7v0.5c0,0.1,0,0.2,0,0.3h2.7l6.7,0h0.5c0.5,0,0.9-0.1,1.3-0.5
	c0.1-0.2,0.2-0.4,0.1-0.6c-0.1-0.3-0.2-0.7-4.7-1.8c-0.2,0-0.3-0.2-0.3-0.4v-0.1c0.4-0.3,0.7-0.8,0.7-1.3c0-0.3-0.1-0.6-0.3-0.9
	c-0.1-0.1-0.1-0.2-0.1-0.3l0.1-0.6c0-0.1,0.1-0.3,0.3-0.3l0,0h0.1L21,30l0.6-0.2l0.5-0.3l0.1,0c0.2-0.1,0.4-0.2,0.6-0.4h0.1
	c0.2-0.2,0.5-0.4,0.7-0.5l0,0l0.4-0.4l0.2-0.2l0.2-0.2l0.3-0.3l0.1-0.1c0.1-0.1,0.2-0.3,0.3-0.4l0.1-0.1c0.1-0.1,0.1-0.3,0.2-0.4
	l0.1-0.3c0.1-0.1,0.1-0.3,0.2-0.4l0.1-0.2c0-0.1,0.1-0.3,0.1-0.4s0.1-0.3,0.1-0.4s0.1-0.2,0.1-0.4s0.1-0.5,0.1-0.8
	c0.1-1.8-0.7-5.5-1.3-8.2c-0.3-1.1-0.5-2.1-0.6-2.7c-0.1-0.4-0.1-0.8,0.1-1.2c0.2-0.6-0.2-1.3-0.8-1.5c-0.1,0-0.2,0-0.3,0h-1l0.8-4
	c0-0.1,0.1-0.2,0.2-0.3c1.1-0.8,4.7-2.9,4.7-2.9C28.1,2.3,28.1,2.1,28,1.9C28,1.9,28,1.9,28,1.9z"/>
<path d="M12.6,20L12.6,20c-0.2-0.4-0.6-0.6-0.9-0.6H3.7c-0.4,0-0.8,0.2-1,0.6c-0.1,0.2-0.2,0.4-0.2,0.7V36c0,1.8,1.5,3.2,3.2,3.2
	h3.7c1.4,0,2.7-0.9,3.1-2.3c0-0.1,0.1-0.3,0.1-0.4c0-0.2,0.1-0.4,0.1-0.6V28l0,0v-1.3l0,0v-6.1C12.8,20.4,12.7,20.2,12.6,20z
	 M12,25.1V27l0,0v8.9c0,1.4-1.1,2.5-2.5,2.5H5.8c-1.4,0-2.5-1.1-2.5-2.5V20.6c0-0.2,0.2-0.4,0.4-0.4c0,0,0,0,0,0h7.8
	c0.2,0,0.4,0.2,0.4,0.4l0,0L12,25.1L12,25.1z"/>
<polygon fill="#76C500" points="11.5,26 11.5,26 11.5,26 "/>
<path fill="#76C500" d="M11.5,24.9L11.5,24.9c0-0.1,0-0.1-0.1-0.2L11.5,24.9z"/>
<path fill="#76C500" d="M11.1,24.5c0-0.2-0.1-0.4-0.3-0.6c-0.1-0.1-0.2-0.1-0.3-0.2h0c-0.2,0-0.4-0.1-0.6-0.1
	c-1.2,0-1.4,0.8-2.3,0.8s-1-0.8-1.7-0.8c-0.4,0.1-0.8,0.3-1.1,0.5c-0.4,0.1-0.6,0.4-0.6,0.7v10.6c0,1.1,0.9,2.1,2.1,2.1h0H9
	c1.1,0,2-0.9,2-2c0,0,0,0,0-0.1l0.1-8.6l0,0v-1l-0.1-0.2c0,0,0,0.1,0.1,0.1L11.1,24.5L11.1,24.5z"/>
<path d="M40.2,27.9c-0.2-0.2-0.5-0.4-0.8-0.4H28.5c-0.3,0-0.6,0.1-0.8,0.4c-0.2,0.2-0.3,0.5-0.2,0.8l1.2,10.8c0.1,0.5,0.5,0.8,1,0.8
	h8.5c0.5,0,0.9-0.4,1-0.8l1.2-10.7C40.4,28.5,40.4,28.2,40.2,27.9z M38.2,39.5h-8.5c-0.1,0-0.2-0.1-0.2-0.1l-1.2-10.8
	c0-0.1,0.1-0.2,0.2-0.3c0,0,0,0,0.1,0h10.9c0.1,0,0.1,0,0.2,0.1c0,0.1,0,0.2,0,0.2l-1.1,10.7C38.4,39.4,38.3,39.5,38.2,39.5
	L38.2,39.5z"/>
<path fill="#76C500" d="M37.7,31.3c-0.3-0.1-0.6-0.1-0.9-0.1c-1.5,0-1.8,1-2.8,0.9s-1.2-1-2.2-0.9c-0.7,0.1-0.9,0.5-1.4,0.6
	c-0.4,0-0.8,0.4-0.8,0.9l0.4,5.2c0,0.4,0.4,0.8,0.8,0.8H37c0.4,0,0.8-0.3,0.8-0.8l0.4-5.7C38.3,31.8,38,31.4,37.7,31.3z"/>
</svg>
