<?xml version="1.0" encoding="UTF-8"?>
<svg width="47px" height="46px" viewBox="0 0 47 46" version="1.1" xmlns="http://www.w3.org/2000/svg" xmlns:xlink="http://www.w3.org/1999/xlink">
    <!-- Generator: Sketch 45.1 (43504) - http://www.bohemiancoding.com/sketch -->
    <title>Page 1</title>
    <desc>Created with Sketch.</desc>
    <defs></defs>
    <g id="Hurom-About-Page-v2" stroke="none" stroke-width="1" fill="none" fill-rule="evenodd">
        <g id="Desktop---Hurom-About-Page---Annotations" transform="translate(-214.000000, -4642.000000)">
            <g id="Page-1" transform="translate(214.000000, 4642.000000)">
                <path d="M42.6173,5.5841 L43.8073,4.4351 C44.0023,4.2471 44.0083,3.9371 43.8193,3.7421 C43.6313,3.5471 43.3233,3.5421 43.1263,3.7291 L41.9353,4.8781 L40.7873,3.6881 C40.6003,3.4941 40.2903,3.4891 40.0943,3.6761 C39.8993,3.8641 39.8933,4.1751 40.0833,4.3701 L41.2303,5.5591 L40.0403,6.7081 C39.8463,6.8961 39.8403,7.2061 40.0293,7.4011 C40.1253,7.5011 40.2533,7.5511 40.3823,7.5511 C40.5043,7.5511 40.6273,7.5051 40.7223,7.4141 L41.9123,6.2651 L43.0603,7.4541 C43.1563,7.5541 43.2843,7.6041 43.4133,7.6041 C43.5353,7.6041 43.6583,7.5591 43.7543,7.4661 C43.9483,7.2781 43.9543,6.9681 43.7653,6.7731 L42.6173,5.5841 Z" id="Fill-1" fill="#78C500"></path>
                <path d="M4.3204,35.9499 L4.7514,35.5339 C4.9164,35.3739 4.9214,35.1099 4.7604,34.9439 C4.6014,34.7789 4.3384,34.7739 4.1714,34.9339 L3.7404,35.3489 L3.3244,34.9199 C3.1664,34.7529 2.9024,34.7499 2.7354,34.9089 C2.5694,35.0689 2.5644,35.3329 2.7254,35.4989 L3.1404,35.9289 L2.7104,36.3449 C2.5444,36.5049 2.5394,36.7679 2.7004,36.9339 C2.7814,37.0179 2.8904,37.0609 3.0004,37.0609 C3.1034,37.0609 3.2084,37.0219 3.2904,36.9439 L3.7204,36.5289 L4.1354,36.9589 C4.2174,37.0449 4.3264,37.0869 4.4354,37.0869 C4.5404,37.0869 4.6444,37.0479 4.7254,36.9699 C4.8904,36.8089 4.8954,36.5459 4.7354,36.3799 L4.3204,35.9499 Z" id="Fill-3" fill="#78C500"></path>
                <polygon id="Stroke-5" stroke="#000000" stroke-linecap="round" stroke-linejoin="round" points="23.6515 37.0163 9.3425 44.5383 12.0755 28.6053 0.5005 17.3213 16.4975 14.9963 23.6515 0.5003 30.8055 14.9963 46.8045 17.3213 35.2285 28.6053 37.9605 44.5383"></polygon>
                <polygon id="Fill-7" fill="#78C500" points="23.6515 6.1047 29.1595 17.2637 41.4735 19.0537 32.5625 27.7397 34.6665 40.0047 23.6515 34.2137 12.6365 40.0047 14.7405 27.7397 5.8295 19.0537 18.1445 17.2637"></polygon>
                <path d="M6.5167,6.9679 C6.3517,7.3479 5.9087,7.5209 5.5287,7.3549 C5.1487,7.1889 4.9757,6.7469 5.1417,6.3669 C5.3077,5.9869 5.7497,5.8139 6.1297,5.9799 C6.5097,6.1459 6.6827,6.5879 6.5167,6.9679" id="Fill-9" fill="#78C500"></path>
            </g>
        </g>
    </g>
</svg>