<?xml version="1.0" encoding="utf-8"?>
<!-- Generator: Adobe Illustrator 21.0.2, SVG Export Plug-In . SVG Version: 6.00 Build 0)  -->
<svg version="1.1" id="Layer_1" xmlns="http://www.w3.org/2000/svg" xmlns:xlink="http://www.w3.org/1999/xlink" x="0px" y="0px"
	 viewBox="0 0 56 56" style="enable-background:new 0 0 56 56;" xml:space="preserve">
<style type="text/css">
	.st0{fill:#FFFFFF;}
	.st1{fill:#FFE373;}
</style>
<title>Page 1 Copy</title>
<desc>Created with Sketch.</desc>
<path id="Fill-1" class="st0" d="M29.7,4.2c-0.5-0.4-1.1-0.6-1.7-0.6c-0.5,0-0.9,0.1-1.4,0.3c-1.1,0.6-1.7,2-1.4,3.3L28,18.6
	l2.7-11.4C31,6.1,30.6,4.8,29.7,4.2"/>
<path id="Fill-3" class="st0" d="M29.4,52c1.1-0.6,1.7-2,1.4-3.3L28,37.3l-2.7,11.4c-0.3,1.2,0.1,2.4,1,3c0.5,0.4,1.1,0.6,1.7,0.6
	C28.5,52.3,28.9,52.2,29.4,52"/>
<path id="Fill-5" class="st0" d="M37.3,28l11.4,2.7c0.2,0.1,0.5,0.1,0.7,0.1c0.9,0,1.8-0.4,2.3-1.1c0.4-0.5,0.6-1.1,0.6-1.7
	c0-0.5-0.1-0.9-0.3-1.4c-0.5-0.9-1.4-1.5-2.6-1.5c-0.3,0-0.5,0-0.8,0.1L37.3,28z"/>
<path id="Fill-7" class="st0" d="M7.3,30.7L18.7,28L7.2,25.3c-0.2-0.1-0.5-0.1-0.7-0.1c-0.9,0-1.8,0.4-2.3,1.1
	c-0.4,0.5-0.6,1.1-0.6,1.7c0,0.5,0.1,0.9,0.3,1.4c0.5,0.9,1.4,1.5,2.6,1.5C6.8,30.8,7,30.8,7.3,30.7"/>
<path id="Fill-9" class="st0" d="M43.4,46c0.6-0.1,1.2-0.4,1.6-0.8c0.3-0.3,0.6-0.7,0.7-1.2c0.4-1.2-0.2-2.6-1.4-3.3l-10-6.1l6.2,10
	c0.6,0.9,1.5,1.5,2.5,1.5C43.2,46,43.3,46,43.4,46"/>
<path id="Fill-11" class="st0" d="M10.6,10.7c-0.3,0.3-0.6,0.7-0.7,1.2c-0.4,1.2,0.2,2.6,1.4,3.3l10,6.1l-6.2-10
	c-0.6-0.9-1.5-1.5-2.5-1.5c-0.1,0-0.2,0-0.4,0C11.6,10,11,10.3,10.6,10.7"/>
<path id="Fill-13" class="st0" d="M10,43.4c0.1,0.6,0.4,1.2,0.8,1.6c0.3,0.3,0.7,0.6,1.2,0.7c0.2,0.1,0.5,0.1,0.8,0.1
	c1,0,2-0.6,2.5-1.5l6.1-10l-10,6.2C10.4,41.2,9.8,42.4,10,43.4"/>
<path id="Fill-15" class="st0" d="M46.1,12.3c-0.1-0.6-0.4-1.2-0.8-1.6c-0.3-0.3-0.7-0.6-1.2-0.7c-0.2-0.1-0.5-0.1-0.8-0.1
	c-1,0-2,0.6-2.5,1.5l-6.1,10l10-6.2C45.7,14.5,46.2,13.3,46.1,12.3"/>
<path d="M55.1,25c-1.3-2.6-4.3-3.9-7.2-3.2l-12.4,3l11-6.8c2.2-1.4,3.4-3.9,3.1-6.3c-0.2-1.4-0.8-2.6-1.8-3.6
	c-0.7-0.7-1.6-1.3-2.6-1.6c-2.8-0.9-5.8,0.3-7.3,2.9l-6.5,10.6l2.8-12c0.6-2.6-0.3-5.2-2.3-6.6C29.9,0,27.2-0.2,25,0.9
	c-2.6,1.3-3.9,4.3-3.2,7.2l3,12.5L18.1,9.5c-1.4-2.2-3.9-3.4-6.3-3.1c-1.4,0.2-2.6,0.8-3.6,1.8C7.4,9,6.8,9.9,6.5,10.9
	c-0.9,2.8,0.3,5.8,2.9,7.3l10.7,6.5L8,21.9c-2.6-0.6-5.2,0.3-6.7,2.3c-0.8,1.1-1.2,2.4-1.2,3.8c0,1,0.2,2.1,0.7,3
	c1.1,2.1,3.3,3.3,5.6,3.3c0.5,0,1.1-0.1,1.6-0.2l11.8-2.8L9.6,37.6C7.3,39,6.1,41.5,6.5,44c0.2,1.4,0.8,2.6,1.8,3.6
	c0.7,0.7,1.6,1.3,2.6,1.6c0.6,0.2,1.2,0.3,1.8,0.3c2.2,0,4.3-1.2,5.5-3.2l6.5-10.6l-2.9,12.3c-0.6,2.6,0.3,5.2,2.3,6.6
	c1.1,0.8,2.4,1.2,3.8,1.2c1,0,2.1-0.2,3-0.7c2.6-1.3,3.9-4.3,3.2-7.2l-2.8-11.7l6.3,10.2c1.2,2,3.3,3.1,5.4,3.1c0.3,0,0.6,0,0.9-0.1
	c1.4-0.2,2.6-0.8,3.6-1.8c0.7-0.7,1.3-1.6,1.6-2.6c0.9-2.8-0.3-5.8-2.9-7.3l-10.6-6.5L48,34.1c0.5,0.1,1.1,0.2,1.6,0.2
	c2,0,3.9-0.9,5.1-2.5c0.8-1.1,1.2-2.4,1.2-3.8C55.9,27,55.6,25.9,55.1,25z M39.5,10.5c0.8-1.4,2.3-2.2,3.8-2.2
	c0.4,0,0.8,0.1,1.2,0.2c0.7,0.2,1.3,0.6,1.8,1.1c0.7,0.7,1.1,1.5,1.3,2.5c0.3,1.7-0.6,3.4-2.1,4.3l-14.1,8.7
	c-0.1-0.2-0.3-0.3-0.5-0.4L39.5,10.5z M25.9,2.6c0.6-0.3,1.3-0.5,2-0.5c1,0,1.9,0.3,2.6,0.9c1.4,1,2,2.8,1.6,4.6l-3.8,16.1
	c-0.1,0-0.2,0-0.3,0c-0.1,0-0.2,0-0.3,0l-3.9-16C23.3,5.6,24.2,3.5,25.9,2.6z M8.4,11.5c0.2-0.7,0.6-1.3,1.1-1.8
	C10.2,9,11.1,8.5,12,8.4c0.2,0,0.4,0,0.6,0c1.5,0,2.9,0.8,3.8,2.2l8.8,14.2c-0.2,0.1-0.3,0.3-0.4,0.4l-14.2-8.7
	C8.7,15.4,7.9,13.3,8.4,11.5z M7.6,32.2c-2,0.5-4.1-0.4-5-2.1c-0.3-0.6-0.5-1.3-0.5-2c0-1,0.3-1.9,0.9-2.6c0.8-1.1,2.1-1.7,3.5-1.7
	c0.4,0,0.7,0,1.1,0.1l16.1,3.8c0,0.1,0,0.3,0,0.4c0,0.1,0,0.2,0,0.3L7.6,32.2z M16.6,45.2c-1.1,1.8-3.2,2.6-5,2
	c-0.7-0.2-1.3-0.6-1.8-1.1c-0.7-0.7-1.1-1.5-1.3-2.5c-0.3-1.7,0.6-3.4,2.1-4.3l13.9-8.6c0.2,0.2,0.3,0.4,0.5,0.6L16.6,45.2z
	 M30.1,53.3c-1.5,0.8-3.3,0.6-4.7-0.4c-1.3-1-2-2.8-1.6-4.6l3.8-16c0.1,0,0.3,0,0.4,0c0.1,0,0.2,0,0.3,0l3.9,16
	C32.7,50.4,31.8,52.5,30.1,53.3z M47.2,44.4c-0.2,0.7-0.6,1.3-1.1,1.8c-0.7,0.7-1.5,1.1-2.5,1.3c-1.6,0.2-3.4-0.6-4.3-2.1l-8.6-13.9
	c0.2-0.2,0.4-0.3,0.6-0.5l13.9,8.5C46.9,40.4,47.8,42.6,47.2,44.4z M53,30.6c-1,1.3-2.8,2-4.6,1.6l-16-3.8c0-0.1,0-0.2,0-0.4
	c0-0.1,0-0.2,0-0.3l16-3.9c2-0.5,4.1,0.4,5,2.1c0.3,0.6,0.5,1.3,0.5,2C53.9,28.9,53.6,29.9,53,30.6z"/>
<circle class="st1" cx="28" cy="28" r="2.4"/>
</svg>
