<svg xmlns="http://www.w3.org/2000/svg" viewBox="0 0 50 50">
  <path fill="#F7F7F7" d="M42.2 19.4l-2.1-1.1c.2.4.3.8.5 1.2l1.6-.1zM25.1 33.8l-.4-.9c-.1.3-.2.7-.2 1l-.1.4 1-.1-.3-.4z"/>
  <path fill="#76C500" d="M17.8 15.4v.7l.7-.3.3 2.6.8-.1-.4-3.6m9.8-1l-1.9 3.8h.5l1.9-3.8m-8.1 20.7c.5.1.8.1.8.4 0 .2-.2.4-.4.4h-.1c-.4 0-.8-.1-1.2-.2l.1.8c.4.1.7.2 1.1.1.6 0 1.1-.5 1.2-1.1v-.1c-.1-.6-.5-1-1.1-1-.4-.1-.8-.1-.8-.4 0-.2.2-.4.4-.4h.1c.4 0 .8.1 1.1.2l-.1-.8c-.4-.1-.7-.2-1.1-.2-.6 0-1.1.5-1.1 1.1v.1c.1.7.6 1.1 1.1 1.1zm2.8.5l1.4-.2.4.7.8-.1L25 32h-.7l-1.1 3.7.8-.1.2-.7zm.3-1c.1-.3.2-.7.2-1l.4.9.2.4-1 .1.2-.4zm3.4 1.4l-.2-1.5 1.3-.1-.1-.7-1.3.2v-.8l1.4-.2v-.6l-2.3.2.4 3.5m4.9-.5v-.6l-1.5.1-.1-.8 1.2-.2-.1-.6-1.2.1v-.7l1.4-.1-.1-.7-2.2.2.4 3.6m-1.9-20.4c-.1-.5-.5-.8-1-.8-.5.1-.8.5-.8 1 .1.5.5.8 1 .8s.8-.4.8-1c0 .1 0 .1 0 0zm-1.3.2c0-.2.2-.4.4-.4s.4.2.4.4-.2.3-.3.4c-.3 0-.5-.2-.5-.4zm2.9.6c-.5 0-.9.5-.9 1s.5.9 1 .9.9-.5.9-1-.4-.9-.9-.8c0-.1-.1-.1-.1-.1zm.1 1.4c-.2.1-.5-.1-.6-.3s.1-.5.3-.6.5.1.6.3v.1c.1.2 0 .4-.3.5.1 0 .1 0 0 0zm-7.2-2c-.5-.5-1.3-.6-1.8-.1-.1.1-.2.2-.2.3-.2.4-.3.9-.2 1.4 0 .5.2.9.5 1.3.5.5 1.3.6 1.8.1.1-.1.2-.2.2-.3.2-.4.3-.9.2-1.4 0-.5-.2-1-.5-1.3zm-.4 2.3c-.1.1-.2.2-.3.2-.1 0-.3 0-.4-.2-.2-.2-.3-.5-.3-.8-.1-.3 0-.7.1-1 .1-.1.2-.2.3-.2.1 0 .3 0 .4.2.2.3.3.6.3.9 0 .2 0 .6-.1.9zm3.4-2.7c-.5-.5-1.3-.6-1.8-.1-.1.1-.2.2-.2.3-.2.4-.3.9-.2 1.4 0 .5.2.9.5 1.3.5.5 1.3.6 1.8.1.1-.1.2-.2.2-.3.2-.4.3-.9.2-1.4 0-.4-.2-.9-.5-1.3zm-.4 2.4c-.1.1-.2.2-.3.2-.1 0-.3 0-.4-.1-.2-.3-.3-.6-.3-.9-.1-.3 0-.7.1-1 .1-.1.2-.2.3-.2.1 0 .3 0 .4.2.2.3.3.6.3.9 0 .2 0 .6-.1.9z"/>
  <path d="M48.6 22.6L47.1 20l1-2.6c.1-.2 0-.4-.1-.6-.1-.2-.3-.3-.5-.2l-7.8.8c-4.2-8.1-14.1-11.3-22.2-7.1-4.7 2.4-8 6.9-8.8 12.1l-2.5.2c-.4 0-.6.3-.6.7l.2 2.7-3.5.3c-.3 0-.6.3-.5.7 0 .1 0 .2.1.2l1.5 2.5-1 2.6c-.1.3 0 .7.3.8H3l7.3-.7c4.1 8.1 14.1 11.3 22.2 7.2 4.8-2.5 8.1-7.1 8.8-12.4l2.4-.3c.4 0 .6-.4.6-.7l-.3-2.4 4-.4c.3 0 .6-.3.5-.6.1-.1.1-.1.1-.2zm-9.7-5c.1.1.1.3.2.4l.2.4c.2.4.4.8.5 1.3l-2 .2H37L9.5 22.4C11 13.8 19.1 8 27.6 9.5c4.8.8 9 3.8 11.3 8.1zm1.2.7l2.1 1.1-1.6.1c-.2-.4-.3-.8-.5-1.2zm3.5 1.6c0-.2-.1-.3-.2-.4 0 0 0-.1-.1-.1L41 18.2l6.3-.7-.9 2.3c-.1.2-.1.4 0 .5l1.4 2.4-3.7.4-.5-3.2zm-35 3.4h.8L37 20.6h.8l2.2-.2h.8l1.9-.2.4 3.1v.4l.1.2.3 2.3-2.1.2h-.8l-28.9 3h-.8l-1 .1h-.8l-2.3.2-.2-3V26l-.2-2.5 2.2-.2zM25 40.7c-5.8 0-11.1-3.2-13.9-8.3-.1-.1-.1-.3-.1-.4l-.2-.4c-.2-.4-.4-.9-.6-1.3l.8-.1h.8l28.7-2.9c-1.1 7.8-7.7 13.4-15.5 13.4zM9.4 30.5c.1.4.3.8.4 1.2l-2.1-1 1.7-.2zm-6.2 2l.9-2.4c.1-.2.1-.4 0-.5l-1.4-2.4 3.1-.3.2 3.3c0 .3.3.6.7.6l2.4 1.1-5.9.6z"/>
  <path d="M26.1 26.3L26 25l1-.1v-.5l-1.1.1-.1-.7 1.3-.1-.1-.6-1.9.2.3 3.1m7.8-.8l-.1-.6-1.2.1-.1-.7 1-.1v-.6l-1.1.2v-.7l1.2-.1-.1-.6-1.9.2.3 3.1m4.7-.5l-.1-.6-1.2.2-.1-.8 1-.1v-.5l-1 .1-.1-.6 1.2-.1-.1-.6-1.8.2.3 3m-5.2.5l-.1-1.2h.3l.9 1.1.8-.1-1-1.2c.4-.1.6-.5.5-.9-.1-.7-.7-.9-1.4-.8l-1 .1.3 3.1.7-.1zm0-2.5c.5 0 .7 0 .7.3s-.2.4-.6.4h-.3l-.1-.8.3.1zm-13.3 3.9c.9-.1 1.4-.5 1.3-1.1 0-.4-.3-.6-.7-.7.3-.1.4-.4.4-.7 0-.5-.5-.7-1.4-.6l-.9.1.3 3.1 1-.1zm.6-1c0 .3-.1.4-.7.5h-.2l-.1-.8h.4c.4-.1.6 0 .6.3zm-.8-1.5c.5 0 .6 0 .6.3 0 .2-.2.4-.4.4H15v-.7h.3zm3 2.2l-.1-1.1h.2c.9-.1 1.4-.4 1.3-1.1s-.8-1-1.5-.9l-.9.1.3 3.1.7-.1zm0-2.5c.5 0 .8 0 .8.4s-.1.4-.7.5h-.2l-.1-.8h.2zm2.8 1.5l1.2-.1.3.6.7-.1-1.5-2.9-.6.1-.9 3.2.7-.1.1-.7zm.3-.8c.1-.3.1-.6.2-.8l.4.8.2.3-.8.1v-.4z"/>
</svg>
