<?xml version="1.0" encoding="utf-8"?>
<!-- Generator: Adobe Illustrator 19.2.1, SVG Export Plug-In . SVG Version: 6.00 Build 0)  -->
<svg version="1.1" id="Layer_1" xmlns="http://www.w3.org/2000/svg" xmlns:xlink="http://www.w3.org/1999/xlink" x="0px" y="0px"
	 viewBox="0 0 62.7 87.6" style="enable-background:new 0 0 62.7 87.6;" xml:space="preserve">
<style type="text/css">
	.st0{fill:none;stroke:#76C500;stroke-width:2;stroke-linecap:round;}
	.st1{fill:none;stroke:#000000;stroke-width:1.5;stroke-linecap:round;stroke-linejoin:round;}
	.st2{fill:none;stroke:#000000;stroke-width:1.5;}
	.st3{fill:#76C500;}
	.st4{filter:url(#Adobe_OpacityMaskFilter);}
	.st5{fill:#FFFFFF;}
	.st6{mask:url(#mask-2);fill:#76C500;}
</style>
<path class="st0" d="M51,27.9l4.6,4.8"/>
<path class="st0" d="M55.7,28l-4.8,4.7"/>
<path class="st0" d="M59.1,39.6l2.6,2.7"/>
<path class="st0" d="M61.7,39.7L59,42.3"/>
<path class="st0" d="M2.5,52.4l4.6,4.8"/>
<path class="st0" d="M7.2,52.5l-4.8,4.7"/>
<path class="st0" d="M41.9,81.7l4.6,4.8"/>
<path class="st0" d="M46.6,81.8l-4.8,4.7"/>
<path class="st1" d="M5.1,68.9c7.9,9.4,22,10.5,31.3,2.5S46.9,49.3,38.9,40c-0.1-0.1-0.2-0.2-0.3-0.3c1,8.7-2.4,17.6-9.3,23.5
	S13.2,71,4.8,68.6C4.9,68.6,5,68.8,5.1,68.9L5.1,68.9z"/>
<path class="st2" d="M0.9,23.5l9.2-2.5l0,0l8.8-9.4c0.1-0.1,0-0.2-0.1-0.2l-9.2,2.4l0,0l-8.8,9.4C0.7,23.4,0.8,23.5,0.9,23.5
	L0.9,23.5z"/>
<path class="st2" d="M19.8,42.5l9.5-8.8l0,0l2.5-9.2c0-0.1-0.1-0.2-0.2-0.1l-9.5,8.8l0,0l-2.5,9.2C19.6,42.5,19.8,42.5,19.8,42.5
	L19.8,42.5z"/>
<path class="st2" d="M22.1,33c-0.6,0-1.1-0.2-1.6-0.7l-9.6-9.7c-0.9-0.9-0.9-2.3,0-3.2L26.5,3.9c0.3-0.3,0.7-0.5,1.1-0.6l12.1-2.5
	c0.1,0,0.3,0,0.5,0c0.7,0,1.3,0.3,1.7,0.8s0.6,1.2,0.5,1.9l-2.5,12.2c-0.1,0.4-0.3,0.8-0.6,1.1l-7.6,7.7l-8,8
	C23.3,32.8,22.7,33,22.1,33L22.1,33z"/>
<path class="st3" d="M31.4,18.1c-0.6,0.5-1.2,1.1-1.8,1.6c-0.4,0.4-0.7,0.3-1.1-0.1c-0.4-0.5-0.4-0.8-0.1-1.1
	c0.4-0.4,0.8-0.7,1.2-1.1c0.2-0.2,0.2-0.3,0.1-0.5c-0.3-0.5-0.7-0.9-1-1.4c-0.6-0.7-1.2-1.3-1.9-1.9c-0.2-0.2-0.3-0.2-0.5,0
	c-0.4,0.4-0.8,0.7-1.2,1.1C24.7,15,24.5,15,24,14.5c-0.4-0.4-0.4-0.7,0-1.1c1.2-1,2.3-2.1,3.5-3.1c0.4-0.3,0.7-0.3,1,0
	c0.1,0.1,0.2,0.2,0.2,0.3c0.3,0.3,0.3,0.6,0,0.9c-0.3,0.3-0.5,0.5-0.8,0.7c-0.1,0.1-0.1,0.2,0,0.3c1.2,1,2.2,2.1,3,3.4
	c0.1,0.2,0.2,0.2,0.4,0c0.2-0.2,0.5-0.4,0.7-0.7c0.3-0.3,0.6-0.3,0.9,0.1c0.1,0.1,0.2,0.2,0.2,0.3c0.3,0.4,0.3,0.6,0,1
	C32.5,17,32,17.6,31.4,18.1"/>
<defs>
	<filter id="Adobe_OpacityMaskFilter" filterUnits="userSpaceOnUse" x="21.4" y="7.7" width="14.3" height="14.5">
		<feColorMatrix  type="matrix" values="1 0 0 0 0  0 1 0 0 0  0 0 1 0 0  0 0 0 1 0"/>
	</filter>
</defs>
<mask maskUnits="userSpaceOnUse" x="21.4" y="7.7" width="14.3" height="14.5" id="mask-2">
	<g class="st4">
		<path id="path-1" class="st5" d="M27.5,10.2c-1.2,1-2.3,2.1-3.5,3.1c-0.4,0.3-0.4,0.7,0,1.1c0.5,0.5,0.7,0.6,1.2,0.2
			c0.4-0.4,0.8-0.7,1.2-1.1c0.2-0.2,0.3-0.2,0.5,0c0.7,0.6,1.3,1.2,1.9,1.9c0.4,0.4,0.7,0.9,1,1.4c0.1,0.2,0.1,0.4-0.1,0.5
			c-0.4,0.4-0.8,0.7-1.2,1.1c-0.4,0.4-0.4,0.6,0.1,1.1c0.4,0.4,0.7,0.5,1.1,0.1c0.6-0.5,1.2-1.1,1.8-1.6s1.2-1.1,1.8-1.6
			c0.4-0.3,0.4-0.6,0-1c-0.1-0.1-0.1-0.2-0.2-0.3c-0.3-0.3-0.6-0.3-0.9-0.1c-0.2,0.2-0.5,0.4-0.7,0.7c-0.1,0.1-0.3,0.2-0.4,0
			c-0.8-1.3-1.9-2.4-3-3.4c-0.1-0.1-0.1-0.2,0-0.3c0.3-0.2,0.5-0.5,0.8-0.7c0.3-0.3,0.3-0.6,0-0.9c-0.1-0.1-0.1-0.2-0.2-0.3
			c-0.4,0-0.5-0.1-0.7-0.1S27.7,10.1,27.5,10.2L27.5,10.2z"/>
	</g>
</mask>
<polygon class="st6" points="28.1,7.7 35.7,16.2 29,22.2 21.4,13.8 "/>
<path class="st1" d="M12.4,30.6l-8,8"/>
<path class="st1" d="M14.7,32.9l-4.5,4.5"/>
<path class="st1" d="M10.1,28.2l-4.5,4.5"/>
</svg>
