<?xml version="1.0" encoding="UTF-8" standalone="no"?>
<svg width="56px" height="56px" viewBox="0 0 56 56" version="1.1" xmlns="http://www.w3.org/2000/svg" xmlns:xlink="http://www.w3.org/1999/xlink">
    <!-- Generator: Sketch 40.1 (33804) - http://www.bohemiancoding.com/sketch -->
    <title>Page 1</title>
    <desc>Created with Sketch.</desc>
    <defs></defs>
    <g id="Recipes" stroke="none" stroke-width="1" fill="none" fill-rule="evenodd">
        <g id="Recipes-Page-v3.1" transform="translate(-980.000000, -749.000000)">
            <g id="Group-31" transform="translate(-3.000000, 721.000000)">
                <g id="Page-1" transform="translate(987.000000, 32.000000)">
                    <path d="M0,23.7785379 C0,10.6464 10.646069,0.000331034483 23.7782069,0.000331034483 C36.9111724,0.000331034483 47.5572414,10.6464 47.5572414,23.7785379 C47.5572414,36.9106759 36.9111724,47.5567448 23.7782069,47.5567448 C10.646069,47.5567448 0,36.9106759 0,23.7785379" id="Fill-1" fill="#77C043"></path>
                    <path d="M0,23.7785379 C0,10.6464 10.646069,0.000331034483 23.7782069,0.000331034483 C36.9111724,0.000331034483 47.5572414,10.6464 47.5572414,23.7785379 C47.5572414,36.9106759 36.9111724,47.5567448 23.7782069,47.5567448 C10.646069,47.5567448 0,36.9106759 0,23.7785379 L0,23.7785379 Z" id="Stroke-3" stroke="#FEFEFE" stroke-width="8"></path>
                    <path d="M0,23.7785379 C0,10.6464 10.646069,0.000331034483 23.7782069,0.000331034483 C36.9111724,0.000331034483 47.5572414,10.6464 47.5572414,23.7785379 C47.5572414,36.9106759 36.9111724,47.5567448 23.7782069,47.5567448 C10.646069,47.5567448 0,36.9106759 0,23.7785379 L0,23.7785379 Z" id="Stroke-5" stroke="#221F20" stroke-width="1.667"></path>
                    <path d="M21.7716414,22.1371862 L31.4800552,12.5868414 C32.1611586,11.9578759 33.2030897,12.7531862 32.7760552,13.5758069 L26.1313655,25.4632552 L21.7716414,22.1371862 Z" id="Fill-7" fill="#FEFEFE"></path>
                    <path d="M21.7716414,22.1371862 L31.4800552,12.5868414 C32.1611586,11.9578759 33.2030897,12.7531862 32.7760552,13.5758069 L26.1313655,25.4632552 L21.7716414,22.1371862 L21.7716414,22.1371862 Z" id="Stroke-9" stroke="#221F20" stroke-width="1.667"></path>
                    <path d="M26.0038345,25.6303448 L16.2954207,35.1806897 C15.6143172,35.8096552 14.5723862,35.0143448 14.9994207,34.1917241 L21.6441103,22.3042759 L26.0038345,25.6303448 Z" id="Fill-11" fill="#FEFEFE"></path>
                    <path d="M26.0038345,25.6303448 L16.2954207,35.1806897 C15.6143172,35.8096552 14.5723862,35.0143448 14.9994207,34.1917241 L21.6441103,22.3042759 L26.0038345,25.6303448 L26.0038345,25.6303448 Z" id="Stroke-13" stroke="#221F20" stroke-width="1.667"></path>
                    <path d="M27.1760276,26.2597241 C25.8179586,28.0406897 23.273131,28.3833103 21.4921655,27.0244138 C19.7112,25.6663448 19.3685793,23.1215172 20.7274759,21.3405517 C22.0855448,19.5595862 24.6303724,19.2169655 26.4113379,20.5758621 C28.1923034,21.933931 28.5340966,24.4787586 27.1760276,26.2597241" id="Fill-15" fill="#FEFEFE"></path>
                    <path d="M27.1760276,26.2597241 C25.8179586,28.0406897 23.273131,28.3833103 21.4921655,27.0244138 C19.7112,25.6663448 19.3685793,23.1215172 20.7274759,21.3405517 C22.0855448,19.5595862 24.6303724,19.2169655 26.4113379,20.5758621 C28.1923034,21.933931 28.5340966,24.4787586 27.1760276,26.2597241 L27.1760276,26.2597241 Z" id="Stroke-17" stroke="#221F20" stroke-width="2.014"></path>
                    <path d="M23.7785379,39.947669 C23.3738483,39.947669 22.992331,39.7904276 22.7059862,39.5032552 C22.1150897,38.9123586 22.1150897,37.9507034 22.7059862,37.3598069 C22.992331,37.0726345 23.3738483,36.9153931 23.7785379,36.9153931 C24.1832276,36.9153931 24.5647448,37.0726345 24.8510897,37.3598069 C25.4419862,37.9507034 25.4419862,38.9123586 24.8510897,39.5032552 C24.5647448,39.7904276 24.1832276,39.947669 23.7785379,39.947669" id="Fill-19" fill="#221F20"></path>
                    <path d="M23.7785379,36.5014345 C23.2629517,36.5014345 22.7779862,36.7025379 22.4138483,37.0666759 C22.0488828,37.4316414 21.8486069,37.9157793 21.8486069,38.4313655 C21.8486069,38.9469517 22.0488828,39.4319172 22.4138483,39.7960552 C22.7779862,40.1610207 23.2629517,40.3612966 23.7785379,40.3612966 C24.2941241,40.3612966 24.7790897,40.1610207 25.1432276,39.7960552 C25.5081931,39.4319172 25.708469,38.9469517 25.708469,38.4313655 C25.708469,37.9157793 25.5081931,37.4316414 25.1432276,37.0666759 C24.7790897,36.7025379 24.2941241,36.5014345 23.7785379,36.5014345 M23.7785379,37.3290207 C24.0607448,37.3290207 24.3429517,37.4366069 24.5581241,37.6517793 C24.988469,38.0821241 24.988469,38.7806069 24.5581241,39.2109517 C24.3429517,39.4261241 24.0607448,39.5337103 23.7785379,39.5337103 C23.496331,39.5337103 23.2141241,39.4261241 22.9989517,39.2109517 C22.5686069,38.7806069 22.5686069,38.0821241 22.9989517,37.6517793 C23.2141241,37.4366069 23.496331,37.3290207 23.7785379,37.3290207" id="Fill-21" fill="#221F20"></path>
                    <path d="M23.7785379,10.6624552 C23.3738483,10.6624552 22.992331,10.5043862 22.7059862,10.2180414 C22.1150897,9.62714483 22.1150897,8.66466207 22.7059862,8.07376552 C22.9931586,7.78742069 23.3738483,7.62935172 23.7785379,7.62935172 C24.1832276,7.62935172 24.5639172,7.78742069 24.8510897,8.07376552 C25.4419862,8.66466207 25.4419862,9.62714483 24.8510897,10.2180414 C24.5647448,10.5043862 24.1832276,10.6624552 23.7785379,10.6624552" id="Fill-23" fill="#221F20"></path>
                    <path d="M23.7785379,7.21588966 C23.2629517,7.21588966 22.7779862,7.4169931 22.4138483,7.78113103 C22.0488828,8.14609655 21.8486069,8.63023448 21.8486069,9.14582069 C21.8486069,9.6614069 22.0488828,10.1463724 22.4138483,10.5105103 C22.7779862,10.8754759 23.2629517,11.0757517 23.7785379,11.0757517 C24.2941241,11.0757517 24.7790897,10.8754759 25.1432276,10.5105103 C25.5081931,10.1463724 25.708469,9.6614069 25.708469,9.14582069 C25.708469,8.63023448 25.5081931,8.14609655 25.1432276,7.78113103 C24.7790897,7.4169931 24.2941241,7.21588966 23.7785379,7.21588966 M23.7785379,8.04347586 C24.0607448,8.04347586 24.3429517,8.15106207 24.5581241,8.36623448 C24.988469,8.79657931 24.988469,9.49506207 24.5581241,9.9254069 C24.3429517,10.1405793 24.0607448,10.2481655 23.7785379,10.2481655 C23.496331,10.2481655 23.2141241,10.1405793 22.9989517,9.9254069 C22.5686069,9.49506207 22.5686069,8.79657931 22.9989517,8.36623448 C23.2141241,8.15106207 23.496331,8.04347586 23.7785379,8.04347586" id="Fill-25" fill="#221F20"></path>
                    <path d="M9.02664828,25.3048552 C8.62195862,25.3048552 8.24044138,25.1476138 7.95409655,24.8604414 C7.3632,24.2695448 7.3632,23.3078897 7.95409655,22.7169931 C8.24044138,22.4298207 8.62195862,22.2725793 9.02664828,22.2725793 C9.43133793,22.2725793 9.81285517,22.4298207 10.0992,22.7169931 C10.6900966,23.3078897 10.6900966,24.2695448 10.0992,24.8604414 C9.81285517,25.1476138 9.43133793,25.3048552 9.02664828,25.3048552" id="Fill-27" fill="#221F20"></path>
                    <path d="M9.02656552,21.8586207 C8.51097931,21.8586207 8.02601379,22.0597241 7.66187586,22.4238621 C7.29691034,22.7888276 7.09663448,23.2729655 7.09663448,23.7885517 C7.09663448,24.3041379 7.29691034,24.7891034 7.66187586,25.1532414 C8.02601379,25.5182069 8.51097931,25.7184828 9.02656552,25.7184828 C9.54215172,25.7184828 10.0271172,25.5182069 10.3912552,25.1532414 C10.7562207,24.7891034 10.9564966,24.3041379 10.9564966,23.7885517 C10.9564966,23.2729655 10.7562207,22.7888276 10.3912552,22.4238621 C10.0271172,22.0597241 9.54215172,21.8586207 9.02656552,21.8586207 M9.02656552,22.6862069 C9.30877241,22.6862069 9.59097931,22.7937931 9.80615172,23.0089655 C10.2364966,23.4393103 10.2364966,24.1377931 9.80615172,24.5681379 C9.59097931,24.7833103 9.30877241,24.8908966 9.02656552,24.8908966 C8.74435862,24.8908966 8.46215172,24.7833103 8.24697931,24.5681379 C7.81663448,24.1377931 7.81663448,23.4393103 8.24697931,23.0089655 C8.46215172,22.7937931 8.74435862,22.6862069 9.02656552,22.6862069" id="Fill-29" fill="#221F20"></path>
                    <path d="M38.3121931,25.3048552 C37.9075034,25.3048552 37.5259862,25.1476138 37.2396414,24.8604414 C36.6487448,24.2695448 36.6487448,23.3078897 37.2396414,22.7169931 C37.5259862,22.4298207 37.9075034,22.2725793 38.3121931,22.2725793 C38.7168828,22.2725793 39.0975724,22.4298207 39.3839172,22.7169931 C39.6702621,23.0025103 39.828331,23.3832 39.828331,23.7887172 C39.828331,24.1942345 39.6702621,24.5749241 39.3839172,24.8604414 C39.0975724,25.1476138 38.7168828,25.3048552 38.3121931,25.3048552" id="Fill-31" fill="#221F20"></path>
                    <path d="M38.3121103,21.8586207 C37.7965241,21.8586207 37.3115586,22.0597241 36.9474207,22.4238621 C36.1951448,23.1761379 36.1951448,24.4009655 36.9474207,25.1532414 C37.3115586,25.5182069 37.7965241,25.7184828 38.3121103,25.7184828 C38.8276966,25.7184828 39.3126621,25.5182069 39.6768,25.1532414 C40.4290759,24.4009655 40.4290759,23.1761379 39.6768,22.4238621 C39.3126621,22.0597241 38.8276966,21.8586207 38.3121103,21.8586207 M38.3121103,22.6862069 C38.5943172,22.6862069 38.8765241,22.7937931 39.0916966,23.0089655 C39.5220414,23.4393103 39.5220414,24.1377931 39.0916966,24.5681379 C38.8765241,24.7833103 38.5943172,24.8908966 38.3121103,24.8908966 C38.0299034,24.8908966 37.7476966,24.7833103 37.5325241,24.5681379 C37.1021793,24.1377931 37.1021793,23.4393103 37.5325241,23.0089655 C37.7476966,22.7937931 38.0299034,22.6862069 38.3121103,22.6862069" id="Fill-33" fill="#221F20"></path>
                </g>
            </g>
        </g>
    </g>
</svg>