<?xml version="1.0" encoding="utf-8"?>
<!-- Generator: Adobe Illustrator 21.0.2, SVG Export Plug-In . SVG Version: 6.00 Build 0)  -->
<svg version="1.1" id="Layer_1" xmlns="http://www.w3.org/2000/svg" xmlns:xlink="http://www.w3.org/1999/xlink" x="0px" y="0px"
	 viewBox="0 0 75 75" style="enable-background:new 0 0 75 75;" xml:space="preserve">
<style type="text/css">
	.st0{fill:#78C500;}
</style>
<g>
	<path class="st0" d="M65.8,53.7l2.4-2.3c0.4-0.4,0.4-1,0-1.4c-0.4-0.4-1-0.4-1.4,0l-2.4,2.3l-2.3-2.4c-0.4-0.4-1-0.4-1.4,0
		c-0.4,0.4-0.4,1,0,1.4l2.3,2.4L60.6,56c-0.4,0.4-0.4,1,0,1.4c0.2,0.2,0.4,0.3,0.7,0.3c0.2,0,0.5-0.1,0.7-0.3l2.4-2.3l2.3,2.4
		c0.2,0.2,0.4,0.3,0.7,0.3c0.2,0,0.5-0.1,0.7-0.3c0.4-0.4,0.4-1,0-1.4L65.8,53.7z"/>
</g>
<g>
	<path class="st0" d="M7.4,6.5l1-1c0.4-0.4,0.4-1,0-1.4C8,3.8,7.4,3.8,7,4.1l-1,1l-1-1c-0.4-0.4-1-0.4-1.4,0c-0.4,0.4-0.4,1,0,1.4
		l1,1l-1,1c-0.4,0.4-0.4,1,0,1.4C3.8,9,4,9.1,4.3,9.1c0.2,0,0.5-0.1,0.7-0.3l1-1l1,1c0.2,0.2,0.4,0.3,0.7,0.3c0.2,0,0.5-0.1,0.7-0.3
		c0.4-0.4,0.4-1,0-1.4L7.4,6.5z"/>
</g>
<g>
	<path d="M35.4,0.5c-13.5,0-24.6,11-24.6,24.6c0,10.6,5.6,16.8,9.6,21.3c1.2,1.3,2.2,2.4,2.9,3.4c1.6,2.3,1.4,7,1.4,7
		c0,1.7,1.4,3.2,3.2,3.2h15c1.7,0,3.2-1.4,3.2-3.2c0,0-0.4-4.6,1.4-6.9c0.7-0.9,1.5-1.9,2.4-3C54.2,41.8,60,35,60,25.1
		C60,11.5,49,0.5,35.4,0.5z M48.7,45.8c-0.9,1.1-1.8,2.1-2.5,3c-2.1,2.8-1.7,7.8-1.7,8c0,0.9-0.7,1.6-1.6,1.6h-15
		c-0.9,0-1.6-0.7-1.6-1.5c0-0.2,0.2-5.2-1.7-8c-0.8-1.1-1.8-2.3-3-3.6c-3.9-4.3-9.2-10.2-9.2-20.2c0-12.7,10.3-23,23-23
		s23,10.3,23,23C58.4,34.4,52.8,41,48.7,45.8z"/>
	<path d="M36.9,8.4c-0.4,0-0.8,0.4-0.8,0.8c0,0.4,0.4,0.8,0.8,0.8c4.8,0,9.3,2.3,12,6.3c0.2,0.2,0.4,0.3,0.7,0.3
		c0.2,0,0.3,0,0.5-0.1c0.4-0.3,0.4-0.7,0.2-1.1C47.2,11,42.2,8.4,36.9,8.4z"/>
	<path d="M52.4,20c-0.1-0.4-0.6-0.7-1-0.5c-0.4,0.1-0.7,0.6-0.5,1c0.4,1.3,0.6,2.8,0.6,4.2c0,0.4,0.4,0.8,0.8,0.8
		c0.4,0,0.8-0.4,0.8-0.8C53.1,23.1,52.9,21.5,52.4,20z"/>
	<path d="M43.9,63.1H32c-0.4,0-0.8,0.4-0.8,0.8c0,0.4,0.4,0.8,0.8,0.8h11.1v5.4c0,1.4-1.2,2.6-2.6,2.6H30.4c-1.4,0-2.6-1.2-2.6-2.6
		v-0.6h11.4c0.4,0,0.8-0.4,0.8-0.8s-0.4-0.8-0.8-0.8H27.9v-4c0-0.4-0.4-0.8-0.8-0.8c-0.4,0-0.8,0.4-0.8,0.8v6.2
		c0,2.3,1.9,4.2,4.2,4.2h10.1c2.3,0,4.2-1.9,4.2-4.2v-6.2C44.7,63.5,44.4,63.1,43.9,63.1z"/>
</g>
<g>
	<ellipse transform="matrix(0.4004 -0.9163 0.9163 0.4004 7.0816 88.189)" class="st0" cx="70.9" cy="38.7" rx="1.2" ry="1.2"/>
</g>
<g>
	<ellipse transform="matrix(0.4004 -0.9163 0.9163 0.4004 -41.1293 34.7477)" class="st0" cx="6" cy="48.8" rx="1.9" ry="1.9"/>
</g>
</svg>
