<svg id="Layer_1" data-name="Layer 1" xmlns="http://www.w3.org/2000/svg" viewBox="0 0 70 70"><defs><style>.cls-1{fill:#c49a6c;}.cls-2{fill:#fff;}.cls-3{fill:#231f20;}.cls-4{fill:#78c144;}.cls-5{fill:#9ccd65;}.cls-6{fill:none;stroke:#000;stroke-linecap:round;stroke-linejoin:round;stroke-width:1.5px;}</style></defs><path class="cls-1" d="M20.87,50.15a15.65,15.65,0,1,1,0-31.3H33A15.64,15.64,0,0,1,48.39,31.67a0.89,0.89,0,0,0,.87.73h0.13l0.14,0a1,1,0,0,1,1,1v2.17a1,1,0,0,1-1,1H49.29a0.91,0.91,0,0,0-.9.73A15.64,15.64,0,0,1,33,50.15H20.87Z"/><path class="cls-2" d="M33,19.74A14.74,14.74,0,0,1,47.51,31.83a1.8,1.8,0,0,0,1.77,1.46l0.26,0h0a0.15,0.15,0,0,1,.12.15v2.17a0.15,0.15,0,0,1-.12.15h0l-0.26,0a1.78,1.78,0,0,0-1.75,1.46A14.74,14.74,0,0,1,33,49.26H20.87a14.76,14.76,0,0,1,0-29.52H33M33,18H20.87a16.54,16.54,0,0,0,0,33.08H33A16.54,16.54,0,0,0,49.26,37.49l0.27,0a1.93,1.93,0,0,0,1.93-1.93V33.41a1.93,1.93,0,0,0-1.93-1.93l-0.27,0A16.54,16.54,0,0,0,33,18h0Z"/><path class="cls-3" d="M33,51.79H20.87a17.29,17.29,0,0,1,0-34.58H33A17.27,17.27,0,0,1,49.87,30.76a2.68,2.68,0,0,1,2.34,2.66v2.17a2.68,2.68,0,0,1-2.34,2.66A17.27,17.27,0,0,1,33,51.79ZM20.87,18.71a15.79,15.79,0,1,0,0,31.58H33A15.77,15.77,0,0,0,48.52,37.35a0.75,0.75,0,0,1,.84-0.61l0.17,0a1.18,1.18,0,0,0,1.18-1.18V33.41a1.19,1.19,0,0,0-1.32-1.16,0.78,0.78,0,0,1-.87-0.6A15.77,15.77,0,0,0,33,18.71H20.87Z"/><path class="cls-3" d="M22.52,47.15A13.93,13.93,0,0,1,8.58,33.2a0.75,0.75,0,0,1,1.5,0A12.43,12.43,0,0,0,22.52,45.65,0.75,0.75,0,0,1,22.52,47.15Z"/><path class="cls-4" d="M49,50.83A15.57,15.57,0,1,1,64.57,35.26,15.59,15.59,0,0,1,49,50.83Z"/><path class="cls-2" d="M49,20.79A14.47,14.47,0,1,1,34.53,35.26,14.49,14.49,0,0,1,49,20.79m0-2.2A16.67,16.67,0,1,0,65.67,35.26,16.67,16.67,0,0,0,49,18.59h0Z"/><path class="cls-3" d="M49,52.79A17.42,17.42,0,1,1,66.42,35.37,17.44,17.44,0,0,1,49,52.79Zm0-33.34A15.92,15.92,0,1,0,64.92,35.37,15.94,15.94,0,0,0,49,19.45Z"/><circle class="cls-5" cx="49" cy="35.37" r="3.53"/><path class="cls-2" d="M49,32.94a2.43,2.43,0,1,1-2.43,2.43A2.44,2.44,0,0,1,49,32.94m0-2.2a4.63,4.63,0,1,0,4.63,4.63A4.63,4.63,0,0,0,49,30.74h0Z"/><path class="cls-3" d="M49,40.76a5.38,5.38,0,1,1,5.38-5.38A5.39,5.39,0,0,1,49,40.76Zm0-9.27a3.88,3.88,0,1,0,3.88,3.88A3.89,3.89,0,0,0,49,31.49Z"/><line class="cls-6" x1="58.94" y1="35.26" x2="56.1" y2="35.26"/><line class="cls-6" x1="58.16" y1="39.13" x2="55.55" y2="38.02"/><line class="cls-6" x1="56.03" y1="42.28" x2="54.02" y2="40.28"/><line class="cls-6" x1="52.87" y1="44.41" x2="51.77" y2="41.8"/><line class="cls-6" x1="49" y1="45.19" x2="49" y2="42.36"/><line class="cls-6" x1="45.14" y1="44.41" x2="46.24" y2="41.8"/><line class="cls-6" x1="41.98" y1="42.28" x2="43.98" y2="40.28"/><line class="cls-6" x1="39.85" y1="39.13" x2="42.46" y2="38.02"/><line class="cls-6" x1="39.07" y1="35.26" x2="41.9" y2="35.26"/><line class="cls-6" x1="39.85" y1="31.39" x2="42.46" y2="32.5"/><line class="cls-6" x1="41.98" y1="28.23" x2="43.98" y2="30.24"/><line class="cls-6" x1="45.14" y1="26.11" x2="46.24" y2="28.72"/><line class="cls-6" x1="49" y1="25.32" x2="49" y2="28.16"/></svg>