<svg id="Layer_1" data-name="Layer 1" xmlns="http://www.w3.org/2000/svg" viewBox="0 0 70 70"><defs><style>.cls-1{fill:#fdb71c;}.cls-2{fill:#fff;}.cls-3{fill:#231f20;}</style></defs><path class="cls-1" d="M28.87,52.61a13.73,13.73,0,0,1-8.37-2.54l-0.78-.59-0.68.7-0.16.15a1.76,1.76,0,0,1-2.47-.26,1.76,1.76,0,0,1,.26-2.47l0.18-.12L17.67,47l-0.42-.88c-3.14-6.68.37-16.22,8.33-22.68,4.71-3.82,10.38-6,15.54-6a13.73,13.73,0,0,1,8.37,2.54l0.78,0.59L51,19.81l0.15-.14a1.76,1.76,0,0,1,2.47.26,1.76,1.76,0,0,1-.26,2.47l-0.18.12L52.33,23l0.42,0.88c3.14,6.68-.36,16.22-8.33,22.68-4.71,3.82-10.38,6-15.54,6h0Z"/><path class="cls-2" d="M41.13,16.29v2.2a12.64,12.64,0,0,1,7.71,2.32L50.4,22l1.35-1.4,0.06-.06a0.66,0.66,0,0,1,.93.1,0.66,0.66,0,0,1-.09.92l-0.07,0-1.65,1,0.83,1.77c2.88,6.13-.57,15.31-8,21.36-4.52,3.66-9.93,5.77-14.85,5.77a12.64,12.64,0,0,1-7.71-2.32L19.6,48l-1.35,1.4-0.06.06a0.66,0.66,0,0,1-.93-0.1,0.66,0.66,0,0,1,.1-0.93l0.07,0,1.65-1-0.83-1.77c-2.88-6.13.57-15.31,8-21.36,4.52-3.66,9.93-5.77,14.85-5.77v-2.2m0,0A26.45,26.45,0,0,0,24.9,22.54c-8.47,6.87-11.93,17-8.64,24l-0.29.2a2.86,2.86,0,1,0,3.6,4.44,2.89,2.89,0,0,0,.26-0.24,14.82,14.82,0,0,0,9,2.76A26.46,26.46,0,0,0,45.1,47.46c8.47-6.87,11.93-17,8.64-24l0.29-.2a2.86,2.86,0,1,0-3.6-4.44,2.89,2.89,0,0,0-.26.24,14.83,14.83,0,0,0-9-2.76h0Z"/><path class="cls-3" d="M28.86,54.47a15.74,15.74,0,0,1-9-2.57,3.61,3.61,0,0,1-4.54-5.6C12.27,38.91,16,28.78,24.43,22s19.1-8.39,25.7-3.86a3.61,3.61,0,0,1,4.54,5.6C57.73,31.09,54,41.22,45.58,48h0A27.27,27.27,0,0,1,28.86,54.47ZM19.75,50l0.53,0.4c6,4.55,16.25,3.09,24.35-3.48s11.64-16.28,8.43-23.1l-0.28-.6,0.57-.35,0.21-.15a2.11,2.11,0,1,0-2.66-3.27l-0.19.17-0.46.48-0.53-.4c-6-4.55-16.25-3.09-24.35,3.48S13.73,39.4,16.94,46.23l0.28,0.6-0.56.35-0.22.16a2.11,2.11,0,0,0,2.66,3.27l0.19-.18Z"/><path class="cls-3" d="M34.67,48.45A0.75,0.75,0,0,1,34.39,47C48,41.42,49.66,29.54,49.68,29.42a0.76,0.76,0,0,1,.84-0.65,0.75,0.75,0,0,1,.65.84c-0.07.52-1.8,12.86-16.21,18.78A0.74,0.74,0,0,1,34.67,48.45Z"/></svg>