<svg id="Layer_1" data-name="Layer 1" xmlns="http://www.w3.org/2000/svg" viewBox="0 0 70 70"><defs><style>.cls-1{fill:#f36f3b;}.cls-2{fill:#fff;}.cls-3{fill:#231f20;}.cls-4{fill:#78c144;}</style></defs><title>fruit</title><path class="cls-1" d="M35,58.08A16.82,16.82,0,1,1,51.82,41.26,16.84,16.84,0,0,1,35,58.08Z"/><path class="cls-2" d="M35,25.54A15.72,15.72,0,1,1,19.28,41.26,15.74,15.74,0,0,1,35,25.54m0-2.2A17.92,17.92,0,1,0,52.92,41.26,17.92,17.92,0,0,0,35,23.34h0Z"/><path class="cls-3" d="M35,59.93A18.67,18.67,0,1,1,53.67,41.26,18.69,18.69,0,0,1,35,59.93Zm0-35.84A17.17,17.17,0,1,0,52.17,41.26,17.19,17.19,0,0,0,35,24.09Z"/><path class="cls-3" d="M42.17,51.4a0.74,0.74,0,0,1-.23,0,0.75,0.75,0,0,1-.48-0.95l1.09-3.33a0.75,0.75,0,1,1,1.43.46l-1.09,3.33A0.75,0.75,0,0,1,42.17,51.4Z"/><path class="cls-3" d="M44.38,50.28a0.74,0.74,0,0,1-.23,0l-3.33-1.09a0.75,0.75,0,1,1,.46-1.43l3.33,1.09A0.75,0.75,0,0,1,44.38,50.28Z"/><path class="cls-3" d="M21.1,42.39a0.75,0.75,0,0,1-.75-0.75,15,15,0,0,1,15-15,0.75,0.75,0,0,1,0,1.5A13.54,13.54,0,0,0,21.85,41.64,0.75,0.75,0,0,1,21.1,42.39Z"/><path class="cls-3" d="M37.14,24h0a0.75,0.75,0,0,1-.74-0.76,5.46,5.46,0,0,1,4.83-5.29,0.75,0.75,0,0,1,.22,1.48,4,4,0,0,0-3.55,3.83A0.75,0.75,0,0,1,37.14,24Z"/><path class="cls-4" d="M36.55,18.7a7.12,7.12,0,0,1-5.25-1.9,7.11,7.11,0,0,1-1.61-5C31.82,11.95,36,13,37.07,18.68H36.55Z"/><path class="cls-2" d="M30.75,12.93a6.7,6.7,0,0,1,5,4.73A5.62,5.62,0,0,1,32,16.11a5.38,5.38,0,0,1-1.28-3.19m-1.82-2.2H28.71c-0.55,8,5,9,7.83,9a10.37,10.37,0,0,0,1.67-.12c-0.92-8.46-8-8.86-9.29-8.86h0Z"/><path class="cls-3" d="M36.54,20.46a9.15,9.15,0,0,1-6.1-2c-1.88-1.68-2.71-4.29-2.47-7.75a0.75,0.75,0,0,1,.71-0.7c0.08,0,9.22-.42,10.3,9.52a0.75,0.75,0,0,1-.61.82A11,11,0,0,1,36.54,20.46Zm-7.11-9c-0.06,2.61.61,4.57,2,5.81C33.31,19,36.08,19,37.38,18.92,36.32,12.49,31.28,11.59,29.43,11.49Z"/></svg>