<svg id="Layer_1" data-name="Layer 1" xmlns="http://www.w3.org/2000/svg" viewBox="0 0 70 70"><defs><style>.cls-1{fill:#fdb71c;}.cls-2{fill:#fff;}.cls-3{fill:#231f20;}.cls-4{fill:#78c144;}</style></defs><title>fruit</title><path class="cls-1" d="M35,58.13a13.62,13.62,0,0,1-11.5-20.86c0.18-.28.37-0.56,0.57-0.83a15.39,15.39,0,0,0,1.77-2.93,30.85,30.85,0,0,0,2-6.52c1-5.16,3.85-6.18,5-6.38a9.1,9.1,0,0,0,1.59-.43,6.63,6.63,0,0,1,2.21-.42c2.2,0,3.74,1.44,4.57,4.28a67.07,67.07,0,0,0,5,12.71,13.66,13.66,0,0,1,2.42,7.75A13.61,13.61,0,0,1,35,58.13h0Z"/><path class="cls-2" d="M36.61,20.87c1.07,0,2.59.36,3.52,3.49a69.07,69.07,0,0,0,5.09,12.91l0.12,0.19A12.51,12.51,0,0,1,35,57,12.52,12.52,0,0,1,24.41,37.85c0.16-.25.33-0.51,0.52-0.76A16.43,16.43,0,0,0,26.82,34a31.9,31.9,0,0,0,2.06-6.75c0.89-4.49,3.18-5.35,4.12-5.51a10.28,10.28,0,0,0,1.78-.48,5.52,5.52,0,0,1,1.83-.35m0-2.2a7.72,7.72,0,0,0-2.59.48,8,8,0,0,1-1.4.38c-1.43.24-4.76,1.44-5.91,7.25a29.5,29.5,0,0,1-1.91,6.28,14.29,14.29,0,0,1-1.64,2.71q-0.33.44-.62,0.9A14.72,14.72,0,0,0,35,59.23h0a14.71,14.71,0,0,0,12.16-23h0a66.45,66.45,0,0,1-4.92-12.48c-1.21-4.09-3.61-5.07-5.63-5.07h0Z"/><path class="cls-3" d="M35,60h0a15.47,15.47,0,0,1-13.06-23.7c0.21-.33.42-0.64,0.65-0.95a13.32,13.32,0,0,0,1.56-2.57A29,29,0,0,0,26,26.63c1.24-6.29,5-7.58,6.52-7.84a7.31,7.31,0,0,0,1.27-.34,7.13,7.13,0,0,1,5.56.09c1.68,0.85,2.9,2.53,3.63,5a67.27,67.27,0,0,0,4.84,12.3A15.46,15.46,0,0,1,35,60Zm1.61-40.55a7,7,0,0,0-2.33.44,8.84,8.84,0,0,1-1.53.41c-1.24.21-4.24,1.28-5.3,6.66a30.48,30.48,0,0,1-2,6.44,14.78,14.78,0,0,1-1.73,2.86q-0.31.41-.59,0.85A14,14,0,0,0,35,58.47h0A14,14,0,0,0,46.54,36.65l0-.06a66.64,66.64,0,0,1-5-12.64,6.22,6.22,0,0,0-2.87-4.07A4.5,4.5,0,0,0,36.61,19.42Z"/><path class="cls-3" d="M33.55,20.06a0.75,0.75,0,0,1-.72-0.54c-0.07-.23-1.58-5.65,2.21-7.95a0.75,0.75,0,1,1,.78,1.28c-2.8,1.7-1.56,6.2-1.54,6.25a0.75,0.75,0,0,1-.51.93Z"/><path class="cls-4" d="M32.14,18a6.59,6.59,0,0,1-6.69-6.2C27.69,11.95,31.5,13,32.14,18Z"/><path class="cls-2" d="M26.73,13a5.43,5.43,0,0,1,4.13,3.86A5.25,5.25,0,0,1,26.73,13m-1.95-2.21H24.37c0.3,7.59,6.25,8.22,8.23,8.22,0.4,0,.63,0,0.63,0-0.3-7.7-6.74-8.21-8.45-8.21h0Z"/><path class="cls-3" d="M32.58,19.76a9.46,9.46,0,0,1-6.08-2.08,9.11,9.11,0,0,1-2.88-6.86A0.75,0.75,0,0,1,24.31,10a10.07,10.07,0,0,1,6.86,2.22A9,9,0,0,1,34,19a0.75,0.75,0,0,1-.67.78S33,19.76,32.58,19.76Zm-7.41-8.22a7.3,7.3,0,0,0,2.3,5,7.94,7.94,0,0,0,5,1.72,7.24,7.24,0,0,0-2.24-4.87A8.25,8.25,0,0,0,25.17,11.54Z"/><path class="cls-3" d="M35.24,55.85A0.75,0.75,0,0,1,35,54.38c3.82-1.1,6.46-3,7.83-5.79,2.32-4.64.28-10.1,0.26-10.15a0.75,0.75,0,0,1,1.4-.54c0.09,0.25,2.3,6.11-.31,11.35-1.57,3.14-4.51,5.35-8.76,6.57A0.73,0.73,0,0,1,35.24,55.85Z"/></svg>