<svg xmlns="http://www.w3.org/2000/svg" viewBox="0 0 70 70"><defs><style>.cls-1{isolation:isolate;}.cls-2{mix-blend-mode:multiply;}.cls-3{fill:#78c144;}.cls-4{fill:#fff;}.cls-5{fill:#231f20;}.cls-6{fill:#fdb71c;}</style></defs><g class="cls-1"><g id="Layer_1" data-name="Layer 1"><g class="cls-2"><path class="cls-3" d="M38.44,34.94c0.08-.37.18-0.79,0.32-1.25s0.34-1.09.54-1.63a23.85,23.85,0,0,1,1.77-3.66c0.4-.67.8-1.29,1.21-1.85s0.9-1.19,1.39-1.77a24.5,24.5,0,0,1,3.1-3,20,20,0,0,1,3.17-2.13c0.47-.25.94-0.48,1.41-0.67l0.6-.24,0.33-.12c0,0.15-.07.29-0.1,0.44l0,0.1c-0.05.23-.12,0.46-0.19,0.71-0.16.54-.34,1.09-0.55,1.63a24.05,24.05,0,0,1-1.77,3.66,26.06,26.06,0,0,1-2.59,3.62c-0.5.58-1,1.13-1.51,1.63s-1,1-1.59,1.43a19.72,19.72,0,0,1-3.16,2.13c-0.46.25-.94,0.47-1.41,0.67S38.72,34.85,38.44,34.94Z"/><path class="cls-4" d="M50.94,20.11c-0.11.34-.23,0.68-0.36,1a23.23,23.23,0,0,1-1.71,3.53,25.16,25.16,0,0,1-2.49,3.48c-0.48.56-1,1.09-1.47,1.58s-1,.92-1.52,1.37a18.93,18.93,0,0,1-3,2l-0.59.3c0.11-.35.23-0.7,0.37-1a22.89,22.89,0,0,1,1.7-3.52c0.38-.64.77-1.24,1.17-1.78s0.86-1.15,1.34-1.7a23.61,23.61,0,0,1,3-2.94,19.18,19.18,0,0,1,3-2l0.57-.29m2.46-2.75-0.32.06-0.37.09-0.48.14-0.58.2L51,18.1c-0.46.19-1,.43-1.49,0.71A20.89,20.89,0,0,0,46.21,21,25.52,25.52,0,0,0,43,24.2c-0.5.59-1,1.2-1.43,1.82s-0.87,1.27-1.25,1.91a24.61,24.61,0,0,0-1.84,3.8c-0.23.6-.42,1.17-0.57,1.7s-0.27,1-.35,1.4c0,0.2-.08.38-0.1,0.55s0,0.3-.07.42,0,0.36,0,.36l0.32-.06L38,36l0.48-.14c0.36-.11.77-0.26,1.23-0.45s1-.43,1.49-0.71a20.65,20.65,0,0,0,3.31-2.22c0.56-.46,1.11-1,1.65-1.48s1.06-1.1,1.56-1.68a27.12,27.12,0,0,0,2.68-3.74,24.92,24.92,0,0,0,1.84-3.8c0.23-.6.42-1.17,0.57-1.7,0.08-.26.14-0.51,0.2-0.75s0.11-.45.15-0.65,0.08-.38.11-0.55,0.05-.3.07-0.42,0-.36,0-0.36h0Z"/><path class="cls-5" d="M37.33,36.91a0.75,0.75,0,0,1-.75-0.8s0-.15,0-0.41,0-.27.07-0.45,0.06-.35.11-0.56c0.09-.42.21-0.91,0.36-1.46s0.37-1.17.59-1.76a25.49,25.49,0,0,1,1.9-3.92c0.43-.72.85-1.37,1.29-2s0.95-1.26,1.47-1.87a26.15,26.15,0,0,1,3.32-3.26,21.74,21.74,0,0,1,3.42-2.3c0.51-.27,1-0.52,1.55-0.74l0.7-.27,0.1,0L52,16.93l0.5-.15,0.38-.09,0.39-.08a0.75,0.75,0,0,1,.85.8s0,0.15,0,.4,0,0.28-.07.45-0.06.36-.11,0.57-0.08.37-.13,0.58-0.15.6-.23,0.88c-0.17.57-.36,1.16-0.59,1.75A25.82,25.82,0,0,1,51.06,26a27.76,27.76,0,0,1-2.75,3.85c-0.54.62-1.08,1.21-1.61,1.73s-1.08,1-1.7,1.53a21.51,21.51,0,0,1-3.43,2.3c-0.51.28-1,.52-1.55,0.74s-0.93.36-1.3,0.47l-0.52.15-0.39.1-0.37.07h-0.1ZM52.48,18.36h0L52,18.51l-0.11,0-0.62.24c-0.48.2-1,.43-1.42,0.68a20.27,20.27,0,0,0-3.19,2.14,24.57,24.57,0,0,0-3.13,3.07c-0.49.58-1,1.18-1.39,1.77s-0.81,1.17-1.22,1.86A24,24,0,0,0,39.16,32c-0.21.55-.39,1.1-0.55,1.64s-0.26,1-.34,1.35l0,0.17h0c0.34-.11.74-0.25,1.17-0.43s0.95-.42,1.42-0.68A20,20,0,0,0,44,31.91c0.59-.48,1.11-1,1.6-1.44s1-1,1.52-1.64a26.21,26.21,0,0,0,2.6-3.64,24.27,24.27,0,0,0,1.79-3.69c0.21-.55.39-1.1,0.55-1.64,0.07-.25.14-0.48,0.19-0.71l0-.11c0-.18.09-0.35,0.12-0.52Z"/><path class="cls-3" d="M31.31,35.78c-0.28-.09-0.6-0.21-0.95-0.35S29.42,35,29,34.75a19.78,19.78,0,0,1-3.16-2.12c-0.57-.47-1.11-0.95-1.59-1.43s-1-1-1.52-1.63A26,26,0,0,1,20.11,26a24.1,24.1,0,0,1-1.78-3.67c-0.2-.54-0.39-1.08-0.55-1.63-0.07-.24-0.13-0.48-0.19-0.7l0-.12c0-.15-0.07-0.29-0.1-0.42l0.33,0.12,0.61,0.24c0.47,0.2.95,0.43,1.41,0.67A20,20,0,0,1,23,22.57a24.46,24.46,0,0,1,3.11,3.05c0.49,0.57,1,1.17,1.38,1.76s0.8,1.17,1.21,1.85a23.84,23.84,0,0,1,1.77,3.66c0.21,0.55.39,1.1,0.55,1.63S31.23,35.41,31.31,35.78Z"/><path class="cls-4" d="M18.81,20.95l0.57,0.29a19.19,19.19,0,0,1,3,2,23.56,23.56,0,0,1,3,2.93c0.48,0.56.93,1.14,1.35,1.71S27.52,29,27.9,29.69a22.89,22.89,0,0,1,1.71,3.52c0.13,0.35.26,0.7,0.37,1L29.38,34a18.92,18.92,0,0,1-3-2c-0.55-.45-1.06-0.91-1.53-1.37s-1-1-1.46-1.57a25.19,25.19,0,0,1-2.5-3.5A23.2,23.2,0,0,1,19.17,22c-0.13-.34-0.25-0.68-0.36-1m-2.46-2.75s0,0.13,0,.36,0,0.26.07,0.42,0.06,0.34.11,0.54,0.09,0.42.15,0.65,0.12,0.49.2,0.75c0.15,0.52.34,1.1,0.57,1.7a24.9,24.9,0,0,0,1.84,3.8A27.1,27.1,0,0,0,22,30.16c0.5,0.59,1,1.15,1.56,1.68s1.09,1,1.65,1.48a20.64,20.64,0,0,0,3.31,2.22c0.53,0.28,1,.52,1.49.71s0.88,0.34,1.23.45l0.48,0.14,0.37,0.09L32.42,37s0-.13,0-0.36,0-.26-0.07-0.42-0.06-.35-0.1-0.55c-0.08-.4-0.2-0.88-0.35-1.4s-0.34-1.1-.57-1.7a24.6,24.6,0,0,0-1.84-3.8c-0.38-.64-0.8-1.29-1.25-1.91S27.27,25.62,26.77,25a25.52,25.52,0,0,0-3.22-3.16,20.89,20.89,0,0,0-3.31-2.22c-0.52-.28-1-0.52-1.49-0.71l-0.66-.26-0.58-.2L17,18.35l-0.37-.09-0.32-.06h0Z"/><path class="cls-5" d="M32.42,37.75h-0.1l-0.38-.07-0.4-.1L31,37.42c-0.37-.12-0.81-0.27-1.3-0.47s-1-.46-1.55-0.74a21.55,21.55,0,0,1-3.43-2.3c-0.61-.5-1.18-1-1.7-1.53S22,31.25,21.44,30.64a27.65,27.65,0,0,1-2.76-3.85,25.77,25.77,0,0,1-1.9-3.92c-0.22-.57-0.42-1.16-0.59-1.75C16.12,20.85,16,20.59,16,20.34l0-.11c-0.05-.21-0.1-0.4-0.13-0.58s-0.08-.39-0.11-0.57,0-.3-0.07-0.42,0-.41,0-0.41a0.75,0.75,0,0,1,.86-0.8l0.38,0.08,0.4,0.1,0.51,0.15,0.46,0.16,0.13,0L19,18.25c0.5,0.21,1,.46,1.54.74A21.74,21.74,0,0,1,24,21.29a26.25,26.25,0,0,1,3.32,3.25c0.52,0.62,1,1.25,1.47,1.88s0.87,1.26,1.29,2A25.59,25.59,0,0,1,32,32.31c0.22,0.59.42,1.18,0.59,1.75s0.28,1,.36,1.46c0,0.21.08,0.41,0.11,0.58s0.05,0.31.07,0.44,0,0.4,0,.4A0.75,0.75,0,0,1,32.42,37.75ZM17.27,19.2l0,0.16c0,0.18.08,0.34,0.12,0.52l0,0.12c0.05,0.23.12,0.47,0.19,0.71,0.16,0.55.35,1.1,0.55,1.64A24.23,24.23,0,0,0,20,26a26.13,26.13,0,0,0,2.61,3.64c0.49,0.57,1,1.13,1.52,1.63s1,1,1.6,1.44a20.14,20.14,0,0,0,3.18,2.14c0.47,0.25,1,.48,1.42.68s0.83,0.32,1.17.43h0l0-.17c-0.08-.39-0.19-0.84-0.34-1.35s-0.34-1.08-.55-1.64a24.1,24.1,0,0,0-1.78-3.68c-0.4-.67-0.81-1.29-1.21-1.86s-0.9-1.2-1.4-1.78a24.6,24.6,0,0,0-3.12-3.06,20.32,20.32,0,0,0-3.19-2.14c-0.48-.26-1-0.48-1.42-0.68l-0.62-.24-0.14,0-0.4-.14h0Z"/><path class="cls-3" d="M40,30.08c0-.35-0.06-0.75-0.07-1.19s0-1.16,0-1.74A25.43,25.43,0,0,1,40.51,23c0.17-.78.37-1.52,0.58-2.2s0.49-1.46.78-2.2a27.5,27.5,0,0,1,2-4.06,22.82,22.82,0,0,1,2.35-3.22c0.37-.42.75-0.82,1.13-1.17l0.5-.46,0.23-.2c0,0.1,0,.45,0,0.45,0,0.23,0,.48,0,0.74,0,0.56,0,1.14,0,1.74a26,26,0,0,1-.57,4.13A28.84,28.84,0,0,1,46.21,21c-0.29.72-.61,1.44-0.94,2.11s-0.67,1.29-1.07,2a22.41,22.41,0,0,1-2.35,3.21c-0.37.42-.75,0.82-1.13,1.17S40.21,29.89,40,30.08Z"/><path class="cls-4" d="M47.27,11.55c0,0.28,0,.56,0,0.85a24.88,24.88,0,0,1-.55,4,27.78,27.78,0,0,1-1.31,4.25c-0.29.71-.59,1.4-0.91,2.06s-0.65,1.24-1,1.88a21.51,21.51,0,0,1-2.25,3.08l-0.37.41c0-.29,0-0.58,0-0.87a24.55,24.55,0,0,1,.55-4c0.17-.75.36-1.47,0.56-2.13s0.47-1.42.75-2.12a26.6,26.6,0,0,1,2-3.93,21.79,21.79,0,0,1,2.26-3.09l0.35-.39M48.78,7.9l-0.28.18-0.32.23-0.41.32c-0.15.12-.31,0.26-0.48,0.4s-0.35.31-.54,0.49c-0.37.36-.78,0.77-1.18,1.23a23.49,23.49,0,0,0-2.45,3.34A28.52,28.52,0,0,0,41,18.29c-0.29.74-.56,1.5-0.8,2.26s-0.44,1.52-.6,2.28A26.26,26.26,0,0,0,39,27.1c0,0.65,0,1.26,0,1.81s0.05,1,.09,1.45c0,0.21,0,.39.07,0.55s0,0.3.06,0.42,0.07,0.35.07,0.35l0.28-.18,0.32-.22L40.31,31c0.3-.24.65-0.54,1-0.89s0.78-.77,1.19-1.23A23.21,23.21,0,0,0,45,25.51c0.39-.64.76-1.32,1.11-2s0.67-1.43,1-2.18a29.75,29.75,0,0,0,1.4-4.54A26.56,26.56,0,0,0,49,12.49c0-.65,0-1.26,0-1.81,0-.27,0-0.53,0-0.78S49,9.43,49,9.23s0-.39-0.06-0.55,0-.3-0.06-0.42S48.78,7.9,48.78,7.9h0Z"/><path class="cls-5" d="M39.3,32.44a0.75,0.75,0,0,1-.73-0.57s0-.14-0.08-0.41,0-.27-0.07-0.45,0-.35-0.07-0.57c0-.42-0.08-0.94-0.1-1.51s0-1.25,0-1.87a27.17,27.17,0,0,1,.61-4.4c0.18-.82.39-1.61,0.62-2.34S40,18.79,40.34,18a29.22,29.22,0,0,1,2.14-4.31A24.43,24.43,0,0,1,45,10.25c0.4-.46.82-0.89,1.23-1.28q0.29-.28.57-0.52l0.1-.09L47.31,8l0.43-.33,0.34-.24,0.32-.21a0.76,0.76,0,0,1,.67,0,0.75,0.75,0,0,1,.43.52s0,0.14.08,0.4,0,0.29.07,0.45,0,0.36.07,0.58,0,0.34,0,.54V9.85c0,0.25,0,.53,0,0.81,0,0.6,0,1.23,0,1.87a27.53,27.53,0,0,1-.61,4.4,30.44,30.44,0,0,1-1.43,4.65c-0.31.77-.64,1.52-1,2.23s-0.7,1.36-1.14,2.08a24,24,0,0,1-2.52,3.45c-0.4.45-.82,0.88-1.23,1.28s-0.76.68-1.08,0.93l-0.44.34L40,32.14l-0.33.21A0.76,0.76,0,0,1,39.3,32.44ZM48.22,9.22l-0.34.28-0.11.09-0.51.46c-0.38.36-.77,0.76-1.14,1.19a22.9,22.9,0,0,0-2.37,3.24,27.7,27.7,0,0,0-2,4.09c-0.29.74-.55,1.48-0.78,2.2S40.53,22.2,40.36,23a25.66,25.66,0,0,0-.57,4.15c0,0.59,0,1.18,0,1.75s0,1,.09,1.4v0.09c0.28-.23.61-0.51,1-0.84s0.77-.76,1.14-1.18a22.59,22.59,0,0,0,2.36-3.24c0.41-.68.76-1.32,1.08-2s0.65-1.4.94-2.13a28.9,28.9,0,0,0,1.36-4.42,26.14,26.14,0,0,0,.57-4.16c0-.6,0-1.19,0-1.75q0-.39,0-0.74V9.8c0-.17,0-0.33,0-0.49V9.22Z"/><path class="cls-3" d="M37.86,29.25c-0.1-.32-0.2-0.68-0.3-1.07s-0.25-1.12-.34-1.7a25.55,25.55,0,0,1-.32-4.16c0-.82,0-1.57.1-2.29s0.16-1.55.29-2.35a28.92,28.92,0,0,1,1.1-4.49A24.51,24.51,0,0,1,40,9.42c0.27-.51.56-1,0.85-1.45,0.14-.21.27-0.4,0.39-0.58l0.18-.25L41.52,7.5c0.07,0.22.13,0.46,0.19,0.71,0.13,0.55.25,1.12,0.34,1.7a25.87,25.87,0,0,1,.32,4.17A29.72,29.72,0,0,1,42,18.72c-0.13.79-.29,1.56-0.46,2.3s-0.38,1.44-.63,2.19A24.16,24.16,0,0,1,39.29,27c-0.27.51-.56,1-0.85,1.45S38,29,37.86,29.25Z"/><path class="cls-4" d="M41,9.38q0.07,0.33.12,0.68a25,25,0,0,1,.31,4,28.7,28.7,0,0,1-.37,4.49c-0.13.77-.28,1.53-0.45,2.25S40.28,22.2,40,22.92a23.22,23.22,0,0,1-1.55,3.62L38.23,27q-0.07-.35-0.13-0.7a24.69,24.69,0,0,1-.31-4c0-.78,0-1.53.1-2.22s0.16-1.5.28-2.27a28.16,28.16,0,0,1,1.07-4.36,23.52,23.52,0,0,1,1.55-3.62L41,9.38m0.68-4-0.23.25-0.26.3-0.33.42c-0.12.16-.25,0.33-0.38,0.52s-0.28.4-.42,0.62c-0.29.45-.59,1-0.89,1.51a25.21,25.21,0,0,0-1.67,3.9,30.08,30.08,0,0,0-1.14,4.63c-0.13.8-.23,1.61-0.3,2.41s-0.1,1.6-.1,2.37a26.37,26.37,0,0,0,.33,4.31c0.1,0.64.23,1.24,0.36,1.77s0.27,1,.4,1.39c0.06,0.19.12,0.37,0.18,0.52s0.11,0.28.15,0.39S37.55,31,37.55,31l0.24-.25,0.26-.3L38.38,30c0.24-.31.52-0.7,0.81-1.14s0.59-1,.89-1.51a24.92,24.92,0,0,0,1.67-3.9c0.24-.73.46-1.48,0.65-2.26s0.35-1.57.48-2.37a30.69,30.69,0,0,0,.4-4.78,26.7,26.7,0,0,0-.33-4.31c-0.1-.64-0.23-1.24-0.36-1.77-0.06-.27-0.13-0.51-0.2-0.75s-0.13-.45-0.19-0.64S42.07,6.24,42,6.09s-0.11-.28-0.15-0.39-0.14-.33-0.14-0.33h0Z"/><path class="cls-5" d="M37.55,31.76H37.42a0.75,0.75,0,0,1-.54-0.41s-0.06-.13-0.16-0.37-0.11-.26-0.16-0.42-0.12-.33-0.19-0.54c-0.13-.4-0.28-0.88-0.41-1.44s-0.27-1.2-.37-1.83a27.33,27.33,0,0,1-.34-4.43c0-.87,0-1.67.11-2.44s0.17-1.63.31-2.46a30.64,30.64,0,0,1,1.17-4.75,26.16,26.16,0,0,1,1.72-4c0.29-.54.6-1.07,0.92-1.57,0.15-.23.3-0.45,0.45-0.66L40,6.32c0.12-.16.22-0.31,0.33-0.45l0.34-.43,0.28-.32,0.27-.28a0.75,0.75,0,0,1,1.2.21s0.06,0.13.16,0.37,0.11,0.26.16,0.42,0.12,0.33.19,0.54,0.1,0.33.16,0.52l0,0.14c0.07,0.24.14,0.51,0.21,0.78,0.14,0.59.27,1.2,0.37,1.83A27.61,27.61,0,0,1,44,14.08a31.45,31.45,0,0,1-.41,4.9c-0.14.84-.3,1.65-0.49,2.43s-0.4,1.53-.67,2.32a25.87,25.87,0,0,1-1.72,4c-0.3.55-.61,1.08-0.93,1.57s-0.59.86-.84,1.19l-0.36.45-0.25.29c-0.19.21-.29,0.31-0.29,0.31A0.75,0.75,0,0,1,37.55,31.76ZM41.47,6.82l-0.27.37-0.08.11c-0.13.18-.27,0.38-0.4,0.59-0.3.47-.59,1-0.86,1.46a24.48,24.48,0,0,0-1.62,3.78,29.11,29.11,0,0,0-1.11,4.52c-0.13.79-.23,1.59-0.29,2.35s-0.1,1.49-.1,2.31a25.84,25.84,0,0,0,.32,4.19c0.09,0.59.21,1.16,0.35,1.71s0.26,1,.38,1.33v0c0.23-.29.49-0.66,0.76-1.08s0.59-.95.86-1.46A24.24,24.24,0,0,0,41,23.25c0.25-.75.46-1.49,0.63-2.2s0.34-1.52.47-2.32a29.78,29.78,0,0,0,.39-4.66,26.09,26.09,0,0,0-.32-4.19C42.11,9.3,42,8.72,41.86,8.17c-0.06-.25-0.12-0.49-0.19-0.71l0-.14c0-.17-0.09-0.32-0.14-0.46v0Z"/><path class="cls-3" d="M29.62,30.08c-0.23-.19-0.48-0.41-0.74-0.66s-0.76-.75-1.13-1.17A22.33,22.33,0,0,1,25.4,25c-0.4-.66-0.76-1.31-1.07-2S23.68,21.7,23.39,21A28.69,28.69,0,0,1,22,16.58a25.85,25.85,0,0,1-.57-4.13c0-.59,0-1.17,0-1.74,0-.26,0-0.5,0-0.73s0-.33,0-0.45l0.22,0.19,0.5,0.46c0.38,0.36.76,0.76,1.13,1.18a22.69,22.69,0,0,1,2.35,3.22,27.51,27.51,0,0,1,2,4.06c0.29,0.73.55,1.47,0.78,2.19s0.41,1.43.58,2.2a25.54,25.54,0,0,1,.57,4.13c0,0.59,0,1.18,0,1.74S29.65,29.73,29.62,30.08Z"/><path class="cls-4" d="M22.34,11.55l0.36,0.39A21.8,21.8,0,0,1,25,15,26.57,26.57,0,0,1,26.9,19c0.28,0.72.54,1.44,0.76,2.14s0.4,1.38.56,2.13a24.56,24.56,0,0,1,.55,4c0,0.29,0,.58,0,0.87l-0.37-.41a21.52,21.52,0,0,1-2.25-3.08c-0.39-.64-0.73-1.27-1-1.89s-0.62-1.34-.91-2a27.83,27.83,0,0,1-1.31-4.27,24.89,24.89,0,0,1-.55-4c0-.28,0-0.57,0-0.85M20.82,7.9s0,0.13-.07.35,0,0.25-.06.42,0,0.35-.06.55,0,0.43-.05.67,0,0.5,0,.78c0,0.55,0,1.16,0,1.81a26.56,26.56,0,0,0,.59,4.28,29.75,29.75,0,0,0,1.4,4.54c0.3,0.74.62,1.47,1,2.18s0.72,1.38,1.11,2a23.22,23.22,0,0,0,2.45,3.34c0.41,0.46.81,0.87,1.19,1.23s0.73,0.65,1,.89l0.41,0.31L30,31.51l0.28,0.18s0-.13.07-0.35,0-.26.06-0.42,0-.35.07-0.55c0-.41.08-0.9,0.09-1.45s0-1.16,0-1.81A26.25,26.25,0,0,0,30,22.82c-0.17-.75-0.37-1.52-0.6-2.28s-0.51-1.52-.8-2.26a28.54,28.54,0,0,0-2.08-4.2A23.48,23.48,0,0,0,24,10.75c-0.41-.46-0.81-0.88-1.18-1.23C22.67,9.34,22.49,9.17,22.32,9S22,8.74,21.83,8.62l-0.41-.32L21.1,8.08,20.82,7.9h0Z"/><path class="cls-5" d="M30.3,32.44a0.75,0.75,0,0,1-.37-0.1l-0.33-.21-0.35-.25-0.43-.33c-0.31-.25-0.68-0.56-1.07-0.93s-0.84-.83-1.23-1.28A24.09,24.09,0,0,1,24,25.9c-0.42-.7-0.81-1.4-1.14-2.08s-0.68-1.46-1-2.23a30.39,30.39,0,0,1-1.43-4.66,27.57,27.57,0,0,1-.61-4.4c0-.63,0-1.26,0-1.87,0-.29,0-0.56,0-0.82s0-.51.06-0.7,0-.4.07-0.58,0-.31.07-0.44,0.08-.4.08-0.4a0.75,0.75,0,0,1,.43-0.52,0.76,0.76,0,0,1,.67,0l0.33,0.21,0.34,0.24L22.3,8l0.4,0.33,0.1,0.09q0.28,0.23.57,0.52c0.41,0.39.83,0.82,1.23,1.28a24.36,24.36,0,0,1,2.53,3.45A29.22,29.22,0,0,1,29.26,18c0.31,0.78.59,1.56,0.82,2.32s0.44,1.51.62,2.33a27.2,27.2,0,0,1,.61,4.4c0,0.64,0,1.27,0,1.87s-0.05,1.08-.1,1.51c0,0.22,0,.41-0.07.59s0,0.31-.07.43-0.08.4-.08,0.4A0.75,0.75,0,0,1,30.3,32.44ZM21.38,9.22V9.3c0,0.18,0,.37,0,0.57s0,0.57,0,.83c0,0.58,0,1.17,0,1.76a26,26,0,0,0,.57,4.15A28.85,28.85,0,0,0,23.25,21c0.29,0.73.61,1.44,0.94,2.12s0.67,1.3,1.08,2a22.56,22.56,0,0,0,2.37,3.24c0.37,0.42.75,0.82,1.14,1.18s0.68,0.61,1,.84V30.29c0-.4.07-0.87,0.09-1.4s0-1.16,0-1.75A25.68,25.68,0,0,0,29.24,23c-0.17-.78-0.37-1.52-0.59-2.21s-0.49-1.47-.78-2.21a27.72,27.72,0,0,0-2-4.08,22.88,22.88,0,0,0-2.37-3.24c-0.37-.42-0.76-0.82-1.14-1.18L21.83,9.6l-0.11-.09Z"/><path class="cls-3" d="M32,29.25c-0.18-.25-0.38-0.53-0.58-0.84s-0.59-.95-0.85-1.44A24.09,24.09,0,0,1,29,23.21c-0.26-.77-0.46-1.48-0.63-2.19S28,19.5,27.86,18.71a29.58,29.58,0,0,1-.38-4.64,25.62,25.62,0,0,1,.32-4.17c0.09-.58.21-1.16,0.34-1.7,0.06-.25.12-0.49,0.19-0.71l0.11-.36,0.18,0.24C28.74,7.57,28.87,7.76,29,8c0.29,0.45.58,0.94,0.85,1.45a24.53,24.53,0,0,1,1.61,3.76,29,29,0,0,1,1.1,4.49c0.13,0.79.22,1.58,0.29,2.34s0.1,1.5.1,2.3a25.42,25.42,0,0,1-.32,4.16c-0.09.58-.21,1.15-0.34,1.7C32.2,28.57,32.09,28.93,32,29.25Z"/><path class="cls-4" d="M28.81,9.38l0.26,0.47a23.53,23.53,0,0,1,1.55,3.62,28.13,28.13,0,0,1,1.06,4.34c0.12,0.77.22,1.54,0.28,2.28s0.09,1.44.1,2.22a24.71,24.71,0,0,1-.31,4c0,0.24-.08.47-0.13,0.7l-0.27-.49a23.23,23.23,0,0,1-1.54-3.61c-0.24-.73-0.45-1.44-0.61-2.12s-0.32-1.47-.45-2.23a28.76,28.76,0,0,1-.37-4.51,25,25,0,0,1,.31-4q0.06-.34.12-0.67m-0.68-4S28.07,5.49,28,5.7s-0.1.24-.15,0.39-0.12.33-.18,0.52-0.13.41-.2,0.64-0.14.48-.2,0.75c-0.13.53-.25,1.13-0.36,1.77a26.69,26.69,0,0,0-.33,4.31,30.69,30.69,0,0,0,.4,4.78c0.13,0.8.29,1.6,0.48,2.37s0.41,1.53.65,2.26a24.92,24.92,0,0,0,1.67,3.9c0.3,0.56.6,1.07,0.89,1.51s0.57,0.83.81,1.14l0.33,0.42,0.26,0.3L32.3,31s0.06-.11.14-0.33,0.1-.24.15-0.39,0.12-.33.18-0.52c0.13-.39.27-0.86,0.4-1.39s0.25-1.13.36-1.77a26.39,26.39,0,0,0,.33-4.31c0-.78,0-1.57-0.1-2.37s-0.17-1.61-.3-2.41a30.1,30.1,0,0,0-1.14-4.63A25.22,25.22,0,0,0,30.65,9c-0.3-.56-0.6-1.07-0.89-1.51-0.14-.22-0.28-0.43-0.42-0.62S29.08,6.5,29,6.34l-0.33-.42-0.26-.3-0.23-.25h0Z"/><path class="cls-5" d="M32.3,31.76a0.76,0.76,0,0,1-.52-0.21s-0.1-.1-0.28-0.29l-0.28-.33-0.35-.43c-0.25-.32-0.54-0.72-0.84-1.19s-0.64-1-.92-1.57a25.84,25.84,0,0,1-1.72-4c-0.27-.8-0.49-1.58-0.67-2.32s-0.35-1.59-.49-2.43a31.33,31.33,0,0,1-.41-4.9,27.42,27.42,0,0,1,.34-4.43c0.1-.62.22-1.23,0.37-1.82,0.07-.28.14-0.54,0.21-0.78l0-.14c0.06-.19.11-0.37,0.17-0.53s0.12-.38.19-0.54l0.13-.35c0.12-.29.18-0.42,0.18-0.42a0.75,0.75,0,0,1,1.2-.21l0.27,0.29,0.29,0.33,0.34,0.43,0.33,0.44,0.07,0.09c0.14,0.2.29,0.42,0.44,0.65,0.32,0.49.63,1,.92,1.56a26.17,26.17,0,0,1,1.72,4A30.69,30.69,0,0,1,34.2,17.4c0.13,0.84.24,1.67,0.31,2.47s0.1,1.59.11,2.43a27.12,27.12,0,0,1-.34,4.43c-0.1.62-.23,1.23-0.37,1.83s-0.28,1-.41,1.45c-0.07.2-.13,0.39-0.19,0.55s-0.1.28-.15,0.39S33,31.34,33,31.34a0.75,0.75,0,0,1-.54.41H32.3ZM28.38,6.82h0c-0.06.16-.1,0.32-0.15,0.48l0,0.14c-0.07.22-.13,0.46-0.19,0.71-0.13.55-.25,1.13-0.34,1.71a26,26,0,0,0-.32,4.19,29.76,29.76,0,0,0,.39,4.67c0.13,0.79.29,1.57,0.47,2.32s0.38,1.44.63,2.2A24.29,24.29,0,0,0,30.43,27c0.27,0.5.56,1,.86,1.46s0.53,0.78.76,1.07v0c0.13-.38.26-0.83,0.38-1.34s0.25-1.13.35-1.71a25.63,25.63,0,0,0,.32-4.19c0-.8,0-1.58-0.1-2.31s-0.17-1.56-.29-2.36a29.15,29.15,0,0,0-1.11-4.51A24.43,24.43,0,0,0,30,9.35c-0.27-.51-0.56-1-0.86-1.46-0.14-.21-0.27-0.41-0.4-0.58l-0.07-.1Z"/><path class="cls-3" d="M35.17,29.42c-0.14-.28-0.29-0.6-0.45-1s-0.42-1-.61-1.6a25.12,25.12,0,0,1-1-4C33,22,32.92,21.28,32.86,20.56s-0.09-1.56-.09-2.37a29.58,29.58,0,0,1,.36-4.64,25.4,25.4,0,0,1,1-4c0.18-.55.39-1.09,0.61-1.6,0.1-.23.2-0.45,0.3-0.65L35.17,7l0.14,0.29c0.1,0.2.2,0.42,0.3,0.65,0.22,0.5.42,1,.61,1.6a25.26,25.26,0,0,1,1,4,29.66,29.66,0,0,1,.36,4.65c0,0.8,0,1.6-.09,2.36s-0.14,1.47-.27,2.28a25.1,25.1,0,0,1-1,4c-0.19.55-.39,1.09-0.61,1.6S35.31,29.14,35.17,29.42Z"/><path class="cls-4" d="M35.17,9.25l0.2,0.56a24.5,24.5,0,0,1,.95,3.89,28.7,28.7,0,0,1,.35,4.49c0,0.79,0,1.56-.09,2.3s-0.14,1.44-.26,2.2a24.19,24.19,0,0,1-.94,3.88l-0.21.58L35,26.57A24.17,24.17,0,0,1,34,22.7c-0.12-.77-0.21-1.51-0.26-2.21S33.68,19,33.67,18.2A28.73,28.73,0,0,1,34,13.69,24.49,24.49,0,0,1,35,9.81l0.2-.56m0-4.09s-0.07.1-.19,0.29l-0.21.35c-0.08.14-.17,0.3-0.26,0.48s-0.19.38-.29,0.59-0.21.45-.32,0.7c-0.21.5-.43,1.06-0.63,1.67a26.18,26.18,0,0,0-1,4.17,30.68,30.68,0,0,0-.38,4.78c0,0.81,0,1.63.09,2.43s0.16,1.59.28,2.35a25.87,25.87,0,0,0,1,4.17c0.21,0.61.42,1.17,0.64,1.67s0.42,0.93.61,1.29c0.09,0.18.18,0.34,0.26,0.48L35,30.93c0.12,0.19.19,0.29,0.19,0.29s0.07-.1.19-0.29l0.21-.35c0.08-.14.17-0.3,0.26-0.48,0.19-.36.4-0.79,0.61-1.29s0.43-1.06.64-1.67a25.87,25.87,0,0,0,1-4.17c0.12-.76.22-1.55,0.28-2.35s0.09-1.62.09-2.43a30.68,30.68,0,0,0-.38-4.78,26.17,26.17,0,0,0-1-4.17c-0.2-.61-0.42-1.17-0.63-1.67-0.11-.25-0.21-0.48-0.32-0.7s-0.2-.41-0.29-0.59-0.18-.34-0.26-0.48l-0.21-.35c-0.12-.19-0.19-0.29-0.19-0.29h0Z"/><path class="cls-5" d="M35.17,32a0.75,0.75,0,0,1-.61-0.31s-0.08-.12-0.22-0.33l-0.23-.38c-0.08-.13-0.17-0.3-0.27-0.49-0.2-.37-0.42-0.82-0.64-1.34s-0.46-1.12-.66-1.72a27,27,0,0,1-1-4.3c-0.13-.85-0.23-1.65-0.28-2.42s-0.09-1.64-.09-2.48a31.13,31.13,0,0,1,.39-4.91,27.07,27.07,0,0,1,1-4.29c0.2-.58.42-1.17,0.66-1.72,0.11-.26.22-0.5,0.33-0.73l0.07-.14c0.08-.17.16-0.33,0.24-0.48s0.18-.35.27-0.5l0.22-.37c0.13-.21.21-0.33,0.21-0.33a0.75,0.75,0,0,1,.61-0.31h0a0.75,0.75,0,0,1,.61.31s0.08,0.12.22,0.34l0.22,0.38c0.08,0.14.17,0.31,0.27,0.5s0.16,0.31.24,0.48L36.8,6.54C36.91,6.77,37,7,37.13,7.27c0.23,0.55.45,1.13,0.65,1.72a27,27,0,0,1,1,4.3,31.15,31.15,0,0,1,.39,4.9c0,0.85,0,1.69-.09,2.49s-0.15,1.56-.28,2.42a26.84,26.84,0,0,1-1,4.3c-0.2.6-.42,1.18-0.66,1.72s-0.44,1-.64,1.34c-0.1.19-.19,0.36-0.28,0.51L36,31.33c-0.13.21-.21,0.33-0.21,0.33A0.75,0.75,0,0,1,35.17,32Zm0-25.33C35.09,6.78,35,6.91,35,7.06l-0.07.14c-0.1.21-.2,0.42-0.3,0.66-0.22.52-.43,1.06-0.61,1.61a25.5,25.5,0,0,0-1,4.05,29.7,29.7,0,0,0-.37,4.67c0,0.81,0,1.61.09,2.37S32.85,22,33,22.86a25.18,25.18,0,0,0,1,4.05c0.19,0.56.4,1.1,0.61,1.61s0.41,0.89.59,1.23c0.18-.34.38-0.76,0.59-1.23s0.43-1,.61-1.61a25.17,25.17,0,0,0,1-4.05c0.13-.81.22-1.56,0.27-2.29s0.09-1.57.09-2.38a29.74,29.74,0,0,0-.37-4.66,25.42,25.42,0,0,0-1-4.06c-0.19-.56-0.39-1.1-0.61-1.61-0.1-.24-0.2-0.46-0.3-0.66l-0.06-.13C35.31,6.92,35.24,6.77,35.17,6.64Z"/><path class="cls-6" d="M35,63.76A11.76,11.76,0,0,1,23.25,52V40.45a11.75,11.75,0,0,1,23.5,0V52A11.76,11.76,0,0,1,35,63.76Z"/><path class="cls-4" d="M35,29.8A10.66,10.66,0,0,1,45.65,40.45V52a10.65,10.65,0,0,1-21.3,0V40.45A10.66,10.66,0,0,1,35,29.8m0-2.2A12.85,12.85,0,0,0,22.15,40.45V52a12.85,12.85,0,0,0,25.7,0V40.45A12.85,12.85,0,0,0,35,27.6h0Z"/><path class="cls-5" d="M35,65.51A13.52,13.52,0,0,1,21.5,52V40.46a13.5,13.5,0,0,1,27,0V52A13.52,13.52,0,0,1,35,65.51Zm0-37.26a12.21,12.21,0,0,0-12.2,12.2V52a12.2,12.2,0,0,0,24.4,0V40.46A12.21,12.21,0,0,0,35,28.26Z"/><line class="cls-4" x1="22.15" y1="51.67" x2="35.17" y2="64.69"/><path class="cls-5" d="M35.17,65.34a0.65,0.65,0,0,1-.46-0.19l-13-13a0.65,0.65,0,0,1,.92-0.92l13,13A0.65,0.65,0,0,1,35.17,65.34Z"/><line class="cls-4" x1="22.35" y1="44.04" x2="41.39" y2="63.08"/><path class="cls-5" d="M41.39,63.73a0.65,0.65,0,0,1-.46-0.19l-19-19a0.65,0.65,0,0,1,.92-0.92l19,19A0.65,0.65,0,0,1,41.39,63.73Z"/><line class="cls-4" x1="22.85" y1="36.85" x2="45.25" y2="59.25"/><path class="cls-5" d="M45.25,59.9a0.65,0.65,0,0,1-.46-0.19l-22.4-22.4a0.65,0.65,0,0,1,.92-0.92l22.4,22.4A0.65,0.65,0,0,1,45.25,59.9Z"/><line class="cls-4" x1="25.87" y1="31.56" x2="47.65" y2="53.34"/><path class="cls-5" d="M47.65,54a0.65,0.65,0,0,1-.46-0.19L25.41,32a0.65,0.65,0,0,1,.92-0.92L48.11,52.88A0.65,0.65,0,0,1,47.65,54Z"/><line class="cls-4" x1="30.94" y1="28.33" x2="47.76" y2="45.15"/><path class="cls-5" d="M47.76,45.8a0.65,0.65,0,0,1-.46-0.19L30.48,28.79a0.65,0.65,0,1,1,.92-0.92L48.22,44.69A0.65,0.65,0,0,1,47.76,45.8Z"/><line class="cls-4" x1="47.83" y1="51.82" x2="34.81" y2="64.84"/><path class="cls-5" d="M34.81,65.49a0.65,0.65,0,0,1-.46-1.11l13-13a0.65,0.65,0,1,1,.92.92l-13,13A0.65,0.65,0,0,1,34.81,65.49Z"/><line class="cls-4" x1="47.83" y1="43.99" x2="28.73" y2="63.08"/><path class="cls-5" d="M28.73,63.73a0.65,0.65,0,0,1-.46-1.11l19.1-19.1a0.65,0.65,0,1,1,.92.92l-19.1,19.1A0.65,0.65,0,0,1,28.73,63.73Z"/><line class="cls-4" x1="47.27" y1="36.85" x2="24.72" y2="59.4"/><path class="cls-5" d="M24.72,60a0.65,0.65,0,0,1-.46-1.11L46.81,36.39a0.65,0.65,0,1,1,.92.92L25.18,59.86A0.65,0.65,0,0,1,24.72,60Z"/><line class="cls-4" x1="44.18" y1="31.63" x2="22.33" y2="53.49"/><path class="cls-5" d="M22.33,54.14A0.65,0.65,0,0,1,21.87,53L43.72,31.17a0.65,0.65,0,1,1,.92.92L22.79,53.95A0.65,0.65,0,0,1,22.33,54.14Z"/><line class="cls-4" x1="39.03" y1="28.48" x2="22.22" y2="45.3"/><path class="cls-5" d="M22.22,45.95a0.65,0.65,0,0,1-.46-1.11L38.57,28a0.65,0.65,0,1,1,.92.92L22.68,45.76A0.65,0.65,0,0,1,22.22,45.95Z"/><line class="cls-4" x1="31.25" y1="28.64" x2="22.59" y2="37.29"/><path class="cls-5" d="M22.59,37.94a0.65,0.65,0,0,1-.46-1.11l8.65-8.65a0.65,0.65,0,0,1,.92.92l-8.65,8.65A0.65,0.65,0,0,1,22.59,37.94Z"/><line class="cls-4" x1="38.79" y1="28.78" x2="47.44" y2="37.44"/><path class="cls-5" d="M47.44,38.09A0.65,0.65,0,0,1,47,37.9l-8.65-8.65a0.65,0.65,0,0,1,.92-0.92L47.9,37A0.65,0.65,0,0,1,47.44,38.09Z"/><path class="cls-5" d="M35.17,37.88a0.65,0.65,0,0,1-.65-0.65V36a0.65,0.65,0,1,1,1.3,0v1.25A0.65,0.65,0,0,1,35.17,37.88Z"/><path class="cls-5" d="M35.17,30.54a0.65,0.65,0,0,1-.65-0.65V28.64a0.65,0.65,0,1,1,1.3,0v1.25A0.65,0.65,0,0,1,35.17,30.54Z"/><path class="cls-5" d="M39.35,42a0.65,0.65,0,0,1-.65-0.65V40.11a0.65,0.65,0,1,1,1.3,0v1.25A0.65,0.65,0,0,1,39.35,42Z"/><path class="cls-5" d="M30.94,42a0.65,0.65,0,0,1-.65-0.65V40.11a0.65,0.65,0,1,1,1.3,0v1.25A0.65,0.65,0,0,1,30.94,42Z"/><path class="cls-5" d="M39.35,34.07a0.65,0.65,0,0,1-.65-0.65V32.17a0.65,0.65,0,0,1,1.3,0v1.25A0.65,0.65,0,0,1,39.35,34.07Z"/><path class="cls-5" d="M30.94,34.07a0.65,0.65,0,0,1-.65-0.65V32.17a0.65,0.65,0,0,1,1.3,0v1.25A0.65,0.65,0,0,1,30.94,34.07Z"/><path class="cls-5" d="M39.35,50.15a0.65,0.65,0,0,1-.65-0.65V48.25a0.65,0.65,0,0,1,1.3,0V49.5A0.65,0.65,0,0,1,39.35,50.15Z"/><path class="cls-5" d="M30.94,50.15a0.65,0.65,0,0,1-.65-0.65V48.25a0.65,0.65,0,0,1,1.3,0V49.5A0.65,0.65,0,0,1,30.94,50.15Z"/><path class="cls-5" d="M39.35,58a0.65,0.65,0,0,1-.65-0.65V56.08a0.65,0.65,0,0,1,1.3,0v1.25A0.65,0.65,0,0,1,39.35,58Z"/><path class="cls-5" d="M42.83,61.64A0.65,0.65,0,0,1,42.18,61V59.74a0.65,0.65,0,0,1,1.3,0V61A0.65,0.65,0,0,1,42.83,61.64Z"/><path class="cls-5" d="M27.46,61.64A0.65,0.65,0,0,1,26.81,61V59.74a0.65,0.65,0,0,1,1.3,0V61A0.65,0.65,0,0,1,27.46,61.64Z"/><path class="cls-5" d="M27.17,54a0.65,0.65,0,0,1-.65-0.65V52.08a0.65,0.65,0,0,1,1.3,0v1.25A0.65,0.65,0,0,1,27.17,54Z"/><path class="cls-5" d="M43.12,54a0.65,0.65,0,0,1-.65-0.65V52.08a0.65,0.65,0,0,1,1.3,0v1.25A0.65,0.65,0,0,1,43.12,54Z"/><path class="cls-5" d="M27.17,46.08a0.65,0.65,0,0,1-.65-0.65V44.18a0.65,0.65,0,1,1,1.3,0v1.25A0.65,0.65,0,0,1,27.17,46.08Z"/><path class="cls-5" d="M23.06,42a0.65,0.65,0,0,1-.65-0.65V40.11a0.65,0.65,0,1,1,1.3,0v1.25A0.65,0.65,0,0,1,23.06,42Z"/><path class="cls-5" d="M46.53,42a0.65,0.65,0,0,1-.65-0.65V40.11a0.65,0.65,0,1,1,1.3,0v1.25A0.65,0.65,0,0,1,46.53,42Z"/><path class="cls-5" d="M23.06,49.76a0.65,0.65,0,0,1-.65-0.65V47.86a0.65,0.65,0,1,1,1.3,0v1.25A0.65,0.65,0,0,1,23.06,49.76Z"/><path class="cls-5" d="M46.9,49.76a0.65,0.65,0,0,1-.65-0.65V47.86a0.65,0.65,0,1,1,1.3,0v1.25A0.65,0.65,0,0,1,46.9,49.76Z"/><path class="cls-5" d="M23.5,57.83a0.65,0.65,0,0,1-.65-0.65V55.93a0.65,0.65,0,1,1,1.3,0v1.25A0.65,0.65,0,0,1,23.5,57.83Z"/><path class="cls-5" d="M46.53,57.83a0.65,0.65,0,0,1-.65-0.65V55.93a0.65,0.65,0,1,1,1.3,0v1.25A0.65,0.65,0,0,1,46.53,57.83Z"/><path class="cls-5" d="M43.12,46.08a0.65,0.65,0,0,1-.65-0.65V44.18a0.65,0.65,0,1,1,1.3,0v1.25A0.65,0.65,0,0,1,43.12,46.08Z"/><path class="cls-5" d="M27.17,38a0.65,0.65,0,0,1-.65-0.65V36.14a0.65,0.65,0,0,1,1.3,0v1.25A0.65,0.65,0,0,1,27.17,38Z"/><path class="cls-5" d="M43.12,38a0.65,0.65,0,0,1-.65-0.65V36.14a0.65,0.65,0,0,1,1.3,0v1.25A0.65,0.65,0,0,1,43.12,38Z"/><path class="cls-5" d="M30.94,58a0.65,0.65,0,0,1-.65-0.65V56.08a0.65,0.65,0,0,1,1.3,0v1.25A0.65,0.65,0,0,1,30.94,58Z"/><path class="cls-5" d="M35.17,45.8a0.65,0.65,0,0,1-.65-0.65V43.9a0.65,0.65,0,0,1,1.3,0v1.25A0.65,0.65,0,0,1,35.17,45.8Z"/><path class="cls-5" d="M35.17,54.36a0.65,0.65,0,0,1-.65-0.65V52.46a0.65,0.65,0,0,1,1.3,0v1.25A0.65,0.65,0,0,1,35.17,54.36Z"/><path class="cls-5" d="M35.17,61.84a0.65,0.65,0,0,1-.65-0.65V59.94a0.65,0.65,0,0,1,1.3,0v1.25A0.65,0.65,0,0,1,35.17,61.84Z"/></g></g></g></svg>