<svg id="Layer_1" data-name="Layer 1" xmlns="http://www.w3.org/2000/svg" viewBox="0 0 70 70"><defs><style>.cls-1{fill:#231f20;}.cls-2{fill:#78c144;}.cls-3{fill:#fff;}.cls-4{fill:#cc4140;}</style></defs><title>fruit</title><path class="cls-1" d="M35.12,22.46A0.6,0.6,0,0,1,34.55,22c-0.07-.23-1.55-5.54,2.14-7.78a0.6,0.6,0,0,1,.62,1c-2.9,1.76-1.62,6.37-1.61,6.42a0.6,0.6,0,0,1-.41.74Z"/><path class="cls-2" d="M33.72,20.55A6.59,6.59,0,0,1,27,14.34C29.27,14.49,33.08,15.5,33.72,20.55Z"/><path class="cls-3" d="M28.3,15.53a5.43,5.43,0,0,1,4.13,3.86,5.25,5.25,0,0,1-4.13-3.86m-1.95-2.21H25.94c0.3,7.59,6.25,8.22,8.23,8.22,0.4,0,.63,0,0.63,0-0.3-7.7-6.74-8.21-8.45-8.21h0Z"/><path class="cls-1" d="M34.16,22.16a9.3,9.3,0,0,1-6-2,9,9,0,0,1-2.83-6.76,0.6,0.6,0,0,1,.55-0.62,9.87,9.87,0,0,1,6.75,2.18,8.88,8.88,0,0,1,2.76,6.59,0.6,0.6,0,0,1-.54.62S34.57,22.16,34.16,22.16Zm-7.58-8.23A7.53,7.53,0,0,0,29,19.2,8.18,8.18,0,0,0,34.17,21a7.46,7.46,0,0,0-2.32-5.14A8.46,8.46,0,0,0,26.58,13.92Z"/><circle class="cls-4" cx="35" cy="52.39" r="3.08"/><path class="cls-3" d="M35,50.32h0a2.08,2.08,0,1,1-1.47.61A2.08,2.08,0,0,1,35,50.32m0-2h0a4.08,4.08,0,0,0,0,8.16h0a4.08,4.08,0,0,0,0-8.16h0Z"/><path class="cls-1" d="M35,57.22a4.83,4.83,0,1,1,4.83-4.83h0A4.83,4.83,0,0,1,35,57.22h0Zm0-8.16a3.33,3.33,0,1,0,0,6.66h0A3.33,3.33,0,0,0,35,49.07Z"/><path class="cls-4" d="M31.81,53.46a3.08,3.08,0,1,1,3.08-3.08A3.08,3.08,0,0,1,31.81,53.46Z"/><path class="cls-3" d="M31.81,48.31h0a2.08,2.08,0,1,1-1.47.61,2.08,2.08,0,0,1,1.47-.61m0-2h0a4.08,4.08,0,0,0,0,8.16h0a4.08,4.08,0,0,0,0-8.16h0Z"/><path class="cls-1" d="M31.81,55.21a4.83,4.83,0,1,1,4.83-4.83h0A4.83,4.83,0,0,1,31.81,55.21Zm0-8.16a3.33,3.33,0,1,0,3.33,3.33A3.31,3.31,0,0,0,31.81,47.06Z"/><circle class="cls-4" cx="38.28" cy="50.15" r="3.08"/><path class="cls-3" d="M38.28,48.07h0a2.08,2.08,0,1,1-2.08,2.08,2.08,2.08,0,0,1,2.08-2.08m0-2h0a4.08,4.08,0,0,0,0,8.16h0a4.08,4.08,0,0,0,0-8.16h0Z"/><path class="cls-1" d="M38.19,55A4.83,4.83,0,1,1,43,50.15h0A4.83,4.83,0,0,1,38.19,55Zm0-8.16a3.33,3.33,0,1,0,3.33,3.33h0A3.33,3.33,0,0,0,38.19,46.82Z"/><path class="cls-4" d="M29.23,47.94a3.08,3.08,0,1,1,3.08-3.08,3.08,3.08,0,0,1-3.08,3.08h0Z"/><path class="cls-3" d="M29.23,42.79h0a2.08,2.08,0,1,1-1.47.61,2.08,2.08,0,0,1,1.47-.61m0-2h0a4.08,4.08,0,0,0,0,8.16h0a4.08,4.08,0,0,0,0-8.16h0Z"/><path class="cls-1" d="M29.15,49.69a4.83,4.83,0,1,1,0-9.66h0A4.83,4.83,0,0,1,34,44.87h0A4.83,4.83,0,0,1,29.15,49.69Zm0-8.16h0a3.33,3.33,0,1,0,2.35,1,3.31,3.31,0,0,0-2.35-1Z"/><circle class="cls-4" cx="40.77" cy="44.87" r="3.08"/><path class="cls-3" d="M40.77,42.79a2.08,2.08,0,1,1-2.08,2.08,2.08,2.08,0,0,1,2.08-2.08m0-2a4.08,4.08,0,1,0,4.08,4.08,4.08,4.08,0,0,0-4.08-4.08h0Z"/><path class="cls-1" d="M40.85,49.69a4.83,4.83,0,1,1,0-9.66h0a4.83,4.83,0,0,1,4.83,4.83h0A4.83,4.83,0,0,1,40.85,49.69Zm0-8.16h0a3.33,3.33,0,1,0,3.33,3.33h0A3.33,3.33,0,0,0,40.85,41.54Z"/><circle class="cls-4" cx="35.17" cy="44.37" r="3.08"/><path class="cls-3" d="M35.17,42.29a2.08,2.08,0,1,1-2.08,2.08,2.08,2.08,0,0,1,2.08-2.08m0-2a4.08,4.08,0,1,0,4.08,4.08,4.08,4.08,0,0,0-4.08-4.08h0Z"/><path class="cls-1" d="M35,49.19a4.83,4.83,0,1,1,4.83-4.83A4.8,4.8,0,0,1,35,49.19h0ZM35,41a3.33,3.33,0,1,0,0,6.66h0A3.33,3.33,0,0,0,35,41Z"/><circle class="cls-4" cx="25.15" cy="39.1" r="3.08"/><path class="cls-3" d="M25.15,37h0a2.08,2.08,0,1,1-2.08,2.08A2.08,2.08,0,0,1,25.15,37m0-2h0a4.08,4.08,0,0,0,0,8.16h0a4.08,4.08,0,0,0,0-8.16h0Z"/><path class="cls-1" d="M25.15,43.93A4.83,4.83,0,1,1,30,39.1,4.83,4.83,0,0,1,25.15,43.93Zm0-8.16a3.33,3.33,0,1,0,3.33,3.33A3.33,3.33,0,0,0,25.15,35.77Z"/><circle class="cls-4" cx="44.85" cy="39.1" r="3.08"/><path class="cls-3" d="M44.85,37a2.08,2.08,0,1,1-2.08,2.08A2.08,2.08,0,0,1,44.85,37m0-2a4.08,4.08,0,1,0,4.08,4.08A4.08,4.08,0,0,0,44.85,35h0Z"/><path class="cls-1" d="M44.85,43.93a4.83,4.83,0,1,1,4.83-4.83h0A4.83,4.83,0,0,1,44.85,43.93Zm0-8.16a3.33,3.33,0,1,0,3.33,3.33A3.33,3.33,0,0,0,44.85,35.77Z"/><circle class="cls-4" cx="38.28" cy="38.2" r="3.08"/><path class="cls-3" d="M38.28,36.12h0a2.08,2.08,0,1,1-1.47.61,2.08,2.08,0,0,1,1.47-.61m0-2h0a4.08,4.08,0,0,0,0,8.16h0a4.08,4.08,0,0,0,0-8.16h0Z"/><path class="cls-1" d="M38.28,43a4.83,4.83,0,0,1,0-9.66h0A4.83,4.83,0,0,1,38.28,43Zm0-8.16h0a3.33,3.33,0,1,0,2.35,1,3.33,3.33,0,0,0-2.35-1Z"/><path class="cls-4" d="M31.09,41.28a3.08,3.08,0,1,1,2.18-.9A3.08,3.08,0,0,1,31.09,41.28Z"/><path class="cls-3" d="M31.09,36.12h0A2.08,2.08,0,1,1,29,38.2a2.08,2.08,0,0,1,2.08-2.08m0-2h0a4.08,4.08,0,0,0,0,8.16h0a4.08,4.08,0,0,0,0-8.16h0Z"/><path class="cls-1" d="M31.09,43a4.83,4.83,0,1,1,4.83-4.83h0A4.83,4.83,0,0,1,31.09,43Zm0-8.16a3.33,3.33,0,1,0,3.33,3.33h0A3.33,3.33,0,0,0,31.09,34.87Z"/><path class="cls-4" d="M47.84,35.29a3.08,3.08,0,1,1,2.18-.9A3.08,3.08,0,0,1,47.84,35.29Z"/><path class="cls-3" d="M47.84,30.13a2.08,2.08,0,1,1-2.08,2.08,2.08,2.08,0,0,1,2.08-2.08m0-2a4.08,4.08,0,1,0,4.08,4.08,4.08,4.08,0,0,0-4.08-4.08h0Z"/><path class="cls-1" d="M47.84,37a4.83,4.83,0,1,1,4.83-4.83h0A4.83,4.83,0,0,1,47.84,37Zm0-8.16a3.33,3.33,0,1,0,3.33,3.33h0A3.33,3.33,0,0,0,47.84,28.88Z"/><circle class="cls-4" cx="22.16" cy="32.21" r="3.08"/><path class="cls-3" d="M22.16,30.13a2.08,2.08,0,1,1-2.08,2.08,2.08,2.08,0,0,1,2.08-2.08m0-2a4.08,4.08,0,1,0,4.08,4.08,4.08,4.08,0,0,0-4.08-4.08h0Z"/><path class="cls-1" d="M22.16,37A4.83,4.83,0,1,1,27,32.21,4.8,4.8,0,0,1,22.16,37h0Zm0-8.16a3.33,3.33,0,1,0,0,6.66h0A3.33,3.33,0,0,0,22.16,28.88Z"/><circle class="cls-4" cx="41.58" cy="32.21" r="3.08"/><path class="cls-3" d="M41.58,30.13h0a2.08,2.08,0,1,1-1.47.61,2.08,2.08,0,0,1,1.47-.61m0-2h0a4.08,4.08,0,0,0,0,8.16h0a4.08,4.08,0,0,0,0-8.16h0Z"/><path class="cls-1" d="M41.58,37a4.83,4.83,0,1,1,0-9.66h0A4.83,4.83,0,0,1,41.58,37Zm0-8.16h0a3.33,3.33,0,1,0,2.35,1,3.33,3.33,0,0,0-2.35-1Z"/><path class="cls-4" d="M28.23,35.29a3.08,3.08,0,1,1,3.08-3.08A3.08,3.08,0,0,1,28.23,35.29Z"/><path class="cls-3" d="M28.23,30.13h0a2.08,2.08,0,1,1-1.47.61,2.08,2.08,0,0,1,1.47-.61m0-2h0a4.08,4.08,0,0,0,0,8.16h0a4.08,4.08,0,0,0,0-8.16h0Z"/><path class="cls-1" d="M28.23,37a4.83,4.83,0,1,1,4.83-4.83A4.83,4.83,0,0,1,28.23,37Zm0-8.16a3.33,3.33,0,1,0,3.33,3.33A3.33,3.33,0,0,0,28.23,28.88Z"/><circle class="cls-4" cx="35" cy="32.21" r="3.08"/><path class="cls-3" d="M35,30.13a2.08,2.08,0,1,1-2.08,2.08A2.08,2.08,0,0,1,35,30.13m0-2a4.08,4.08,0,1,0,4.08,4.08A4.08,4.08,0,0,0,35,28.13h0Z"/><path class="cls-1" d="M34.92,37a4.83,4.83,0,1,1,4.83-4.83A4.83,4.83,0,0,1,34.92,37Zm0-8.16a3.33,3.33,0,1,0,3.33,3.33A3.33,3.33,0,0,0,34.92,28.88Z"/><path class="cls-4" d="M47,29.1A3.08,3.08,0,1,1,50.06,26,3.08,3.08,0,0,1,47,29.1Z"/><path class="cls-3" d="M47,23.94h0a2.08,2.08,0,1,1-1.47.61A2.08,2.08,0,0,1,47,23.94m0-2h0a4.08,4.08,0,0,0,0,8.16h0a4.08,4.08,0,0,0,0-8.16h0Z"/><path class="cls-1" d="M47,30.85A4.83,4.83,0,1,1,51.81,26h0A4.83,4.83,0,0,1,47,30.85Zm0-8.16A3.33,3.33,0,1,0,50.31,26,3.31,3.31,0,0,0,47,22.69Z"/><path class="cls-4" d="M23,29.1A3.08,3.08,0,1,1,26.1,26,3.08,3.08,0,0,1,23,29.1Z"/><path class="cls-3" d="M23,23.94A2.08,2.08,0,1,1,20.94,26,2.08,2.08,0,0,1,23,23.94m0-2A4.08,4.08,0,1,0,27.1,26,4.08,4.08,0,0,0,23,21.94h0Z"/><path class="cls-1" d="M23,30.85A4.83,4.83,0,1,1,27.85,26h0A4.83,4.83,0,0,1,23,30.85h0Zm0-8.16a3.33,3.33,0,1,0,0,6.66h0A3.33,3.33,0,0,0,23,22.69Z"/><path class="cls-4" d="M41.26,29.1a3.08,3.08,0,1,1,2.18-.9A3.08,3.08,0,0,1,41.26,29.1Z"/><path class="cls-3" d="M41.26,23.94h0a2.08,2.08,0,1,1-1.47.61,2.08,2.08,0,0,1,1.47-.61m0-2h0a4.08,4.08,0,0,0,0,8.16h0a4.08,4.08,0,0,0,0-8.16h0Z"/><path class="cls-1" d="M41.26,30.85a4.83,4.83,0,1,1,0-9.66h0A4.83,4.83,0,0,1,46.09,26h0A4.83,4.83,0,0,1,41.26,30.85Zm0-8.16h0A3.33,3.33,0,1,0,44.59,26h0A3.33,3.33,0,0,0,41.26,22.69Z"/><path class="cls-4" d="M28.71,29.1a3.08,3.08,0,1,1,2.18-.9A3.08,3.08,0,0,1,28.71,29.1Z"/><path class="cls-3" d="M28.71,23.94h0a2.08,2.08,0,1,1-1.47.61,2.08,2.08,0,0,1,1.47-.61m0-2h0a4.08,4.08,0,0,0,0,8.16h0a4.08,4.08,0,0,0,0-8.16h0Z"/><path class="cls-1" d="M28.71,30.85A4.83,4.83,0,1,1,33.54,26h0A4.83,4.83,0,0,1,28.71,30.85Zm0-8.16A3.33,3.33,0,1,0,32,26h0A3.33,3.33,0,0,0,28.71,22.69Z"/><circle class="cls-4" cx="35" cy="26.02" r="3.08"/><path class="cls-3" d="M35,23.94h0A2.08,2.08,0,1,1,32.92,26,2.08,2.08,0,0,1,35,23.94m0-2h0a4.08,4.08,0,0,0,0,8.16h0a4.08,4.08,0,0,0,0-8.16h0Z"/><path class="cls-1" d="M35,30.85A4.83,4.83,0,1,1,39.83,26,4.83,4.83,0,0,1,35,30.85Zm0-8.16A3.33,3.33,0,1,0,38.33,26,3.33,3.33,0,0,0,35,22.69Z"/></svg>