<svg id="Layer_1" data-name="Layer 1" xmlns="http://www.w3.org/2000/svg" viewBox="0 0 70 70"><defs><style>.cls-1{fill:#cc4140;}.cls-2{fill:#fff;}.cls-3{fill:#231f20;}.cls-4{fill:#78c144;}</style></defs><title>fruit</title><path class="cls-1" d="M25.47,33.39a2.21,2.21,0,0,1-.63-0.09,2.2,2.2,0,0,1-1.49-2.74,2.2,2.2,0,0,1,2.74-1.49,2.2,2.2,0,0,1,1.49,2.74A2.22,2.22,0,0,1,25.47,33.39Z"/><path class="cls-2" d="M25.47,30h0a1.2,1.2,0,1,1-.34,2.36,1.2,1.2,0,0,1-.81-1.5A1.21,1.21,0,0,1,25.47,30m0-2a3.21,3.21,0,1,0,.91.13A3.21,3.21,0,0,0,25.47,28h0Z"/><path class="cls-1" d="M36.22,46.38a3.36,3.36,0,1,1,1.39-.3A3.37,3.37,0,0,1,36.22,46.38Z"/><path class="cls-2" d="M36.21,40.66h0a2.36,2.36,0,0,1,1,4.51,2.34,2.34,0,0,1-1,.21,2.36,2.36,0,0,1-1-4.51,2.34,2.34,0,0,1,1-.21m0-2a4.36,4.36,0,1,0,4,2.56,4.34,4.34,0,0,0-4-2.56h0Z"/><path class="cls-1" d="M41.66,53.66a3.36,3.36,0,0,1-1.39-6.42,3.33,3.33,0,0,1,1.39-.3A3.36,3.36,0,0,1,43,53.36,3.34,3.34,0,0,1,41.66,53.66Z"/><path class="cls-2" d="M41.65,47.94h0a2.36,2.36,0,0,1,1,4.51,2.34,2.34,0,0,1-1,.21,2.36,2.36,0,0,1-1-4.51,2.34,2.34,0,0,1,1-.21m0-2a4.36,4.36,0,1,0,4,2.56,4.34,4.34,0,0,0-4-2.56h0Z"/><path class="cls-1" d="M28.08,59.83a3.36,3.36,0,0,1-1.39-6.42,3.33,3.33,0,0,1,1.39-.3,3.36,3.36,0,0,1,1.39,6.42A3.33,3.33,0,0,1,28.08,59.83Z"/><path class="cls-2" d="M28.08,54.11h0a2.36,2.36,0,0,1,1,4.51,2.34,2.34,0,0,1-1,.21,2.36,2.36,0,0,1-1-4.51,2.34,2.34,0,0,1,1-.21m0-2a4.36,4.36,0,1,0,4,2.56,4.34,4.34,0,0,0-4-2.56h0Z"/><path class="cls-1" d="M36.91,61a3.36,3.36,0,1,1,1.39-.3A3.37,3.37,0,0,1,36.91,61Z"/><path class="cls-2" d="M36.9,55.25h0a2.36,2.36,0,0,1,1,4.51,2.34,2.34,0,0,1-1,.21,2.36,2.36,0,0,1-1-4.51,2.34,2.34,0,0,1,1-.21m0-2a4.36,4.36,0,1,0,4,2.56,4.34,4.34,0,0,0-4-2.56h0Z"/><path class="cls-1" d="M55.14,60.43a3.37,3.37,0,0,1-3.06-2,3.36,3.36,0,0,1,3.06-4.75A3.36,3.36,0,0,1,55.14,60.43Z"/><path class="cls-2" d="M55.14,54.71h0a2.36,2.36,0,0,1,1,4.51,2.34,2.34,0,0,1-1,.21,2.36,2.36,0,0,1-1-4.51,2.34,2.34,0,0,1,1-.21m0-2a4.36,4.36,0,1,0,4,2.56,4.34,4.34,0,0,0-4-2.56h0Z"/><path class="cls-1" d="M50.37,53a3.37,3.37,0,0,1-3.06-2,3.36,3.36,0,0,1,3.06-4.75,3.36,3.36,0,0,1,3.15,4.54A3.37,3.37,0,0,1,50.37,53Z"/><path class="cls-2" d="M50.37,47.26h0a2.36,2.36,0,0,1,1,4.51,2.34,2.34,0,0,1-1,.21,2.36,2.36,0,0,1-1-4.51,2.34,2.34,0,0,1,1-.21m0-2a4.36,4.36,0,1,0,4,2.56,4.34,4.34,0,0,0-4-2.56h0Z"/><path class="cls-1" d="M58,52.13a1.57,1.57,0,0,1-.65-3A1.55,1.55,0,0,1,57.95,49a1.57,1.57,0,0,1,.65,3A1.55,1.55,0,0,1,58,52.13Z"/><path class="cls-2" d="M57.95,49.7h0a0.85,0.85,0,0,1,.35,1.63,0.85,0.85,0,0,1-.35.08,0.85,0.85,0,0,1-.35-1.63,0.85,0.85,0,0,1,.35-0.08m0-1.43A2.29,2.29,0,1,0,60,49.61a2.28,2.28,0,0,0-2.08-1.34h0Z"/><path class="cls-1" d="M40.23,39.05a1.12,1.12,0,0,1-1-.66,1.12,1.12,0,0,1,1-1.59A1.12,1.12,0,0,1,40.23,39.05Z"/><path class="cls-2" d="M40.23,37.31a0.63,0.63,0,0,1,.57.37,0.63,0.63,0,0,1-.57.88,0.63,0.63,0,0,1-.57-0.37,0.63,0.63,0,0,1,.57-0.88m0-1a1.62,1.62,0,1,0,1.47.95,1.61,1.61,0,0,0-1.47-.95h0Z"/><path class="cls-1" d="M19.14,56.52a3.36,3.36,0,0,1-1.39-6.42,3.33,3.33,0,0,1,1.39-.3A3.36,3.36,0,0,1,19.14,56.52Z"/><path class="cls-2" d="M19.14,50.8h0a2.36,2.36,0,0,1,1,4.51,2.34,2.34,0,0,1-1,.21,2.36,2.36,0,0,1-1-4.51,2.34,2.34,0,0,1,1-.21m0-2a4.36,4.36,0,1,0,4,2.56,4.35,4.35,0,0,0-4-2.56h0Z"/><path class="cls-1" d="M63.84,57.88a3.36,3.36,0,1,1,1.39-.3A3.33,3.33,0,0,1,63.84,57.88Z"/><path class="cls-2" d="M63.83,52.16h0a2.36,2.36,0,0,1,1,4.51,2.34,2.34,0,0,1-1,.21,2.36,2.36,0,0,1-1-4.51,2.34,2.34,0,0,1,1-.21m0-2a4.36,4.36,0,1,0,4,2.56,4.34,4.34,0,0,0-4-2.56h0Z"/><path class="cls-1" d="M46.42,61.43A3.36,3.36,0,1,1,49.64,59,3.36,3.36,0,0,1,46.42,61.43Z"/><path class="cls-2" d="M46.42,55.7h0a2.36,2.36,0,1,1-2.26,1.69,2.37,2.37,0,0,1,2.26-1.69m0-2a4.36,4.36,0,1,0,1.24.18,4.36,4.36,0,0,0-1.24-.18h0Z"/><path class="cls-1" d="M26.31,50a4.35,4.35,0,1,1,4.17-3.12A4.35,4.35,0,0,1,26.31,50Z"/><path class="cls-2" d="M26.31,42.25h0a3.35,3.35,0,1,1-3.21,2.4,3.36,3.36,0,0,1,3.21-2.4m0-2a5.36,5.36,0,1,0,1.52.22,5.36,5.36,0,0,0-1.52-.22h0Z"/><path class="cls-1" d="M20.74,40.74A3.36,3.36,0,1,1,24,38.34,3.36,3.36,0,0,1,20.74,40.74Z"/><path class="cls-2" d="M20.73,35h0a2.36,2.36,0,1,1-2.26,1.69A2.36,2.36,0,0,1,20.73,35m0-2A4.36,4.36,0,1,0,22,33.2,4.36,4.36,0,0,0,20.73,33h0Z"/><path class="cls-1" d="M45.45,45.65a3.36,3.36,0,1,1,3.22-2.41A3.35,3.35,0,0,1,45.45,45.65Z"/><path class="cls-2" d="M45.44,39.93h0a2.36,2.36,0,1,1-2.26,1.69,2.37,2.37,0,0,1,2.26-1.69m0-2a4.36,4.36,0,1,0,1.24.18,4.36,4.36,0,0,0-1.24-.18h0Z"/><path class="cls-1" d="M30,39.83a2.45,2.45,0,1,1,2.34-1.75A2.45,2.45,0,0,1,30,39.83Z"/><path class="cls-2" d="M30,35.83h0a1.55,1.55,0,1,1-1.48,1.11A1.55,1.55,0,0,1,30,35.83M30,34a3.34,3.34,0,1,0,.95.14A3.34,3.34,0,0,0,30,34h0Z"/><path class="cls-1" d="M32.33,33.27a2.08,2.08,0,1,1,2-1.49A2.08,2.08,0,0,1,32.33,33.27Z"/><path class="cls-2" d="M32.33,30.11h0a1.08,1.08,0,1,1-1,.78,1.08,1.08,0,0,1,1-.78m0-2a3.09,3.09,0,1,0,.88.13,3.08,3.08,0,0,0-.88-0.13h0Z"/><path class="cls-1" d="M36.13,37.47a1.59,1.59,0,1,1,1.52-1.14A1.59,1.59,0,0,1,36.13,37.47Z"/><path class="cls-2" d="M36.13,35h0a0.87,0.87,0,1,1-.84.63A0.88,0.88,0,0,1,36.13,35m0-1.43a2.31,2.31,0,1,0,.66.1,2.31,2.31,0,0,0-.66-0.1h0Z"/><path class="cls-1" d="M17.86,46.38a2.08,2.08,0,1,1,2-1.49A2.08,2.08,0,0,1,17.86,46.38Z"/><path class="cls-2" d="M17.86,43.21h0a1.08,1.08,0,1,1-1,.78,1.09,1.09,0,0,1,1-.78m0-2a3.09,3.09,0,1,0,.88.13,3.08,3.08,0,0,0-.88-0.13h0Z"/><path class="cls-1" d="M33.82,52.38a2.08,2.08,0,1,1,2-1.49A2.08,2.08,0,0,1,33.82,52.38Z"/><path class="cls-2" d="M33.82,49.21h0a1.08,1.08,0,1,1-1,.78,1.09,1.09,0,0,1,1-.78m0-2a3.09,3.09,0,1,0,.88.13,3.08,3.08,0,0,0-.88-0.13h0Z"/><path class="cls-3" d="M25.48,35.15a4,4,0,1,1,1.88-.48A4,4,0,0,1,25.48,35.15Zm0-6.41a2.45,2.45,0,1,0,.69.1A2.46,2.46,0,0,0,25.47,28.74Z"/><path class="cls-3" d="M36.22,48.13a5.12,5.12,0,1,1,2.11-.46A5.09,5.09,0,0,1,36.22,48.13Zm0-8.72a3.61,3.61,0,1,0,3.29,2.12A3.59,3.59,0,0,0,36.21,39.41Z"/><path class="cls-3" d="M41.66,55.41a5.11,5.11,0,1,1,4.65-7.23h0A5.12,5.12,0,0,1,41.66,55.41Zm0-8.72a3.61,3.61,0,1,0,3.29,2.12h0A3.62,3.62,0,0,0,41.66,46.69Z"/><path class="cls-3" d="M28.08,61.58a5.12,5.12,0,1,1,2.11-.46A5.09,5.09,0,0,1,28.08,61.58Zm0-8.72a3.62,3.62,0,1,0,1.27.23A3.6,3.6,0,0,0,28.08,52.85Z"/><path class="cls-3" d="M36.91,62.72a5.11,5.11,0,1,1,4.65-7.23h0A5.12,5.12,0,0,1,36.91,62.72Zm0-8.72a3.61,3.61,0,1,0,3.29,2.12h0A3.62,3.62,0,0,0,36.91,54Z"/><path class="cls-3" d="M55.15,62.18A5.11,5.11,0,1,1,59.79,55h0A5.11,5.11,0,0,1,55.15,62.18Zm0-8.72a3.61,3.61,0,1,0,3.29,2.12h0A3.62,3.62,0,0,0,55.14,53.46Z"/><path class="cls-3" d="M50.38,54.74a5.11,5.11,0,1,1,2.11-.46A5.12,5.12,0,0,1,50.38,54.74Zm0-8.72a3.61,3.61,0,1,0,3.29,2.12h0A3.62,3.62,0,0,0,50.37,46Z"/><path class="cls-3" d="M58,53.59a3,3,0,1,1,2.76-4.29h0A3,3,0,0,1,58,53.59Zm0-4.57a1.54,1.54,0,0,0-1.4,2.17A1.54,1.54,0,1,0,57.95,49Z"/><path class="cls-3" d="M40.23,40.13A2.21,2.21,0,0,1,39.45,40a2.2,2.2,0,1,1,2.78-3h0A2.21,2.21,0,0,1,40.23,40.13Zm0-3.24a1,1,0,1,0,.94.61A1,1,0,0,0,40.22,36.9Z"/><path class="cls-3" d="M19.15,58.27a5.11,5.11,0,1,1,2.11-.46A5.12,5.12,0,0,1,19.15,58.27Zm0-8.72a3.61,3.61,0,1,0,3.29,2.12A3.59,3.59,0,0,0,19.13,49.55Z"/><path class="cls-3" d="M63.84,59.63a5.11,5.11,0,1,1,4.65-7.23h0A5.12,5.12,0,0,1,63.84,59.63Zm0-8.72A3.61,3.61,0,1,0,67.12,53h0A3.62,3.62,0,0,0,63.83,50.91Z"/><path class="cls-3" d="M46.42,63.18a5.11,5.11,0,1,1,4.9-3.66h0A5.12,5.12,0,0,1,46.42,63.18Zm0-8.72a3.61,3.61,0,1,0,3.46,4.64h0A3.61,3.61,0,0,0,46.42,54.46Z"/><path class="cls-3" d="M26.31,51.71a6.1,6.1,0,1,1,5.86-4.37A6.07,6.07,0,0,1,26.31,51.71ZM26.3,41a4.62,4.62,0,1,0,1.31.19A4.63,4.63,0,0,0,26.3,41Z"/><path class="cls-3" d="M20.74,42.5a5.12,5.12,0,1,1,2.43-.62A5.12,5.12,0,0,1,20.74,42.5Zm0-8.72a3.61,3.61,0,1,0,3.46,4.63h0A3.61,3.61,0,0,0,20.74,33.77Z"/><path class="cls-3" d="M45.44,47.4a5.11,5.11,0,1,1,4.9-3.66h0A5.12,5.12,0,0,1,45.44,47.4Zm0-8.72a3.61,3.61,0,1,0,3.46,4.64h0A3.61,3.61,0,0,0,45.45,38.68Z"/><path class="cls-3" d="M30,41.62a4.24,4.24,0,1,1,4.07-3A4.23,4.23,0,0,1,30,41.62Zm0-6.68a2.45,2.45,0,1,0,.69.1A2.45,2.45,0,0,0,30,34.94Z"/><path class="cls-3" d="M32.33,35A3.83,3.83,0,1,1,36,32.28,3.81,3.81,0,0,1,32.33,35Zm0-6.17A2.34,2.34,0,1,0,33,29,2.37,2.37,0,0,0,32.33,28.86Z"/><path class="cls-3" d="M36.13,38.93a3.06,3.06,0,1,1,.87-6,3.06,3.06,0,0,1,2.06,3.8h0A3.06,3.06,0,0,1,36.13,38.93Zm0-4.61a1.56,1.56,0,0,0-.44,3,1.56,1.56,0,0,0,1.93-1.05h0A1.56,1.56,0,0,0,36.13,34.32Z"/><path class="cls-3" d="M17.86,48.13a3.83,3.83,0,1,1,3.68-2.75h0A3.84,3.84,0,0,1,17.86,48.13Zm0-6.17a2.33,2.33,0,1,0,2.24,3h0A2.33,2.33,0,0,0,17.86,42Z"/><path class="cls-3" d="M33.82,54.13a3.83,3.83,0,1,1,3.68-2.75h0A3.84,3.84,0,0,1,33.82,54.13Zm0-6.17a2.33,2.33,0,1,0,2.24,3h0A2.33,2.33,0,0,0,33.82,48Z"/><path class="cls-4" d="M14.14,33.27c-7.2,0-10.28-6.63-11.21-9.2A15.29,15.29,0,0,1,16.86,33a13.76,13.76,0,0,1-2.72.29h0Z"/><path class="cls-2" d="M4.17,25a14.35,14.35,0,0,1,11.43,7.4,12.15,12.15,0,0,1-1.46.09,9.89,9.89,0,0,1-8.37-4.63A16.75,16.75,0,0,1,4.17,25M2.75,23.24l-0.94,0S4.5,34.1,14.14,34.1A15.25,15.25,0,0,0,18,33.57S14.34,23.24,2.75,23.24h0Z"/><path class="cls-4" d="M18.93,32a4.93,4.93,0,0,1-.27-3.42,6.75,6.75,0,0,1,2.57-3.32A7.1,7.1,0,0,1,18.93,32Z"/><path class="cls-2" d="M20.76,26.48a6.34,6.34,0,0,1-1.57,4.44,4,4,0,0,1,0-2.1,5.45,5.45,0,0,1,1.53-2.34m0.85-2.14S15.7,27.48,18.72,33a7.78,7.78,0,0,0,2.9-8.65h0Z"/><path class="cls-3" d="M14.13,34.85A11.76,11.76,0,0,1,8,33.22c-5.24-3.11-6.88-9.5-7-9.77a0.75,0.75,0,0,1,.69-0.93c12.74-.63,16.9,10.69,16.94,10.8a0.75,0.75,0,0,1-.52,1A16,16,0,0,1,14.13,34.85ZM2.82,24c0.63,1.8,2.39,5.81,6,7.94A11.11,11.11,0,0,0,17,33,15.36,15.36,0,0,0,2.82,24Z"/><path class="cls-3" d="M18.72,33.75l-0.18,0a0.75,0.75,0,0,1-.48-0.37,6.5,6.5,0,0,1-.7-5.11,8.59,8.59,0,0,1,3.9-4.56,0.75,0.75,0,0,1,1.07.45,8.6,8.6,0,0,1-3.2,9.49A0.76,0.76,0,0,1,18.72,33.75Zm2.41-8.18a6.48,6.48,0,0,0-2.34,3.12A4.73,4.73,0,0,0,19,31.81,6.86,6.86,0,0,0,21.13,25.57Z"/><path class="cls-3" d="M18,34.32a0.75,0.75,0,0,1-.68-0.44c-0.2-.43-4.86-10.82-3.75-26.36a0.76,0.76,0,0,1,.8-0.7,0.75,0.75,0,0,1,.69.8C14,22.76,18.64,33.15,18.69,33.26a0.75,0.75,0,0,1-.37,1A0.74,0.74,0,0,1,18,34.32Z"/></svg>