<svg xmlns="http://www.w3.org/2000/svg" width="292pt" height="292pt" version="1" viewBox="0 0 292.000000 292.000000"><path d="M240 18.1c-5.1 1.5-9.6 5.3-12.7 10.7l-2.8 4.7-.3 36.8-.3 36.8-2.7-.5c-15.6-3.2-47.7-5.7-74.7-5.7-25.1 0-38.7.9-62 4.2-7.7 1-14.7 1.9-15.7 1.9-1.7 0-1.8-2.1-1.8-35.1 0-37.9-.3-40.4-5.1-46.3-5.2-6.2-9.7-7.6-24.7-7.6-17.7 0-23.1 2.3-28.5 12.5l-2.2 4-.3 109.4c-.3 123-.6 116.4 6.9 124 5.6 5.6 8.8 6.3 26.1 5.9l14.6-.3 3.9-3.1c5.2-4.2 7.9-8.5 9.2-14.5.7-3.1 1.1-20.5 1.1-45.9 0-38 .1-40.9 1.8-41.4 3.6-1.1 32.4-4.6 47.7-5.7 26.9-2 63-.5 94.3 3.7l12.2 1.7V211c0 46.2.2 48.5 5.5 55.3 4.8 6.4 9.1 7.7 25.4 7.7 16 0 19.2-1 24.8-7.4 6.1-6.8 5.8-1.2 5.8-121.2v-110l-3-5.9c-2.3-4.5-4.2-6.6-7.9-9-4.8-2.9-5.4-3-18-3.2-7.2-.1-14.7.3-16.6.8z"/></svg>