<svg id="Layer_3" data-name="Layer 3" xmlns="http://www.w3.org/2000/svg" viewBox="0 0 70 70"><defs><style>.cls-1{fill:#78c144;}.cls-2{fill:#fff;}.cls-3{fill:#231f20;}</style></defs><path class="cls-1" d="M29,43.78a6.17,6.17,0,0,0,.45-4.68,11,11,0,0,1,.24-6.64,10.08,10.08,0,0,0,.54-3.23,6.68,6.68,0,0,1,1.5-4.57A4.92,4.92,0,0,0,33,21.72c0.17-1.7.78-4.68,3-5.63a9.59,9.59,0,0,0,2.25-1.33c1.51-1.22,5.49-4.07,9.79-4.07a9.31,9.31,0,0,1,2.07.23,5.31,5.31,0,0,1,2.85,1.7,9.34,9.34,0,0,1,2.22,7.58A13.54,13.54,0,0,0,55,22.39c0,1.94-.18,6.82-3.4,10.15a10.52,10.52,0,0,0-1.74,2.37,7.41,7.41,0,0,1-4,3.42,7.63,7.63,0,0,0-2.12,1.25A10.36,10.36,0,0,1,37.23,42h-0.3c-5.67,0-9.06,4.52-9.2,4.72l-1.65,2.51Z"/><path class="cls-2" d="M48,11.94h0a8,8,0,0,1,1.79.2A4.07,4.07,0,0,1,52,13.44,8.12,8.12,0,0,1,53.93,20a15,15,0,0,0-.16,2.4c0,1.78-.16,6.26-3.05,9.25a11.79,11.79,0,0,0-1.95,2.65,6.17,6.17,0,0,1-3.3,2.85A8.88,8.88,0,0,0,43,38.62a9.1,9.1,0,0,1-5.77,2.13h-0.3a12.14,12.14,0,0,0-6.17,1.72,7.44,7.44,0,0,0-.15-3.73,9.71,9.71,0,0,1,.23-5.89,11.32,11.32,0,0,0,.61-3.63,5.46,5.46,0,0,1,1.15-3.7,6.23,6.23,0,0,0,1.64-3.68c0.11-1.14.56-3.88,2.23-4.6A10.82,10.82,0,0,0,39,15.74c1.41-1.14,5.11-3.8,9-3.8m0-2.5c-4.61,0-8.76,2.88-10.58,4.35a8.29,8.29,0,0,1-2,1.16c-2.78,1.2-3.53,4.66-3.73,6.65a3.71,3.71,0,0,1-1,2.2,7.81,7.81,0,0,0-1.84,5.44,8.8,8.8,0,0,1-.48,2.82,12.2,12.2,0,0,0-.25,7.39,5,5,0,0,1-.36,3.74L22.38,53.57a0.52,0.52,0,0,0,.31.74l0.62,0.18a1,1,0,0,0,1.08-.4l4.35-6.64s3.08-4.2,8.19-4.2h0.3a11.62,11.62,0,0,0,7.38-2.71,6.4,6.4,0,0,1,1.78-1,8.69,8.69,0,0,0,4.6-4,9.28,9.28,0,0,1,1.54-2.08c3.55-3.67,3.81-8.93,3.75-11a12.33,12.33,0,0,1,.14-2,10.61,10.61,0,0,0-2.52-8.56,6.58,6.58,0,0,0-3.52-2.1A10.47,10.47,0,0,0,48,9.44h0Z"/><path class="cls-3" d="M23.59,55.28a1.74,1.74,0,0,1-.49-0.07L22.48,55a1.27,1.27,0,0,1-.76-1.81l5.48-10.37a4.17,4.17,0,0,0,.3-3.17,12.94,12.94,0,0,1,.25-7.84,8,8,0,0,0,.44-2.58,8.48,8.48,0,0,1,2.05-6A3,3,0,0,0,31,21.52c0.21-2.13,1-5.91,4.18-7.26a7.59,7.59,0,0,0,1.78-1C39.1,11.49,44.68,7.62,50.54,9a7.28,7.28,0,0,1,3.92,2.34h0a11.29,11.29,0,0,1,2.69,9.16A11.42,11.42,0,0,0,57,22.34c0.06,2.19-.22,7.72-4,11.59a8.52,8.52,0,0,0-1.42,1.91,9.38,9.38,0,0,1-5,4.35,5.6,5.6,0,0,0-1.57.92,12.37,12.37,0,0,1-8,2.89H36.93c-4.67,0-7.56,3.86-7.58,3.9L25,54.51A1.7,1.7,0,0,1,23.59,55.28Zm-0.42-1.61,0.35,0.1a0.21,0.21,0,0,0,.24-0.09L28.11,47c0.16-.22,3.4-4.54,8.81-4.54h0.3A10.85,10.85,0,0,0,44.12,40a7.14,7.14,0,0,1,2-1.17,7.89,7.89,0,0,0,4.21-3.66A10.06,10.06,0,0,1,52,32.88c3.35-3.46,3.59-8.5,3.54-10.51a12.92,12.92,0,0,1,.14-2.11,9.83,9.83,0,0,0-2.34-8h0a5.79,5.79,0,0,0-3.12-1.86C45,9.23,39.87,12.79,37.91,14.38a9.07,9.07,0,0,1-2.13,1.26c-2.43,1-3.1,4.23-3.28,6a4.43,4.43,0,0,1-1.17,2.65,7.17,7.17,0,0,0-1.64,4.92,9.56,9.56,0,0,1-.52,3.06,11.46,11.46,0,0,0-.24,6.94,5.67,5.67,0,0,1-.42,4.3Z"/><path class="cls-3" d="M33.57,38.73a0.75,0.75,0,0,1-.6-1.2l15.79-21a0.75,0.75,0,0,1,1.2.9l-15.79,21A0.75,0.75,0,0,1,33.57,38.73Z"/><path class="cls-2" d="M37.69,60.92a1.55,1.55,0,0,1-1.49-1.11l-2.29-7.6s-1.75-4.69-6.38-6a12.19,12.19,0,0,1-6.8-5,5.81,5.81,0,0,0-1.28-1.37,9.22,9.22,0,0,1-3.5-5.5,8.73,8.73,0,0,0-.83-2.28C12.66,27.37,14,22,14.62,20A11.72,11.72,0,0,0,15,18.12a11.13,11.13,0,0,1,5.11-7.91A7.14,7.14,0,0,1,24,9.08h0.46c5.94,0.36,10.16,5.61,11.7,7.85a7.64,7.64,0,0,0,1.44,1.54c2.57,2.13,2.29,5.93,1.9,8a3.12,3.12,0,0,0,.25,2A8.32,8.32,0,0,1,40,34.69a8.25,8.25,0,0,0-.31,2.65,12.78,12.78,0,0,1-2,7.5,4.33,4.33,0,0,0-.63,3.24l2.32,11.5a1.12,1.12,0,0,1-1.09,1.34H37.69Z"/><path class="cls-2" d="M24,9.68h0.42C30.08,10,34.12,15,35.68,17.28a8.29,8.29,0,0,0,1.55,1.66c2.33,1.94,2.07,5.47,1.69,7.43a3.71,3.71,0,0,0,.3,2.39,7.81,7.81,0,0,1,.23,5.74,8.8,8.8,0,0,0-.34,2.84,12.2,12.2,0,0,1-1.86,7.16,5,5,0,0,0-.71,3.69l2.32,11.5a0.52,0.52,0,0,1-.51.62H37.69a1,1,0,0,1-.92-0.68L34.48,52s-1.8-5-6.79-6.39a11.61,11.61,0,0,1-6.46-4.74,6.4,6.4,0,0,0-1.41-1.51,8.69,8.69,0,0,1-3.28-5.14,9.29,9.29,0,0,0-.89-2.43c-2.36-4.52-1.12-9.64-.47-11.66a12.35,12.35,0,0,0,.43-1.95,10.61,10.61,0,0,1,4.84-7.5,6.55,6.55,0,0,1,3.55-1m0-1.2A7.75,7.75,0,0,0,19.82,9.7,11.89,11.89,0,0,0,14.44,18a11,11,0,0,1-.39,1.76c-0.69,2.14-2,7.66.55,12.58a8.12,8.12,0,0,1,.77,2.12,9.82,9.82,0,0,0,3.72,5.85,5.19,5.19,0,0,1,1.14,1.22,12.8,12.8,0,0,0,7.13,5.23c4.18,1.17,5.84,5.27,6,5.62L35.62,60a2.15,2.15,0,0,0,2.07,1.54h0.65A1.72,1.72,0,0,0,40,59.46L37.71,48a3.73,3.73,0,0,1,.54-2.8,13.39,13.39,0,0,0,2.05-7.85,7.64,7.64,0,0,1,.29-2.46,8.9,8.9,0,0,0-.31-6.64,2.53,2.53,0,0,1-.19-1.62c0.42-2.2.7-6.25-2.11-8.58a7.13,7.13,0,0,1-1.32-1.42c-1.59-2.31-6-7.72-12.16-8.11L24,8.49h0Z"/><path class="cls-2" d="M37.69,60.92a1.55,1.55,0,0,1-1.49-1.11l-2.29-7.6s-1.75-4.69-6.38-6a12.19,12.19,0,0,1-6.8-5,5.81,5.81,0,0,0-1.28-1.37,9.22,9.22,0,0,1-3.5-5.5,8.73,8.73,0,0,0-.83-2.28C12.66,27.37,14,22,14.62,20A11.72,11.72,0,0,0,15,18.12a11.13,11.13,0,0,1,5.11-7.91A7.14,7.14,0,0,1,24,9.08h0.46c5.94,0.36,10.16,5.61,11.7,7.85a7.64,7.64,0,0,0,1.44,1.54c2.57,2.13,2.29,5.93,1.9,8a3.12,3.12,0,0,0,.25,2A8.32,8.32,0,0,1,40,34.69a8.25,8.25,0,0,0-.31,2.65,12.78,12.78,0,0,1-2,7.5,4.33,4.33,0,0,0-.63,3.24l2.32,11.5a1.12,1.12,0,0,1-1.09,1.34H37.69Z"/><path class="cls-2" d="M24,9.68h0.42C30.08,10,34.12,15,35.68,17.28a8.29,8.29,0,0,0,1.55,1.66c2.33,1.94,2.07,5.47,1.69,7.43a3.71,3.71,0,0,0,.3,2.39,7.81,7.81,0,0,1,.23,5.74,8.8,8.8,0,0,0-.34,2.84,12.2,12.2,0,0,1-1.86,7.16,5,5,0,0,0-.71,3.69l2.32,11.5a0.52,0.52,0,0,1-.51.62H37.69a1,1,0,0,1-.92-0.68L34.48,52s-1.8-5-6.79-6.39a11.61,11.61,0,0,1-6.46-4.74,6.4,6.4,0,0,0-1.41-1.51,8.69,8.69,0,0,1-3.28-5.14,9.29,9.29,0,0,0-.89-2.43c-2.36-4.52-1.12-9.64-.47-11.66a12.35,12.35,0,0,0,.43-1.95,10.61,10.61,0,0,1,4.84-7.5,6.55,6.55,0,0,1,3.55-1m0-1.2A7.75,7.75,0,0,0,19.82,9.7,11.89,11.89,0,0,0,14.44,18a11,11,0,0,1-.39,1.76c-0.69,2.14-2,7.66.55,12.58a8.12,8.12,0,0,1,.77,2.12,9.82,9.82,0,0,0,3.72,5.85,5.19,5.19,0,0,1,1.14,1.22,12.8,12.8,0,0,0,7.13,5.23c4.18,1.17,5.84,5.27,6,5.62L35.62,60a2.15,2.15,0,0,0,2.07,1.54h0.65A1.72,1.72,0,0,0,40,59.46L37.71,48a3.73,3.73,0,0,1,.54-2.8,13.39,13.39,0,0,0,2.05-7.85,7.64,7.64,0,0,1,.29-2.46,8.9,8.9,0,0,0-.31-6.64,2.53,2.53,0,0,1-.19-1.62c0.42-2.2.7-6.25-2.11-8.58a7.13,7.13,0,0,1-1.32-1.42c-1.59-2.31-6-7.72-12.16-8.11L24,8.49h0Z"/><path class="cls-1" d="M35.68,51.67c-0.1-.29-2.1-5.68-7.65-7.23a10.34,10.34,0,0,1-5.76-4.23,7.66,7.66,0,0,0-1.68-1.8A7.4,7.4,0,0,1,17.77,34a10.56,10.56,0,0,0-1-2.76c-2.14-4.11-1-8.85-.39-10.7a13.33,13.33,0,0,0,.48-2.15,9.33,9.33,0,0,1,4.28-6.63A5.3,5.3,0,0,1,24,10.93h0.34c5.12,0.31,8.9,5,10.29,7a9.59,9.59,0,0,0,1.78,1.91c1.84,1.53,1.58,4.57,1.26,6.24a5,5,0,0,0,.42,3.19,6.68,6.68,0,0,1,.14,4.81,10.07,10.07,0,0,0-.39,3.25,11,11,0,0,1-1.65,6.43,6.17,6.17,0,0,0-.89,4.62l1.21,6Z"/><path class="cls-2" d="M24,12.18h0.27c4.58,0.28,8.05,4.65,9.34,6.51a10.81,10.81,0,0,0,2,2.17c1.4,1.16,1.05,3.92.84,5a6.23,6.23,0,0,0,.53,4,5.46,5.46,0,0,1,.06,3.87,11.31,11.31,0,0,0-.45,3.65,9.71,9.71,0,0,1-1.45,5.71A7.44,7.44,0,0,0,34,46.67a12.11,12.11,0,0,0-5.59-3.44,9.09,9.09,0,0,1-5.06-3.72,8.87,8.87,0,0,0-2-2.1A6.17,6.17,0,0,1,19,33.75a11.81,11.81,0,0,0-1.12-3.09C16,27,17,22.63,17.57,20.93a15,15,0,0,0,.53-2.34,8.12,8.12,0,0,1,3.72-5.77,4.06,4.06,0,0,1,2.2-.63m0-2.5a6.55,6.55,0,0,0-3.55,1,10.61,10.61,0,0,0-4.84,7.5,12.35,12.35,0,0,1-.43,1.95c-0.65,2-1.89,7.14.47,11.66a9.29,9.29,0,0,1,.89,2.43,8.69,8.69,0,0,0,3.28,5.14,6.4,6.4,0,0,1,1.41,1.51,11.61,11.61,0,0,0,6.46,4.74c5,1.4,6.79,6.39,6.79,6.39l2.29,7.6a1,1,0,0,0,.92.68h0.65a0.52,0.52,0,0,0,.51-0.62L36.53,48.2a5,5,0,0,1,.71-3.69,12.2,12.2,0,0,0,1.86-7.16,8.8,8.8,0,0,1,.34-2.84,7.81,7.81,0,0,0-.23-5.74,3.71,3.71,0,0,1-.3-2.39c0.37-2,.63-5.5-1.69-7.43a8.29,8.29,0,0,1-1.55-1.66C34.12,15,30.08,10,24.43,9.7H24Z"/><path class="cls-3" d="M38.34,61.07H37.69a1.7,1.7,0,0,1-1.64-1.22l-2.29-7.6S32,47.63,27.49,46.36a12.34,12.34,0,0,1-6.88-5A5.69,5.69,0,0,0,19.36,40a9.37,9.37,0,0,1-3.55-5.58A8.59,8.59,0,0,0,15,32.17C12.5,27.39,13.8,22,14.48,19.93a11.51,11.51,0,0,0,.41-1.83,11.29,11.29,0,0,1,5.18-8h0a7.26,7.26,0,0,1,4.42-1.13c6,0.37,10.26,5.66,11.82,7.91a7.54,7.54,0,0,0,1.41,1.51c2.63,2.19,2.35,6,2,8.15a3,3,0,0,0,.23,1.91,8.47,8.47,0,0,1,.28,6.3,8.06,8.06,0,0,0-.31,2.6,12.94,12.94,0,0,1-2,7.59A4.18,4.18,0,0,0,37.27,48l2.32,11.5A1.27,1.27,0,0,1,38.34,61.07Zm-0.23-1.22h0ZM24,10.43a5.76,5.76,0,0,0-3.14.91h0a9.83,9.83,0,0,0-4.5,7,12.93,12.93,0,0,1-.46,2.07c-0.62,1.91-1.81,6.81.42,11.08a10,10,0,0,1,1,2.63,7.89,7.89,0,0,0,3,4.7,7.16,7.16,0,0,1,1.57,1.68,10.83,10.83,0,0,0,6,4.43c5.3,1.49,7.21,6.64,7.29,6.86l2.3,7.64a0.21,0.21,0,0,0,.2.15h0.37L35.8,48.34a5.68,5.68,0,0,1,.82-4.25,11.44,11.44,0,0,0,1.74-6.72,9.58,9.58,0,0,1,.37-3.08,7,7,0,0,0-.17-5.18,4.49,4.49,0,0,1-.37-2.87c0.34-1.78.6-5-1.44-6.72a9.06,9.06,0,0,1-1.68-1.81c-1.43-2.08-5.33-6.94-10.67-7.26H24Z"/><path class="cls-3" d="M32.53,42.33a0.75,0.75,0,0,1-.7-0.49L22.65,17.21a0.75,0.75,0,0,1,1.41-.52l9.18,24.64A0.75,0.75,0,0,1,32.53,42.33Z"/></svg>