<svg id="Layer_1" data-name="Layer 1" xmlns="http://www.w3.org/2000/svg" viewBox="0 0 70 70"><defs><style>.cls-1{fill:#efde7a;}.cls-2{fill:#fff;}.cls-3{fill:#231f20;}.cls-4{fill:#cebd67;}</style></defs><path class="cls-1" d="M51.24,54.31a19,19,0,0,1-6.44-1.22l-0.14,0c-3.44-1-17.12-9.68-26.34-18.77-8.17-8-7.56-11.34-7.55-11.37a0.61,0.61,0,0,0,0-.18,4.68,4.68,0,0,1,1-2.22,3.84,3.84,0,0,1,3.06-1.25,7.8,7.8,0,0,1,1.37.13A7.14,7.14,0,0,1,20,21.76a27,27,0,0,0,13.05,7.65l0.3,0.07c10.18,2.33,18.66,6.69,22.7,11.68l0.2,0.23,0.05,0.06c2.79,3.37,3.64,6.9,2.27,9.45-1.16,2.16-3.85,3.4-7.37,3.4h0Z"/><path class="cls-2" d="M14.87,20.35a6.69,6.69,0,0,1,1.18.11,6.2,6.2,0,0,1,3.19,2.05,28.16,28.16,0,0,0,13.6,8l0.31,0.07c9.95,2.27,18.21,6.5,22.09,11.3l0,0.05,0,0.06,0,0,0.07,0.09,0.06,0.07c2.46,3,3.28,6.12,2.15,8.22-1,1.79-3.3,2.82-6.4,2.82a17.93,17.93,0,0,1-6.07-1.16L44.92,52c-3.38-1-16.75-9.53-25.83-18.48-7-6.88-7.23-10-7.24-10.39a1.93,1.93,0,0,0,0-.24,3.58,3.58,0,0,1,.75-1.65,2.76,2.76,0,0,1,2.23-.87m-3,2.72h0m3-4.92A4.88,4.88,0,0,0,11,19.78,5.75,5.75,0,0,0,9.71,22.6s-1.25,3.51,7.83,12.46,23,18,26.87,19.06h0a20,20,0,0,0,6.82,1.29c3.79,0,6.92-1.35,8.34-4,1.65-3.05.57-7.09-2.39-10.67h0l-0.13-.15-0.11-.13c-4.81-5.94-14.53-10.06-23.31-12.06l-0.29-.07A26,26,0,0,1,20.84,21a8.33,8.33,0,0,0-4.4-2.71,8.84,8.84,0,0,0-1.57-.15h0Z"/><path class="cls-3" d="M51.26,56.17a20.79,20.79,0,0,1-7-1.33C40.15,53.75,26.05,44.5,17,35.6,8.36,27.06,8.78,23.19,9,22.45a6.54,6.54,0,0,1,1.44-3.16c1-1.12,2.83-2.33,6.16-1.73a8.87,8.87,0,0,1,4.81,2.93,25.16,25.16,0,0,0,12.14,7.12l0.28,0.07c10.57,2.41,19.44,7,23.72,12.32l0.11,0.13h0l-0.58.47,0.62-.43,0.11,0.13c3.27,3.94,4.2,8.25,2.45,11.48C58.7,54.64,55.36,56.17,51.26,56.17Zm-6.7-2.79,0.12,0c6.28,2.3,12.27,1.32,14.24-2.34,1.44-2.68.58-6.35-2.31-9.84l0.5-.57-0.57.49-0.06-.07L56.38,41c-4.1-5.07-12.66-9.48-22.91-11.82l-0.29-.07a26.67,26.67,0,0,1-12.88-7.55,7.46,7.46,0,0,0-4-2.48c-2.11-.38-3.72,0-4.76,1.23a5.06,5.06,0,0,0-1.09,2.41,0.72,0.72,0,0,1,0,.17s-0.76,3.38,7.65,11.67C26.76,43.09,40.66,52.29,44.56,53.38Z"/><path class="cls-4" d="M11.82,18.38a6.06,6.06,0,0,0,0-2.61A0.24,0.24,0,0,1,12,15.49l1.33-.32h0a0.25,0.25,0,0,1,.21.08,28.32,28.32,0,0,0,2.27,2.39A6.78,6.78,0,0,0,15,17.57a6,6,0,0,0-.77,0A6.34,6.34,0,0,0,11.82,18.38Z"/><path class="cls-2" d="M13.47,15.71h0m-0.2,0c0.27,0.32.66,0.76,1.16,1.27l-0.31,0a7.31,7.31,0,0,0-1.6.38A6.36,6.36,0,0,0,12.44,16l0.83-.2m0.12-1.17-0.19,0-1.33.33a0.8,0.8,0,0,0-.59,1,6.67,6.67,0,0,1-.74,4.45,4.78,4.78,0,0,1,3.72-2.17,5.54,5.54,0,0,1,.7,0,7.68,7.68,0,0,1,3.73,1.1A26,26,0,0,1,14,14.88a0.8,0.8,0,0,0-.62-0.29h0Zm5.29,4.64c0.25,0.18.52,0.35,0.78,0.51a7.09,7.09,0,0,0-.78-0.51h0Z"/><path class="cls-3" d="M10.54,21.09A0.73,0.73,0,0,1,10.2,21a0.75,0.75,0,0,1-.33-1,6,6,0,0,0,.68-4,1.55,1.55,0,0,1,1.15-1.85L13,13.88a1.55,1.55,0,0,1,1.56.51,25.05,25.05,0,0,0,4.5,4.2,7.57,7.57,0,0,1,.86.57,0.75,0.75,0,0,1-.86,1.22q-0.4-.24-0.77-0.51a6.57,6.57,0,0,0-3.94-1,4.07,4.07,0,0,0-3.15,1.77A0.76,0.76,0,0,1,10.54,21.09Zm2.89-5.73L12,15.67a6.93,6.93,0,0,1,0,2.37,6.68,6.68,0,0,1,2.09-.6,6.3,6.3,0,0,1,1.16,0C14.46,16.55,13.8,15.8,13.43,15.36Z"/><path class="cls-3" d="M52.72,52.09c-12.54,0-33.79-21.25-34.7-22.16a0.75,0.75,0,0,1,1.06-1.06c0.22,0.22,22.38,22.35,34.13,21.71a0.75,0.75,0,1,1,.08,1.5H52.72Z"/></svg>