<svg id="Layer_3" data-name="Layer 3" xmlns="http://www.w3.org/2000/svg" viewBox="0 0 70 70"><defs><style>.cls-1{fill:#be6728;}.cls-2{fill:#fff;}.cls-3{fill:#231f20;}.cls-4{fill:#e89d61;}.cls-5{fill:#fefce7;}</style></defs><path class="cls-1" d="M35,46.77c-13.45,0-25.12-4.94-26-11A1.1,1.1,0,0,0,8.48,35,1.1,1.1,0,0,0,9,34.24c0.91-6.07,12.59-11,26-11s25.13,4.94,26,11a1.1,1.1,0,0,0,.49.76,1.1,1.1,0,0,0-.49.76C60.12,41.83,48.45,46.77,35,46.77Z"/><path class="cls-2" d="M35,24.33a44.88,44.88,0,0,1,17.68,3.28c4.25,1.88,6.9,4.36,7.27,6.79a2.2,2.2,0,0,0,.18.6,2.2,2.2,0,0,0-.18.6c-0.36,2.43-3,4.91-7.27,6.79A44.88,44.88,0,0,1,35,45.67a44.88,44.88,0,0,1-17.68-3.28c-4.25-1.88-6.9-4.36-7.27-6.79A2.2,2.2,0,0,0,9.88,35a2.2,2.2,0,0,0,.18-0.6c0.36-2.43,3-4.91,7.27-6.79A44.88,44.88,0,0,1,35,24.33m0-2.2c-14.36,0-26.12,5.27-27.12,12-0.8.15-1.36,0.51-1.36,0.92s0.56,0.77,1.36.92c1,6.68,12.76,12,27.12,12s26.12-5.27,27.12-12c0.8-.15,1.36-0.51,1.36-0.92s-0.56-.77-1.36-0.92c-1-6.68-12.76-12-27.12-12h0Z"/><path class="cls-3" d="M35,48.62c-14.47,0-26.23-5.16-27.77-12.09A1.74,1.74,0,0,1,5.77,35a1.74,1.74,0,0,1,1.46-1.53C8.77,26.54,20.53,21.38,35,21.38s26.23,5.16,27.77,12.09A1.75,1.75,0,0,1,64.23,35a1.75,1.75,0,0,1-1.46,1.53C61.23,43.46,49.47,48.62,35,48.62ZM7.43,35a2.36,2.36,0,0,0,.59.19,0.75,0.75,0,0,1,.6.63C9.57,42.15,21.16,47.12,35,47.12s25.43-5,26.38-11.31a0.75,0.75,0,0,1,.6-0.62A2.36,2.36,0,0,0,62.57,35,2.36,2.36,0,0,0,62,34.81a0.75,0.75,0,0,1-.6-0.62C60.43,27.84,48.84,22.88,35,22.88s-25.43,5-26.38,11.31a0.75,0.75,0,0,1-.6.63A2.36,2.36,0,0,0,7.43,35Zm55.33,0.13h0ZM7.88,34.08h0Z"/><path class="cls-3" d="M33.11,43.94c-12.16,0-19.45-6.19-19.79-6.48a0.75,0.75,0,0,1,1-1.13c0.09,0.07,8.87,7.49,22.84,5.88a0.74,0.74,0,0,1,.83.66,0.75,0.75,0,0,1-.66.83A36.88,36.88,0,0,1,33.11,43.94Z"/><path class="cls-4" d="M27.39,39.76c0.45-1.36,2.34-4.85,6.29-10s6.83-7.89,8-8.67c-0.45,1.36-2.34,4.85-6.29,10S28.59,39,27.39,39.76Z"/><path class="cls-5" d="M42.37,21.52h0m-3,2.59a71.47,71.47,0,0,1-4.53,6.56,71.47,71.47,0,0,1-5.15,6.07A80.24,80.24,0,0,1,39.38,24.1m2.79-4c-1.13,0-5,3.91-9.06,9.18C28.79,35,25.93,40,26.71,40.63a0.32,0.32,0,0,0,.2.06c1.13,0,5-3.91,9.06-9.18,4.32-5.64,7.19-10.71,6.41-11.31a0.32,0.32,0,0,0-.2-0.06h0Z"/><path class="cls-1" d="M48.81,48.73c-5.56,0-13.07-3-19.93-7.89,2.75-2,6.61-6.93,8-8.69A70.62,70.62,0,0,0,42,24.48a20.59,20.59,0,0,0,1.14-2.26c9.76,8,15.32,18.28,12.49,23.4a1.1,1.1,0,0,0-.07.9H55.51a1.1,1.1,0,0,0-.76.31C53.45,48.07,51.4,48.73,48.81,48.73Z"/><path class="cls-2" d="M43.58,24a42.46,42.46,0,0,1,9.5,11.29c2.23,4.08,2.83,7.66,1.63,9.81a2.2,2.2,0,0,0-.22.58A2.2,2.2,0,0,0,54,46c-1.36,1.32-3.57,1.6-5.17,1.6-5,0-11.77-2.58-18.11-6.87a58.23,58.23,0,0,0,7-7.95A71.67,71.67,0,0,0,43,25c0.18-.31.38-0.66,0.57-1m-1.2-3.81c0.79,0.6-2.08,5.67-6.41,11.31-4,5.27-7.92,9.18-9.06,9.18a0.32,0.32,0,0,1-.2-0.06c7.76,6,16.06,9.23,22.09,9.23,2.82,0,5.15-.72,6.7-2.21a2.57,2.57,0,0,0,1.09.31,0.66,0.66,0,0,0,.55-0.22c0.25-.33,0-1-0.52-1.56,3.27-5.91-2.86-17.25-14.26-26h0Z"/><path class="cls-3" d="M48.77,50.63c-6.23,0-14.61-3.34-22.51-9.4A0.75,0.75,0,1,1,27.17,40c11,8.42,23.21,11.53,27.82,7.07A0.75,0.75,0,0,1,55.84,47a2.37,2.37,0,0,0,.58.21,2.38,2.38,0,0,0-.35-0.51,0.75,0.75,0,0,1-.1-0.86c3.1-5.61-3.07-16.6-14.06-25a0.75,0.75,0,1,1,.91-1.19c11.48,8.8,17.68,20.05,14.69,26.49a1.53,1.53,0,0,1-1.86,2.43A10.52,10.52,0,0,1,48.77,50.63Z"/><path class="cls-3" d="M26.83,41.41a0.91,0.91,0,0,1-.57-0.18h0c-0.92-.71-0.58-3.42,6.27-12.36a70.37,70.37,0,0,1,6-7c2.63-2.6,3.62-2.79,4.28-2.28,0.92,0.71.58,3.42-6.27,12.36C30.8,39.49,28.09,41.41,26.83,41.41ZM41.6,21.2c-1.26.88-4.08,3.6-7.89,8.58S28,38.19,27.48,39.63c1.26-.88,4.08-3.6,7.89-8.58S41.08,22.65,41.6,21.2Z"/></svg>