<svg id="Layer_1" data-name="Layer 1" xmlns="http://www.w3.org/2000/svg" viewBox="0 0 70 70"><defs><style>.cls-1{fill:#fddea6;}.cls-2{fill:#fff;}.cls-3{fill:#231f20;}</style></defs><path class="cls-1" d="M16.66,43a5.42,5.42,0,0,1-5.23-2.85A5.66,5.66,0,0,1,14,32.62a60.53,60.53,0,0,0,6-2.36A54.49,54.49,0,0,0,25.6,27,5.55,5.55,0,0,1,28,26.45a5.7,5.7,0,0,1,5.1,3.18c1.74,3.58-1,6.33-2.79,7.65a36.68,36.68,0,0,1-5.35,3.13,24.76,24.76,0,0,1-5.74,2.25A11,11,0,0,1,16.66,43Z"/><path class="cls-2" d="M16.66,43.74c-2.82,0-4.87-1.13-5.9-3.28a6.42,6.42,0,0,1,2.9-8.52l0.1,0a59.57,59.57,0,0,0,5.93-2.33,53.55,53.55,0,0,0,5.5-3.22l0.1-.05a6.29,6.29,0,0,1,2.7-.6,6.45,6.45,0,0,1,5.78,3.6c1.44,3,.34,6.1-3,8.58a37.58,37.58,0,0,1-5.47,3.2,25.33,25.33,0,0,1-5.89,2.31A11.75,11.75,0,0,1,16.66,43.74ZM14.28,33.31a4.92,4.92,0,0,0-2.17,6.5c0.78,1.61,2.31,2.43,4.55,2.43A10.27,10.27,0,0,0,19,41.94a24.23,24.23,0,0,0,5.58-2.2,35.91,35.91,0,0,0,5.23-3.06c2-1.45,4-3.79,2.57-6.72A4.94,4.94,0,0,0,28,27.2a4.8,4.8,0,0,0-2,.44,54.75,54.75,0,0,1-5.63,3.29A60.49,60.49,0,0,1,14.28,33.31Z"/><path class="cls-1" d="M47,53.13a60.52,60.52,0,0,0-6.44-.62H40a56.6,56.6,0,0,0-5.93.38,5.67,5.67,0,0,1-5.47-5.75c0.08-4,3.77-5.19,6-5.56A35.42,35.42,0,0,1,40,41.2h0.79a24.83,24.83,0,0,1,6.14.59c1.38,0.33,5.86,1.73,5.78,5.79A5.68,5.68,0,0,1,47,53.13h0Z"/><path class="cls-2" d="M47,53.88H46.9a59.82,59.82,0,0,0-6.34-.61,49.7,49.7,0,0,0-6.36.37H34.08a6.42,6.42,0,0,1-6.2-6.52c0.06-3.3,2.46-5.59,6.58-6.28a37.52,37.52,0,0,1,6.33-.37,25.39,25.39,0,0,1,6.3.61c1.51,0.36,6.44,1.91,6.35,6.53A6.43,6.43,0,0,1,47,53.88Zm-7-2.13h0.55a61.26,61.26,0,0,1,6.49.62,4.92,4.92,0,0,0,4.88-4.81c0.07-3.5-4-4.75-5.2-5a24.27,24.27,0,0,0-6-.57,36.31,36.31,0,0,0-6.06.35c-2.4.4-5.27,1.57-5.33,4.83a4.92,4.92,0,0,0,4.69,5A58.06,58.06,0,0,1,40,51.75Z"/><path class="cls-1" d="M50.89,36.8a8.46,8.46,0,0,1-4.52-1.58,36.78,36.78,0,0,1-4.78-3.95,24.75,24.75,0,0,1-4.09-4.61c-0.78-1.18-3.12-5.25-.29-8.17a5.67,5.67,0,0,1,7.94-.19,60.74,60.74,0,0,0,4.3,4.84,54.16,54.16,0,0,0,5,4.12,5.66,5.66,0,0,1,.09,7.94A4.89,4.89,0,0,1,50.89,36.8Z"/><path class="cls-2" d="M50.89,37.55A9.21,9.21,0,0,1,46,35.85a37.59,37.59,0,0,1-4.89-4,25.32,25.32,0,0,1-4.2-4.73C36,25.79,33.45,21.3,36.66,18a6.42,6.42,0,0,1,9-.22l0.07,0.08A60,60,0,0,0,50,22.61a53.26,53.26,0,0,0,4.92,4.06L55,26.74a6.42,6.42,0,0,1,.1,9A5.62,5.62,0,0,1,50.89,37.55Zm-9.63-20A4.86,4.86,0,0,0,37.74,19c-2.43,2.52-.32,6.18.38,7.24a24.16,24.16,0,0,0,4,4.48,36,36,0,0,0,4.67,3.86c2.81,1.85,5.4,2,7.2.09a4.92,4.92,0,0,0,0-6.85,54.49,54.49,0,0,1-5-4.15,61,61,0,0,1-4.33-4.87A4.88,4.88,0,0,0,41.26,17.53Z"/><path class="cls-3" d="M34.75,28.83a7.84,7.84,0,0,0-4.54-4.16,6.92,6.92,0,0,0-5.57.74,53.85,53.85,0,0,1-5.43,3.18,61.18,61.18,0,0,1-5.89,2.3,6.49,6.49,0,0,0-4,3.62,8,8,0,0,0,.47,6.44c1.23,2.54,3.7,3.91,6.85,3.91a13,13,0,0,0,3-.38,26.44,26.44,0,0,0,6.12-2.39,38.89,38.89,0,0,0,5.64-3.31C35.22,35.95,36.44,32.32,34.75,28.83ZM30.5,37.57a37.3,37.3,0,0,1-5.41,3.17A25,25,0,0,1,19.28,43c-1.44.34-6.28,1.16-8.17-2.73a6.49,6.49,0,0,1-.43-5.21,5,5,0,0,1,3.12-2.77,61.19,61.19,0,0,0,6.05-2.37,53.45,53.45,0,0,0,5.56-3.25,5.94,5.94,0,0,1,2.89-.81,4.81,4.81,0,0,1,1.45.22,6.35,6.35,0,0,1,3.64,3.38c1.84,3.81-1,6.7-2.9,8.09h0Z"/><path class="cls-3" d="M47.35,40a26.51,26.51,0,0,0-6.54-.64,39.24,39.24,0,0,0-6.53.39c-4.69.79-7.43,3.47-7.5,7.35a7.84,7.84,0,0,0,2.16,5.77,6.91,6.91,0,0,0,5.3,1.87,55,55,0,0,1,6.29-.37,60.73,60.73,0,0,1,6.29.62,8.34,8.34,0,0,0,1.07.07A6.21,6.21,0,0,0,52,53.57a8,8,0,0,0,2.5-6C54.62,44,51.93,41.1,47.35,40Zm3.71,12.44a5,5,0,0,1-4,1.05,60.89,60.89,0,0,0-6.47-.63H40a54.94,54.94,0,0,0-5.9.38A5.51,5.51,0,0,1,30,51.79a6.34,6.34,0,0,1-1.71-4.67c0.08-4.23,4-5.51,6.25-5.9a37.37,37.37,0,0,1,6.27-.37,25,25,0,0,1,6.2.6c1.44,0.35,6.13,1.81,6,6.13A6.49,6.49,0,0,1,51.06,52.44Z"/><path class="cls-3" d="M55.58,25.83a53.73,53.73,0,0,1-4.86-4,61.15,61.15,0,0,1-4.19-4.73,6.49,6.49,0,0,0-4.78-2.53,7.94,7.94,0,0,0-5.88,2.66c-2.55,2.64-2.52,6.56.09,10.48a26.46,26.46,0,0,0,4.35,4.92,39,39,0,0,0,5,4.16h0a10.22,10.22,0,0,0,5.54,1.89,6.73,6.73,0,0,0,5-2.17,7.84,7.84,0,0,0,2.34-5.69A6.92,6.92,0,0,0,55.58,25.83Zm-0.81,9.63c-2.94,3-6.64,1.35-8.59.07a37.34,37.34,0,0,1-4.83-4,25,25,0,0,1-4.14-4.67c-0.82-1.23-3.26-5.5-.26-8.61a6.47,6.47,0,0,1,4.75-2.2,5,5,0,0,1,3.67,2,61.21,61.21,0,0,0,4.31,4.87,53.19,53.19,0,0,0,5,4.1,5.43,5.43,0,0,1,2,3.87A6.35,6.35,0,0,1,54.77,35.46Z"/></svg>